M48
; DRILL file {KiCad 9.0.4} date 2026-03-06T13:59:40+0900
; FORMAT={-:-/ absolute / metric / decimal}
; #@! TF.CreationDate,2026-03-06T13:59:40+09:00
; #@! TF.GenerationSoftware,Kicad,Pcbnew,9.0.4
; #@! TF.FileFunction,Plated,1,2,PTH
FMAT,2
METRIC
; #@! TA.AperFunction,Plated,PTH,ViaDrill
T1C0.300
; #@! TA.AperFunction,Plated,PTH,ComponentDrill
T2C0.813
; #@! TA.AperFunction,Plated,PTH,ComponentDrill
T3C1.000
; #@! TA.AperFunction,Plated,PTH,ComponentDrill
T4C1.245
%
G90
G05
T1
X81.0Y-96.5
X141.0Y-82.0
X183.3Y-41.0
X183.3Y-41.1
X197.0Y-31.7
T2
X198.5Y-47.0
X198.5Y-49.0
X198.5Y-51.0
T3
X149.17Y-89.46
X149.17Y-92.0
X154.76Y-80.01
X154.76Y-82.55
X154.76Y-85.09
X154.76Y-87.63
X154.76Y-90.17
X154.76Y-92.71
X154.76Y-95.25
X154.76Y-97.79
X154.76Y-100.33
X158.57Y-80.01
X166.19Y-80.01
X170.0Y-80.01
X170.0Y-82.55
X170.0Y-85.09
X170.0Y-87.63
X170.0Y-90.17
X170.0Y-92.71
X170.0Y-95.25
X170.0Y-97.79
X170.0Y-100.33
X180.22Y-82.92
X180.22Y-85.46
X180.22Y-88.0
X180.22Y-90.54
X180.22Y-93.08
X180.22Y-95.62
X180.22Y-98.16
X180.22Y-100.7
X198.0Y-82.92
X198.0Y-85.46
X198.0Y-88.0
X198.0Y-90.54
X198.0Y-93.08
X198.0Y-95.62
X198.0Y-98.16
X198.0Y-100.7
T4
X198.5Y-44.9
X198.5Y-53.1
M30
