%TF.GenerationSoftware,KiCad,Pcbnew,9.0.4*%
%TF.CreationDate,2026-03-06T13:59:42+09:00*%
%TF.ProjectId,kalimba,6b616c69-6d62-4612-9e6b-696361645f70,rev?*%
%TF.SameCoordinates,Original*%
%TF.FileFunction,Copper,L1,Top*%
%TF.FilePolarity,Positive*%
%FSLAX46Y46*%
G04 Gerber Fmt 4.6, Leading zero omitted, Abs format (unit mm)*
G04 Created by KiCad (PCBNEW 9.0.4) date 2026-03-06 13:59:42*
%MOMM*%
%LPD*%
G01*
G04 APERTURE LIST*
G04 Aperture macros list*
%AMRoundRect*
0 Rectangle with rounded corners*
0 $1 Rounding radius*
0 $2 $3 $4 $5 $6 $7 $8 $9 X,Y pos of 4 corners*
0 Add a 4 corners polygon primitive as box body*
4,1,4,$2,$3,$4,$5,$6,$7,$8,$9,$2,$3,0*
0 Add four circle primitives for the rounded corners*
1,1,$1+$1,$2,$3*
1,1,$1+$1,$4,$5*
1,1,$1+$1,$6,$7*
1,1,$1+$1,$8,$9*
0 Add four rect primitives between the rounded corners*
20,1,$1+$1,$2,$3,$4,$5,0*
20,1,$1+$1,$4,$5,$6,$7,0*
20,1,$1+$1,$6,$7,$8,$9,0*
20,1,$1+$1,$8,$9,$2,$3,0*%
G04 Aperture macros list end*
%TA.AperFunction,SMDPad,CuDef*%
%ADD10R,0.609600X0.609600*%
%TD*%
%TA.AperFunction,SMDPad,CuDef*%
%ADD11RoundRect,0.135000X-0.135000X-0.185000X0.135000X-0.185000X0.135000X0.185000X-0.135000X0.185000X0*%
%TD*%
%TA.AperFunction,ComponentPad*%
%ADD12C,1.320800*%
%TD*%
%TA.AperFunction,ComponentPad*%
%ADD13C,1.752600*%
%TD*%
%TA.AperFunction,ComponentPad*%
%ADD14R,1.700000X1.700000*%
%TD*%
%TA.AperFunction,ComponentPad*%
%ADD15C,1.700000*%
%TD*%
%TA.AperFunction,SMDPad,CuDef*%
%ADD16RoundRect,0.250000X0.650000X-1.000000X0.650000X1.000000X-0.650000X1.000000X-0.650000X-1.000000X0*%
%TD*%
%TA.AperFunction,SMDPad,CuDef*%
%ADD17RoundRect,0.140000X-0.140000X-0.170000X0.140000X-0.170000X0.140000X0.170000X-0.140000X0.170000X0*%
%TD*%
%TA.AperFunction,ViaPad*%
%ADD18C,0.600000*%
%TD*%
%TA.AperFunction,Conductor*%
%ADD19C,0.500000*%
%TD*%
%TA.AperFunction,Conductor*%
%ADD20C,0.200000*%
%TD*%
G04 APERTURE END LIST*
D10*
%TO.P,U4,1,DO*%
%TO.N,Net-(U3-DI)*%
X97100001Y-48155700D03*
%TO.P,U4,2,GND*%
%TO.N,GND*%
X98099999Y-48155700D03*
%TO.P,U4,3,DI*%
%TO.N,Net-(U4-DI)*%
X98099999Y-45844300D03*
%TO.P,U4,4,VDD*%
%TO.N,+5V*%
X97100001Y-45844300D03*
%TD*%
%TO.P,U7,1,DO*%
%TO.N,Net-(U6-DI)*%
X115700001Y-60155700D03*
%TO.P,U7,2,GND*%
%TO.N,GND*%
X116699999Y-60155700D03*
%TO.P,U7,3,DI*%
%TO.N,Net-(U7-DI)*%
X116699999Y-57844300D03*
%TO.P,U7,4,VDD*%
%TO.N,+5V*%
X115700001Y-57844300D03*
%TD*%
D11*
%TO.P,R1,1*%
%TO.N,+BATT*%
X174980000Y-79500000D03*
%TO.P,R1,2*%
%TO.N,Net-(J3-Pin_8)*%
X176000000Y-79500000D03*
%TD*%
D10*
%TO.P,U18,1,DO*%
%TO.N,Net-(U17-DI)*%
X183900001Y-46155700D03*
%TO.P,U18,2,GND*%
%TO.N,GND*%
X184899999Y-46155700D03*
%TO.P,U18,3,DI*%
%TO.N,Net-(U18-DI)*%
X184899999Y-43844300D03*
%TO.P,U18,4,VDD*%
%TO.N,+5V*%
X183900001Y-43844300D03*
%TD*%
%TO.P,U19,1,DO*%
%TO.N,Net-(U18-DI)*%
X190100001Y-42155700D03*
%TO.P,U19,2,GND*%
%TO.N,GND*%
X191099999Y-42155700D03*
%TO.P,U19,3,DI*%
%TO.N,Net-(U19-DI)*%
X191099999Y-39844300D03*
%TO.P,U19,4,VDD*%
%TO.N,+5V*%
X190100001Y-39844300D03*
%TD*%
%TO.P,U13,1,DO*%
%TO.N,Net-(U12-DI)*%
X152900001Y-66155700D03*
%TO.P,U13,2,GND*%
%TO.N,GND*%
X153899999Y-66155700D03*
%TO.P,U13,3,DI*%
%TO.N,Net-(U13-DI)*%
X153899999Y-63844300D03*
%TO.P,U13,4,VDD*%
%TO.N,+5V*%
X152900001Y-63844300D03*
%TD*%
D12*
%TO.P,SW1,1,A*%
%TO.N,+BATOUT*%
X198500000Y-51000002D03*
%TO.P,SW1,2,B*%
%TO.N,+5V*%
X198500000Y-49000001D03*
%TO.P,SW1,3,C*%
%TO.N,unconnected-(SW1-C-Pad3)*%
X198500000Y-47000000D03*
D13*
%TO.P,SW1,4*%
%TO.N,N/C*%
X198500000Y-53100000D03*
%TO.P,SW1,5*%
X198500000Y-44900002D03*
%TD*%
D10*
%TO.P,U15,1,DO*%
%TO.N,Net-(U14-DI)*%
X165300001Y-58155700D03*
%TO.P,U15,2,GND*%
%TO.N,GND*%
X166299999Y-58155700D03*
%TO.P,U15,3,DI*%
%TO.N,Net-(U15-DI)*%
X166299999Y-55844300D03*
%TO.P,U15,4,VDD*%
%TO.N,+5V*%
X165300001Y-55844300D03*
%TD*%
D14*
%TO.P,J4,1,Pin_1*%
%TO.N,Net-(D2-A)*%
X154760000Y-80010000D03*
D15*
%TO.P,J4,2,Pin_2*%
%TO.N,unconnected-(J4-Pin_2-Pad2)*%
X154760000Y-82550000D03*
%TO.P,J4,3,Pin_3*%
%TO.N,unconnected-(J4-Pin_3-Pad3)*%
X154760000Y-85090000D03*
%TO.P,J4,4,Pin_4*%
%TO.N,unconnected-(J4-Pin_4-Pad4)*%
X154760000Y-87630000D03*
%TO.P,J4,5,Pin_5*%
%TO.N,unconnected-(J4-Pin_5-Pad5)*%
X154760000Y-90170000D03*
%TO.P,J4,6,Pin_6*%
%TO.N,unconnected-(J4-Pin_6-Pad6)*%
X154760000Y-92710000D03*
%TO.P,J4,7,Pin_7*%
%TO.N,unconnected-(J4-Pin_7-Pad7)*%
X154760000Y-95250000D03*
%TO.P,J4,8,Pin_8*%
%TO.N,unconnected-(J4-Pin_8-Pad8)*%
X154760000Y-97790000D03*
%TO.P,J4,9,Pin_9*%
%TO.N,Net-(D1-K)*%
X154760000Y-100330000D03*
%TD*%
D10*
%TO.P,U1,1,DO*%
%TO.N,unconnected-(U1-DO-Pad1)*%
X78500001Y-36155700D03*
%TO.P,U1,2,GND*%
%TO.N,GND*%
X79499999Y-36155700D03*
%TO.P,U1,3,DI*%
%TO.N,Net-(U1-DI)*%
X79499999Y-33844300D03*
%TO.P,U1,4,VDD*%
%TO.N,+5V*%
X78500001Y-33844300D03*
%TD*%
%TO.P,U14,1,DO*%
%TO.N,Net-(U13-DI)*%
X159100001Y-62155700D03*
%TO.P,U14,2,GND*%
%TO.N,GND*%
X160099999Y-62155700D03*
%TO.P,U14,3,DI*%
%TO.N,Net-(U14-DI)*%
X160099999Y-59844300D03*
%TO.P,U14,4,VDD*%
%TO.N,+5V*%
X159100001Y-59844300D03*
%TD*%
%TO.P,U8,1,DO*%
%TO.N,Net-(U7-DI)*%
X121900001Y-64155700D03*
%TO.P,U8,2,GND*%
%TO.N,GND*%
X122899999Y-64155700D03*
%TO.P,U8,3,DI*%
%TO.N,Net-(U8-DI)*%
X122899999Y-61844300D03*
%TO.P,U8,4,VDD*%
%TO.N,+5V*%
X121900001Y-61844300D03*
%TD*%
%TO.P,U21,1,DO*%
%TO.N,Net-(U20-DI)*%
X202500001Y-34155700D03*
%TO.P,U21,2,GND*%
%TO.N,GND*%
X203499999Y-34155700D03*
%TO.P,U21,3,DI*%
%TO.N,Net-(J3-Pin_5)*%
X203499999Y-31844300D03*
%TO.P,U21,4,VDD*%
%TO.N,+5V*%
X202500001Y-31844300D03*
%TD*%
%TO.P,U11,1,DO*%
%TO.N,Net-(U10-DI)*%
X140500001Y-76155700D03*
%TO.P,U11,2,GND*%
%TO.N,GND*%
X141499999Y-76155700D03*
%TO.P,U11,3,DI*%
%TO.N,Net-(U11-DI)*%
X141499999Y-73844300D03*
%TO.P,U11,4,VDD*%
%TO.N,+5V*%
X140500001Y-73844300D03*
%TD*%
D14*
%TO.P,J3,1,Pin_1*%
%TO.N,unconnected-(J3-Pin_1-Pad1)*%
X198000000Y-100700000D03*
D15*
%TO.P,J3,2,Pin_2*%
%TO.N,unconnected-(J3-Pin_2-Pad2)*%
X198000000Y-98160000D03*
%TO.P,J3,3,Pin_3*%
%TO.N,unconnected-(J3-Pin_3-Pad3)*%
X198000000Y-95620000D03*
%TO.P,J3,4,Pin_4*%
%TO.N,unconnected-(J3-Pin_4-Pad4)*%
X198000000Y-93080000D03*
%TO.P,J3,5,Pin_5*%
%TO.N,Net-(J3-Pin_5)*%
X198000000Y-90540000D03*
%TO.P,J3,6,Pin_6*%
%TO.N,unconnected-(J3-Pin_6-Pad6)*%
X198000000Y-88000000D03*
%TO.P,J3,7,Pin_7*%
%TO.N,unconnected-(J3-Pin_7-Pad7)*%
X198000000Y-85460000D03*
%TO.P,J3,8,Pin_8*%
%TO.N,Net-(J3-Pin_8)*%
X198000000Y-82920000D03*
%TD*%
D14*
%TO.P,J1,1,Pin_1*%
%TO.N,+BATT*%
X158570000Y-80010000D03*
%TD*%
D10*
%TO.P,U2,1,DO*%
%TO.N,Net-(U1-DI)*%
X84700001Y-40155700D03*
%TO.P,U2,2,GND*%
%TO.N,GND*%
X85699999Y-40155700D03*
%TO.P,U2,3,DI*%
%TO.N,Net-(U2-DI)*%
X85699999Y-37844300D03*
%TO.P,U2,4,VDD*%
%TO.N,+5V*%
X84700001Y-37844300D03*
%TD*%
%TO.P,U20,1,DO*%
%TO.N,Net-(U19-DI)*%
X196300001Y-38155700D03*
%TO.P,U20,2,GND*%
%TO.N,GND*%
X197299999Y-38155700D03*
%TO.P,U20,3,DI*%
%TO.N,Net-(U20-DI)*%
X197299999Y-35844300D03*
%TO.P,U20,4,VDD*%
%TO.N,+5V*%
X196300001Y-35844300D03*
%TD*%
%TO.P,U9,1,DO*%
%TO.N,Net-(U8-DI)*%
X128100001Y-68155700D03*
%TO.P,U9,2,GND*%
%TO.N,GND*%
X129099999Y-68155700D03*
%TO.P,U9,3,DI*%
%TO.N,Net-(U10-DO)*%
X129099999Y-65844300D03*
%TO.P,U9,4,VDD*%
%TO.N,+5V*%
X128100001Y-65844300D03*
%TD*%
%TO.P,U12,1,DO*%
%TO.N,Net-(U11-DI)*%
X146700001Y-70155700D03*
%TO.P,U12,2,GND*%
%TO.N,GND*%
X147699999Y-70155700D03*
%TO.P,U12,3,DI*%
%TO.N,Net-(U12-DI)*%
X147699999Y-67844300D03*
%TO.P,U12,4,VDD*%
%TO.N,+5V*%
X146700001Y-67844300D03*
%TD*%
%TO.P,U17,1,DO*%
%TO.N,Net-(U16-DI)*%
X177700001Y-50155700D03*
%TO.P,U17,2,GND*%
%TO.N,GND*%
X178699999Y-50155700D03*
%TO.P,U17,3,DI*%
%TO.N,Net-(U17-DI)*%
X178699999Y-47844300D03*
%TO.P,U17,4,VDD*%
%TO.N,+5V*%
X177700001Y-47844300D03*
%TD*%
D16*
%TO.P,D1,1,K*%
%TO.N,Net-(D1-K)*%
X175080000Y-97250000D03*
%TO.P,D1,2,A*%
%TO.N,+5V*%
X175080000Y-93250000D03*
%TD*%
%TO.P,D2,1,K*%
%TO.N,+BATOUT*%
X149606000Y-83375000D03*
%TO.P,D2,2,A*%
%TO.N,Net-(D2-A)*%
X149606000Y-79375000D03*
%TD*%
D14*
%TO.P,J2,1,Pin_1*%
%TO.N,+5V*%
X180220000Y-100700000D03*
D15*
%TO.P,J2,2,Pin_2*%
%TO.N,GND*%
X180220000Y-98160000D03*
%TO.P,J2,3,Pin_3*%
%TO.N,unconnected-(J2-Pin_3-Pad3)*%
X180220000Y-95620000D03*
%TO.P,J2,4,Pin_4*%
%TO.N,unconnected-(J2-Pin_4-Pad4)*%
X180220000Y-93080000D03*
%TO.P,J2,5,Pin_5*%
%TO.N,unconnected-(J2-Pin_5-Pad5)*%
X180220000Y-90540000D03*
%TO.P,J2,6,Pin_6*%
%TO.N,unconnected-(J2-Pin_6-Pad6)*%
X180220000Y-88000000D03*
%TO.P,J2,7,Pin_7*%
%TO.N,unconnected-(J2-Pin_7-Pad7)*%
X180220000Y-85460000D03*
%TO.P,J2,8,Pin_8*%
%TO.N,unconnected-(J2-Pin_8-Pad8)*%
X180220000Y-82920000D03*
%TD*%
D10*
%TO.P,U6,1,DO*%
%TO.N,Net-(U5-DI)*%
X109500001Y-56155700D03*
%TO.P,U6,2,GND*%
%TO.N,GND*%
X110499999Y-56155700D03*
%TO.P,U6,3,DI*%
%TO.N,Net-(U6-DI)*%
X110499999Y-53844300D03*
%TO.P,U6,4,VDD*%
%TO.N,+5V*%
X109500001Y-53844300D03*
%TD*%
D11*
%TO.P,R2,1*%
%TO.N,Net-(J3-Pin_8)*%
X174980000Y-81490000D03*
%TO.P,R2,2*%
%TO.N,GND*%
X176000000Y-81490000D03*
%TD*%
D10*
%TO.P,U3,1,DO*%
%TO.N,Net-(U2-DI)*%
X90900001Y-44155700D03*
%TO.P,U3,2,GND*%
%TO.N,GND*%
X91899999Y-44155700D03*
%TO.P,U3,3,DI*%
%TO.N,Net-(U3-DI)*%
X91899999Y-41844300D03*
%TO.P,U3,4,VDD*%
%TO.N,+5V*%
X90900001Y-41844300D03*
%TD*%
D17*
%TO.P,C1,1*%
%TO.N,Net-(J3-Pin_8)*%
X175020000Y-83000000D03*
%TO.P,C1,2*%
%TO.N,GND*%
X175980000Y-83000000D03*
%TD*%
D14*
%TO.P,J5,1,Pin_1*%
%TO.N,Net-(J5-Pin_1)*%
X166190000Y-80010000D03*
%TD*%
%TO.P,J6,1,Pin_1*%
%TO.N,GND*%
X170000000Y-80010000D03*
D15*
%TO.P,J6,2,Pin_2*%
%TO.N,unconnected-(J6-Pin_2-Pad2)*%
X170000000Y-82550000D03*
%TO.P,J6,3,Pin_3*%
%TO.N,unconnected-(J6-Pin_3-Pad3)*%
X170000000Y-85090000D03*
%TO.P,J6,4,Pin_4*%
%TO.N,unconnected-(J6-Pin_4-Pad4)*%
X170000000Y-87630000D03*
%TO.P,J6,5,Pin_5*%
%TO.N,unconnected-(J6-Pin_5-Pad5)*%
X170000000Y-90170000D03*
%TO.P,J6,6,Pin_6*%
%TO.N,unconnected-(J6-Pin_6-Pad6)*%
X170000000Y-92710000D03*
%TO.P,J6,7,Pin_7*%
%TO.N,unconnected-(J6-Pin_7-Pad7)*%
X170000000Y-95250000D03*
%TO.P,J6,8,Pin_8*%
%TO.N,unconnected-(J6-Pin_8-Pad8)*%
X170000000Y-97790000D03*
%TO.P,J6,9,Pin_9*%
%TO.N,GND*%
X170000000Y-100330000D03*
%TD*%
D10*
%TO.P,U10,1,DO*%
%TO.N,Net-(U10-DO)*%
X134300001Y-72155700D03*
%TO.P,U10,2,GND*%
%TO.N,GND*%
X135299999Y-72155700D03*
%TO.P,U10,3,DI*%
%TO.N,Net-(U10-DI)*%
X135299999Y-69844300D03*
%TO.P,U10,4,VDD*%
%TO.N,+5V*%
X134300001Y-69844300D03*
%TD*%
%TO.P,U5,1,DO*%
%TO.N,Net-(U4-DI)*%
X103300001Y-52155700D03*
%TO.P,U5,2,GND*%
%TO.N,GND*%
X104299999Y-52155700D03*
%TO.P,U5,3,DI*%
%TO.N,Net-(U5-DI)*%
X104299999Y-49844300D03*
%TO.P,U5,4,VDD*%
%TO.N,+5V*%
X103300001Y-49844300D03*
%TD*%
D14*
%TO.P,J7,1,Pin_1*%
%TO.N,+BATT*%
X149170000Y-92000000D03*
D15*
%TO.P,J7,2,Pin_2*%
%TO.N,Net-(J5-Pin_1)*%
X149170000Y-89460000D03*
%TD*%
D10*
%TO.P,U16,1,DO*%
%TO.N,Net-(U15-DI)*%
X171500001Y-54155700D03*
%TO.P,U16,2,GND*%
%TO.N,GND*%
X172499999Y-54155700D03*
%TO.P,U16,3,DI*%
%TO.N,Net-(U16-DI)*%
X172499999Y-51844300D03*
%TO.P,U16,4,VDD*%
%TO.N,+5V*%
X171500001Y-51844300D03*
%TD*%
D18*
%TO.N,GND*%
X141000000Y-82000000D03*
X81000000Y-96500000D03*
%TO.N,+5V*%
X183300000Y-41100000D03*
X183300000Y-41000000D03*
%TO.N,Net-(J3-Pin_5)*%
X197000000Y-31700000D03*
%TD*%
D19*
%TO.N,+5V*%
X196300001Y-35844300D02*
X193295201Y-35844300D01*
X177850000Y-47150000D02*
X175850000Y-47150000D01*
X175080000Y-93250000D02*
X175080000Y-94080000D01*
X175080000Y-94080000D02*
X177500000Y-96500000D01*
X171500001Y-51844300D02*
X168788399Y-51844300D01*
X121900001Y-61332698D02*
X121900001Y-61844300D01*
X152900001Y-63332698D02*
X152900001Y-63844300D01*
X165300001Y-55332698D02*
X165300001Y-55844300D01*
X103300001Y-49332698D02*
X103300001Y-49844300D01*
X180200000Y-100700000D02*
X180220000Y-100700000D01*
X128100001Y-65332698D02*
X128100001Y-65844300D01*
X80255799Y-33088500D02*
X78744199Y-33088500D01*
X134544199Y-69088500D02*
X134300001Y-69332698D01*
X84700001Y-37332698D02*
X84700001Y-37844300D01*
X109744199Y-53088500D02*
X109500001Y-53332698D01*
X140500001Y-73532702D02*
X136055799Y-69088500D01*
X193295201Y-35844300D02*
X190100001Y-39039500D01*
X134300001Y-69332698D02*
X134300001Y-69844300D01*
X181500000Y-43844300D02*
X181155700Y-43844300D01*
X121900001Y-61844300D02*
X121900001Y-61039499D01*
X121900001Y-61844300D02*
X121900001Y-61039500D01*
X190100001Y-39844300D02*
X187388399Y-39844300D01*
X101549001Y-45088500D02*
X97344199Y-45088500D01*
X90900001Y-41332698D02*
X90900001Y-41844300D01*
X97100001Y-45332698D02*
X97100001Y-45844300D01*
X122144199Y-61088500D02*
X121900001Y-61332698D01*
X93149002Y-41088500D02*
X91144199Y-41088500D01*
X140500001Y-73239500D02*
X140500001Y-73844300D01*
X109500001Y-53844300D02*
X109500001Y-53039500D01*
X168788399Y-51844300D02*
X165300001Y-55332698D01*
X84944199Y-37088500D02*
X84700001Y-37332698D01*
X149895201Y-63844300D02*
X146700001Y-67039500D01*
X103544199Y-49088500D02*
X103300001Y-49332698D01*
X196300001Y-35332698D02*
X196300001Y-35844300D01*
X190100001Y-39039500D02*
X190100001Y-39844300D01*
X181500000Y-43844300D02*
X181500000Y-42900000D01*
X97100001Y-45844300D02*
X97100001Y-45039500D01*
X165300001Y-55844300D02*
X162588399Y-55844300D01*
X128344199Y-65088500D02*
X128100001Y-65332698D01*
X159100001Y-59844300D02*
X156388399Y-59844300D01*
X130055803Y-65088500D02*
X128344199Y-65088500D01*
X109500001Y-53039499D02*
X105549002Y-49088500D01*
X181155700Y-43844300D02*
X178050000Y-46950000D01*
X109500001Y-53844300D02*
X109500001Y-53039499D01*
X159100001Y-59332698D02*
X159100001Y-59844300D01*
X78500001Y-33332698D02*
X78500001Y-33844300D01*
X109500001Y-53039500D02*
X101549001Y-45088500D01*
X121900001Y-61039500D02*
X113949001Y-53088500D01*
X115944199Y-57088500D02*
X115700001Y-57332698D01*
X202500001Y-31844300D02*
X199788399Y-31844300D01*
X177700001Y-47844300D02*
X177700001Y-47299999D01*
X152900001Y-63844300D02*
X149895201Y-63844300D01*
X136055799Y-69088500D02*
X134544199Y-69088500D01*
X171500001Y-51499999D02*
X171500001Y-51844300D01*
X140500001Y-73844300D02*
X140500001Y-73532702D01*
X109500001Y-53332698D02*
X109500001Y-53844300D01*
X178050000Y-46950000D02*
X177850000Y-47150000D01*
X105549002Y-49088500D02*
X103544199Y-49088500D01*
X89149001Y-37088500D02*
X84944199Y-37088500D01*
X113949001Y-53088500D02*
X109744199Y-53088500D01*
X156388399Y-59844300D02*
X152900001Y-63332698D01*
X134300001Y-69332698D02*
X130055803Y-65088500D01*
X187388399Y-39844300D02*
X183900001Y-43332698D01*
X97100001Y-45039499D02*
X93149002Y-41088500D01*
X126055803Y-61088500D02*
X122144199Y-61088500D01*
X181500000Y-42900000D02*
X183300000Y-41100000D01*
X117949002Y-57088500D02*
X115944199Y-57088500D01*
X91144199Y-41088500D02*
X90900001Y-41332698D01*
X97100001Y-45039500D02*
X89149001Y-37088500D01*
X199788399Y-31844300D02*
X196300001Y-35332698D01*
X115700001Y-57332698D02*
X115700001Y-57844300D01*
X97100001Y-45844300D02*
X97100001Y-45039499D01*
X84700001Y-37844300D02*
X84700001Y-37532702D01*
X78744199Y-33088500D02*
X78500001Y-33332698D01*
X162588399Y-55844300D02*
X159100001Y-59332698D01*
X177500000Y-98000000D02*
X180200000Y-100700000D01*
X134300001Y-69332698D02*
X126055803Y-61088500D01*
X146700001Y-67039500D02*
X146700001Y-67844300D01*
X183900001Y-43844300D02*
X181500000Y-43844300D01*
X84700001Y-37532702D02*
X80255799Y-33088500D01*
X177500000Y-96500000D02*
X177500000Y-98000000D01*
X177700001Y-47299999D02*
X178050000Y-46950000D01*
X149895201Y-63844300D02*
X140500001Y-73239500D01*
X121900001Y-61039499D02*
X117949002Y-57088500D01*
X175850000Y-47150000D02*
X171500001Y-51499999D01*
X183900001Y-43332698D02*
X183900001Y-43844300D01*
X97344199Y-45088500D02*
X97100001Y-45332698D01*
%TO.N,Net-(D1-K)*%
X172000000Y-102000000D02*
X156430000Y-102000000D01*
X156430000Y-102000000D02*
X154760000Y-100330000D01*
X175080000Y-97250000D02*
X175080000Y-98920000D01*
X175080000Y-98920000D02*
X172000000Y-102000000D01*
%TO.N,Net-(J3-Pin_5)*%
X203499999Y-31332698D02*
X203499999Y-31844300D01*
X197611500Y-31088500D02*
X203255801Y-31088500D01*
X197000000Y-31700000D02*
X197611500Y-31088500D01*
X203255801Y-31088500D02*
X203499999Y-31332698D01*
D20*
%TO.N,Net-(U1-DI)*%
X84655700Y-40155700D02*
X83300000Y-38800000D01*
X84700001Y-40155700D02*
X84655700Y-40155700D01*
X83300000Y-38800000D02*
X83300000Y-37644301D01*
X83300000Y-37644301D02*
X79499999Y-33844300D01*
%TO.N,Net-(U2-DI)*%
X89700000Y-40700000D02*
X86844300Y-37844300D01*
X86844300Y-37844300D02*
X85699999Y-37844300D01*
X90900001Y-44155700D02*
X90855700Y-44155700D01*
X90855700Y-44155700D02*
X89700000Y-43000000D01*
X89700000Y-43000000D02*
X89700000Y-40700000D01*
%TO.N,Net-(U3-DI)*%
X95800000Y-46900000D02*
X95800000Y-45744301D01*
X95800000Y-45744301D02*
X91899999Y-41844300D01*
X97055700Y-48155700D02*
X95800000Y-46900000D01*
X97100001Y-48155700D02*
X97055700Y-48155700D01*
%TO.N,Net-(U4-DI)*%
X102300000Y-51200000D02*
X102300000Y-50044301D01*
X102300000Y-50044301D02*
X98099999Y-45844300D01*
X103255700Y-52155700D02*
X102300000Y-51200000D01*
X103300001Y-52155700D02*
X103255700Y-52155700D01*
%TO.N,Net-(U5-DI)*%
X109455700Y-56155700D02*
X108400000Y-55100000D01*
X109500001Y-56155700D02*
X109455700Y-56155700D01*
X108400000Y-55100000D02*
X108400000Y-53944301D01*
X108400000Y-53944301D02*
X104299999Y-49844300D01*
%TO.N,Net-(U6-DI)*%
X115700001Y-59200001D02*
X115700001Y-60155700D01*
X110499999Y-53999999D02*
X115700001Y-59200001D01*
X110499999Y-53844300D02*
X110499999Y-53999999D01*
%TO.N,Net-(U7-DI)*%
X121900001Y-64000001D02*
X120900000Y-63000000D01*
X121900001Y-64155700D02*
X121900001Y-64000001D01*
X120900000Y-61900000D02*
X120755699Y-61900000D01*
X120755699Y-61900000D02*
X116699999Y-57844300D01*
X120900000Y-63000000D02*
X120900000Y-61900000D01*
%TO.N,Net-(U8-DI)*%
X128100001Y-68155700D02*
X128100001Y-67044302D01*
X128100001Y-67044302D02*
X122899999Y-61844300D01*
%TO.N,Net-(U10-DO)*%
X134300001Y-71044302D02*
X129099999Y-65844300D01*
X134300001Y-72155700D02*
X134300001Y-71044302D01*
%TO.N,Net-(U10-DI)*%
X140500001Y-75044302D02*
X135299999Y-69844300D01*
X140500001Y-76155700D02*
X140500001Y-75044302D01*
%TO.N,Net-(U11-DI)*%
X141499999Y-73844300D02*
X143011401Y-73844300D01*
X143011401Y-73844300D02*
X146700001Y-70155700D01*
%TO.N,Net-(U12-DI)*%
X151211401Y-67844300D02*
X152900001Y-66155700D01*
X147699999Y-67844300D02*
X151211401Y-67844300D01*
%TO.N,Net-(U13-DI)*%
X157411401Y-63844300D02*
X159100001Y-62155700D01*
X153899999Y-63844300D02*
X157411401Y-63844300D01*
%TO.N,Net-(U14-DI)*%
X163611401Y-59844300D02*
X165300001Y-58155700D01*
X160099999Y-59844300D02*
X163611401Y-59844300D01*
%TO.N,Net-(U15-DI)*%
X169811401Y-55844300D02*
X171500001Y-54155700D01*
X166299999Y-55844300D02*
X169811401Y-55844300D01*
%TO.N,Net-(U16-DI)*%
X172499999Y-51844300D02*
X176011401Y-51844300D01*
X176011401Y-51844300D02*
X177700001Y-50155700D01*
%TO.N,Net-(U17-DI)*%
X178699999Y-47844300D02*
X182211401Y-47844300D01*
X182211401Y-47844300D02*
X183900001Y-46155700D01*
%TO.N,Net-(U18-DI)*%
X188411401Y-43844300D02*
X190100001Y-42155700D01*
X184899999Y-43844300D02*
X188411401Y-43844300D01*
%TO.N,Net-(U19-DI)*%
X191099999Y-39844300D02*
X194611401Y-39844300D01*
X194611401Y-39844300D02*
X196300001Y-38155700D01*
%TO.N,Net-(U20-DI)*%
X197299999Y-35844300D02*
X200811401Y-35844300D01*
X200811401Y-35844300D02*
X202500001Y-34155700D01*
D19*
%TO.N,Net-(J3-Pin_8)*%
X175020000Y-81040000D02*
X174980000Y-81000000D01*
X176000000Y-79632472D02*
X176000000Y-79500000D01*
X194580000Y-79500000D02*
X198000000Y-82920000D01*
X174980000Y-81490000D02*
X174980000Y-81000000D01*
X174980000Y-80652472D02*
X176000000Y-79632472D01*
X175020000Y-83000000D02*
X175020000Y-81040000D01*
X176000000Y-79500000D02*
X194580000Y-79500000D01*
X174980000Y-81000000D02*
X174980000Y-80652472D01*
%TO.N,+BATOUT*%
X158554000Y-75946000D02*
X168177000Y-66323000D01*
X168177000Y-66323000D02*
X166229399Y-68270601D01*
X149606000Y-83375000D02*
X149542000Y-83375000D01*
X147447000Y-81280000D02*
X147447000Y-77597000D01*
X149098000Y-75946000D02*
X158554000Y-75946000D01*
X147447000Y-77597000D02*
X149098000Y-75946000D01*
X183499998Y-51000002D02*
X198500000Y-51000002D01*
X174000000Y-60500000D02*
X173750000Y-60750000D01*
X173750000Y-60750000D02*
X183499998Y-51000002D01*
X149542000Y-83375000D02*
X147447000Y-81280000D01*
X173750000Y-60750000D02*
X168177000Y-66323000D01*
%TO.N,+BATT*%
X158570000Y-80010000D02*
X158990000Y-80010000D01*
X161000000Y-78000000D02*
X173480000Y-78000000D01*
X173480000Y-78000000D02*
X174980000Y-79500000D01*
X158990000Y-80010000D02*
X161000000Y-78000000D01*
%TO.N,Net-(D2-A)*%
X154125000Y-79375000D02*
X154760000Y-80010000D01*
X149606000Y-79375000D02*
X154125000Y-79375000D01*
%TD*%
%TA.AperFunction,Conductor*%
%TO.N,GND*%
G36*
X204435426Y-32295841D02*
G01*
X204484832Y-32345246D01*
X204500000Y-32404674D01*
X204500000Y-33596754D01*
X204480315Y-33663793D01*
X204427511Y-33709548D01*
X204358353Y-33719492D01*
X204294797Y-33690467D01*
X204259818Y-33640088D01*
X204248152Y-33608812D01*
X204248149Y-33608806D01*
X204161989Y-33493712D01*
X204161986Y-33493709D01*
X204046892Y-33407549D01*
X204046885Y-33407545D01*
X203912178Y-33357303D01*
X203912171Y-33357301D01*
X203852643Y-33350900D01*
X203749999Y-33350900D01*
X203749999Y-34960500D01*
X203852627Y-34960500D01*
X203852643Y-34960499D01*
X203912171Y-34954098D01*
X203912178Y-34954096D01*
X204046885Y-34903854D01*
X204046892Y-34903850D01*
X204161986Y-34817690D01*
X204161989Y-34817687D01*
X204248149Y-34702593D01*
X204248153Y-34702586D01*
X204259818Y-34671312D01*
X204301689Y-34615378D01*
X204367153Y-34590961D01*
X204435426Y-34605813D01*
X204484832Y-34655218D01*
X204500000Y-34714645D01*
X204500000Y-102376000D01*
X204480315Y-102443039D01*
X204427511Y-102488794D01*
X204376000Y-102500000D01*
X172860730Y-102500000D01*
X172793691Y-102480315D01*
X172747936Y-102427511D01*
X172737992Y-102358353D01*
X172767017Y-102294797D01*
X172773049Y-102288319D01*
X174213151Y-100848217D01*
X175662952Y-99398416D01*
X175712186Y-99324729D01*
X175745084Y-99275495D01*
X175801658Y-99138913D01*
X175813560Y-99079077D01*
X175845943Y-99017171D01*
X175896168Y-98985568D01*
X176049334Y-98934814D01*
X176198656Y-98842712D01*
X176322712Y-98718656D01*
X176414814Y-98569334D01*
X176469999Y-98402797D01*
X176480500Y-98300009D01*
X176480499Y-96841228D01*
X176486737Y-96819983D01*
X176488317Y-96797895D01*
X176496389Y-96787111D01*
X176500184Y-96774190D01*
X176516917Y-96759689D01*
X176530189Y-96741962D01*
X176542808Y-96737255D01*
X176552987Y-96728435D01*
X176574905Y-96725283D01*
X176595653Y-96717545D01*
X176608813Y-96720407D01*
X176622146Y-96718491D01*
X176642289Y-96727690D01*
X176663926Y-96732397D01*
X176681651Y-96745665D01*
X176685702Y-96747516D01*
X176692180Y-96753548D01*
X176713181Y-96774549D01*
X176746666Y-96835872D01*
X176749500Y-96862230D01*
X176749500Y-98073918D01*
X176749500Y-98073920D01*
X176749499Y-98073920D01*
X176778340Y-98218907D01*
X176778343Y-98218917D01*
X176834914Y-98355492D01*
X176866521Y-98402795D01*
X176866522Y-98402798D01*
X176917046Y-98478414D01*
X176917052Y-98478421D01*
X178833181Y-100394548D01*
X178866666Y-100455871D01*
X178869500Y-100482229D01*
X178869500Y-101597870D01*
X178869501Y-101597876D01*
X178875908Y-101657483D01*
X178926202Y-101792328D01*
X178926206Y-101792335D01*
X179012452Y-101907544D01*
X179012455Y-101907547D01*
X179127664Y-101993793D01*
X179127671Y-101993797D01*
X179262517Y-102044091D01*
X179262516Y-102044091D01*
X179269444Y-102044835D01*
X179322127Y-102050500D01*
X181117872Y-102050499D01*
X181177483Y-102044091D01*
X181312331Y-101993796D01*
X181427546Y-101907546D01*
X181513796Y-101792331D01*
X181564091Y-101657483D01*
X181570500Y-101597873D01*
X181570499Y-99802128D01*
X181564091Y-99742517D01*
X181513796Y-99607669D01*
X181513795Y-99607668D01*
X181513793Y-99607664D01*
X181427547Y-99492455D01*
X181427544Y-99492452D01*
X181312335Y-99406206D01*
X181312328Y-99406202D01*
X181177482Y-99355908D01*
X181177483Y-99355908D01*
X181117883Y-99349501D01*
X181117881Y-99349500D01*
X181117873Y-99349500D01*
X181117865Y-99349500D01*
X181107309Y-99349500D01*
X181040270Y-99329815D01*
X181019628Y-99313181D01*
X180349408Y-98642962D01*
X180412993Y-98625925D01*
X180527007Y-98560099D01*
X180620099Y-98467007D01*
X180685925Y-98352993D01*
X180702962Y-98289409D01*
X181335270Y-98921717D01*
X181335270Y-98921716D01*
X181374622Y-98867554D01*
X181471095Y-98678217D01*
X181536757Y-98476130D01*
X181536757Y-98476127D01*
X181570000Y-98266246D01*
X181570000Y-98053753D01*
X181536757Y-97843872D01*
X181536757Y-97843869D01*
X181471095Y-97641782D01*
X181374624Y-97452449D01*
X181335270Y-97398282D01*
X181335269Y-97398282D01*
X180702962Y-98030590D01*
X180685925Y-97967007D01*
X180620099Y-97852993D01*
X180527007Y-97759901D01*
X180412993Y-97694075D01*
X180349409Y-97677037D01*
X180981716Y-97044728D01*
X180927547Y-97005373D01*
X180927547Y-97005372D01*
X180918500Y-97000763D01*
X180867706Y-96952788D01*
X180850912Y-96884966D01*
X180873451Y-96818832D01*
X180918508Y-96779793D01*
X180927816Y-96775051D01*
X181007007Y-96717515D01*
X181099786Y-96650109D01*
X181099788Y-96650106D01*
X181099792Y-96650104D01*
X181250104Y-96499792D01*
X181250106Y-96499788D01*
X181250109Y-96499786D01*
X181375048Y-96327820D01*
X181375047Y-96327820D01*
X181375051Y-96327816D01*
X181471557Y-96138412D01*
X181537246Y-95936243D01*
X181570500Y-95726287D01*
X181570500Y-95513713D01*
X181537246Y-95303757D01*
X181471557Y-95101588D01*
X181375051Y-94912184D01*
X181375049Y-94912181D01*
X181375048Y-94912179D01*
X181250109Y-94740213D01*
X181099786Y-94589890D01*
X180927820Y-94464951D01*
X180927115Y-94464591D01*
X180919054Y-94460485D01*
X180868259Y-94412512D01*
X180851463Y-94344692D01*
X180873999Y-94278556D01*
X180919054Y-94239515D01*
X180927816Y-94235051D01*
X180949789Y-94219086D01*
X181099786Y-94110109D01*
X181099788Y-94110106D01*
X181099792Y-94110104D01*
X181250104Y-93959792D01*
X181250106Y-93959788D01*
X181250109Y-93959786D01*
X181375048Y-93787820D01*
X181375047Y-93787820D01*
X181375051Y-93787816D01*
X181471557Y-93598412D01*
X181537246Y-93396243D01*
X181570500Y-93186287D01*
X181570500Y-92973713D01*
X181537246Y-92763757D01*
X181471557Y-92561588D01*
X181375051Y-92372184D01*
X181375049Y-92372181D01*
X181375048Y-92372179D01*
X181250109Y-92200213D01*
X181099786Y-92049890D01*
X180927820Y-91924951D01*
X180927115Y-91924591D01*
X180919054Y-91920485D01*
X180868259Y-91872512D01*
X180851463Y-91804692D01*
X180873999Y-91738556D01*
X180919054Y-91699515D01*
X180927816Y-91695051D01*
X180979793Y-91657288D01*
X181099786Y-91570109D01*
X181099788Y-91570106D01*
X181099792Y-91570104D01*
X181250104Y-91419792D01*
X181250106Y-91419788D01*
X181250109Y-91419786D01*
X181375048Y-91247820D01*
X181375047Y-91247820D01*
X181375051Y-91247816D01*
X181471557Y-91058412D01*
X181537246Y-90856243D01*
X181570500Y-90646287D01*
X181570500Y-90433713D01*
X181537246Y-90223757D01*
X181471557Y-90021588D01*
X181375051Y-89832184D01*
X181375049Y-89832181D01*
X181375048Y-89832179D01*
X181250109Y-89660213D01*
X181099786Y-89509890D01*
X180927820Y-89384951D01*
X180927115Y-89384591D01*
X180919054Y-89380485D01*
X180868259Y-89332512D01*
X180851463Y-89264692D01*
X180873999Y-89198556D01*
X180919054Y-89159515D01*
X180927816Y-89155051D01*
X180949789Y-89139086D01*
X181099786Y-89030109D01*
X181099788Y-89030106D01*
X181099792Y-89030104D01*
X181250104Y-88879792D01*
X181250106Y-88879788D01*
X181250109Y-88879786D01*
X181375048Y-88707820D01*
X181375047Y-88707820D01*
X181375051Y-88707816D01*
X181471557Y-88518412D01*
X181537246Y-88316243D01*
X181570500Y-88106287D01*
X181570500Y-87893713D01*
X181537246Y-87683757D01*
X181471557Y-87481588D01*
X181375051Y-87292184D01*
X181375049Y-87292181D01*
X181375048Y-87292179D01*
X181250109Y-87120213D01*
X181099786Y-86969890D01*
X180927820Y-86844951D01*
X180927115Y-86844591D01*
X180919054Y-86840485D01*
X180868259Y-86792512D01*
X180851463Y-86724692D01*
X180873999Y-86658556D01*
X180919054Y-86619515D01*
X180927816Y-86615051D01*
X180949789Y-86599086D01*
X181099786Y-86490109D01*
X181099788Y-86490106D01*
X181099792Y-86490104D01*
X181250104Y-86339792D01*
X181250106Y-86339788D01*
X181250109Y-86339786D01*
X181375048Y-86167820D01*
X181375047Y-86167820D01*
X181375051Y-86167816D01*
X181471557Y-85978412D01*
X181537246Y-85776243D01*
X181570500Y-85566287D01*
X181570500Y-85353713D01*
X181537246Y-85143757D01*
X181471557Y-84941588D01*
X181375051Y-84752184D01*
X181375049Y-84752181D01*
X181375048Y-84752179D01*
X181250109Y-84580213D01*
X181099786Y-84429890D01*
X180927820Y-84304951D01*
X180927115Y-84304591D01*
X180919054Y-84300485D01*
X180868259Y-84252512D01*
X180851463Y-84184692D01*
X180873999Y-84118556D01*
X180919054Y-84079515D01*
X180927816Y-84075051D01*
X180949789Y-84059086D01*
X181099786Y-83950109D01*
X181099788Y-83950106D01*
X181099792Y-83950104D01*
X181250104Y-83799792D01*
X181250106Y-83799788D01*
X181250109Y-83799786D01*
X181375048Y-83627820D01*
X181375047Y-83627820D01*
X181375051Y-83627816D01*
X181471557Y-83438412D01*
X181537246Y-83236243D01*
X181570500Y-83026287D01*
X181570500Y-82813713D01*
X181537246Y-82603757D01*
X181471557Y-82401588D01*
X181375051Y-82212184D01*
X181375049Y-82212181D01*
X181375048Y-82212179D01*
X181250109Y-82040213D01*
X181099786Y-81889890D01*
X180927820Y-81764951D01*
X180738414Y-81668444D01*
X180738413Y-81668443D01*
X180738412Y-81668443D01*
X180536243Y-81602754D01*
X180536241Y-81602753D01*
X180536240Y-81602753D01*
X180365192Y-81575662D01*
X180326287Y-81569500D01*
X180113713Y-81569500D01*
X180074808Y-81575662D01*
X179903760Y-81602753D01*
X179701585Y-81668444D01*
X179512179Y-81764951D01*
X179340213Y-81889890D01*
X179189890Y-82040213D01*
X179064951Y-82212179D01*
X178968444Y-82401585D01*
X178902753Y-82603760D01*
X178869500Y-82813713D01*
X178869500Y-83026286D01*
X178902506Y-83234682D01*
X178902754Y-83236243D01*
X178965642Y-83429792D01*
X178968444Y-83438414D01*
X179064951Y-83627820D01*
X179189890Y-83799786D01*
X179340213Y-83950109D01*
X179512182Y-84075050D01*
X179520946Y-84079516D01*
X179571742Y-84127491D01*
X179588536Y-84195312D01*
X179565998Y-84261447D01*
X179520946Y-84300484D01*
X179512182Y-84304949D01*
X179340213Y-84429890D01*
X179189890Y-84580213D01*
X179064951Y-84752179D01*
X178968444Y-84941585D01*
X178902753Y-85143760D01*
X178894434Y-85196286D01*
X178869500Y-85353713D01*
X178869500Y-85566287D01*
X178902754Y-85776243D01*
X178965642Y-85969792D01*
X178968444Y-85978414D01*
X179064951Y-86167820D01*
X179189890Y-86339786D01*
X179340213Y-86490109D01*
X179512182Y-86615050D01*
X179520946Y-86619516D01*
X179571742Y-86667491D01*
X179588536Y-86735312D01*
X179565998Y-86801447D01*
X179520946Y-86840484D01*
X179512182Y-86844949D01*
X179340213Y-86969890D01*
X179189890Y-87120213D01*
X179064951Y-87292179D01*
X178968444Y-87481585D01*
X178902753Y-87683760D01*
X178869500Y-87893713D01*
X178869500Y-88106286D01*
X178900965Y-88304951D01*
X178902754Y-88316243D01*
X178965642Y-88509792D01*
X178968444Y-88518414D01*
X179064951Y-88707820D01*
X179189890Y-88879786D01*
X179340213Y-89030109D01*
X179512182Y-89155050D01*
X179520946Y-89159516D01*
X179571742Y-89207491D01*
X179588536Y-89275312D01*
X179565998Y-89341447D01*
X179520946Y-89380484D01*
X179512182Y-89384949D01*
X179340213Y-89509890D01*
X179189890Y-89660213D01*
X179064951Y-89832179D01*
X178968444Y-90021585D01*
X178902753Y-90223760D01*
X178869500Y-90433713D01*
X178869500Y-90646287D01*
X178902754Y-90856243D01*
X178965642Y-91049792D01*
X178968444Y-91058414D01*
X179064951Y-91247820D01*
X179189890Y-91419786D01*
X179340213Y-91570109D01*
X179512182Y-91695050D01*
X179520946Y-91699516D01*
X179571742Y-91747491D01*
X179588536Y-91815312D01*
X179565998Y-91881447D01*
X179520946Y-91920484D01*
X179512182Y-91924949D01*
X179340213Y-92049890D01*
X179189890Y-92200213D01*
X179064951Y-92372179D01*
X178968444Y-92561585D01*
X178902753Y-92763760D01*
X178869500Y-92973713D01*
X178869500Y-93186286D01*
X178895508Y-93350498D01*
X178902754Y-93396243D01*
X178965642Y-93589792D01*
X178968444Y-93598414D01*
X179064951Y-93787820D01*
X179189890Y-93959786D01*
X179340213Y-94110109D01*
X179512182Y-94235050D01*
X179520946Y-94239516D01*
X179571742Y-94287491D01*
X179588536Y-94355312D01*
X179565998Y-94421447D01*
X179520946Y-94460484D01*
X179512182Y-94464949D01*
X179340213Y-94589890D01*
X179189890Y-94740213D01*
X179064951Y-94912179D01*
X178968444Y-95101585D01*
X178902753Y-95303760D01*
X178869500Y-95513713D01*
X178869500Y-95726286D01*
X178901870Y-95930666D01*
X178902754Y-95936243D01*
X178965642Y-96129792D01*
X178968444Y-96138414D01*
X179064951Y-96327820D01*
X179189890Y-96499786D01*
X179340213Y-96650109D01*
X179512179Y-96775048D01*
X179512181Y-96775049D01*
X179512184Y-96775051D01*
X179521493Y-96779794D01*
X179572290Y-96827766D01*
X179589087Y-96895587D01*
X179566552Y-96961722D01*
X179521505Y-97000760D01*
X179512446Y-97005376D01*
X179512440Y-97005380D01*
X179458282Y-97044727D01*
X179458282Y-97044728D01*
X180090591Y-97677037D01*
X180027007Y-97694075D01*
X179912993Y-97759901D01*
X179819901Y-97852993D01*
X179754075Y-97967007D01*
X179737037Y-98030591D01*
X179104728Y-97398282D01*
X179104727Y-97398282D01*
X179065380Y-97452439D01*
X178968904Y-97641782D01*
X178903242Y-97843869D01*
X178903242Y-97843872D01*
X178873221Y-98033416D01*
X178843292Y-98096551D01*
X178783980Y-98133482D01*
X178714118Y-98132484D01*
X178663067Y-98101699D01*
X178286819Y-97725451D01*
X178253334Y-97664128D01*
X178250500Y-97637770D01*
X178250500Y-96426079D01*
X178221659Y-96281092D01*
X178221658Y-96281091D01*
X178221658Y-96281087D01*
X178188064Y-96199983D01*
X178165087Y-96144511D01*
X178165083Y-96144504D01*
X178161014Y-96138414D01*
X178131280Y-96093914D01*
X178131279Y-96093912D01*
X178082956Y-96021589D01*
X178082952Y-96021584D01*
X176511123Y-94449755D01*
X176477638Y-94388432D01*
X176475446Y-94349475D01*
X176480500Y-94300009D01*
X176480499Y-92199992D01*
X176469999Y-92097203D01*
X176414814Y-91930666D01*
X176322712Y-91781344D01*
X176198656Y-91657288D01*
X176057316Y-91570109D01*
X176049336Y-91565187D01*
X176049331Y-91565185D01*
X176018447Y-91554951D01*
X175882797Y-91510001D01*
X175882795Y-91510000D01*
X175780010Y-91499500D01*
X174379998Y-91499500D01*
X174379981Y-91499501D01*
X174277203Y-91510000D01*
X174277200Y-91510001D01*
X174110668Y-91565185D01*
X174110663Y-91565187D01*
X173961342Y-91657289D01*
X173837289Y-91781342D01*
X173745187Y-91930663D01*
X173745186Y-91930666D01*
X173690001Y-92097203D01*
X173690001Y-92097204D01*
X173690000Y-92097204D01*
X173679500Y-92199983D01*
X173679500Y-94300001D01*
X173679501Y-94300018D01*
X173690000Y-94402796D01*
X173690001Y-94402799D01*
X173736188Y-94542179D01*
X173745186Y-94569334D01*
X173837288Y-94718656D01*
X173961344Y-94842712D01*
X174110666Y-94934814D01*
X174277203Y-94989999D01*
X174379991Y-95000500D01*
X174887769Y-95000499D01*
X174954808Y-95020183D01*
X174975450Y-95036818D01*
X175226451Y-95287819D01*
X175259936Y-95349142D01*
X175254952Y-95418834D01*
X175213080Y-95474767D01*
X175147616Y-95499184D01*
X175138770Y-95499500D01*
X174379998Y-95499500D01*
X174379980Y-95499501D01*
X174277203Y-95510000D01*
X174277200Y-95510001D01*
X174110668Y-95565185D01*
X174110663Y-95565187D01*
X173961342Y-95657289D01*
X173837289Y-95781342D01*
X173745187Y-95930663D01*
X173745186Y-95930666D01*
X173690001Y-96097203D01*
X173690001Y-96097204D01*
X173690000Y-96097204D01*
X173679500Y-96199983D01*
X173679500Y-98300001D01*
X173679501Y-98300018D01*
X173685169Y-98355495D01*
X173690001Y-98402797D01*
X173745186Y-98569334D01*
X173812465Y-98678412D01*
X173837289Y-98718657D01*
X173940950Y-98822318D01*
X173974435Y-98883641D01*
X173969451Y-98953333D01*
X173940950Y-98997680D01*
X171725451Y-101213181D01*
X171664128Y-101246666D01*
X171637770Y-101249500D01*
X171243999Y-101249500D01*
X171176960Y-101229815D01*
X171131205Y-101177011D01*
X171121261Y-101107853D01*
X171143681Y-101052614D01*
X171154622Y-101037554D01*
X171251095Y-100848217D01*
X171316757Y-100646130D01*
X171316757Y-100646127D01*
X171350000Y-100436246D01*
X171350000Y-100223753D01*
X171316757Y-100013872D01*
X171316757Y-100013869D01*
X171251095Y-99811782D01*
X171154624Y-99622449D01*
X171115270Y-99568282D01*
X171115269Y-99568282D01*
X170482962Y-100200589D01*
X170465925Y-100137007D01*
X170400099Y-100022993D01*
X170307007Y-99929901D01*
X170192993Y-99864075D01*
X170129409Y-99847037D01*
X170761716Y-99214728D01*
X170707547Y-99175373D01*
X170707547Y-99175372D01*
X170698500Y-99170763D01*
X170647706Y-99122788D01*
X170630912Y-99054966D01*
X170653451Y-98988832D01*
X170698508Y-98949793D01*
X170707816Y-98945051D01*
X170848675Y-98842712D01*
X170879786Y-98820109D01*
X170879788Y-98820106D01*
X170879792Y-98820104D01*
X171030104Y-98669792D01*
X171030106Y-98669788D01*
X171030109Y-98669786D01*
X171155048Y-98497820D01*
X171155047Y-98497820D01*
X171155051Y-98497816D01*
X171251557Y-98308412D01*
X171317246Y-98106243D01*
X171350500Y-97896287D01*
X171350500Y-97683713D01*
X171317246Y-97473757D01*
X171251557Y-97271588D01*
X171155051Y-97082184D01*
X171155049Y-97082181D01*
X171155048Y-97082179D01*
X171030109Y-96910213D01*
X170879786Y-96759890D01*
X170707820Y-96634951D01*
X170707115Y-96634591D01*
X170699054Y-96630485D01*
X170648259Y-96582512D01*
X170631463Y-96514692D01*
X170653999Y-96448556D01*
X170699054Y-96409515D01*
X170707816Y-96405051D01*
X170729789Y-96389086D01*
X170879786Y-96280109D01*
X170879788Y-96280106D01*
X170879792Y-96280104D01*
X171030104Y-96129792D01*
X171030106Y-96129788D01*
X171030109Y-96129786D01*
X171155048Y-95957820D01*
X171155047Y-95957820D01*
X171155051Y-95957816D01*
X171251557Y-95768412D01*
X171317246Y-95566243D01*
X171350500Y-95356287D01*
X171350500Y-95143713D01*
X171317246Y-94933757D01*
X171251557Y-94731588D01*
X171155051Y-94542184D01*
X171155049Y-94542181D01*
X171155048Y-94542179D01*
X171030109Y-94370213D01*
X170879786Y-94219890D01*
X170707820Y-94094951D01*
X170707115Y-94094591D01*
X170699054Y-94090485D01*
X170648259Y-94042512D01*
X170631463Y-93974692D01*
X170653999Y-93908556D01*
X170699054Y-93869515D01*
X170707816Y-93865051D01*
X170729789Y-93849086D01*
X170879786Y-93740109D01*
X170879788Y-93740106D01*
X170879792Y-93740104D01*
X171030104Y-93589792D01*
X171030106Y-93589788D01*
X171030109Y-93589786D01*
X171155048Y-93417820D01*
X171155047Y-93417820D01*
X171155051Y-93417816D01*
X171251557Y-93228412D01*
X171317246Y-93026243D01*
X171350500Y-92816287D01*
X171350500Y-92603713D01*
X171317246Y-92393757D01*
X171251557Y-92191588D01*
X171155051Y-92002184D01*
X171155049Y-92002181D01*
X171155048Y-92002179D01*
X171030109Y-91830213D01*
X170879786Y-91679890D01*
X170707820Y-91554951D01*
X170707115Y-91554591D01*
X170699054Y-91550485D01*
X170648259Y-91502512D01*
X170631463Y-91434692D01*
X170653999Y-91368556D01*
X170699054Y-91329515D01*
X170707816Y-91325051D01*
X170729789Y-91309086D01*
X170879786Y-91200109D01*
X170879788Y-91200106D01*
X170879792Y-91200104D01*
X171030104Y-91049792D01*
X171030106Y-91049788D01*
X171030110Y-91049785D01*
X171155048Y-90877820D01*
X171155047Y-90877820D01*
X171155051Y-90877816D01*
X171251557Y-90688412D01*
X171317246Y-90486243D01*
X171350500Y-90276287D01*
X171350500Y-90063713D01*
X171317246Y-89853757D01*
X171251557Y-89651588D01*
X171155051Y-89462184D01*
X171155049Y-89462181D01*
X171155048Y-89462179D01*
X171030109Y-89290213D01*
X170879786Y-89139890D01*
X170707820Y-89014951D01*
X170707115Y-89014591D01*
X170699054Y-89010485D01*
X170648259Y-88962512D01*
X170631463Y-88894692D01*
X170653999Y-88828556D01*
X170699054Y-88789515D01*
X170707816Y-88785051D01*
X170753061Y-88752179D01*
X170879786Y-88660109D01*
X170879788Y-88660106D01*
X170879792Y-88660104D01*
X171030104Y-88509792D01*
X171030106Y-88509788D01*
X171030109Y-88509786D01*
X171155048Y-88337820D01*
X171155047Y-88337820D01*
X171155051Y-88337816D01*
X171251557Y-88148412D01*
X171317246Y-87946243D01*
X171350500Y-87736287D01*
X171350500Y-87523713D01*
X171317246Y-87313757D01*
X171251557Y-87111588D01*
X171155051Y-86922184D01*
X171155049Y-86922181D01*
X171155048Y-86922179D01*
X171030109Y-86750213D01*
X170879786Y-86599890D01*
X170707820Y-86474951D01*
X170707115Y-86474591D01*
X170699054Y-86470485D01*
X170648259Y-86422512D01*
X170631463Y-86354692D01*
X170653999Y-86288556D01*
X170699054Y-86249515D01*
X170707816Y-86245051D01*
X170729789Y-86229086D01*
X170879786Y-86120109D01*
X170879788Y-86120106D01*
X170879792Y-86120104D01*
X171030104Y-85969792D01*
X171030106Y-85969788D01*
X171030109Y-85969786D01*
X171155048Y-85797820D01*
X171155047Y-85797820D01*
X171155051Y-85797816D01*
X171251557Y-85608412D01*
X171317246Y-85406243D01*
X171350500Y-85196287D01*
X171350500Y-84983713D01*
X171317246Y-84773757D01*
X171251557Y-84571588D01*
X171155051Y-84382184D01*
X171155049Y-84382181D01*
X171155048Y-84382179D01*
X171030109Y-84210213D01*
X170879786Y-84059890D01*
X170707820Y-83934951D01*
X170707115Y-83934591D01*
X170699054Y-83930485D01*
X170648259Y-83882512D01*
X170631463Y-83814692D01*
X170653999Y-83748556D01*
X170699054Y-83709515D01*
X170707816Y-83705051D01*
X170742690Y-83679714D01*
X170879786Y-83580109D01*
X170879788Y-83580106D01*
X170879792Y-83580104D01*
X171030104Y-83429792D01*
X171030106Y-83429788D01*
X171030109Y-83429786D01*
X171139086Y-83279789D01*
X171155051Y-83257816D01*
X171251557Y-83068412D01*
X171317246Y-82866243D01*
X171350500Y-82656287D01*
X171350500Y-82443713D01*
X171317246Y-82233757D01*
X171251557Y-82031588D01*
X171155051Y-81842184D01*
X171155049Y-81842181D01*
X171155048Y-81842179D01*
X171030109Y-81670213D01*
X170916181Y-81556285D01*
X170882696Y-81494962D01*
X170887680Y-81425270D01*
X170929552Y-81369337D01*
X170960529Y-81352422D01*
X171092086Y-81303354D01*
X171092093Y-81303350D01*
X171207187Y-81217190D01*
X171207190Y-81217187D01*
X171293350Y-81102093D01*
X171293354Y-81102086D01*
X171343596Y-80967379D01*
X171343598Y-80967372D01*
X171349999Y-80907844D01*
X171350000Y-80907827D01*
X171350000Y-80260000D01*
X170433012Y-80260000D01*
X170465925Y-80202993D01*
X170500000Y-80075826D01*
X170500000Y-79944174D01*
X170465925Y-79817007D01*
X170433012Y-79760000D01*
X171350000Y-79760000D01*
X171350000Y-79112172D01*
X171349999Y-79112155D01*
X171343598Y-79052627D01*
X171343596Y-79052620D01*
X171293324Y-78917833D01*
X171288340Y-78848142D01*
X171321825Y-78786819D01*
X171383148Y-78753334D01*
X171409506Y-78750500D01*
X173117770Y-78750500D01*
X173184809Y-78770185D01*
X173205451Y-78786819D01*
X174193301Y-79774669D01*
X174224696Y-79827755D01*
X174257128Y-79939388D01*
X174257130Y-79939391D01*
X174257131Y-79939393D01*
X174293694Y-80001218D01*
X174338863Y-80077595D01*
X174338869Y-80077603D01*
X174340420Y-80079154D01*
X174341247Y-80080668D01*
X174343648Y-80083764D01*
X174343148Y-80084151D01*
X174373905Y-80140477D01*
X174368921Y-80210169D01*
X174355842Y-80235724D01*
X174314915Y-80296976D01*
X174314914Y-80296978D01*
X174258343Y-80433554D01*
X174258340Y-80433564D01*
X174229500Y-80578551D01*
X174229500Y-81128064D01*
X174224577Y-81162657D01*
X174212336Y-81204792D01*
X174212334Y-81204802D01*
X174209500Y-81240811D01*
X174209500Y-81739169D01*
X174209501Y-81739191D01*
X174212334Y-81775200D01*
X174212334Y-81775203D01*
X174212335Y-81775204D01*
X174257072Y-81929191D01*
X174257132Y-81929396D01*
X174259302Y-81934410D01*
X174269500Y-81983656D01*
X174269500Y-82617934D01*
X174264576Y-82652530D01*
X174242357Y-82729005D01*
X174242356Y-82729008D01*
X174239500Y-82765302D01*
X174239500Y-83234697D01*
X174242356Y-83270991D01*
X174242357Y-83270997D01*
X174287504Y-83426390D01*
X174287505Y-83426393D01*
X174287506Y-83426395D01*
X174289515Y-83429792D01*
X174369881Y-83565684D01*
X174369887Y-83565692D01*
X174484307Y-83680112D01*
X174484311Y-83680115D01*
X174484313Y-83680117D01*
X174623605Y-83762494D01*
X174664587Y-83774400D01*
X174779002Y-83807642D01*
X174779005Y-83807642D01*
X174779007Y-83807643D01*
X174815310Y-83810500D01*
X174815318Y-83810500D01*
X175224682Y-83810500D01*
X175224690Y-83810500D01*
X175260993Y-83807643D01*
X175260995Y-83807642D01*
X175260997Y-83807642D01*
X175301975Y-83795736D01*
X175416395Y-83762494D01*
X175437369Y-83750089D01*
X175505088Y-83732906D01*
X175563613Y-83750090D01*
X175583803Y-83762031D01*
X175730000Y-83804504D01*
X175730000Y-83804503D01*
X176230000Y-83804503D01*
X176376195Y-83762031D01*
X176515374Y-83679721D01*
X176515383Y-83679714D01*
X176629714Y-83565383D01*
X176629721Y-83565374D01*
X176712031Y-83426195D01*
X176712033Y-83426190D01*
X176757144Y-83270918D01*
X176757145Y-83270912D01*
X176758790Y-83250000D01*
X176230000Y-83250000D01*
X176230000Y-83804503D01*
X175730000Y-83804503D01*
X175730000Y-83498352D01*
X175747267Y-83435233D01*
X175752494Y-83426395D01*
X175797643Y-83270993D01*
X175800500Y-83234690D01*
X175800500Y-82765310D01*
X175797643Y-82729007D01*
X175775423Y-82652528D01*
X175770500Y-82617934D01*
X175770500Y-82436067D01*
X176230000Y-82436067D01*
X176230000Y-82750000D01*
X176758790Y-82750000D01*
X176757145Y-82729089D01*
X176712031Y-82573804D01*
X176629721Y-82434625D01*
X176629714Y-82434616D01*
X176539243Y-82344145D01*
X176505758Y-82282822D01*
X176510742Y-82213130D01*
X176539243Y-82168783D01*
X176640731Y-82067294D01*
X176640738Y-82067285D01*
X176722406Y-81929191D01*
X176722407Y-81929188D01*
X176767166Y-81775128D01*
X176767167Y-81775122D01*
X176769931Y-81740000D01*
X176250000Y-81740000D01*
X176250000Y-82368638D01*
X176230315Y-82435677D01*
X176230000Y-82436067D01*
X175770500Y-82436067D01*
X175770500Y-81614000D01*
X175790185Y-81546961D01*
X175842989Y-81501206D01*
X175894500Y-81490000D01*
X176000000Y-81490000D01*
X176000000Y-81364000D01*
X176019685Y-81296961D01*
X176072489Y-81251206D01*
X176124000Y-81240000D01*
X176769931Y-81240000D01*
X176767167Y-81204877D01*
X176767166Y-81204871D01*
X176722407Y-81050811D01*
X176722406Y-81050808D01*
X176640738Y-80912714D01*
X176640731Y-80912705D01*
X176527294Y-80799268D01*
X176527285Y-80799261D01*
X176389191Y-80717593D01*
X176389188Y-80717592D01*
X176270556Y-80683126D01*
X176211670Y-80645520D01*
X176182464Y-80582047D01*
X176192210Y-80512861D01*
X176217468Y-80476371D01*
X176407021Y-80286819D01*
X176468344Y-80253334D01*
X176494702Y-80250500D01*
X194217770Y-80250500D01*
X194284809Y-80270185D01*
X194305451Y-80286819D01*
X196629824Y-82611191D01*
X196663309Y-82672514D01*
X196664616Y-82718270D01*
X196649500Y-82813707D01*
X196649500Y-83026286D01*
X196682506Y-83234682D01*
X196682754Y-83236243D01*
X196745642Y-83429792D01*
X196748444Y-83438414D01*
X196844951Y-83627820D01*
X196969890Y-83799786D01*
X197120213Y-83950109D01*
X197292182Y-84075050D01*
X197300946Y-84079516D01*
X197351742Y-84127491D01*
X197368536Y-84195312D01*
X197345998Y-84261447D01*
X197300946Y-84300484D01*
X197292182Y-84304949D01*
X197120213Y-84429890D01*
X196969890Y-84580213D01*
X196844951Y-84752179D01*
X196748444Y-84941585D01*
X196682753Y-85143760D01*
X196674434Y-85196286D01*
X196649500Y-85353713D01*
X196649500Y-85566287D01*
X196682754Y-85776243D01*
X196745642Y-85969792D01*
X196748444Y-85978414D01*
X196844951Y-86167820D01*
X196969890Y-86339786D01*
X197120213Y-86490109D01*
X197292182Y-86615050D01*
X197300946Y-86619516D01*
X197351742Y-86667491D01*
X197368536Y-86735312D01*
X197345998Y-86801447D01*
X197300946Y-86840484D01*
X197292182Y-86844949D01*
X197120213Y-86969890D01*
X196969890Y-87120213D01*
X196844951Y-87292179D01*
X196748444Y-87481585D01*
X196682753Y-87683760D01*
X196649500Y-87893713D01*
X196649500Y-88106286D01*
X196680965Y-88304951D01*
X196682754Y-88316243D01*
X196745642Y-88509792D01*
X196748444Y-88518414D01*
X196844951Y-88707820D01*
X196969890Y-88879786D01*
X197120213Y-89030109D01*
X197292182Y-89155050D01*
X197300946Y-89159516D01*
X197351742Y-89207491D01*
X197368536Y-89275312D01*
X197345998Y-89341447D01*
X197300946Y-89380484D01*
X197292182Y-89384949D01*
X197120213Y-89509890D01*
X196969890Y-89660213D01*
X196844951Y-89832179D01*
X196748444Y-90021585D01*
X196682753Y-90223760D01*
X196649500Y-90433713D01*
X196649500Y-90646287D01*
X196682754Y-90856243D01*
X196745642Y-91049792D01*
X196748444Y-91058414D01*
X196844951Y-91247820D01*
X196969890Y-91419786D01*
X197120213Y-91570109D01*
X197292182Y-91695050D01*
X197300946Y-91699516D01*
X197351742Y-91747491D01*
X197368536Y-91815312D01*
X197345998Y-91881447D01*
X197300946Y-91920484D01*
X197292182Y-91924949D01*
X197120213Y-92049890D01*
X196969890Y-92200213D01*
X196844951Y-92372179D01*
X196748444Y-92561585D01*
X196682753Y-92763760D01*
X196649500Y-92973713D01*
X196649500Y-93186286D01*
X196675508Y-93350498D01*
X196682754Y-93396243D01*
X196745642Y-93589792D01*
X196748444Y-93598414D01*
X196844951Y-93787820D01*
X196969890Y-93959786D01*
X197120213Y-94110109D01*
X197292182Y-94235050D01*
X197300946Y-94239516D01*
X197351742Y-94287491D01*
X197368536Y-94355312D01*
X197345998Y-94421447D01*
X197300946Y-94460484D01*
X197292182Y-94464949D01*
X197120213Y-94589890D01*
X196969890Y-94740213D01*
X196844951Y-94912179D01*
X196748444Y-95101585D01*
X196682753Y-95303760D01*
X196649500Y-95513713D01*
X196649500Y-95726286D01*
X196681870Y-95930666D01*
X196682754Y-95936243D01*
X196745642Y-96129792D01*
X196748444Y-96138414D01*
X196844951Y-96327820D01*
X196969890Y-96499786D01*
X197120213Y-96650109D01*
X197292182Y-96775050D01*
X197300946Y-96779516D01*
X197351742Y-96827491D01*
X197368536Y-96895312D01*
X197345998Y-96961447D01*
X197300946Y-97000484D01*
X197292182Y-97004949D01*
X197120213Y-97129890D01*
X196969890Y-97280213D01*
X196844951Y-97452179D01*
X196748444Y-97641585D01*
X196682753Y-97843760D01*
X196649500Y-98053713D01*
X196649500Y-98266286D01*
X196682735Y-98476127D01*
X196682754Y-98476243D01*
X196745642Y-98669792D01*
X196748444Y-98678414D01*
X196844951Y-98867820D01*
X196969890Y-99039786D01*
X197083430Y-99153326D01*
X197116915Y-99214649D01*
X197111931Y-99284341D01*
X197070059Y-99340274D01*
X197039083Y-99357189D01*
X196907669Y-99406203D01*
X196907664Y-99406206D01*
X196792455Y-99492452D01*
X196792452Y-99492455D01*
X196706206Y-99607664D01*
X196706202Y-99607671D01*
X196655908Y-99742517D01*
X196649501Y-99802116D01*
X196649501Y-99802123D01*
X196649500Y-99802135D01*
X196649500Y-101597870D01*
X196649501Y-101597876D01*
X196655908Y-101657483D01*
X196706202Y-101792328D01*
X196706206Y-101792335D01*
X196792452Y-101907544D01*
X196792455Y-101907547D01*
X196907664Y-101993793D01*
X196907671Y-101993797D01*
X197042517Y-102044091D01*
X197042516Y-102044091D01*
X197049444Y-102044835D01*
X197102127Y-102050500D01*
X198897872Y-102050499D01*
X198957483Y-102044091D01*
X199092331Y-101993796D01*
X199207546Y-101907546D01*
X199293796Y-101792331D01*
X199344091Y-101657483D01*
X199350500Y-101597873D01*
X199350499Y-99802128D01*
X199344091Y-99742517D01*
X199293796Y-99607669D01*
X199293795Y-99607668D01*
X199293793Y-99607664D01*
X199207547Y-99492455D01*
X199207544Y-99492452D01*
X199092335Y-99406206D01*
X199092328Y-99406202D01*
X198960917Y-99357189D01*
X198904983Y-99315318D01*
X198880566Y-99249853D01*
X198895418Y-99181580D01*
X198916563Y-99153332D01*
X199030104Y-99039792D01*
X199060638Y-98997766D01*
X199135990Y-98894052D01*
X199155051Y-98867816D01*
X199251557Y-98678412D01*
X199317246Y-98476243D01*
X199350500Y-98266287D01*
X199350500Y-98053713D01*
X199317246Y-97843757D01*
X199251557Y-97641588D01*
X199155051Y-97452184D01*
X199155049Y-97452181D01*
X199155048Y-97452179D01*
X199030109Y-97280213D01*
X198879786Y-97129890D01*
X198707820Y-97004951D01*
X198699600Y-97000763D01*
X198699054Y-97000485D01*
X198648259Y-96952512D01*
X198631463Y-96884692D01*
X198653999Y-96818556D01*
X198699054Y-96779515D01*
X198707816Y-96775051D01*
X198748263Y-96745665D01*
X198879786Y-96650109D01*
X198879788Y-96650106D01*
X198879792Y-96650104D01*
X199030104Y-96499792D01*
X199030106Y-96499788D01*
X199030109Y-96499786D01*
X199155048Y-96327820D01*
X199155047Y-96327820D01*
X199155051Y-96327816D01*
X199251557Y-96138412D01*
X199317246Y-95936243D01*
X199350500Y-95726287D01*
X199350500Y-95513713D01*
X199317246Y-95303757D01*
X199251557Y-95101588D01*
X199155051Y-94912184D01*
X199155049Y-94912181D01*
X199155048Y-94912179D01*
X199030109Y-94740213D01*
X198879786Y-94589890D01*
X198707820Y-94464951D01*
X198707115Y-94464591D01*
X198699054Y-94460485D01*
X198648259Y-94412512D01*
X198631463Y-94344692D01*
X198653999Y-94278556D01*
X198699054Y-94239515D01*
X198707816Y-94235051D01*
X198729789Y-94219086D01*
X198879786Y-94110109D01*
X198879788Y-94110106D01*
X198879792Y-94110104D01*
X199030104Y-93959792D01*
X199030106Y-93959788D01*
X199030109Y-93959786D01*
X199155048Y-93787820D01*
X199155047Y-93787820D01*
X199155051Y-93787816D01*
X199251557Y-93598412D01*
X199317246Y-93396243D01*
X199350500Y-93186287D01*
X199350500Y-92973713D01*
X199317246Y-92763757D01*
X199251557Y-92561588D01*
X199155051Y-92372184D01*
X199155049Y-92372181D01*
X199155048Y-92372179D01*
X199030109Y-92200213D01*
X198879786Y-92049890D01*
X198707820Y-91924951D01*
X198707115Y-91924591D01*
X198699054Y-91920485D01*
X198648259Y-91872512D01*
X198631463Y-91804692D01*
X198653999Y-91738556D01*
X198699054Y-91699515D01*
X198707816Y-91695051D01*
X198759793Y-91657288D01*
X198879786Y-91570109D01*
X198879788Y-91570106D01*
X198879792Y-91570104D01*
X199030104Y-91419792D01*
X199030106Y-91419788D01*
X199030109Y-91419786D01*
X199155048Y-91247820D01*
X199155047Y-91247820D01*
X199155051Y-91247816D01*
X199251557Y-91058412D01*
X199317246Y-90856243D01*
X199350500Y-90646287D01*
X199350500Y-90433713D01*
X199317246Y-90223757D01*
X199251557Y-90021588D01*
X199155051Y-89832184D01*
X199155049Y-89832181D01*
X199155048Y-89832179D01*
X199030109Y-89660213D01*
X198879786Y-89509890D01*
X198707820Y-89384951D01*
X198707115Y-89384591D01*
X198699054Y-89380485D01*
X198648259Y-89332512D01*
X198631463Y-89264692D01*
X198653999Y-89198556D01*
X198699054Y-89159515D01*
X198707816Y-89155051D01*
X198729789Y-89139086D01*
X198879786Y-89030109D01*
X198879788Y-89030106D01*
X198879792Y-89030104D01*
X199030104Y-88879792D01*
X199030106Y-88879788D01*
X199030109Y-88879786D01*
X199155048Y-88707820D01*
X199155047Y-88707820D01*
X199155051Y-88707816D01*
X199251557Y-88518412D01*
X199317246Y-88316243D01*
X199350500Y-88106287D01*
X199350500Y-87893713D01*
X199317246Y-87683757D01*
X199251557Y-87481588D01*
X199155051Y-87292184D01*
X199155049Y-87292181D01*
X199155048Y-87292179D01*
X199030109Y-87120213D01*
X198879786Y-86969890D01*
X198707820Y-86844951D01*
X198707115Y-86844591D01*
X198699054Y-86840485D01*
X198648259Y-86792512D01*
X198631463Y-86724692D01*
X198653999Y-86658556D01*
X198699054Y-86619515D01*
X198707816Y-86615051D01*
X198729789Y-86599086D01*
X198879786Y-86490109D01*
X198879788Y-86490106D01*
X198879792Y-86490104D01*
X199030104Y-86339792D01*
X199030106Y-86339788D01*
X199030109Y-86339786D01*
X199155048Y-86167820D01*
X199155047Y-86167820D01*
X199155051Y-86167816D01*
X199251557Y-85978412D01*
X199317246Y-85776243D01*
X199350500Y-85566287D01*
X199350500Y-85353713D01*
X199317246Y-85143757D01*
X199251557Y-84941588D01*
X199155051Y-84752184D01*
X199155049Y-84752181D01*
X199155048Y-84752179D01*
X199030109Y-84580213D01*
X198879786Y-84429890D01*
X198707820Y-84304951D01*
X198707115Y-84304591D01*
X198699054Y-84300485D01*
X198648259Y-84252512D01*
X198631463Y-84184692D01*
X198653999Y-84118556D01*
X198699054Y-84079515D01*
X198707816Y-84075051D01*
X198729789Y-84059086D01*
X198879786Y-83950109D01*
X198879788Y-83950106D01*
X198879792Y-83950104D01*
X199030104Y-83799792D01*
X199030106Y-83799788D01*
X199030109Y-83799786D01*
X199155048Y-83627820D01*
X199155047Y-83627820D01*
X199155051Y-83627816D01*
X199251557Y-83438412D01*
X199317246Y-83236243D01*
X199350500Y-83026287D01*
X199350500Y-82813713D01*
X199317246Y-82603757D01*
X199251557Y-82401588D01*
X199155051Y-82212184D01*
X199155049Y-82212181D01*
X199155048Y-82212179D01*
X199030109Y-82040213D01*
X198879786Y-81889890D01*
X198707820Y-81764951D01*
X198518414Y-81668444D01*
X198518413Y-81668443D01*
X198518412Y-81668443D01*
X198316243Y-81602754D01*
X198316241Y-81602753D01*
X198316240Y-81602753D01*
X198145192Y-81575662D01*
X198106287Y-81569500D01*
X197893713Y-81569500D01*
X197893708Y-81569500D01*
X197798270Y-81584616D01*
X197728977Y-81575662D01*
X197691191Y-81549824D01*
X195058421Y-78917052D01*
X195058414Y-78917046D01*
X194984729Y-78867812D01*
X194984729Y-78867813D01*
X194935491Y-78834913D01*
X194798917Y-78778343D01*
X194798907Y-78778340D01*
X194653920Y-78749500D01*
X194653918Y-78749500D01*
X176461139Y-78749500D01*
X176398018Y-78732232D01*
X176389393Y-78727131D01*
X176389388Y-78727129D01*
X176235208Y-78682335D01*
X176235202Y-78682334D01*
X176199181Y-78679500D01*
X175800830Y-78679500D01*
X175800808Y-78679501D01*
X175764794Y-78682335D01*
X175610611Y-78727129D01*
X175610604Y-78727132D01*
X175553119Y-78761128D01*
X175485395Y-78778309D01*
X175444091Y-78769583D01*
X175435151Y-78766020D01*
X175369393Y-78727131D01*
X175252008Y-78693026D01*
X175246441Y-78690808D01*
X175231880Y-78679394D01*
X175204669Y-78663301D01*
X173958421Y-77417052D01*
X173958414Y-77417046D01*
X173884729Y-77367812D01*
X173884729Y-77367813D01*
X173835491Y-77334913D01*
X173698917Y-77278343D01*
X173698907Y-77278340D01*
X173553920Y-77249500D01*
X173553918Y-77249500D01*
X161073917Y-77249500D01*
X160926082Y-77249500D01*
X160926080Y-77249500D01*
X160781092Y-77278340D01*
X160781082Y-77278343D01*
X160644511Y-77334912D01*
X160644498Y-77334919D01*
X160521584Y-77417048D01*
X160521580Y-77417051D01*
X159315450Y-78623181D01*
X159254127Y-78656666D01*
X159227769Y-78659500D01*
X157672129Y-78659500D01*
X157672123Y-78659501D01*
X157612516Y-78665908D01*
X157477671Y-78716202D01*
X157477664Y-78716206D01*
X157362455Y-78802452D01*
X157362452Y-78802455D01*
X157276206Y-78917664D01*
X157276202Y-78917671D01*
X157225908Y-79052517D01*
X157219501Y-79112116D01*
X157219501Y-79112123D01*
X157219500Y-79112135D01*
X157219500Y-80907870D01*
X157219501Y-80907876D01*
X157225908Y-80967483D01*
X157276202Y-81102328D01*
X157276206Y-81102335D01*
X157362452Y-81217544D01*
X157362455Y-81217547D01*
X157477664Y-81303793D01*
X157477671Y-81303797D01*
X157612517Y-81354091D01*
X157612516Y-81354091D01*
X157619444Y-81354835D01*
X157672127Y-81360500D01*
X159467872Y-81360499D01*
X159527483Y-81354091D01*
X159662331Y-81303796D01*
X159777546Y-81217546D01*
X159863796Y-81102331D01*
X159914091Y-80967483D01*
X159920500Y-80907873D01*
X159920499Y-80192228D01*
X159940183Y-80125190D01*
X159956813Y-80104553D01*
X161274548Y-78786819D01*
X161335871Y-78753334D01*
X161362229Y-78750500D01*
X164779960Y-78750500D01*
X164846999Y-78770185D01*
X164892754Y-78822989D01*
X164902698Y-78892147D01*
X164896142Y-78917833D01*
X164845908Y-79052517D01*
X164839501Y-79112116D01*
X164839501Y-79112123D01*
X164839500Y-79112135D01*
X164839500Y-80907870D01*
X164839501Y-80907876D01*
X164845908Y-80967483D01*
X164896202Y-81102328D01*
X164896206Y-81102335D01*
X164982452Y-81217544D01*
X164982455Y-81217547D01*
X165097664Y-81303793D01*
X165097671Y-81303797D01*
X165232517Y-81354091D01*
X165232516Y-81354091D01*
X165239444Y-81354835D01*
X165292127Y-81360500D01*
X167087872Y-81360499D01*
X167147483Y-81354091D01*
X167282331Y-81303796D01*
X167397546Y-81217546D01*
X167483796Y-81102331D01*
X167534091Y-80967483D01*
X167540500Y-80907873D01*
X167540499Y-79112128D01*
X167534091Y-79052517D01*
X167534091Y-79052516D01*
X167483858Y-78917833D01*
X167478874Y-78848141D01*
X167512359Y-78786818D01*
X167573683Y-78753334D01*
X167600040Y-78750500D01*
X168590494Y-78750500D01*
X168657533Y-78770185D01*
X168703288Y-78822989D01*
X168713232Y-78892147D01*
X168706676Y-78917833D01*
X168656403Y-79052620D01*
X168656401Y-79052627D01*
X168650000Y-79112155D01*
X168650000Y-79760000D01*
X169566988Y-79760000D01*
X169534075Y-79817007D01*
X169500000Y-79944174D01*
X169500000Y-80075826D01*
X169534075Y-80202993D01*
X169566988Y-80260000D01*
X168650000Y-80260000D01*
X168650000Y-80907844D01*
X168656401Y-80967372D01*
X168656403Y-80967379D01*
X168706645Y-81102086D01*
X168706649Y-81102093D01*
X168792809Y-81217187D01*
X168792812Y-81217190D01*
X168907906Y-81303350D01*
X168907913Y-81303354D01*
X169039470Y-81352422D01*
X169095404Y-81394293D01*
X169119821Y-81459758D01*
X169104969Y-81528031D01*
X169083819Y-81556285D01*
X168969889Y-81670215D01*
X168844951Y-81842179D01*
X168748444Y-82031585D01*
X168682753Y-82233760D01*
X168665270Y-82344145D01*
X168649500Y-82443713D01*
X168649500Y-82656287D01*
X168682754Y-82866243D01*
X168734755Y-83026286D01*
X168748444Y-83068414D01*
X168844951Y-83257820D01*
X168969890Y-83429786D01*
X169120213Y-83580109D01*
X169292182Y-83705050D01*
X169300946Y-83709516D01*
X169351742Y-83757491D01*
X169368536Y-83825312D01*
X169345998Y-83891447D01*
X169300946Y-83930484D01*
X169292182Y-83934949D01*
X169120213Y-84059890D01*
X168969890Y-84210213D01*
X168844951Y-84382179D01*
X168748444Y-84571585D01*
X168682753Y-84773760D01*
X168656172Y-84941585D01*
X168649500Y-84983713D01*
X168649500Y-85196287D01*
X168682754Y-85406243D01*
X168734755Y-85566286D01*
X168748444Y-85608414D01*
X168844951Y-85797820D01*
X168969890Y-85969786D01*
X169120213Y-86120109D01*
X169292182Y-86245050D01*
X169300946Y-86249516D01*
X169351742Y-86297491D01*
X169368536Y-86365312D01*
X169345998Y-86431447D01*
X169300946Y-86470484D01*
X169292182Y-86474949D01*
X169120213Y-86599890D01*
X168969890Y-86750213D01*
X168844951Y-86922179D01*
X168748444Y-87111585D01*
X168682753Y-87313760D01*
X168656172Y-87481585D01*
X168649500Y-87523713D01*
X168649500Y-87736287D01*
X168682754Y-87946243D01*
X168746604Y-88142753D01*
X168748444Y-88148414D01*
X168844951Y-88337820D01*
X168969890Y-88509786D01*
X169120213Y-88660109D01*
X169292182Y-88785050D01*
X169300946Y-88789516D01*
X169351742Y-88837491D01*
X169368536Y-88905312D01*
X169345998Y-88971447D01*
X169300946Y-89010484D01*
X169292182Y-89014949D01*
X169120213Y-89139890D01*
X168969890Y-89290213D01*
X168844951Y-89462179D01*
X168748444Y-89651585D01*
X168682753Y-89853760D01*
X168663010Y-89978412D01*
X168649500Y-90063713D01*
X168649500Y-90276287D01*
X168682754Y-90486243D01*
X168734755Y-90646286D01*
X168748444Y-90688414D01*
X168844951Y-90877820D01*
X168969890Y-91049785D01*
X168969894Y-91049790D01*
X169120213Y-91200109D01*
X169292182Y-91325050D01*
X169300946Y-91329516D01*
X169351742Y-91377491D01*
X169368536Y-91445312D01*
X169345998Y-91511447D01*
X169300946Y-91550484D01*
X169292182Y-91554949D01*
X169120213Y-91679890D01*
X168969890Y-91830213D01*
X168844951Y-92002179D01*
X168748444Y-92191585D01*
X168682753Y-92393760D01*
X168649500Y-92603713D01*
X168649500Y-92816286D01*
X168662422Y-92897876D01*
X168682754Y-93026243D01*
X168741663Y-93207546D01*
X168748444Y-93228414D01*
X168844951Y-93417820D01*
X168969890Y-93589786D01*
X169120213Y-93740109D01*
X169292182Y-93865050D01*
X169300946Y-93869516D01*
X169351742Y-93917491D01*
X169368536Y-93985312D01*
X169345998Y-94051447D01*
X169300946Y-94090484D01*
X169292182Y-94094949D01*
X169120213Y-94219890D01*
X168969890Y-94370213D01*
X168844951Y-94542179D01*
X168748444Y-94731585D01*
X168682753Y-94933760D01*
X168649500Y-95143713D01*
X168649500Y-95356286D01*
X168682586Y-95565187D01*
X168682754Y-95566243D01*
X168734755Y-95726286D01*
X168748444Y-95768414D01*
X168844951Y-95957820D01*
X168969890Y-96129786D01*
X169120213Y-96280109D01*
X169292182Y-96405050D01*
X169300946Y-96409516D01*
X169351742Y-96457491D01*
X169368536Y-96525312D01*
X169345998Y-96591447D01*
X169300946Y-96630484D01*
X169292182Y-96634949D01*
X169120213Y-96759890D01*
X168969890Y-96910213D01*
X168844951Y-97082179D01*
X168748444Y-97271585D01*
X168682753Y-97473760D01*
X168649500Y-97683713D01*
X168649500Y-97896286D01*
X168677634Y-98073920D01*
X168682754Y-98106243D01*
X168745712Y-98300008D01*
X168748444Y-98308414D01*
X168844951Y-98497820D01*
X168969890Y-98669786D01*
X169120213Y-98820109D01*
X169292179Y-98945048D01*
X169292181Y-98945049D01*
X169292184Y-98945051D01*
X169301493Y-98949794D01*
X169352290Y-98997766D01*
X169369087Y-99065587D01*
X169346552Y-99131722D01*
X169301505Y-99170760D01*
X169292446Y-99175376D01*
X169292440Y-99175380D01*
X169238282Y-99214727D01*
X169238282Y-99214728D01*
X169870591Y-99847037D01*
X169807007Y-99864075D01*
X169692993Y-99929901D01*
X169599901Y-100022993D01*
X169534075Y-100137007D01*
X169517037Y-100200591D01*
X168884728Y-99568282D01*
X168884727Y-99568282D01*
X168845380Y-99622439D01*
X168748904Y-99811782D01*
X168683242Y-100013869D01*
X168683242Y-100013872D01*
X168650000Y-100223753D01*
X168650000Y-100436246D01*
X168683242Y-100646127D01*
X168683242Y-100646130D01*
X168748904Y-100848217D01*
X168845377Y-101037554D01*
X168856319Y-101052614D01*
X168879799Y-101118420D01*
X168863974Y-101186474D01*
X168813869Y-101235169D01*
X168756001Y-101249500D01*
X156792229Y-101249500D01*
X156725190Y-101229815D01*
X156704548Y-101213181D01*
X156130174Y-100638807D01*
X156096689Y-100577484D01*
X156095382Y-100531733D01*
X156110500Y-100436287D01*
X156110500Y-100223713D01*
X156077246Y-100013757D01*
X156011557Y-99811588D01*
X155915051Y-99622184D01*
X155915049Y-99622181D01*
X155915048Y-99622179D01*
X155790109Y-99450213D01*
X155639786Y-99299890D01*
X155467820Y-99174951D01*
X155459600Y-99170763D01*
X155459054Y-99170485D01*
X155408259Y-99122512D01*
X155391463Y-99054692D01*
X155413999Y-98988556D01*
X155459054Y-98949515D01*
X155467816Y-98945051D01*
X155538011Y-98894052D01*
X155639786Y-98820109D01*
X155639788Y-98820106D01*
X155639792Y-98820104D01*
X155790104Y-98669792D01*
X155790106Y-98669788D01*
X155790109Y-98669786D01*
X155915048Y-98497820D01*
X155915047Y-98497820D01*
X155915051Y-98497816D01*
X156011557Y-98308412D01*
X156077246Y-98106243D01*
X156110500Y-97896287D01*
X156110500Y-97683713D01*
X156077246Y-97473757D01*
X156011557Y-97271588D01*
X155915051Y-97082184D01*
X155915049Y-97082181D01*
X155915048Y-97082179D01*
X155790109Y-96910213D01*
X155639786Y-96759890D01*
X155467820Y-96634951D01*
X155467115Y-96634591D01*
X155459054Y-96630485D01*
X155408259Y-96582512D01*
X155391463Y-96514692D01*
X155413999Y-96448556D01*
X155459054Y-96409515D01*
X155467816Y-96405051D01*
X155489789Y-96389086D01*
X155639786Y-96280109D01*
X155639788Y-96280106D01*
X155639792Y-96280104D01*
X155790104Y-96129792D01*
X155790106Y-96129788D01*
X155790109Y-96129786D01*
X155915048Y-95957820D01*
X155915047Y-95957820D01*
X155915051Y-95957816D01*
X156011557Y-95768412D01*
X156077246Y-95566243D01*
X156110500Y-95356287D01*
X156110500Y-95143713D01*
X156077246Y-94933757D01*
X156011557Y-94731588D01*
X155915051Y-94542184D01*
X155915049Y-94542181D01*
X155915048Y-94542179D01*
X155790109Y-94370213D01*
X155639786Y-94219890D01*
X155467820Y-94094951D01*
X155467115Y-94094591D01*
X155459054Y-94090485D01*
X155408259Y-94042512D01*
X155391463Y-93974692D01*
X155413999Y-93908556D01*
X155459054Y-93869515D01*
X155467816Y-93865051D01*
X155489789Y-93849086D01*
X155639786Y-93740109D01*
X155639788Y-93740106D01*
X155639792Y-93740104D01*
X155790104Y-93589792D01*
X155790106Y-93589788D01*
X155790109Y-93589786D01*
X155915048Y-93417820D01*
X155915047Y-93417820D01*
X155915051Y-93417816D01*
X156011557Y-93228412D01*
X156077246Y-93026243D01*
X156110500Y-92816287D01*
X156110500Y-92603713D01*
X156077246Y-92393757D01*
X156011557Y-92191588D01*
X155915051Y-92002184D01*
X155915049Y-92002181D01*
X155915048Y-92002179D01*
X155790109Y-91830213D01*
X155639786Y-91679890D01*
X155467820Y-91554951D01*
X155467115Y-91554591D01*
X155459054Y-91550485D01*
X155408259Y-91502512D01*
X155391463Y-91434692D01*
X155413999Y-91368556D01*
X155459054Y-91329515D01*
X155467816Y-91325051D01*
X155489789Y-91309086D01*
X155639786Y-91200109D01*
X155639788Y-91200106D01*
X155639792Y-91200104D01*
X155790104Y-91049792D01*
X155790106Y-91049788D01*
X155790110Y-91049785D01*
X155915048Y-90877820D01*
X155915047Y-90877820D01*
X155915051Y-90877816D01*
X156011557Y-90688412D01*
X156077246Y-90486243D01*
X156110500Y-90276287D01*
X156110500Y-90063713D01*
X156077246Y-89853757D01*
X156011557Y-89651588D01*
X155915051Y-89462184D01*
X155915049Y-89462181D01*
X155915048Y-89462179D01*
X155790109Y-89290213D01*
X155639786Y-89139890D01*
X155467820Y-89014951D01*
X155467115Y-89014591D01*
X155459054Y-89010485D01*
X155408259Y-88962512D01*
X155391463Y-88894692D01*
X155413999Y-88828556D01*
X155459054Y-88789515D01*
X155467816Y-88785051D01*
X155513061Y-88752179D01*
X155639786Y-88660109D01*
X155639788Y-88660106D01*
X155639792Y-88660104D01*
X155790104Y-88509792D01*
X155790106Y-88509788D01*
X155790109Y-88509786D01*
X155915048Y-88337820D01*
X155915047Y-88337820D01*
X155915051Y-88337816D01*
X156011557Y-88148412D01*
X156077246Y-87946243D01*
X156110500Y-87736287D01*
X156110500Y-87523713D01*
X156077246Y-87313757D01*
X156011557Y-87111588D01*
X155915051Y-86922184D01*
X155915049Y-86922181D01*
X155915048Y-86922179D01*
X155790109Y-86750213D01*
X155639786Y-86599890D01*
X155467820Y-86474951D01*
X155467115Y-86474591D01*
X155459054Y-86470485D01*
X155408259Y-86422512D01*
X155391463Y-86354692D01*
X155413999Y-86288556D01*
X155459054Y-86249515D01*
X155467816Y-86245051D01*
X155489789Y-86229086D01*
X155639786Y-86120109D01*
X155639788Y-86120106D01*
X155639792Y-86120104D01*
X155790104Y-85969792D01*
X155790106Y-85969788D01*
X155790109Y-85969786D01*
X155915048Y-85797820D01*
X155915047Y-85797820D01*
X155915051Y-85797816D01*
X156011557Y-85608412D01*
X156077246Y-85406243D01*
X156110500Y-85196287D01*
X156110500Y-84983713D01*
X156077246Y-84773757D01*
X156011557Y-84571588D01*
X155915051Y-84382184D01*
X155915049Y-84382181D01*
X155915048Y-84382179D01*
X155790109Y-84210213D01*
X155639786Y-84059890D01*
X155467820Y-83934951D01*
X155467115Y-83934591D01*
X155459054Y-83930485D01*
X155408259Y-83882512D01*
X155391463Y-83814692D01*
X155413999Y-83748556D01*
X155459054Y-83709515D01*
X155467816Y-83705051D01*
X155502690Y-83679714D01*
X155639786Y-83580109D01*
X155639788Y-83580106D01*
X155639792Y-83580104D01*
X155790104Y-83429792D01*
X155790106Y-83429788D01*
X155790109Y-83429786D01*
X155899086Y-83279789D01*
X155915051Y-83257816D01*
X156011557Y-83068412D01*
X156077246Y-82866243D01*
X156110500Y-82656287D01*
X156110500Y-82443713D01*
X156077246Y-82233757D01*
X156011557Y-82031588D01*
X155915051Y-81842184D01*
X155915049Y-81842181D01*
X155915048Y-81842179D01*
X155790109Y-81670213D01*
X155676569Y-81556673D01*
X155643084Y-81495350D01*
X155648068Y-81425658D01*
X155689940Y-81369725D01*
X155720915Y-81352810D01*
X155852331Y-81303796D01*
X155967546Y-81217546D01*
X156053796Y-81102331D01*
X156104091Y-80967483D01*
X156110500Y-80907873D01*
X156110499Y-79112128D01*
X156104091Y-79052517D01*
X156053796Y-78917669D01*
X156053795Y-78917668D01*
X156053793Y-78917664D01*
X155967547Y-78802455D01*
X155967544Y-78802452D01*
X155852335Y-78716206D01*
X155852328Y-78716202D01*
X155717482Y-78665908D01*
X155717483Y-78665908D01*
X155657883Y-78659501D01*
X155657881Y-78659500D01*
X155657873Y-78659500D01*
X155657865Y-78659500D01*
X154382606Y-78659500D01*
X154346610Y-78654160D01*
X154343912Y-78653341D01*
X154198920Y-78624500D01*
X154198918Y-78624500D01*
X151130499Y-78624500D01*
X151063460Y-78604815D01*
X151017705Y-78552011D01*
X151006499Y-78500500D01*
X151006499Y-78324998D01*
X151006498Y-78324981D01*
X150995999Y-78222203D01*
X150995998Y-78222200D01*
X150940814Y-78055666D01*
X150848712Y-77906344D01*
X150724656Y-77782288D01*
X150575334Y-77690186D01*
X150408797Y-77635001D01*
X150408795Y-77635000D01*
X150306010Y-77624500D01*
X148905998Y-77624500D01*
X148905981Y-77624501D01*
X148803203Y-77635000D01*
X148803197Y-77635002D01*
X148802048Y-77635383D01*
X148801298Y-77635408D01*
X148796578Y-77636419D01*
X148796397Y-77635576D01*
X148732219Y-77637778D01*
X148672181Y-77602041D01*
X148640994Y-77539517D01*
X148648561Y-77470059D01*
X148675371Y-77429995D01*
X149372548Y-76732819D01*
X149433871Y-76699334D01*
X149460229Y-76696500D01*
X158627920Y-76696500D01*
X158725462Y-76677096D01*
X158772913Y-76667658D01*
X158909495Y-76611084D01*
X158958729Y-76578186D01*
X159032416Y-76528952D01*
X166697605Y-68863760D01*
X166697610Y-68863757D01*
X166707813Y-68853553D01*
X166707815Y-68853553D01*
X168759952Y-66801416D01*
X168759952Y-66801415D01*
X174218206Y-61343159D01*
X174218211Y-61343156D01*
X174228414Y-61332952D01*
X174228416Y-61332952D01*
X183774546Y-51786820D01*
X183835869Y-51753336D01*
X183862227Y-51750502D01*
X197557377Y-51750502D01*
X197586817Y-51759146D01*
X197616804Y-51765670D01*
X197621819Y-51769424D01*
X197624416Y-51770187D01*
X197645058Y-51786821D01*
X197677066Y-51818829D01*
X197710551Y-51880152D01*
X197705567Y-51949844D01*
X197663695Y-52005777D01*
X197662304Y-52006803D01*
X197603075Y-52049836D01*
X197603073Y-52049838D01*
X197603072Y-52049838D01*
X197449838Y-52203072D01*
X197322455Y-52378399D01*
X197224068Y-52571494D01*
X197157102Y-52777594D01*
X197157102Y-52777597D01*
X197123200Y-52991644D01*
X197123200Y-53208355D01*
X197157102Y-53422402D01*
X197157102Y-53422405D01*
X197224068Y-53628505D01*
X197322455Y-53821600D01*
X197449836Y-53996925D01*
X197603075Y-54150164D01*
X197778400Y-54277545D01*
X197929115Y-54354338D01*
X197971494Y-54375931D01*
X198177595Y-54442897D01*
X198177596Y-54442897D01*
X198177599Y-54442898D01*
X198391644Y-54476800D01*
X198391645Y-54476800D01*
X198608355Y-54476800D01*
X198608356Y-54476800D01*
X198822401Y-54442898D01*
X198822404Y-54442897D01*
X198822405Y-54442897D01*
X199028505Y-54375931D01*
X199028505Y-54375930D01*
X199028508Y-54375930D01*
X199221600Y-54277545D01*
X199396925Y-54150164D01*
X199550164Y-53996925D01*
X199677545Y-53821600D01*
X199775930Y-53628508D01*
X199842898Y-53422401D01*
X199876800Y-53208356D01*
X199876800Y-52991644D01*
X199842898Y-52777599D01*
X199842897Y-52777595D01*
X199842897Y-52777594D01*
X199775931Y-52571494D01*
X199774089Y-52567879D01*
X199677545Y-52378400D01*
X199550164Y-52203075D01*
X199396925Y-52049836D01*
X199337728Y-52006827D01*
X199295063Y-51951499D01*
X199289084Y-51881885D01*
X199321689Y-51820090D01*
X199322794Y-51818968D01*
X199385485Y-51756278D01*
X199492891Y-51608446D01*
X199575848Y-51445633D01*
X199632315Y-51271847D01*
X199646553Y-51181954D01*
X199660900Y-51091372D01*
X199660900Y-50908631D01*
X199632315Y-50728160D01*
X199632315Y-50728157D01*
X199575848Y-50554371D01*
X199492891Y-50391558D01*
X199385485Y-50243726D01*
X199256276Y-50114517D01*
X199236733Y-50100318D01*
X199194068Y-50044990D01*
X199188089Y-49975376D01*
X199220694Y-49913581D01*
X199236730Y-49899686D01*
X199256276Y-49885486D01*
X199385485Y-49756277D01*
X199492891Y-49608445D01*
X199575848Y-49445632D01*
X199632315Y-49271846D01*
X199645878Y-49186214D01*
X199660900Y-49091371D01*
X199660900Y-48908630D01*
X199632315Y-48728159D01*
X199632315Y-48728156D01*
X199575848Y-48554370D01*
X199492891Y-48391557D01*
X199385485Y-48243725D01*
X199256276Y-48114516D01*
X199236733Y-48100317D01*
X199194068Y-48044989D01*
X199188089Y-47975375D01*
X199220694Y-47913580D01*
X199236730Y-47899685D01*
X199256276Y-47885485D01*
X199385485Y-47756276D01*
X199492891Y-47608444D01*
X199575848Y-47445631D01*
X199632315Y-47271845D01*
X199648618Y-47168912D01*
X199660900Y-47091370D01*
X199660900Y-46908629D01*
X199632315Y-46728158D01*
X199632315Y-46728155D01*
X199575848Y-46554369D01*
X199492891Y-46391556D01*
X199385485Y-46243724D01*
X199322932Y-46181171D01*
X199289448Y-46119849D01*
X199294432Y-46050157D01*
X199336304Y-45994224D01*
X199337581Y-45993281D01*
X199396925Y-45950166D01*
X199550164Y-45796927D01*
X199677545Y-45621602D01*
X199775930Y-45428510D01*
X199782886Y-45407102D01*
X199842897Y-45222407D01*
X199842897Y-45222406D01*
X199842898Y-45222403D01*
X199876800Y-45008358D01*
X199876800Y-44791646D01*
X199842898Y-44577601D01*
X199842897Y-44577597D01*
X199842897Y-44577596D01*
X199775931Y-44371496D01*
X199748834Y-44318315D01*
X199677545Y-44178402D01*
X199550164Y-44003077D01*
X199396925Y-43849838D01*
X199221600Y-43722457D01*
X199028505Y-43624070D01*
X198822404Y-43557104D01*
X198661867Y-43531677D01*
X198608356Y-43523202D01*
X198391644Y-43523202D01*
X198320295Y-43534502D01*
X198177597Y-43557104D01*
X198177594Y-43557104D01*
X197971494Y-43624070D01*
X197778399Y-43722457D01*
X197603072Y-43849840D01*
X197449838Y-44003074D01*
X197322455Y-44178401D01*
X197224068Y-44371496D01*
X197157102Y-44577596D01*
X197157102Y-44577599D01*
X197123200Y-44791646D01*
X197123200Y-45008357D01*
X197157102Y-45222404D01*
X197157102Y-45222407D01*
X197224068Y-45428507D01*
X197257110Y-45493355D01*
X197322455Y-45621602D01*
X197449836Y-45796927D01*
X197603075Y-45950166D01*
X197603078Y-45950168D01*
X197662269Y-45993173D01*
X197704935Y-46048503D01*
X197710914Y-46118116D01*
X197678308Y-46179911D01*
X197677067Y-46181171D01*
X197614515Y-46243724D01*
X197507109Y-46391555D01*
X197424153Y-46554366D01*
X197367684Y-46728158D01*
X197339100Y-46908629D01*
X197339100Y-47091370D01*
X197367448Y-47270350D01*
X197367685Y-47271845D01*
X197424152Y-47445631D01*
X197507109Y-47608444D01*
X197614515Y-47756276D01*
X197743724Y-47885485D01*
X197763265Y-47899682D01*
X197805931Y-47955011D01*
X197811911Y-48024624D01*
X197779305Y-48086419D01*
X197763267Y-48100317D01*
X197743724Y-48114515D01*
X197614517Y-48243722D01*
X197507109Y-48391556D01*
X197424153Y-48554367D01*
X197367684Y-48728159D01*
X197339100Y-48908630D01*
X197339100Y-49091371D01*
X197367684Y-49271842D01*
X197367685Y-49271846D01*
X197424152Y-49445632D01*
X197507109Y-49608445D01*
X197614515Y-49756277D01*
X197743724Y-49885486D01*
X197763265Y-49899683D01*
X197775750Y-49915874D01*
X197791761Y-49928601D01*
X197796654Y-49942982D01*
X197805931Y-49955012D01*
X197807681Y-49975387D01*
X197814269Y-49994747D01*
X197810610Y-50009490D01*
X197811911Y-50024625D01*
X197802368Y-50042710D01*
X197797443Y-50062560D01*
X197784139Y-50077258D01*
X197779305Y-50086420D01*
X197775481Y-50090189D01*
X197769697Y-50095645D01*
X197743724Y-50114517D01*
X197643772Y-50214468D01*
X197642478Y-50215690D01*
X197612868Y-50230759D01*
X197583735Y-50246668D01*
X197581043Y-50246957D01*
X197580209Y-50247382D01*
X197578601Y-50247219D01*
X197557377Y-50249502D01*
X183426078Y-50249502D01*
X183281090Y-50278342D01*
X183281080Y-50278345D01*
X183144509Y-50334914D01*
X183144496Y-50334921D01*
X183021582Y-50417050D01*
X183021578Y-50417053D01*
X173167046Y-60271586D01*
X167681143Y-65757488D01*
X167681142Y-65757489D01*
X165646447Y-67792185D01*
X158279451Y-75159181D01*
X158218128Y-75192666D01*
X158191770Y-75195500D01*
X149024076Y-75195500D01*
X148995242Y-75201234D01*
X148995243Y-75201235D01*
X148879093Y-75224339D01*
X148879083Y-75224342D01*
X148799081Y-75257479D01*
X148799082Y-75257480D01*
X148742505Y-75280915D01*
X148660372Y-75335795D01*
X148619585Y-75363047D01*
X148619581Y-75363050D01*
X146864050Y-77118580D01*
X146864044Y-77118588D01*
X146814812Y-77192268D01*
X146814813Y-77192269D01*
X146781921Y-77241496D01*
X146781914Y-77241508D01*
X146725342Y-77378086D01*
X146725340Y-77378092D01*
X146696500Y-77523079D01*
X146696500Y-77523082D01*
X146696500Y-81353918D01*
X146696500Y-81353920D01*
X146696499Y-81353920D01*
X146725340Y-81498907D01*
X146725343Y-81498917D01*
X146781914Y-81635492D01*
X146781915Y-81635494D01*
X146781916Y-81635495D01*
X146805110Y-81670208D01*
X146814812Y-81684727D01*
X146814813Y-81684730D01*
X146864046Y-81758414D01*
X146864052Y-81758421D01*
X148169181Y-83063548D01*
X148202666Y-83124871D01*
X148205500Y-83151229D01*
X148205500Y-84425001D01*
X148205501Y-84425018D01*
X148216000Y-84527796D01*
X148216001Y-84527799D01*
X148233368Y-84580208D01*
X148271186Y-84694334D01*
X148363288Y-84843656D01*
X148487344Y-84967712D01*
X148636666Y-85059814D01*
X148803203Y-85114999D01*
X148905991Y-85125500D01*
X150306008Y-85125499D01*
X150408797Y-85114999D01*
X150575334Y-85059814D01*
X150724656Y-84967712D01*
X150848712Y-84843656D01*
X150940814Y-84694334D01*
X150995999Y-84527797D01*
X151006500Y-84425009D01*
X151006499Y-82324992D01*
X150995999Y-82222203D01*
X150940814Y-82055666D01*
X150848712Y-81906344D01*
X150724656Y-81782288D01*
X150575334Y-81690186D01*
X150408797Y-81635001D01*
X150408795Y-81635000D01*
X150306016Y-81624500D01*
X148904230Y-81624500D01*
X148837191Y-81604815D01*
X148816549Y-81588181D01*
X148477399Y-81249031D01*
X148443914Y-81187708D01*
X148448898Y-81118016D01*
X148490770Y-81062083D01*
X148556234Y-81037666D01*
X148624507Y-81052518D01*
X148630177Y-81055812D01*
X148636657Y-81059809D01*
X148636660Y-81059810D01*
X148636666Y-81059814D01*
X148803203Y-81114999D01*
X148905991Y-81125500D01*
X150306008Y-81125499D01*
X150408797Y-81114999D01*
X150575334Y-81059814D01*
X150724656Y-80967712D01*
X150848712Y-80843656D01*
X150940814Y-80694334D01*
X150995999Y-80527797D01*
X151006500Y-80425009D01*
X151006500Y-80249500D01*
X151026185Y-80182461D01*
X151078989Y-80136706D01*
X151130500Y-80125500D01*
X153285501Y-80125500D01*
X153352540Y-80145185D01*
X153398295Y-80197989D01*
X153409501Y-80249500D01*
X153409501Y-80907876D01*
X153415908Y-80967483D01*
X153466202Y-81102328D01*
X153466206Y-81102335D01*
X153552452Y-81217544D01*
X153552455Y-81217547D01*
X153667664Y-81303793D01*
X153667671Y-81303797D01*
X153799082Y-81352810D01*
X153855016Y-81394681D01*
X153879433Y-81460145D01*
X153864582Y-81528418D01*
X153843431Y-81556673D01*
X153729889Y-81670215D01*
X153604951Y-81842179D01*
X153508444Y-82031585D01*
X153442753Y-82233760D01*
X153425270Y-82344145D01*
X153409500Y-82443713D01*
X153409500Y-82656287D01*
X153442754Y-82866243D01*
X153494755Y-83026286D01*
X153508444Y-83068414D01*
X153604951Y-83257820D01*
X153729890Y-83429786D01*
X153880213Y-83580109D01*
X154052182Y-83705050D01*
X154060946Y-83709516D01*
X154111742Y-83757491D01*
X154128536Y-83825312D01*
X154105998Y-83891447D01*
X154060946Y-83930484D01*
X154052182Y-83934949D01*
X153880213Y-84059890D01*
X153729890Y-84210213D01*
X153604951Y-84382179D01*
X153508444Y-84571585D01*
X153442753Y-84773760D01*
X153416172Y-84941585D01*
X153409500Y-84983713D01*
X153409500Y-85196287D01*
X153442754Y-85406243D01*
X153494755Y-85566286D01*
X153508444Y-85608414D01*
X153604951Y-85797820D01*
X153729890Y-85969786D01*
X153880213Y-86120109D01*
X154052182Y-86245050D01*
X154060946Y-86249516D01*
X154111742Y-86297491D01*
X154128536Y-86365312D01*
X154105998Y-86431447D01*
X154060946Y-86470484D01*
X154052182Y-86474949D01*
X153880213Y-86599890D01*
X153729890Y-86750213D01*
X153604951Y-86922179D01*
X153508444Y-87111585D01*
X153442753Y-87313760D01*
X153416172Y-87481585D01*
X153409500Y-87523713D01*
X153409500Y-87736287D01*
X153442754Y-87946243D01*
X153506604Y-88142753D01*
X153508444Y-88148414D01*
X153604951Y-88337820D01*
X153729890Y-88509786D01*
X153880213Y-88660109D01*
X154052182Y-88785050D01*
X154060946Y-88789516D01*
X154111742Y-88837491D01*
X154128536Y-88905312D01*
X154105998Y-88971447D01*
X154060946Y-89010484D01*
X154052182Y-89014949D01*
X153880213Y-89139890D01*
X153729890Y-89290213D01*
X153604951Y-89462179D01*
X153508444Y-89651585D01*
X153442753Y-89853760D01*
X153423010Y-89978412D01*
X153409500Y-90063713D01*
X153409500Y-90276287D01*
X153442754Y-90486243D01*
X153494755Y-90646286D01*
X153508444Y-90688414D01*
X153604951Y-90877820D01*
X153729890Y-91049785D01*
X153729894Y-91049790D01*
X153880213Y-91200109D01*
X154052182Y-91325050D01*
X154060946Y-91329516D01*
X154111742Y-91377491D01*
X154128536Y-91445312D01*
X154105998Y-91511447D01*
X154060946Y-91550484D01*
X154052182Y-91554949D01*
X153880213Y-91679890D01*
X153729890Y-91830213D01*
X153604951Y-92002179D01*
X153508444Y-92191585D01*
X153442753Y-92393760D01*
X153409500Y-92603713D01*
X153409500Y-92816286D01*
X153422422Y-92897876D01*
X153442754Y-93026243D01*
X153501663Y-93207546D01*
X153508444Y-93228414D01*
X153604951Y-93417820D01*
X153729890Y-93589786D01*
X153880213Y-93740109D01*
X154052182Y-93865050D01*
X154060946Y-93869516D01*
X154111742Y-93917491D01*
X154128536Y-93985312D01*
X154105998Y-94051447D01*
X154060946Y-94090484D01*
X154052182Y-94094949D01*
X153880213Y-94219890D01*
X153729890Y-94370213D01*
X153604951Y-94542179D01*
X153508444Y-94731585D01*
X153442753Y-94933760D01*
X153409500Y-95143713D01*
X153409500Y-95356286D01*
X153442586Y-95565187D01*
X153442754Y-95566243D01*
X153494755Y-95726286D01*
X153508444Y-95768414D01*
X153604951Y-95957820D01*
X153729890Y-96129786D01*
X153880213Y-96280109D01*
X154052182Y-96405050D01*
X154060946Y-96409516D01*
X154111742Y-96457491D01*
X154128536Y-96525312D01*
X154105998Y-96591447D01*
X154060946Y-96630484D01*
X154052182Y-96634949D01*
X153880213Y-96759890D01*
X153729890Y-96910213D01*
X153604951Y-97082179D01*
X153508444Y-97271585D01*
X153442753Y-97473760D01*
X153409500Y-97683713D01*
X153409500Y-97896286D01*
X153437634Y-98073920D01*
X153442754Y-98106243D01*
X153505712Y-98300008D01*
X153508444Y-98308414D01*
X153604951Y-98497820D01*
X153729890Y-98669786D01*
X153880213Y-98820109D01*
X154052182Y-98945050D01*
X154060946Y-98949516D01*
X154111742Y-98997491D01*
X154128536Y-99065312D01*
X154105998Y-99131447D01*
X154060946Y-99170484D01*
X154052182Y-99174949D01*
X153880213Y-99299890D01*
X153729890Y-99450213D01*
X153604951Y-99622179D01*
X153508444Y-99811585D01*
X153442753Y-100013760D01*
X153409500Y-100223713D01*
X153409500Y-100436286D01*
X153442753Y-100646239D01*
X153508444Y-100848414D01*
X153604951Y-101037820D01*
X153729890Y-101209786D01*
X153880213Y-101360109D01*
X154052179Y-101485048D01*
X154052181Y-101485049D01*
X154052184Y-101485051D01*
X154241588Y-101581557D01*
X154443757Y-101647246D01*
X154653713Y-101680500D01*
X154653714Y-101680500D01*
X154866284Y-101680500D01*
X154866287Y-101680500D01*
X154961731Y-101665382D01*
X155031020Y-101674336D01*
X155068807Y-101700174D01*
X155656952Y-102288319D01*
X155690437Y-102349642D01*
X155685453Y-102419334D01*
X155643581Y-102475267D01*
X155578117Y-102499684D01*
X155569271Y-102500000D01*
X77624000Y-102500000D01*
X77556961Y-102480315D01*
X77511206Y-102427511D01*
X77500000Y-102376000D01*
X77500000Y-89353713D01*
X147819500Y-89353713D01*
X147819500Y-89566286D01*
X147834376Y-89660213D01*
X147852754Y-89776243D01*
X147870930Y-89832184D01*
X147918444Y-89978414D01*
X148014951Y-90167820D01*
X148139890Y-90339786D01*
X148253430Y-90453326D01*
X148286915Y-90514649D01*
X148281931Y-90584341D01*
X148240059Y-90640274D01*
X148209083Y-90657189D01*
X148077669Y-90706203D01*
X148077664Y-90706206D01*
X147962455Y-90792452D01*
X147962452Y-90792455D01*
X147876206Y-90907664D01*
X147876202Y-90907671D01*
X147825908Y-91042517D01*
X147819501Y-91102116D01*
X147819501Y-91102123D01*
X147819500Y-91102135D01*
X147819500Y-92897870D01*
X147819501Y-92897876D01*
X147825908Y-92957483D01*
X147876202Y-93092328D01*
X147876206Y-93092335D01*
X147962452Y-93207544D01*
X147962455Y-93207547D01*
X148077664Y-93293793D01*
X148077671Y-93293797D01*
X148212517Y-93344091D01*
X148212516Y-93344091D01*
X148219444Y-93344835D01*
X148272127Y-93350500D01*
X150067872Y-93350499D01*
X150127483Y-93344091D01*
X150262331Y-93293796D01*
X150377546Y-93207546D01*
X150463796Y-93092331D01*
X150514091Y-92957483D01*
X150520500Y-92897873D01*
X150520499Y-91102128D01*
X150514091Y-91042517D01*
X150463796Y-90907669D01*
X150463795Y-90907668D01*
X150463793Y-90907664D01*
X150377547Y-90792455D01*
X150377544Y-90792452D01*
X150262335Y-90706206D01*
X150262328Y-90706202D01*
X150130917Y-90657189D01*
X150074983Y-90615318D01*
X150050566Y-90549853D01*
X150065418Y-90481580D01*
X150086563Y-90453332D01*
X150200104Y-90339792D01*
X150246244Y-90276286D01*
X150325048Y-90167820D01*
X150325047Y-90167820D01*
X150325051Y-90167816D01*
X150421557Y-89978412D01*
X150487246Y-89776243D01*
X150520500Y-89566287D01*
X150520500Y-89353713D01*
X150487246Y-89143757D01*
X150421557Y-88941588D01*
X150325051Y-88752184D01*
X150325049Y-88752181D01*
X150325048Y-88752179D01*
X150200109Y-88580213D01*
X150049786Y-88429890D01*
X149877820Y-88304951D01*
X149688414Y-88208444D01*
X149688413Y-88208443D01*
X149688412Y-88208443D01*
X149486243Y-88142754D01*
X149486241Y-88142753D01*
X149486240Y-88142753D01*
X149324957Y-88117208D01*
X149276287Y-88109500D01*
X149063713Y-88109500D01*
X149015042Y-88117208D01*
X148853760Y-88142753D01*
X148651585Y-88208444D01*
X148462179Y-88304951D01*
X148290213Y-88429890D01*
X148139890Y-88580213D01*
X148014951Y-88752179D01*
X147918444Y-88941585D01*
X147852753Y-89143760D01*
X147819500Y-89353713D01*
X77500000Y-89353713D01*
X77500000Y-36716074D01*
X77519685Y-36649035D01*
X77572489Y-36603280D01*
X77641647Y-36593336D01*
X77705203Y-36622361D01*
X77740182Y-36672742D01*
X77751402Y-36702826D01*
X77751407Y-36702835D01*
X77837653Y-36818044D01*
X77837656Y-36818047D01*
X77952865Y-36904293D01*
X77952872Y-36904297D01*
X77997819Y-36921061D01*
X78087718Y-36954591D01*
X78147328Y-36961000D01*
X78852673Y-36960999D01*
X78912284Y-36954591D01*
X78957381Y-36937770D01*
X79027070Y-36932785D01*
X79044049Y-36937771D01*
X79087820Y-36954097D01*
X79147354Y-36960499D01*
X79147371Y-36960500D01*
X79249999Y-36960500D01*
X79749999Y-36960500D01*
X79852627Y-36960500D01*
X79852643Y-36960499D01*
X79912171Y-36954098D01*
X79912178Y-36954096D01*
X80046885Y-36903854D01*
X80046892Y-36903850D01*
X80161986Y-36817690D01*
X80161989Y-36817687D01*
X80248149Y-36702593D01*
X80248153Y-36702586D01*
X80298395Y-36567879D01*
X80298397Y-36567872D01*
X80304798Y-36508344D01*
X80304799Y-36508327D01*
X80304799Y-36405700D01*
X79749999Y-36405700D01*
X79749999Y-36960500D01*
X79249999Y-36960500D01*
X79249999Y-36721443D01*
X79257817Y-36678110D01*
X79259819Y-36672742D01*
X79298892Y-36567983D01*
X79305301Y-36508373D01*
X79305300Y-35803028D01*
X79298892Y-35743417D01*
X79298892Y-35743416D01*
X79257817Y-35633288D01*
X79249999Y-35589955D01*
X79249999Y-35350900D01*
X79147354Y-35350900D01*
X79087826Y-35357301D01*
X79087818Y-35357303D01*
X79044047Y-35373629D01*
X78974355Y-35378613D01*
X78957381Y-35373629D01*
X78912287Y-35356810D01*
X78912286Y-35356809D01*
X78912284Y-35356809D01*
X78852674Y-35350400D01*
X78852664Y-35350400D01*
X78147330Y-35350400D01*
X78147324Y-35350401D01*
X78087717Y-35356808D01*
X77952872Y-35407102D01*
X77952865Y-35407106D01*
X77837656Y-35493352D01*
X77837653Y-35493355D01*
X77751407Y-35608564D01*
X77751403Y-35608571D01*
X77740182Y-35638658D01*
X77698311Y-35694592D01*
X77632846Y-35719009D01*
X77564573Y-35704157D01*
X77515168Y-35654752D01*
X77500000Y-35595325D01*
X77500000Y-34404674D01*
X77519685Y-34337635D01*
X77572489Y-34291880D01*
X77641647Y-34281936D01*
X77705203Y-34310961D01*
X77740182Y-34361342D01*
X77751402Y-34391426D01*
X77751407Y-34391435D01*
X77837653Y-34506644D01*
X77837656Y-34506647D01*
X77952865Y-34592893D01*
X77952872Y-34592897D01*
X77987502Y-34605813D01*
X78087718Y-34643191D01*
X78147328Y-34649600D01*
X78852673Y-34649599D01*
X78912284Y-34643191D01*
X78956667Y-34626636D01*
X79026358Y-34621653D01*
X79043326Y-34626634D01*
X79079943Y-34640291D01*
X79087710Y-34643189D01*
X79087716Y-34643191D01*
X79147326Y-34649600D01*
X79404701Y-34649599D01*
X79471740Y-34669283D01*
X79492382Y-34685918D01*
X79945799Y-35139335D01*
X79979284Y-35200658D01*
X79974300Y-35270350D01*
X79932428Y-35326283D01*
X79866964Y-35350700D01*
X79855948Y-35350799D01*
X79855948Y-35350900D01*
X79749999Y-35350900D01*
X79749999Y-35905700D01*
X80304799Y-35905700D01*
X80304799Y-35799751D01*
X80305924Y-35799751D01*
X80320910Y-35736251D01*
X80371175Y-35687721D01*
X80439698Y-35674070D01*
X80504724Y-35699633D01*
X80516363Y-35709899D01*
X82663181Y-37856717D01*
X82696666Y-37918040D01*
X82699500Y-37944398D01*
X82699500Y-38713330D01*
X82699499Y-38713348D01*
X82699499Y-38879054D01*
X82699498Y-38879054D01*
X82699499Y-38879057D01*
X82740423Y-39031785D01*
X82743341Y-39036839D01*
X82748287Y-39045407D01*
X82748289Y-39045409D01*
X82819477Y-39168712D01*
X82819481Y-39168717D01*
X82938349Y-39287585D01*
X82938355Y-39287590D01*
X83858382Y-40207617D01*
X83891867Y-40268940D01*
X83894701Y-40295297D01*
X83894701Y-40508369D01*
X83894702Y-40508376D01*
X83901109Y-40567983D01*
X83951403Y-40702828D01*
X83951407Y-40702835D01*
X84037653Y-40818044D01*
X84037656Y-40818047D01*
X84152865Y-40904293D01*
X84152872Y-40904297D01*
X84174641Y-40912416D01*
X84287718Y-40954591D01*
X84347328Y-40961000D01*
X85052673Y-40960999D01*
X85112284Y-40954591D01*
X85157381Y-40937770D01*
X85227070Y-40932785D01*
X85244049Y-40937771D01*
X85287820Y-40954097D01*
X85347354Y-40960499D01*
X85347371Y-40960500D01*
X85449999Y-40960500D01*
X85949999Y-40960500D01*
X86052627Y-40960500D01*
X86052643Y-40960499D01*
X86112171Y-40954098D01*
X86112178Y-40954096D01*
X86246885Y-40903854D01*
X86246892Y-40903850D01*
X86361986Y-40817690D01*
X86361989Y-40817687D01*
X86448149Y-40702593D01*
X86448153Y-40702586D01*
X86498395Y-40567879D01*
X86498397Y-40567872D01*
X86504798Y-40508344D01*
X86504799Y-40508327D01*
X86504799Y-40405700D01*
X85949999Y-40405700D01*
X85949999Y-40960500D01*
X85449999Y-40960500D01*
X85449999Y-40721443D01*
X85457817Y-40678110D01*
X85462276Y-40666155D01*
X85498892Y-40567983D01*
X85505301Y-40508373D01*
X85505300Y-39905700D01*
X85949999Y-39905700D01*
X86504799Y-39905700D01*
X86504799Y-39803072D01*
X86504798Y-39803055D01*
X86498397Y-39743527D01*
X86498395Y-39743520D01*
X86448153Y-39608813D01*
X86448149Y-39608806D01*
X86361989Y-39493712D01*
X86361986Y-39493709D01*
X86246892Y-39407549D01*
X86246885Y-39407545D01*
X86112178Y-39357303D01*
X86112171Y-39357301D01*
X86052643Y-39350900D01*
X85949999Y-39350900D01*
X85949999Y-39905700D01*
X85505300Y-39905700D01*
X85505300Y-39803028D01*
X85498892Y-39743417D01*
X85457817Y-39633288D01*
X85449999Y-39589955D01*
X85449999Y-39350900D01*
X85347354Y-39350900D01*
X85287826Y-39357301D01*
X85287818Y-39357303D01*
X85244047Y-39373629D01*
X85174355Y-39378613D01*
X85157381Y-39373629D01*
X85112283Y-39356808D01*
X85112284Y-39356808D01*
X85052684Y-39350401D01*
X85052682Y-39350400D01*
X85052674Y-39350400D01*
X85052666Y-39350400D01*
X84750997Y-39350400D01*
X84683958Y-39330715D01*
X84663316Y-39314081D01*
X84205397Y-38856162D01*
X84171912Y-38794839D01*
X84176896Y-38725147D01*
X84218768Y-38669214D01*
X84284232Y-38644797D01*
X84306328Y-38645191D01*
X84347328Y-38649600D01*
X85052673Y-38649599D01*
X85112284Y-38643191D01*
X85156667Y-38626636D01*
X85226358Y-38621653D01*
X85243326Y-38626634D01*
X85287716Y-38643191D01*
X85347326Y-38649600D01*
X86052671Y-38649599D01*
X86112282Y-38643191D01*
X86247130Y-38592896D01*
X86362345Y-38506646D01*
X86371446Y-38494487D01*
X86375101Y-38491751D01*
X86376999Y-38487597D01*
X86402813Y-38471006D01*
X86427379Y-38452618D01*
X86433008Y-38451602D01*
X86435777Y-38449823D01*
X86470712Y-38444800D01*
X86544203Y-38444800D01*
X86611242Y-38464485D01*
X86631884Y-38481119D01*
X89063181Y-40912416D01*
X89096666Y-40973739D01*
X89099500Y-41000097D01*
X89099500Y-42913330D01*
X89099499Y-42913348D01*
X89099499Y-43079054D01*
X89099498Y-43079054D01*
X89140423Y-43231785D01*
X89157492Y-43261349D01*
X89157491Y-43261349D01*
X89157492Y-43261350D01*
X89219475Y-43368709D01*
X89219481Y-43368717D01*
X89338349Y-43487585D01*
X89338355Y-43487590D01*
X90058382Y-44207618D01*
X90091867Y-44268941D01*
X90094701Y-44295298D01*
X90094701Y-44508369D01*
X90094702Y-44508376D01*
X90101109Y-44567983D01*
X90151403Y-44702828D01*
X90151407Y-44702835D01*
X90237653Y-44818044D01*
X90237656Y-44818047D01*
X90352865Y-44904293D01*
X90352872Y-44904297D01*
X90397819Y-44921061D01*
X90487718Y-44954591D01*
X90547328Y-44961000D01*
X91252673Y-44960999D01*
X91312284Y-44954591D01*
X91357381Y-44937770D01*
X91427070Y-44932785D01*
X91444049Y-44937771D01*
X91487820Y-44954097D01*
X91547354Y-44960499D01*
X91547371Y-44960500D01*
X91649999Y-44960500D01*
X92149999Y-44960500D01*
X92252627Y-44960500D01*
X92252643Y-44960499D01*
X92312171Y-44954098D01*
X92312178Y-44954096D01*
X92446885Y-44903854D01*
X92446892Y-44903850D01*
X92561986Y-44817690D01*
X92561989Y-44817687D01*
X92648149Y-44702593D01*
X92648153Y-44702586D01*
X92698395Y-44567879D01*
X92698397Y-44567872D01*
X92704798Y-44508344D01*
X92704799Y-44508327D01*
X92704799Y-44405700D01*
X92149999Y-44405700D01*
X92149999Y-44960500D01*
X91649999Y-44960500D01*
X91649999Y-44721443D01*
X91657817Y-44678110D01*
X91698892Y-44567983D01*
X91705301Y-44508373D01*
X91705300Y-43803028D01*
X91698892Y-43743417D01*
X91698892Y-43743416D01*
X91657817Y-43633288D01*
X91649999Y-43589955D01*
X91649999Y-43350900D01*
X91547354Y-43350900D01*
X91487826Y-43357301D01*
X91487818Y-43357303D01*
X91444047Y-43373629D01*
X91374355Y-43378613D01*
X91357381Y-43373629D01*
X91312283Y-43356808D01*
X91312284Y-43356808D01*
X91252684Y-43350401D01*
X91252682Y-43350400D01*
X91252674Y-43350400D01*
X91252666Y-43350400D01*
X90950998Y-43350400D01*
X90883959Y-43330715D01*
X90863317Y-43314081D01*
X90405398Y-42856162D01*
X90371913Y-42794839D01*
X90376897Y-42725147D01*
X90418769Y-42669214D01*
X90484233Y-42644797D01*
X90506327Y-42645191D01*
X90547328Y-42649600D01*
X91252673Y-42649599D01*
X91312284Y-42643191D01*
X91356667Y-42626636D01*
X91426358Y-42621653D01*
X91443326Y-42626634D01*
X91487716Y-42643191D01*
X91547326Y-42649600D01*
X91804701Y-42649599D01*
X91871740Y-42669283D01*
X91892382Y-42685918D01*
X92345799Y-43139335D01*
X92379284Y-43200658D01*
X92374300Y-43270350D01*
X92332428Y-43326283D01*
X92266964Y-43350700D01*
X92255948Y-43350799D01*
X92255948Y-43350900D01*
X92149999Y-43350900D01*
X92149999Y-43905700D01*
X92704799Y-43905700D01*
X92704799Y-43799751D01*
X92705924Y-43799751D01*
X92720910Y-43736251D01*
X92771175Y-43687721D01*
X92839698Y-43674070D01*
X92904724Y-43699633D01*
X92916363Y-43709899D01*
X95163181Y-45956717D01*
X95196666Y-46018040D01*
X95199500Y-46044398D01*
X95199500Y-46813330D01*
X95199499Y-46813348D01*
X95199499Y-46979054D01*
X95199498Y-46979054D01*
X95240423Y-47131785D01*
X95261857Y-47168908D01*
X95261858Y-47168912D01*
X95261859Y-47168912D01*
X95284126Y-47207481D01*
X95319479Y-47268714D01*
X95319481Y-47268717D01*
X95438349Y-47387585D01*
X95438355Y-47387590D01*
X96258382Y-48207617D01*
X96291867Y-48268940D01*
X96294701Y-48295297D01*
X96294701Y-48508369D01*
X96294702Y-48508376D01*
X96301109Y-48567983D01*
X96351403Y-48702828D01*
X96351407Y-48702835D01*
X96437653Y-48818044D01*
X96437656Y-48818047D01*
X96552865Y-48904293D01*
X96552872Y-48904297D01*
X96564506Y-48908636D01*
X96687718Y-48954591D01*
X96747328Y-48961000D01*
X97452673Y-48960999D01*
X97512284Y-48954591D01*
X97557381Y-48937770D01*
X97627070Y-48932785D01*
X97644049Y-48937771D01*
X97687820Y-48954097D01*
X97747354Y-48960499D01*
X97747371Y-48960500D01*
X97849999Y-48960500D01*
X98349999Y-48960500D01*
X98452627Y-48960500D01*
X98452643Y-48960499D01*
X98512171Y-48954098D01*
X98512178Y-48954096D01*
X98646885Y-48903854D01*
X98646892Y-48903850D01*
X98761986Y-48817690D01*
X98761989Y-48817687D01*
X98848149Y-48702593D01*
X98848153Y-48702586D01*
X98898395Y-48567879D01*
X98898397Y-48567872D01*
X98904798Y-48508344D01*
X98904799Y-48508327D01*
X98904799Y-48405700D01*
X98349999Y-48405700D01*
X98349999Y-48960500D01*
X97849999Y-48960500D01*
X97849999Y-48721443D01*
X97857817Y-48678110D01*
X97898892Y-48567983D01*
X97905301Y-48508373D01*
X97905300Y-47803028D01*
X97898892Y-47743417D01*
X97898892Y-47743416D01*
X97857817Y-47633288D01*
X97849999Y-47589955D01*
X97849999Y-47350900D01*
X97747354Y-47350900D01*
X97687826Y-47357301D01*
X97687818Y-47357303D01*
X97644047Y-47373629D01*
X97574355Y-47378613D01*
X97557381Y-47373629D01*
X97512283Y-47356808D01*
X97512284Y-47356808D01*
X97452684Y-47350401D01*
X97452682Y-47350400D01*
X97452674Y-47350400D01*
X97452666Y-47350400D01*
X97150997Y-47350400D01*
X97083958Y-47330715D01*
X97063316Y-47314081D01*
X96605397Y-46856162D01*
X96571912Y-46794839D01*
X96576896Y-46725147D01*
X96618768Y-46669214D01*
X96684232Y-46644797D01*
X96706328Y-46645191D01*
X96747328Y-46649600D01*
X97452673Y-46649599D01*
X97512284Y-46643191D01*
X97556667Y-46626636D01*
X97626358Y-46621653D01*
X97643326Y-46626634D01*
X97687716Y-46643191D01*
X97747326Y-46649600D01*
X98004701Y-46649599D01*
X98071740Y-46669283D01*
X98092382Y-46685918D01*
X98545799Y-47139335D01*
X98579284Y-47200658D01*
X98574300Y-47270350D01*
X98532428Y-47326283D01*
X98466964Y-47350700D01*
X98455948Y-47350799D01*
X98455948Y-47350900D01*
X98349999Y-47350900D01*
X98349999Y-47905700D01*
X98904799Y-47905700D01*
X98904799Y-47799751D01*
X98905924Y-47799751D01*
X98920910Y-47736251D01*
X98971175Y-47687721D01*
X99039698Y-47674070D01*
X99104724Y-47699633D01*
X99116363Y-47709899D01*
X101663181Y-50256717D01*
X101696666Y-50318040D01*
X101699500Y-50344398D01*
X101699500Y-51113330D01*
X101699499Y-51113348D01*
X101699499Y-51279054D01*
X101699498Y-51279054D01*
X101740423Y-51431785D01*
X101765709Y-51475580D01*
X101765710Y-51475584D01*
X101819475Y-51568709D01*
X101819481Y-51568717D01*
X101938349Y-51687585D01*
X101938355Y-51687590D01*
X102458382Y-52207617D01*
X102491867Y-52268940D01*
X102494701Y-52295297D01*
X102494701Y-52508369D01*
X102494702Y-52508376D01*
X102501109Y-52567983D01*
X102551403Y-52702828D01*
X102551407Y-52702835D01*
X102637653Y-52818044D01*
X102637656Y-52818047D01*
X102752865Y-52904293D01*
X102752872Y-52904297D01*
X102797819Y-52921061D01*
X102887718Y-52954591D01*
X102947328Y-52961000D01*
X103652673Y-52960999D01*
X103712284Y-52954591D01*
X103757381Y-52937770D01*
X103827070Y-52932785D01*
X103844049Y-52937771D01*
X103887820Y-52954097D01*
X103947354Y-52960499D01*
X103947371Y-52960500D01*
X104049999Y-52960500D01*
X104549999Y-52960500D01*
X104652627Y-52960500D01*
X104652643Y-52960499D01*
X104712171Y-52954098D01*
X104712178Y-52954096D01*
X104846885Y-52903854D01*
X104846892Y-52903850D01*
X104961986Y-52817690D01*
X104961989Y-52817687D01*
X105048149Y-52702593D01*
X105048153Y-52702586D01*
X105098395Y-52567879D01*
X105098397Y-52567872D01*
X105104798Y-52508344D01*
X105104799Y-52508327D01*
X105104799Y-52405700D01*
X104549999Y-52405700D01*
X104549999Y-52960500D01*
X104049999Y-52960500D01*
X104049999Y-52721443D01*
X104057817Y-52678110D01*
X104098892Y-52567983D01*
X104105301Y-52508373D01*
X104105300Y-51803028D01*
X104098892Y-51743417D01*
X104098892Y-51743416D01*
X104057817Y-51633288D01*
X104049999Y-51589955D01*
X104049999Y-51350900D01*
X103947354Y-51350900D01*
X103887826Y-51357301D01*
X103887818Y-51357303D01*
X103844047Y-51373629D01*
X103774355Y-51378613D01*
X103757381Y-51373629D01*
X103712283Y-51356808D01*
X103712284Y-51356808D01*
X103652684Y-51350401D01*
X103652682Y-51350400D01*
X103652674Y-51350400D01*
X103652666Y-51350400D01*
X103350997Y-51350400D01*
X103283958Y-51330715D01*
X103263316Y-51314081D01*
X102936819Y-50987584D01*
X102922115Y-50960656D01*
X102905523Y-50934838D01*
X102904631Y-50928637D01*
X102903334Y-50926261D01*
X102900500Y-50899903D01*
X102900500Y-50773599D01*
X102920185Y-50706560D01*
X102972989Y-50660805D01*
X103024495Y-50649599D01*
X103652673Y-50649599D01*
X103712284Y-50643191D01*
X103756667Y-50626636D01*
X103826358Y-50621653D01*
X103843326Y-50626634D01*
X103887716Y-50643191D01*
X103947326Y-50649600D01*
X104204701Y-50649599D01*
X104271740Y-50669283D01*
X104292382Y-50685918D01*
X104745799Y-51139335D01*
X104779284Y-51200658D01*
X104774300Y-51270350D01*
X104732428Y-51326283D01*
X104666964Y-51350700D01*
X104655948Y-51350799D01*
X104655948Y-51350900D01*
X104549999Y-51350900D01*
X104549999Y-51905700D01*
X105104799Y-51905700D01*
X105104799Y-51799751D01*
X105105924Y-51799751D01*
X105120910Y-51736251D01*
X105171175Y-51687721D01*
X105239698Y-51674070D01*
X105304724Y-51699633D01*
X105316363Y-51709899D01*
X107763181Y-54156717D01*
X107796666Y-54218040D01*
X107799500Y-54244398D01*
X107799500Y-55013330D01*
X107799499Y-55013348D01*
X107799499Y-55179054D01*
X107799498Y-55179054D01*
X107799543Y-55179221D01*
X107840423Y-55331785D01*
X107851171Y-55350401D01*
X107919477Y-55468712D01*
X107919481Y-55468717D01*
X108038349Y-55587585D01*
X108038355Y-55587590D01*
X108658382Y-56207617D01*
X108691867Y-56268940D01*
X108694701Y-56295297D01*
X108694701Y-56508369D01*
X108694702Y-56508376D01*
X108701109Y-56567983D01*
X108751403Y-56702828D01*
X108751407Y-56702835D01*
X108837653Y-56818044D01*
X108837656Y-56818047D01*
X108952865Y-56904293D01*
X108952872Y-56904297D01*
X108997819Y-56921061D01*
X109087718Y-56954591D01*
X109147328Y-56961000D01*
X109852673Y-56960999D01*
X109912284Y-56954591D01*
X109957381Y-56937770D01*
X110027070Y-56932785D01*
X110044049Y-56937771D01*
X110087820Y-56954097D01*
X110147354Y-56960499D01*
X110147371Y-56960500D01*
X110249999Y-56960500D01*
X110749999Y-56960500D01*
X110852627Y-56960500D01*
X110852643Y-56960499D01*
X110912171Y-56954098D01*
X110912178Y-56954096D01*
X111046885Y-56903854D01*
X111046892Y-56903850D01*
X111161986Y-56817690D01*
X111161989Y-56817687D01*
X111248149Y-56702593D01*
X111248153Y-56702586D01*
X111298395Y-56567879D01*
X111298397Y-56567872D01*
X111304798Y-56508344D01*
X111304799Y-56508327D01*
X111304799Y-56405700D01*
X110749999Y-56405700D01*
X110749999Y-56960500D01*
X110249999Y-56960500D01*
X110249999Y-56721443D01*
X110257817Y-56678110D01*
X110298892Y-56567983D01*
X110305301Y-56508373D01*
X110305300Y-55803028D01*
X110298892Y-55743417D01*
X110257817Y-55633288D01*
X110249999Y-55589955D01*
X110249999Y-55350900D01*
X110147354Y-55350900D01*
X110087826Y-55357301D01*
X110087818Y-55357303D01*
X110044047Y-55373629D01*
X109974355Y-55378613D01*
X109957381Y-55373629D01*
X109912283Y-55356808D01*
X109912284Y-55356808D01*
X109852684Y-55350401D01*
X109852682Y-55350400D01*
X109852674Y-55350400D01*
X109852666Y-55350400D01*
X109550997Y-55350400D01*
X109483958Y-55330715D01*
X109463316Y-55314081D01*
X109036819Y-54887584D01*
X109022115Y-54860656D01*
X109005523Y-54834838D01*
X109004631Y-54828637D01*
X109003334Y-54826261D01*
X109000500Y-54799903D01*
X109000500Y-54771859D01*
X109020185Y-54704820D01*
X109072989Y-54659065D01*
X109137757Y-54648570D01*
X109147328Y-54649600D01*
X109852673Y-54649599D01*
X109912284Y-54643191D01*
X109956667Y-54626636D01*
X110026358Y-54621653D01*
X110043326Y-54626634D01*
X110087716Y-54643191D01*
X110147326Y-54649600D01*
X110249002Y-54649599D01*
X110316040Y-54669283D01*
X110336683Y-54685918D01*
X110789984Y-55139219D01*
X110823469Y-55200542D01*
X110818485Y-55270234D01*
X110785728Y-55313991D01*
X110786318Y-55314581D01*
X110782214Y-55318684D01*
X110776613Y-55326167D01*
X110773613Y-55327285D01*
X110749999Y-55350900D01*
X110749999Y-55905700D01*
X111304799Y-55905700D01*
X111341118Y-55869381D01*
X111342490Y-55870753D01*
X111377288Y-55840602D01*
X111446446Y-55830658D01*
X111510002Y-55859683D01*
X111516480Y-55865715D01*
X115007257Y-59356492D01*
X115040742Y-59417815D01*
X115035758Y-59487507D01*
X115018843Y-59518484D01*
X114951404Y-59608569D01*
X114951403Y-59608571D01*
X114901111Y-59743413D01*
X114901110Y-59743417D01*
X114894701Y-59803027D01*
X114894701Y-59803034D01*
X114894701Y-59803035D01*
X114894701Y-60508370D01*
X114894702Y-60508376D01*
X114901109Y-60567983D01*
X114951403Y-60702828D01*
X114951407Y-60702835D01*
X115037653Y-60818044D01*
X115037656Y-60818047D01*
X115152865Y-60904293D01*
X115152872Y-60904297D01*
X115197819Y-60921061D01*
X115287718Y-60954591D01*
X115347328Y-60961000D01*
X116052673Y-60960999D01*
X116112284Y-60954591D01*
X116157381Y-60937770D01*
X116227070Y-60932785D01*
X116244049Y-60937771D01*
X116287820Y-60954097D01*
X116347354Y-60960499D01*
X116347371Y-60960500D01*
X116449999Y-60960500D01*
X116949999Y-60960500D01*
X117052627Y-60960500D01*
X117052643Y-60960499D01*
X117112171Y-60954098D01*
X117112178Y-60954096D01*
X117246885Y-60903854D01*
X117246892Y-60903850D01*
X117361986Y-60817690D01*
X117361989Y-60817687D01*
X117448149Y-60702593D01*
X117448153Y-60702586D01*
X117498395Y-60567879D01*
X117498397Y-60567872D01*
X117504798Y-60508344D01*
X117504799Y-60508327D01*
X117504799Y-60405700D01*
X116949999Y-60405700D01*
X116949999Y-60960500D01*
X116449999Y-60960500D01*
X116449999Y-60721443D01*
X116457817Y-60678110D01*
X116498892Y-60567983D01*
X116505301Y-60508373D01*
X116505300Y-59803028D01*
X116498892Y-59743417D01*
X116498891Y-59743413D01*
X116457817Y-59633288D01*
X116449999Y-59589955D01*
X116449999Y-59350900D01*
X116424501Y-59350900D01*
X116357462Y-59331215D01*
X116311707Y-59278411D01*
X116300501Y-59226900D01*
X116300501Y-59120946D01*
X116300501Y-59120944D01*
X116259578Y-58968217D01*
X116180521Y-58831285D01*
X116180519Y-58831283D01*
X116179684Y-58829836D01*
X116163211Y-58761936D01*
X116186064Y-58695909D01*
X116240985Y-58652718D01*
X116300322Y-58644546D01*
X116347326Y-58649600D01*
X116604701Y-58649599D01*
X116671740Y-58669283D01*
X116692382Y-58685918D01*
X117145799Y-59139335D01*
X117179284Y-59200658D01*
X117174300Y-59270350D01*
X117132428Y-59326283D01*
X117066964Y-59350700D01*
X117055948Y-59350799D01*
X117055948Y-59350900D01*
X116949999Y-59350900D01*
X116949999Y-59905700D01*
X117504799Y-59905700D01*
X117504799Y-59799751D01*
X117505924Y-59799751D01*
X117520910Y-59736251D01*
X117571175Y-59687721D01*
X117639698Y-59674070D01*
X117704724Y-59699633D01*
X117716363Y-59709899D01*
X120263181Y-62256717D01*
X120296666Y-62318040D01*
X120299500Y-62344398D01*
X120299500Y-62913330D01*
X120299499Y-62913348D01*
X120299499Y-63079054D01*
X120299498Y-63079054D01*
X120340423Y-63231785D01*
X120357492Y-63261349D01*
X120357491Y-63261349D01*
X120357492Y-63261350D01*
X120419475Y-63368709D01*
X120419481Y-63368717D01*
X120538349Y-63487585D01*
X120538355Y-63487590D01*
X121058382Y-64007617D01*
X121091867Y-64068940D01*
X121094701Y-64095298D01*
X121094701Y-64508370D01*
X121094702Y-64508376D01*
X121101109Y-64567983D01*
X121151403Y-64702828D01*
X121151407Y-64702835D01*
X121237653Y-64818044D01*
X121237656Y-64818047D01*
X121352865Y-64904293D01*
X121352872Y-64904297D01*
X121397819Y-64921061D01*
X121487718Y-64954591D01*
X121547328Y-64961000D01*
X122252673Y-64960999D01*
X122312284Y-64954591D01*
X122357381Y-64937770D01*
X122427070Y-64932785D01*
X122444049Y-64937771D01*
X122487820Y-64954097D01*
X122547354Y-64960499D01*
X122547371Y-64960500D01*
X122649999Y-64960500D01*
X123149999Y-64960500D01*
X123252627Y-64960500D01*
X123252643Y-64960499D01*
X123312171Y-64954098D01*
X123312178Y-64954096D01*
X123446885Y-64903854D01*
X123446892Y-64903850D01*
X123561986Y-64817690D01*
X123561989Y-64817687D01*
X123648149Y-64702593D01*
X123648153Y-64702586D01*
X123698395Y-64567879D01*
X123698397Y-64567872D01*
X123704798Y-64508344D01*
X123704799Y-64508327D01*
X123704799Y-64405700D01*
X123149999Y-64405700D01*
X123149999Y-64960500D01*
X122649999Y-64960500D01*
X122649999Y-64721443D01*
X122657817Y-64678110D01*
X122698892Y-64567983D01*
X122705301Y-64508373D01*
X122705300Y-63803028D01*
X122698892Y-63743417D01*
X122698892Y-63743416D01*
X122657817Y-63633288D01*
X122649999Y-63589955D01*
X122649999Y-63350900D01*
X122547354Y-63350900D01*
X122487826Y-63357301D01*
X122487818Y-63357303D01*
X122444047Y-63373629D01*
X122374355Y-63378613D01*
X122357381Y-63373629D01*
X122312283Y-63356808D01*
X122312284Y-63356808D01*
X122252684Y-63350401D01*
X122252682Y-63350400D01*
X122252674Y-63350400D01*
X122252666Y-63350400D01*
X122150997Y-63350400D01*
X122083958Y-63330715D01*
X122063316Y-63314081D01*
X121610515Y-62861280D01*
X121577030Y-62799957D01*
X121582014Y-62730265D01*
X121623886Y-62674332D01*
X121689350Y-62649915D01*
X121698173Y-62649599D01*
X122252673Y-62649599D01*
X122312284Y-62643191D01*
X122356667Y-62626636D01*
X122426358Y-62621653D01*
X122443326Y-62626634D01*
X122487716Y-62643191D01*
X122547326Y-62649600D01*
X122804701Y-62649599D01*
X122871740Y-62669283D01*
X122892382Y-62685918D01*
X123345799Y-63139335D01*
X123379284Y-63200658D01*
X123374300Y-63270350D01*
X123332428Y-63326283D01*
X123266964Y-63350700D01*
X123255948Y-63350799D01*
X123255948Y-63350900D01*
X123149999Y-63350900D01*
X123149999Y-63905700D01*
X123704799Y-63905700D01*
X123704799Y-63799751D01*
X123705924Y-63799751D01*
X123720910Y-63736251D01*
X123771175Y-63687721D01*
X123839698Y-63674070D01*
X123904724Y-63699633D01*
X123916363Y-63709899D01*
X127463182Y-67256718D01*
X127477885Y-67283645D01*
X127494478Y-67309464D01*
X127495369Y-67315664D01*
X127496667Y-67318041D01*
X127499501Y-67344399D01*
X127499501Y-67384986D01*
X127479816Y-67452025D01*
X127449815Y-67484250D01*
X127437656Y-67493352D01*
X127437653Y-67493355D01*
X127351407Y-67608564D01*
X127351403Y-67608571D01*
X127301111Y-67743413D01*
X127301110Y-67743417D01*
X127294701Y-67803027D01*
X127294701Y-67803034D01*
X127294701Y-67803035D01*
X127294701Y-68508370D01*
X127294702Y-68508376D01*
X127301109Y-68567983D01*
X127351403Y-68702828D01*
X127351407Y-68702835D01*
X127437653Y-68818044D01*
X127437656Y-68818047D01*
X127552865Y-68904293D01*
X127552872Y-68904297D01*
X127597819Y-68921061D01*
X127687718Y-68954591D01*
X127747328Y-68961000D01*
X128452673Y-68960999D01*
X128512284Y-68954591D01*
X128557381Y-68937770D01*
X128627070Y-68932785D01*
X128644049Y-68937771D01*
X128687820Y-68954097D01*
X128747354Y-68960499D01*
X128747371Y-68960500D01*
X128849999Y-68960500D01*
X129349999Y-68960500D01*
X129452627Y-68960500D01*
X129452643Y-68960499D01*
X129512171Y-68954098D01*
X129512178Y-68954096D01*
X129646885Y-68903854D01*
X129646892Y-68903850D01*
X129761986Y-68817690D01*
X129761989Y-68817687D01*
X129848149Y-68702593D01*
X129848153Y-68702586D01*
X129898395Y-68567879D01*
X129898397Y-68567872D01*
X129904798Y-68508344D01*
X129904799Y-68508327D01*
X129904799Y-68405700D01*
X129349999Y-68405700D01*
X129349999Y-68960500D01*
X128849999Y-68960500D01*
X128849999Y-68721443D01*
X128857817Y-68678110D01*
X128898892Y-68567983D01*
X128905301Y-68508373D01*
X128905300Y-67803028D01*
X128898892Y-67743417D01*
X128898891Y-67743413D01*
X128857817Y-67633288D01*
X128849999Y-67589955D01*
X128849999Y-67350900D01*
X128824501Y-67350900D01*
X128757462Y-67331215D01*
X128711707Y-67278411D01*
X128700501Y-67226900D01*
X128700501Y-66965245D01*
X128699362Y-66960995D01*
X128699361Y-66960992D01*
X128697514Y-66954098D01*
X128689535Y-66924321D01*
X128659578Y-66812518D01*
X128659575Y-66812514D01*
X128657748Y-66805693D01*
X128659411Y-66735843D01*
X128698573Y-66677981D01*
X128762801Y-66650476D01*
X128777507Y-66649599D01*
X129004701Y-66649599D01*
X129071740Y-66669284D01*
X129092382Y-66685918D01*
X129545799Y-67139335D01*
X129579284Y-67200658D01*
X129574300Y-67270350D01*
X129532428Y-67326283D01*
X129466964Y-67350700D01*
X129455948Y-67350799D01*
X129455948Y-67350900D01*
X129349999Y-67350900D01*
X129349999Y-67905700D01*
X129904799Y-67905700D01*
X129904799Y-67799751D01*
X129905924Y-67799751D01*
X129920910Y-67736251D01*
X129971175Y-67687721D01*
X130039698Y-67674070D01*
X130104724Y-67699633D01*
X130116363Y-67709899D01*
X133663182Y-71256718D01*
X133677885Y-71283645D01*
X133694478Y-71309464D01*
X133695369Y-71315664D01*
X133696667Y-71318041D01*
X133699501Y-71344399D01*
X133699501Y-71384986D01*
X133679816Y-71452025D01*
X133649815Y-71484250D01*
X133637656Y-71493352D01*
X133637653Y-71493355D01*
X133551407Y-71608564D01*
X133551403Y-71608571D01*
X133501111Y-71743413D01*
X133501110Y-71743417D01*
X133494701Y-71803027D01*
X133494701Y-71803034D01*
X133494701Y-71803035D01*
X133494701Y-72508370D01*
X133494702Y-72508376D01*
X133501109Y-72567983D01*
X133551403Y-72702828D01*
X133551407Y-72702835D01*
X133637653Y-72818044D01*
X133637656Y-72818047D01*
X133752865Y-72904293D01*
X133752872Y-72904297D01*
X133797819Y-72921061D01*
X133887718Y-72954591D01*
X133947328Y-72961000D01*
X134652673Y-72960999D01*
X134712284Y-72954591D01*
X134757381Y-72937770D01*
X134827070Y-72932785D01*
X134844049Y-72937771D01*
X134887820Y-72954097D01*
X134947354Y-72960499D01*
X134947371Y-72960500D01*
X135049999Y-72960500D01*
X135549999Y-72960500D01*
X135652627Y-72960500D01*
X135652643Y-72960499D01*
X135712171Y-72954098D01*
X135712178Y-72954096D01*
X135846885Y-72903854D01*
X135846892Y-72903850D01*
X135961986Y-72817690D01*
X135961989Y-72817687D01*
X136048149Y-72702593D01*
X136048153Y-72702586D01*
X136098395Y-72567879D01*
X136098397Y-72567872D01*
X136104798Y-72508344D01*
X136104799Y-72508327D01*
X136104799Y-72405700D01*
X135549999Y-72405700D01*
X135549999Y-72960500D01*
X135049999Y-72960500D01*
X135049999Y-72721443D01*
X135057817Y-72678110D01*
X135098892Y-72567983D01*
X135105301Y-72508373D01*
X135105300Y-71803028D01*
X135098892Y-71743417D01*
X135098891Y-71743413D01*
X135057817Y-71633288D01*
X135049999Y-71589955D01*
X135049999Y-71350900D01*
X135024501Y-71350900D01*
X134957462Y-71331215D01*
X134911707Y-71278411D01*
X134900501Y-71226900D01*
X134900501Y-70965245D01*
X134899362Y-70960995D01*
X134899361Y-70960992D01*
X134897514Y-70954098D01*
X134861059Y-70818046D01*
X134861059Y-70818044D01*
X134857749Y-70805690D01*
X134859413Y-70735840D01*
X134898576Y-70677979D01*
X134962805Y-70650476D01*
X134977508Y-70649599D01*
X135204701Y-70649599D01*
X135271740Y-70669284D01*
X135292382Y-70685918D01*
X135745799Y-71139335D01*
X135779284Y-71200658D01*
X135774300Y-71270350D01*
X135732428Y-71326283D01*
X135666964Y-71350700D01*
X135655948Y-71350799D01*
X135655948Y-71350900D01*
X135549999Y-71350900D01*
X135549999Y-71905700D01*
X136104799Y-71905700D01*
X136104799Y-71799751D01*
X136105924Y-71799751D01*
X136120910Y-71736251D01*
X136171175Y-71687721D01*
X136239698Y-71674070D01*
X136304724Y-71699633D01*
X136316363Y-71709899D01*
X139863182Y-75256718D01*
X139877885Y-75283645D01*
X139894478Y-75309464D01*
X139895369Y-75315664D01*
X139896667Y-75318041D01*
X139899501Y-75344399D01*
X139899501Y-75384986D01*
X139879816Y-75452025D01*
X139849815Y-75484250D01*
X139837656Y-75493352D01*
X139837653Y-75493355D01*
X139751407Y-75608564D01*
X139751403Y-75608571D01*
X139701111Y-75743413D01*
X139701110Y-75743417D01*
X139694701Y-75803027D01*
X139694701Y-75803034D01*
X139694701Y-75803035D01*
X139694701Y-76508370D01*
X139694702Y-76508376D01*
X139701109Y-76567983D01*
X139751403Y-76702828D01*
X139751407Y-76702835D01*
X139837653Y-76818044D01*
X139837656Y-76818047D01*
X139952865Y-76904293D01*
X139952872Y-76904297D01*
X139997819Y-76921061D01*
X140087718Y-76954591D01*
X140147328Y-76961000D01*
X140852673Y-76960999D01*
X140912284Y-76954591D01*
X140957381Y-76937770D01*
X141027070Y-76932785D01*
X141044049Y-76937771D01*
X141087820Y-76954097D01*
X141147354Y-76960499D01*
X141147371Y-76960500D01*
X141249999Y-76960500D01*
X141749999Y-76960500D01*
X141852627Y-76960500D01*
X141852643Y-76960499D01*
X141912171Y-76954098D01*
X141912178Y-76954096D01*
X142046885Y-76903854D01*
X142046892Y-76903850D01*
X142161986Y-76817690D01*
X142161989Y-76817687D01*
X142248149Y-76702593D01*
X142248153Y-76702586D01*
X142298395Y-76567879D01*
X142298397Y-76567872D01*
X142304798Y-76508344D01*
X142304799Y-76508327D01*
X142304799Y-76405700D01*
X141749999Y-76405700D01*
X141749999Y-76960500D01*
X141249999Y-76960500D01*
X141249999Y-76721443D01*
X141257817Y-76678110D01*
X141261715Y-76667659D01*
X141298892Y-76567983D01*
X141305301Y-76508373D01*
X141305300Y-75905700D01*
X141749999Y-75905700D01*
X142304799Y-75905700D01*
X142304799Y-75803072D01*
X142304798Y-75803055D01*
X142298397Y-75743527D01*
X142298395Y-75743520D01*
X142248153Y-75608813D01*
X142248149Y-75608806D01*
X142161989Y-75493712D01*
X142161986Y-75493709D01*
X142046892Y-75407549D01*
X142046885Y-75407545D01*
X141912178Y-75357303D01*
X141912171Y-75357301D01*
X141852643Y-75350900D01*
X141749999Y-75350900D01*
X141749999Y-75905700D01*
X141305300Y-75905700D01*
X141305300Y-75803028D01*
X141298892Y-75743417D01*
X141257817Y-75633288D01*
X141249999Y-75589955D01*
X141249999Y-75377151D01*
X141170310Y-75338432D01*
X141164714Y-75333344D01*
X141157462Y-75331215D01*
X141139227Y-75310170D01*
X141118614Y-75291429D01*
X141116657Y-75284123D01*
X141111707Y-75278411D01*
X141100501Y-75226900D01*
X141100501Y-74965247D01*
X141100501Y-74965245D01*
X141059578Y-74812518D01*
X141059575Y-74812514D01*
X141057748Y-74805693D01*
X141059411Y-74735843D01*
X141098573Y-74677980D01*
X141162801Y-74650476D01*
X141177506Y-74649599D01*
X141852671Y-74649599D01*
X141912282Y-74643191D01*
X142047130Y-74592896D01*
X142162345Y-74506646D01*
X142171446Y-74494487D01*
X142227379Y-74452618D01*
X142270712Y-74444800D01*
X142924732Y-74444800D01*
X142924748Y-74444801D01*
X142932344Y-74444801D01*
X143090455Y-74444801D01*
X143090458Y-74444801D01*
X143243186Y-74403877D01*
X143293305Y-74374939D01*
X143380117Y-74324820D01*
X143491921Y-74213016D01*
X143491921Y-74213014D01*
X143502129Y-74202807D01*
X143502131Y-74202804D01*
X146707617Y-70997318D01*
X146768940Y-70963833D01*
X146795298Y-70960999D01*
X147052672Y-70960999D01*
X147052673Y-70960999D01*
X147112284Y-70954591D01*
X147157381Y-70937770D01*
X147227070Y-70932785D01*
X147244049Y-70937771D01*
X147287820Y-70954097D01*
X147347354Y-70960499D01*
X147347371Y-70960500D01*
X147449999Y-70960500D01*
X147949999Y-70960500D01*
X148052627Y-70960500D01*
X148052643Y-70960499D01*
X148112171Y-70954098D01*
X148112178Y-70954096D01*
X148246885Y-70903854D01*
X148246892Y-70903850D01*
X148361986Y-70817690D01*
X148361989Y-70817687D01*
X148448149Y-70702593D01*
X148448153Y-70702586D01*
X148498395Y-70567879D01*
X148498397Y-70567872D01*
X148504798Y-70508344D01*
X148504799Y-70508327D01*
X148504799Y-70405700D01*
X147949999Y-70405700D01*
X147949999Y-70960500D01*
X147449999Y-70960500D01*
X147449999Y-70721443D01*
X147457817Y-70678110D01*
X147457866Y-70677979D01*
X147498892Y-70567983D01*
X147505301Y-70508373D01*
X147505300Y-69905700D01*
X147949999Y-69905700D01*
X148504799Y-69905700D01*
X148504799Y-69803072D01*
X148504798Y-69803055D01*
X148498397Y-69743527D01*
X148498395Y-69743520D01*
X148448153Y-69608813D01*
X148448149Y-69608806D01*
X148361989Y-69493712D01*
X148361986Y-69493709D01*
X148246892Y-69407549D01*
X148246885Y-69407545D01*
X148112178Y-69357303D01*
X148112171Y-69357301D01*
X148052643Y-69350900D01*
X147949999Y-69350900D01*
X147949999Y-69905700D01*
X147505300Y-69905700D01*
X147505300Y-69803028D01*
X147498892Y-69743417D01*
X147457817Y-69633288D01*
X147449999Y-69589955D01*
X147449999Y-69350900D01*
X147347354Y-69350900D01*
X147287826Y-69357301D01*
X147287818Y-69357303D01*
X147244047Y-69373629D01*
X147174355Y-69378613D01*
X147157381Y-69373629D01*
X147112287Y-69356810D01*
X147112286Y-69356809D01*
X147112284Y-69356809D01*
X147052674Y-69350400D01*
X147052664Y-69350400D01*
X146347330Y-69350400D01*
X146347324Y-69350401D01*
X146287717Y-69356808D01*
X146152872Y-69407102D01*
X146152865Y-69407106D01*
X146037656Y-69493352D01*
X146037653Y-69493355D01*
X145951407Y-69608564D01*
X145951403Y-69608571D01*
X145901109Y-69743417D01*
X145894702Y-69803016D01*
X145894702Y-69803023D01*
X145894701Y-69803035D01*
X145894701Y-70060402D01*
X145875016Y-70127441D01*
X145858382Y-70148083D01*
X142798985Y-73207481D01*
X142737662Y-73240966D01*
X142711304Y-73243800D01*
X142270712Y-73243800D01*
X142203673Y-73224115D01*
X142171447Y-73194113D01*
X142162345Y-73181954D01*
X142139508Y-73164858D01*
X142047134Y-73095706D01*
X142047129Y-73095703D01*
X141978843Y-73070234D01*
X141922910Y-73028362D01*
X141898493Y-72962898D01*
X141913345Y-72894625D01*
X141934493Y-72866374D01*
X146136655Y-68664211D01*
X146197976Y-68630728D01*
X146267665Y-68635711D01*
X146287718Y-68643191D01*
X146347328Y-68649600D01*
X147052673Y-68649599D01*
X147112284Y-68643191D01*
X147156667Y-68626636D01*
X147226358Y-68621653D01*
X147243326Y-68626634D01*
X147287716Y-68643191D01*
X147347326Y-68649600D01*
X148052671Y-68649599D01*
X148112282Y-68643191D01*
X148247130Y-68592896D01*
X148362345Y-68506646D01*
X148371446Y-68494487D01*
X148427379Y-68452618D01*
X148470712Y-68444800D01*
X151124732Y-68444800D01*
X151124748Y-68444801D01*
X151132344Y-68444801D01*
X151290455Y-68444801D01*
X151290458Y-68444801D01*
X151443186Y-68403877D01*
X151507332Y-68366842D01*
X151580117Y-68324820D01*
X151691921Y-68213016D01*
X151691921Y-68213014D01*
X151702125Y-68202811D01*
X151702129Y-68202806D01*
X152907617Y-66997318D01*
X152968940Y-66963833D01*
X152995298Y-66960999D01*
X153252672Y-66960999D01*
X153252673Y-66960999D01*
X153312284Y-66954591D01*
X153357381Y-66937770D01*
X153427070Y-66932785D01*
X153444049Y-66937771D01*
X153487820Y-66954097D01*
X153547354Y-66960499D01*
X153547371Y-66960500D01*
X153649999Y-66960500D01*
X154149999Y-66960500D01*
X154252627Y-66960500D01*
X154252643Y-66960499D01*
X154312171Y-66954098D01*
X154312178Y-66954096D01*
X154446885Y-66903854D01*
X154446892Y-66903850D01*
X154561986Y-66817690D01*
X154561989Y-66817687D01*
X154648149Y-66702593D01*
X154648153Y-66702586D01*
X154698395Y-66567879D01*
X154698397Y-66567872D01*
X154704798Y-66508344D01*
X154704799Y-66508327D01*
X154704799Y-66405700D01*
X154149999Y-66405700D01*
X154149999Y-66960500D01*
X153649999Y-66960500D01*
X153649999Y-66721443D01*
X153657817Y-66678110D01*
X153657865Y-66677981D01*
X153698892Y-66567983D01*
X153705301Y-66508373D01*
X153705300Y-65905700D01*
X154149999Y-65905700D01*
X154704799Y-65905700D01*
X154704799Y-65803072D01*
X154704798Y-65803055D01*
X154698397Y-65743527D01*
X154698395Y-65743520D01*
X154648153Y-65608813D01*
X154648149Y-65608806D01*
X154561989Y-65493712D01*
X154561986Y-65493709D01*
X154446892Y-65407549D01*
X154446885Y-65407545D01*
X154312178Y-65357303D01*
X154312171Y-65357301D01*
X154252643Y-65350900D01*
X154149999Y-65350900D01*
X154149999Y-65905700D01*
X153705300Y-65905700D01*
X153705300Y-65803028D01*
X153698892Y-65743417D01*
X153698892Y-65743416D01*
X153657817Y-65633288D01*
X153649999Y-65589955D01*
X153649999Y-65350900D01*
X153547354Y-65350900D01*
X153487826Y-65357301D01*
X153487818Y-65357303D01*
X153444047Y-65373629D01*
X153374355Y-65378613D01*
X153357381Y-65373629D01*
X153312287Y-65356810D01*
X153312286Y-65356809D01*
X153312284Y-65356809D01*
X153252674Y-65350400D01*
X153252664Y-65350400D01*
X152547330Y-65350400D01*
X152547324Y-65350401D01*
X152487717Y-65356808D01*
X152352872Y-65407102D01*
X152352865Y-65407106D01*
X152237656Y-65493352D01*
X152237653Y-65493355D01*
X152151407Y-65608564D01*
X152151403Y-65608571D01*
X152101109Y-65743417D01*
X152094702Y-65803016D01*
X152094702Y-65803023D01*
X152094701Y-65803035D01*
X152094701Y-66060402D01*
X152075016Y-66127441D01*
X152058382Y-66148083D01*
X150998985Y-67207481D01*
X150937662Y-67240966D01*
X150911304Y-67243800D01*
X148470712Y-67243800D01*
X148403673Y-67224115D01*
X148371447Y-67194113D01*
X148362345Y-67181954D01*
X148339508Y-67164858D01*
X148247134Y-67095706D01*
X148247127Y-67095702D01*
X148112281Y-67045408D01*
X148112282Y-67045408D01*
X148049371Y-67038645D01*
X148049504Y-67037403D01*
X147988384Y-67015806D01*
X147945550Y-66960607D01*
X147939358Y-66891012D01*
X147971775Y-66829118D01*
X147973224Y-66827643D01*
X150169749Y-64631119D01*
X150231072Y-64597634D01*
X150257430Y-64594800D01*
X152335603Y-64594800D01*
X152378936Y-64602618D01*
X152487718Y-64643191D01*
X152547328Y-64649600D01*
X153252673Y-64649599D01*
X153312284Y-64643191D01*
X153356667Y-64626636D01*
X153426358Y-64621653D01*
X153443326Y-64626634D01*
X153479943Y-64640291D01*
X153487710Y-64643189D01*
X153487716Y-64643191D01*
X153547326Y-64649600D01*
X154252671Y-64649599D01*
X154312282Y-64643191D01*
X154447130Y-64592896D01*
X154562345Y-64506646D01*
X154571446Y-64494487D01*
X154627379Y-64452618D01*
X154670712Y-64444800D01*
X157324732Y-64444800D01*
X157324748Y-64444801D01*
X157332344Y-64444801D01*
X157490455Y-64444801D01*
X157490458Y-64444801D01*
X157643186Y-64403877D01*
X157707332Y-64366842D01*
X157780117Y-64324820D01*
X157891921Y-64213016D01*
X157891921Y-64213014D01*
X157902125Y-64202811D01*
X157902129Y-64202806D01*
X159107617Y-62997318D01*
X159168940Y-62963833D01*
X159195298Y-62960999D01*
X159452672Y-62960999D01*
X159452673Y-62960999D01*
X159512284Y-62954591D01*
X159557381Y-62937770D01*
X159627070Y-62932785D01*
X159644049Y-62937771D01*
X159687820Y-62954097D01*
X159747354Y-62960499D01*
X159747371Y-62960500D01*
X159849999Y-62960500D01*
X160349999Y-62960500D01*
X160452627Y-62960500D01*
X160452643Y-62960499D01*
X160512171Y-62954098D01*
X160512178Y-62954096D01*
X160646885Y-62903854D01*
X160646892Y-62903850D01*
X160761986Y-62817690D01*
X160761989Y-62817687D01*
X160848149Y-62702593D01*
X160848153Y-62702586D01*
X160898395Y-62567879D01*
X160898397Y-62567872D01*
X160904798Y-62508344D01*
X160904799Y-62508327D01*
X160904799Y-62405700D01*
X160349999Y-62405700D01*
X160349999Y-62960500D01*
X159849999Y-62960500D01*
X159849999Y-62721443D01*
X159857817Y-62678110D01*
X159859226Y-62674332D01*
X159898892Y-62567983D01*
X159905301Y-62508373D01*
X159905300Y-61905700D01*
X160349999Y-61905700D01*
X160904799Y-61905700D01*
X160904799Y-61803072D01*
X160904798Y-61803055D01*
X160898397Y-61743527D01*
X160898395Y-61743520D01*
X160848153Y-61608813D01*
X160848149Y-61608806D01*
X160761989Y-61493712D01*
X160761986Y-61493709D01*
X160646892Y-61407549D01*
X160646885Y-61407545D01*
X160512178Y-61357303D01*
X160512171Y-61357301D01*
X160452643Y-61350900D01*
X160349999Y-61350900D01*
X160349999Y-61905700D01*
X159905300Y-61905700D01*
X159905300Y-61803028D01*
X159898892Y-61743417D01*
X159857817Y-61633288D01*
X159849999Y-61589955D01*
X159849999Y-61350900D01*
X159747354Y-61350900D01*
X159687826Y-61357301D01*
X159687818Y-61357303D01*
X159644047Y-61373629D01*
X159574355Y-61378613D01*
X159557381Y-61373629D01*
X159512287Y-61356810D01*
X159512286Y-61356809D01*
X159512284Y-61356809D01*
X159452674Y-61350400D01*
X159452664Y-61350400D01*
X158747330Y-61350400D01*
X158747324Y-61350401D01*
X158687717Y-61356808D01*
X158552872Y-61407102D01*
X158552865Y-61407106D01*
X158437656Y-61493352D01*
X158437653Y-61493355D01*
X158351407Y-61608564D01*
X158351403Y-61608571D01*
X158301109Y-61743417D01*
X158294702Y-61803016D01*
X158294702Y-61803023D01*
X158294701Y-61803035D01*
X158294701Y-62060402D01*
X158275016Y-62127441D01*
X158258382Y-62148083D01*
X157198985Y-63207481D01*
X157137662Y-63240966D01*
X157111304Y-63243800D01*
X154670712Y-63243800D01*
X154603673Y-63224115D01*
X154594610Y-63217701D01*
X154581443Y-63207466D01*
X154562345Y-63181954D01*
X154447130Y-63095704D01*
X154428940Y-63088919D01*
X154413955Y-63077271D01*
X154404176Y-63063700D01*
X154390789Y-63053679D01*
X154384174Y-63035943D01*
X154373107Y-63020585D01*
X154372217Y-63003884D01*
X154366373Y-62988215D01*
X154370397Y-62969717D01*
X154369390Y-62950815D01*
X154377669Y-62936285D01*
X154381225Y-62919942D01*
X154402372Y-62891693D01*
X156662948Y-60631119D01*
X156724271Y-60597634D01*
X156750629Y-60594800D01*
X158535603Y-60594800D01*
X158578936Y-60602618D01*
X158687718Y-60643191D01*
X158747328Y-60649600D01*
X159452673Y-60649599D01*
X159512284Y-60643191D01*
X159556667Y-60626636D01*
X159626358Y-60621653D01*
X159643326Y-60626634D01*
X159679943Y-60640291D01*
X159687710Y-60643189D01*
X159687716Y-60643191D01*
X159747326Y-60649600D01*
X160452671Y-60649599D01*
X160512282Y-60643191D01*
X160647130Y-60592896D01*
X160762345Y-60506646D01*
X160771446Y-60494487D01*
X160827379Y-60452618D01*
X160870712Y-60444800D01*
X163524732Y-60444800D01*
X163524748Y-60444801D01*
X163532344Y-60444801D01*
X163690455Y-60444801D01*
X163690458Y-60444801D01*
X163843186Y-60403877D01*
X163907332Y-60366842D01*
X163980117Y-60324820D01*
X164091921Y-60213016D01*
X164091921Y-60213014D01*
X164102125Y-60202811D01*
X164102129Y-60202806D01*
X165307617Y-58997318D01*
X165368940Y-58963833D01*
X165395298Y-58960999D01*
X165652672Y-58960999D01*
X165652673Y-58960999D01*
X165712284Y-58954591D01*
X165757381Y-58937770D01*
X165827070Y-58932785D01*
X165844049Y-58937771D01*
X165887820Y-58954097D01*
X165947354Y-58960499D01*
X165947371Y-58960500D01*
X166049999Y-58960500D01*
X166549999Y-58960500D01*
X166652627Y-58960500D01*
X166652643Y-58960499D01*
X166712171Y-58954098D01*
X166712178Y-58954096D01*
X166846885Y-58903854D01*
X166846892Y-58903850D01*
X166961986Y-58817690D01*
X166961989Y-58817687D01*
X167048149Y-58702593D01*
X167048153Y-58702586D01*
X167098395Y-58567879D01*
X167098397Y-58567872D01*
X167104798Y-58508344D01*
X167104799Y-58508327D01*
X167104799Y-58405700D01*
X166549999Y-58405700D01*
X166549999Y-58960500D01*
X166049999Y-58960500D01*
X166049999Y-58721443D01*
X166057817Y-58678110D01*
X166098892Y-58567983D01*
X166105301Y-58508373D01*
X166105300Y-57905700D01*
X166549999Y-57905700D01*
X167104799Y-57905700D01*
X167104799Y-57803072D01*
X167104798Y-57803055D01*
X167098397Y-57743527D01*
X167098395Y-57743520D01*
X167048153Y-57608813D01*
X167048149Y-57608806D01*
X166961989Y-57493712D01*
X166961986Y-57493709D01*
X166846892Y-57407549D01*
X166846885Y-57407545D01*
X166712178Y-57357303D01*
X166712171Y-57357301D01*
X166652643Y-57350900D01*
X166549999Y-57350900D01*
X166549999Y-57905700D01*
X166105300Y-57905700D01*
X166105300Y-57803028D01*
X166098892Y-57743417D01*
X166057817Y-57633288D01*
X166049999Y-57589955D01*
X166049999Y-57350900D01*
X165947354Y-57350900D01*
X165887826Y-57357301D01*
X165887818Y-57357303D01*
X165844047Y-57373629D01*
X165774355Y-57378613D01*
X165757381Y-57373629D01*
X165712287Y-57356810D01*
X165712286Y-57356809D01*
X165712284Y-57356809D01*
X165652674Y-57350400D01*
X165652664Y-57350400D01*
X164947330Y-57350400D01*
X164947324Y-57350401D01*
X164887717Y-57356808D01*
X164752872Y-57407102D01*
X164752865Y-57407106D01*
X164637656Y-57493352D01*
X164637653Y-57493355D01*
X164551407Y-57608564D01*
X164551403Y-57608571D01*
X164501109Y-57743417D01*
X164494702Y-57803016D01*
X164494702Y-57803023D01*
X164494701Y-57803035D01*
X164494701Y-58060402D01*
X164475016Y-58127441D01*
X164458382Y-58148083D01*
X163398985Y-59207481D01*
X163337662Y-59240966D01*
X163311304Y-59243800D01*
X160870712Y-59243800D01*
X160803673Y-59224115D01*
X160794610Y-59217701D01*
X160781443Y-59207466D01*
X160762345Y-59181954D01*
X160647130Y-59095704D01*
X160628940Y-59088919D01*
X160613955Y-59077271D01*
X160604176Y-59063700D01*
X160590789Y-59053679D01*
X160584174Y-59035943D01*
X160573107Y-59020585D01*
X160572217Y-59003884D01*
X160566373Y-58988215D01*
X160570397Y-58969717D01*
X160569390Y-58950815D01*
X160577669Y-58936285D01*
X160581225Y-58919942D01*
X160602372Y-58891693D01*
X162862948Y-56631119D01*
X162924271Y-56597634D01*
X162950629Y-56594800D01*
X164735603Y-56594800D01*
X164778936Y-56602618D01*
X164887718Y-56643191D01*
X164947328Y-56649600D01*
X165652673Y-56649599D01*
X165712284Y-56643191D01*
X165756667Y-56626636D01*
X165826358Y-56621653D01*
X165843326Y-56626634D01*
X165879943Y-56640291D01*
X165887710Y-56643189D01*
X165887716Y-56643191D01*
X165947326Y-56649600D01*
X166652671Y-56649599D01*
X166712282Y-56643191D01*
X166847130Y-56592896D01*
X166962345Y-56506646D01*
X166971446Y-56494487D01*
X167027379Y-56452618D01*
X167070712Y-56444800D01*
X169724732Y-56444800D01*
X169724748Y-56444801D01*
X169732344Y-56444801D01*
X169890455Y-56444801D01*
X169890458Y-56444801D01*
X170043186Y-56403877D01*
X170107332Y-56366842D01*
X170180117Y-56324820D01*
X170291921Y-56213016D01*
X170291921Y-56213014D01*
X170302125Y-56202811D01*
X170302129Y-56202806D01*
X171507617Y-54997318D01*
X171568940Y-54963833D01*
X171595298Y-54960999D01*
X171852672Y-54960999D01*
X171852673Y-54960999D01*
X171912284Y-54954591D01*
X171957381Y-54937770D01*
X172027070Y-54932785D01*
X172044049Y-54937771D01*
X172087820Y-54954097D01*
X172147354Y-54960499D01*
X172147371Y-54960500D01*
X172249999Y-54960500D01*
X172749999Y-54960500D01*
X172852627Y-54960500D01*
X172852643Y-54960499D01*
X172912171Y-54954098D01*
X172912178Y-54954096D01*
X173046885Y-54903854D01*
X173046892Y-54903850D01*
X173161986Y-54817690D01*
X173161989Y-54817687D01*
X173248149Y-54702593D01*
X173248153Y-54702586D01*
X173298395Y-54567879D01*
X173298397Y-54567872D01*
X173304798Y-54508344D01*
X173304799Y-54508327D01*
X173304799Y-54405700D01*
X172749999Y-54405700D01*
X172749999Y-54960500D01*
X172249999Y-54960500D01*
X172249999Y-54721443D01*
X172257817Y-54678110D01*
X172298892Y-54567983D01*
X172305301Y-54508373D01*
X172305300Y-53905700D01*
X172749999Y-53905700D01*
X173304799Y-53905700D01*
X173304799Y-53803072D01*
X173304798Y-53803055D01*
X173298397Y-53743527D01*
X173298395Y-53743520D01*
X173248153Y-53608813D01*
X173248149Y-53608806D01*
X173161989Y-53493712D01*
X173161986Y-53493709D01*
X173046892Y-53407549D01*
X173046885Y-53407545D01*
X172912178Y-53357303D01*
X172912171Y-53357301D01*
X172852643Y-53350900D01*
X172749999Y-53350900D01*
X172749999Y-53905700D01*
X172305300Y-53905700D01*
X172305300Y-53803028D01*
X172298892Y-53743417D01*
X172257817Y-53633288D01*
X172249999Y-53589955D01*
X172249999Y-53350900D01*
X172147354Y-53350900D01*
X172087826Y-53357301D01*
X172087818Y-53357303D01*
X172044047Y-53373629D01*
X171974355Y-53378613D01*
X171957381Y-53373629D01*
X171912287Y-53356810D01*
X171912286Y-53356809D01*
X171912284Y-53356809D01*
X171852674Y-53350400D01*
X171852664Y-53350400D01*
X171147330Y-53350400D01*
X171147324Y-53350401D01*
X171087717Y-53356808D01*
X170952872Y-53407102D01*
X170952865Y-53407106D01*
X170837656Y-53493352D01*
X170837653Y-53493355D01*
X170751407Y-53608564D01*
X170751403Y-53608571D01*
X170701109Y-53743417D01*
X170694702Y-53803016D01*
X170694702Y-53803023D01*
X170694701Y-53803035D01*
X170694701Y-54060402D01*
X170675016Y-54127441D01*
X170658382Y-54148083D01*
X169598985Y-55207481D01*
X169537662Y-55240966D01*
X169511304Y-55243800D01*
X167070712Y-55243800D01*
X167003673Y-55224115D01*
X166994610Y-55217701D01*
X166981443Y-55207466D01*
X166962345Y-55181954D01*
X166847130Y-55095704D01*
X166828940Y-55088919D01*
X166813955Y-55077271D01*
X166804176Y-55063700D01*
X166790789Y-55053679D01*
X166784174Y-55035943D01*
X166773107Y-55020585D01*
X166772217Y-55003884D01*
X166766373Y-54988215D01*
X166770397Y-54969717D01*
X166769390Y-54950815D01*
X166777669Y-54936285D01*
X166781225Y-54919942D01*
X166802372Y-54891693D01*
X169062948Y-52631119D01*
X169124271Y-52597634D01*
X169150629Y-52594800D01*
X170935603Y-52594800D01*
X170978936Y-52602618D01*
X171087718Y-52643191D01*
X171147328Y-52649600D01*
X171852673Y-52649599D01*
X171912284Y-52643191D01*
X171956667Y-52626636D01*
X172026358Y-52621653D01*
X172043326Y-52626634D01*
X172079943Y-52640291D01*
X172087710Y-52643189D01*
X172087716Y-52643191D01*
X172147326Y-52649600D01*
X172852671Y-52649599D01*
X172912282Y-52643191D01*
X173047130Y-52592896D01*
X173162345Y-52506646D01*
X173171446Y-52494487D01*
X173227379Y-52452618D01*
X173270712Y-52444800D01*
X175924732Y-52444800D01*
X175924748Y-52444801D01*
X175932344Y-52444801D01*
X176090455Y-52444801D01*
X176090458Y-52444801D01*
X176243186Y-52403877D01*
X176307332Y-52366842D01*
X176380117Y-52324820D01*
X176491921Y-52213016D01*
X176491921Y-52213014D01*
X176502125Y-52202811D01*
X176502129Y-52202806D01*
X177707617Y-50997318D01*
X177768940Y-50963833D01*
X177795298Y-50960999D01*
X178052672Y-50960999D01*
X178052673Y-50960999D01*
X178112284Y-50954591D01*
X178157381Y-50937770D01*
X178227070Y-50932785D01*
X178244049Y-50937771D01*
X178287820Y-50954097D01*
X178347354Y-50960499D01*
X178347371Y-50960500D01*
X178449999Y-50960500D01*
X178949999Y-50960500D01*
X179052627Y-50960500D01*
X179052643Y-50960499D01*
X179112171Y-50954098D01*
X179112178Y-50954096D01*
X179246885Y-50903854D01*
X179246892Y-50903850D01*
X179361986Y-50817690D01*
X179361989Y-50817687D01*
X179448149Y-50702593D01*
X179448153Y-50702586D01*
X179498395Y-50567879D01*
X179498397Y-50567872D01*
X179504798Y-50508344D01*
X179504799Y-50508327D01*
X179504799Y-50405700D01*
X178949999Y-50405700D01*
X178949999Y-50960500D01*
X178449999Y-50960500D01*
X178449999Y-50721443D01*
X178457817Y-50678110D01*
X178498892Y-50567983D01*
X178505301Y-50508373D01*
X178505300Y-49905700D01*
X178949999Y-49905700D01*
X179504799Y-49905700D01*
X179504799Y-49803072D01*
X179504798Y-49803055D01*
X179498397Y-49743527D01*
X179498395Y-49743520D01*
X179448153Y-49608813D01*
X179448149Y-49608806D01*
X179361989Y-49493712D01*
X179361986Y-49493709D01*
X179246892Y-49407549D01*
X179246885Y-49407545D01*
X179112178Y-49357303D01*
X179112171Y-49357301D01*
X179052643Y-49350900D01*
X178949999Y-49350900D01*
X178949999Y-49905700D01*
X178505300Y-49905700D01*
X178505300Y-49803028D01*
X178498892Y-49743417D01*
X178457817Y-49633288D01*
X178449999Y-49589955D01*
X178449999Y-49350900D01*
X178347354Y-49350900D01*
X178287826Y-49357301D01*
X178287818Y-49357303D01*
X178244047Y-49373629D01*
X178174355Y-49378613D01*
X178157381Y-49373629D01*
X178112287Y-49356810D01*
X178112286Y-49356809D01*
X178112284Y-49356809D01*
X178052674Y-49350400D01*
X178052664Y-49350400D01*
X177347330Y-49350400D01*
X177347324Y-49350401D01*
X177287717Y-49356808D01*
X177152872Y-49407102D01*
X177152865Y-49407106D01*
X177037656Y-49493352D01*
X177037653Y-49493355D01*
X176951407Y-49608564D01*
X176951403Y-49608571D01*
X176901109Y-49743417D01*
X176894702Y-49803016D01*
X176894702Y-49803023D01*
X176894701Y-49803035D01*
X176894701Y-50060402D01*
X176875016Y-50127441D01*
X176858382Y-50148083D01*
X175798985Y-51207481D01*
X175737662Y-51240966D01*
X175711304Y-51243800D01*
X173270712Y-51243800D01*
X173203673Y-51224115D01*
X173188196Y-51212359D01*
X173178907Y-51204077D01*
X173162345Y-51181954D01*
X173110844Y-51143400D01*
X173106893Y-51139878D01*
X173091112Y-51114544D01*
X173073227Y-51090652D01*
X173072837Y-51085207D01*
X173069951Y-51080573D01*
X173070371Y-51050727D01*
X173068243Y-51020961D01*
X173070859Y-51016170D01*
X173070936Y-51010711D01*
X173087425Y-50985830D01*
X173101726Y-50959640D01*
X176124548Y-47936819D01*
X176185871Y-47903334D01*
X176212229Y-47900500D01*
X176770702Y-47900500D01*
X176837741Y-47920185D01*
X176883496Y-47972989D01*
X176894702Y-48024500D01*
X176894702Y-48196976D01*
X176901109Y-48256583D01*
X176951403Y-48391428D01*
X176951407Y-48391435D01*
X177037653Y-48506644D01*
X177037656Y-48506647D01*
X177152865Y-48592893D01*
X177152872Y-48592897D01*
X177197819Y-48609661D01*
X177287718Y-48643191D01*
X177347328Y-48649600D01*
X178052673Y-48649599D01*
X178112284Y-48643191D01*
X178156667Y-48626636D01*
X178226358Y-48621653D01*
X178243326Y-48626634D01*
X178279943Y-48640291D01*
X178287710Y-48643189D01*
X178287716Y-48643191D01*
X178347326Y-48649600D01*
X179052671Y-48649599D01*
X179112282Y-48643191D01*
X179247130Y-48592896D01*
X179362345Y-48506646D01*
X179371446Y-48494487D01*
X179427379Y-48452618D01*
X179470712Y-48444800D01*
X182124732Y-48444800D01*
X182124748Y-48444801D01*
X182132344Y-48444801D01*
X182290455Y-48444801D01*
X182290458Y-48444801D01*
X182443186Y-48403877D01*
X182507332Y-48366842D01*
X182580117Y-48324820D01*
X182691921Y-48213016D01*
X182691921Y-48213014D01*
X182702125Y-48202811D01*
X182702129Y-48202806D01*
X183907617Y-46997318D01*
X183968940Y-46963833D01*
X183995298Y-46960999D01*
X184252672Y-46960999D01*
X184252673Y-46960999D01*
X184312284Y-46954591D01*
X184357381Y-46937770D01*
X184427070Y-46932785D01*
X184444049Y-46937771D01*
X184487820Y-46954097D01*
X184547354Y-46960499D01*
X184547371Y-46960500D01*
X184649999Y-46960500D01*
X185149999Y-46960500D01*
X185252627Y-46960500D01*
X185252643Y-46960499D01*
X185312171Y-46954098D01*
X185312178Y-46954096D01*
X185446885Y-46903854D01*
X185446892Y-46903850D01*
X185561986Y-46817690D01*
X185561989Y-46817687D01*
X185648149Y-46702593D01*
X185648153Y-46702586D01*
X185698395Y-46567879D01*
X185698397Y-46567872D01*
X185704798Y-46508344D01*
X185704799Y-46508327D01*
X185704799Y-46405700D01*
X185149999Y-46405700D01*
X185149999Y-46960500D01*
X184649999Y-46960500D01*
X184649999Y-46721443D01*
X184657817Y-46678110D01*
X184698892Y-46567983D01*
X184705301Y-46508373D01*
X184705300Y-45905700D01*
X185149999Y-45905700D01*
X185704799Y-45905700D01*
X185704799Y-45803072D01*
X185704798Y-45803055D01*
X185698397Y-45743527D01*
X185698395Y-45743520D01*
X185648153Y-45608813D01*
X185648149Y-45608806D01*
X185561989Y-45493712D01*
X185561986Y-45493709D01*
X185446892Y-45407549D01*
X185446885Y-45407545D01*
X185312178Y-45357303D01*
X185312171Y-45357301D01*
X185252643Y-45350900D01*
X185149999Y-45350900D01*
X185149999Y-45905700D01*
X184705300Y-45905700D01*
X184705300Y-45803028D01*
X184698892Y-45743417D01*
X184657817Y-45633288D01*
X184649999Y-45589955D01*
X184649999Y-45350900D01*
X184547354Y-45350900D01*
X184487826Y-45357301D01*
X184487818Y-45357303D01*
X184444047Y-45373629D01*
X184374355Y-45378613D01*
X184357381Y-45373629D01*
X184312287Y-45356810D01*
X184312286Y-45356809D01*
X184312284Y-45356809D01*
X184252674Y-45350400D01*
X184252664Y-45350400D01*
X183547330Y-45350400D01*
X183547324Y-45350401D01*
X183487717Y-45356808D01*
X183352872Y-45407102D01*
X183352865Y-45407106D01*
X183237656Y-45493352D01*
X183237653Y-45493355D01*
X183151407Y-45608564D01*
X183151403Y-45608571D01*
X183101109Y-45743417D01*
X183094702Y-45803016D01*
X183094702Y-45803023D01*
X183094701Y-45803035D01*
X183094701Y-46060402D01*
X183075016Y-46127441D01*
X183058382Y-46148083D01*
X181998985Y-47207481D01*
X181937662Y-47240966D01*
X181911304Y-47243800D01*
X179470712Y-47243800D01*
X179403673Y-47224115D01*
X179371447Y-47194113D01*
X179362345Y-47181954D01*
X179339508Y-47164858D01*
X179247134Y-47095706D01*
X179247128Y-47095703D01*
X179222907Y-47086669D01*
X179166974Y-47044797D01*
X179142557Y-46979332D01*
X179157409Y-46911060D01*
X179178556Y-46882810D01*
X181430249Y-44631119D01*
X181491572Y-44597634D01*
X181517930Y-44594800D01*
X183335603Y-44594800D01*
X183378936Y-44602618D01*
X183487718Y-44643191D01*
X183547328Y-44649600D01*
X184252673Y-44649599D01*
X184312284Y-44643191D01*
X184356667Y-44626636D01*
X184426358Y-44621653D01*
X184443326Y-44626634D01*
X184479943Y-44640291D01*
X184487710Y-44643189D01*
X184487716Y-44643191D01*
X184547326Y-44649600D01*
X185252671Y-44649599D01*
X185312282Y-44643191D01*
X185447130Y-44592896D01*
X185562345Y-44506646D01*
X185571446Y-44494487D01*
X185627379Y-44452618D01*
X185670712Y-44444800D01*
X188324732Y-44444800D01*
X188324748Y-44444801D01*
X188332344Y-44444801D01*
X188490455Y-44444801D01*
X188490458Y-44444801D01*
X188643186Y-44403877D01*
X188694215Y-44374415D01*
X188780117Y-44324820D01*
X188891921Y-44213016D01*
X188891921Y-44213014D01*
X188902125Y-44202811D01*
X188902129Y-44202806D01*
X190107617Y-42997318D01*
X190168940Y-42963833D01*
X190195298Y-42960999D01*
X190452672Y-42960999D01*
X190452673Y-42960999D01*
X190512284Y-42954591D01*
X190557381Y-42937770D01*
X190627070Y-42932785D01*
X190644049Y-42937771D01*
X190687820Y-42954097D01*
X190747354Y-42960499D01*
X190747371Y-42960500D01*
X190849999Y-42960500D01*
X191349999Y-42960500D01*
X191452627Y-42960500D01*
X191452643Y-42960499D01*
X191512171Y-42954098D01*
X191512178Y-42954096D01*
X191646885Y-42903854D01*
X191646892Y-42903850D01*
X191761986Y-42817690D01*
X191761989Y-42817687D01*
X191848149Y-42702593D01*
X191848153Y-42702586D01*
X191898395Y-42567879D01*
X191898397Y-42567872D01*
X191904798Y-42508344D01*
X191904799Y-42508327D01*
X191904799Y-42405700D01*
X191349999Y-42405700D01*
X191349999Y-42960500D01*
X190849999Y-42960500D01*
X190849999Y-42721443D01*
X190857817Y-42678110D01*
X190898892Y-42567983D01*
X190905301Y-42508373D01*
X190905300Y-41905700D01*
X191349999Y-41905700D01*
X191904799Y-41905700D01*
X191904799Y-41803072D01*
X191904798Y-41803055D01*
X191898397Y-41743527D01*
X191898395Y-41743520D01*
X191848153Y-41608813D01*
X191848149Y-41608806D01*
X191761989Y-41493712D01*
X191761986Y-41493709D01*
X191646892Y-41407549D01*
X191646885Y-41407545D01*
X191512178Y-41357303D01*
X191512171Y-41357301D01*
X191452643Y-41350900D01*
X191349999Y-41350900D01*
X191349999Y-41905700D01*
X190905300Y-41905700D01*
X190905300Y-41803028D01*
X190898892Y-41743417D01*
X190898892Y-41743416D01*
X190857817Y-41633288D01*
X190849999Y-41589955D01*
X190849999Y-41350900D01*
X190747354Y-41350900D01*
X190687826Y-41357301D01*
X190687818Y-41357303D01*
X190644047Y-41373629D01*
X190574355Y-41378613D01*
X190557381Y-41373629D01*
X190512287Y-41356810D01*
X190512286Y-41356809D01*
X190512284Y-41356809D01*
X190452674Y-41350400D01*
X190452664Y-41350400D01*
X189747330Y-41350400D01*
X189747324Y-41350401D01*
X189687717Y-41356808D01*
X189552872Y-41407102D01*
X189552865Y-41407106D01*
X189437656Y-41493352D01*
X189437653Y-41493355D01*
X189351407Y-41608564D01*
X189351403Y-41608571D01*
X189301109Y-41743417D01*
X189294702Y-41803016D01*
X189294702Y-41803023D01*
X189294701Y-41803035D01*
X189294701Y-42060402D01*
X189275016Y-42127441D01*
X189258382Y-42148083D01*
X188198985Y-43207481D01*
X188137662Y-43240966D01*
X188111304Y-43243800D01*
X185670712Y-43243800D01*
X185603673Y-43224115D01*
X185594610Y-43217701D01*
X185581443Y-43207466D01*
X185562345Y-43181954D01*
X185447130Y-43095704D01*
X185428940Y-43088919D01*
X185413955Y-43077271D01*
X185404176Y-43063700D01*
X185390789Y-43053679D01*
X185384174Y-43035943D01*
X185373107Y-43020585D01*
X185372217Y-43003884D01*
X185366373Y-42988215D01*
X185370397Y-42969717D01*
X185369390Y-42950815D01*
X185377669Y-42936285D01*
X185381225Y-42919942D01*
X185402372Y-42891693D01*
X187662948Y-40631119D01*
X187724271Y-40597634D01*
X187750629Y-40594800D01*
X189535603Y-40594800D01*
X189578936Y-40602618D01*
X189687718Y-40643191D01*
X189747328Y-40649600D01*
X190452673Y-40649599D01*
X190512284Y-40643191D01*
X190556667Y-40626636D01*
X190626358Y-40621653D01*
X190643326Y-40626634D01*
X190679943Y-40640291D01*
X190687710Y-40643189D01*
X190687716Y-40643191D01*
X190747326Y-40649600D01*
X191452671Y-40649599D01*
X191512282Y-40643191D01*
X191647130Y-40592896D01*
X191762345Y-40506646D01*
X191771446Y-40494487D01*
X191827379Y-40452618D01*
X191870712Y-40444800D01*
X194524732Y-40444800D01*
X194524748Y-40444801D01*
X194532344Y-40444801D01*
X194690455Y-40444801D01*
X194690458Y-40444801D01*
X194843186Y-40403877D01*
X194907332Y-40366842D01*
X194980117Y-40324820D01*
X195091921Y-40213016D01*
X195091921Y-40213014D01*
X195102125Y-40202811D01*
X195102129Y-40202806D01*
X196307617Y-38997318D01*
X196368940Y-38963833D01*
X196395298Y-38960999D01*
X196652672Y-38960999D01*
X196652673Y-38960999D01*
X196712284Y-38954591D01*
X196757381Y-38937770D01*
X196827070Y-38932785D01*
X196844049Y-38937771D01*
X196887820Y-38954097D01*
X196947354Y-38960499D01*
X196947371Y-38960500D01*
X197049999Y-38960500D01*
X197549999Y-38960500D01*
X197652627Y-38960500D01*
X197652643Y-38960499D01*
X197712171Y-38954098D01*
X197712178Y-38954096D01*
X197846885Y-38903854D01*
X197846892Y-38903850D01*
X197961986Y-38817690D01*
X197961989Y-38817687D01*
X198048149Y-38702593D01*
X198048153Y-38702586D01*
X198098395Y-38567879D01*
X198098397Y-38567872D01*
X198104798Y-38508344D01*
X198104799Y-38508327D01*
X198104799Y-38405700D01*
X197549999Y-38405700D01*
X197549999Y-38960500D01*
X197049999Y-38960500D01*
X197049999Y-38721443D01*
X197057817Y-38678110D01*
X197061135Y-38669214D01*
X197098892Y-38567983D01*
X197105301Y-38508373D01*
X197105300Y-37905700D01*
X197549999Y-37905700D01*
X198104799Y-37905700D01*
X198104799Y-37803072D01*
X198104798Y-37803055D01*
X198098397Y-37743527D01*
X198098395Y-37743520D01*
X198048153Y-37608813D01*
X198048149Y-37608806D01*
X197961989Y-37493712D01*
X197961986Y-37493709D01*
X197846892Y-37407549D01*
X197846885Y-37407545D01*
X197712178Y-37357303D01*
X197712171Y-37357301D01*
X197652643Y-37350900D01*
X197549999Y-37350900D01*
X197549999Y-37905700D01*
X197105300Y-37905700D01*
X197105300Y-37803028D01*
X197098892Y-37743417D01*
X197057817Y-37633288D01*
X197049999Y-37589955D01*
X197049999Y-37350900D01*
X196947354Y-37350900D01*
X196887826Y-37357301D01*
X196887818Y-37357303D01*
X196844047Y-37373629D01*
X196774355Y-37378613D01*
X196757381Y-37373629D01*
X196712287Y-37356810D01*
X196712286Y-37356809D01*
X196712284Y-37356809D01*
X196652674Y-37350400D01*
X196652664Y-37350400D01*
X195947330Y-37350400D01*
X195947324Y-37350401D01*
X195887717Y-37356808D01*
X195752872Y-37407102D01*
X195752865Y-37407106D01*
X195637656Y-37493352D01*
X195637653Y-37493355D01*
X195551407Y-37608564D01*
X195551403Y-37608571D01*
X195501109Y-37743417D01*
X195494702Y-37803016D01*
X195494702Y-37803023D01*
X195494701Y-37803035D01*
X195494701Y-38060402D01*
X195475016Y-38127441D01*
X195458382Y-38148083D01*
X194398985Y-39207481D01*
X194337662Y-39240966D01*
X194311304Y-39243800D01*
X191870712Y-39243800D01*
X191803673Y-39224115D01*
X191771447Y-39194113D01*
X191762345Y-39181954D01*
X191739508Y-39164858D01*
X191647134Y-39095706D01*
X191647127Y-39095702D01*
X191512281Y-39045408D01*
X191512282Y-39045408D01*
X191449371Y-39038645D01*
X191449504Y-39037403D01*
X191388384Y-39015806D01*
X191345550Y-38960607D01*
X191339358Y-38891012D01*
X191371775Y-38829118D01*
X191373224Y-38827643D01*
X193569749Y-36631119D01*
X193631072Y-36597634D01*
X193657430Y-36594800D01*
X195735603Y-36594800D01*
X195778936Y-36602618D01*
X195887718Y-36643191D01*
X195947328Y-36649600D01*
X196652673Y-36649599D01*
X196712284Y-36643191D01*
X196756667Y-36626636D01*
X196826358Y-36621653D01*
X196843326Y-36626634D01*
X196879943Y-36640291D01*
X196887710Y-36643189D01*
X196887716Y-36643191D01*
X196947326Y-36649600D01*
X197652671Y-36649599D01*
X197712282Y-36643191D01*
X197847130Y-36592896D01*
X197962345Y-36506646D01*
X197971446Y-36494487D01*
X198027379Y-36452618D01*
X198070712Y-36444800D01*
X200724732Y-36444800D01*
X200724748Y-36444801D01*
X200732344Y-36444801D01*
X200890455Y-36444801D01*
X200890458Y-36444801D01*
X201043186Y-36403877D01*
X201107332Y-36366842D01*
X201180117Y-36324820D01*
X201291921Y-36213016D01*
X201291921Y-36213014D01*
X201302125Y-36202811D01*
X201302129Y-36202806D01*
X202507617Y-34997318D01*
X202568940Y-34963833D01*
X202595298Y-34960999D01*
X202852672Y-34960999D01*
X202852673Y-34960999D01*
X202912284Y-34954591D01*
X202957381Y-34937770D01*
X203027070Y-34932785D01*
X203044049Y-34937771D01*
X203087820Y-34954097D01*
X203147354Y-34960499D01*
X203147371Y-34960500D01*
X203249999Y-34960500D01*
X203249999Y-34721443D01*
X203257817Y-34678110D01*
X203298892Y-34567983D01*
X203305301Y-34508373D01*
X203305300Y-33803028D01*
X203298892Y-33743417D01*
X203279143Y-33690467D01*
X203257817Y-33633288D01*
X203249999Y-33589955D01*
X203249999Y-33350900D01*
X203147354Y-33350900D01*
X203087826Y-33357301D01*
X203087818Y-33357303D01*
X203044047Y-33373629D01*
X202974355Y-33378613D01*
X202957381Y-33373629D01*
X202912287Y-33356810D01*
X202912286Y-33356809D01*
X202912284Y-33356809D01*
X202852674Y-33350400D01*
X202852664Y-33350400D01*
X202147330Y-33350400D01*
X202147324Y-33350401D01*
X202087717Y-33356808D01*
X201952872Y-33407102D01*
X201952865Y-33407106D01*
X201837656Y-33493352D01*
X201837653Y-33493355D01*
X201751407Y-33608564D01*
X201751403Y-33608571D01*
X201701109Y-33743417D01*
X201694702Y-33803016D01*
X201694702Y-33803023D01*
X201694701Y-33803035D01*
X201694701Y-34060402D01*
X201675016Y-34127441D01*
X201658382Y-34148083D01*
X200598985Y-35207481D01*
X200537662Y-35240966D01*
X200511304Y-35243800D01*
X198070712Y-35243800D01*
X198003673Y-35224115D01*
X197994610Y-35217701D01*
X197981443Y-35207466D01*
X197962345Y-35181954D01*
X197847130Y-35095704D01*
X197828940Y-35088919D01*
X197813955Y-35077271D01*
X197804176Y-35063700D01*
X197790789Y-35053679D01*
X197784174Y-35035943D01*
X197773107Y-35020585D01*
X197772217Y-35003884D01*
X197766373Y-34988215D01*
X197770397Y-34969717D01*
X197769390Y-34950815D01*
X197777669Y-34936285D01*
X197781225Y-34919942D01*
X197802372Y-34891693D01*
X200062948Y-32631119D01*
X200124271Y-32597634D01*
X200150629Y-32594800D01*
X201935603Y-32594800D01*
X201978936Y-32602618D01*
X202087718Y-32643191D01*
X202147328Y-32649600D01*
X202852673Y-32649599D01*
X202912284Y-32643191D01*
X202956667Y-32626636D01*
X203026358Y-32621653D01*
X203043326Y-32626634D01*
X203079943Y-32640291D01*
X203087710Y-32643189D01*
X203087716Y-32643191D01*
X203147326Y-32649600D01*
X203852671Y-32649599D01*
X203912282Y-32643191D01*
X204047130Y-32592896D01*
X204162345Y-32506646D01*
X204248595Y-32391431D01*
X204257766Y-32366843D01*
X204259818Y-32361342D01*
X204301689Y-32305408D01*
X204367153Y-32280990D01*
X204435426Y-32295841D01*
G37*
%TD.AperFunction*%
%TD*%
M02*
