%TF.GenerationSoftware,KiCad,Pcbnew,9.0.4*%
%TF.CreationDate,2026-01-29T23:46:11+09:00*%
%TF.ProjectId,kalimba,6b616c69-6d62-4612-9e6b-696361645f70,rev?*%
%TF.SameCoordinates,Original*%
%TF.FileFunction,Legend,Top*%
%TF.FilePolarity,Positive*%
%FSLAX46Y46*%
G04 Gerber Fmt 4.6, Leading zero omitted, Abs format (unit mm)*
G04 Created by KiCad (PCBNEW 9.0.4) date 2026-01-29 23:46:11*
%MOMM*%
%LPD*%
G01*
G04 APERTURE LIST*
%ADD10C,0.100000*%
%ADD11C,0.300000*%
%ADD12C,0.150000*%
%ADD13C,0.120000*%
%ADD14C,0.152400*%
G04 APERTURE END LIST*
D10*
X80000000Y-41500000D02*
X202000000Y-41500000D01*
X202000000Y-77000000D01*
X80000000Y-77000000D01*
X80000000Y-41500000D01*
D11*
X136249999Y-45800828D02*
X136249999Y-44300828D01*
X137107142Y-45800828D02*
X136464285Y-44943685D01*
X137107142Y-44300828D02*
X136249999Y-45157971D01*
X138392857Y-45800828D02*
X138392857Y-45015114D01*
X138392857Y-45015114D02*
X138321428Y-44872257D01*
X138321428Y-44872257D02*
X138178571Y-44800828D01*
X138178571Y-44800828D02*
X137892857Y-44800828D01*
X137892857Y-44800828D02*
X137749999Y-44872257D01*
X138392857Y-45729400D02*
X138249999Y-45800828D01*
X138249999Y-45800828D02*
X137892857Y-45800828D01*
X137892857Y-45800828D02*
X137749999Y-45729400D01*
X137749999Y-45729400D02*
X137678571Y-45586542D01*
X137678571Y-45586542D02*
X137678571Y-45443685D01*
X137678571Y-45443685D02*
X137749999Y-45300828D01*
X137749999Y-45300828D02*
X137892857Y-45229400D01*
X137892857Y-45229400D02*
X138249999Y-45229400D01*
X138249999Y-45229400D02*
X138392857Y-45157971D01*
X139321428Y-45800828D02*
X139178571Y-45729400D01*
X139178571Y-45729400D02*
X139107142Y-45586542D01*
X139107142Y-45586542D02*
X139107142Y-44300828D01*
X139892856Y-45800828D02*
X139892856Y-44800828D01*
X139892856Y-44300828D02*
X139821428Y-44372257D01*
X139821428Y-44372257D02*
X139892856Y-44443685D01*
X139892856Y-44443685D02*
X139964285Y-44372257D01*
X139964285Y-44372257D02*
X139892856Y-44300828D01*
X139892856Y-44300828D02*
X139892856Y-44443685D01*
X140607142Y-45800828D02*
X140607142Y-44800828D01*
X140607142Y-44943685D02*
X140678571Y-44872257D01*
X140678571Y-44872257D02*
X140821428Y-44800828D01*
X140821428Y-44800828D02*
X141035714Y-44800828D01*
X141035714Y-44800828D02*
X141178571Y-44872257D01*
X141178571Y-44872257D02*
X141250000Y-45015114D01*
X141250000Y-45015114D02*
X141250000Y-45800828D01*
X141250000Y-45015114D02*
X141321428Y-44872257D01*
X141321428Y-44872257D02*
X141464285Y-44800828D01*
X141464285Y-44800828D02*
X141678571Y-44800828D01*
X141678571Y-44800828D02*
X141821428Y-44872257D01*
X141821428Y-44872257D02*
X141892857Y-45015114D01*
X141892857Y-45015114D02*
X141892857Y-45800828D01*
X142607142Y-45800828D02*
X142607142Y-44300828D01*
X142607142Y-44872257D02*
X142750000Y-44800828D01*
X142750000Y-44800828D02*
X143035714Y-44800828D01*
X143035714Y-44800828D02*
X143178571Y-44872257D01*
X143178571Y-44872257D02*
X143250000Y-44943685D01*
X143250000Y-44943685D02*
X143321428Y-45086542D01*
X143321428Y-45086542D02*
X143321428Y-45515114D01*
X143321428Y-45515114D02*
X143250000Y-45657971D01*
X143250000Y-45657971D02*
X143178571Y-45729400D01*
X143178571Y-45729400D02*
X143035714Y-45800828D01*
X143035714Y-45800828D02*
X142750000Y-45800828D01*
X142750000Y-45800828D02*
X142607142Y-45729400D01*
X144607143Y-45800828D02*
X144607143Y-45015114D01*
X144607143Y-45015114D02*
X144535714Y-44872257D01*
X144535714Y-44872257D02*
X144392857Y-44800828D01*
X144392857Y-44800828D02*
X144107143Y-44800828D01*
X144107143Y-44800828D02*
X143964285Y-44872257D01*
X144607143Y-45729400D02*
X144464285Y-45800828D01*
X144464285Y-45800828D02*
X144107143Y-45800828D01*
X144107143Y-45800828D02*
X143964285Y-45729400D01*
X143964285Y-45729400D02*
X143892857Y-45586542D01*
X143892857Y-45586542D02*
X143892857Y-45443685D01*
X143892857Y-45443685D02*
X143964285Y-45300828D01*
X143964285Y-45300828D02*
X144107143Y-45229400D01*
X144107143Y-45229400D02*
X144464285Y-45229400D01*
X144464285Y-45229400D02*
X144607143Y-45157971D01*
D12*
X190904761Y-80550057D02*
X190809523Y-80502438D01*
X190809523Y-80502438D02*
X190714285Y-80407200D01*
X190714285Y-80407200D02*
X190571428Y-80264342D01*
X190571428Y-80264342D02*
X190476190Y-80216723D01*
X190476190Y-80216723D02*
X190380952Y-80216723D01*
X190428571Y-80454819D02*
X190333333Y-80407200D01*
X190333333Y-80407200D02*
X190238095Y-80311961D01*
X190238095Y-80311961D02*
X190190476Y-80121485D01*
X190190476Y-80121485D02*
X190190476Y-79788152D01*
X190190476Y-79788152D02*
X190238095Y-79597676D01*
X190238095Y-79597676D02*
X190333333Y-79502438D01*
X190333333Y-79502438D02*
X190428571Y-79454819D01*
X190428571Y-79454819D02*
X190619047Y-79454819D01*
X190619047Y-79454819D02*
X190714285Y-79502438D01*
X190714285Y-79502438D02*
X190809523Y-79597676D01*
X190809523Y-79597676D02*
X190857142Y-79788152D01*
X190857142Y-79788152D02*
X190857142Y-80121485D01*
X190857142Y-80121485D02*
X190809523Y-80311961D01*
X190809523Y-80311961D02*
X190714285Y-80407200D01*
X190714285Y-80407200D02*
X190619047Y-80454819D01*
X190619047Y-80454819D02*
X190428571Y-80454819D01*
X191238095Y-79550057D02*
X191285714Y-79502438D01*
X191285714Y-79502438D02*
X191380952Y-79454819D01*
X191380952Y-79454819D02*
X191619047Y-79454819D01*
X191619047Y-79454819D02*
X191714285Y-79502438D01*
X191714285Y-79502438D02*
X191761904Y-79550057D01*
X191761904Y-79550057D02*
X191809523Y-79645295D01*
X191809523Y-79645295D02*
X191809523Y-79740533D01*
X191809523Y-79740533D02*
X191761904Y-79883390D01*
X191761904Y-79883390D02*
X191190476Y-80454819D01*
X191190476Y-80454819D02*
X191809523Y-80454819D01*
X190904761Y-76550057D02*
X190809523Y-76502438D01*
X190809523Y-76502438D02*
X190714285Y-76407200D01*
X190714285Y-76407200D02*
X190571428Y-76264342D01*
X190571428Y-76264342D02*
X190476190Y-76216723D01*
X190476190Y-76216723D02*
X190380952Y-76216723D01*
X190428571Y-76454819D02*
X190333333Y-76407200D01*
X190333333Y-76407200D02*
X190238095Y-76311961D01*
X190238095Y-76311961D02*
X190190476Y-76121485D01*
X190190476Y-76121485D02*
X190190476Y-75788152D01*
X190190476Y-75788152D02*
X190238095Y-75597676D01*
X190238095Y-75597676D02*
X190333333Y-75502438D01*
X190333333Y-75502438D02*
X190428571Y-75454819D01*
X190428571Y-75454819D02*
X190619047Y-75454819D01*
X190619047Y-75454819D02*
X190714285Y-75502438D01*
X190714285Y-75502438D02*
X190809523Y-75597676D01*
X190809523Y-75597676D02*
X190857142Y-75788152D01*
X190857142Y-75788152D02*
X190857142Y-76121485D01*
X190857142Y-76121485D02*
X190809523Y-76311961D01*
X190809523Y-76311961D02*
X190714285Y-76407200D01*
X190714285Y-76407200D02*
X190619047Y-76454819D01*
X190619047Y-76454819D02*
X190428571Y-76454819D01*
X191809523Y-76454819D02*
X191238095Y-76454819D01*
X191523809Y-76454819D02*
X191523809Y-75454819D01*
X191523809Y-75454819D02*
X191428571Y-75597676D01*
X191428571Y-75597676D02*
X191333333Y-75692914D01*
X191333333Y-75692914D02*
X191238095Y-75740533D01*
X98454819Y-54761904D02*
X99264342Y-54761904D01*
X99264342Y-54761904D02*
X99359580Y-54714285D01*
X99359580Y-54714285D02*
X99407200Y-54666666D01*
X99407200Y-54666666D02*
X99454819Y-54571428D01*
X99454819Y-54571428D02*
X99454819Y-54380952D01*
X99454819Y-54380952D02*
X99407200Y-54285714D01*
X99407200Y-54285714D02*
X99359580Y-54238095D01*
X99359580Y-54238095D02*
X99264342Y-54190476D01*
X99264342Y-54190476D02*
X98454819Y-54190476D01*
X98454819Y-53285714D02*
X98454819Y-53476190D01*
X98454819Y-53476190D02*
X98502438Y-53571428D01*
X98502438Y-53571428D02*
X98550057Y-53619047D01*
X98550057Y-53619047D02*
X98692914Y-53714285D01*
X98692914Y-53714285D02*
X98883390Y-53761904D01*
X98883390Y-53761904D02*
X99264342Y-53761904D01*
X99264342Y-53761904D02*
X99359580Y-53714285D01*
X99359580Y-53714285D02*
X99407200Y-53666666D01*
X99407200Y-53666666D02*
X99454819Y-53571428D01*
X99454819Y-53571428D02*
X99454819Y-53380952D01*
X99454819Y-53380952D02*
X99407200Y-53285714D01*
X99407200Y-53285714D02*
X99359580Y-53238095D01*
X99359580Y-53238095D02*
X99264342Y-53190476D01*
X99264342Y-53190476D02*
X99026247Y-53190476D01*
X99026247Y-53190476D02*
X98931009Y-53238095D01*
X98931009Y-53238095D02*
X98883390Y-53285714D01*
X98883390Y-53285714D02*
X98835771Y-53380952D01*
X98835771Y-53380952D02*
X98835771Y-53571428D01*
X98835771Y-53571428D02*
X98883390Y-53666666D01*
X98883390Y-53666666D02*
X98931009Y-53714285D01*
X98931009Y-53714285D02*
X99026247Y-53761904D01*
X97091220Y-55739899D02*
X97329315Y-55739899D01*
X97234077Y-55977994D02*
X97329315Y-55739899D01*
X97329315Y-55739899D02*
X97234077Y-55501804D01*
X97519791Y-55882756D02*
X97329315Y-55739899D01*
X97329315Y-55739899D02*
X97519791Y-55597042D01*
X97091220Y-55739899D02*
X97329315Y-55739899D01*
X97234077Y-55977994D02*
X97329315Y-55739899D01*
X97329315Y-55739899D02*
X97234077Y-55501804D01*
X97519791Y-55882756D02*
X97329315Y-55739899D01*
X97329315Y-55739899D02*
X97519791Y-55597042D01*
X116454819Y-63761904D02*
X117264342Y-63761904D01*
X117264342Y-63761904D02*
X117359580Y-63714285D01*
X117359580Y-63714285D02*
X117407200Y-63666666D01*
X117407200Y-63666666D02*
X117454819Y-63571428D01*
X117454819Y-63571428D02*
X117454819Y-63380952D01*
X117454819Y-63380952D02*
X117407200Y-63285714D01*
X117407200Y-63285714D02*
X117359580Y-63238095D01*
X117359580Y-63238095D02*
X117264342Y-63190476D01*
X117264342Y-63190476D02*
X116454819Y-63190476D01*
X117454819Y-62666666D02*
X117454819Y-62476190D01*
X117454819Y-62476190D02*
X117407200Y-62380952D01*
X117407200Y-62380952D02*
X117359580Y-62333333D01*
X117359580Y-62333333D02*
X117216723Y-62238095D01*
X117216723Y-62238095D02*
X117026247Y-62190476D01*
X117026247Y-62190476D02*
X116645295Y-62190476D01*
X116645295Y-62190476D02*
X116550057Y-62238095D01*
X116550057Y-62238095D02*
X116502438Y-62285714D01*
X116502438Y-62285714D02*
X116454819Y-62380952D01*
X116454819Y-62380952D02*
X116454819Y-62571428D01*
X116454819Y-62571428D02*
X116502438Y-62666666D01*
X116502438Y-62666666D02*
X116550057Y-62714285D01*
X116550057Y-62714285D02*
X116645295Y-62761904D01*
X116645295Y-62761904D02*
X116883390Y-62761904D01*
X116883390Y-62761904D02*
X116978628Y-62714285D01*
X116978628Y-62714285D02*
X117026247Y-62666666D01*
X117026247Y-62666666D02*
X117073866Y-62571428D01*
X117073866Y-62571428D02*
X117073866Y-62380952D01*
X117073866Y-62380952D02*
X117026247Y-62285714D01*
X117026247Y-62285714D02*
X116978628Y-62238095D01*
X116978628Y-62238095D02*
X116883390Y-62190476D01*
X115091220Y-64739899D02*
X115329315Y-64739899D01*
X115234077Y-64977994D02*
X115329315Y-64739899D01*
X115329315Y-64739899D02*
X115234077Y-64501804D01*
X115519791Y-64882756D02*
X115329315Y-64739899D01*
X115329315Y-64739899D02*
X115519791Y-64597042D01*
X115091220Y-64739899D02*
X115329315Y-64739899D01*
X115234077Y-64977994D02*
X115329315Y-64739899D01*
X115329315Y-64739899D02*
X115234077Y-64501804D01*
X115519791Y-64882756D02*
X115329315Y-64739899D01*
X115329315Y-64739899D02*
X115519791Y-64597042D01*
X182454819Y-53738094D02*
X183264342Y-53738094D01*
X183264342Y-53738094D02*
X183359580Y-53690475D01*
X183359580Y-53690475D02*
X183407200Y-53642856D01*
X183407200Y-53642856D02*
X183454819Y-53547618D01*
X183454819Y-53547618D02*
X183454819Y-53357142D01*
X183454819Y-53357142D02*
X183407200Y-53261904D01*
X183407200Y-53261904D02*
X183359580Y-53214285D01*
X183359580Y-53214285D02*
X183264342Y-53166666D01*
X183264342Y-53166666D02*
X182454819Y-53166666D01*
X182550057Y-52738094D02*
X182502438Y-52690475D01*
X182502438Y-52690475D02*
X182454819Y-52595237D01*
X182454819Y-52595237D02*
X182454819Y-52357142D01*
X182454819Y-52357142D02*
X182502438Y-52261904D01*
X182502438Y-52261904D02*
X182550057Y-52214285D01*
X182550057Y-52214285D02*
X182645295Y-52166666D01*
X182645295Y-52166666D02*
X182740533Y-52166666D01*
X182740533Y-52166666D02*
X182883390Y-52214285D01*
X182883390Y-52214285D02*
X183454819Y-52785713D01*
X183454819Y-52785713D02*
X183454819Y-52166666D01*
X182454819Y-51547618D02*
X182454819Y-51452380D01*
X182454819Y-51452380D02*
X182502438Y-51357142D01*
X182502438Y-51357142D02*
X182550057Y-51309523D01*
X182550057Y-51309523D02*
X182645295Y-51261904D01*
X182645295Y-51261904D02*
X182835771Y-51214285D01*
X182835771Y-51214285D02*
X183073866Y-51214285D01*
X183073866Y-51214285D02*
X183264342Y-51261904D01*
X183264342Y-51261904D02*
X183359580Y-51309523D01*
X183359580Y-51309523D02*
X183407200Y-51357142D01*
X183407200Y-51357142D02*
X183454819Y-51452380D01*
X183454819Y-51452380D02*
X183454819Y-51547618D01*
X183454819Y-51547618D02*
X183407200Y-51642856D01*
X183407200Y-51642856D02*
X183359580Y-51690475D01*
X183359580Y-51690475D02*
X183264342Y-51738094D01*
X183264342Y-51738094D02*
X183073866Y-51785713D01*
X183073866Y-51785713D02*
X182835771Y-51785713D01*
X182835771Y-51785713D02*
X182645295Y-51738094D01*
X182645295Y-51738094D02*
X182550057Y-51690475D01*
X182550057Y-51690475D02*
X182502438Y-51642856D01*
X182502438Y-51642856D02*
X182454819Y-51547618D01*
X181091220Y-54239899D02*
X181329315Y-54239899D01*
X181234077Y-54477994D02*
X181329315Y-54239899D01*
X181329315Y-54239899D02*
X181234077Y-54001804D01*
X181519791Y-54382756D02*
X181329315Y-54239899D01*
X181329315Y-54239899D02*
X181519791Y-54097042D01*
X181091220Y-54239899D02*
X181329315Y-54239899D01*
X181234077Y-54477994D02*
X181329315Y-54239899D01*
X181329315Y-54239899D02*
X181234077Y-54001804D01*
X181519791Y-54382756D02*
X181329315Y-54239899D01*
X181329315Y-54239899D02*
X181519791Y-54097042D01*
X191379819Y-89833333D02*
X192094104Y-89833333D01*
X192094104Y-89833333D02*
X192236961Y-89880952D01*
X192236961Y-89880952D02*
X192332200Y-89976190D01*
X192332200Y-89976190D02*
X192379819Y-90119047D01*
X192379819Y-90119047D02*
X192379819Y-90214285D01*
X192379819Y-88833333D02*
X192379819Y-89404761D01*
X192379819Y-89119047D02*
X191379819Y-89119047D01*
X191379819Y-89119047D02*
X191522676Y-89214285D01*
X191522676Y-89214285D02*
X191617914Y-89309523D01*
X191617914Y-89309523D02*
X191665533Y-89404761D01*
X188454819Y-50738094D02*
X189264342Y-50738094D01*
X189264342Y-50738094D02*
X189359580Y-50690475D01*
X189359580Y-50690475D02*
X189407200Y-50642856D01*
X189407200Y-50642856D02*
X189454819Y-50547618D01*
X189454819Y-50547618D02*
X189454819Y-50357142D01*
X189454819Y-50357142D02*
X189407200Y-50261904D01*
X189407200Y-50261904D02*
X189359580Y-50214285D01*
X189359580Y-50214285D02*
X189264342Y-50166666D01*
X189264342Y-50166666D02*
X188454819Y-50166666D01*
X188550057Y-49738094D02*
X188502438Y-49690475D01*
X188502438Y-49690475D02*
X188454819Y-49595237D01*
X188454819Y-49595237D02*
X188454819Y-49357142D01*
X188454819Y-49357142D02*
X188502438Y-49261904D01*
X188502438Y-49261904D02*
X188550057Y-49214285D01*
X188550057Y-49214285D02*
X188645295Y-49166666D01*
X188645295Y-49166666D02*
X188740533Y-49166666D01*
X188740533Y-49166666D02*
X188883390Y-49214285D01*
X188883390Y-49214285D02*
X189454819Y-49785713D01*
X189454819Y-49785713D02*
X189454819Y-49166666D01*
X189454819Y-48214285D02*
X189454819Y-48785713D01*
X189454819Y-48499999D02*
X188454819Y-48499999D01*
X188454819Y-48499999D02*
X188597676Y-48595237D01*
X188597676Y-48595237D02*
X188692914Y-48690475D01*
X188692914Y-48690475D02*
X188740533Y-48785713D01*
X187091220Y-51239899D02*
X187329315Y-51239899D01*
X187234077Y-51477994D02*
X187329315Y-51239899D01*
X187329315Y-51239899D02*
X187234077Y-51001804D01*
X187519791Y-51382756D02*
X187329315Y-51239899D01*
X187329315Y-51239899D02*
X187519791Y-51097042D01*
X187091220Y-51239899D02*
X187329315Y-51239899D01*
X187234077Y-51477994D02*
X187329315Y-51239899D01*
X187329315Y-51239899D02*
X187234077Y-51001804D01*
X187519791Y-51382756D02*
X187329315Y-51239899D01*
X187329315Y-51239899D02*
X187519791Y-51097042D01*
X178314819Y-79701904D02*
X179124342Y-79701904D01*
X179124342Y-79701904D02*
X179219580Y-79654285D01*
X179219580Y-79654285D02*
X179267200Y-79606666D01*
X179267200Y-79606666D02*
X179314819Y-79511428D01*
X179314819Y-79511428D02*
X179314819Y-79320952D01*
X179314819Y-79320952D02*
X179267200Y-79225714D01*
X179267200Y-79225714D02*
X179219580Y-79178095D01*
X179219580Y-79178095D02*
X179124342Y-79130476D01*
X179124342Y-79130476D02*
X178314819Y-79130476D01*
X178410057Y-78701904D02*
X178362438Y-78654285D01*
X178362438Y-78654285D02*
X178314819Y-78559047D01*
X178314819Y-78559047D02*
X178314819Y-78320952D01*
X178314819Y-78320952D02*
X178362438Y-78225714D01*
X178362438Y-78225714D02*
X178410057Y-78178095D01*
X178410057Y-78178095D02*
X178505295Y-78130476D01*
X178505295Y-78130476D02*
X178600533Y-78130476D01*
X178600533Y-78130476D02*
X178743390Y-78178095D01*
X178743390Y-78178095D02*
X179314819Y-78749523D01*
X179314819Y-78749523D02*
X179314819Y-78130476D01*
X190833333Y-81954819D02*
X190500000Y-81478628D01*
X190261905Y-81954819D02*
X190261905Y-80954819D01*
X190261905Y-80954819D02*
X190642857Y-80954819D01*
X190642857Y-80954819D02*
X190738095Y-81002438D01*
X190738095Y-81002438D02*
X190785714Y-81050057D01*
X190785714Y-81050057D02*
X190833333Y-81145295D01*
X190833333Y-81145295D02*
X190833333Y-81288152D01*
X190833333Y-81288152D02*
X190785714Y-81383390D01*
X190785714Y-81383390D02*
X190738095Y-81431009D01*
X190738095Y-81431009D02*
X190642857Y-81478628D01*
X190642857Y-81478628D02*
X190261905Y-81478628D01*
X191166667Y-80954819D02*
X191785714Y-80954819D01*
X191785714Y-80954819D02*
X191452381Y-81335771D01*
X191452381Y-81335771D02*
X191595238Y-81335771D01*
X191595238Y-81335771D02*
X191690476Y-81383390D01*
X191690476Y-81383390D02*
X191738095Y-81431009D01*
X191738095Y-81431009D02*
X191785714Y-81526247D01*
X191785714Y-81526247D02*
X191785714Y-81764342D01*
X191785714Y-81764342D02*
X191738095Y-81859580D01*
X191738095Y-81859580D02*
X191690476Y-81907200D01*
X191690476Y-81907200D02*
X191595238Y-81954819D01*
X191595238Y-81954819D02*
X191309524Y-81954819D01*
X191309524Y-81954819D02*
X191214286Y-81907200D01*
X191214286Y-81907200D02*
X191166667Y-81859580D01*
X152454819Y-68738094D02*
X153264342Y-68738094D01*
X153264342Y-68738094D02*
X153359580Y-68690475D01*
X153359580Y-68690475D02*
X153407200Y-68642856D01*
X153407200Y-68642856D02*
X153454819Y-68547618D01*
X153454819Y-68547618D02*
X153454819Y-68357142D01*
X153454819Y-68357142D02*
X153407200Y-68261904D01*
X153407200Y-68261904D02*
X153359580Y-68214285D01*
X153359580Y-68214285D02*
X153264342Y-68166666D01*
X153264342Y-68166666D02*
X152454819Y-68166666D01*
X153454819Y-67166666D02*
X153454819Y-67738094D01*
X153454819Y-67452380D02*
X152454819Y-67452380D01*
X152454819Y-67452380D02*
X152597676Y-67547618D01*
X152597676Y-67547618D02*
X152692914Y-67642856D01*
X152692914Y-67642856D02*
X152740533Y-67738094D01*
X152454819Y-66261904D02*
X152454819Y-66738094D01*
X152454819Y-66738094D02*
X152931009Y-66785713D01*
X152931009Y-66785713D02*
X152883390Y-66738094D01*
X152883390Y-66738094D02*
X152835771Y-66642856D01*
X152835771Y-66642856D02*
X152835771Y-66404761D01*
X152835771Y-66404761D02*
X152883390Y-66309523D01*
X152883390Y-66309523D02*
X152931009Y-66261904D01*
X152931009Y-66261904D02*
X153026247Y-66214285D01*
X153026247Y-66214285D02*
X153264342Y-66214285D01*
X153264342Y-66214285D02*
X153359580Y-66261904D01*
X153359580Y-66261904D02*
X153407200Y-66309523D01*
X153407200Y-66309523D02*
X153454819Y-66404761D01*
X153454819Y-66404761D02*
X153454819Y-66642856D01*
X153454819Y-66642856D02*
X153407200Y-66738094D01*
X153407200Y-66738094D02*
X153359580Y-66785713D01*
X151091220Y-69239899D02*
X151329315Y-69239899D01*
X151234077Y-69477994D02*
X151329315Y-69239899D01*
X151329315Y-69239899D02*
X151234077Y-69001804D01*
X151519791Y-69382756D02*
X151329315Y-69239899D01*
X151329315Y-69239899D02*
X151519791Y-69097042D01*
X151091220Y-69239899D02*
X151329315Y-69239899D01*
X151234077Y-69477994D02*
X151329315Y-69239899D01*
X151329315Y-69239899D02*
X151234077Y-69001804D01*
X151519791Y-69382756D02*
X151329315Y-69239899D01*
X151329315Y-69239899D02*
X151519791Y-69097042D01*
X164454819Y-62738094D02*
X165264342Y-62738094D01*
X165264342Y-62738094D02*
X165359580Y-62690475D01*
X165359580Y-62690475D02*
X165407200Y-62642856D01*
X165407200Y-62642856D02*
X165454819Y-62547618D01*
X165454819Y-62547618D02*
X165454819Y-62357142D01*
X165454819Y-62357142D02*
X165407200Y-62261904D01*
X165407200Y-62261904D02*
X165359580Y-62214285D01*
X165359580Y-62214285D02*
X165264342Y-62166666D01*
X165264342Y-62166666D02*
X164454819Y-62166666D01*
X165454819Y-61166666D02*
X165454819Y-61738094D01*
X165454819Y-61452380D02*
X164454819Y-61452380D01*
X164454819Y-61452380D02*
X164597676Y-61547618D01*
X164597676Y-61547618D02*
X164692914Y-61642856D01*
X164692914Y-61642856D02*
X164740533Y-61738094D01*
X164454819Y-60833332D02*
X164454819Y-60166666D01*
X164454819Y-60166666D02*
X165454819Y-60595237D01*
X163091220Y-63239899D02*
X163329315Y-63239899D01*
X163234077Y-63477994D02*
X163329315Y-63239899D01*
X163329315Y-63239899D02*
X163234077Y-63001804D01*
X163519791Y-63382756D02*
X163329315Y-63239899D01*
X163329315Y-63239899D02*
X163519791Y-63097042D01*
X163091220Y-63239899D02*
X163329315Y-63239899D01*
X163234077Y-63477994D02*
X163329315Y-63239899D01*
X163329315Y-63239899D02*
X163234077Y-63001804D01*
X163519791Y-63382756D02*
X163329315Y-63239899D01*
X163329315Y-63239899D02*
X163519791Y-63097042D01*
X183714285Y-67285010D02*
X183857142Y-67332629D01*
X183857142Y-67332629D02*
X183904761Y-67380248D01*
X183904761Y-67380248D02*
X183952380Y-67475486D01*
X183952380Y-67475486D02*
X183952380Y-67618343D01*
X183952380Y-67618343D02*
X183904761Y-67713581D01*
X183904761Y-67713581D02*
X183857142Y-67761201D01*
X183857142Y-67761201D02*
X183761904Y-67808820D01*
X183761904Y-67808820D02*
X183380952Y-67808820D01*
X183380952Y-67808820D02*
X183380952Y-66808820D01*
X183380952Y-66808820D02*
X183714285Y-66808820D01*
X183714285Y-66808820D02*
X183809523Y-66856439D01*
X183809523Y-66856439D02*
X183857142Y-66904058D01*
X183857142Y-66904058D02*
X183904761Y-66999296D01*
X183904761Y-66999296D02*
X183904761Y-67094534D01*
X183904761Y-67094534D02*
X183857142Y-67189772D01*
X183857142Y-67189772D02*
X183809523Y-67237391D01*
X183809523Y-67237391D02*
X183714285Y-67285010D01*
X183714285Y-67285010D02*
X183380952Y-67285010D01*
X184238095Y-66808820D02*
X184809523Y-66808820D01*
X184523809Y-67808820D02*
X184523809Y-66808820D01*
X185666666Y-67808820D02*
X185095238Y-67808820D01*
X185380952Y-67808820D02*
X185380952Y-66808820D01*
X185380952Y-66808820D02*
X185285714Y-66951677D01*
X185285714Y-66951677D02*
X185190476Y-67046915D01*
X185190476Y-67046915D02*
X185095238Y-67094534D01*
X80954819Y-45761904D02*
X81764342Y-45761904D01*
X81764342Y-45761904D02*
X81859580Y-45714285D01*
X81859580Y-45714285D02*
X81907200Y-45666666D01*
X81907200Y-45666666D02*
X81954819Y-45571428D01*
X81954819Y-45571428D02*
X81954819Y-45380952D01*
X81954819Y-45380952D02*
X81907200Y-45285714D01*
X81907200Y-45285714D02*
X81859580Y-45238095D01*
X81859580Y-45238095D02*
X81764342Y-45190476D01*
X81764342Y-45190476D02*
X80954819Y-45190476D01*
X80954819Y-44809523D02*
X80954819Y-44190476D01*
X80954819Y-44190476D02*
X81335771Y-44523809D01*
X81335771Y-44523809D02*
X81335771Y-44380952D01*
X81335771Y-44380952D02*
X81383390Y-44285714D01*
X81383390Y-44285714D02*
X81431009Y-44238095D01*
X81431009Y-44238095D02*
X81526247Y-44190476D01*
X81526247Y-44190476D02*
X81764342Y-44190476D01*
X81764342Y-44190476D02*
X81859580Y-44238095D01*
X81859580Y-44238095D02*
X81907200Y-44285714D01*
X81907200Y-44285714D02*
X81954819Y-44380952D01*
X81954819Y-44380952D02*
X81954819Y-44666666D01*
X81954819Y-44666666D02*
X81907200Y-44761904D01*
X81907200Y-44761904D02*
X81859580Y-44809523D01*
X79591220Y-46739899D02*
X79829315Y-46739899D01*
X79734077Y-46977994D02*
X79829315Y-46739899D01*
X79829315Y-46739899D02*
X79734077Y-46501804D01*
X80019791Y-46882756D02*
X79829315Y-46739899D01*
X79829315Y-46739899D02*
X80019791Y-46597042D01*
X79591220Y-46739899D02*
X79829315Y-46739899D01*
X79734077Y-46977994D02*
X79829315Y-46739899D01*
X79829315Y-46739899D02*
X79734077Y-46501804D01*
X80019791Y-46882756D02*
X79829315Y-46739899D01*
X79829315Y-46739899D02*
X80019791Y-46597042D01*
X158454819Y-65738094D02*
X159264342Y-65738094D01*
X159264342Y-65738094D02*
X159359580Y-65690475D01*
X159359580Y-65690475D02*
X159407200Y-65642856D01*
X159407200Y-65642856D02*
X159454819Y-65547618D01*
X159454819Y-65547618D02*
X159454819Y-65357142D01*
X159454819Y-65357142D02*
X159407200Y-65261904D01*
X159407200Y-65261904D02*
X159359580Y-65214285D01*
X159359580Y-65214285D02*
X159264342Y-65166666D01*
X159264342Y-65166666D02*
X158454819Y-65166666D01*
X159454819Y-64166666D02*
X159454819Y-64738094D01*
X159454819Y-64452380D02*
X158454819Y-64452380D01*
X158454819Y-64452380D02*
X158597676Y-64547618D01*
X158597676Y-64547618D02*
X158692914Y-64642856D01*
X158692914Y-64642856D02*
X158740533Y-64738094D01*
X158454819Y-63309523D02*
X158454819Y-63499999D01*
X158454819Y-63499999D02*
X158502438Y-63595237D01*
X158502438Y-63595237D02*
X158550057Y-63642856D01*
X158550057Y-63642856D02*
X158692914Y-63738094D01*
X158692914Y-63738094D02*
X158883390Y-63785713D01*
X158883390Y-63785713D02*
X159264342Y-63785713D01*
X159264342Y-63785713D02*
X159359580Y-63738094D01*
X159359580Y-63738094D02*
X159407200Y-63690475D01*
X159407200Y-63690475D02*
X159454819Y-63595237D01*
X159454819Y-63595237D02*
X159454819Y-63404761D01*
X159454819Y-63404761D02*
X159407200Y-63309523D01*
X159407200Y-63309523D02*
X159359580Y-63261904D01*
X159359580Y-63261904D02*
X159264342Y-63214285D01*
X159264342Y-63214285D02*
X159026247Y-63214285D01*
X159026247Y-63214285D02*
X158931009Y-63261904D01*
X158931009Y-63261904D02*
X158883390Y-63309523D01*
X158883390Y-63309523D02*
X158835771Y-63404761D01*
X158835771Y-63404761D02*
X158835771Y-63595237D01*
X158835771Y-63595237D02*
X158883390Y-63690475D01*
X158883390Y-63690475D02*
X158931009Y-63738094D01*
X158931009Y-63738094D02*
X159026247Y-63785713D01*
X157091220Y-66239899D02*
X157329315Y-66239899D01*
X157234077Y-66477994D02*
X157329315Y-66239899D01*
X157329315Y-66239899D02*
X157234077Y-66001804D01*
X157519791Y-66382756D02*
X157329315Y-66239899D01*
X157329315Y-66239899D02*
X157519791Y-66097042D01*
X157091220Y-66239899D02*
X157329315Y-66239899D01*
X157234077Y-66477994D02*
X157329315Y-66239899D01*
X157329315Y-66239899D02*
X157234077Y-66001804D01*
X157519791Y-66382756D02*
X157329315Y-66239899D01*
X157329315Y-66239899D02*
X157519791Y-66097042D01*
X193237200Y-69833332D02*
X193284819Y-69690475D01*
X193284819Y-69690475D02*
X193284819Y-69452380D01*
X193284819Y-69452380D02*
X193237200Y-69357142D01*
X193237200Y-69357142D02*
X193189580Y-69309523D01*
X193189580Y-69309523D02*
X193094342Y-69261904D01*
X193094342Y-69261904D02*
X192999104Y-69261904D01*
X192999104Y-69261904D02*
X192903866Y-69309523D01*
X192903866Y-69309523D02*
X192856247Y-69357142D01*
X192856247Y-69357142D02*
X192808628Y-69452380D01*
X192808628Y-69452380D02*
X192761009Y-69642856D01*
X192761009Y-69642856D02*
X192713390Y-69738094D01*
X192713390Y-69738094D02*
X192665771Y-69785713D01*
X192665771Y-69785713D02*
X192570533Y-69833332D01*
X192570533Y-69833332D02*
X192475295Y-69833332D01*
X192475295Y-69833332D02*
X192380057Y-69785713D01*
X192380057Y-69785713D02*
X192332438Y-69738094D01*
X192332438Y-69738094D02*
X192284819Y-69642856D01*
X192284819Y-69642856D02*
X192284819Y-69404761D01*
X192284819Y-69404761D02*
X192332438Y-69261904D01*
X192284819Y-68928570D02*
X193284819Y-68690475D01*
X193284819Y-68690475D02*
X192570533Y-68499999D01*
X192570533Y-68499999D02*
X193284819Y-68309523D01*
X193284819Y-68309523D02*
X192284819Y-68071428D01*
X193284819Y-67166666D02*
X193284819Y-67738094D01*
X193284819Y-67452380D02*
X192284819Y-67452380D01*
X192284819Y-67452380D02*
X192427676Y-67547618D01*
X192427676Y-67547618D02*
X192522914Y-67642856D01*
X192522914Y-67642856D02*
X192570533Y-67738094D01*
X182833333Y-92699580D02*
X182785714Y-92747200D01*
X182785714Y-92747200D02*
X182642857Y-92794819D01*
X182642857Y-92794819D02*
X182547619Y-92794819D01*
X182547619Y-92794819D02*
X182404762Y-92747200D01*
X182404762Y-92747200D02*
X182309524Y-92651961D01*
X182309524Y-92651961D02*
X182261905Y-92556723D01*
X182261905Y-92556723D02*
X182214286Y-92366247D01*
X182214286Y-92366247D02*
X182214286Y-92223390D01*
X182214286Y-92223390D02*
X182261905Y-92032914D01*
X182261905Y-92032914D02*
X182309524Y-91937676D01*
X182309524Y-91937676D02*
X182404762Y-91842438D01*
X182404762Y-91842438D02*
X182547619Y-91794819D01*
X182547619Y-91794819D02*
X182642857Y-91794819D01*
X182642857Y-91794819D02*
X182785714Y-91842438D01*
X182785714Y-91842438D02*
X182833333Y-91890057D01*
X183785714Y-92794819D02*
X183214286Y-92794819D01*
X183500000Y-92794819D02*
X183500000Y-91794819D01*
X183500000Y-91794819D02*
X183404762Y-91937676D01*
X183404762Y-91937676D02*
X183309524Y-92032914D01*
X183309524Y-92032914D02*
X183214286Y-92080533D01*
X122454819Y-67238094D02*
X123264342Y-67238094D01*
X123264342Y-67238094D02*
X123359580Y-67190475D01*
X123359580Y-67190475D02*
X123407200Y-67142856D01*
X123407200Y-67142856D02*
X123454819Y-67047618D01*
X123454819Y-67047618D02*
X123454819Y-66857142D01*
X123454819Y-66857142D02*
X123407200Y-66761904D01*
X123407200Y-66761904D02*
X123359580Y-66714285D01*
X123359580Y-66714285D02*
X123264342Y-66666666D01*
X123264342Y-66666666D02*
X122454819Y-66666666D01*
X123454819Y-65666666D02*
X123454819Y-66238094D01*
X123454819Y-65952380D02*
X122454819Y-65952380D01*
X122454819Y-65952380D02*
X122597676Y-66047618D01*
X122597676Y-66047618D02*
X122692914Y-66142856D01*
X122692914Y-66142856D02*
X122740533Y-66238094D01*
X122454819Y-65047618D02*
X122454819Y-64952380D01*
X122454819Y-64952380D02*
X122502438Y-64857142D01*
X122502438Y-64857142D02*
X122550057Y-64809523D01*
X122550057Y-64809523D02*
X122645295Y-64761904D01*
X122645295Y-64761904D02*
X122835771Y-64714285D01*
X122835771Y-64714285D02*
X123073866Y-64714285D01*
X123073866Y-64714285D02*
X123264342Y-64761904D01*
X123264342Y-64761904D02*
X123359580Y-64809523D01*
X123359580Y-64809523D02*
X123407200Y-64857142D01*
X123407200Y-64857142D02*
X123454819Y-64952380D01*
X123454819Y-64952380D02*
X123454819Y-65047618D01*
X123454819Y-65047618D02*
X123407200Y-65142856D01*
X123407200Y-65142856D02*
X123359580Y-65190475D01*
X123359580Y-65190475D02*
X123264342Y-65238094D01*
X123264342Y-65238094D02*
X123073866Y-65285713D01*
X123073866Y-65285713D02*
X122835771Y-65285713D01*
X122835771Y-65285713D02*
X122645295Y-65238094D01*
X122645295Y-65238094D02*
X122550057Y-65190475D01*
X122550057Y-65190475D02*
X122502438Y-65142856D01*
X122502438Y-65142856D02*
X122454819Y-65047618D01*
X121091220Y-67739899D02*
X121329315Y-67739899D01*
X121234077Y-67977994D02*
X121329315Y-67739899D01*
X121329315Y-67739899D02*
X121234077Y-67501804D01*
X121519791Y-67882756D02*
X121329315Y-67739899D01*
X121329315Y-67739899D02*
X121519791Y-67597042D01*
X121091220Y-67739899D02*
X121329315Y-67739899D01*
X121234077Y-67977994D02*
X121329315Y-67739899D01*
X121329315Y-67739899D02*
X121234077Y-67501804D01*
X121519791Y-67882756D02*
X121329315Y-67739899D01*
X121329315Y-67739899D02*
X121519791Y-67597042D01*
X199954819Y-44738094D02*
X200764342Y-44738094D01*
X200764342Y-44738094D02*
X200859580Y-44690475D01*
X200859580Y-44690475D02*
X200907200Y-44642856D01*
X200907200Y-44642856D02*
X200954819Y-44547618D01*
X200954819Y-44547618D02*
X200954819Y-44357142D01*
X200954819Y-44357142D02*
X200907200Y-44261904D01*
X200907200Y-44261904D02*
X200859580Y-44214285D01*
X200859580Y-44214285D02*
X200764342Y-44166666D01*
X200764342Y-44166666D02*
X199954819Y-44166666D01*
X200050057Y-43738094D02*
X200002438Y-43690475D01*
X200002438Y-43690475D02*
X199954819Y-43595237D01*
X199954819Y-43595237D02*
X199954819Y-43357142D01*
X199954819Y-43357142D02*
X200002438Y-43261904D01*
X200002438Y-43261904D02*
X200050057Y-43214285D01*
X200050057Y-43214285D02*
X200145295Y-43166666D01*
X200145295Y-43166666D02*
X200240533Y-43166666D01*
X200240533Y-43166666D02*
X200383390Y-43214285D01*
X200383390Y-43214285D02*
X200954819Y-43785713D01*
X200954819Y-43785713D02*
X200954819Y-43166666D01*
X199954819Y-42833332D02*
X199954819Y-42214285D01*
X199954819Y-42214285D02*
X200335771Y-42547618D01*
X200335771Y-42547618D02*
X200335771Y-42404761D01*
X200335771Y-42404761D02*
X200383390Y-42309523D01*
X200383390Y-42309523D02*
X200431009Y-42261904D01*
X200431009Y-42261904D02*
X200526247Y-42214285D01*
X200526247Y-42214285D02*
X200764342Y-42214285D01*
X200764342Y-42214285D02*
X200859580Y-42261904D01*
X200859580Y-42261904D02*
X200907200Y-42309523D01*
X200907200Y-42309523D02*
X200954819Y-42404761D01*
X200954819Y-42404761D02*
X200954819Y-42690475D01*
X200954819Y-42690475D02*
X200907200Y-42785713D01*
X200907200Y-42785713D02*
X200859580Y-42833332D01*
X198591220Y-45239899D02*
X198829315Y-45239899D01*
X198734077Y-45477994D02*
X198829315Y-45239899D01*
X198829315Y-45239899D02*
X198734077Y-45001804D01*
X199019791Y-45382756D02*
X198829315Y-45239899D01*
X198829315Y-45239899D02*
X199019791Y-45097042D01*
X198591220Y-45239899D02*
X198829315Y-45239899D01*
X198734077Y-45477994D02*
X198829315Y-45239899D01*
X198829315Y-45239899D02*
X198734077Y-45001804D01*
X199019791Y-45382756D02*
X198829315Y-45239899D01*
X198829315Y-45239899D02*
X199019791Y-45097042D01*
X140454819Y-76238094D02*
X141264342Y-76238094D01*
X141264342Y-76238094D02*
X141359580Y-76190475D01*
X141359580Y-76190475D02*
X141407200Y-76142856D01*
X141407200Y-76142856D02*
X141454819Y-76047618D01*
X141454819Y-76047618D02*
X141454819Y-75857142D01*
X141454819Y-75857142D02*
X141407200Y-75761904D01*
X141407200Y-75761904D02*
X141359580Y-75714285D01*
X141359580Y-75714285D02*
X141264342Y-75666666D01*
X141264342Y-75666666D02*
X140454819Y-75666666D01*
X141454819Y-74666666D02*
X141454819Y-75238094D01*
X141454819Y-74952380D02*
X140454819Y-74952380D01*
X140454819Y-74952380D02*
X140597676Y-75047618D01*
X140597676Y-75047618D02*
X140692914Y-75142856D01*
X140692914Y-75142856D02*
X140740533Y-75238094D01*
X140454819Y-74333332D02*
X140454819Y-73714285D01*
X140454819Y-73714285D02*
X140835771Y-74047618D01*
X140835771Y-74047618D02*
X140835771Y-73904761D01*
X140835771Y-73904761D02*
X140883390Y-73809523D01*
X140883390Y-73809523D02*
X140931009Y-73761904D01*
X140931009Y-73761904D02*
X141026247Y-73714285D01*
X141026247Y-73714285D02*
X141264342Y-73714285D01*
X141264342Y-73714285D02*
X141359580Y-73761904D01*
X141359580Y-73761904D02*
X141407200Y-73809523D01*
X141407200Y-73809523D02*
X141454819Y-73904761D01*
X141454819Y-73904761D02*
X141454819Y-74190475D01*
X141454819Y-74190475D02*
X141407200Y-74285713D01*
X141407200Y-74285713D02*
X141359580Y-74333332D01*
X139091220Y-76739899D02*
X139329315Y-76739899D01*
X139234077Y-76977994D02*
X139329315Y-76739899D01*
X139329315Y-76739899D02*
X139234077Y-76501804D01*
X139519791Y-76882756D02*
X139329315Y-76739899D01*
X139329315Y-76739899D02*
X139519791Y-76597042D01*
X139091220Y-76739899D02*
X139329315Y-76739899D01*
X139234077Y-76977994D02*
X139329315Y-76739899D01*
X139329315Y-76739899D02*
X139234077Y-76501804D01*
X139519791Y-76882756D02*
X139329315Y-76739899D01*
X139329315Y-76739899D02*
X139519791Y-76597042D01*
X86454819Y-48761904D02*
X87264342Y-48761904D01*
X87264342Y-48761904D02*
X87359580Y-48714285D01*
X87359580Y-48714285D02*
X87407200Y-48666666D01*
X87407200Y-48666666D02*
X87454819Y-48571428D01*
X87454819Y-48571428D02*
X87454819Y-48380952D01*
X87454819Y-48380952D02*
X87407200Y-48285714D01*
X87407200Y-48285714D02*
X87359580Y-48238095D01*
X87359580Y-48238095D02*
X87264342Y-48190476D01*
X87264342Y-48190476D02*
X86454819Y-48190476D01*
X86788152Y-47285714D02*
X87454819Y-47285714D01*
X86407200Y-47523809D02*
X87121485Y-47761904D01*
X87121485Y-47761904D02*
X87121485Y-47142857D01*
X85091220Y-49739899D02*
X85329315Y-49739899D01*
X85234077Y-49977994D02*
X85329315Y-49739899D01*
X85329315Y-49739899D02*
X85234077Y-49501804D01*
X85519791Y-49882756D02*
X85329315Y-49739899D01*
X85329315Y-49739899D02*
X85519791Y-49597042D01*
X85091220Y-49739899D02*
X85329315Y-49739899D01*
X85234077Y-49977994D02*
X85329315Y-49739899D01*
X85329315Y-49739899D02*
X85234077Y-49501804D01*
X85519791Y-49882756D02*
X85329315Y-49739899D01*
X85329315Y-49739899D02*
X85519791Y-49597042D01*
X194454819Y-47738094D02*
X195264342Y-47738094D01*
X195264342Y-47738094D02*
X195359580Y-47690475D01*
X195359580Y-47690475D02*
X195407200Y-47642856D01*
X195407200Y-47642856D02*
X195454819Y-47547618D01*
X195454819Y-47547618D02*
X195454819Y-47357142D01*
X195454819Y-47357142D02*
X195407200Y-47261904D01*
X195407200Y-47261904D02*
X195359580Y-47214285D01*
X195359580Y-47214285D02*
X195264342Y-47166666D01*
X195264342Y-47166666D02*
X194454819Y-47166666D01*
X194550057Y-46738094D02*
X194502438Y-46690475D01*
X194502438Y-46690475D02*
X194454819Y-46595237D01*
X194454819Y-46595237D02*
X194454819Y-46357142D01*
X194454819Y-46357142D02*
X194502438Y-46261904D01*
X194502438Y-46261904D02*
X194550057Y-46214285D01*
X194550057Y-46214285D02*
X194645295Y-46166666D01*
X194645295Y-46166666D02*
X194740533Y-46166666D01*
X194740533Y-46166666D02*
X194883390Y-46214285D01*
X194883390Y-46214285D02*
X195454819Y-46785713D01*
X195454819Y-46785713D02*
X195454819Y-46166666D01*
X194550057Y-45785713D02*
X194502438Y-45738094D01*
X194502438Y-45738094D02*
X194454819Y-45642856D01*
X194454819Y-45642856D02*
X194454819Y-45404761D01*
X194454819Y-45404761D02*
X194502438Y-45309523D01*
X194502438Y-45309523D02*
X194550057Y-45261904D01*
X194550057Y-45261904D02*
X194645295Y-45214285D01*
X194645295Y-45214285D02*
X194740533Y-45214285D01*
X194740533Y-45214285D02*
X194883390Y-45261904D01*
X194883390Y-45261904D02*
X195454819Y-45833332D01*
X195454819Y-45833332D02*
X195454819Y-45214285D01*
X193091220Y-48239899D02*
X193329315Y-48239899D01*
X193234077Y-48477994D02*
X193329315Y-48239899D01*
X193329315Y-48239899D02*
X193234077Y-48001804D01*
X193519791Y-48382756D02*
X193329315Y-48239899D01*
X193329315Y-48239899D02*
X193519791Y-48097042D01*
X193091220Y-48239899D02*
X193329315Y-48239899D01*
X193234077Y-48477994D02*
X193329315Y-48239899D01*
X193329315Y-48239899D02*
X193234077Y-48001804D01*
X193519791Y-48382756D02*
X193329315Y-48239899D01*
X193329315Y-48239899D02*
X193519791Y-48097042D01*
X128454819Y-70238094D02*
X129264342Y-70238094D01*
X129264342Y-70238094D02*
X129359580Y-70190475D01*
X129359580Y-70190475D02*
X129407200Y-70142856D01*
X129407200Y-70142856D02*
X129454819Y-70047618D01*
X129454819Y-70047618D02*
X129454819Y-69857142D01*
X129454819Y-69857142D02*
X129407200Y-69761904D01*
X129407200Y-69761904D02*
X129359580Y-69714285D01*
X129359580Y-69714285D02*
X129264342Y-69666666D01*
X129264342Y-69666666D02*
X128454819Y-69666666D01*
X129454819Y-68666666D02*
X129454819Y-69238094D01*
X129454819Y-68952380D02*
X128454819Y-68952380D01*
X128454819Y-68952380D02*
X128597676Y-69047618D01*
X128597676Y-69047618D02*
X128692914Y-69142856D01*
X128692914Y-69142856D02*
X128740533Y-69238094D01*
X129454819Y-67714285D02*
X129454819Y-68285713D01*
X129454819Y-67999999D02*
X128454819Y-67999999D01*
X128454819Y-67999999D02*
X128597676Y-68095237D01*
X128597676Y-68095237D02*
X128692914Y-68190475D01*
X128692914Y-68190475D02*
X128740533Y-68285713D01*
X127091220Y-70739899D02*
X127329315Y-70739899D01*
X127234077Y-70977994D02*
X127329315Y-70739899D01*
X127329315Y-70739899D02*
X127234077Y-70501804D01*
X127519791Y-70882756D02*
X127329315Y-70739899D01*
X127329315Y-70739899D02*
X127519791Y-70597042D01*
X127091220Y-70739899D02*
X127329315Y-70739899D01*
X127234077Y-70977994D02*
X127329315Y-70739899D01*
X127329315Y-70739899D02*
X127234077Y-70501804D01*
X127519791Y-70882756D02*
X127329315Y-70739899D01*
X127329315Y-70739899D02*
X127519791Y-70597042D01*
X198246905Y-78284819D02*
X198246905Y-77284819D01*
X198246905Y-77284819D02*
X198485000Y-77284819D01*
X198485000Y-77284819D02*
X198627857Y-77332438D01*
X198627857Y-77332438D02*
X198723095Y-77427676D01*
X198723095Y-77427676D02*
X198770714Y-77522914D01*
X198770714Y-77522914D02*
X198818333Y-77713390D01*
X198818333Y-77713390D02*
X198818333Y-77856247D01*
X198818333Y-77856247D02*
X198770714Y-78046723D01*
X198770714Y-78046723D02*
X198723095Y-78141961D01*
X198723095Y-78141961D02*
X198627857Y-78237200D01*
X198627857Y-78237200D02*
X198485000Y-78284819D01*
X198485000Y-78284819D02*
X198246905Y-78284819D01*
X199770714Y-78284819D02*
X199199286Y-78284819D01*
X199485000Y-78284819D02*
X199485000Y-77284819D01*
X199485000Y-77284819D02*
X199389762Y-77427676D01*
X199389762Y-77427676D02*
X199294524Y-77522914D01*
X199294524Y-77522914D02*
X199199286Y-77570533D01*
X146454819Y-71738094D02*
X147264342Y-71738094D01*
X147264342Y-71738094D02*
X147359580Y-71690475D01*
X147359580Y-71690475D02*
X147407200Y-71642856D01*
X147407200Y-71642856D02*
X147454819Y-71547618D01*
X147454819Y-71547618D02*
X147454819Y-71357142D01*
X147454819Y-71357142D02*
X147407200Y-71261904D01*
X147407200Y-71261904D02*
X147359580Y-71214285D01*
X147359580Y-71214285D02*
X147264342Y-71166666D01*
X147264342Y-71166666D02*
X146454819Y-71166666D01*
X147454819Y-70166666D02*
X147454819Y-70738094D01*
X147454819Y-70452380D02*
X146454819Y-70452380D01*
X146454819Y-70452380D02*
X146597676Y-70547618D01*
X146597676Y-70547618D02*
X146692914Y-70642856D01*
X146692914Y-70642856D02*
X146740533Y-70738094D01*
X146788152Y-69309523D02*
X147454819Y-69309523D01*
X146407200Y-69547618D02*
X147121485Y-69785713D01*
X147121485Y-69785713D02*
X147121485Y-69166666D01*
X145091220Y-72239899D02*
X145329315Y-72239899D01*
X145234077Y-72477994D02*
X145329315Y-72239899D01*
X145329315Y-72239899D02*
X145234077Y-72001804D01*
X145519791Y-72382756D02*
X145329315Y-72239899D01*
X145329315Y-72239899D02*
X145519791Y-72097042D01*
X145091220Y-72239899D02*
X145329315Y-72239899D01*
X145234077Y-72477994D02*
X145329315Y-72239899D01*
X145329315Y-72239899D02*
X145234077Y-72001804D01*
X145519791Y-72382756D02*
X145329315Y-72239899D01*
X145329315Y-72239899D02*
X145519791Y-72097042D01*
X176454819Y-56738094D02*
X177264342Y-56738094D01*
X177264342Y-56738094D02*
X177359580Y-56690475D01*
X177359580Y-56690475D02*
X177407200Y-56642856D01*
X177407200Y-56642856D02*
X177454819Y-56547618D01*
X177454819Y-56547618D02*
X177454819Y-56357142D01*
X177454819Y-56357142D02*
X177407200Y-56261904D01*
X177407200Y-56261904D02*
X177359580Y-56214285D01*
X177359580Y-56214285D02*
X177264342Y-56166666D01*
X177264342Y-56166666D02*
X176454819Y-56166666D01*
X177454819Y-55166666D02*
X177454819Y-55738094D01*
X177454819Y-55452380D02*
X176454819Y-55452380D01*
X176454819Y-55452380D02*
X176597676Y-55547618D01*
X176597676Y-55547618D02*
X176692914Y-55642856D01*
X176692914Y-55642856D02*
X176740533Y-55738094D01*
X177454819Y-54690475D02*
X177454819Y-54499999D01*
X177454819Y-54499999D02*
X177407200Y-54404761D01*
X177407200Y-54404761D02*
X177359580Y-54357142D01*
X177359580Y-54357142D02*
X177216723Y-54261904D01*
X177216723Y-54261904D02*
X177026247Y-54214285D01*
X177026247Y-54214285D02*
X176645295Y-54214285D01*
X176645295Y-54214285D02*
X176550057Y-54261904D01*
X176550057Y-54261904D02*
X176502438Y-54309523D01*
X176502438Y-54309523D02*
X176454819Y-54404761D01*
X176454819Y-54404761D02*
X176454819Y-54595237D01*
X176454819Y-54595237D02*
X176502438Y-54690475D01*
X176502438Y-54690475D02*
X176550057Y-54738094D01*
X176550057Y-54738094D02*
X176645295Y-54785713D01*
X176645295Y-54785713D02*
X176883390Y-54785713D01*
X176883390Y-54785713D02*
X176978628Y-54738094D01*
X176978628Y-54738094D02*
X177026247Y-54690475D01*
X177026247Y-54690475D02*
X177073866Y-54595237D01*
X177073866Y-54595237D02*
X177073866Y-54404761D01*
X177073866Y-54404761D02*
X177026247Y-54309523D01*
X177026247Y-54309523D02*
X176978628Y-54261904D01*
X176978628Y-54261904D02*
X176883390Y-54214285D01*
X175091220Y-57239899D02*
X175329315Y-57239899D01*
X175234077Y-57477994D02*
X175329315Y-57239899D01*
X175329315Y-57239899D02*
X175234077Y-57001804D01*
X175519791Y-57382756D02*
X175329315Y-57239899D01*
X175329315Y-57239899D02*
X175519791Y-57097042D01*
X175091220Y-57239899D02*
X175329315Y-57239899D01*
X175234077Y-57477994D02*
X175329315Y-57239899D01*
X175329315Y-57239899D02*
X175234077Y-57001804D01*
X175519791Y-57382756D02*
X175329315Y-57239899D01*
X175329315Y-57239899D02*
X175519791Y-57097042D01*
X200333333Y-39284819D02*
X200000000Y-38808628D01*
X199761905Y-39284819D02*
X199761905Y-38284819D01*
X199761905Y-38284819D02*
X200142857Y-38284819D01*
X200142857Y-38284819D02*
X200238095Y-38332438D01*
X200238095Y-38332438D02*
X200285714Y-38380057D01*
X200285714Y-38380057D02*
X200333333Y-38475295D01*
X200333333Y-38475295D02*
X200333333Y-38618152D01*
X200333333Y-38618152D02*
X200285714Y-38713390D01*
X200285714Y-38713390D02*
X200238095Y-38761009D01*
X200238095Y-38761009D02*
X200142857Y-38808628D01*
X200142857Y-38808628D02*
X199761905Y-38808628D01*
X201285714Y-39284819D02*
X200714286Y-39284819D01*
X201000000Y-39284819D02*
X201000000Y-38284819D01*
X201000000Y-38284819D02*
X200904762Y-38427676D01*
X200904762Y-38427676D02*
X200809524Y-38522914D01*
X200809524Y-38522914D02*
X200714286Y-38570533D01*
X169254819Y-70611904D02*
X170064342Y-70611904D01*
X170064342Y-70611904D02*
X170159580Y-70564285D01*
X170159580Y-70564285D02*
X170207200Y-70516666D01*
X170207200Y-70516666D02*
X170254819Y-70421428D01*
X170254819Y-70421428D02*
X170254819Y-70230952D01*
X170254819Y-70230952D02*
X170207200Y-70135714D01*
X170207200Y-70135714D02*
X170159580Y-70088095D01*
X170159580Y-70088095D02*
X170064342Y-70040476D01*
X170064342Y-70040476D02*
X169254819Y-70040476D01*
X170254819Y-69040476D02*
X170254819Y-69611904D01*
X170254819Y-69326190D02*
X169254819Y-69326190D01*
X169254819Y-69326190D02*
X169397676Y-69421428D01*
X169397676Y-69421428D02*
X169492914Y-69516666D01*
X169492914Y-69516666D02*
X169540533Y-69611904D01*
X110454819Y-60761904D02*
X111264342Y-60761904D01*
X111264342Y-60761904D02*
X111359580Y-60714285D01*
X111359580Y-60714285D02*
X111407200Y-60666666D01*
X111407200Y-60666666D02*
X111454819Y-60571428D01*
X111454819Y-60571428D02*
X111454819Y-60380952D01*
X111454819Y-60380952D02*
X111407200Y-60285714D01*
X111407200Y-60285714D02*
X111359580Y-60238095D01*
X111359580Y-60238095D02*
X111264342Y-60190476D01*
X111264342Y-60190476D02*
X110454819Y-60190476D01*
X110883390Y-59571428D02*
X110835771Y-59666666D01*
X110835771Y-59666666D02*
X110788152Y-59714285D01*
X110788152Y-59714285D02*
X110692914Y-59761904D01*
X110692914Y-59761904D02*
X110645295Y-59761904D01*
X110645295Y-59761904D02*
X110550057Y-59714285D01*
X110550057Y-59714285D02*
X110502438Y-59666666D01*
X110502438Y-59666666D02*
X110454819Y-59571428D01*
X110454819Y-59571428D02*
X110454819Y-59380952D01*
X110454819Y-59380952D02*
X110502438Y-59285714D01*
X110502438Y-59285714D02*
X110550057Y-59238095D01*
X110550057Y-59238095D02*
X110645295Y-59190476D01*
X110645295Y-59190476D02*
X110692914Y-59190476D01*
X110692914Y-59190476D02*
X110788152Y-59238095D01*
X110788152Y-59238095D02*
X110835771Y-59285714D01*
X110835771Y-59285714D02*
X110883390Y-59380952D01*
X110883390Y-59380952D02*
X110883390Y-59571428D01*
X110883390Y-59571428D02*
X110931009Y-59666666D01*
X110931009Y-59666666D02*
X110978628Y-59714285D01*
X110978628Y-59714285D02*
X111073866Y-59761904D01*
X111073866Y-59761904D02*
X111264342Y-59761904D01*
X111264342Y-59761904D02*
X111359580Y-59714285D01*
X111359580Y-59714285D02*
X111407200Y-59666666D01*
X111407200Y-59666666D02*
X111454819Y-59571428D01*
X111454819Y-59571428D02*
X111454819Y-59380952D01*
X111454819Y-59380952D02*
X111407200Y-59285714D01*
X111407200Y-59285714D02*
X111359580Y-59238095D01*
X111359580Y-59238095D02*
X111264342Y-59190476D01*
X111264342Y-59190476D02*
X111073866Y-59190476D01*
X111073866Y-59190476D02*
X110978628Y-59238095D01*
X110978628Y-59238095D02*
X110931009Y-59285714D01*
X110931009Y-59285714D02*
X110883390Y-59380952D01*
X109091220Y-61739899D02*
X109329315Y-61739899D01*
X109234077Y-61977994D02*
X109329315Y-61739899D01*
X109329315Y-61739899D02*
X109234077Y-61501804D01*
X109519791Y-61882756D02*
X109329315Y-61739899D01*
X109329315Y-61739899D02*
X109519791Y-61597042D01*
X109091220Y-61739899D02*
X109329315Y-61739899D01*
X109234077Y-61977994D02*
X109329315Y-61739899D01*
X109329315Y-61739899D02*
X109234077Y-61501804D01*
X109519791Y-61882756D02*
X109329315Y-61739899D01*
X109329315Y-61739899D02*
X109519791Y-61597042D01*
X92454819Y-51761904D02*
X93264342Y-51761904D01*
X93264342Y-51761904D02*
X93359580Y-51714285D01*
X93359580Y-51714285D02*
X93407200Y-51666666D01*
X93407200Y-51666666D02*
X93454819Y-51571428D01*
X93454819Y-51571428D02*
X93454819Y-51380952D01*
X93454819Y-51380952D02*
X93407200Y-51285714D01*
X93407200Y-51285714D02*
X93359580Y-51238095D01*
X93359580Y-51238095D02*
X93264342Y-51190476D01*
X93264342Y-51190476D02*
X92454819Y-51190476D01*
X92454819Y-50238095D02*
X92454819Y-50714285D01*
X92454819Y-50714285D02*
X92931009Y-50761904D01*
X92931009Y-50761904D02*
X92883390Y-50714285D01*
X92883390Y-50714285D02*
X92835771Y-50619047D01*
X92835771Y-50619047D02*
X92835771Y-50380952D01*
X92835771Y-50380952D02*
X92883390Y-50285714D01*
X92883390Y-50285714D02*
X92931009Y-50238095D01*
X92931009Y-50238095D02*
X93026247Y-50190476D01*
X93026247Y-50190476D02*
X93264342Y-50190476D01*
X93264342Y-50190476D02*
X93359580Y-50238095D01*
X93359580Y-50238095D02*
X93407200Y-50285714D01*
X93407200Y-50285714D02*
X93454819Y-50380952D01*
X93454819Y-50380952D02*
X93454819Y-50619047D01*
X93454819Y-50619047D02*
X93407200Y-50714285D01*
X93407200Y-50714285D02*
X93359580Y-50761904D01*
X91091220Y-52739899D02*
X91329315Y-52739899D01*
X91234077Y-52977994D02*
X91329315Y-52739899D01*
X91329315Y-52739899D02*
X91234077Y-52501804D01*
X91519791Y-52882756D02*
X91329315Y-52739899D01*
X91329315Y-52739899D02*
X91519791Y-52597042D01*
X91091220Y-52739899D02*
X91329315Y-52739899D01*
X91234077Y-52977994D02*
X91329315Y-52739899D01*
X91329315Y-52739899D02*
X91234077Y-52501804D01*
X91519791Y-52882756D02*
X91329315Y-52739899D01*
X91329315Y-52739899D02*
X91519791Y-52597042D01*
X190833333Y-78454819D02*
X190500000Y-77978628D01*
X190261905Y-78454819D02*
X190261905Y-77454819D01*
X190261905Y-77454819D02*
X190642857Y-77454819D01*
X190642857Y-77454819D02*
X190738095Y-77502438D01*
X190738095Y-77502438D02*
X190785714Y-77550057D01*
X190785714Y-77550057D02*
X190833333Y-77645295D01*
X190833333Y-77645295D02*
X190833333Y-77788152D01*
X190833333Y-77788152D02*
X190785714Y-77883390D01*
X190785714Y-77883390D02*
X190738095Y-77931009D01*
X190738095Y-77931009D02*
X190642857Y-77978628D01*
X190642857Y-77978628D02*
X190261905Y-77978628D01*
X191690476Y-77788152D02*
X191690476Y-78454819D01*
X191452381Y-77407200D02*
X191214286Y-78121485D01*
X191214286Y-78121485D02*
X191833333Y-78121485D01*
X184736905Y-76459819D02*
X184736905Y-77269342D01*
X184736905Y-77269342D02*
X184784524Y-77364580D01*
X184784524Y-77364580D02*
X184832143Y-77412200D01*
X184832143Y-77412200D02*
X184927381Y-77459819D01*
X184927381Y-77459819D02*
X185117857Y-77459819D01*
X185117857Y-77459819D02*
X185213095Y-77412200D01*
X185213095Y-77412200D02*
X185260714Y-77364580D01*
X185260714Y-77364580D02*
X185308333Y-77269342D01*
X185308333Y-77269342D02*
X185308333Y-76459819D01*
X185736905Y-76555057D02*
X185784524Y-76507438D01*
X185784524Y-76507438D02*
X185879762Y-76459819D01*
X185879762Y-76459819D02*
X186117857Y-76459819D01*
X186117857Y-76459819D02*
X186213095Y-76507438D01*
X186213095Y-76507438D02*
X186260714Y-76555057D01*
X186260714Y-76555057D02*
X186308333Y-76650295D01*
X186308333Y-76650295D02*
X186308333Y-76745533D01*
X186308333Y-76745533D02*
X186260714Y-76888390D01*
X186260714Y-76888390D02*
X185689286Y-77459819D01*
X185689286Y-77459819D02*
X186308333Y-77459819D01*
X187165476Y-76793152D02*
X187165476Y-77459819D01*
X186927381Y-76412200D02*
X186689286Y-77126485D01*
X186689286Y-77126485D02*
X187308333Y-77126485D01*
X134454819Y-73238094D02*
X135264342Y-73238094D01*
X135264342Y-73238094D02*
X135359580Y-73190475D01*
X135359580Y-73190475D02*
X135407200Y-73142856D01*
X135407200Y-73142856D02*
X135454819Y-73047618D01*
X135454819Y-73047618D02*
X135454819Y-72857142D01*
X135454819Y-72857142D02*
X135407200Y-72761904D01*
X135407200Y-72761904D02*
X135359580Y-72714285D01*
X135359580Y-72714285D02*
X135264342Y-72666666D01*
X135264342Y-72666666D02*
X134454819Y-72666666D01*
X135454819Y-71666666D02*
X135454819Y-72238094D01*
X135454819Y-71952380D02*
X134454819Y-71952380D01*
X134454819Y-71952380D02*
X134597676Y-72047618D01*
X134597676Y-72047618D02*
X134692914Y-72142856D01*
X134692914Y-72142856D02*
X134740533Y-72238094D01*
X134550057Y-71285713D02*
X134502438Y-71238094D01*
X134502438Y-71238094D02*
X134454819Y-71142856D01*
X134454819Y-71142856D02*
X134454819Y-70904761D01*
X134454819Y-70904761D02*
X134502438Y-70809523D01*
X134502438Y-70809523D02*
X134550057Y-70761904D01*
X134550057Y-70761904D02*
X134645295Y-70714285D01*
X134645295Y-70714285D02*
X134740533Y-70714285D01*
X134740533Y-70714285D02*
X134883390Y-70761904D01*
X134883390Y-70761904D02*
X135454819Y-71333332D01*
X135454819Y-71333332D02*
X135454819Y-70714285D01*
X133091220Y-73739899D02*
X133329315Y-73739899D01*
X133234077Y-73977994D02*
X133329315Y-73739899D01*
X133329315Y-73739899D02*
X133234077Y-73501804D01*
X133519791Y-73882756D02*
X133329315Y-73739899D01*
X133329315Y-73739899D02*
X133519791Y-73597042D01*
X133091220Y-73739899D02*
X133329315Y-73739899D01*
X133234077Y-73977994D02*
X133329315Y-73739899D01*
X133329315Y-73739899D02*
X133234077Y-73501804D01*
X133519791Y-73882756D02*
X133329315Y-73739899D01*
X133329315Y-73739899D02*
X133519791Y-73597042D01*
X104454819Y-57761904D02*
X105264342Y-57761904D01*
X105264342Y-57761904D02*
X105359580Y-57714285D01*
X105359580Y-57714285D02*
X105407200Y-57666666D01*
X105407200Y-57666666D02*
X105454819Y-57571428D01*
X105454819Y-57571428D02*
X105454819Y-57380952D01*
X105454819Y-57380952D02*
X105407200Y-57285714D01*
X105407200Y-57285714D02*
X105359580Y-57238095D01*
X105359580Y-57238095D02*
X105264342Y-57190476D01*
X105264342Y-57190476D02*
X104454819Y-57190476D01*
X104454819Y-56809523D02*
X104454819Y-56142857D01*
X104454819Y-56142857D02*
X105454819Y-56571428D01*
X103091220Y-58739899D02*
X103329315Y-58739899D01*
X103234077Y-58977994D02*
X103329315Y-58739899D01*
X103329315Y-58739899D02*
X103234077Y-58501804D01*
X103519791Y-58882756D02*
X103329315Y-58739899D01*
X103329315Y-58739899D02*
X103519791Y-58597042D01*
X103091220Y-58739899D02*
X103329315Y-58739899D01*
X103234077Y-58977994D02*
X103329315Y-58739899D01*
X103329315Y-58739899D02*
X103234077Y-58501804D01*
X103519791Y-58882756D02*
X103329315Y-58739899D01*
X103329315Y-58739899D02*
X103519791Y-58597042D01*
X198823333Y-80784819D02*
X198490000Y-80308628D01*
X198251905Y-80784819D02*
X198251905Y-79784819D01*
X198251905Y-79784819D02*
X198632857Y-79784819D01*
X198632857Y-79784819D02*
X198728095Y-79832438D01*
X198728095Y-79832438D02*
X198775714Y-79880057D01*
X198775714Y-79880057D02*
X198823333Y-79975295D01*
X198823333Y-79975295D02*
X198823333Y-80118152D01*
X198823333Y-80118152D02*
X198775714Y-80213390D01*
X198775714Y-80213390D02*
X198728095Y-80261009D01*
X198728095Y-80261009D02*
X198632857Y-80308628D01*
X198632857Y-80308628D02*
X198251905Y-80308628D01*
X199204286Y-79880057D02*
X199251905Y-79832438D01*
X199251905Y-79832438D02*
X199347143Y-79784819D01*
X199347143Y-79784819D02*
X199585238Y-79784819D01*
X199585238Y-79784819D02*
X199680476Y-79832438D01*
X199680476Y-79832438D02*
X199728095Y-79880057D01*
X199728095Y-79880057D02*
X199775714Y-79975295D01*
X199775714Y-79975295D02*
X199775714Y-80070533D01*
X199775714Y-80070533D02*
X199728095Y-80213390D01*
X199728095Y-80213390D02*
X199156667Y-80784819D01*
X199156667Y-80784819D02*
X199775714Y-80784819D01*
X170454819Y-59738094D02*
X171264342Y-59738094D01*
X171264342Y-59738094D02*
X171359580Y-59690475D01*
X171359580Y-59690475D02*
X171407200Y-59642856D01*
X171407200Y-59642856D02*
X171454819Y-59547618D01*
X171454819Y-59547618D02*
X171454819Y-59357142D01*
X171454819Y-59357142D02*
X171407200Y-59261904D01*
X171407200Y-59261904D02*
X171359580Y-59214285D01*
X171359580Y-59214285D02*
X171264342Y-59166666D01*
X171264342Y-59166666D02*
X170454819Y-59166666D01*
X171454819Y-58166666D02*
X171454819Y-58738094D01*
X171454819Y-58452380D02*
X170454819Y-58452380D01*
X170454819Y-58452380D02*
X170597676Y-58547618D01*
X170597676Y-58547618D02*
X170692914Y-58642856D01*
X170692914Y-58642856D02*
X170740533Y-58738094D01*
X170883390Y-57595237D02*
X170835771Y-57690475D01*
X170835771Y-57690475D02*
X170788152Y-57738094D01*
X170788152Y-57738094D02*
X170692914Y-57785713D01*
X170692914Y-57785713D02*
X170645295Y-57785713D01*
X170645295Y-57785713D02*
X170550057Y-57738094D01*
X170550057Y-57738094D02*
X170502438Y-57690475D01*
X170502438Y-57690475D02*
X170454819Y-57595237D01*
X170454819Y-57595237D02*
X170454819Y-57404761D01*
X170454819Y-57404761D02*
X170502438Y-57309523D01*
X170502438Y-57309523D02*
X170550057Y-57261904D01*
X170550057Y-57261904D02*
X170645295Y-57214285D01*
X170645295Y-57214285D02*
X170692914Y-57214285D01*
X170692914Y-57214285D02*
X170788152Y-57261904D01*
X170788152Y-57261904D02*
X170835771Y-57309523D01*
X170835771Y-57309523D02*
X170883390Y-57404761D01*
X170883390Y-57404761D02*
X170883390Y-57595237D01*
X170883390Y-57595237D02*
X170931009Y-57690475D01*
X170931009Y-57690475D02*
X170978628Y-57738094D01*
X170978628Y-57738094D02*
X171073866Y-57785713D01*
X171073866Y-57785713D02*
X171264342Y-57785713D01*
X171264342Y-57785713D02*
X171359580Y-57738094D01*
X171359580Y-57738094D02*
X171407200Y-57690475D01*
X171407200Y-57690475D02*
X171454819Y-57595237D01*
X171454819Y-57595237D02*
X171454819Y-57404761D01*
X171454819Y-57404761D02*
X171407200Y-57309523D01*
X171407200Y-57309523D02*
X171359580Y-57261904D01*
X171359580Y-57261904D02*
X171264342Y-57214285D01*
X171264342Y-57214285D02*
X171073866Y-57214285D01*
X171073866Y-57214285D02*
X170978628Y-57261904D01*
X170978628Y-57261904D02*
X170931009Y-57309523D01*
X170931009Y-57309523D02*
X170883390Y-57404761D01*
X169091220Y-60239899D02*
X169329315Y-60239899D01*
X169234077Y-60477994D02*
X169329315Y-60239899D01*
X169329315Y-60239899D02*
X169234077Y-60001804D01*
X169519791Y-60382756D02*
X169329315Y-60239899D01*
X169329315Y-60239899D02*
X169519791Y-60097042D01*
X169091220Y-60239899D02*
X169329315Y-60239899D01*
X169234077Y-60477994D02*
X169329315Y-60239899D01*
X169329315Y-60239899D02*
X169234077Y-60001804D01*
X169519791Y-60382756D02*
X169329315Y-60239899D01*
X169329315Y-60239899D02*
X169519791Y-60097042D01*
D13*
%TO.C,Q2*%
X195000000Y-79440000D02*
X194350000Y-79440000D01*
X195000000Y-79440000D02*
X195650000Y-79440000D01*
X195000000Y-82560000D02*
X194350000Y-82560000D01*
X195000000Y-82560000D02*
X195650000Y-82560000D01*
X193837500Y-79490000D02*
X193597500Y-79160000D01*
X194077500Y-79160000D01*
X193837500Y-79490000D01*
G36*
X193837500Y-79490000D02*
G01*
X193597500Y-79160000D01*
X194077500Y-79160000D01*
X193837500Y-79490000D01*
G37*
%TO.C,Q1*%
X195145000Y-75940000D02*
X194495000Y-75940000D01*
X195145000Y-75940000D02*
X195795000Y-75940000D01*
X195145000Y-79060000D02*
X194495000Y-79060000D01*
X195145000Y-79060000D02*
X195795000Y-79060000D01*
X193982500Y-75990000D02*
X193742500Y-75660000D01*
X194222500Y-75660000D01*
X193982500Y-75990000D01*
G36*
X193982500Y-75990000D02*
G01*
X193742500Y-75660000D01*
X194222500Y-75660000D01*
X193982500Y-75990000D01*
G37*
D14*
%TO.C,U6*%
X97869700Y-54781871D02*
X97869700Y-53218129D01*
X100130300Y-54781871D02*
X100130300Y-53218129D01*
%TO.C,U9*%
X115869700Y-63781871D02*
X115869700Y-62218129D01*
X118130300Y-63781871D02*
X118130300Y-62218129D01*
%TO.C,U20*%
X181869700Y-53281871D02*
X181869700Y-51718129D01*
X184130300Y-53281871D02*
X184130300Y-51718129D01*
D13*
%TO.C,J1*%
X193515000Y-87390000D02*
X193515000Y-86310000D01*
X193515000Y-91610000D02*
X193085000Y-91610000D01*
X193515000Y-92690000D02*
X193515000Y-91610000D01*
X198665000Y-85590000D02*
X195435000Y-85590000D01*
X198665000Y-93410000D02*
X195435000Y-93410000D01*
X202835000Y-85590000D02*
X200885000Y-85590000D01*
X202835000Y-85590000D02*
X202835000Y-93410000D01*
X202835000Y-93410000D02*
X200885000Y-93410000D01*
D14*
%TO.C,U21*%
X187869700Y-50281871D02*
X187869700Y-48718129D01*
X190130300Y-50281871D02*
X190130300Y-48718129D01*
D13*
%TO.C,U2*%
X159130000Y-77490000D02*
X160130000Y-77490000D01*
X159130000Y-78270000D02*
X159130000Y-77490000D01*
X159130000Y-103230000D02*
X159130000Y-96815000D01*
X177370000Y-77490000D02*
X176370000Y-77490000D01*
X177370000Y-78270000D02*
X177370000Y-77490000D01*
X177370000Y-103230000D02*
X159130000Y-103230000D01*
X177370000Y-103230000D02*
X177370000Y-97070000D01*
X177375000Y-96845000D02*
X177375000Y-96345000D01*
X177875000Y-96345000D01*
X177375000Y-96845000D01*
G36*
X177375000Y-96845000D02*
G01*
X177375000Y-96345000D01*
X177875000Y-96345000D01*
X177375000Y-96845000D01*
G37*
%TO.C,R3*%
X192120000Y-81653641D02*
X192120000Y-81346359D01*
X192880000Y-81653641D02*
X192880000Y-81346359D01*
D14*
%TO.C,U15*%
X151869700Y-68281871D02*
X151869700Y-66718129D01*
X154130300Y-68281871D02*
X154130300Y-66718129D01*
%TO.C,U17*%
X163869700Y-62281871D02*
X163869700Y-60718129D01*
X166130300Y-62281871D02*
X166130300Y-60718129D01*
D13*
%TO.C,BT1*%
X183120000Y-68354001D02*
X184500000Y-68354001D01*
X183120000Y-69734001D02*
X183120000Y-68354001D01*
X183120000Y-71004001D02*
X183120000Y-73654001D01*
X183120000Y-71004001D02*
X185880000Y-71004001D01*
X183120000Y-73654001D02*
X185880000Y-73654001D01*
X185880000Y-71004001D02*
X185880000Y-73654001D01*
D14*
%TO.C,U3*%
X80369700Y-45781871D02*
X80369700Y-44218129D01*
X82630300Y-45781871D02*
X82630300Y-44218129D01*
%TO.C,U16*%
X157869700Y-65281871D02*
X157869700Y-63718129D01*
X160130300Y-65281871D02*
X160130300Y-63718129D01*
D13*
%TO.C,SW1*%
X193920000Y-63485000D02*
X193920000Y-63505000D01*
X193920000Y-73495000D02*
X193920000Y-73515000D01*
X193920000Y-73515000D02*
X194420000Y-73515000D01*
X194420000Y-63485000D02*
X193920000Y-63485000D01*
X194420000Y-73515000D02*
X194420000Y-63485000D01*
X195435000Y-74935000D02*
X198510000Y-74935000D01*
X198510000Y-62065000D02*
X195435000Y-62065000D01*
X198510000Y-74935000D02*
X198510000Y-62065000D01*
%TO.C,C1*%
X182892164Y-93140000D02*
X183107836Y-93140000D01*
X182892164Y-93860000D02*
X183107836Y-93860000D01*
D14*
%TO.C,U10*%
X121869700Y-66781871D02*
X121869700Y-65218129D01*
X124130300Y-66781871D02*
X124130300Y-65218129D01*
%TO.C,U23*%
X199369700Y-44281871D02*
X199369700Y-42718129D01*
X201630300Y-44281871D02*
X201630300Y-42718129D01*
%TO.C,U13*%
X139869700Y-75781871D02*
X139869700Y-74218129D01*
X142130300Y-75781871D02*
X142130300Y-74218129D01*
%TO.C,U4*%
X85869700Y-48781871D02*
X85869700Y-47218129D01*
X88130300Y-48781871D02*
X88130300Y-47218129D01*
%TO.C,U22*%
X193869700Y-47281871D02*
X193869700Y-45718129D01*
X196130300Y-47281871D02*
X196130300Y-45718129D01*
%TO.C,U11*%
X127869700Y-69781871D02*
X127869700Y-68218129D01*
X130130300Y-69781871D02*
X130130300Y-68218129D01*
D10*
%TO.C,D1*%
X197945000Y-79000000D02*
G75*
G02*
X197845000Y-79000000I-50000J0D01*
G01*
X197845000Y-79000000D02*
G75*
G02*
X197945000Y-79000000I50000J0D01*
G01*
D14*
%TO.C,U14*%
X145869700Y-71281871D02*
X145869700Y-69718129D01*
X148130300Y-71281871D02*
X148130300Y-69718129D01*
%TO.C,U19*%
X175869700Y-56281871D02*
X175869700Y-54718129D01*
X178130300Y-56281871D02*
X178130300Y-54718129D01*
D13*
%TO.C,R1*%
X200346359Y-39620000D02*
X200653641Y-39620000D01*
X200346359Y-40380000D02*
X200653641Y-40380000D01*
%TO.C,U1*%
X170890000Y-67940000D02*
X172150000Y-67940000D01*
X170890000Y-71700000D02*
X170890000Y-67940000D01*
X177710000Y-67940000D02*
X176450000Y-67940000D01*
X177710000Y-71700000D02*
X177710000Y-67940000D01*
X170990000Y-72980000D02*
X170660000Y-73220000D01*
X170660000Y-72740000D01*
X170990000Y-72980000D01*
G36*
X170990000Y-72980000D02*
G01*
X170660000Y-73220000D01*
X170660000Y-72740000D01*
X170990000Y-72980000D01*
G37*
D14*
%TO.C,U8*%
X109869700Y-60781871D02*
X109869700Y-59218129D01*
X112130300Y-60781871D02*
X112130300Y-59218129D01*
%TO.C,U5*%
X91869700Y-51781871D02*
X91869700Y-50218129D01*
X94130300Y-51781871D02*
X94130300Y-50218129D01*
D13*
%TO.C,R4*%
X192120000Y-77846359D02*
X192120000Y-78153641D01*
X192880000Y-77846359D02*
X192880000Y-78153641D01*
%TO.C,U24*%
X185975000Y-77845000D02*
X184025000Y-77845000D01*
X185975000Y-77845000D02*
X187925000Y-77845000D01*
X185975000Y-87965000D02*
X184025000Y-87965000D01*
X185975000Y-87965000D02*
X187925000Y-87965000D01*
X183275000Y-77900000D02*
X183035000Y-77570000D01*
X183515000Y-77570000D01*
X183275000Y-77900000D01*
G36*
X183275000Y-77900000D02*
G01*
X183035000Y-77570000D01*
X183515000Y-77570000D01*
X183275000Y-77900000D01*
G37*
D14*
%TO.C,U12*%
X133869700Y-72781871D02*
X133869700Y-71218129D01*
X136130300Y-72781871D02*
X136130300Y-71218129D01*
%TO.C,U7*%
X103869700Y-57781871D02*
X103869700Y-56218129D01*
X106130300Y-57781871D02*
X106130300Y-56218129D01*
D13*
%TO.C,R2*%
X198836359Y-81120000D02*
X199143641Y-81120000D01*
X198836359Y-81880000D02*
X199143641Y-81880000D01*
D14*
%TO.C,U18*%
X169869700Y-59281871D02*
X169869700Y-57718129D01*
X172130300Y-59281871D02*
X172130300Y-57718129D01*
%TD*%
M02*
