M48
; DRILL file {KiCad 9.0.4} date 2026-01-29T23:46:10+0900
; FORMAT={-:-/ absolute / metric / decimal}
; #@! TF.CreationDate,2026-01-29T23:46:10+09:00
; #@! TF.GenerationSoftware,Kicad,Pcbnew,9.0.4
; #@! TF.FileFunction,Plated,1,2,PTH
FMAT,2
METRIC
; #@! TA.AperFunction,Plated,PTH,ComponentDrill
T1C0.200
; #@! TA.AperFunction,Plated,PTH,ViaDrill
T2C0.300
; #@! TA.AperFunction,Plated,PTH,ComponentDrill
T3C1.000
; #@! TA.AperFunction,Plated,PTH,ComponentDrill
T4C1.020
%
G90
G05
T1
X168.35Y-87.2
X168.35Y-88.6
X169.05Y-86.5
X169.05Y-87.9
X169.05Y-89.3
X169.775Y-87.2
X169.775Y-88.6
X170.45Y-86.5
X170.45Y-87.9
X170.45Y-89.3
X171.15Y-87.2
X171.15Y-88.6
T2
X80.0Y-47.5
X81.0Y-57.5
X81.0Y-96.5
X82.5Y-47.5
X101.0Y-53.0
X137.5Y-74.5
X141.0Y-82.0
X144.0Y-75.0
X157.0Y-96.0
X159.0Y-73.0
X159.5Y-77.0
X161.5Y-93.0
X168.5Y-61.5
X171.5Y-75.0
X174.0Y-62.0
X174.0Y-81.5
X174.0Y-83.5
X174.0Y-89.5
X174.0Y-91.0
X175.0Y-94.5
X175.0Y-96.0
X178.5Y-82.0
X179.0Y-93.0
X179.0Y-96.0
X180.0Y-76.0
X180.5Y-81.5
X185.27Y-79.73
X185.5Y-81.0
X186.5Y-78.5
X188.5Y-57.0
X189.0Y-92.5
X190.5Y-88.0
X191.0Y-84.0
X199.0Y-40.5
X199.5Y-91.5
X200.0Y-87.0
X201.5Y-46.0
T3
X184.5Y-69.734
X184.5Y-72.274
T4
X196.5Y-65.5
X196.5Y-68.5
X196.5Y-71.5
M30
