%TF.GenerationSoftware,KiCad,Pcbnew,9.0.4*%
%TF.CreationDate,2026-01-29T23:46:11+09:00*%
%TF.ProjectId,kalimba,6b616c69-6d62-4612-9e6b-696361645f70,rev?*%
%TF.SameCoordinates,Original*%
%TF.FileFunction,Copper,L1,Top*%
%TF.FilePolarity,Positive*%
%FSLAX46Y46*%
G04 Gerber Fmt 4.6, Leading zero omitted, Abs format (unit mm)*
G04 Created by KiCad (PCBNEW 9.0.4) date 2026-01-29 23:46:11*
%MOMM*%
%LPD*%
G01*
G04 APERTURE LIST*
G04 Aperture macros list*
%AMRoundRect*
0 Rectangle with rounded corners*
0 $1 Rounding radius*
0 $2 $3 $4 $5 $6 $7 $8 $9 X,Y pos of 4 corners*
0 Add a 4 corners polygon primitive as box body*
4,1,4,$2,$3,$4,$5,$6,$7,$8,$9,$2,$3,0*
0 Add four circle primitives for the rounded corners*
1,1,$1+$1,$2,$3*
1,1,$1+$1,$4,$5*
1,1,$1+$1,$6,$7*
1,1,$1+$1,$8,$9*
0 Add four rect primitives between the rounded corners*
20,1,$1+$1,$2,$3,$4,$5,0*
20,1,$1+$1,$4,$5,$6,$7,0*
20,1,$1+$1,$6,$7,$8,$9,0*
20,1,$1+$1,$8,$9,$2,$3,0*%
G04 Aperture macros list end*
%TA.AperFunction,SMDPad,CuDef*%
%ADD10RoundRect,0.150000X-0.587500X-0.150000X0.587500X-0.150000X0.587500X0.150000X-0.587500X0.150000X0*%
%TD*%
%TA.AperFunction,SMDPad,CuDef*%
%ADD11R,0.609600X0.609600*%
%TD*%
%TA.AperFunction,SMDPad,CuDef*%
%ADD12R,2.000000X0.500000*%
%TD*%
%TA.AperFunction,SMDPad,CuDef*%
%ADD13R,1.700000X2.000000*%
%TD*%
%TA.AperFunction,SMDPad,CuDef*%
%ADD14R,1.500000X0.900000*%
%TD*%
%TA.AperFunction,SMDPad,CuDef*%
%ADD15R,0.900000X1.500000*%
%TD*%
%TA.AperFunction,SMDPad,CuDef*%
%ADD16R,0.900000X0.900000*%
%TD*%
%TA.AperFunction,HeatsinkPad*%
%ADD17C,0.600000*%
%TD*%
%TA.AperFunction,HeatsinkPad*%
%ADD18R,3.800000X3.800000*%
%TD*%
%TA.AperFunction,SMDPad,CuDef*%
%ADD19RoundRect,0.135000X0.185000X-0.135000X0.185000X0.135000X-0.185000X0.135000X-0.185000X-0.135000X0*%
%TD*%
%TA.AperFunction,ComponentPad*%
%ADD20R,1.700000X1.700000*%
%TD*%
%TA.AperFunction,ComponentPad*%
%ADD21C,1.700000*%
%TD*%
%TA.AperFunction,ComponentPad*%
%ADD22RoundRect,0.250001X0.759999X-0.499999X0.759999X0.499999X-0.759999X0.499999X-0.759999X-0.499999X0*%
%TD*%
%TA.AperFunction,ComponentPad*%
%ADD23O,2.020000X1.500000*%
%TD*%
%TA.AperFunction,SMDPad,CuDef*%
%ADD24RoundRect,0.140000X-0.140000X-0.170000X0.140000X-0.170000X0.140000X0.170000X-0.140000X0.170000X0*%
%TD*%
%TA.AperFunction,SMDPad,CuDef*%
%ADD25RoundRect,0.147500X-0.147500X-0.172500X0.147500X-0.172500X0.147500X0.172500X-0.147500X0.172500X0*%
%TD*%
%TA.AperFunction,SMDPad,CuDef*%
%ADD26RoundRect,0.135000X-0.135000X-0.185000X0.135000X-0.185000X0.135000X0.185000X-0.135000X0.185000X0*%
%TD*%
%TA.AperFunction,SMDPad,CuDef*%
%ADD27RoundRect,0.375000X0.375000X-0.625000X0.375000X0.625000X-0.375000X0.625000X-0.375000X-0.625000X0*%
%TD*%
%TA.AperFunction,SMDPad,CuDef*%
%ADD28RoundRect,0.500000X1.400000X-0.500000X1.400000X0.500000X-1.400000X0.500000X-1.400000X-0.500000X0*%
%TD*%
%TA.AperFunction,SMDPad,CuDef*%
%ADD29RoundRect,0.135000X-0.185000X0.135000X-0.185000X-0.135000X0.185000X-0.135000X0.185000X0.135000X0*%
%TD*%
%TA.AperFunction,SMDPad,CuDef*%
%ADD30RoundRect,0.150000X-0.825000X-0.150000X0.825000X-0.150000X0.825000X0.150000X-0.825000X0.150000X0*%
%TD*%
%TA.AperFunction,ViaPad*%
%ADD31C,0.600000*%
%TD*%
%TA.AperFunction,Conductor*%
%ADD32C,0.200000*%
%TD*%
%TA.AperFunction,Conductor*%
%ADD33C,0.500000*%
%TD*%
G04 APERTURE END LIST*
D10*
%TO.P,Q2,1,B*%
%TO.N,Net-(Q2-B)*%
X194062500Y-80050000D03*
%TO.P,Q2,2,E*%
%TO.N,/usb Serial/DTR*%
X194062500Y-81950000D03*
%TO.P,Q2,3,C*%
%TO.N,/IO0*%
X195937500Y-81000000D03*
%TD*%
%TO.P,Q1,1,B*%
%TO.N,Net-(Q1-B)*%
X194207500Y-76550000D03*
%TO.P,Q1,2,E*%
%TO.N,/usb Serial/RTS*%
X194207500Y-78450000D03*
%TO.P,Q1,3,C*%
%TO.N,/usb Serial/EN*%
X196082500Y-77500000D03*
%TD*%
D11*
%TO.P,U6,1,DO*%
%TO.N,Net-(U5-DI)*%
X98500001Y-55155700D03*
%TO.P,U6,2,GND*%
%TO.N,GND*%
X99499999Y-55155700D03*
%TO.P,U6,3,DI*%
%TO.N,Net-(U6-DI)*%
X99499999Y-52844300D03*
%TO.P,U6,4,VDD*%
%TO.N,+5V*%
X98500001Y-52844300D03*
%TD*%
%TO.P,U9,1,DO*%
%TO.N,Net-(U8-DI)*%
X116500001Y-64155700D03*
%TO.P,U9,2,GND*%
%TO.N,GND*%
X117499999Y-64155700D03*
%TO.P,U9,3,DI*%
%TO.N,Net-(U10-DO)*%
X117499999Y-61844300D03*
%TO.P,U9,4,VDD*%
%TO.N,+5V*%
X116500001Y-61844300D03*
%TD*%
%TO.P,U20,1,DO*%
%TO.N,Net-(U19-DI)*%
X182500001Y-53655700D03*
%TO.P,U20,2,GND*%
%TO.N,GND*%
X183499999Y-53655700D03*
%TO.P,U20,3,DI*%
%TO.N,Net-(U20-DI)*%
X183499999Y-51344300D03*
%TO.P,U20,4,VDD*%
%TO.N,+5V*%
X182500001Y-51344300D03*
%TD*%
D12*
%TO.P,J1,1,VBUS*%
%TO.N,/usb Serial/Vusb*%
X194225000Y-91100000D03*
%TO.P,J1,2,D-*%
%TO.N,Net-(J1-D-)*%
X194225000Y-90300000D03*
%TO.P,J1,3,D+*%
%TO.N,Net-(J1-D+)*%
X194225000Y-89500000D03*
%TO.P,J1,4,ID*%
%TO.N,unconnected-(J1-ID-Pad4)*%
X194225000Y-88700000D03*
%TO.P,J1,5,GND*%
%TO.N,GND*%
X194225000Y-87900000D03*
D13*
%TO.P,J1,6,Shield*%
X194325000Y-93950000D03*
X199775000Y-93950000D03*
X194325000Y-85050000D03*
X199775000Y-85050000D03*
%TD*%
D11*
%TO.P,U21,1,DO*%
%TO.N,Net-(U20-DI)*%
X188500001Y-50655700D03*
%TO.P,U21,2,GND*%
%TO.N,GND*%
X189499999Y-50655700D03*
%TO.P,U21,3,DI*%
%TO.N,Net-(U21-DI)*%
X189499999Y-48344300D03*
%TO.P,U21,4,VDD*%
%TO.N,+5V*%
X188500001Y-48344300D03*
%TD*%
D14*
%TO.P,U2,1,GND*%
%TO.N,GND*%
X177000000Y-95620000D03*
%TO.P,U2,2,VDD*%
%TO.N,/usb Serial/3V3*%
X177000000Y-94350000D03*
%TO.P,U2,3,EN*%
%TO.N,/usb Serial/EN*%
X177000000Y-93080000D03*
%TO.P,U2,4,SENSOR_VP*%
%TO.N,unconnected-(U2-SENSOR_VP-Pad4)*%
X177000000Y-91810000D03*
%TO.P,U2,5,SENSOR_VN*%
%TO.N,unconnected-(U2-SENSOR_VN-Pad5)*%
X177000000Y-90540000D03*
%TO.P,U2,6,IO34*%
%TO.N,unconnected-(U2-IO34-Pad6)*%
X177000000Y-89270000D03*
%TO.P,U2,7,IO35*%
%TO.N,unconnected-(U2-IO35-Pad7)*%
X177000000Y-88000000D03*
%TO.P,U2,8,IO32*%
%TO.N,unconnected-(U2-IO32-Pad8)*%
X177000000Y-86730000D03*
%TO.P,U2,9,IO33*%
%TO.N,unconnected-(U2-IO33-Pad9)*%
X177000000Y-85460000D03*
%TO.P,U2,10,IO25*%
%TO.N,unconnected-(U2-IO25-Pad10)*%
X177000000Y-84190000D03*
%TO.P,U2,11,IO26*%
%TO.N,unconnected-(U2-IO26-Pad11)*%
X177000000Y-82920000D03*
%TO.P,U2,12,IO27*%
%TO.N,unconnected-(U2-IO27-Pad12)*%
X177000000Y-81650000D03*
%TO.P,U2,13,IO14*%
%TO.N,unconnected-(U2-IO14-Pad13)*%
X177000000Y-80380000D03*
%TO.P,U2,14,IO12*%
%TO.N,unconnected-(U2-IO12-Pad14)*%
X177000000Y-79110000D03*
D15*
%TO.P,U2,15,GND*%
%TO.N,GND*%
X173960000Y-77860000D03*
%TO.P,U2,16,IO13*%
%TO.N,unconnected-(U2-IO13-Pad16)*%
X172690000Y-77860000D03*
%TO.P,U2,17,NC*%
%TO.N,unconnected-(U2-NC-Pad17)*%
X171420000Y-77860000D03*
%TO.P,U2,18,NC*%
%TO.N,unconnected-(U2-NC-Pad18)*%
X170150000Y-77860000D03*
%TO.P,U2,19,NC*%
%TO.N,unconnected-(U2-NC-Pad19)*%
X168880000Y-77860000D03*
%TO.P,U2,20,NC*%
%TO.N,unconnected-(U2-NC-Pad20)*%
X167610000Y-77860000D03*
%TO.P,U2,21,NC*%
%TO.N,unconnected-(U2-NC-Pad21)*%
X166340000Y-77860000D03*
%TO.P,U2,22,NC*%
%TO.N,unconnected-(U2-NC-Pad22)*%
X165070000Y-77860000D03*
%TO.P,U2,23,IO15*%
%TO.N,unconnected-(U2-IO15-Pad23)*%
X163800000Y-77860000D03*
%TO.P,U2,24,IO2*%
%TO.N,unconnected-(U2-IO2-Pad24)*%
X162530000Y-77860000D03*
D14*
%TO.P,U2,25,IO0*%
%TO.N,/IO0*%
X159500000Y-79110000D03*
%TO.P,U2,26,IO4*%
%TO.N,unconnected-(U2-IO4-Pad26)*%
X159500000Y-80380000D03*
%TO.P,U2,27,IO16*%
%TO.N,Net-(U2-IO16)*%
X159500000Y-81650000D03*
%TO.P,U2,28,IO17*%
%TO.N,unconnected-(U2-IO17-Pad28)*%
X159500000Y-82920000D03*
%TO.P,U2,29,IO5*%
%TO.N,unconnected-(U2-IO5-Pad29)*%
X159500000Y-84190000D03*
%TO.P,U2,30,IO18*%
%TO.N,unconnected-(U2-IO18-Pad30)*%
X159500000Y-85460000D03*
%TO.P,U2,31,IO19*%
%TO.N,unconnected-(U2-IO19-Pad31)*%
X159500000Y-86730000D03*
%TO.P,U2,32,NC*%
%TO.N,unconnected-(U2-NC-Pad32)*%
X159500000Y-88000000D03*
%TO.P,U2,33,IO21*%
%TO.N,unconnected-(U2-IO21-Pad33)*%
X159500000Y-89270000D03*
%TO.P,U2,34,RXD0/IO3*%
%TO.N,/RXD*%
X159500000Y-90540000D03*
%TO.P,U2,35,TXD0/IO1*%
%TO.N,/TXD*%
X159500000Y-91810000D03*
%TO.P,U2,36,IO22*%
%TO.N,unconnected-(U2-IO22-Pad36)*%
X159500000Y-93080000D03*
%TO.P,U2,37,IO23*%
%TO.N,unconnected-(U2-IO23-Pad37)*%
X159500000Y-94350000D03*
%TO.P,U2,38,GND*%
%TO.N,GND*%
X159500000Y-95620000D03*
D16*
%TO.P,U2,39,GND*%
X171150000Y-89300000D03*
D17*
X171150000Y-88600000D03*
D16*
X171150000Y-87900000D03*
D17*
X171150000Y-87200000D03*
D16*
X171150000Y-86500000D03*
D17*
X170450000Y-89300000D03*
X170450000Y-87900000D03*
X170450000Y-86500000D03*
X169775000Y-88600000D03*
X169775000Y-87200000D03*
D16*
X169750000Y-89300000D03*
X169750000Y-87900000D03*
D18*
X169750000Y-87900000D03*
D16*
X169750000Y-86500000D03*
D17*
X169050000Y-89300000D03*
X169050000Y-87900000D03*
X169050000Y-86500000D03*
D16*
X168350000Y-89300000D03*
D17*
X168350000Y-88600000D03*
D16*
X168350000Y-87900000D03*
D17*
X168350000Y-87200000D03*
D16*
X168350000Y-86500000D03*
%TD*%
D19*
%TO.P,R3,1*%
%TO.N,/usb Serial/DTR*%
X192500000Y-82010000D03*
%TO.P,R3,2*%
%TO.N,Net-(Q1-B)*%
X192500000Y-80990000D03*
%TD*%
D11*
%TO.P,U15,1,DO*%
%TO.N,Net-(U14-DI)*%
X152500001Y-68655700D03*
%TO.P,U15,2,GND*%
%TO.N,GND*%
X153499999Y-68655700D03*
%TO.P,U15,3,DI*%
%TO.N,Net-(U15-DI)*%
X153499999Y-66344300D03*
%TO.P,U15,4,VDD*%
%TO.N,+5V*%
X152500001Y-66344300D03*
%TD*%
%TO.P,U17,1,DO*%
%TO.N,Net-(U16-DI)*%
X164500001Y-62655700D03*
%TO.P,U17,2,GND*%
%TO.N,GND*%
X165499999Y-62655700D03*
%TO.P,U17,3,DI*%
%TO.N,Net-(U17-DI)*%
X165499999Y-60344300D03*
%TO.P,U17,4,VDD*%
%TO.N,+5V*%
X164500001Y-60344300D03*
%TD*%
D20*
%TO.P,BT1,1,+*%
%TO.N,/usb Serial/Vusb*%
X184500000Y-69734001D03*
D21*
%TO.P,BT1,2,-*%
%TO.N,GND*%
X184500000Y-72274001D03*
%TD*%
D11*
%TO.P,U3,1,DO*%
%TO.N,unconnected-(U3-DO-Pad1)*%
X81000001Y-46155700D03*
%TO.P,U3,2,GND*%
%TO.N,GND*%
X81999999Y-46155700D03*
%TO.P,U3,3,DI*%
%TO.N,Net-(U3-DI)*%
X81999999Y-43844300D03*
%TO.P,U3,4,VDD*%
%TO.N,+5V*%
X81000001Y-43844300D03*
%TD*%
%TO.P,U16,1,DO*%
%TO.N,Net-(U15-DI)*%
X158500001Y-65655700D03*
%TO.P,U16,2,GND*%
%TO.N,GND*%
X159499999Y-65655700D03*
%TO.P,U16,3,DI*%
%TO.N,Net-(U16-DI)*%
X159499999Y-63344300D03*
%TO.P,U16,4,VDD*%
%TO.N,+5V*%
X158500001Y-63344300D03*
%TD*%
D22*
%TO.P,SW1,1,A*%
%TO.N,+5V*%
X196500000Y-71500000D03*
D23*
%TO.P,SW1,2,B*%
%TO.N,/usb Serial/Vusb*%
X196500000Y-68500000D03*
%TO.P,SW1,3,C*%
%TO.N,unconnected-(SW1-C-Pad3)*%
X196500000Y-65500000D03*
%TD*%
D24*
%TO.P,C1,1*%
%TO.N,/usb Serial/3V3*%
X182520000Y-93500000D03*
%TO.P,C1,2*%
%TO.N,GND*%
X183480000Y-93500000D03*
%TD*%
D11*
%TO.P,U10,1,DO*%
%TO.N,Net-(U10-DO)*%
X122500001Y-67155700D03*
%TO.P,U10,2,GND*%
%TO.N,GND*%
X123499999Y-67155700D03*
%TO.P,U10,3,DI*%
%TO.N,Net-(U10-DI)*%
X123499999Y-64844300D03*
%TO.P,U10,4,VDD*%
%TO.N,+5V*%
X122500001Y-64844300D03*
%TD*%
%TO.P,U23,1,DO*%
%TO.N,Net-(U22-DI)*%
X200000001Y-44655700D03*
%TO.P,U23,2,GND*%
%TO.N,GND*%
X200999999Y-44655700D03*
%TO.P,U23,3,DI*%
%TO.N,Net-(U23-DI)*%
X200999999Y-42344300D03*
%TO.P,U23,4,VDD*%
%TO.N,+5V*%
X200000001Y-42344300D03*
%TD*%
%TO.P,U13,1,DO*%
%TO.N,Net-(U12-DI)*%
X140500001Y-76155700D03*
%TO.P,U13,2,GND*%
%TO.N,GND*%
X141499999Y-76155700D03*
%TO.P,U13,3,DI*%
%TO.N,Net-(U13-DI)*%
X141499999Y-73844300D03*
%TO.P,U13,4,VDD*%
%TO.N,+5V*%
X140500001Y-73844300D03*
%TD*%
%TO.P,U4,1,DO*%
%TO.N,Net-(U3-DI)*%
X86500001Y-49155700D03*
%TO.P,U4,2,GND*%
%TO.N,GND*%
X87499999Y-49155700D03*
%TO.P,U4,3,DI*%
%TO.N,Net-(U4-DI)*%
X87499999Y-46844300D03*
%TO.P,U4,4,VDD*%
%TO.N,+5V*%
X86500001Y-46844300D03*
%TD*%
%TO.P,U22,1,DO*%
%TO.N,Net-(U21-DI)*%
X194500001Y-47655700D03*
%TO.P,U22,2,GND*%
%TO.N,GND*%
X195499999Y-47655700D03*
%TO.P,U22,3,DI*%
%TO.N,Net-(U22-DI)*%
X195499999Y-45344300D03*
%TO.P,U22,4,VDD*%
%TO.N,+5V*%
X194500001Y-45344300D03*
%TD*%
%TO.P,U11,1,DO*%
%TO.N,Net-(U10-DI)*%
X128500001Y-70155700D03*
%TO.P,U11,2,GND*%
%TO.N,GND*%
X129499999Y-70155700D03*
%TO.P,U11,3,DI*%
%TO.N,Net-(U11-DI)*%
X129499999Y-67844300D03*
%TO.P,U11,4,VDD*%
%TO.N,+5V*%
X128500001Y-67844300D03*
%TD*%
D25*
%TO.P,D1,1,K*%
%TO.N,Net-(D1-K)*%
X198500000Y-79000000D03*
%TO.P,D1,2,A*%
%TO.N,GND*%
X199470000Y-79000000D03*
%TD*%
D11*
%TO.P,U14,1,DO*%
%TO.N,Net-(U13-DI)*%
X146500001Y-71655700D03*
%TO.P,U14,2,GND*%
%TO.N,GND*%
X147499999Y-71655700D03*
%TO.P,U14,3,DI*%
%TO.N,Net-(U14-DI)*%
X147499999Y-69344300D03*
%TO.P,U14,4,VDD*%
%TO.N,+5V*%
X146500001Y-69344300D03*
%TD*%
%TO.P,U19,1,DO*%
%TO.N,Net-(U18-DI)*%
X176500001Y-56655700D03*
%TO.P,U19,2,GND*%
%TO.N,GND*%
X177499999Y-56655700D03*
%TO.P,U19,3,DI*%
%TO.N,Net-(U19-DI)*%
X177499999Y-54344300D03*
%TO.P,U19,4,VDD*%
%TO.N,+5V*%
X176500001Y-54344300D03*
%TD*%
D26*
%TO.P,R1,1*%
%TO.N,Net-(U2-IO16)*%
X199990000Y-40000000D03*
%TO.P,R1,2*%
%TO.N,Net-(U23-DI)*%
X201010000Y-40000000D03*
%TD*%
D27*
%TO.P,U1,1,GND*%
%TO.N,GND*%
X172000000Y-73000000D03*
%TO.P,U1,2,VO*%
%TO.N,/usb Serial/3V3*%
X174300000Y-73000000D03*
D28*
X174300000Y-66700000D03*
D27*
%TO.P,U1,3,VI*%
%TO.N,+5V*%
X176600000Y-73000000D03*
%TD*%
D11*
%TO.P,U8,1,DO*%
%TO.N,Net-(U7-DI)*%
X110500001Y-61155700D03*
%TO.P,U8,2,GND*%
%TO.N,GND*%
X111499999Y-61155700D03*
%TO.P,U8,3,DI*%
%TO.N,Net-(U8-DI)*%
X111499999Y-58844300D03*
%TO.P,U8,4,VDD*%
%TO.N,+5V*%
X110500001Y-58844300D03*
%TD*%
%TO.P,U5,1,DO*%
%TO.N,Net-(U4-DI)*%
X92500001Y-52155700D03*
%TO.P,U5,2,GND*%
%TO.N,GND*%
X93499999Y-52155700D03*
%TO.P,U5,3,DI*%
%TO.N,Net-(U5-DI)*%
X93499999Y-49844300D03*
%TO.P,U5,4,VDD*%
%TO.N,+5V*%
X92500001Y-49844300D03*
%TD*%
D29*
%TO.P,R4,1*%
%TO.N,/usb Serial/RTS*%
X192500000Y-77490000D03*
%TO.P,R4,2*%
%TO.N,Net-(Q2-B)*%
X192500000Y-78510000D03*
%TD*%
D30*
%TO.P,U24,1,GND*%
%TO.N,GND*%
X183500000Y-78460000D03*
%TO.P,U24,2,TXD*%
%TO.N,/RXD*%
X183500000Y-79730000D03*
%TO.P,U24,3,RXD*%
%TO.N,/TXD*%
X183500000Y-81000000D03*
%TO.P,U24,4,V3*%
%TO.N,/usb Serial/3V3*%
X183500000Y-82270000D03*
%TO.P,U24,5,UD+*%
%TO.N,Net-(J1-D+)*%
X183500000Y-83540000D03*
%TO.P,U24,6,UD-*%
%TO.N,Net-(J1-D-)*%
X183500000Y-84810000D03*
%TO.P,U24,7,NC*%
%TO.N,unconnected-(U24-NC-Pad7)*%
X183500000Y-86080000D03*
%TO.P,U24,8,NC*%
%TO.N,unconnected-(U24-NC-Pad8)*%
X183500000Y-87350000D03*
%TO.P,U24,9,~{CTS}*%
%TO.N,unconnected-(U24-~{CTS}-Pad9)*%
X188450000Y-87350000D03*
%TO.P,U24,10,~{DSR}*%
%TO.N,unconnected-(U24-~{DSR}-Pad10)*%
X188450000Y-86080000D03*
%TO.P,U24,11,~{RI}*%
%TO.N,unconnected-(U24-~{RI}-Pad11)*%
X188450000Y-84810000D03*
%TO.P,U24,12,~{DCD}*%
%TO.N,unconnected-(U24-~{DCD}-Pad12)*%
X188450000Y-83540000D03*
%TO.P,U24,13,~{DTR}*%
%TO.N,/usb Serial/DTR*%
X188450000Y-82270000D03*
%TO.P,U24,14,~{RTS}*%
%TO.N,/usb Serial/RTS*%
X188450000Y-81000000D03*
%TO.P,U24,15,R232*%
%TO.N,unconnected-(U24-R232-Pad15)*%
X188450000Y-79730000D03*
%TO.P,U24,16,VCC*%
%TO.N,/usb Serial/Vusb*%
X188450000Y-78460000D03*
%TD*%
D11*
%TO.P,U12,1,DO*%
%TO.N,Net-(U11-DI)*%
X134500001Y-73155700D03*
%TO.P,U12,2,GND*%
%TO.N,GND*%
X135499999Y-73155700D03*
%TO.P,U12,3,DI*%
%TO.N,Net-(U12-DI)*%
X135499999Y-70844300D03*
%TO.P,U12,4,VDD*%
%TO.N,+5V*%
X134500001Y-70844300D03*
%TD*%
%TO.P,U7,1,DO*%
%TO.N,Net-(U6-DI)*%
X104500001Y-58155700D03*
%TO.P,U7,2,GND*%
%TO.N,GND*%
X105499999Y-58155700D03*
%TO.P,U7,3,DI*%
%TO.N,Net-(U7-DI)*%
X105499999Y-55844300D03*
%TO.P,U7,4,VDD*%
%TO.N,+5V*%
X104500001Y-55844300D03*
%TD*%
D26*
%TO.P,R2,1*%
%TO.N,Net-(D1-K)*%
X198480000Y-81500000D03*
%TO.P,R2,2*%
%TO.N,/usb Serial/Vusb*%
X199500000Y-81500000D03*
%TD*%
D11*
%TO.P,U18,1,DO*%
%TO.N,Net-(U17-DI)*%
X170500001Y-59655700D03*
%TO.P,U18,2,GND*%
%TO.N,GND*%
X171499999Y-59655700D03*
%TO.P,U18,3,DI*%
%TO.N,Net-(U18-DI)*%
X171499999Y-57344300D03*
%TO.P,U18,4,VDD*%
%TO.N,+5V*%
X170500001Y-57344300D03*
%TD*%
D31*
%TO.N,*%
X188500000Y-57000000D03*
%TO.N,GND*%
X179000000Y-96000000D03*
X175000000Y-96000000D03*
X141000000Y-82000000D03*
X191000000Y-84000000D03*
X189000000Y-92500000D03*
X80000000Y-47500000D03*
X137500000Y-74500000D03*
X186500000Y-78500000D03*
X178500000Y-82000000D03*
X82500000Y-47500000D03*
X101000000Y-53000000D03*
X171500000Y-75000000D03*
X200000000Y-87000000D03*
X174000000Y-83500000D03*
X201500000Y-46000000D03*
X159500000Y-77000000D03*
X168500000Y-61500000D03*
X174000000Y-81500000D03*
X81000000Y-96500000D03*
X159000000Y-73000000D03*
X179000000Y-93000000D03*
X190500000Y-88000000D03*
X199500000Y-91500000D03*
X81000000Y-57500000D03*
X161500000Y-93000000D03*
X144000000Y-75000000D03*
X157000000Y-96000000D03*
%TO.N,/usb Serial/3V3*%
X180500000Y-81500000D03*
X175000000Y-94500000D03*
X180000000Y-76000000D03*
%TO.N,Net-(U2-IO16)*%
X174000000Y-62000000D03*
X199000000Y-40500000D03*
%TO.N,/TXD*%
X185500000Y-81000000D03*
X174000000Y-91000000D03*
%TO.N,/RXD*%
X174000000Y-89500000D03*
X185270000Y-79730000D03*
%TD*%
D32*
%TO.N,/usb Serial/RTS*%
X190000000Y-81000000D02*
X190500000Y-80500000D01*
X188450000Y-81000000D02*
X190000000Y-81000000D01*
D33*
%TO.N,/usb Serial/Vusb*%
X190500000Y-72000000D02*
X190500000Y-78203328D01*
X190500000Y-78203328D02*
X190243328Y-78460000D01*
X188234001Y-69734001D02*
X190500000Y-72000000D01*
X184500000Y-69734001D02*
X188234001Y-69734001D01*
D32*
%TO.N,/usb Serial/DTR*%
X188450000Y-82270000D02*
X192240000Y-82270000D01*
X192240000Y-82270000D02*
X192500000Y-82010000D01*
X192560000Y-81950000D02*
X192500000Y-82010000D01*
X194062500Y-81950000D02*
X192560000Y-81950000D01*
%TO.N,/IO0*%
X194520968Y-82871000D02*
X186500000Y-82871000D01*
X195937500Y-81454468D02*
X194520968Y-82871000D01*
X195937500Y-81000000D02*
X195937500Y-81454468D01*
%TO.N,/usb Serial/EN*%
X179000000Y-81500000D02*
X179000000Y-80016100D01*
X180439000Y-82939000D02*
X179000000Y-81500000D01*
X186209000Y-84209000D02*
X184939000Y-82939000D01*
X184939000Y-82939000D02*
X180439000Y-82939000D01*
X190334968Y-83272000D02*
X189397968Y-84209000D01*
X195157000Y-83272000D02*
X190334968Y-83272000D01*
X197929000Y-80500000D02*
X195157000Y-83272000D01*
X197929000Y-79346500D02*
X197929000Y-80500000D01*
X196082500Y-77500000D02*
X197929000Y-79346500D01*
X189397968Y-84209000D02*
X186209000Y-84209000D01*
D33*
%TO.N,/usb Serial/Vusb*%
X198500000Y-74000000D02*
X198500000Y-73000000D01*
X201000000Y-76500000D02*
X198500000Y-74000000D01*
X198500000Y-70500000D02*
X198500000Y-73000000D01*
X201000000Y-81000000D02*
X201000000Y-76500000D01*
X200000000Y-82000000D02*
X201000000Y-81000000D01*
X200000000Y-82000000D02*
X199500000Y-81500000D01*
D32*
%TO.N,Net-(Q1-B)*%
X194501968Y-80990000D02*
X195304032Y-80187936D01*
X195304032Y-78101000D02*
X194207500Y-77004468D01*
X194207500Y-77004468D02*
X194207500Y-76550000D01*
X192500000Y-80990000D02*
X194501968Y-80990000D01*
X195304032Y-80187936D02*
X195304032Y-78101000D01*
%TO.N,Net-(Q2-B)*%
X192522500Y-78510000D02*
X194062500Y-80050000D01*
X192500000Y-78510000D02*
X192522500Y-78510000D01*
%TO.N,/usb Serial/RTS*%
X193247500Y-77490000D02*
X194207500Y-78450000D01*
X192500000Y-77490000D02*
X193247500Y-77490000D01*
X190500000Y-79490000D02*
X192500000Y-77490000D01*
X190500000Y-80500000D02*
X190500000Y-79490000D01*
D33*
%TO.N,GND*%
X81999999Y-46155700D02*
X82155700Y-46155700D01*
X82155700Y-46155700D02*
X83000000Y-47000000D01*
X184774001Y-72274001D02*
X184500000Y-72274001D01*
%TO.N,/usb Serial/Vusb*%
X191000000Y-92000000D02*
X191000000Y-94500000D01*
X201000000Y-83000000D02*
X200000000Y-82000000D01*
X188450000Y-78460000D02*
X190243328Y-78460000D01*
X191000000Y-94500000D02*
X193500000Y-97000000D01*
X196500000Y-68500000D02*
X198500000Y-70500000D01*
X193500000Y-97000000D02*
X201000000Y-97000000D01*
X191900000Y-91100000D02*
X191000000Y-92000000D01*
X202000000Y-96000000D02*
X202000000Y-84000000D01*
X194225000Y-91100000D02*
X191900000Y-91100000D01*
X201000000Y-97000000D02*
X202000000Y-96000000D01*
X202000000Y-84000000D02*
X201000000Y-83000000D01*
%TO.N,/usb Serial/3V3*%
X175000000Y-94500000D02*
X177850000Y-94500000D01*
X181270000Y-82270000D02*
X183500000Y-82270000D01*
X177300000Y-76000000D02*
X180000000Y-76000000D01*
X181670000Y-94350000D02*
X178000000Y-94350000D01*
X178000000Y-94350000D02*
X177000000Y-94350000D01*
X180500000Y-81500000D02*
X181270000Y-82270000D01*
X174300000Y-66700000D02*
X174300000Y-73000000D01*
X182520000Y-93500000D02*
X181670000Y-94350000D01*
X174300000Y-73000000D02*
X177300000Y-76000000D01*
X177850000Y-94500000D02*
X178000000Y-94350000D01*
%TO.N,Net-(D1-K)*%
X198480000Y-79020000D02*
X198500000Y-79000000D01*
X198480000Y-81500000D02*
X198480000Y-79020000D01*
%TO.N,Net-(J1-D+)*%
X186500000Y-85500000D02*
X186500000Y-88500000D01*
X184540000Y-83540000D02*
X186500000Y-85500000D01*
X187500000Y-89500000D02*
X194225000Y-89500000D01*
X183500000Y-83540000D02*
X184540000Y-83540000D01*
X186500000Y-88500000D02*
X187500000Y-89500000D01*
%TO.N,Net-(J1-D-)*%
X194225000Y-90300000D02*
X187308636Y-90300000D01*
X185799000Y-86134001D02*
X184474999Y-84810000D01*
X187308636Y-90300000D02*
X185799000Y-88790364D01*
X184474999Y-84810000D02*
X183500000Y-84810000D01*
X185799000Y-88790364D02*
X185799000Y-86134001D01*
%TO.N,+5V*%
X122500001Y-64332698D02*
X122500001Y-64844300D01*
X185000000Y-60000000D02*
X185250000Y-60250000D01*
X98744199Y-52088500D02*
X95744199Y-49088500D01*
X187695201Y-45344300D02*
X182500001Y-50539500D01*
X152500001Y-65539500D02*
X152500001Y-66344300D01*
X104744199Y-55088500D02*
X104500001Y-55332698D01*
X194500001Y-45344300D02*
X187695201Y-45344300D01*
X110500001Y-58332698D02*
X110500001Y-58844300D01*
X83744199Y-43088500D02*
X84827849Y-44172151D01*
X178695201Y-51344300D02*
X176500001Y-53539500D01*
X107744199Y-55088500D02*
X104744199Y-55088500D01*
X92500001Y-49332698D02*
X92500001Y-49844300D01*
X194500001Y-44539500D02*
X194500001Y-45344300D01*
X158500001Y-62539500D02*
X158500001Y-63344300D01*
X116744199Y-61088500D02*
X113744199Y-58088500D01*
X164500001Y-59832698D02*
X161206803Y-59832698D01*
X101744199Y-52088500D02*
X98744199Y-52088500D01*
X185000000Y-60000000D02*
X196500000Y-71500000D01*
X116744199Y-61088500D02*
X116500001Y-61332698D01*
X86744199Y-46088500D02*
X86500001Y-46332698D01*
X140500001Y-73039500D02*
X137549001Y-70088500D01*
X110744199Y-58088500D02*
X107744199Y-55088500D01*
X158500001Y-62539500D02*
X155500001Y-62539500D01*
X113744199Y-58088500D02*
X110744199Y-58088500D01*
X176600000Y-71400000D02*
X176600000Y-73000000D01*
X176500001Y-53539500D02*
X176500001Y-54344300D01*
X84827849Y-44172151D02*
X86744199Y-46088500D01*
X81244199Y-43088500D02*
X83744199Y-43088500D01*
X86500001Y-46332698D02*
X86500001Y-46844300D01*
X129500000Y-67088500D02*
X126500000Y-64088500D01*
X155500001Y-62539500D02*
X152500001Y-65539500D01*
X149500001Y-65539500D02*
X146500001Y-68539500D01*
X145000001Y-68539500D02*
X140500001Y-73039500D01*
X188500001Y-47539500D02*
X188500001Y-48344300D01*
X146500001Y-68539500D02*
X146500001Y-69344300D01*
X98500001Y-52332698D02*
X98500001Y-52844300D01*
X129500000Y-67088500D02*
X128911500Y-67088500D01*
X122744199Y-64088500D02*
X119744199Y-61088500D01*
X172988399Y-54344300D02*
X170500001Y-56832698D01*
X134744199Y-70088500D02*
X131744199Y-67088500D01*
X140500001Y-73039500D02*
X140500001Y-73844300D01*
X95744199Y-49088500D02*
X92744199Y-49088500D01*
X81000001Y-43332698D02*
X81244199Y-43088500D01*
X176500001Y-54344300D02*
X174000000Y-54344300D01*
X174000000Y-54344300D02*
X175155700Y-55500000D01*
X167500001Y-56832698D02*
X164500001Y-59832698D01*
X92744199Y-49088500D02*
X89744199Y-46088500D01*
X134500001Y-70332698D02*
X134500001Y-70844300D01*
X182500001Y-50539500D02*
X182500001Y-51344300D01*
X92744199Y-49088500D02*
X92500001Y-49332698D01*
X200000001Y-42344300D02*
X196695201Y-42344300D01*
X185250000Y-60250000D02*
X185250000Y-62750000D01*
X116500001Y-61332698D02*
X116500001Y-61844300D01*
X89744199Y-46088500D02*
X86744199Y-46088500D01*
X182500001Y-51344300D02*
X178695201Y-51344300D01*
X81000001Y-43844300D02*
X81000001Y-43332698D01*
X119744199Y-61088500D02*
X116744199Y-61088500D01*
X190695201Y-45344300D02*
X188500001Y-47539500D01*
X137549001Y-70088500D02*
X134744199Y-70088500D01*
X185250000Y-62750000D02*
X176600000Y-71400000D01*
X152500001Y-65539500D02*
X149500001Y-65539500D01*
X128911500Y-67088500D02*
X128500001Y-67499999D01*
X146500001Y-68539500D02*
X145000001Y-68539500D01*
X180500000Y-55500000D02*
X185000000Y-60000000D01*
X161206803Y-59832698D02*
X158500001Y-62539500D01*
X164500001Y-59832698D02*
X164500001Y-60344300D01*
X104500001Y-55332698D02*
X104500001Y-55844300D01*
X110744199Y-58088500D02*
X110500001Y-58332698D01*
X170500001Y-56832698D02*
X167500001Y-56832698D01*
X175155700Y-55500000D02*
X180500000Y-55500000D01*
X174000000Y-54344300D02*
X172988399Y-54344300D01*
X194500001Y-45344300D02*
X190695201Y-45344300D01*
X128500001Y-67499999D02*
X128500001Y-67844300D01*
X170500001Y-56832698D02*
X170500001Y-57344300D01*
X122744199Y-64088500D02*
X122500001Y-64332698D01*
X131744199Y-67088500D02*
X129500000Y-67088500D01*
X196695201Y-42344300D02*
X194500001Y-44539500D01*
X126500000Y-64088500D02*
X122744199Y-64088500D01*
X134744199Y-70088500D02*
X134500001Y-70332698D01*
X104744199Y-55088500D02*
X101744199Y-52088500D01*
X98744199Y-52088500D02*
X98500001Y-52332698D01*
D32*
%TO.N,/usb Serial/EN*%
X177192000Y-77500000D02*
X176000000Y-77500000D01*
X176080000Y-93080000D02*
X177000000Y-93080000D01*
X176000000Y-77500000D02*
X175500000Y-78000000D01*
X175500000Y-92500000D02*
X176080000Y-93080000D01*
X179000000Y-80016100D02*
X179000000Y-79308000D01*
X179000000Y-80016100D02*
X178991950Y-80008050D01*
X179000000Y-79308000D02*
X177192000Y-77500000D01*
X175500000Y-78000000D02*
X175500000Y-92500000D01*
%TO.N,/IO0*%
X175000000Y-77500000D02*
X175000000Y-82500000D01*
X161110000Y-79110000D02*
X159500000Y-79110000D01*
X175000000Y-82500000D02*
X164500000Y-82500000D01*
X182126500Y-81601000D02*
X177525500Y-77000000D01*
X186500000Y-82871000D02*
X185230000Y-81601000D01*
X164500000Y-82500000D02*
X161110000Y-79110000D01*
X177525500Y-77000000D02*
X175500000Y-77000000D01*
X175500000Y-77000000D02*
X175000000Y-77500000D01*
X185230000Y-81601000D02*
X182126500Y-81601000D01*
D33*
%TO.N,Net-(U23-DI)*%
X201010000Y-41000000D02*
X200999999Y-41010001D01*
X201010000Y-41000000D02*
X201010000Y-40000000D01*
X201010000Y-41490000D02*
X201010000Y-41000000D01*
X200999999Y-41010001D02*
X200999999Y-42344300D01*
%TO.N,Net-(U2-IO16)*%
X199990000Y-40000000D02*
X199500000Y-40000000D01*
X172500000Y-62000000D02*
X174000000Y-62000000D01*
X156500000Y-79900000D02*
X156500000Y-78000000D01*
X158250000Y-81650000D02*
X156500000Y-79900000D01*
X199500000Y-40000000D02*
X199000000Y-40500000D01*
X159500000Y-81650000D02*
X158250000Y-81650000D01*
X156500000Y-78000000D02*
X172500000Y-62000000D01*
D32*
%TO.N,Net-(U3-DI)*%
X81999999Y-44655698D02*
X86500001Y-49155700D01*
X81999999Y-43844300D02*
X81999999Y-44655698D01*
%TO.N,Net-(U4-DI)*%
X87499999Y-47155698D02*
X92500001Y-52155700D01*
X87499999Y-46844300D02*
X87499999Y-47155698D01*
%TO.N,Net-(U5-DI)*%
X93499999Y-49844300D02*
X93499999Y-50155698D01*
X93499999Y-50155698D02*
X98500001Y-55155700D01*
%TO.N,Net-(U6-DI)*%
X99499999Y-52844300D02*
X99499999Y-53349100D01*
X104306599Y-58155700D02*
X104500001Y-58155700D01*
X99499999Y-53349100D02*
X104306599Y-58155700D01*
%TO.N,Net-(U7-DI)*%
X105499999Y-55844300D02*
X105499999Y-56155698D01*
X105499999Y-56155698D02*
X110500001Y-61155700D01*
%TO.N,Net-(U8-DI)*%
X116288399Y-64155700D02*
X116500001Y-64155700D01*
X111499999Y-59367300D02*
X116288399Y-64155700D01*
X111499999Y-58844300D02*
X111499999Y-59367300D01*
%TO.N,Net-(U10-DO)*%
X122500001Y-66844302D02*
X122500001Y-67155700D01*
X117499999Y-61844300D02*
X122500001Y-66844302D01*
%TO.N,Net-(U10-DI)*%
X128500001Y-69844302D02*
X128500001Y-70155700D01*
X123499999Y-64844300D02*
X128500001Y-69844302D01*
%TO.N,Net-(U11-DI)*%
X129499999Y-68155698D02*
X134500001Y-73155700D01*
X129499999Y-67844300D02*
X129499999Y-68155698D01*
%TO.N,Net-(U12-DI)*%
X135499999Y-70844300D02*
X135499999Y-71155698D01*
X135499999Y-71155698D02*
X140500001Y-76155700D01*
%TO.N,Net-(U13-DI)*%
X144311401Y-73844300D02*
X146500001Y-71655700D01*
X141499999Y-73844300D02*
X144311401Y-73844300D01*
%TO.N,Net-(U14-DI)*%
X147499999Y-69344300D02*
X151811401Y-69344300D01*
X151811401Y-69344300D02*
X152500001Y-68655700D01*
%TO.N,Net-(U15-DI)*%
X157811401Y-66344300D02*
X158500001Y-65655700D01*
X153499999Y-66344300D02*
X157811401Y-66344300D01*
%TO.N,Net-(U16-DI)*%
X159499999Y-63344300D02*
X163811401Y-63344300D01*
X163811401Y-63344300D02*
X164500001Y-62655700D01*
%TO.N,Net-(U17-DI)*%
X165499999Y-60344300D02*
X169811401Y-60344300D01*
X169811401Y-60344300D02*
X170500001Y-59655700D01*
%TO.N,Net-(U18-DI)*%
X175811401Y-57344300D02*
X176500001Y-56655700D01*
X171499999Y-57344300D02*
X175811401Y-57344300D01*
%TO.N,Net-(U19-DI)*%
X181811401Y-54344300D02*
X182500001Y-53655700D01*
X177499999Y-54344300D02*
X181811401Y-54344300D01*
%TO.N,Net-(U20-DI)*%
X187811401Y-51344300D02*
X188500001Y-50655700D01*
X183499999Y-51344300D02*
X187811401Y-51344300D01*
D33*
%TO.N,/TXD*%
X185500000Y-81000000D02*
X183500000Y-81000000D01*
X159500000Y-91810000D02*
X173190000Y-91810000D01*
X173190000Y-91810000D02*
X174000000Y-91000000D01*
%TO.N,/RXD*%
X185270000Y-79730000D02*
X183500000Y-79730000D01*
X159500000Y-90540000D02*
X172960000Y-90540000D01*
X172960000Y-90540000D02*
X174000000Y-89500000D01*
D32*
%TO.N,Net-(U21-DI)*%
X189499999Y-48344300D02*
X193811401Y-48344300D01*
X193811401Y-48344300D02*
X194500001Y-47655700D01*
%TO.N,Net-(U22-DI)*%
X195499999Y-45344300D02*
X199311401Y-45344300D01*
X199311401Y-45344300D02*
X200000001Y-44655700D01*
%TD*%
%TA.AperFunction,Conductor*%
%TO.N,GND*%
G36*
X82193038Y-46175385D02*
G01*
X82238793Y-46228189D01*
X82249999Y-46279700D01*
X82249999Y-46960500D01*
X82352627Y-46960500D01*
X82352643Y-46960499D01*
X82412171Y-46954098D01*
X82412178Y-46954096D01*
X82546885Y-46903854D01*
X82546892Y-46903850D01*
X82661986Y-46817690D01*
X82661989Y-46817687D01*
X82748149Y-46702593D01*
X82748153Y-46702586D01*
X82801108Y-46560608D01*
X82802950Y-46561295D01*
X82832388Y-46509581D01*
X82894294Y-46477186D01*
X82963886Y-46483403D01*
X83006185Y-46511119D01*
X85658382Y-49163316D01*
X85691867Y-49224639D01*
X85694701Y-49250997D01*
X85694701Y-49508369D01*
X85694702Y-49508376D01*
X85701109Y-49567983D01*
X85751403Y-49702828D01*
X85751407Y-49702835D01*
X85837653Y-49818044D01*
X85837656Y-49818047D01*
X85952865Y-49904293D01*
X85952872Y-49904297D01*
X85997819Y-49921061D01*
X86087718Y-49954591D01*
X86147328Y-49961000D01*
X86852673Y-49960999D01*
X86912284Y-49954591D01*
X86957381Y-49937770D01*
X87027070Y-49932785D01*
X87044049Y-49937771D01*
X87087820Y-49954097D01*
X87147354Y-49960499D01*
X87147371Y-49960500D01*
X87249999Y-49960500D01*
X87749999Y-49960500D01*
X87852627Y-49960500D01*
X87852643Y-49960499D01*
X87912171Y-49954098D01*
X87912178Y-49954096D01*
X88046885Y-49903854D01*
X88046892Y-49903850D01*
X88161986Y-49817690D01*
X88161989Y-49817687D01*
X88248149Y-49702593D01*
X88248153Y-49702586D01*
X88298395Y-49567879D01*
X88298397Y-49567872D01*
X88304798Y-49508344D01*
X88304799Y-49508327D01*
X88304799Y-49405700D01*
X87749999Y-49405700D01*
X87749999Y-49960500D01*
X87249999Y-49960500D01*
X87249999Y-49721443D01*
X87257817Y-49678110D01*
X87298892Y-49567983D01*
X87305301Y-49508373D01*
X87305300Y-48803028D01*
X87298892Y-48743417D01*
X87298892Y-48743416D01*
X87257817Y-48633288D01*
X87249999Y-48589955D01*
X87249999Y-48350900D01*
X87147354Y-48350900D01*
X87087826Y-48357301D01*
X87087818Y-48357303D01*
X87044047Y-48373629D01*
X86974355Y-48378613D01*
X86957381Y-48373629D01*
X86912283Y-48356808D01*
X86912284Y-48356808D01*
X86852684Y-48350401D01*
X86852682Y-48350400D01*
X86852674Y-48350400D01*
X86852666Y-48350400D01*
X86595298Y-48350400D01*
X86528259Y-48330715D01*
X86507617Y-48314081D01*
X86054731Y-47861195D01*
X86021246Y-47799872D01*
X86026230Y-47730180D01*
X86068102Y-47674247D01*
X86133566Y-47649830D01*
X86144007Y-47649738D01*
X86144007Y-47649600D01*
X86147327Y-47649599D01*
X86147328Y-47649600D01*
X86852673Y-47649599D01*
X86912284Y-47643191D01*
X86956667Y-47626636D01*
X86978344Y-47625086D01*
X86999154Y-47618822D01*
X87018382Y-47622223D01*
X87026358Y-47621653D01*
X87034123Y-47623606D01*
X87038779Y-47624938D01*
X87087716Y-47643191D01*
X87111466Y-47645744D01*
X87121719Y-47648679D01*
X87142585Y-47661888D01*
X87165401Y-47671339D01*
X87175277Y-47680211D01*
X87713680Y-48218614D01*
X87747165Y-48279937D01*
X87749999Y-48306295D01*
X87749999Y-48905700D01*
X88349404Y-48905700D01*
X88416443Y-48925385D01*
X88437083Y-48942017D01*
X90055466Y-50560401D01*
X91658382Y-52163317D01*
X91691867Y-52224640D01*
X91694701Y-52250998D01*
X91694701Y-52508369D01*
X91694702Y-52508376D01*
X91701109Y-52567983D01*
X91751403Y-52702828D01*
X91751407Y-52702835D01*
X91837653Y-52818044D01*
X91837656Y-52818047D01*
X91952865Y-52904293D01*
X91952872Y-52904297D01*
X91997819Y-52921061D01*
X92087718Y-52954591D01*
X92147328Y-52961000D01*
X92852673Y-52960999D01*
X92912284Y-52954591D01*
X92957381Y-52937770D01*
X93027070Y-52932785D01*
X93044049Y-52937771D01*
X93087820Y-52954097D01*
X93147354Y-52960499D01*
X93147371Y-52960500D01*
X93249999Y-52960500D01*
X93749999Y-52960500D01*
X93852627Y-52960500D01*
X93852643Y-52960499D01*
X93912171Y-52954098D01*
X93912178Y-52954096D01*
X94046885Y-52903854D01*
X94046892Y-52903850D01*
X94161986Y-52817690D01*
X94161989Y-52817687D01*
X94248149Y-52702593D01*
X94248153Y-52702586D01*
X94298395Y-52567879D01*
X94298397Y-52567872D01*
X94304798Y-52508344D01*
X94304799Y-52508327D01*
X94304799Y-52405700D01*
X93749999Y-52405700D01*
X93749999Y-52960500D01*
X93249999Y-52960500D01*
X93249999Y-52721443D01*
X93257817Y-52678110D01*
X93298892Y-52567983D01*
X93305301Y-52508373D01*
X93305300Y-51803028D01*
X93298892Y-51743417D01*
X93298892Y-51743416D01*
X93257817Y-51633288D01*
X93249999Y-51589955D01*
X93249999Y-51350900D01*
X93147354Y-51350900D01*
X93087826Y-51357301D01*
X93087818Y-51357303D01*
X93044047Y-51373629D01*
X92974355Y-51378613D01*
X92957381Y-51373629D01*
X92912283Y-51356808D01*
X92912284Y-51356808D01*
X92852684Y-51350401D01*
X92852682Y-51350400D01*
X92852674Y-51350400D01*
X92852666Y-51350400D01*
X92595299Y-51350400D01*
X92528260Y-51330715D01*
X92507618Y-51314081D01*
X92054732Y-50861195D01*
X92021247Y-50799872D01*
X92026231Y-50730180D01*
X92068103Y-50674247D01*
X92133567Y-50649830D01*
X92144007Y-50649738D01*
X92144007Y-50649600D01*
X92147327Y-50649599D01*
X92147328Y-50649600D01*
X92852673Y-50649599D01*
X92912284Y-50643191D01*
X92956667Y-50626636D01*
X92978344Y-50625086D01*
X92999154Y-50618822D01*
X93018382Y-50622223D01*
X93026358Y-50621653D01*
X93034123Y-50623606D01*
X93038779Y-50624938D01*
X93087716Y-50643191D01*
X93111466Y-50645744D01*
X93121719Y-50648679D01*
X93142585Y-50661888D01*
X93165401Y-50671339D01*
X93175277Y-50680211D01*
X93713680Y-51218614D01*
X93747165Y-51279937D01*
X93749999Y-51306295D01*
X93749999Y-51905700D01*
X94349404Y-51905700D01*
X94416443Y-51925385D01*
X94437083Y-51942017D01*
X96055466Y-53560401D01*
X97658382Y-55163317D01*
X97691867Y-55224640D01*
X97694701Y-55250998D01*
X97694701Y-55508369D01*
X97694702Y-55508376D01*
X97701109Y-55567983D01*
X97751403Y-55702828D01*
X97751407Y-55702835D01*
X97837653Y-55818044D01*
X97837656Y-55818047D01*
X97952865Y-55904293D01*
X97952872Y-55904297D01*
X97997819Y-55921061D01*
X98087718Y-55954591D01*
X98147328Y-55961000D01*
X98852673Y-55960999D01*
X98912284Y-55954591D01*
X98957381Y-55937770D01*
X99027070Y-55932785D01*
X99044049Y-55937771D01*
X99087820Y-55954097D01*
X99147354Y-55960499D01*
X99147371Y-55960500D01*
X99249999Y-55960500D01*
X99249999Y-55721443D01*
X99257817Y-55678110D01*
X99298892Y-55567983D01*
X99305301Y-55508373D01*
X99305300Y-55279698D01*
X99307850Y-55271014D01*
X99306562Y-55262053D01*
X99317539Y-55238015D01*
X99324984Y-55212661D01*
X99331826Y-55206732D01*
X99335587Y-55198497D01*
X99357818Y-55184210D01*
X99377788Y-55166906D01*
X99388303Y-55164618D01*
X99394365Y-55160723D01*
X99429300Y-55155700D01*
X99625999Y-55155700D01*
X99693038Y-55175385D01*
X99738793Y-55228189D01*
X99749999Y-55279700D01*
X99749999Y-55960500D01*
X99852627Y-55960500D01*
X99852643Y-55960499D01*
X99912171Y-55954098D01*
X99912178Y-55954096D01*
X100046885Y-55903854D01*
X100046892Y-55903850D01*
X100161986Y-55817690D01*
X100161989Y-55817687D01*
X100248149Y-55702593D01*
X100248153Y-55702586D01*
X100298395Y-55567879D01*
X100298397Y-55567872D01*
X100304798Y-55508344D01*
X100304799Y-55508327D01*
X100304799Y-55302497D01*
X100324484Y-55235458D01*
X100377288Y-55189703D01*
X100446446Y-55179759D01*
X100510002Y-55208784D01*
X100516480Y-55214816D01*
X103658382Y-58356718D01*
X103691867Y-58418041D01*
X103694701Y-58444397D01*
X103694701Y-58508369D01*
X103694702Y-58508376D01*
X103701109Y-58567983D01*
X103751403Y-58702828D01*
X103751407Y-58702835D01*
X103837653Y-58818044D01*
X103837656Y-58818047D01*
X103952865Y-58904293D01*
X103952872Y-58904297D01*
X103997819Y-58921061D01*
X104087718Y-58954591D01*
X104147328Y-58961000D01*
X104852673Y-58960999D01*
X104912284Y-58954591D01*
X104957381Y-58937770D01*
X105027070Y-58932785D01*
X105044049Y-58937771D01*
X105087820Y-58954097D01*
X105147354Y-58960499D01*
X105147371Y-58960500D01*
X105249999Y-58960500D01*
X105749999Y-58960500D01*
X105852627Y-58960500D01*
X105852643Y-58960499D01*
X105912171Y-58954098D01*
X105912178Y-58954096D01*
X106046885Y-58903854D01*
X106046892Y-58903850D01*
X106161986Y-58817690D01*
X106161989Y-58817687D01*
X106248149Y-58702593D01*
X106248153Y-58702586D01*
X106298395Y-58567879D01*
X106298397Y-58567872D01*
X106304798Y-58508344D01*
X106304799Y-58508327D01*
X106304799Y-58405700D01*
X105749999Y-58405700D01*
X105749999Y-58960500D01*
X105249999Y-58960500D01*
X105249999Y-58721443D01*
X105257817Y-58678110D01*
X105298892Y-58567983D01*
X105305301Y-58508373D01*
X105305300Y-57803028D01*
X105298892Y-57743417D01*
X105298892Y-57743416D01*
X105257817Y-57633288D01*
X105249999Y-57589955D01*
X105249999Y-57350900D01*
X105147354Y-57350900D01*
X105087826Y-57357301D01*
X105087818Y-57357303D01*
X105044047Y-57373629D01*
X104974355Y-57378613D01*
X104957381Y-57373629D01*
X104912283Y-57356808D01*
X104912284Y-57356808D01*
X104852684Y-57350401D01*
X104852682Y-57350400D01*
X104852674Y-57350400D01*
X104852666Y-57350400D01*
X104401896Y-57350400D01*
X104334857Y-57330715D01*
X104314215Y-57314081D01*
X100336745Y-53336611D01*
X100303260Y-53275288D01*
X100301137Y-53235679D01*
X100305299Y-53196973D01*
X100305298Y-52962999D01*
X100324982Y-52895961D01*
X100377786Y-52850206D01*
X100429298Y-52839000D01*
X101381969Y-52839000D01*
X101449008Y-52858685D01*
X101469650Y-52875319D01*
X103719824Y-55125492D01*
X103720681Y-55127062D01*
X103722229Y-55127964D01*
X103737363Y-55157612D01*
X103753309Y-55186815D01*
X103753327Y-55188887D01*
X103753995Y-55190195D01*
X103755533Y-55225455D01*
X103754935Y-55231459D01*
X103749501Y-55258780D01*
X103749501Y-55286054D01*
X103748891Y-55292183D01*
X103741682Y-55323234D01*
X103701110Y-55432017D01*
X103694701Y-55491627D01*
X103694701Y-55491634D01*
X103694701Y-55491635D01*
X103694701Y-56196970D01*
X103694702Y-56196976D01*
X103701109Y-56256583D01*
X103751403Y-56391428D01*
X103751404Y-56391430D01*
X103751405Y-56391431D01*
X103837655Y-56506646D01*
X103950942Y-56591453D01*
X103952869Y-56592895D01*
X103952872Y-56592897D01*
X103997819Y-56609661D01*
X104087718Y-56643191D01*
X104147328Y-56649600D01*
X104852673Y-56649599D01*
X104912284Y-56643191D01*
X104956667Y-56626636D01*
X104978344Y-56625086D01*
X104999154Y-56618822D01*
X105018382Y-56622223D01*
X105026358Y-56621653D01*
X105034123Y-56623606D01*
X105038779Y-56624938D01*
X105087716Y-56643191D01*
X105111466Y-56645744D01*
X105121719Y-56648679D01*
X105142585Y-56661888D01*
X105165401Y-56671339D01*
X105175277Y-56680211D01*
X105713680Y-57218614D01*
X105747165Y-57279937D01*
X105749999Y-57306295D01*
X105749999Y-57905700D01*
X106349404Y-57905700D01*
X106416443Y-57925385D01*
X106437083Y-57942017D01*
X108048744Y-59553679D01*
X109658382Y-61163317D01*
X109691867Y-61224640D01*
X109694701Y-61250998D01*
X109694701Y-61508369D01*
X109694702Y-61508376D01*
X109701109Y-61567983D01*
X109751403Y-61702828D01*
X109751407Y-61702835D01*
X109837653Y-61818044D01*
X109837656Y-61818047D01*
X109952865Y-61904293D01*
X109952872Y-61904297D01*
X109994079Y-61919666D01*
X110087718Y-61954591D01*
X110147328Y-61961000D01*
X110852673Y-61960999D01*
X110912284Y-61954591D01*
X110957381Y-61937770D01*
X111027070Y-61932785D01*
X111044049Y-61937771D01*
X111087820Y-61954097D01*
X111147354Y-61960499D01*
X111147371Y-61960500D01*
X111249999Y-61960500D01*
X111249999Y-61721443D01*
X111257817Y-61678110D01*
X111279182Y-61620827D01*
X111298892Y-61567983D01*
X111305301Y-61508373D01*
X111305300Y-61279698D01*
X111307850Y-61271014D01*
X111306562Y-61262053D01*
X111317539Y-61238015D01*
X111324984Y-61212661D01*
X111331826Y-61206732D01*
X111335587Y-61198497D01*
X111357818Y-61184210D01*
X111377788Y-61166906D01*
X111388303Y-61164618D01*
X111394365Y-61160723D01*
X111429300Y-61155700D01*
X111625999Y-61155700D01*
X111693038Y-61175385D01*
X111738793Y-61228189D01*
X111749999Y-61279700D01*
X111749999Y-61960500D01*
X111852627Y-61960500D01*
X111852643Y-61960499D01*
X111912171Y-61954098D01*
X111912178Y-61954096D01*
X112046885Y-61903854D01*
X112046892Y-61903850D01*
X112161986Y-61817690D01*
X112161989Y-61817687D01*
X112248149Y-61702593D01*
X112248153Y-61702586D01*
X112298395Y-61567879D01*
X112298397Y-61567872D01*
X112304798Y-61508344D01*
X112304799Y-61508327D01*
X112304799Y-61320697D01*
X112324484Y-61253658D01*
X112377288Y-61207903D01*
X112446446Y-61197959D01*
X112510002Y-61226984D01*
X112516480Y-61233016D01*
X115658382Y-64374918D01*
X115691867Y-64436241D01*
X115694701Y-64462596D01*
X115694701Y-64508368D01*
X115694702Y-64508376D01*
X115701109Y-64567983D01*
X115751403Y-64702828D01*
X115751407Y-64702835D01*
X115837653Y-64818044D01*
X115837656Y-64818047D01*
X115952865Y-64904293D01*
X115952872Y-64904297D01*
X115994079Y-64919666D01*
X116087718Y-64954591D01*
X116147328Y-64961000D01*
X116852673Y-64960999D01*
X116912284Y-64954591D01*
X116957381Y-64937770D01*
X117027070Y-64932785D01*
X117044049Y-64937771D01*
X117087820Y-64954097D01*
X117147354Y-64960499D01*
X117147371Y-64960500D01*
X117249999Y-64960500D01*
X117749999Y-64960500D01*
X117852627Y-64960500D01*
X117852643Y-64960499D01*
X117912171Y-64954098D01*
X117912178Y-64954096D01*
X118046885Y-64903854D01*
X118046892Y-64903850D01*
X118161986Y-64817690D01*
X118161989Y-64817687D01*
X118248149Y-64702593D01*
X118248153Y-64702586D01*
X118298395Y-64567879D01*
X118298397Y-64567872D01*
X118304798Y-64508344D01*
X118304799Y-64508327D01*
X118304799Y-64405700D01*
X117749999Y-64405700D01*
X117749999Y-64960500D01*
X117249999Y-64960500D01*
X117249999Y-64721443D01*
X117257817Y-64678110D01*
X117298892Y-64567983D01*
X117305301Y-64508373D01*
X117305300Y-63803028D01*
X117298892Y-63743417D01*
X117296221Y-63736255D01*
X117257817Y-63633288D01*
X117249999Y-63589955D01*
X117249999Y-63350900D01*
X117147354Y-63350900D01*
X117087826Y-63357301D01*
X117087818Y-63357303D01*
X117044047Y-63373629D01*
X116974355Y-63378613D01*
X116957381Y-63373629D01*
X116912283Y-63356808D01*
X116912284Y-63356808D01*
X116852684Y-63350401D01*
X116852682Y-63350400D01*
X116852674Y-63350400D01*
X116852666Y-63350400D01*
X116383696Y-63350400D01*
X116316657Y-63330715D01*
X116296015Y-63314081D01*
X112334979Y-59353045D01*
X112301494Y-59291722D01*
X112299371Y-59252108D01*
X112300294Y-59243520D01*
X112305299Y-59196973D01*
X112305298Y-58962999D01*
X112324982Y-58895961D01*
X112377786Y-58850206D01*
X112429298Y-58839000D01*
X113381969Y-58839000D01*
X113449008Y-58858685D01*
X113469650Y-58875319D01*
X115719824Y-61125492D01*
X115720681Y-61127062D01*
X115722229Y-61127964D01*
X115737363Y-61157612D01*
X115753309Y-61186815D01*
X115753327Y-61188887D01*
X115753995Y-61190195D01*
X115755533Y-61225455D01*
X115754935Y-61231459D01*
X115749501Y-61258780D01*
X115749501Y-61286054D01*
X115748891Y-61292183D01*
X115741683Y-61323234D01*
X115706692Y-61417052D01*
X115701110Y-61432017D01*
X115694701Y-61491627D01*
X115694701Y-61491634D01*
X115694701Y-61491635D01*
X115694701Y-62196970D01*
X115694702Y-62196976D01*
X115701109Y-62256583D01*
X115751403Y-62391428D01*
X115751407Y-62391435D01*
X115832742Y-62500084D01*
X115832744Y-62500086D01*
X115837655Y-62506646D01*
X115844214Y-62511556D01*
X115844215Y-62511557D01*
X115952865Y-62592893D01*
X115952872Y-62592897D01*
X115997819Y-62609661D01*
X116087718Y-62643191D01*
X116147328Y-62649600D01*
X116852673Y-62649599D01*
X116912284Y-62643191D01*
X116956667Y-62626636D01*
X117026358Y-62621653D01*
X117043326Y-62626634D01*
X117079943Y-62640291D01*
X117087710Y-62643189D01*
X117087716Y-62643191D01*
X117147326Y-62649600D01*
X117404701Y-62649599D01*
X117471740Y-62669283D01*
X117492382Y-62685918D01*
X117945799Y-63139335D01*
X117979284Y-63200658D01*
X117974300Y-63270350D01*
X117932428Y-63326283D01*
X117866964Y-63350700D01*
X117855948Y-63350799D01*
X117855948Y-63350900D01*
X117749999Y-63350900D01*
X117749999Y-63905700D01*
X118304799Y-63905700D01*
X118304799Y-63799751D01*
X118305925Y-63799751D01*
X118320909Y-63736255D01*
X118371173Y-63687724D01*
X118439695Y-63674071D01*
X118504722Y-63699632D01*
X118516363Y-63709900D01*
X121658382Y-66851919D01*
X121691867Y-66913242D01*
X121694701Y-66939600D01*
X121694701Y-67508370D01*
X121694702Y-67508376D01*
X121701109Y-67567983D01*
X121751403Y-67702828D01*
X121751407Y-67702835D01*
X121837653Y-67818044D01*
X121837656Y-67818047D01*
X121952865Y-67904293D01*
X121952872Y-67904297D01*
X121997819Y-67921061D01*
X122087718Y-67954591D01*
X122147328Y-67961000D01*
X122852673Y-67960999D01*
X122912284Y-67954591D01*
X122957381Y-67937770D01*
X123027070Y-67932785D01*
X123044049Y-67937771D01*
X123087820Y-67954097D01*
X123147354Y-67960499D01*
X123147371Y-67960500D01*
X123249999Y-67960500D01*
X123749999Y-67960500D01*
X123852627Y-67960500D01*
X123852643Y-67960499D01*
X123912171Y-67954098D01*
X123912178Y-67954096D01*
X124046885Y-67903854D01*
X124046892Y-67903850D01*
X124161986Y-67817690D01*
X124161989Y-67817687D01*
X124248149Y-67702593D01*
X124248153Y-67702586D01*
X124298395Y-67567879D01*
X124298397Y-67567872D01*
X124304798Y-67508344D01*
X124304799Y-67508327D01*
X124304799Y-67405700D01*
X123749999Y-67405700D01*
X123749999Y-67960500D01*
X123249999Y-67960500D01*
X123249999Y-67721443D01*
X123257817Y-67678110D01*
X123298892Y-67567983D01*
X123305301Y-67508373D01*
X123305300Y-66803028D01*
X123298892Y-66743417D01*
X123296221Y-66736255D01*
X123257817Y-66633288D01*
X123249999Y-66589955D01*
X123249999Y-66350900D01*
X123147354Y-66350900D01*
X123087826Y-66357301D01*
X123087818Y-66357303D01*
X123044047Y-66373629D01*
X123022330Y-66375182D01*
X123001478Y-66381445D01*
X122982296Y-66378045D01*
X122974355Y-66378613D01*
X122966513Y-66376637D01*
X122961885Y-66375309D01*
X122912284Y-66356809D01*
X122888499Y-66354251D01*
X122878203Y-66351297D01*
X122857376Y-66338093D01*
X122834596Y-66328657D01*
X122824723Y-66319788D01*
X122366215Y-65861280D01*
X122332730Y-65799957D01*
X122337714Y-65730265D01*
X122379586Y-65674332D01*
X122445050Y-65649915D01*
X122453896Y-65649599D01*
X122852672Y-65649599D01*
X122852673Y-65649599D01*
X122912284Y-65643191D01*
X122956667Y-65626636D01*
X123026358Y-65621653D01*
X123043326Y-65626634D01*
X123087716Y-65643191D01*
X123147326Y-65649600D01*
X123404701Y-65649599D01*
X123471740Y-65669283D01*
X123492382Y-65685918D01*
X123945799Y-66139335D01*
X123979284Y-66200658D01*
X123974300Y-66270350D01*
X123932428Y-66326283D01*
X123866964Y-66350700D01*
X123855948Y-66350799D01*
X123855948Y-66350900D01*
X123749999Y-66350900D01*
X123749999Y-66905700D01*
X124304799Y-66905700D01*
X124304799Y-66799751D01*
X124305925Y-66799751D01*
X124320909Y-66736255D01*
X124371173Y-66687724D01*
X124439695Y-66674071D01*
X124504722Y-66699632D01*
X124516363Y-66709900D01*
X127658382Y-69851919D01*
X127691867Y-69913242D01*
X127694701Y-69939600D01*
X127694701Y-70508370D01*
X127694702Y-70508376D01*
X127701109Y-70567983D01*
X127751403Y-70702828D01*
X127751407Y-70702835D01*
X127837653Y-70818044D01*
X127837656Y-70818047D01*
X127952865Y-70904293D01*
X127952872Y-70904297D01*
X127997819Y-70921061D01*
X128087718Y-70954591D01*
X128147328Y-70961000D01*
X128852673Y-70960999D01*
X128912284Y-70954591D01*
X128957381Y-70937770D01*
X129027070Y-70932785D01*
X129044049Y-70937771D01*
X129087820Y-70954097D01*
X129147354Y-70960499D01*
X129147371Y-70960500D01*
X129249999Y-70960500D01*
X129749999Y-70960500D01*
X129852627Y-70960500D01*
X129852643Y-70960499D01*
X129912171Y-70954098D01*
X129912178Y-70954096D01*
X130046885Y-70903854D01*
X130046892Y-70903850D01*
X130161986Y-70817690D01*
X130161989Y-70817687D01*
X130248149Y-70702593D01*
X130248153Y-70702586D01*
X130298395Y-70567879D01*
X130298397Y-70567872D01*
X130304798Y-70508344D01*
X130304799Y-70508327D01*
X130304799Y-70405700D01*
X129749999Y-70405700D01*
X129749999Y-70960500D01*
X129249999Y-70960500D01*
X129249999Y-70721443D01*
X129257817Y-70678110D01*
X129275062Y-70631874D01*
X129298892Y-70567983D01*
X129305301Y-70508373D01*
X129305300Y-69803028D01*
X129298892Y-69743417D01*
X129298892Y-69743416D01*
X129257817Y-69633288D01*
X129249999Y-69589955D01*
X129249999Y-69350900D01*
X129147354Y-69350900D01*
X129087826Y-69357301D01*
X129087818Y-69357303D01*
X129044047Y-69373629D01*
X129022330Y-69375182D01*
X129001478Y-69381445D01*
X128982296Y-69378045D01*
X128974355Y-69378613D01*
X128966513Y-69376637D01*
X128961885Y-69375309D01*
X128912284Y-69356809D01*
X128888499Y-69354251D01*
X128878203Y-69351297D01*
X128857376Y-69338093D01*
X128834596Y-69328657D01*
X128824723Y-69319788D01*
X128366215Y-68861280D01*
X128332730Y-68799957D01*
X128337714Y-68730265D01*
X128379586Y-68674332D01*
X128445050Y-68649915D01*
X128453896Y-68649599D01*
X128852672Y-68649599D01*
X128852673Y-68649599D01*
X128912284Y-68643191D01*
X128956667Y-68626636D01*
X128978344Y-68625086D01*
X128999154Y-68618822D01*
X129018382Y-68622223D01*
X129026358Y-68621653D01*
X129034123Y-68623606D01*
X129038779Y-68624938D01*
X129087716Y-68643191D01*
X129111466Y-68645744D01*
X129121719Y-68648679D01*
X129142585Y-68661888D01*
X129165401Y-68671339D01*
X129175277Y-68680211D01*
X129713680Y-69218614D01*
X129747165Y-69279937D01*
X129749999Y-69306295D01*
X129749999Y-69905700D01*
X130349404Y-69905700D01*
X130416443Y-69925385D01*
X130437083Y-69942017D01*
X132055466Y-71560401D01*
X133658382Y-73163317D01*
X133691867Y-73224640D01*
X133694701Y-73250998D01*
X133694701Y-73508369D01*
X133694702Y-73508376D01*
X133701109Y-73567983D01*
X133751403Y-73702828D01*
X133751407Y-73702835D01*
X133837653Y-73818044D01*
X133837656Y-73818047D01*
X133952865Y-73904293D01*
X133952872Y-73904297D01*
X133997819Y-73921061D01*
X134087718Y-73954591D01*
X134147328Y-73961000D01*
X134852673Y-73960999D01*
X134912284Y-73954591D01*
X134957381Y-73937770D01*
X135027070Y-73932785D01*
X135044049Y-73937771D01*
X135087820Y-73954097D01*
X135147354Y-73960499D01*
X135147371Y-73960500D01*
X135249999Y-73960500D01*
X135749999Y-73960500D01*
X135852627Y-73960500D01*
X135852643Y-73960499D01*
X135912171Y-73954098D01*
X135912178Y-73954096D01*
X136046885Y-73903854D01*
X136046892Y-73903850D01*
X136161986Y-73817690D01*
X136161989Y-73817687D01*
X136248149Y-73702593D01*
X136248153Y-73702586D01*
X136298395Y-73567879D01*
X136298397Y-73567872D01*
X136304798Y-73508344D01*
X136304799Y-73508327D01*
X136304799Y-73405700D01*
X135749999Y-73405700D01*
X135749999Y-73960500D01*
X135249999Y-73960500D01*
X135249999Y-73721443D01*
X135257817Y-73678110D01*
X135272863Y-73637770D01*
X135298892Y-73567983D01*
X135305301Y-73508373D01*
X135305300Y-72803028D01*
X135298892Y-72743417D01*
X135298892Y-72743416D01*
X135257817Y-72633288D01*
X135249999Y-72589955D01*
X135249999Y-72350900D01*
X135147354Y-72350900D01*
X135087826Y-72357301D01*
X135087818Y-72357303D01*
X135044047Y-72373629D01*
X134974355Y-72378613D01*
X134957381Y-72373629D01*
X134912283Y-72356808D01*
X134912284Y-72356808D01*
X134852684Y-72350401D01*
X134852682Y-72350400D01*
X134852674Y-72350400D01*
X134852666Y-72350400D01*
X134595299Y-72350400D01*
X134528260Y-72330715D01*
X134507618Y-72314081D01*
X134054732Y-71861195D01*
X134021247Y-71799872D01*
X134026231Y-71730180D01*
X134068103Y-71674247D01*
X134133567Y-71649830D01*
X134144007Y-71649738D01*
X134144007Y-71649600D01*
X134147327Y-71649599D01*
X134147328Y-71649600D01*
X134852673Y-71649599D01*
X134912284Y-71643191D01*
X134956667Y-71626636D01*
X134978344Y-71625086D01*
X134999154Y-71618822D01*
X135018382Y-71622223D01*
X135026358Y-71621653D01*
X135034123Y-71623606D01*
X135038779Y-71624938D01*
X135087716Y-71643191D01*
X135111466Y-71645744D01*
X135121719Y-71648679D01*
X135142585Y-71661888D01*
X135165401Y-71671339D01*
X135175277Y-71680211D01*
X135713680Y-72218614D01*
X135747165Y-72279937D01*
X135749999Y-72306295D01*
X135749999Y-72905700D01*
X136349404Y-72905700D01*
X136416443Y-72925385D01*
X136437083Y-72942017D01*
X138063521Y-74568456D01*
X139658382Y-76163317D01*
X139691867Y-76224640D01*
X139694701Y-76250998D01*
X139694701Y-76508369D01*
X139694702Y-76508376D01*
X139701109Y-76567983D01*
X139751403Y-76702828D01*
X139751407Y-76702835D01*
X139837653Y-76818044D01*
X139837656Y-76818047D01*
X139952865Y-76904293D01*
X139952872Y-76904297D01*
X139997819Y-76921061D01*
X140087718Y-76954591D01*
X140147328Y-76961000D01*
X140852673Y-76960999D01*
X140912284Y-76954591D01*
X140957381Y-76937770D01*
X141027070Y-76932785D01*
X141044049Y-76937771D01*
X141087820Y-76954097D01*
X141147354Y-76960499D01*
X141147371Y-76960500D01*
X141249999Y-76960500D01*
X141749999Y-76960500D01*
X141852627Y-76960500D01*
X141852643Y-76960499D01*
X141912171Y-76954098D01*
X141912178Y-76954096D01*
X142046885Y-76903854D01*
X142046892Y-76903850D01*
X142161986Y-76817690D01*
X142161989Y-76817687D01*
X142248149Y-76702593D01*
X142248153Y-76702586D01*
X142298395Y-76567879D01*
X142298397Y-76567872D01*
X142304798Y-76508344D01*
X142304799Y-76508327D01*
X142304799Y-76405700D01*
X141749999Y-76405700D01*
X141749999Y-76960500D01*
X141249999Y-76960500D01*
X141249999Y-76721443D01*
X141257817Y-76678110D01*
X141262258Y-76666204D01*
X141298892Y-76567983D01*
X141305301Y-76508373D01*
X141305300Y-75905700D01*
X141749999Y-75905700D01*
X142304799Y-75905700D01*
X142304799Y-75803072D01*
X142304798Y-75803055D01*
X142298397Y-75743527D01*
X142298395Y-75743520D01*
X142248153Y-75608813D01*
X142248149Y-75608806D01*
X142161989Y-75493712D01*
X142161986Y-75493709D01*
X142046892Y-75407549D01*
X142046885Y-75407545D01*
X141912178Y-75357303D01*
X141912171Y-75357301D01*
X141852643Y-75350900D01*
X141749999Y-75350900D01*
X141749999Y-75905700D01*
X141305300Y-75905700D01*
X141305300Y-75803028D01*
X141298892Y-75743417D01*
X141257817Y-75633288D01*
X141249999Y-75589955D01*
X141249999Y-75350900D01*
X141147354Y-75350900D01*
X141087826Y-75357301D01*
X141087818Y-75357303D01*
X141044047Y-75373629D01*
X140974355Y-75378613D01*
X140957381Y-75373629D01*
X140912283Y-75356808D01*
X140912284Y-75356808D01*
X140852684Y-75350401D01*
X140852682Y-75350400D01*
X140852674Y-75350400D01*
X140852666Y-75350400D01*
X140595299Y-75350400D01*
X140528260Y-75330715D01*
X140507618Y-75314081D01*
X140054732Y-74861195D01*
X140021247Y-74799872D01*
X140026231Y-74730180D01*
X140068103Y-74674247D01*
X140133567Y-74649830D01*
X140144007Y-74649738D01*
X140144007Y-74649600D01*
X140147327Y-74649599D01*
X140147328Y-74649600D01*
X140852673Y-74649599D01*
X140912284Y-74643191D01*
X140956667Y-74626636D01*
X141026358Y-74621653D01*
X141043326Y-74626634D01*
X141087716Y-74643191D01*
X141147326Y-74649600D01*
X141852671Y-74649599D01*
X141912282Y-74643191D01*
X142047130Y-74592896D01*
X142162345Y-74506646D01*
X142171446Y-74494487D01*
X142227379Y-74452618D01*
X142270712Y-74444800D01*
X144224732Y-74444800D01*
X144224748Y-74444801D01*
X144232344Y-74444801D01*
X144390455Y-74444801D01*
X144390458Y-74444801D01*
X144543186Y-74403877D01*
X144607006Y-74367030D01*
X144680117Y-74324820D01*
X144791921Y-74213016D01*
X144791921Y-74213014D01*
X144802125Y-74202811D01*
X144802128Y-74202806D01*
X146507618Y-72497318D01*
X146568941Y-72463833D01*
X146595299Y-72460999D01*
X146852672Y-72460999D01*
X146852673Y-72460999D01*
X146912284Y-72454591D01*
X146957381Y-72437770D01*
X147027070Y-72432785D01*
X147044049Y-72437771D01*
X147087820Y-72454097D01*
X147147354Y-72460499D01*
X147147371Y-72460500D01*
X147249999Y-72460500D01*
X147749999Y-72460500D01*
X147852627Y-72460500D01*
X147852643Y-72460499D01*
X147912171Y-72454098D01*
X147912178Y-72454096D01*
X148046885Y-72403854D01*
X148046892Y-72403850D01*
X148161986Y-72317690D01*
X148161989Y-72317687D01*
X148248149Y-72202593D01*
X148248153Y-72202586D01*
X148298395Y-72067879D01*
X148298397Y-72067872D01*
X148304798Y-72008344D01*
X148304799Y-72008327D01*
X148304799Y-71905700D01*
X147749999Y-71905700D01*
X147749999Y-72460500D01*
X147249999Y-72460500D01*
X147249999Y-72221443D01*
X147257817Y-72178110D01*
X147298892Y-72067983D01*
X147305301Y-72008373D01*
X147305300Y-71405700D01*
X147749999Y-71405700D01*
X148304799Y-71405700D01*
X148304799Y-71303072D01*
X148304798Y-71303055D01*
X148298397Y-71243527D01*
X148298395Y-71243520D01*
X148248153Y-71108813D01*
X148248149Y-71108806D01*
X148161989Y-70993712D01*
X148161986Y-70993709D01*
X148046892Y-70907549D01*
X148046885Y-70907545D01*
X147912178Y-70857303D01*
X147912171Y-70857301D01*
X147852643Y-70850900D01*
X147749999Y-70850900D01*
X147749999Y-71405700D01*
X147305300Y-71405700D01*
X147305300Y-71303028D01*
X147298892Y-71243417D01*
X147282808Y-71200293D01*
X147257817Y-71133288D01*
X147249999Y-71089955D01*
X147249999Y-70850900D01*
X147147354Y-70850900D01*
X147087826Y-70857301D01*
X147087818Y-70857303D01*
X147044047Y-70873629D01*
X146974355Y-70878613D01*
X146957381Y-70873629D01*
X146912287Y-70856810D01*
X146912286Y-70856809D01*
X146912284Y-70856809D01*
X146852674Y-70850400D01*
X146852664Y-70850400D01*
X146147330Y-70850400D01*
X146147324Y-70850401D01*
X146087717Y-70856808D01*
X145952872Y-70907102D01*
X145952865Y-70907106D01*
X145837656Y-70993352D01*
X145837653Y-70993355D01*
X145751407Y-71108564D01*
X145751403Y-71108571D01*
X145701109Y-71243417D01*
X145699694Y-71256583D01*
X145694702Y-71303023D01*
X145694701Y-71303035D01*
X145694701Y-71560401D01*
X145675016Y-71627440D01*
X145658381Y-71648082D01*
X144477348Y-72829118D01*
X144098985Y-73207481D01*
X144037662Y-73240966D01*
X144011304Y-73243800D01*
X142270712Y-73243800D01*
X142203673Y-73224115D01*
X142171447Y-73194113D01*
X142162345Y-73181954D01*
X142127276Y-73155701D01*
X142047134Y-73095706D01*
X142047127Y-73095702D01*
X141912281Y-73045408D01*
X141912282Y-73045408D01*
X141849371Y-73038645D01*
X141849504Y-73037403D01*
X141788384Y-73015806D01*
X141745550Y-72960607D01*
X141739358Y-72891012D01*
X141771775Y-72829118D01*
X141773220Y-72827647D01*
X145274550Y-69326319D01*
X145301477Y-69311615D01*
X145327296Y-69295023D01*
X145333496Y-69294131D01*
X145335873Y-69292834D01*
X145362231Y-69290000D01*
X145570701Y-69290000D01*
X145637740Y-69309685D01*
X145683495Y-69362489D01*
X145694701Y-69414000D01*
X145694701Y-69696969D01*
X145694702Y-69696976D01*
X145701109Y-69756583D01*
X145751403Y-69891428D01*
X145751407Y-69891435D01*
X145837653Y-70006644D01*
X145837656Y-70006647D01*
X145952865Y-70092893D01*
X145952872Y-70092897D01*
X145969616Y-70099142D01*
X146087718Y-70143191D01*
X146147328Y-70149600D01*
X146852673Y-70149599D01*
X146912284Y-70143191D01*
X146956667Y-70126636D01*
X147026358Y-70121653D01*
X147043326Y-70126634D01*
X147079943Y-70140291D01*
X147087710Y-70143189D01*
X147087716Y-70143191D01*
X147147326Y-70149600D01*
X147852671Y-70149599D01*
X147912282Y-70143191D01*
X148047130Y-70092896D01*
X148162345Y-70006646D01*
X148171446Y-69994487D01*
X148227379Y-69952618D01*
X148270712Y-69944800D01*
X151724732Y-69944800D01*
X151724748Y-69944801D01*
X151732344Y-69944801D01*
X151890455Y-69944801D01*
X151890458Y-69944801D01*
X152043186Y-69903877D01*
X152102576Y-69869588D01*
X152180117Y-69824820D01*
X152291921Y-69713016D01*
X152291921Y-69713014D01*
X152302125Y-69702811D01*
X152302129Y-69702806D01*
X152507617Y-69497318D01*
X152568940Y-69463833D01*
X152595298Y-69460999D01*
X152852672Y-69460999D01*
X152852673Y-69460999D01*
X152912284Y-69454591D01*
X152957381Y-69437770D01*
X153027070Y-69432785D01*
X153044049Y-69437771D01*
X153087820Y-69454097D01*
X153147354Y-69460499D01*
X153147371Y-69460500D01*
X153249999Y-69460500D01*
X153749999Y-69460500D01*
X153852627Y-69460500D01*
X153852643Y-69460499D01*
X153912171Y-69454098D01*
X153912178Y-69454096D01*
X154046885Y-69403854D01*
X154046892Y-69403850D01*
X154161986Y-69317690D01*
X154161989Y-69317687D01*
X154248149Y-69202593D01*
X154248153Y-69202586D01*
X154298395Y-69067879D01*
X154298397Y-69067872D01*
X154304798Y-69008344D01*
X154304799Y-69008327D01*
X154304799Y-68905700D01*
X153749999Y-68905700D01*
X153749999Y-69460500D01*
X153249999Y-69460500D01*
X153249999Y-69221443D01*
X153257817Y-69178110D01*
X153267910Y-69151049D01*
X153298892Y-69067983D01*
X153305301Y-69008373D01*
X153305300Y-68405700D01*
X153749999Y-68405700D01*
X154304799Y-68405700D01*
X154304799Y-68303072D01*
X154304798Y-68303055D01*
X154298397Y-68243527D01*
X154298395Y-68243520D01*
X154248153Y-68108813D01*
X154248149Y-68108806D01*
X154161989Y-67993712D01*
X154161986Y-67993709D01*
X154046892Y-67907549D01*
X154046885Y-67907545D01*
X153912178Y-67857303D01*
X153912171Y-67857301D01*
X153852643Y-67850900D01*
X153749999Y-67850900D01*
X153749999Y-68405700D01*
X153305300Y-68405700D01*
X153305300Y-68303028D01*
X153298892Y-68243417D01*
X153298892Y-68243416D01*
X153257817Y-68133288D01*
X153249999Y-68089955D01*
X153249999Y-67850900D01*
X153147354Y-67850900D01*
X153087826Y-67857301D01*
X153087818Y-67857303D01*
X153044047Y-67873629D01*
X152974355Y-67878613D01*
X152957381Y-67873629D01*
X152912287Y-67856810D01*
X152912286Y-67856809D01*
X152912284Y-67856809D01*
X152852674Y-67850400D01*
X152852664Y-67850400D01*
X152147330Y-67850400D01*
X152147324Y-67850401D01*
X152087717Y-67856808D01*
X151952872Y-67907102D01*
X151952865Y-67907106D01*
X151837656Y-67993352D01*
X151837653Y-67993355D01*
X151751407Y-68108564D01*
X151751403Y-68108571D01*
X151701109Y-68243417D01*
X151694702Y-68303016D01*
X151694702Y-68303023D01*
X151694701Y-68303035D01*
X151694701Y-68560401D01*
X151686057Y-68589837D01*
X151679534Y-68619827D01*
X151675778Y-68624844D01*
X151675016Y-68627440D01*
X151658383Y-68648082D01*
X151598985Y-68707481D01*
X151537662Y-68740966D01*
X151511303Y-68743800D01*
X148270712Y-68743800D01*
X148203673Y-68724115D01*
X148171447Y-68694113D01*
X148162345Y-68681954D01*
X148127276Y-68655701D01*
X148047134Y-68595706D01*
X148047127Y-68595702D01*
X147912281Y-68545408D01*
X147912282Y-68545408D01*
X147849371Y-68538645D01*
X147849504Y-68537403D01*
X147788384Y-68515806D01*
X147745550Y-68460607D01*
X147739358Y-68391012D01*
X147771775Y-68329118D01*
X147773224Y-68327643D01*
X149774549Y-66326319D01*
X149835872Y-66292834D01*
X149862230Y-66290000D01*
X151570701Y-66290000D01*
X151637740Y-66309685D01*
X151683495Y-66362489D01*
X151694701Y-66414000D01*
X151694701Y-66696969D01*
X151694702Y-66696976D01*
X151701109Y-66756583D01*
X151751403Y-66891428D01*
X151751407Y-66891435D01*
X151837653Y-67006644D01*
X151837656Y-67006647D01*
X151952865Y-67092893D01*
X151952872Y-67092897D01*
X151997819Y-67109661D01*
X152087718Y-67143191D01*
X152147328Y-67149600D01*
X152852673Y-67149599D01*
X152912284Y-67143191D01*
X152956667Y-67126636D01*
X153026358Y-67121653D01*
X153043326Y-67126634D01*
X153079943Y-67140291D01*
X153087710Y-67143189D01*
X153087716Y-67143191D01*
X153147326Y-67149600D01*
X153852671Y-67149599D01*
X153912282Y-67143191D01*
X154047130Y-67092896D01*
X154162345Y-67006646D01*
X154171446Y-66994487D01*
X154227379Y-66952618D01*
X154270712Y-66944800D01*
X157724732Y-66944800D01*
X157724748Y-66944801D01*
X157732344Y-66944801D01*
X157890455Y-66944801D01*
X157890458Y-66944801D01*
X158043186Y-66903877D01*
X158102576Y-66869588D01*
X158180117Y-66824820D01*
X158291921Y-66713016D01*
X158291921Y-66713014D01*
X158302125Y-66702811D01*
X158302129Y-66702806D01*
X158507617Y-66497318D01*
X158568940Y-66463833D01*
X158595298Y-66460999D01*
X158852672Y-66460999D01*
X158852673Y-66460999D01*
X158912284Y-66454591D01*
X158957381Y-66437770D01*
X159027070Y-66432785D01*
X159044049Y-66437771D01*
X159087820Y-66454097D01*
X159147354Y-66460499D01*
X159147371Y-66460500D01*
X159249999Y-66460500D01*
X159749999Y-66460500D01*
X159852627Y-66460500D01*
X159852643Y-66460499D01*
X159912171Y-66454098D01*
X159912178Y-66454096D01*
X160046885Y-66403854D01*
X160046892Y-66403850D01*
X160161986Y-66317690D01*
X160161989Y-66317687D01*
X160248149Y-66202593D01*
X160248153Y-66202586D01*
X160298395Y-66067879D01*
X160298397Y-66067872D01*
X160304798Y-66008344D01*
X160304799Y-66008327D01*
X160304799Y-65905700D01*
X159749999Y-65905700D01*
X159749999Y-66460500D01*
X159249999Y-66460500D01*
X159249999Y-66221443D01*
X159257817Y-66178110D01*
X159298892Y-66067983D01*
X159305301Y-66008373D01*
X159305300Y-65405700D01*
X159749999Y-65405700D01*
X160304799Y-65405700D01*
X160304799Y-65303072D01*
X160304798Y-65303055D01*
X160298397Y-65243527D01*
X160298395Y-65243520D01*
X160248153Y-65108813D01*
X160248149Y-65108806D01*
X160161989Y-64993712D01*
X160161986Y-64993709D01*
X160046892Y-64907549D01*
X160046885Y-64907545D01*
X159912178Y-64857303D01*
X159912171Y-64857301D01*
X159852643Y-64850900D01*
X159749999Y-64850900D01*
X159749999Y-65405700D01*
X159305300Y-65405700D01*
X159305300Y-65303028D01*
X159298892Y-65243417D01*
X159286471Y-65210114D01*
X159257817Y-65133288D01*
X159249999Y-65089955D01*
X159249999Y-64850900D01*
X159147354Y-64850900D01*
X159087826Y-64857301D01*
X159087818Y-64857303D01*
X159044047Y-64873629D01*
X158974355Y-64878613D01*
X158957381Y-64873629D01*
X158912287Y-64856810D01*
X158912286Y-64856809D01*
X158912284Y-64856809D01*
X158852674Y-64850400D01*
X158852664Y-64850400D01*
X158147330Y-64850400D01*
X158147324Y-64850401D01*
X158087717Y-64856808D01*
X157952872Y-64907102D01*
X157952865Y-64907106D01*
X157837656Y-64993352D01*
X157837653Y-64993355D01*
X157751407Y-65108564D01*
X157751403Y-65108571D01*
X157701109Y-65243417D01*
X157698672Y-65266089D01*
X157694702Y-65303023D01*
X157694701Y-65303035D01*
X157694701Y-65560401D01*
X157686057Y-65589837D01*
X157679534Y-65619827D01*
X157675778Y-65624844D01*
X157675016Y-65627440D01*
X157658383Y-65648082D01*
X157598985Y-65707481D01*
X157537662Y-65740966D01*
X157511303Y-65743800D01*
X154270712Y-65743800D01*
X154203673Y-65724115D01*
X154171447Y-65694113D01*
X154162345Y-65681954D01*
X154127276Y-65655701D01*
X154047134Y-65595706D01*
X154047127Y-65595702D01*
X153912281Y-65545408D01*
X153912282Y-65545408D01*
X153849371Y-65538645D01*
X153849504Y-65537403D01*
X153788384Y-65515806D01*
X153745550Y-65460607D01*
X153739358Y-65391012D01*
X153771775Y-65329118D01*
X153773224Y-65327643D01*
X155774549Y-63326319D01*
X155835872Y-63292834D01*
X155862230Y-63290000D01*
X157570701Y-63290000D01*
X157637740Y-63309685D01*
X157683495Y-63362489D01*
X157694701Y-63414000D01*
X157694701Y-63696969D01*
X157694702Y-63696976D01*
X157701109Y-63756583D01*
X157751403Y-63891428D01*
X157751407Y-63891435D01*
X157837653Y-64006644D01*
X157837656Y-64006647D01*
X157952865Y-64092893D01*
X157952872Y-64092897D01*
X157997819Y-64109661D01*
X158087718Y-64143191D01*
X158147328Y-64149600D01*
X158852673Y-64149599D01*
X158912284Y-64143191D01*
X158956667Y-64126636D01*
X159026358Y-64121653D01*
X159043326Y-64126634D01*
X159079943Y-64140291D01*
X159087710Y-64143189D01*
X159087716Y-64143191D01*
X159147326Y-64149600D01*
X159852671Y-64149599D01*
X159912282Y-64143191D01*
X160047130Y-64092896D01*
X160162345Y-64006646D01*
X160171446Y-63994487D01*
X160227379Y-63952618D01*
X160270712Y-63944800D01*
X163724732Y-63944800D01*
X163724748Y-63944801D01*
X163732344Y-63944801D01*
X163890455Y-63944801D01*
X163890458Y-63944801D01*
X164043186Y-63903877D01*
X164102576Y-63869588D01*
X164180117Y-63824820D01*
X164291921Y-63713016D01*
X164291921Y-63713014D01*
X164302125Y-63702811D01*
X164302129Y-63702806D01*
X164507617Y-63497318D01*
X164568940Y-63463833D01*
X164595298Y-63460999D01*
X164852672Y-63460999D01*
X164852673Y-63460999D01*
X164912284Y-63454591D01*
X164957381Y-63437770D01*
X165027070Y-63432785D01*
X165044049Y-63437771D01*
X165087820Y-63454097D01*
X165147354Y-63460499D01*
X165147371Y-63460500D01*
X165249999Y-63460500D01*
X165749999Y-63460500D01*
X165852627Y-63460500D01*
X165852643Y-63460499D01*
X165912171Y-63454098D01*
X165912178Y-63454096D01*
X166046885Y-63403854D01*
X166046892Y-63403850D01*
X166161986Y-63317690D01*
X166161989Y-63317687D01*
X166248149Y-63202593D01*
X166248153Y-63202586D01*
X166298395Y-63067879D01*
X166298397Y-63067872D01*
X166304798Y-63008344D01*
X166304799Y-63008327D01*
X166304799Y-62905700D01*
X165749999Y-62905700D01*
X165749999Y-63460500D01*
X165249999Y-63460500D01*
X165249999Y-63221443D01*
X165257817Y-63178110D01*
X165272279Y-63139335D01*
X165298892Y-63067983D01*
X165305301Y-63008373D01*
X165305300Y-62405700D01*
X165749999Y-62405700D01*
X166304799Y-62405700D01*
X166304799Y-62303072D01*
X166304798Y-62303055D01*
X166298397Y-62243527D01*
X166298395Y-62243520D01*
X166248153Y-62108813D01*
X166248149Y-62108806D01*
X166161989Y-61993712D01*
X166161986Y-61993709D01*
X166046892Y-61907549D01*
X166046885Y-61907545D01*
X165912178Y-61857303D01*
X165912171Y-61857301D01*
X165852643Y-61850900D01*
X165749999Y-61850900D01*
X165749999Y-62405700D01*
X165305300Y-62405700D01*
X165305300Y-62303028D01*
X165298892Y-62243417D01*
X165281571Y-62196976D01*
X165257817Y-62133288D01*
X165249999Y-62089955D01*
X165249999Y-61850900D01*
X165147354Y-61850900D01*
X165087826Y-61857301D01*
X165087818Y-61857303D01*
X165044047Y-61873629D01*
X164974355Y-61878613D01*
X164957381Y-61873629D01*
X164912287Y-61856810D01*
X164912286Y-61856809D01*
X164912284Y-61856809D01*
X164852674Y-61850400D01*
X164852664Y-61850400D01*
X164147330Y-61850400D01*
X164147324Y-61850401D01*
X164087717Y-61856808D01*
X163952872Y-61907102D01*
X163952865Y-61907106D01*
X163837656Y-61993352D01*
X163837653Y-61993355D01*
X163751407Y-62108564D01*
X163751403Y-62108571D01*
X163701109Y-62243417D01*
X163697870Y-62273549D01*
X163694702Y-62303023D01*
X163694701Y-62303035D01*
X163694701Y-62560401D01*
X163686057Y-62589837D01*
X163679534Y-62619827D01*
X163675778Y-62624844D01*
X163675016Y-62627440D01*
X163658383Y-62648082D01*
X163598985Y-62707481D01*
X163537662Y-62740966D01*
X163511303Y-62743800D01*
X160270712Y-62743800D01*
X160203673Y-62724115D01*
X160171447Y-62694113D01*
X160162345Y-62681954D01*
X160119126Y-62649600D01*
X160047134Y-62595706D01*
X160047127Y-62595702D01*
X159912281Y-62545408D01*
X159912282Y-62545408D01*
X159849371Y-62538645D01*
X159849504Y-62537403D01*
X159788384Y-62515806D01*
X159745550Y-62460607D01*
X159739358Y-62391012D01*
X159771775Y-62329118D01*
X159773224Y-62327643D01*
X161481351Y-60619517D01*
X161542674Y-60586032D01*
X161569032Y-60583198D01*
X163571086Y-60583198D01*
X163638125Y-60602883D01*
X163683880Y-60655687D01*
X163694376Y-60693944D01*
X163701109Y-60756583D01*
X163751403Y-60891428D01*
X163751407Y-60891435D01*
X163837653Y-61006644D01*
X163837656Y-61006647D01*
X163952865Y-61092893D01*
X163952872Y-61092897D01*
X163997819Y-61109661D01*
X164087718Y-61143191D01*
X164147328Y-61149600D01*
X164852673Y-61149599D01*
X164912284Y-61143191D01*
X164956667Y-61126636D01*
X165026358Y-61121653D01*
X165043326Y-61126634D01*
X165079943Y-61140291D01*
X165087710Y-61143189D01*
X165087716Y-61143191D01*
X165147326Y-61149600D01*
X165852671Y-61149599D01*
X165912282Y-61143191D01*
X166047130Y-61092896D01*
X166162345Y-61006646D01*
X166171446Y-60994487D01*
X166227379Y-60952618D01*
X166270712Y-60944800D01*
X169724732Y-60944800D01*
X169724748Y-60944801D01*
X169732344Y-60944801D01*
X169890455Y-60944801D01*
X169890458Y-60944801D01*
X170043186Y-60903877D01*
X170102576Y-60869588D01*
X170180117Y-60824820D01*
X170291921Y-60713016D01*
X170291921Y-60713014D01*
X170302125Y-60702811D01*
X170302129Y-60702806D01*
X170507617Y-60497318D01*
X170568940Y-60463833D01*
X170595298Y-60460999D01*
X170852672Y-60460999D01*
X170852673Y-60460999D01*
X170912284Y-60454591D01*
X170957381Y-60437770D01*
X171027070Y-60432785D01*
X171044049Y-60437771D01*
X171087820Y-60454097D01*
X171147354Y-60460499D01*
X171147371Y-60460500D01*
X171249999Y-60460500D01*
X171749999Y-60460500D01*
X171852627Y-60460500D01*
X171852643Y-60460499D01*
X171912171Y-60454098D01*
X171912178Y-60454096D01*
X172046885Y-60403854D01*
X172046892Y-60403850D01*
X172161986Y-60317690D01*
X172161989Y-60317687D01*
X172248149Y-60202593D01*
X172248153Y-60202586D01*
X172298395Y-60067879D01*
X172298397Y-60067872D01*
X172304798Y-60008344D01*
X172304799Y-60008327D01*
X172304799Y-59905700D01*
X171749999Y-59905700D01*
X171749999Y-60460500D01*
X171249999Y-60460500D01*
X171249999Y-60221443D01*
X171257817Y-60178110D01*
X171298892Y-60067983D01*
X171305301Y-60008373D01*
X171305300Y-59405700D01*
X171749999Y-59405700D01*
X172304799Y-59405700D01*
X172304799Y-59303072D01*
X172304798Y-59303055D01*
X172298397Y-59243527D01*
X172298395Y-59243520D01*
X172248153Y-59108813D01*
X172248149Y-59108806D01*
X172161989Y-58993712D01*
X172161986Y-58993709D01*
X172046892Y-58907549D01*
X172046885Y-58907545D01*
X171912178Y-58857303D01*
X171912171Y-58857301D01*
X171852643Y-58850900D01*
X171749999Y-58850900D01*
X171749999Y-59405700D01*
X171305300Y-59405700D01*
X171305300Y-59303028D01*
X171299573Y-59249748D01*
X171298892Y-59243416D01*
X171257817Y-59133288D01*
X171249999Y-59089955D01*
X171249999Y-58850900D01*
X171147354Y-58850900D01*
X171087826Y-58857301D01*
X171087818Y-58857303D01*
X171044047Y-58873629D01*
X170974355Y-58878613D01*
X170957381Y-58873629D01*
X170912287Y-58856810D01*
X170912286Y-58856809D01*
X170912284Y-58856809D01*
X170852674Y-58850400D01*
X170852664Y-58850400D01*
X170147330Y-58850400D01*
X170147324Y-58850401D01*
X170087717Y-58856808D01*
X169952872Y-58907102D01*
X169952865Y-58907106D01*
X169837656Y-58993352D01*
X169837653Y-58993355D01*
X169751407Y-59108564D01*
X169751403Y-59108571D01*
X169701109Y-59243417D01*
X169699694Y-59256583D01*
X169694702Y-59303023D01*
X169694701Y-59303035D01*
X169694701Y-59560401D01*
X169686057Y-59589837D01*
X169679534Y-59619827D01*
X169675778Y-59624844D01*
X169675016Y-59627440D01*
X169658383Y-59648082D01*
X169598985Y-59707481D01*
X169537662Y-59740966D01*
X169511303Y-59743800D01*
X166270712Y-59743800D01*
X166203673Y-59724115D01*
X166171447Y-59694113D01*
X166162345Y-59681954D01*
X166119126Y-59649600D01*
X166047134Y-59595706D01*
X166047125Y-59595701D01*
X166046722Y-59595551D01*
X166046377Y-59595293D01*
X166039345Y-59591453D01*
X166039897Y-59590441D01*
X165990789Y-59553679D01*
X165966373Y-59488215D01*
X165981225Y-59419942D01*
X166002373Y-59391692D01*
X167774549Y-57619517D01*
X167835872Y-57586032D01*
X167862230Y-57583198D01*
X169571086Y-57583198D01*
X169638125Y-57602883D01*
X169683880Y-57655687D01*
X169694376Y-57693944D01*
X169701109Y-57756583D01*
X169751403Y-57891428D01*
X169751407Y-57891435D01*
X169837653Y-58006644D01*
X169837656Y-58006647D01*
X169952865Y-58092893D01*
X169952872Y-58092897D01*
X169997819Y-58109661D01*
X170087718Y-58143191D01*
X170147328Y-58149600D01*
X170852673Y-58149599D01*
X170912284Y-58143191D01*
X170956667Y-58126636D01*
X171026358Y-58121653D01*
X171043326Y-58126634D01*
X171079943Y-58140291D01*
X171087710Y-58143189D01*
X171087716Y-58143191D01*
X171147326Y-58149600D01*
X171852671Y-58149599D01*
X171912282Y-58143191D01*
X172047130Y-58092896D01*
X172162345Y-58006646D01*
X172171446Y-57994487D01*
X172227379Y-57952618D01*
X172270712Y-57944800D01*
X175724732Y-57944800D01*
X175724748Y-57944801D01*
X175732344Y-57944801D01*
X175890455Y-57944801D01*
X175890458Y-57944801D01*
X176043186Y-57903877D01*
X176102576Y-57869588D01*
X176180117Y-57824820D01*
X176291921Y-57713016D01*
X176291921Y-57713014D01*
X176302125Y-57702811D01*
X176302129Y-57702806D01*
X176507617Y-57497318D01*
X176568940Y-57463833D01*
X176595298Y-57460999D01*
X176852672Y-57460999D01*
X176852673Y-57460999D01*
X176912284Y-57454591D01*
X176957381Y-57437770D01*
X177027070Y-57432785D01*
X177044049Y-57437771D01*
X177087820Y-57454097D01*
X177147354Y-57460499D01*
X177147371Y-57460500D01*
X177249999Y-57460500D01*
X177749999Y-57460500D01*
X177852627Y-57460500D01*
X177852643Y-57460499D01*
X177912171Y-57454098D01*
X177912178Y-57454096D01*
X178046885Y-57403854D01*
X178046892Y-57403850D01*
X178161986Y-57317690D01*
X178161989Y-57317687D01*
X178248149Y-57202593D01*
X178248153Y-57202586D01*
X178298395Y-57067879D01*
X178298397Y-57067872D01*
X178304798Y-57008344D01*
X178304799Y-57008327D01*
X178304799Y-56905700D01*
X177749999Y-56905700D01*
X177749999Y-57460500D01*
X177249999Y-57460500D01*
X177249999Y-57221443D01*
X177257817Y-57178110D01*
X177294840Y-57078846D01*
X177298892Y-57067983D01*
X177305301Y-57008373D01*
X177305300Y-56779697D01*
X177324985Y-56712661D01*
X177377789Y-56666906D01*
X177429300Y-56655700D01*
X177499999Y-56655700D01*
X177499999Y-56529700D01*
X177519684Y-56462661D01*
X177572488Y-56416906D01*
X177623999Y-56405700D01*
X178304799Y-56405700D01*
X178304799Y-56374500D01*
X178324484Y-56307461D01*
X178377288Y-56261706D01*
X178428799Y-56250500D01*
X180137770Y-56250500D01*
X180204809Y-56270185D01*
X180225451Y-56286819D01*
X184463181Y-60524549D01*
X184496666Y-60585872D01*
X184499500Y-60612230D01*
X184499500Y-62387770D01*
X184479815Y-62454809D01*
X184463181Y-62475451D01*
X176017047Y-70921584D01*
X176003851Y-70941334D01*
X175990712Y-70961000D01*
X175989376Y-70963000D01*
X175934914Y-71044507D01*
X175878343Y-71181082D01*
X175878340Y-71181092D01*
X175849500Y-71326079D01*
X175849500Y-71507057D01*
X175829815Y-71574096D01*
X175780595Y-71618145D01*
X175750704Y-71632969D01*
X175602278Y-71752277D01*
X175602277Y-71752278D01*
X175546647Y-71821486D01*
X175489304Y-71861405D01*
X175419482Y-71863985D01*
X175359349Y-71828406D01*
X175353353Y-71821486D01*
X175297722Y-71752278D01*
X175297721Y-71752277D01*
X175149295Y-71632969D01*
X175119405Y-71618145D01*
X175068092Y-71570723D01*
X175050500Y-71507057D01*
X175050500Y-68324499D01*
X175070185Y-68257460D01*
X175122989Y-68211705D01*
X175174500Y-68200499D01*
X175758028Y-68200499D01*
X175758036Y-68200499D01*
X175877418Y-68189886D01*
X176073049Y-68133909D01*
X176253407Y-68039698D01*
X176411109Y-67911109D01*
X176539698Y-67753407D01*
X176633909Y-67573049D01*
X176689886Y-67377418D01*
X176700500Y-67258037D01*
X176700499Y-66141964D01*
X176689886Y-66022582D01*
X176633909Y-65826951D01*
X176539698Y-65646593D01*
X176469418Y-65560401D01*
X176411109Y-65488890D01*
X176253409Y-65360304D01*
X176253410Y-65360304D01*
X176253407Y-65360302D01*
X176073049Y-65266091D01*
X176073048Y-65266090D01*
X176073045Y-65266089D01*
X175955829Y-65232550D01*
X175877418Y-65210114D01*
X175877415Y-65210113D01*
X175877413Y-65210113D01*
X175811102Y-65204217D01*
X175758037Y-65199500D01*
X175758032Y-65199500D01*
X172841971Y-65199500D01*
X172841965Y-65199500D01*
X172841964Y-65199501D01*
X172830316Y-65200536D01*
X172722584Y-65210113D01*
X172526954Y-65266089D01*
X172456237Y-65303029D01*
X172346593Y-65360302D01*
X172346591Y-65360303D01*
X172346590Y-65360304D01*
X172188890Y-65488890D01*
X172060304Y-65646590D01*
X172060302Y-65646593D01*
X172035481Y-65694111D01*
X171966089Y-65826954D01*
X171910114Y-66022583D01*
X171910113Y-66022586D01*
X171899500Y-66141966D01*
X171899500Y-67258028D01*
X171899501Y-67258034D01*
X171910113Y-67377415D01*
X171966089Y-67573045D01*
X171966090Y-67573048D01*
X171966091Y-67573049D01*
X172060302Y-67753407D01*
X172089324Y-67789000D01*
X172188890Y-67911109D01*
X172245716Y-67957444D01*
X172346593Y-68039698D01*
X172526951Y-68133909D01*
X172722582Y-68189886D01*
X172841963Y-68200500D01*
X173425500Y-68200499D01*
X173492539Y-68220183D01*
X173538294Y-68272987D01*
X173549500Y-68324499D01*
X173549500Y-71507057D01*
X173529815Y-71574096D01*
X173480595Y-71618145D01*
X173450704Y-71632969D01*
X173329769Y-71730180D01*
X173302278Y-71752278D01*
X173301993Y-71752633D01*
X173246326Y-71821885D01*
X173188982Y-71861803D01*
X173119160Y-71864383D01*
X173059027Y-71828804D01*
X173053031Y-71821884D01*
X172997364Y-71752630D01*
X172849025Y-71633392D01*
X172849022Y-71633390D01*
X172678523Y-71548831D01*
X172493824Y-71502897D01*
X172451097Y-71500000D01*
X172250000Y-71500000D01*
X172250000Y-74500000D01*
X172451097Y-74500000D01*
X172493824Y-74497102D01*
X172678523Y-74451168D01*
X172849022Y-74366609D01*
X172849025Y-74366607D01*
X172997366Y-74247367D01*
X172997367Y-74247366D01*
X173053033Y-74178115D01*
X173110376Y-74138196D01*
X173180198Y-74135616D01*
X173240331Y-74171194D01*
X173246305Y-74178089D01*
X173302278Y-74247722D01*
X173302280Y-74247724D01*
X173450704Y-74367030D01*
X173450707Y-74367032D01*
X173621302Y-74451639D01*
X173621303Y-74451639D01*
X173621307Y-74451641D01*
X173806111Y-74497600D01*
X173848877Y-74500500D01*
X174687769Y-74500499D01*
X174754808Y-74520183D01*
X174775450Y-74536818D01*
X175646181Y-75407549D01*
X176426452Y-76187819D01*
X176459937Y-76249142D01*
X176454953Y-76318834D01*
X176413081Y-76374767D01*
X176347617Y-76399184D01*
X176338771Y-76399500D01*
X175586670Y-76399500D01*
X175586654Y-76399499D01*
X175579058Y-76399499D01*
X175420943Y-76399499D01*
X175344579Y-76419961D01*
X175268214Y-76440423D01*
X175268209Y-76440426D01*
X175131290Y-76519475D01*
X175131286Y-76519478D01*
X174917946Y-76732816D01*
X174856622Y-76766300D01*
X174786931Y-76761315D01*
X174755954Y-76744400D01*
X174652093Y-76666649D01*
X174652086Y-76666645D01*
X174517379Y-76616403D01*
X174517372Y-76616401D01*
X174457844Y-76610000D01*
X174210000Y-76610000D01*
X174210000Y-79110000D01*
X174275500Y-79110000D01*
X174342539Y-79129685D01*
X174388294Y-79182489D01*
X174399500Y-79234000D01*
X174399500Y-81775500D01*
X174379815Y-81842539D01*
X174327011Y-81888294D01*
X174275500Y-81899500D01*
X164800097Y-81899500D01*
X164733058Y-81879815D01*
X164712416Y-81863181D01*
X162171415Y-79322180D01*
X162137930Y-79260857D01*
X162142914Y-79191165D01*
X162184786Y-79135232D01*
X162250250Y-79110815D01*
X162259074Y-79110499D01*
X163027872Y-79110499D01*
X163087483Y-79104091D01*
X163121667Y-79091340D01*
X163191358Y-79086357D01*
X163208327Y-79091338D01*
X163242517Y-79104091D01*
X163302127Y-79110500D01*
X164297872Y-79110499D01*
X164357483Y-79104091D01*
X164391667Y-79091340D01*
X164461358Y-79086357D01*
X164478327Y-79091338D01*
X164512517Y-79104091D01*
X164572127Y-79110500D01*
X165567872Y-79110499D01*
X165627483Y-79104091D01*
X165661667Y-79091340D01*
X165731358Y-79086357D01*
X165748327Y-79091338D01*
X165782517Y-79104091D01*
X165842127Y-79110500D01*
X166837872Y-79110499D01*
X166897483Y-79104091D01*
X166931667Y-79091340D01*
X167001358Y-79086357D01*
X167018327Y-79091338D01*
X167052517Y-79104091D01*
X167112127Y-79110500D01*
X168107872Y-79110499D01*
X168167483Y-79104091D01*
X168201667Y-79091340D01*
X168271358Y-79086357D01*
X168288327Y-79091338D01*
X168322517Y-79104091D01*
X168382127Y-79110500D01*
X169377872Y-79110499D01*
X169437483Y-79104091D01*
X169471667Y-79091340D01*
X169541358Y-79086357D01*
X169558327Y-79091338D01*
X169592517Y-79104091D01*
X169652127Y-79110500D01*
X170647872Y-79110499D01*
X170707483Y-79104091D01*
X170741667Y-79091340D01*
X170811358Y-79086357D01*
X170828327Y-79091338D01*
X170862517Y-79104091D01*
X170922127Y-79110500D01*
X171917872Y-79110499D01*
X171977483Y-79104091D01*
X172011667Y-79091340D01*
X172081358Y-79086357D01*
X172098327Y-79091338D01*
X172132517Y-79104091D01*
X172192127Y-79110500D01*
X173187872Y-79110499D01*
X173247483Y-79104091D01*
X173282381Y-79091074D01*
X173352069Y-79086089D01*
X173369050Y-79091075D01*
X173402623Y-79103598D01*
X173462155Y-79109999D01*
X173462172Y-79110000D01*
X173710000Y-79110000D01*
X173710000Y-76610000D01*
X173462155Y-76610000D01*
X173402627Y-76616401D01*
X173402619Y-76616403D01*
X173369047Y-76628925D01*
X173299355Y-76633909D01*
X173282381Y-76628925D01*
X173247482Y-76615908D01*
X173247483Y-76615908D01*
X173187883Y-76609501D01*
X173187881Y-76609500D01*
X173187873Y-76609500D01*
X173187864Y-76609500D01*
X172192129Y-76609500D01*
X172192123Y-76609501D01*
X172132518Y-76615908D01*
X172098331Y-76628659D01*
X172028639Y-76633642D01*
X172011669Y-76628659D01*
X171993241Y-76621786D01*
X171977483Y-76615909D01*
X171977482Y-76615908D01*
X171917883Y-76609501D01*
X171917881Y-76609500D01*
X171917873Y-76609500D01*
X171917864Y-76609500D01*
X170922129Y-76609500D01*
X170922123Y-76609501D01*
X170862518Y-76615908D01*
X170828331Y-76628659D01*
X170758639Y-76633642D01*
X170741669Y-76628659D01*
X170723241Y-76621786D01*
X170707483Y-76615909D01*
X170707482Y-76615908D01*
X170647883Y-76609501D01*
X170647881Y-76609500D01*
X170647873Y-76609500D01*
X170647864Y-76609500D01*
X169652129Y-76609500D01*
X169652123Y-76609501D01*
X169592518Y-76615908D01*
X169558331Y-76628659D01*
X169488639Y-76633642D01*
X169471669Y-76628659D01*
X169453241Y-76621786D01*
X169437483Y-76615909D01*
X169437482Y-76615908D01*
X169377883Y-76609501D01*
X169377881Y-76609500D01*
X169377873Y-76609500D01*
X169377864Y-76609500D01*
X168382129Y-76609500D01*
X168382123Y-76609501D01*
X168322518Y-76615908D01*
X168288331Y-76628659D01*
X168218639Y-76633642D01*
X168201669Y-76628659D01*
X168183241Y-76621786D01*
X168167483Y-76615909D01*
X168167482Y-76615908D01*
X168107883Y-76609501D01*
X168107881Y-76609500D01*
X168107873Y-76609500D01*
X168107864Y-76609500D01*
X167112129Y-76609500D01*
X167112123Y-76609501D01*
X167052518Y-76615908D01*
X167018331Y-76628659D01*
X166948639Y-76633642D01*
X166931669Y-76628659D01*
X166913241Y-76621786D01*
X166897483Y-76615909D01*
X166897482Y-76615908D01*
X166837883Y-76609501D01*
X166837881Y-76609500D01*
X166837873Y-76609500D01*
X166837864Y-76609500D01*
X165842129Y-76609500D01*
X165842123Y-76609501D01*
X165782518Y-76615908D01*
X165748331Y-76628659D01*
X165678639Y-76633642D01*
X165661669Y-76628659D01*
X165643241Y-76621786D01*
X165627483Y-76615909D01*
X165627482Y-76615908D01*
X165567883Y-76609501D01*
X165567881Y-76609500D01*
X165567873Y-76609500D01*
X165567864Y-76609500D01*
X164572129Y-76609500D01*
X164572123Y-76609501D01*
X164512518Y-76615908D01*
X164478331Y-76628659D01*
X164408639Y-76633642D01*
X164391669Y-76628659D01*
X164373241Y-76621786D01*
X164357483Y-76615909D01*
X164357482Y-76615908D01*
X164297883Y-76609501D01*
X164297881Y-76609500D01*
X164297873Y-76609500D01*
X164297864Y-76609500D01*
X163302129Y-76609500D01*
X163302123Y-76609501D01*
X163242518Y-76615908D01*
X163208331Y-76628659D01*
X163138639Y-76633642D01*
X163121669Y-76628659D01*
X163103241Y-76621786D01*
X163087483Y-76615909D01*
X163087482Y-76615908D01*
X163027883Y-76609501D01*
X163027881Y-76609500D01*
X163027873Y-76609500D01*
X163027864Y-76609500D01*
X162032129Y-76609500D01*
X162032123Y-76609501D01*
X161972516Y-76615908D01*
X161837671Y-76666202D01*
X161837664Y-76666206D01*
X161722455Y-76752452D01*
X161722452Y-76752455D01*
X161636206Y-76867664D01*
X161636202Y-76867671D01*
X161585908Y-77002517D01*
X161579501Y-77062116D01*
X161579500Y-77062135D01*
X161579500Y-78472894D01*
X161559815Y-78539933D01*
X161507011Y-78585688D01*
X161437853Y-78595632D01*
X161393500Y-78580281D01*
X161372407Y-78568103D01*
X161372406Y-78568102D01*
X161341783Y-78550422D01*
X161285881Y-78535443D01*
X161189057Y-78509499D01*
X161030943Y-78509499D01*
X161023347Y-78509499D01*
X161023331Y-78509500D01*
X160814141Y-78509500D01*
X160747102Y-78489815D01*
X160701347Y-78437011D01*
X160697969Y-78428859D01*
X160693796Y-78417669D01*
X160693793Y-78417665D01*
X160693793Y-78417664D01*
X160607547Y-78302455D01*
X160607544Y-78302452D01*
X160492335Y-78216206D01*
X160492328Y-78216202D01*
X160357482Y-78165908D01*
X160357483Y-78165908D01*
X160297883Y-78159501D01*
X160297881Y-78159500D01*
X160297873Y-78159500D01*
X160297864Y-78159500D01*
X158702129Y-78159500D01*
X158702123Y-78159501D01*
X158642516Y-78165908D01*
X158507671Y-78216202D01*
X158507664Y-78216206D01*
X158392455Y-78302452D01*
X158392452Y-78302455D01*
X158306206Y-78417664D01*
X158306202Y-78417671D01*
X158255908Y-78552517D01*
X158249501Y-78612116D01*
X158249500Y-78612135D01*
X158249500Y-79607870D01*
X158249501Y-79607876D01*
X158255908Y-79667481D01*
X158268659Y-79701669D01*
X158273642Y-79771361D01*
X158268659Y-79788331D01*
X158255908Y-79822518D01*
X158249501Y-79882116D01*
X158249500Y-79882135D01*
X158249500Y-80288770D01*
X158229815Y-80355809D01*
X158177011Y-80401564D01*
X158107853Y-80411508D01*
X158044297Y-80382483D01*
X158037819Y-80376451D01*
X157286819Y-79625451D01*
X157253334Y-79564128D01*
X157250500Y-79537770D01*
X157250500Y-78362230D01*
X157270185Y-78295191D01*
X157286819Y-78274549D01*
X161860272Y-73701096D01*
X170750000Y-73701096D01*
X170752897Y-73743824D01*
X170798831Y-73928523D01*
X170883390Y-74099022D01*
X170883392Y-74099025D01*
X171002632Y-74247366D01*
X171002633Y-74247367D01*
X171150974Y-74366607D01*
X171150977Y-74366609D01*
X171321476Y-74451168D01*
X171506175Y-74497102D01*
X171548903Y-74500000D01*
X171750000Y-74500000D01*
X171750000Y-73250000D01*
X170750000Y-73250000D01*
X170750000Y-73701096D01*
X161860272Y-73701096D01*
X163262465Y-72298903D01*
X170750000Y-72298903D01*
X170750000Y-72750000D01*
X171750000Y-72750000D01*
X171750000Y-71500000D01*
X171548903Y-71500000D01*
X171506175Y-71502897D01*
X171321476Y-71548831D01*
X171150977Y-71633390D01*
X171150974Y-71633392D01*
X171002633Y-71752632D01*
X171002632Y-71752633D01*
X170883392Y-71900974D01*
X170883390Y-71900977D01*
X170798831Y-72071476D01*
X170752897Y-72256175D01*
X170750000Y-72298903D01*
X163262465Y-72298903D01*
X172774549Y-62786819D01*
X172835872Y-62753334D01*
X172862230Y-62750500D01*
X173695396Y-62750500D01*
X173742844Y-62759937D01*
X173766503Y-62769737D01*
X173766508Y-62769738D01*
X173766511Y-62769739D01*
X173921153Y-62800499D01*
X173921156Y-62800500D01*
X173921158Y-62800500D01*
X174078844Y-62800500D01*
X174078845Y-62800499D01*
X174233497Y-62769737D01*
X174379179Y-62709394D01*
X174510289Y-62621789D01*
X174621789Y-62510289D01*
X174709394Y-62379179D01*
X174769737Y-62233497D01*
X174800500Y-62078842D01*
X174800500Y-61921158D01*
X174800500Y-61921155D01*
X174800499Y-61921153D01*
X174786425Y-61850400D01*
X174769737Y-61766503D01*
X174743365Y-61702835D01*
X174709397Y-61620827D01*
X174709390Y-61620814D01*
X174621789Y-61489711D01*
X174621786Y-61489707D01*
X174510292Y-61378213D01*
X174510288Y-61378210D01*
X174379185Y-61290609D01*
X174379172Y-61290602D01*
X174233501Y-61230264D01*
X174233489Y-61230261D01*
X174078845Y-61199500D01*
X174078842Y-61199500D01*
X173921158Y-61199500D01*
X173921155Y-61199500D01*
X173766511Y-61230260D01*
X173766506Y-61230262D01*
X173766504Y-61230262D01*
X173766503Y-61230263D01*
X173742844Y-61240062D01*
X173695396Y-61249500D01*
X172426080Y-61249500D01*
X172281092Y-61278340D01*
X172281082Y-61278343D01*
X172144508Y-61334914D01*
X172101305Y-61363781D01*
X172021581Y-61417049D01*
X172021578Y-61417052D01*
X155917048Y-77521583D01*
X155897784Y-77550415D01*
X155878647Y-77579057D01*
X155834919Y-77644499D01*
X155834912Y-77644511D01*
X155778343Y-77781082D01*
X155778340Y-77781092D01*
X155749500Y-77926079D01*
X155749500Y-77926082D01*
X155749500Y-79973918D01*
X155749500Y-79973920D01*
X155749499Y-79973920D01*
X155778340Y-80118907D01*
X155778343Y-80118917D01*
X155834912Y-80255488D01*
X155834920Y-80255503D01*
X155866369Y-80302568D01*
X155866371Y-80302571D01*
X155917043Y-80378410D01*
X155917047Y-80378415D01*
X157771586Y-82232954D01*
X157796271Y-82249447D01*
X157845270Y-82282186D01*
X157894505Y-82315084D01*
X157942384Y-82334916D01*
X158031088Y-82371659D01*
X158125709Y-82390480D01*
X158149697Y-82395251D01*
X158182050Y-82412176D01*
X158211600Y-82427633D01*
X158211600Y-82427634D01*
X158211604Y-82427636D01*
X158228827Y-82457883D01*
X158246176Y-82488348D01*
X158249500Y-82516867D01*
X158249500Y-83417870D01*
X158249501Y-83417876D01*
X158255908Y-83477481D01*
X158268659Y-83511669D01*
X158273642Y-83581361D01*
X158268659Y-83598331D01*
X158255908Y-83632518D01*
X158251284Y-83675534D01*
X158249501Y-83692123D01*
X158249500Y-83692135D01*
X158249500Y-84687870D01*
X158249501Y-84687876D01*
X158255908Y-84747481D01*
X158268659Y-84781669D01*
X158273642Y-84851361D01*
X158268659Y-84868331D01*
X158255908Y-84902518D01*
X158249501Y-84962116D01*
X158249501Y-84962123D01*
X158249500Y-84962135D01*
X158249500Y-85957870D01*
X158249501Y-85957876D01*
X158255908Y-86017481D01*
X158268659Y-86051669D01*
X158273642Y-86121361D01*
X158268659Y-86138331D01*
X158255908Y-86172518D01*
X158249501Y-86232116D01*
X158249501Y-86232123D01*
X158249500Y-86232135D01*
X158249500Y-87227870D01*
X158249501Y-87227876D01*
X158255908Y-87287481D01*
X158268659Y-87321669D01*
X158273642Y-87391361D01*
X158268659Y-87408331D01*
X158255908Y-87442518D01*
X158249501Y-87502116D01*
X158249501Y-87502123D01*
X158249500Y-87502135D01*
X158249500Y-88497870D01*
X158249501Y-88497876D01*
X158255908Y-88557481D01*
X158268659Y-88591669D01*
X158273642Y-88661361D01*
X158268659Y-88678331D01*
X158255908Y-88712518D01*
X158249501Y-88772116D01*
X158249501Y-88772123D01*
X158249500Y-88772135D01*
X158249500Y-89767870D01*
X158249501Y-89767876D01*
X158255908Y-89827481D01*
X158268659Y-89861669D01*
X158273642Y-89931361D01*
X158268659Y-89948331D01*
X158255908Y-89982518D01*
X158249501Y-90042116D01*
X158249501Y-90042123D01*
X158249500Y-90042135D01*
X158249500Y-91037870D01*
X158249501Y-91037876D01*
X158255908Y-91097481D01*
X158268659Y-91131669D01*
X158273642Y-91201361D01*
X158268659Y-91218331D01*
X158255908Y-91252518D01*
X158249501Y-91312116D01*
X158249501Y-91312123D01*
X158249500Y-91312135D01*
X158249500Y-92307870D01*
X158249501Y-92307876D01*
X158255908Y-92367481D01*
X158268659Y-92401669D01*
X158273642Y-92471361D01*
X158268659Y-92488331D01*
X158255908Y-92522518D01*
X158251825Y-92560500D01*
X158249501Y-92582123D01*
X158249500Y-92582135D01*
X158249500Y-93577870D01*
X158249501Y-93577876D01*
X158255908Y-93637481D01*
X158268659Y-93671669D01*
X158273642Y-93741361D01*
X158268659Y-93758331D01*
X158255908Y-93792518D01*
X158249501Y-93852116D01*
X158249501Y-93852123D01*
X158249500Y-93852135D01*
X158249500Y-94847870D01*
X158249501Y-94847876D01*
X158255908Y-94907483D01*
X158268925Y-94942381D01*
X158273909Y-95012072D01*
X158268925Y-95029047D01*
X158256403Y-95062619D01*
X158256401Y-95062627D01*
X158250000Y-95122155D01*
X158250000Y-95370000D01*
X160750000Y-95370000D01*
X160750000Y-95122172D01*
X160749999Y-95122155D01*
X160743597Y-95062622D01*
X160743597Y-95062620D01*
X160731075Y-95029048D01*
X160726089Y-94959356D01*
X160731071Y-94942390D01*
X160744091Y-94907483D01*
X160750500Y-94847873D01*
X160750499Y-93852128D01*
X160744091Y-93792517D01*
X160731340Y-93758332D01*
X160726357Y-93688642D01*
X160731340Y-93671669D01*
X160744091Y-93637483D01*
X160750500Y-93577873D01*
X160750499Y-92684499D01*
X160770183Y-92617461D01*
X160822987Y-92571706D01*
X160874499Y-92560500D01*
X173263920Y-92560500D01*
X173361462Y-92541096D01*
X173408913Y-92531658D01*
X173545495Y-92475084D01*
X173625453Y-92421658D01*
X173668416Y-92392952D01*
X174315297Y-91746069D01*
X174355524Y-91719191D01*
X174379179Y-91709394D01*
X174510289Y-91621789D01*
X174621789Y-91510289D01*
X174672398Y-91434548D01*
X174726010Y-91389743D01*
X174795335Y-91381036D01*
X174858363Y-91411190D01*
X174895082Y-91470634D01*
X174899500Y-91503439D01*
X174899500Y-92413330D01*
X174899499Y-92413348D01*
X174899499Y-92579054D01*
X174899498Y-92579054D01*
X174900322Y-92582128D01*
X174940423Y-92731785D01*
X174953302Y-92754091D01*
X174991287Y-92819883D01*
X175019479Y-92868715D01*
X175138349Y-92987585D01*
X175138355Y-92987590D01*
X175599478Y-93448713D01*
X175599480Y-93448716D01*
X175688584Y-93537820D01*
X175722068Y-93599141D01*
X175722067Y-93599142D01*
X175722068Y-93599143D01*
X175717084Y-93668834D01*
X175675212Y-93724768D01*
X175645315Y-93735918D01*
X175609749Y-93749184D01*
X175600902Y-93749500D01*
X175304604Y-93749500D01*
X175257155Y-93740062D01*
X175233497Y-93730263D01*
X175233493Y-93730262D01*
X175233488Y-93730260D01*
X175078845Y-93699500D01*
X175078842Y-93699500D01*
X174921158Y-93699500D01*
X174921155Y-93699500D01*
X174766510Y-93730261D01*
X174766498Y-93730264D01*
X174620827Y-93790602D01*
X174620814Y-93790609D01*
X174489711Y-93878210D01*
X174489707Y-93878213D01*
X174378213Y-93989707D01*
X174378210Y-93989711D01*
X174290609Y-94120814D01*
X174290602Y-94120827D01*
X174230264Y-94266498D01*
X174230261Y-94266510D01*
X174199500Y-94421153D01*
X174199500Y-94578846D01*
X174230261Y-94733489D01*
X174230264Y-94733501D01*
X174290602Y-94879172D01*
X174290609Y-94879185D01*
X174378210Y-95010288D01*
X174378213Y-95010292D01*
X174489707Y-95121786D01*
X174489711Y-95121789D01*
X174620814Y-95209390D01*
X174620827Y-95209397D01*
X174757918Y-95266181D01*
X174766503Y-95269737D01*
X174888938Y-95294091D01*
X174921153Y-95300499D01*
X174921156Y-95300500D01*
X174921158Y-95300500D01*
X175078844Y-95300500D01*
X175078845Y-95300499D01*
X175155152Y-95285320D01*
X175233488Y-95269739D01*
X175233489Y-95269738D01*
X175233497Y-95269737D01*
X175257155Y-95259937D01*
X175304604Y-95250500D01*
X175626000Y-95250500D01*
X175693039Y-95270185D01*
X175738794Y-95322989D01*
X175748748Y-95368748D01*
X175750000Y-95370000D01*
X178250000Y-95370000D01*
X178250000Y-95224500D01*
X178269685Y-95157461D01*
X178322489Y-95111706D01*
X178374000Y-95100500D01*
X181743920Y-95100500D01*
X181841462Y-95081096D01*
X181888913Y-95071658D01*
X182025495Y-95015084D01*
X182080373Y-94978416D01*
X182148416Y-94932952D01*
X182756428Y-94324937D01*
X182766285Y-94318701D01*
X182771218Y-94312305D01*
X182794172Y-94301059D01*
X182802433Y-94295834D01*
X182805920Y-94294589D01*
X182916395Y-94262494D01*
X182947615Y-94244030D01*
X182958818Y-94240033D01*
X182982293Y-94238690D01*
X183005088Y-94232906D01*
X183017859Y-94236655D01*
X183028574Y-94236043D01*
X183042440Y-94243873D01*
X183063613Y-94250090D01*
X183083803Y-94262031D01*
X183230000Y-94304504D01*
X183230000Y-94304503D01*
X183730000Y-94304503D01*
X183876195Y-94262031D01*
X184015374Y-94179721D01*
X184015383Y-94179714D01*
X184129714Y-94065383D01*
X184129721Y-94065374D01*
X184212031Y-93926195D01*
X184212033Y-93926190D01*
X184257144Y-93770918D01*
X184257145Y-93770912D01*
X184258790Y-93750000D01*
X183730000Y-93750000D01*
X183730000Y-94304503D01*
X183230000Y-94304503D01*
X183230000Y-93998352D01*
X183247267Y-93935233D01*
X183252494Y-93926395D01*
X183266493Y-93878213D01*
X183297642Y-93770997D01*
X183297643Y-93770991D01*
X183300499Y-93734697D01*
X183300500Y-93734690D01*
X183300500Y-93265310D01*
X183297643Y-93229007D01*
X183292429Y-93211062D01*
X183252495Y-93073608D01*
X183252492Y-93073600D01*
X183247266Y-93064763D01*
X183230000Y-93001645D01*
X183230000Y-92695494D01*
X183730000Y-92695494D01*
X183730000Y-93250000D01*
X184258790Y-93250000D01*
X184257145Y-93229089D01*
X184212031Y-93073804D01*
X184129721Y-92934625D01*
X184129714Y-92934616D01*
X184015383Y-92820285D01*
X184015374Y-92820278D01*
X183876193Y-92737967D01*
X183876190Y-92737965D01*
X183730001Y-92695493D01*
X183730000Y-92695494D01*
X183230000Y-92695494D01*
X183229998Y-92695493D01*
X183083809Y-92737965D01*
X183083806Y-92737967D01*
X183063608Y-92749912D01*
X182995884Y-92767092D01*
X182937370Y-92749910D01*
X182916397Y-92737507D01*
X182916390Y-92737504D01*
X182760997Y-92692357D01*
X182760991Y-92692356D01*
X182724697Y-92689500D01*
X182724690Y-92689500D01*
X182315310Y-92689500D01*
X182315302Y-92689500D01*
X182279008Y-92692356D01*
X182279002Y-92692357D01*
X182123609Y-92737504D01*
X182123606Y-92737505D01*
X181984315Y-92819881D01*
X181984307Y-92819887D01*
X181869887Y-92934307D01*
X181869881Y-92934315D01*
X181787505Y-93073606D01*
X181787504Y-93073607D01*
X181756452Y-93180489D01*
X181725057Y-93233574D01*
X181395451Y-93563181D01*
X181334128Y-93596666D01*
X181307770Y-93599500D01*
X178374500Y-93599500D01*
X178307461Y-93579815D01*
X178261706Y-93527011D01*
X178250500Y-93475500D01*
X178250499Y-92582129D01*
X178250498Y-92582123D01*
X178250497Y-92582116D01*
X178244091Y-92522517D01*
X178231340Y-92488332D01*
X178226357Y-92418642D01*
X178231340Y-92401669D01*
X178244091Y-92367483D01*
X178250500Y-92307873D01*
X178250499Y-91312128D01*
X178244091Y-91252517D01*
X178231340Y-91218332D01*
X178226357Y-91148642D01*
X178231340Y-91131669D01*
X178244091Y-91097483D01*
X178250500Y-91037873D01*
X178250499Y-90042128D01*
X178244091Y-89982517D01*
X178231340Y-89948332D01*
X178226357Y-89878642D01*
X178231340Y-89861669D01*
X178244091Y-89827483D01*
X178250500Y-89767873D01*
X178250499Y-88772128D01*
X178244091Y-88712517D01*
X178231340Y-88678332D01*
X178226357Y-88608642D01*
X178231340Y-88591669D01*
X178244091Y-88557483D01*
X178250500Y-88497873D01*
X178250499Y-87502128D01*
X178244091Y-87442517D01*
X178231340Y-87408332D01*
X178226357Y-87338642D01*
X178231340Y-87321669D01*
X178244091Y-87287483D01*
X178250500Y-87227873D01*
X178250499Y-86232128D01*
X178244091Y-86172517D01*
X178231340Y-86138332D01*
X178226357Y-86068642D01*
X178231340Y-86051669D01*
X178244091Y-86017483D01*
X178250500Y-85957873D01*
X178250499Y-84962128D01*
X178244091Y-84902517D01*
X178231340Y-84868332D01*
X178226357Y-84798642D01*
X178231340Y-84781669D01*
X178244091Y-84747483D01*
X178250500Y-84687873D01*
X178250499Y-83692128D01*
X178244091Y-83632517D01*
X178231340Y-83598332D01*
X178226357Y-83528642D01*
X178231340Y-83511669D01*
X178244091Y-83477483D01*
X178250500Y-83417873D01*
X178250499Y-82422128D01*
X178244091Y-82362517D01*
X178231340Y-82328332D01*
X178226357Y-82258642D01*
X178231338Y-82241672D01*
X178244091Y-82207483D01*
X178250500Y-82147873D01*
X178250499Y-81865599D01*
X178270183Y-81798563D01*
X178322987Y-81752808D01*
X178392146Y-81742864D01*
X178455701Y-81771889D01*
X178481886Y-81803602D01*
X178519477Y-81868712D01*
X178519481Y-81868717D01*
X178638349Y-81987585D01*
X178638355Y-81987590D01*
X179954139Y-83303374D01*
X179954149Y-83303385D01*
X179958479Y-83307715D01*
X179958480Y-83307716D01*
X180070284Y-83419520D01*
X180150934Y-83466083D01*
X180207215Y-83498577D01*
X180359942Y-83539500D01*
X180359943Y-83539500D01*
X181900500Y-83539500D01*
X181967539Y-83559185D01*
X182013294Y-83611989D01*
X182024500Y-83663500D01*
X182024500Y-83755701D01*
X182027401Y-83792567D01*
X182027402Y-83792573D01*
X182073254Y-83950393D01*
X182073255Y-83950396D01*
X182156917Y-84091862D01*
X182161702Y-84098031D01*
X182159256Y-84099927D01*
X182185857Y-84148642D01*
X182180873Y-84218334D01*
X182160069Y-84250703D01*
X182161702Y-84251969D01*
X182156917Y-84258137D01*
X182073255Y-84399603D01*
X182073254Y-84399606D01*
X182027402Y-84557426D01*
X182027401Y-84557432D01*
X182024500Y-84594298D01*
X182024500Y-85025701D01*
X182027401Y-85062567D01*
X182027402Y-85062573D01*
X182073254Y-85220393D01*
X182073255Y-85220396D01*
X182156917Y-85361862D01*
X182161702Y-85368031D01*
X182159256Y-85369927D01*
X182185857Y-85418642D01*
X182180873Y-85488334D01*
X182160069Y-85520703D01*
X182161702Y-85521969D01*
X182156917Y-85528137D01*
X182073255Y-85669603D01*
X182073254Y-85669606D01*
X182027402Y-85827426D01*
X182027401Y-85827432D01*
X182024500Y-85864298D01*
X182024500Y-86295701D01*
X182027401Y-86332567D01*
X182027402Y-86332573D01*
X182073254Y-86490393D01*
X182073255Y-86490396D01*
X182156917Y-86631862D01*
X182161702Y-86638031D01*
X182159256Y-86639927D01*
X182185857Y-86688642D01*
X182180873Y-86758334D01*
X182160069Y-86790703D01*
X182161702Y-86791969D01*
X182156917Y-86798137D01*
X182073255Y-86939603D01*
X182073254Y-86939606D01*
X182027402Y-87097426D01*
X182027401Y-87097432D01*
X182024500Y-87134298D01*
X182024500Y-87565701D01*
X182027401Y-87602567D01*
X182027402Y-87602573D01*
X182073254Y-87760393D01*
X182073255Y-87760396D01*
X182156917Y-87901862D01*
X182156923Y-87901870D01*
X182273129Y-88018076D01*
X182273133Y-88018079D01*
X182273135Y-88018081D01*
X182414602Y-88101744D01*
X182456224Y-88113836D01*
X182572426Y-88147597D01*
X182572429Y-88147597D01*
X182572431Y-88147598D01*
X182609306Y-88150500D01*
X182609314Y-88150500D01*
X184390686Y-88150500D01*
X184390694Y-88150500D01*
X184427569Y-88147598D01*
X184427571Y-88147597D01*
X184427573Y-88147597D01*
X184487057Y-88130315D01*
X184585398Y-88101744D01*
X184726865Y-88018081D01*
X184779866Y-87965080D01*
X184836819Y-87908128D01*
X184898142Y-87874643D01*
X184967834Y-87879627D01*
X185023767Y-87921499D01*
X185048184Y-87986963D01*
X185048500Y-87995809D01*
X185048500Y-88864282D01*
X185048500Y-88864284D01*
X185048499Y-88864284D01*
X185077340Y-89009271D01*
X185077343Y-89009281D01*
X185133913Y-89145853D01*
X185133914Y-89145855D01*
X185133916Y-89145859D01*
X185146705Y-89165000D01*
X185146764Y-89165087D01*
X185146763Y-89165087D01*
X185216046Y-89268778D01*
X185216052Y-89268785D01*
X186830220Y-90882952D01*
X186830222Y-90882954D01*
X186846393Y-90893758D01*
X186887401Y-90921158D01*
X186953141Y-90965084D01*
X186985149Y-90978342D01*
X187089724Y-91021659D01*
X187205877Y-91044763D01*
X187225104Y-91048587D01*
X187234717Y-91050500D01*
X187234718Y-91050500D01*
X187234719Y-91050500D01*
X187382554Y-91050500D01*
X190588770Y-91050500D01*
X190655809Y-91070185D01*
X190701564Y-91122989D01*
X190711508Y-91192147D01*
X190682483Y-91255703D01*
X190676451Y-91262181D01*
X190417047Y-91521584D01*
X190417045Y-91521586D01*
X190380381Y-91576462D01*
X190380379Y-91576465D01*
X190334919Y-91644499D01*
X190334912Y-91644511D01*
X190278343Y-91781082D01*
X190278340Y-91781092D01*
X190249500Y-91926079D01*
X190249500Y-91926082D01*
X190249500Y-94573918D01*
X190249500Y-94573920D01*
X190249499Y-94573920D01*
X190278340Y-94718907D01*
X190278343Y-94718917D01*
X190331758Y-94847872D01*
X190334916Y-94855495D01*
X190350741Y-94879179D01*
X190350740Y-94879179D01*
X190417046Y-94978414D01*
X190417052Y-94978421D01*
X192146951Y-96708319D01*
X192180436Y-96769642D01*
X192175452Y-96839334D01*
X192133580Y-96895267D01*
X192068116Y-96919684D01*
X192059270Y-96920000D01*
X144250000Y-96920000D01*
X144250000Y-102876000D01*
X144230315Y-102943039D01*
X144177511Y-102988794D01*
X144126000Y-103000000D01*
X80124000Y-103000000D01*
X80056961Y-102980315D01*
X80011206Y-102927511D01*
X80000000Y-102876000D01*
X80000000Y-96117844D01*
X158250000Y-96117844D01*
X158256401Y-96177372D01*
X158256403Y-96177379D01*
X158306645Y-96312086D01*
X158306649Y-96312093D01*
X158392809Y-96427187D01*
X158392812Y-96427190D01*
X158507906Y-96513350D01*
X158507913Y-96513354D01*
X158642620Y-96563596D01*
X158642627Y-96563598D01*
X158702155Y-96569999D01*
X158702172Y-96570000D01*
X159250000Y-96570000D01*
X159750000Y-96570000D01*
X160297828Y-96570000D01*
X160297844Y-96569999D01*
X160357372Y-96563598D01*
X160357379Y-96563596D01*
X160492086Y-96513354D01*
X160492093Y-96513350D01*
X160607187Y-96427190D01*
X160607190Y-96427187D01*
X160693350Y-96312093D01*
X160693354Y-96312086D01*
X160743596Y-96177379D01*
X160743598Y-96177372D01*
X160749999Y-96117844D01*
X175750000Y-96117844D01*
X175756401Y-96177372D01*
X175756403Y-96177379D01*
X175806645Y-96312086D01*
X175806649Y-96312093D01*
X175892809Y-96427187D01*
X175892812Y-96427190D01*
X176007906Y-96513350D01*
X176007913Y-96513354D01*
X176142620Y-96563596D01*
X176142627Y-96563598D01*
X176202155Y-96569999D01*
X176202172Y-96570000D01*
X176750000Y-96570000D01*
X177250000Y-96570000D01*
X177797828Y-96570000D01*
X177797844Y-96569999D01*
X177857372Y-96563598D01*
X177857379Y-96563596D01*
X177992086Y-96513354D01*
X177992093Y-96513350D01*
X178107187Y-96427190D01*
X178107190Y-96427187D01*
X178193350Y-96312093D01*
X178193354Y-96312086D01*
X178243596Y-96177379D01*
X178243598Y-96177372D01*
X178249999Y-96117844D01*
X178250000Y-96117827D01*
X178250000Y-95870000D01*
X177250000Y-95870000D01*
X177250000Y-96570000D01*
X176750000Y-96570000D01*
X176750000Y-95870000D01*
X175750000Y-95870000D01*
X175750000Y-96117844D01*
X160749999Y-96117844D01*
X160750000Y-96117827D01*
X160750000Y-95870000D01*
X159750000Y-95870000D01*
X159750000Y-96570000D01*
X159250000Y-96570000D01*
X159250000Y-95870000D01*
X158250000Y-95870000D01*
X158250000Y-96117844D01*
X80000000Y-96117844D01*
X80000000Y-46716074D01*
X80019685Y-46649035D01*
X80072489Y-46603280D01*
X80141647Y-46593336D01*
X80205203Y-46622361D01*
X80240182Y-46672742D01*
X80251402Y-46702826D01*
X80251407Y-46702835D01*
X80337653Y-46818044D01*
X80337656Y-46818047D01*
X80452865Y-46904293D01*
X80452872Y-46904297D01*
X80497819Y-46921061D01*
X80587718Y-46954591D01*
X80647328Y-46961000D01*
X81352673Y-46960999D01*
X81412284Y-46954591D01*
X81457381Y-46937770D01*
X81527070Y-46932785D01*
X81544049Y-46937771D01*
X81587820Y-46954097D01*
X81647354Y-46960499D01*
X81647371Y-46960500D01*
X81749999Y-46960500D01*
X81749999Y-46721443D01*
X81757817Y-46678110D01*
X81759819Y-46672742D01*
X81798892Y-46567983D01*
X81805301Y-46508373D01*
X81805300Y-46279698D01*
X81807850Y-46271014D01*
X81806562Y-46262053D01*
X81817539Y-46238015D01*
X81824984Y-46212661D01*
X81831826Y-46206732D01*
X81835587Y-46198497D01*
X81857818Y-46184210D01*
X81877788Y-46166906D01*
X81888303Y-46164618D01*
X81894365Y-46160723D01*
X81929300Y-46155700D01*
X82125999Y-46155700D01*
X82193038Y-46175385D01*
G37*
%TD.AperFunction*%
%TA.AperFunction,Conductor*%
G36*
X197615281Y-81732852D02*
G01*
X197645718Y-81735029D01*
X197649519Y-81737874D01*
X197654217Y-81738564D01*
X197677223Y-81758614D01*
X197701651Y-81776901D01*
X197704299Y-81782211D01*
X197706890Y-81784469D01*
X197721460Y-81816616D01*
X197757129Y-81939387D01*
X197757131Y-81939393D01*
X197838863Y-82077595D01*
X197838869Y-82077603D01*
X197952396Y-82191130D01*
X197952400Y-82191133D01*
X197952402Y-82191135D01*
X198090607Y-82272869D01*
X198122676Y-82282186D01*
X198244791Y-82317664D01*
X198244794Y-82317664D01*
X198244796Y-82317665D01*
X198280819Y-82320500D01*
X198679180Y-82320499D01*
X198715204Y-82317665D01*
X198869393Y-82272869D01*
X198926882Y-82238869D01*
X198994602Y-82221688D01*
X199035910Y-82230415D01*
X199044838Y-82233973D01*
X199110607Y-82272869D01*
X199227996Y-82306973D01*
X199233558Y-82309190D01*
X199248119Y-82320604D01*
X199275329Y-82336697D01*
X199417048Y-82478416D01*
X200276952Y-83338319D01*
X200310437Y-83399642D01*
X200305453Y-83469333D01*
X200263581Y-83525267D01*
X200198117Y-83549684D01*
X200189271Y-83550000D01*
X200025000Y-83550000D01*
X200025000Y-86550000D01*
X200672828Y-86550000D01*
X200672844Y-86549999D01*
X200732372Y-86543598D01*
X200732379Y-86543596D01*
X200867086Y-86493354D01*
X200867093Y-86493350D01*
X200982186Y-86407190D01*
X201026233Y-86348353D01*
X201082167Y-86306482D01*
X201151859Y-86301498D01*
X201213182Y-86334983D01*
X201246666Y-86396307D01*
X201249500Y-86422664D01*
X201249500Y-92577335D01*
X201229815Y-92644374D01*
X201177011Y-92690129D01*
X201107853Y-92700073D01*
X201044297Y-92671048D01*
X201026234Y-92651647D01*
X200982187Y-92592809D01*
X200867093Y-92506649D01*
X200867086Y-92506645D01*
X200732379Y-92456403D01*
X200732372Y-92456401D01*
X200672844Y-92450000D01*
X200025000Y-92450000D01*
X200025000Y-95450000D01*
X200672828Y-95450000D01*
X200672844Y-95449999D01*
X200732372Y-95443598D01*
X200732379Y-95443596D01*
X200867086Y-95393354D01*
X200867093Y-95393350D01*
X200982186Y-95307190D01*
X201026233Y-95248353D01*
X201082167Y-95206482D01*
X201151859Y-95201498D01*
X201213182Y-95234983D01*
X201246666Y-95296307D01*
X201249500Y-95322664D01*
X201249500Y-95637770D01*
X201229815Y-95704809D01*
X201213181Y-95725451D01*
X200725451Y-96213181D01*
X200664128Y-96246666D01*
X200637770Y-96249500D01*
X193862230Y-96249500D01*
X193795191Y-96229815D01*
X193774549Y-96213181D01*
X193192304Y-95630936D01*
X193158819Y-95569613D01*
X193163803Y-95499921D01*
X193205675Y-95443988D01*
X193271139Y-95419571D01*
X193323318Y-95427073D01*
X193367620Y-95443596D01*
X193367627Y-95443598D01*
X193427155Y-95449999D01*
X193427172Y-95450000D01*
X194075000Y-95450000D01*
X194575000Y-95450000D01*
X195222828Y-95450000D01*
X195222844Y-95449999D01*
X195282372Y-95443598D01*
X195282379Y-95443596D01*
X195417086Y-95393354D01*
X195417093Y-95393350D01*
X195532187Y-95307190D01*
X195532190Y-95307187D01*
X195618350Y-95192093D01*
X195618354Y-95192086D01*
X195668596Y-95057379D01*
X195668598Y-95057372D01*
X195674999Y-94997844D01*
X198425000Y-94997844D01*
X198431401Y-95057372D01*
X198431403Y-95057379D01*
X198481645Y-95192086D01*
X198481649Y-95192093D01*
X198567809Y-95307187D01*
X198567812Y-95307190D01*
X198682906Y-95393350D01*
X198682913Y-95393354D01*
X198817620Y-95443596D01*
X198817627Y-95443598D01*
X198877155Y-95449999D01*
X198877172Y-95450000D01*
X199525000Y-95450000D01*
X199525000Y-94200000D01*
X198425000Y-94200000D01*
X198425000Y-94997844D01*
X195674999Y-94997844D01*
X195675000Y-94997827D01*
X195675000Y-94200000D01*
X194575000Y-94200000D01*
X194575000Y-95450000D01*
X194075000Y-95450000D01*
X194075000Y-94200000D01*
X192975000Y-94200000D01*
X192975000Y-94997844D01*
X192981401Y-95057372D01*
X192981403Y-95057383D01*
X192997926Y-95101682D01*
X193002910Y-95171374D01*
X192969424Y-95232696D01*
X192908101Y-95266181D01*
X192838409Y-95261195D01*
X192794063Y-95232695D01*
X191786819Y-94225451D01*
X191753334Y-94164128D01*
X191750500Y-94137770D01*
X191750500Y-92902155D01*
X192975000Y-92902155D01*
X192975000Y-93700000D01*
X194075000Y-93700000D01*
X194575000Y-93700000D01*
X195675000Y-93700000D01*
X195675000Y-92902172D01*
X195674999Y-92902155D01*
X198425000Y-92902155D01*
X198425000Y-93700000D01*
X199525000Y-93700000D01*
X199525000Y-92450000D01*
X198877155Y-92450000D01*
X198817627Y-92456401D01*
X198817620Y-92456403D01*
X198682913Y-92506645D01*
X198682906Y-92506649D01*
X198567812Y-92592809D01*
X198567809Y-92592812D01*
X198481649Y-92707906D01*
X198481645Y-92707913D01*
X198431403Y-92842620D01*
X198431401Y-92842627D01*
X198425000Y-92902155D01*
X195674999Y-92902155D01*
X195668598Y-92842627D01*
X195668596Y-92842620D01*
X195618354Y-92707913D01*
X195618350Y-92707906D01*
X195532190Y-92592812D01*
X195532187Y-92592809D01*
X195417093Y-92506649D01*
X195417086Y-92506645D01*
X195282379Y-92456403D01*
X195282372Y-92456401D01*
X195222844Y-92450000D01*
X194575000Y-92450000D01*
X194575000Y-93700000D01*
X194075000Y-93700000D01*
X194075000Y-92450000D01*
X193427155Y-92450000D01*
X193367627Y-92456401D01*
X193367620Y-92456403D01*
X193232913Y-92506645D01*
X193232906Y-92506649D01*
X193117812Y-92592809D01*
X193117809Y-92592812D01*
X193031649Y-92707906D01*
X193031645Y-92707913D01*
X192981403Y-92842620D01*
X192981401Y-92842627D01*
X192975000Y-92902155D01*
X191750500Y-92902155D01*
X191750500Y-92362229D01*
X191770185Y-92295190D01*
X191786819Y-92274548D01*
X192174548Y-91886819D01*
X192235871Y-91853334D01*
X192262229Y-91850500D01*
X194313352Y-91850500D01*
X194313360Y-91850499D01*
X195272871Y-91850499D01*
X195272872Y-91850499D01*
X195332483Y-91844091D01*
X195467331Y-91793796D01*
X195493882Y-91773920D01*
X196174499Y-91773920D01*
X196203340Y-91918907D01*
X196203343Y-91918917D01*
X196259912Y-92055488D01*
X196259919Y-92055501D01*
X196342048Y-92178415D01*
X196342051Y-92178419D01*
X196446580Y-92282948D01*
X196446584Y-92282951D01*
X196569498Y-92365080D01*
X196569511Y-92365087D01*
X196704351Y-92420939D01*
X196706087Y-92421658D01*
X196706091Y-92421658D01*
X196706092Y-92421659D01*
X196851079Y-92450500D01*
X196851082Y-92450500D01*
X196998920Y-92450500D01*
X197143817Y-92421677D01*
X197143913Y-92421658D01*
X197280495Y-92365084D01*
X197403416Y-92282951D01*
X197507951Y-92178416D01*
X197590084Y-92055495D01*
X197646658Y-91918913D01*
X197675500Y-91773918D01*
X197675500Y-91626082D01*
X197675500Y-91626079D01*
X197646659Y-91481092D01*
X197646658Y-91481091D01*
X197646658Y-91481087D01*
X197612186Y-91397864D01*
X197590087Y-91344511D01*
X197590080Y-91344498D01*
X197507951Y-91221584D01*
X197507948Y-91221580D01*
X197403419Y-91117051D01*
X197403415Y-91117048D01*
X197280501Y-91034919D01*
X197280488Y-91034912D01*
X197143917Y-90978343D01*
X197143907Y-90978340D01*
X196998920Y-90949500D01*
X196998918Y-90949500D01*
X196851082Y-90949500D01*
X196851080Y-90949500D01*
X196706092Y-90978340D01*
X196706082Y-90978343D01*
X196569511Y-91034912D01*
X196569498Y-91034919D01*
X196446584Y-91117048D01*
X196446580Y-91117051D01*
X196342051Y-91221580D01*
X196342048Y-91221584D01*
X196259919Y-91344498D01*
X196259912Y-91344511D01*
X196203343Y-91481082D01*
X196203340Y-91481092D01*
X196174500Y-91626079D01*
X196174500Y-91626082D01*
X196174500Y-91773918D01*
X196174500Y-91773920D01*
X196174499Y-91773920D01*
X195493882Y-91773920D01*
X195582546Y-91707546D01*
X195668796Y-91592331D01*
X195719091Y-91457483D01*
X195725500Y-91397873D01*
X195725499Y-90802128D01*
X195719091Y-90742517D01*
X195719090Y-90742515D01*
X195719090Y-90742512D01*
X195717308Y-90734969D01*
X195718773Y-90734622D01*
X195714409Y-90673651D01*
X195718819Y-90658633D01*
X195719089Y-90657488D01*
X195719088Y-90657488D01*
X195719091Y-90657483D01*
X195725500Y-90597873D01*
X195725499Y-90002128D01*
X195719091Y-89942517D01*
X195719090Y-89942515D01*
X195719090Y-89942512D01*
X195717308Y-89934969D01*
X195718773Y-89934622D01*
X195714409Y-89873651D01*
X195718819Y-89858633D01*
X195719089Y-89857488D01*
X195719088Y-89857488D01*
X195719091Y-89857483D01*
X195725500Y-89797873D01*
X195725499Y-89202128D01*
X195719091Y-89142517D01*
X195719090Y-89142515D01*
X195719090Y-89142512D01*
X195717308Y-89134969D01*
X195718773Y-89134622D01*
X195714409Y-89073651D01*
X195718819Y-89058633D01*
X195719089Y-89057488D01*
X195719088Y-89057488D01*
X195719091Y-89057483D01*
X195725500Y-88997873D01*
X195725499Y-88402128D01*
X195719091Y-88342517D01*
X195719091Y-88342516D01*
X195717307Y-88334966D01*
X195718559Y-88334669D01*
X195714145Y-88272924D01*
X195718132Y-88259346D01*
X195718598Y-88257375D01*
X195724999Y-88197844D01*
X195725000Y-88197827D01*
X195725000Y-88150000D01*
X195687694Y-88150000D01*
X195620655Y-88130315D01*
X195588429Y-88100313D01*
X195582546Y-88092454D01*
X195582544Y-88092452D01*
X195582543Y-88092451D01*
X195467335Y-88006206D01*
X195467328Y-88006202D01*
X195332482Y-87955908D01*
X195332483Y-87955908D01*
X195272883Y-87949501D01*
X195272881Y-87949500D01*
X195272873Y-87949500D01*
X195272865Y-87949500D01*
X193177129Y-87949500D01*
X193177123Y-87949501D01*
X193117516Y-87955908D01*
X192982671Y-88006202D01*
X192982664Y-88006206D01*
X192867456Y-88092451D01*
X192867454Y-88092454D01*
X192861571Y-88100312D01*
X192805639Y-88142182D01*
X192762306Y-88150000D01*
X192725000Y-88150000D01*
X192725000Y-88197844D01*
X192731401Y-88257372D01*
X192733187Y-88264930D01*
X192731542Y-88265318D01*
X192735851Y-88325656D01*
X192730943Y-88342371D01*
X192730908Y-88342520D01*
X192724962Y-88397827D01*
X192724500Y-88402127D01*
X192724500Y-88573642D01*
X192724501Y-88625499D01*
X192704817Y-88692539D01*
X192652013Y-88738294D01*
X192600501Y-88749500D01*
X187862229Y-88749500D01*
X187795190Y-88729815D01*
X187774548Y-88713181D01*
X187419858Y-88358490D01*
X187386373Y-88297167D01*
X187391357Y-88227475D01*
X187433229Y-88171542D01*
X187498693Y-88147125D01*
X187517269Y-88147191D01*
X187522427Y-88147596D01*
X187522431Y-88147598D01*
X187559306Y-88150500D01*
X187559314Y-88150500D01*
X189340686Y-88150500D01*
X189340694Y-88150500D01*
X189377569Y-88147598D01*
X189377571Y-88147597D01*
X189377573Y-88147597D01*
X189437057Y-88130315D01*
X189535398Y-88101744D01*
X189676865Y-88018081D01*
X189793081Y-87901865D01*
X189876744Y-87760398D01*
X189922598Y-87602569D01*
X189922631Y-87602155D01*
X192725000Y-87602155D01*
X192725000Y-87650000D01*
X193975000Y-87650000D01*
X194475000Y-87650000D01*
X195725000Y-87650000D01*
X195725000Y-87602172D01*
X195724999Y-87602155D01*
X195718598Y-87542627D01*
X195718596Y-87542620D01*
X195668354Y-87407913D01*
X195668350Y-87407906D01*
X195642908Y-87373920D01*
X196174499Y-87373920D01*
X196203340Y-87518907D01*
X196203343Y-87518917D01*
X196259912Y-87655488D01*
X196259919Y-87655501D01*
X196342048Y-87778415D01*
X196342051Y-87778419D01*
X196446580Y-87882948D01*
X196446584Y-87882951D01*
X196569498Y-87965080D01*
X196569511Y-87965087D01*
X196668782Y-88006206D01*
X196706087Y-88021658D01*
X196706091Y-88021658D01*
X196706092Y-88021659D01*
X196851079Y-88050500D01*
X196851082Y-88050500D01*
X196998920Y-88050500D01*
X197096462Y-88031096D01*
X197143913Y-88021658D01*
X197280495Y-87965084D01*
X197403416Y-87882951D01*
X197507951Y-87778416D01*
X197590084Y-87655495D01*
X197646658Y-87518913D01*
X197661854Y-87442518D01*
X197675500Y-87373920D01*
X197675500Y-87226079D01*
X197646659Y-87081092D01*
X197646658Y-87081091D01*
X197646658Y-87081087D01*
X197612171Y-86997827D01*
X197590087Y-86944511D01*
X197590080Y-86944498D01*
X197507951Y-86821584D01*
X197507948Y-86821580D01*
X197403419Y-86717051D01*
X197403415Y-86717048D01*
X197280501Y-86634919D01*
X197280488Y-86634912D01*
X197143917Y-86578343D01*
X197143907Y-86578340D01*
X196998920Y-86549500D01*
X196998918Y-86549500D01*
X196851082Y-86549500D01*
X196851080Y-86549500D01*
X196706092Y-86578340D01*
X196706082Y-86578343D01*
X196569511Y-86634912D01*
X196569498Y-86634919D01*
X196446584Y-86717048D01*
X196446580Y-86717051D01*
X196342051Y-86821580D01*
X196342048Y-86821584D01*
X196259919Y-86944498D01*
X196259912Y-86944511D01*
X196203343Y-87081082D01*
X196203340Y-87081092D01*
X196174500Y-87226079D01*
X196174500Y-87226082D01*
X196174500Y-87373918D01*
X196174500Y-87373920D01*
X196174499Y-87373920D01*
X195642908Y-87373920D01*
X195583305Y-87294301D01*
X195582189Y-87292811D01*
X195582187Y-87292809D01*
X195467093Y-87206649D01*
X195467086Y-87206645D01*
X195332379Y-87156403D01*
X195332372Y-87156401D01*
X195272844Y-87150000D01*
X194475000Y-87150000D01*
X194475000Y-87650000D01*
X193975000Y-87650000D01*
X193975000Y-87150000D01*
X193177155Y-87150000D01*
X193117627Y-87156401D01*
X193117620Y-87156403D01*
X192982913Y-87206645D01*
X192982906Y-87206649D01*
X192867812Y-87292809D01*
X192867809Y-87292812D01*
X192781649Y-87407906D01*
X192781645Y-87407913D01*
X192731403Y-87542620D01*
X192731401Y-87542627D01*
X192725000Y-87602155D01*
X189922631Y-87602155D01*
X189925500Y-87565694D01*
X189925500Y-87134306D01*
X189922598Y-87097431D01*
X189917848Y-87081082D01*
X189876745Y-86939606D01*
X189876744Y-86939603D01*
X189876744Y-86939602D01*
X189793081Y-86798135D01*
X189793078Y-86798132D01*
X189788298Y-86791969D01*
X189790750Y-86790066D01*
X189764155Y-86741421D01*
X189769104Y-86671726D01*
X189789940Y-86639304D01*
X189788298Y-86638031D01*
X189793075Y-86631870D01*
X189793081Y-86631865D01*
X189876744Y-86490398D01*
X189922598Y-86332569D01*
X189925500Y-86295694D01*
X189925500Y-86097844D01*
X192975000Y-86097844D01*
X192981401Y-86157372D01*
X192981403Y-86157379D01*
X193031645Y-86292086D01*
X193031649Y-86292093D01*
X193117809Y-86407187D01*
X193117812Y-86407190D01*
X193232906Y-86493350D01*
X193232913Y-86493354D01*
X193367620Y-86543596D01*
X193367627Y-86543598D01*
X193427155Y-86549999D01*
X193427172Y-86550000D01*
X194075000Y-86550000D01*
X194575000Y-86550000D01*
X195222828Y-86550000D01*
X195222844Y-86549999D01*
X195282372Y-86543598D01*
X195282379Y-86543596D01*
X195417086Y-86493354D01*
X195417093Y-86493350D01*
X195532187Y-86407190D01*
X195532190Y-86407187D01*
X195618350Y-86292093D01*
X195618354Y-86292086D01*
X195668596Y-86157379D01*
X195668598Y-86157372D01*
X195674999Y-86097844D01*
X198425000Y-86097844D01*
X198431401Y-86157372D01*
X198431403Y-86157379D01*
X198481645Y-86292086D01*
X198481649Y-86292093D01*
X198567809Y-86407187D01*
X198567812Y-86407190D01*
X198682906Y-86493350D01*
X198682913Y-86493354D01*
X198817620Y-86543596D01*
X198817627Y-86543598D01*
X198877155Y-86549999D01*
X198877172Y-86550000D01*
X199525000Y-86550000D01*
X199525000Y-85300000D01*
X198425000Y-85300000D01*
X198425000Y-86097844D01*
X195674999Y-86097844D01*
X195675000Y-86097827D01*
X195675000Y-85300000D01*
X194575000Y-85300000D01*
X194575000Y-86550000D01*
X194075000Y-86550000D01*
X194075000Y-85300000D01*
X192975000Y-85300000D01*
X192975000Y-86097844D01*
X189925500Y-86097844D01*
X189925500Y-85864306D01*
X189922598Y-85827431D01*
X189916927Y-85807913D01*
X189876745Y-85669606D01*
X189876744Y-85669603D01*
X189876744Y-85669602D01*
X189793081Y-85528135D01*
X189793078Y-85528132D01*
X189788298Y-85521969D01*
X189790750Y-85520066D01*
X189764155Y-85471421D01*
X189769104Y-85401726D01*
X189777682Y-85383416D01*
X189785910Y-85369035D01*
X189793081Y-85361865D01*
X189876744Y-85220398D01*
X189922598Y-85062569D01*
X189925500Y-85025694D01*
X189925500Y-84594306D01*
X189925345Y-84592339D01*
X189925410Y-84592029D01*
X189925404Y-84591868D01*
X189925444Y-84591866D01*
X189939703Y-84523962D01*
X189961277Y-84494924D01*
X190547384Y-83908819D01*
X190608707Y-83875334D01*
X190635065Y-83872500D01*
X192851126Y-83872500D01*
X192918165Y-83892185D01*
X192963920Y-83944989D01*
X192974135Y-83998851D01*
X192975000Y-83998851D01*
X192975000Y-84800000D01*
X195675000Y-84800000D01*
X195675000Y-84002172D01*
X195674999Y-84002155D01*
X198425000Y-84002155D01*
X198425000Y-84800000D01*
X199525000Y-84800000D01*
X199525000Y-83550000D01*
X198877155Y-83550000D01*
X198817627Y-83556401D01*
X198817620Y-83556403D01*
X198682913Y-83606645D01*
X198682906Y-83606649D01*
X198567812Y-83692809D01*
X198567809Y-83692812D01*
X198481649Y-83807906D01*
X198481645Y-83807913D01*
X198431403Y-83942620D01*
X198431401Y-83942627D01*
X198425000Y-84002155D01*
X195674999Y-84002155D01*
X195668598Y-83942627D01*
X195668596Y-83942620D01*
X195618354Y-83807913D01*
X195614103Y-83800128D01*
X195615647Y-83799284D01*
X195594954Y-83743807D01*
X195609805Y-83675534D01*
X195630956Y-83647279D01*
X195637520Y-83640716D01*
X195637520Y-83640714D01*
X195647725Y-83630510D01*
X195647729Y-83630505D01*
X197514705Y-81763528D01*
X197518870Y-81761254D01*
X197521449Y-81757267D01*
X197549246Y-81744667D01*
X197576026Y-81730045D01*
X197580761Y-81730383D01*
X197585087Y-81728423D01*
X197615281Y-81732852D01*
G37*
%TD.AperFunction*%
%TA.AperFunction,Conductor*%
G36*
X160955702Y-79805383D02*
G01*
X160962180Y-79811415D01*
X164015139Y-82864374D01*
X164015149Y-82864385D01*
X164019479Y-82868715D01*
X164019480Y-82868716D01*
X164131284Y-82980520D01*
X164200532Y-83020500D01*
X164268215Y-83059577D01*
X164420943Y-83100501D01*
X164420946Y-83100501D01*
X164586653Y-83100501D01*
X164586669Y-83100500D01*
X174775500Y-83100500D01*
X174842539Y-83120185D01*
X174888294Y-83172989D01*
X174899500Y-83224500D01*
X174899500Y-88996560D01*
X174879815Y-89063599D01*
X174827011Y-89109354D01*
X174757853Y-89119298D01*
X174694297Y-89090273D01*
X174672398Y-89065451D01*
X174621789Y-88989711D01*
X174621786Y-88989707D01*
X174510292Y-88878213D01*
X174510288Y-88878210D01*
X174379185Y-88790609D01*
X174379172Y-88790602D01*
X174233501Y-88730264D01*
X174233489Y-88730261D01*
X174078845Y-88699500D01*
X174078842Y-88699500D01*
X173921158Y-88699500D01*
X173921155Y-88699500D01*
X173766510Y-88730261D01*
X173766498Y-88730264D01*
X173620827Y-88790602D01*
X173620814Y-88790609D01*
X173489711Y-88878210D01*
X173489707Y-88878213D01*
X173378213Y-88989707D01*
X173378207Y-88989715D01*
X173290607Y-89120818D01*
X173290606Y-89120819D01*
X173280805Y-89144480D01*
X173253927Y-89184703D01*
X172685451Y-89753181D01*
X172624128Y-89786666D01*
X172597770Y-89789500D01*
X172224000Y-89789500D01*
X172156961Y-89769815D01*
X172111206Y-89717011D01*
X172100000Y-89665500D01*
X172100000Y-89550000D01*
X167400000Y-89550000D01*
X167400000Y-89665500D01*
X167380315Y-89732539D01*
X167327511Y-89778294D01*
X167276000Y-89789500D01*
X160874500Y-89789500D01*
X160807461Y-89769815D01*
X160761706Y-89717011D01*
X160750500Y-89665500D01*
X160750499Y-88772129D01*
X160750498Y-88772123D01*
X160750497Y-88772116D01*
X160744091Y-88712517D01*
X160731340Y-88678332D01*
X160726357Y-88608642D01*
X160731340Y-88591669D01*
X160744091Y-88557483D01*
X160750500Y-88497873D01*
X160750500Y-88397844D01*
X167400000Y-88397844D01*
X167406401Y-88457372D01*
X167406403Y-88457383D01*
X167443434Y-88556668D01*
X167448418Y-88626360D01*
X167443434Y-88643332D01*
X167406403Y-88742616D01*
X167406401Y-88742627D01*
X167400000Y-88802155D01*
X167400000Y-89050000D01*
X168100000Y-89050000D01*
X168600000Y-89050000D01*
X169500000Y-89050000D01*
X170000000Y-89050000D01*
X170900000Y-89050000D01*
X171400000Y-89050000D01*
X172100000Y-89050000D01*
X172100000Y-88802172D01*
X172099999Y-88802155D01*
X172093598Y-88742627D01*
X172093597Y-88742623D01*
X172056564Y-88643334D01*
X172051580Y-88573642D01*
X172056564Y-88556666D01*
X172093597Y-88457376D01*
X172093598Y-88457372D01*
X172099999Y-88397844D01*
X172100000Y-88397827D01*
X172100000Y-88150000D01*
X171400000Y-88150000D01*
X171400000Y-89050000D01*
X170900000Y-89050000D01*
X170900000Y-88150000D01*
X170000000Y-88150000D01*
X170000000Y-89050000D01*
X169500000Y-89050000D01*
X169500000Y-88150000D01*
X168600000Y-88150000D01*
X168600000Y-89050000D01*
X168100000Y-89050000D01*
X168100000Y-88150000D01*
X167400000Y-88150000D01*
X167400000Y-88397844D01*
X160750500Y-88397844D01*
X160750499Y-87995809D01*
X160750499Y-87502129D01*
X160750498Y-87502123D01*
X160750497Y-87502116D01*
X160744091Y-87442517D01*
X160731340Y-87408332D01*
X160726357Y-87338642D01*
X160731340Y-87321669D01*
X160744091Y-87287483D01*
X160750500Y-87227873D01*
X160750500Y-86997844D01*
X167400000Y-86997844D01*
X167406401Y-87057372D01*
X167406403Y-87057383D01*
X167443434Y-87156668D01*
X167448418Y-87226360D01*
X167443434Y-87243332D01*
X167406403Y-87342616D01*
X167406401Y-87342627D01*
X167400000Y-87402155D01*
X167400000Y-87650000D01*
X168100000Y-87650000D01*
X168600000Y-87650000D01*
X169500000Y-87650000D01*
X170000000Y-87650000D01*
X170900000Y-87650000D01*
X171400000Y-87650000D01*
X172100000Y-87650000D01*
X172100000Y-87402172D01*
X172099999Y-87402155D01*
X172093598Y-87342627D01*
X172093597Y-87342623D01*
X172056564Y-87243334D01*
X172051580Y-87173642D01*
X172056564Y-87156666D01*
X172093597Y-87057376D01*
X172093598Y-87057372D01*
X172099999Y-86997844D01*
X172100000Y-86997827D01*
X172100000Y-86750000D01*
X171400000Y-86750000D01*
X171400000Y-87650000D01*
X170900000Y-87650000D01*
X170900000Y-86750000D01*
X170000000Y-86750000D01*
X170000000Y-87650000D01*
X169500000Y-87650000D01*
X169500000Y-86750000D01*
X168600000Y-86750000D01*
X168600000Y-87650000D01*
X168100000Y-87650000D01*
X168100000Y-86750000D01*
X167400000Y-86750000D01*
X167400000Y-86997844D01*
X160750500Y-86997844D01*
X160750499Y-86232128D01*
X160744091Y-86172517D01*
X160731340Y-86138332D01*
X160729967Y-86119133D01*
X160723666Y-86100948D01*
X160727093Y-86078939D01*
X160726357Y-86068642D01*
X160727007Y-86065813D01*
X160728750Y-86058611D01*
X160744091Y-86017483D01*
X160745739Y-86002155D01*
X167400000Y-86002155D01*
X167400000Y-86250000D01*
X168100000Y-86250000D01*
X168600000Y-86250000D01*
X169500000Y-86250000D01*
X170000000Y-86250000D01*
X170900000Y-86250000D01*
X171400000Y-86250000D01*
X172100000Y-86250000D01*
X172100000Y-86002172D01*
X172099999Y-86002155D01*
X172093598Y-85942627D01*
X172093596Y-85942620D01*
X172043354Y-85807913D01*
X172043350Y-85807906D01*
X171957190Y-85692812D01*
X171957187Y-85692809D01*
X171842093Y-85606649D01*
X171842086Y-85606645D01*
X171707379Y-85556403D01*
X171707372Y-85556401D01*
X171647844Y-85550000D01*
X171400000Y-85550000D01*
X171400000Y-86250000D01*
X170900000Y-86250000D01*
X170900000Y-85550000D01*
X170652155Y-85550000D01*
X170592627Y-85556401D01*
X170592616Y-85556403D01*
X170493332Y-85593434D01*
X170423640Y-85598418D01*
X170406668Y-85593434D01*
X170307383Y-85556403D01*
X170307372Y-85556401D01*
X170247844Y-85550000D01*
X170000000Y-85550000D01*
X170000000Y-86250000D01*
X169500000Y-86250000D01*
X169500000Y-85550000D01*
X169252155Y-85550000D01*
X169192627Y-85556401D01*
X169192616Y-85556403D01*
X169093332Y-85593434D01*
X169023640Y-85598418D01*
X169006668Y-85593434D01*
X168907383Y-85556403D01*
X168907372Y-85556401D01*
X168847844Y-85550000D01*
X168600000Y-85550000D01*
X168600000Y-86250000D01*
X168100000Y-86250000D01*
X168100000Y-85550000D01*
X167852155Y-85550000D01*
X167792627Y-85556401D01*
X167792620Y-85556403D01*
X167657913Y-85606645D01*
X167657906Y-85606649D01*
X167542812Y-85692809D01*
X167542809Y-85692812D01*
X167456649Y-85807906D01*
X167456645Y-85807913D01*
X167406403Y-85942620D01*
X167406401Y-85942627D01*
X167400000Y-86002155D01*
X160745739Y-86002155D01*
X160750500Y-85957873D01*
X160750499Y-84962128D01*
X160744091Y-84902517D01*
X160731340Y-84868332D01*
X160726357Y-84798642D01*
X160731340Y-84781669D01*
X160744091Y-84747483D01*
X160750500Y-84687873D01*
X160750499Y-83692128D01*
X160744091Y-83632517D01*
X160731340Y-83598332D01*
X160726357Y-83528642D01*
X160731340Y-83511669D01*
X160744091Y-83477483D01*
X160750500Y-83417873D01*
X160750499Y-82422128D01*
X160744091Y-82362517D01*
X160731340Y-82328332D01*
X160726357Y-82258642D01*
X160731338Y-82241672D01*
X160744091Y-82207483D01*
X160750500Y-82147873D01*
X160750499Y-81152128D01*
X160744091Y-81092517D01*
X160731340Y-81058332D01*
X160726357Y-80988642D01*
X160731338Y-80971672D01*
X160744091Y-80937483D01*
X160750500Y-80877873D01*
X160750499Y-79899095D01*
X160770183Y-79832057D01*
X160822987Y-79786302D01*
X160892146Y-79776358D01*
X160955702Y-79805383D01*
G37*
%TD.AperFunction*%
%TA.AperFunction,Conductor*%
G36*
X201935426Y-42795841D02*
G01*
X201984832Y-42845246D01*
X202000000Y-42904674D01*
X202000000Y-44096754D01*
X201980315Y-44163793D01*
X201927511Y-44209548D01*
X201858353Y-44219492D01*
X201794797Y-44190467D01*
X201759818Y-44140088D01*
X201748152Y-44108812D01*
X201748149Y-44108806D01*
X201661989Y-43993712D01*
X201661986Y-43993709D01*
X201546892Y-43907549D01*
X201546885Y-43907545D01*
X201412178Y-43857303D01*
X201412171Y-43857301D01*
X201352643Y-43850900D01*
X201249999Y-43850900D01*
X201249999Y-45460500D01*
X201352627Y-45460500D01*
X201352643Y-45460499D01*
X201412171Y-45454098D01*
X201412178Y-45454096D01*
X201546885Y-45403854D01*
X201546892Y-45403850D01*
X201661986Y-45317690D01*
X201661989Y-45317687D01*
X201748149Y-45202593D01*
X201748153Y-45202586D01*
X201759818Y-45171312D01*
X201801689Y-45115378D01*
X201867153Y-45090961D01*
X201935426Y-45105813D01*
X201984832Y-45155218D01*
X202000000Y-45214645D01*
X202000000Y-82639269D01*
X201980315Y-82706308D01*
X201927511Y-82752063D01*
X201858353Y-82762007D01*
X201794797Y-82732982D01*
X201788319Y-82726950D01*
X201474097Y-82412728D01*
X201474074Y-82412707D01*
X201149048Y-82087681D01*
X201115563Y-82026358D01*
X201120547Y-81956666D01*
X201149048Y-81912319D01*
X201350664Y-81710703D01*
X201582952Y-81478415D01*
X201610205Y-81437627D01*
X201665084Y-81355495D01*
X201698925Y-81273796D01*
X201721659Y-81218912D01*
X201743272Y-81110256D01*
X201749479Y-81079055D01*
X201750499Y-81073922D01*
X201750500Y-81073915D01*
X201750500Y-76426079D01*
X201721659Y-76281092D01*
X201721658Y-76281091D01*
X201721658Y-76281087D01*
X201665084Y-76144505D01*
X201632186Y-76095270D01*
X201632185Y-76095268D01*
X201582956Y-76021589D01*
X201582952Y-76021584D01*
X199286819Y-73725451D01*
X199253334Y-73664128D01*
X199250500Y-73637770D01*
X199250500Y-70426079D01*
X199221659Y-70281092D01*
X199221658Y-70281091D01*
X199221658Y-70281087D01*
X199208574Y-70249500D01*
X199165087Y-70144511D01*
X199165080Y-70144498D01*
X199082952Y-70021585D01*
X199055856Y-69994489D01*
X198978416Y-69917049D01*
X198002658Y-68941291D01*
X197969173Y-68879968D01*
X197972408Y-68815293D01*
X197979709Y-68792826D01*
X197982292Y-68776517D01*
X198010500Y-68598422D01*
X198010500Y-68401577D01*
X197979709Y-68207173D01*
X197940583Y-68086757D01*
X197918884Y-68019975D01*
X197918882Y-68019972D01*
X197918882Y-68019970D01*
X197846857Y-67878613D01*
X197829524Y-67844595D01*
X197713828Y-67685354D01*
X197574646Y-67546172D01*
X197415405Y-67430476D01*
X197240029Y-67341117D01*
X197052826Y-67280290D01*
X196858422Y-67249500D01*
X196858417Y-67249500D01*
X196141583Y-67249500D01*
X196141578Y-67249500D01*
X195947173Y-67280290D01*
X195759970Y-67341117D01*
X195584594Y-67430476D01*
X195500443Y-67491616D01*
X195425354Y-67546172D01*
X195425352Y-67546174D01*
X195425351Y-67546174D01*
X195286174Y-67685351D01*
X195286174Y-67685352D01*
X195286172Y-67685354D01*
X195259952Y-67721443D01*
X195170476Y-67844594D01*
X195081117Y-68019970D01*
X195020290Y-68207173D01*
X194989500Y-68401577D01*
X194989500Y-68598422D01*
X194991848Y-68613247D01*
X194982893Y-68682540D01*
X194937897Y-68735992D01*
X194871146Y-68756632D01*
X194803832Y-68737907D01*
X194781694Y-68720326D01*
X191462945Y-65401577D01*
X194989500Y-65401577D01*
X194989500Y-65598422D01*
X195020290Y-65792826D01*
X195081117Y-65980029D01*
X195163631Y-66141971D01*
X195170476Y-66155405D01*
X195286172Y-66314646D01*
X195425354Y-66453828D01*
X195584595Y-66569524D01*
X195661226Y-66608569D01*
X195759970Y-66658882D01*
X195759972Y-66658882D01*
X195759975Y-66658884D01*
X195806716Y-66674071D01*
X195947173Y-66719709D01*
X196141578Y-66750500D01*
X196141583Y-66750500D01*
X196858422Y-66750500D01*
X197052826Y-66719709D01*
X197073434Y-66713013D01*
X197240025Y-66658884D01*
X197415405Y-66569524D01*
X197574646Y-66453828D01*
X197713828Y-66314646D01*
X197829524Y-66155405D01*
X197918884Y-65980025D01*
X197979709Y-65792826D01*
X197990592Y-65724115D01*
X198010500Y-65598422D01*
X198010500Y-65401577D01*
X197979709Y-65207173D01*
X197918882Y-65019970D01*
X197846857Y-64878613D01*
X197829524Y-64844595D01*
X197713828Y-64685354D01*
X197574646Y-64546172D01*
X197415405Y-64430476D01*
X197240029Y-64341117D01*
X197052826Y-64280290D01*
X196858422Y-64249500D01*
X196858417Y-64249500D01*
X196141583Y-64249500D01*
X196141578Y-64249500D01*
X195947173Y-64280290D01*
X195759970Y-64341117D01*
X195584594Y-64430476D01*
X195500443Y-64491616D01*
X195425354Y-64546172D01*
X195425352Y-64546174D01*
X195425351Y-64546174D01*
X195286174Y-64685351D01*
X195286174Y-64685352D01*
X195286172Y-64685354D01*
X195259952Y-64721443D01*
X195170476Y-64844594D01*
X195081117Y-65019970D01*
X195020290Y-65207173D01*
X194989500Y-65401577D01*
X191462945Y-65401577D01*
X188474149Y-62412781D01*
X193654500Y-62412781D01*
X193654500Y-62587218D01*
X193688527Y-62758283D01*
X193688529Y-62758291D01*
X193755278Y-62919439D01*
X193755283Y-62919448D01*
X193852186Y-63064473D01*
X193852189Y-63064477D01*
X193975522Y-63187810D01*
X193975526Y-63187813D01*
X194120551Y-63284716D01*
X194120557Y-63284719D01*
X194120558Y-63284720D01*
X194281709Y-63351471D01*
X194452781Y-63385499D01*
X194452785Y-63385500D01*
X194452786Y-63385500D01*
X194627215Y-63385500D01*
X194627216Y-63385499D01*
X194798291Y-63351471D01*
X194959442Y-63284720D01*
X195104474Y-63187813D01*
X195227813Y-63064474D01*
X195324720Y-62919442D01*
X195391471Y-62758291D01*
X195425500Y-62587214D01*
X195425500Y-62412786D01*
X195391471Y-62241709D01*
X195336323Y-62108569D01*
X195324721Y-62080560D01*
X195324716Y-62080551D01*
X195227813Y-61935526D01*
X195227810Y-61935522D01*
X195104477Y-61812189D01*
X195104473Y-61812186D01*
X194959448Y-61715283D01*
X194959439Y-61715278D01*
X194798291Y-61648529D01*
X194798283Y-61648527D01*
X194627218Y-61614500D01*
X194627214Y-61614500D01*
X194452786Y-61614500D01*
X194452781Y-61614500D01*
X194281716Y-61648527D01*
X194281708Y-61648529D01*
X194120560Y-61715278D01*
X194120551Y-61715283D01*
X193975526Y-61812186D01*
X193975522Y-61812189D01*
X193852189Y-61935522D01*
X193852186Y-61935526D01*
X193755283Y-62080551D01*
X193755278Y-62080560D01*
X193688529Y-62241708D01*
X193688527Y-62241716D01*
X193654500Y-62412781D01*
X188474149Y-62412781D01*
X182982521Y-56921153D01*
X187699500Y-56921153D01*
X187699500Y-57078846D01*
X187730261Y-57233489D01*
X187730264Y-57233501D01*
X187790602Y-57379172D01*
X187790609Y-57379185D01*
X187878210Y-57510288D01*
X187878213Y-57510292D01*
X187989707Y-57621786D01*
X187989711Y-57621789D01*
X188120814Y-57709390D01*
X188120827Y-57709397D01*
X188202960Y-57743417D01*
X188266503Y-57769737D01*
X188421153Y-57800499D01*
X188421156Y-57800500D01*
X188421158Y-57800500D01*
X188578844Y-57800500D01*
X188578845Y-57800499D01*
X188733497Y-57769737D01*
X188879179Y-57709394D01*
X189010289Y-57621789D01*
X189121789Y-57510289D01*
X189209394Y-57379179D01*
X189209629Y-57378613D01*
X189229468Y-57330715D01*
X189269737Y-57233497D01*
X189300500Y-57078842D01*
X189300500Y-56921158D01*
X189300500Y-56921155D01*
X189300499Y-56921153D01*
X189269738Y-56766510D01*
X189269737Y-56766503D01*
X189259159Y-56740966D01*
X189209397Y-56620827D01*
X189209390Y-56620814D01*
X189121789Y-56489711D01*
X189121786Y-56489707D01*
X189010292Y-56378213D01*
X189010288Y-56378210D01*
X188879185Y-56290609D01*
X188879172Y-56290602D01*
X188733501Y-56230264D01*
X188733489Y-56230261D01*
X188578845Y-56199500D01*
X188578842Y-56199500D01*
X188421158Y-56199500D01*
X188421155Y-56199500D01*
X188266510Y-56230261D01*
X188266498Y-56230264D01*
X188120827Y-56290602D01*
X188120814Y-56290609D01*
X187989711Y-56378210D01*
X187989707Y-56378213D01*
X187878213Y-56489707D01*
X187878210Y-56489711D01*
X187790609Y-56620814D01*
X187790602Y-56620827D01*
X187730264Y-56766498D01*
X187730261Y-56766510D01*
X187699500Y-56921153D01*
X182982521Y-56921153D01*
X181217849Y-55156481D01*
X181184364Y-55095158D01*
X181189348Y-55025466D01*
X181231220Y-54969533D01*
X181296684Y-54945116D01*
X181305530Y-54944800D01*
X181724732Y-54944800D01*
X181724748Y-54944801D01*
X181732344Y-54944801D01*
X181890455Y-54944801D01*
X181890458Y-54944801D01*
X182043186Y-54903877D01*
X182102576Y-54869588D01*
X182180117Y-54824820D01*
X182291921Y-54713016D01*
X182291921Y-54713014D01*
X182302125Y-54702811D01*
X182302129Y-54702806D01*
X182507617Y-54497318D01*
X182568940Y-54463833D01*
X182595298Y-54460999D01*
X182852672Y-54460999D01*
X182852673Y-54460999D01*
X182912284Y-54454591D01*
X182957381Y-54437770D01*
X183027070Y-54432785D01*
X183044049Y-54437771D01*
X183087820Y-54454097D01*
X183147354Y-54460499D01*
X183147371Y-54460500D01*
X183249999Y-54460500D01*
X183749999Y-54460500D01*
X183852627Y-54460500D01*
X183852643Y-54460499D01*
X183912171Y-54454098D01*
X183912178Y-54454096D01*
X184046885Y-54403854D01*
X184046892Y-54403850D01*
X184161986Y-54317690D01*
X184161989Y-54317687D01*
X184248149Y-54202593D01*
X184248153Y-54202586D01*
X184298395Y-54067879D01*
X184298397Y-54067872D01*
X184304798Y-54008344D01*
X184304799Y-54008327D01*
X184304799Y-53905700D01*
X183749999Y-53905700D01*
X183749999Y-54460500D01*
X183249999Y-54460500D01*
X183249999Y-54221443D01*
X183257817Y-54178110D01*
X183298892Y-54067983D01*
X183305301Y-54008373D01*
X183305300Y-53405700D01*
X183749999Y-53405700D01*
X184304799Y-53405700D01*
X184304799Y-53303072D01*
X184304798Y-53303055D01*
X184298397Y-53243527D01*
X184298395Y-53243520D01*
X184248153Y-53108813D01*
X184248149Y-53108806D01*
X184161989Y-52993712D01*
X184161986Y-52993709D01*
X184046892Y-52907549D01*
X184046885Y-52907545D01*
X183912178Y-52857303D01*
X183912171Y-52857301D01*
X183852643Y-52850900D01*
X183749999Y-52850900D01*
X183749999Y-53405700D01*
X183305300Y-53405700D01*
X183305300Y-53303028D01*
X183298892Y-53243417D01*
X183298892Y-53243416D01*
X183257817Y-53133288D01*
X183249999Y-53089955D01*
X183249999Y-52850900D01*
X183147354Y-52850900D01*
X183087826Y-52857301D01*
X183087818Y-52857303D01*
X183044047Y-52873629D01*
X182974355Y-52878613D01*
X182957381Y-52873629D01*
X182912287Y-52856810D01*
X182912286Y-52856809D01*
X182912284Y-52856809D01*
X182852674Y-52850400D01*
X182852664Y-52850400D01*
X182147330Y-52850400D01*
X182147324Y-52850401D01*
X182087717Y-52856808D01*
X181952872Y-52907102D01*
X181952865Y-52907106D01*
X181837656Y-52993352D01*
X181837653Y-52993355D01*
X181751407Y-53108564D01*
X181751403Y-53108571D01*
X181701109Y-53243417D01*
X181699694Y-53256583D01*
X181694702Y-53303023D01*
X181694701Y-53303035D01*
X181694701Y-53560401D01*
X181686057Y-53589837D01*
X181679534Y-53619827D01*
X181675778Y-53624844D01*
X181675016Y-53627440D01*
X181658383Y-53648082D01*
X181598985Y-53707481D01*
X181537662Y-53740966D01*
X181511303Y-53743800D01*
X178270712Y-53743800D01*
X178203673Y-53724115D01*
X178171447Y-53694113D01*
X178162345Y-53681954D01*
X178127276Y-53655701D01*
X178047134Y-53595706D01*
X178047127Y-53595702D01*
X177912281Y-53545408D01*
X177912282Y-53545408D01*
X177849371Y-53538645D01*
X177849504Y-53537403D01*
X177788384Y-53515806D01*
X177745550Y-53460607D01*
X177739358Y-53391012D01*
X177771775Y-53329118D01*
X177773224Y-53327643D01*
X178969749Y-52131119D01*
X179031072Y-52097634D01*
X179057430Y-52094800D01*
X181935603Y-52094800D01*
X181978936Y-52102618D01*
X182087718Y-52143191D01*
X182147328Y-52149600D01*
X182852673Y-52149599D01*
X182912284Y-52143191D01*
X182956667Y-52126636D01*
X183026358Y-52121653D01*
X183043326Y-52126634D01*
X183079943Y-52140291D01*
X183087710Y-52143189D01*
X183087716Y-52143191D01*
X183147326Y-52149600D01*
X183852671Y-52149599D01*
X183912282Y-52143191D01*
X184047130Y-52092896D01*
X184162345Y-52006646D01*
X184171446Y-51994487D01*
X184227379Y-51952618D01*
X184270712Y-51944800D01*
X187724732Y-51944800D01*
X187724748Y-51944801D01*
X187732344Y-51944801D01*
X187890455Y-51944801D01*
X187890458Y-51944801D01*
X188043186Y-51903877D01*
X188102576Y-51869588D01*
X188180117Y-51824820D01*
X188291921Y-51713016D01*
X188291921Y-51713014D01*
X188302125Y-51702811D01*
X188302129Y-51702806D01*
X188507617Y-51497318D01*
X188568940Y-51463833D01*
X188595298Y-51460999D01*
X188852672Y-51460999D01*
X188852673Y-51460999D01*
X188912284Y-51454591D01*
X188957381Y-51437770D01*
X189027070Y-51432785D01*
X189044049Y-51437771D01*
X189087820Y-51454097D01*
X189147354Y-51460499D01*
X189147371Y-51460500D01*
X189249999Y-51460500D01*
X189749999Y-51460500D01*
X189852627Y-51460500D01*
X189852643Y-51460499D01*
X189912171Y-51454098D01*
X189912178Y-51454096D01*
X190046885Y-51403854D01*
X190046892Y-51403850D01*
X190161986Y-51317690D01*
X190161989Y-51317687D01*
X190248149Y-51202593D01*
X190248153Y-51202586D01*
X190298395Y-51067879D01*
X190298397Y-51067872D01*
X190304798Y-51008344D01*
X190304799Y-51008327D01*
X190304799Y-50905700D01*
X189749999Y-50905700D01*
X189749999Y-51460500D01*
X189249999Y-51460500D01*
X189249999Y-51221443D01*
X189257817Y-51178110D01*
X189298892Y-51067983D01*
X189305301Y-51008373D01*
X189305300Y-50405700D01*
X189749999Y-50405700D01*
X190304799Y-50405700D01*
X190304799Y-50303072D01*
X190304798Y-50303055D01*
X190298397Y-50243527D01*
X190298395Y-50243520D01*
X190248153Y-50108813D01*
X190248149Y-50108806D01*
X190161989Y-49993712D01*
X190161986Y-49993709D01*
X190046892Y-49907549D01*
X190046885Y-49907545D01*
X189912178Y-49857303D01*
X189912171Y-49857301D01*
X189852643Y-49850900D01*
X189749999Y-49850900D01*
X189749999Y-50405700D01*
X189305300Y-50405700D01*
X189305300Y-50303028D01*
X189298892Y-50243417D01*
X189282808Y-50200293D01*
X189257817Y-50133288D01*
X189249999Y-50089955D01*
X189249999Y-49850900D01*
X189147354Y-49850900D01*
X189087826Y-49857301D01*
X189087818Y-49857303D01*
X189044047Y-49873629D01*
X188974355Y-49878613D01*
X188957381Y-49873629D01*
X188912287Y-49856810D01*
X188912286Y-49856809D01*
X188912284Y-49856809D01*
X188852674Y-49850400D01*
X188852664Y-49850400D01*
X188147330Y-49850400D01*
X188147324Y-49850401D01*
X188087717Y-49856808D01*
X187952872Y-49907102D01*
X187952865Y-49907106D01*
X187837656Y-49993352D01*
X187837653Y-49993355D01*
X187751407Y-50108564D01*
X187751403Y-50108571D01*
X187701109Y-50243417D01*
X187699694Y-50256583D01*
X187694702Y-50303023D01*
X187694701Y-50303035D01*
X187694701Y-50560401D01*
X187686057Y-50589837D01*
X187679534Y-50619827D01*
X187675778Y-50624844D01*
X187675016Y-50627440D01*
X187658383Y-50648082D01*
X187598985Y-50707481D01*
X187537662Y-50740966D01*
X187511303Y-50743800D01*
X184270712Y-50743800D01*
X184203673Y-50724115D01*
X184171447Y-50694113D01*
X184162345Y-50681954D01*
X184119126Y-50649600D01*
X184047134Y-50595706D01*
X184047127Y-50595702D01*
X183912281Y-50545408D01*
X183912282Y-50545408D01*
X183849371Y-50538645D01*
X183849504Y-50537403D01*
X183788384Y-50515806D01*
X183745550Y-50460607D01*
X183739358Y-50391012D01*
X183771775Y-50329118D01*
X183773224Y-50327643D01*
X187969749Y-46131119D01*
X188031072Y-46097634D01*
X188057430Y-46094800D01*
X188583971Y-46094800D01*
X188651010Y-46114485D01*
X188696765Y-46167289D01*
X188706709Y-46236447D01*
X188677684Y-46300003D01*
X188671652Y-46306481D01*
X187917051Y-47061080D01*
X187917045Y-47061088D01*
X187867813Y-47134768D01*
X187867814Y-47134769D01*
X187834922Y-47183996D01*
X187834915Y-47184008D01*
X187778343Y-47320586D01*
X187778341Y-47320592D01*
X187749501Y-47465579D01*
X187749501Y-47779901D01*
X187741683Y-47823234D01*
X187710926Y-47905700D01*
X187701110Y-47932017D01*
X187694701Y-47991627D01*
X187694701Y-47991634D01*
X187694701Y-47991635D01*
X187694701Y-48696970D01*
X187694702Y-48696976D01*
X187701109Y-48756583D01*
X187751403Y-48891428D01*
X187751407Y-48891435D01*
X187837653Y-49006644D01*
X187837656Y-49006647D01*
X187952865Y-49092893D01*
X187952872Y-49092897D01*
X187997819Y-49109661D01*
X188087718Y-49143191D01*
X188147328Y-49149600D01*
X188852673Y-49149599D01*
X188912284Y-49143191D01*
X188956667Y-49126636D01*
X189026358Y-49121653D01*
X189043326Y-49126634D01*
X189079943Y-49140291D01*
X189087710Y-49143189D01*
X189087716Y-49143191D01*
X189147326Y-49149600D01*
X189852671Y-49149599D01*
X189912282Y-49143191D01*
X190047130Y-49092896D01*
X190162345Y-49006646D01*
X190171446Y-48994487D01*
X190227379Y-48952618D01*
X190270712Y-48944800D01*
X193724732Y-48944800D01*
X193724748Y-48944801D01*
X193732344Y-48944801D01*
X193890455Y-48944801D01*
X193890458Y-48944801D01*
X194043186Y-48903877D01*
X194102576Y-48869588D01*
X194180117Y-48824820D01*
X194291921Y-48713016D01*
X194291921Y-48713014D01*
X194302125Y-48702811D01*
X194302129Y-48702806D01*
X194507617Y-48497318D01*
X194568940Y-48463833D01*
X194595298Y-48460999D01*
X194852672Y-48460999D01*
X194852673Y-48460999D01*
X194912284Y-48454591D01*
X194957381Y-48437770D01*
X195027070Y-48432785D01*
X195044049Y-48437771D01*
X195087820Y-48454097D01*
X195147354Y-48460499D01*
X195147371Y-48460500D01*
X195249999Y-48460500D01*
X195749999Y-48460500D01*
X195852627Y-48460500D01*
X195852643Y-48460499D01*
X195912171Y-48454098D01*
X195912178Y-48454096D01*
X196046885Y-48403854D01*
X196046892Y-48403850D01*
X196161986Y-48317690D01*
X196161989Y-48317687D01*
X196248149Y-48202593D01*
X196248153Y-48202586D01*
X196298395Y-48067879D01*
X196298397Y-48067872D01*
X196304798Y-48008344D01*
X196304799Y-48008327D01*
X196304799Y-47905700D01*
X195749999Y-47905700D01*
X195749999Y-48460500D01*
X195249999Y-48460500D01*
X195249999Y-48221443D01*
X195257817Y-48178110D01*
X195298892Y-48067983D01*
X195305301Y-48008373D01*
X195305300Y-47405700D01*
X195749999Y-47405700D01*
X196304799Y-47405700D01*
X196304799Y-47303072D01*
X196304798Y-47303055D01*
X196298397Y-47243527D01*
X196298395Y-47243520D01*
X196248153Y-47108813D01*
X196248149Y-47108806D01*
X196161989Y-46993712D01*
X196161986Y-46993709D01*
X196046892Y-46907549D01*
X196046885Y-46907545D01*
X195912178Y-46857303D01*
X195912171Y-46857301D01*
X195852643Y-46850900D01*
X195749999Y-46850900D01*
X195749999Y-47405700D01*
X195305300Y-47405700D01*
X195305300Y-47303028D01*
X195298892Y-47243417D01*
X195282808Y-47200293D01*
X195257817Y-47133288D01*
X195249999Y-47089955D01*
X195249999Y-46850900D01*
X195147354Y-46850900D01*
X195087826Y-46857301D01*
X195087818Y-46857303D01*
X195044047Y-46873629D01*
X194974355Y-46878613D01*
X194957381Y-46873629D01*
X194912287Y-46856810D01*
X194912286Y-46856809D01*
X194912284Y-46856809D01*
X194852674Y-46850400D01*
X194852664Y-46850400D01*
X194147330Y-46850400D01*
X194147324Y-46850401D01*
X194087717Y-46856808D01*
X193952872Y-46907102D01*
X193952865Y-46907106D01*
X193837656Y-46993352D01*
X193837653Y-46993355D01*
X193751407Y-47108564D01*
X193751403Y-47108571D01*
X193701109Y-47243417D01*
X193695049Y-47299788D01*
X193694702Y-47303023D01*
X193694701Y-47303035D01*
X193694701Y-47560401D01*
X193686057Y-47589837D01*
X193679534Y-47619827D01*
X193675778Y-47624844D01*
X193675016Y-47627440D01*
X193658383Y-47648082D01*
X193598985Y-47707481D01*
X193537662Y-47740966D01*
X193511303Y-47743800D01*
X190270712Y-47743800D01*
X190203673Y-47724115D01*
X190171447Y-47694113D01*
X190162345Y-47681954D01*
X190119126Y-47649600D01*
X190047134Y-47595706D01*
X190047127Y-47595702D01*
X189912281Y-47545408D01*
X189912282Y-47545408D01*
X189849371Y-47538645D01*
X189849504Y-47537403D01*
X189788384Y-47515806D01*
X189745550Y-47460607D01*
X189739358Y-47391012D01*
X189771775Y-47329118D01*
X189773224Y-47327643D01*
X190969749Y-46131119D01*
X191031072Y-46097634D01*
X191057430Y-46094800D01*
X193935603Y-46094800D01*
X193978936Y-46102618D01*
X194087718Y-46143191D01*
X194147328Y-46149600D01*
X194852673Y-46149599D01*
X194912284Y-46143191D01*
X194956667Y-46126636D01*
X195026358Y-46121653D01*
X195043326Y-46126634D01*
X195079943Y-46140291D01*
X195087710Y-46143189D01*
X195087716Y-46143191D01*
X195147326Y-46149600D01*
X195852671Y-46149599D01*
X195912282Y-46143191D01*
X196047130Y-46092896D01*
X196162345Y-46006646D01*
X196171446Y-45994487D01*
X196227379Y-45952618D01*
X196270712Y-45944800D01*
X199224732Y-45944800D01*
X199224748Y-45944801D01*
X199232344Y-45944801D01*
X199390455Y-45944801D01*
X199390458Y-45944801D01*
X199543186Y-45903877D01*
X199602576Y-45869588D01*
X199680117Y-45824820D01*
X199791921Y-45713016D01*
X199791921Y-45713014D01*
X199802125Y-45702811D01*
X199802129Y-45702806D01*
X200007617Y-45497318D01*
X200068940Y-45463833D01*
X200095298Y-45460999D01*
X200352672Y-45460999D01*
X200352673Y-45460999D01*
X200412284Y-45454591D01*
X200457381Y-45437770D01*
X200527070Y-45432785D01*
X200544049Y-45437771D01*
X200587820Y-45454097D01*
X200647354Y-45460499D01*
X200647371Y-45460500D01*
X200749999Y-45460500D01*
X200749999Y-45221443D01*
X200757817Y-45178110D01*
X200798892Y-45067983D01*
X200805301Y-45008373D01*
X200805300Y-44303028D01*
X200798892Y-44243417D01*
X200781570Y-44196973D01*
X200757817Y-44133288D01*
X200749999Y-44089955D01*
X200749999Y-43850900D01*
X200647354Y-43850900D01*
X200587826Y-43857301D01*
X200587818Y-43857303D01*
X200544047Y-43873629D01*
X200474355Y-43878613D01*
X200457381Y-43873629D01*
X200412287Y-43856810D01*
X200412286Y-43856809D01*
X200412284Y-43856809D01*
X200352674Y-43850400D01*
X200352664Y-43850400D01*
X199647330Y-43850400D01*
X199647324Y-43850401D01*
X199587717Y-43856808D01*
X199452872Y-43907102D01*
X199452865Y-43907106D01*
X199337656Y-43993352D01*
X199337653Y-43993355D01*
X199251407Y-44108564D01*
X199251403Y-44108571D01*
X199201109Y-44243417D01*
X199195899Y-44291880D01*
X199194702Y-44303023D01*
X199194701Y-44303035D01*
X199194701Y-44560401D01*
X199186057Y-44589837D01*
X199179534Y-44619827D01*
X199175778Y-44624844D01*
X199175016Y-44627440D01*
X199158383Y-44648082D01*
X199098985Y-44707481D01*
X199037662Y-44740966D01*
X199011303Y-44743800D01*
X196270712Y-44743800D01*
X196203673Y-44724115D01*
X196171447Y-44694113D01*
X196162345Y-44681954D01*
X196139508Y-44664858D01*
X196047134Y-44595706D01*
X196047127Y-44595702D01*
X195912281Y-44545408D01*
X195912282Y-44545408D01*
X195849371Y-44538645D01*
X195849504Y-44537403D01*
X195788384Y-44515806D01*
X195745550Y-44460607D01*
X195739358Y-44391012D01*
X195771775Y-44329118D01*
X195773224Y-44327643D01*
X196969749Y-43131119D01*
X197031072Y-43097634D01*
X197057430Y-43094800D01*
X199435603Y-43094800D01*
X199478936Y-43102618D01*
X199587718Y-43143191D01*
X199647328Y-43149600D01*
X200352673Y-43149599D01*
X200412284Y-43143191D01*
X200456667Y-43126636D01*
X200526358Y-43121653D01*
X200543326Y-43126634D01*
X200579943Y-43140291D01*
X200587710Y-43143189D01*
X200587716Y-43143191D01*
X200647326Y-43149600D01*
X201352671Y-43149599D01*
X201412282Y-43143191D01*
X201547130Y-43092896D01*
X201662345Y-43006646D01*
X201748595Y-42891431D01*
X201748597Y-42891426D01*
X201759818Y-42861342D01*
X201801689Y-42805408D01*
X201867153Y-42780990D01*
X201935426Y-42795841D01*
G37*
%TD.AperFunction*%
%TA.AperFunction,Conductor*%
G36*
X186205703Y-62267517D02*
G01*
X186212181Y-62273549D01*
X194953181Y-71014549D01*
X194986666Y-71075872D01*
X194989500Y-71102230D01*
X194989500Y-72050015D01*
X195000000Y-72152795D01*
X195000001Y-72152797D01*
X195021811Y-72218614D01*
X195055186Y-72319335D01*
X195055187Y-72319337D01*
X195147286Y-72468651D01*
X195147289Y-72468655D01*
X195271344Y-72592710D01*
X195271348Y-72592713D01*
X195420662Y-72684812D01*
X195420664Y-72684813D01*
X195420666Y-72684814D01*
X195587203Y-72739999D01*
X195689992Y-72750500D01*
X195689997Y-72750500D01*
X197310003Y-72750500D01*
X197310008Y-72750500D01*
X197412797Y-72739999D01*
X197579334Y-72684814D01*
X197579334Y-72684813D01*
X197586190Y-72682542D01*
X197587202Y-72685597D01*
X197642071Y-72677217D01*
X197705878Y-72705684D01*
X197744166Y-72764129D01*
X197749500Y-72800105D01*
X197749500Y-72926082D01*
X197749500Y-74073918D01*
X197749500Y-74073920D01*
X197749499Y-74073920D01*
X197778340Y-74218907D01*
X197778343Y-74218917D01*
X197834913Y-74355490D01*
X197834914Y-74355492D01*
X197858928Y-74391431D01*
X197858929Y-74391433D01*
X197917043Y-74478410D01*
X197917047Y-74478415D01*
X200213181Y-76774549D01*
X200246666Y-76835872D01*
X200249500Y-76862230D01*
X200249500Y-78244434D01*
X200229815Y-78311473D01*
X200177011Y-78357228D01*
X200107853Y-78367172D01*
X200044297Y-78338147D01*
X200037819Y-78332115D01*
X200017516Y-78311812D01*
X200017508Y-78311806D01*
X199876695Y-78228530D01*
X199876692Y-78228528D01*
X199720001Y-78183005D01*
X199720000Y-78183006D01*
X199720000Y-79816991D01*
X199876697Y-79771468D01*
X200017508Y-79688193D01*
X200017516Y-79688187D01*
X200037819Y-79667885D01*
X200099142Y-79634400D01*
X200168834Y-79639384D01*
X200224767Y-79681256D01*
X200249184Y-79746720D01*
X200249500Y-79755566D01*
X200249500Y-80637769D01*
X200240855Y-80667209D01*
X200234332Y-80697196D01*
X200230577Y-80702211D01*
X200229815Y-80704808D01*
X200213181Y-80725450D01*
X200159811Y-80778820D01*
X200098488Y-80812305D01*
X200028796Y-80807321D01*
X200009009Y-80797871D01*
X199889394Y-80727131D01*
X199889388Y-80727129D01*
X199735208Y-80682335D01*
X199735202Y-80682334D01*
X199699188Y-80679500D01*
X199354500Y-80679500D01*
X199287461Y-80659815D01*
X199241706Y-80607011D01*
X199230500Y-80555500D01*
X199230500Y-79493603D01*
X199245255Y-79439671D01*
X199243833Y-79439056D01*
X199246926Y-79431904D01*
X199246931Y-79431897D01*
X199292609Y-79274675D01*
X199295500Y-79237940D01*
X199295500Y-78762060D01*
X199292609Y-78725325D01*
X199290331Y-78717483D01*
X199246932Y-78568104D01*
X199237266Y-78551759D01*
X199220000Y-78488641D01*
X199220000Y-78183006D01*
X199219998Y-78183005D01*
X199063308Y-78228529D01*
X199063301Y-78228532D01*
X199048606Y-78237222D01*
X198980881Y-78254401D01*
X198922370Y-78237220D01*
X198906897Y-78228069D01*
X198906895Y-78228068D01*
X198906891Y-78228066D01*
X198906892Y-78228066D01*
X198749679Y-78182391D01*
X198749673Y-78182390D01*
X198712947Y-78179500D01*
X198712940Y-78179500D01*
X198287060Y-78179500D01*
X198287052Y-78179500D01*
X198250326Y-78182390D01*
X198250320Y-78182391D01*
X198093107Y-78228066D01*
X198093104Y-78228068D01*
X197952185Y-78311406D01*
X197952175Y-78311414D01*
X197935341Y-78328248D01*
X197874017Y-78361732D01*
X197804326Y-78356746D01*
X197759981Y-78328246D01*
X197339444Y-77907709D01*
X197305959Y-77846386D01*
X197308049Y-77785433D01*
X197317598Y-77752569D01*
X197320500Y-77715694D01*
X197320500Y-77284306D01*
X197317598Y-77247431D01*
X197271744Y-77089602D01*
X197188081Y-76948135D01*
X197188079Y-76948133D01*
X197188076Y-76948129D01*
X197071870Y-76831923D01*
X197071862Y-76831917D01*
X196966722Y-76769738D01*
X196930398Y-76748256D01*
X196930397Y-76748255D01*
X196930396Y-76748255D01*
X196930393Y-76748254D01*
X196772573Y-76702402D01*
X196772567Y-76702401D01*
X196735701Y-76699500D01*
X196735694Y-76699500D01*
X195569500Y-76699500D01*
X195502461Y-76679815D01*
X195456706Y-76627011D01*
X195445500Y-76575500D01*
X195445500Y-76334313D01*
X195445499Y-76334298D01*
X195442598Y-76297432D01*
X195442597Y-76297426D01*
X195401421Y-76155701D01*
X195396744Y-76139602D01*
X195313081Y-75998135D01*
X195313079Y-75998133D01*
X195313076Y-75998129D01*
X195196870Y-75881923D01*
X195196862Y-75881917D01*
X195063541Y-75803072D01*
X195055398Y-75798256D01*
X195055397Y-75798255D01*
X195055396Y-75798255D01*
X195055393Y-75798254D01*
X194897573Y-75752402D01*
X194897567Y-75752401D01*
X194860701Y-75749500D01*
X194860694Y-75749500D01*
X193554306Y-75749500D01*
X193554298Y-75749500D01*
X193517432Y-75752401D01*
X193517426Y-75752402D01*
X193359606Y-75798254D01*
X193359603Y-75798255D01*
X193218137Y-75881917D01*
X193218129Y-75881923D01*
X193101923Y-75998129D01*
X193101917Y-75998137D01*
X193018255Y-76139603D01*
X193018254Y-76139606D01*
X192972402Y-76297426D01*
X192972401Y-76297432D01*
X192969500Y-76334298D01*
X192969500Y-76610725D01*
X192949815Y-76677764D01*
X192897011Y-76723519D01*
X192827853Y-76733463D01*
X192810906Y-76729802D01*
X192785202Y-76722334D01*
X192749181Y-76719500D01*
X192250830Y-76719500D01*
X192250808Y-76719501D01*
X192214794Y-76722335D01*
X192060611Y-76767129D01*
X192060606Y-76767131D01*
X191922404Y-76848863D01*
X191922396Y-76848869D01*
X191808869Y-76962396D01*
X191808863Y-76962404D01*
X191727131Y-77100606D01*
X191727129Y-77100611D01*
X191682335Y-77254791D01*
X191682334Y-77254797D01*
X191679500Y-77290811D01*
X191679500Y-77409902D01*
X191659815Y-77476941D01*
X191643181Y-77497583D01*
X191462181Y-77678583D01*
X191400858Y-77712068D01*
X191331166Y-77707084D01*
X191275233Y-77665212D01*
X191250816Y-77599748D01*
X191250500Y-77590902D01*
X191250500Y-74412781D01*
X193654500Y-74412781D01*
X193654500Y-74587218D01*
X193688527Y-74758283D01*
X193688529Y-74758291D01*
X193755278Y-74919439D01*
X193755283Y-74919448D01*
X193852186Y-75064473D01*
X193852189Y-75064477D01*
X193975522Y-75187810D01*
X193975526Y-75187813D01*
X194120551Y-75284716D01*
X194120557Y-75284719D01*
X194120558Y-75284720D01*
X194281709Y-75351471D01*
X194452781Y-75385499D01*
X194452785Y-75385500D01*
X194452786Y-75385500D01*
X194627215Y-75385500D01*
X194627216Y-75385499D01*
X194798291Y-75351471D01*
X194959442Y-75284720D01*
X195104474Y-75187813D01*
X195227813Y-75064474D01*
X195324720Y-74919442D01*
X195391471Y-74758291D01*
X195425500Y-74587214D01*
X195425500Y-74412786D01*
X195391471Y-74241709D01*
X195324720Y-74080558D01*
X195324719Y-74080557D01*
X195324716Y-74080551D01*
X195227813Y-73935526D01*
X195227810Y-73935522D01*
X195104477Y-73812189D01*
X195104473Y-73812186D01*
X194959448Y-73715283D01*
X194959439Y-73715278D01*
X194798291Y-73648529D01*
X194798283Y-73648527D01*
X194627218Y-73614500D01*
X194627214Y-73614500D01*
X194452786Y-73614500D01*
X194452781Y-73614500D01*
X194281716Y-73648527D01*
X194281708Y-73648529D01*
X194120560Y-73715278D01*
X194120551Y-73715283D01*
X193975526Y-73812186D01*
X193975522Y-73812189D01*
X193852189Y-73935522D01*
X193852186Y-73935526D01*
X193755283Y-74080551D01*
X193755278Y-74080560D01*
X193688529Y-74241708D01*
X193688527Y-74241716D01*
X193654500Y-74412781D01*
X191250500Y-74412781D01*
X191250500Y-71926081D01*
X191242822Y-71887486D01*
X191242822Y-71887483D01*
X191229774Y-71821885D01*
X191221659Y-71781088D01*
X191165084Y-71644506D01*
X191165084Y-71644505D01*
X191110205Y-71562373D01*
X191082952Y-71521585D01*
X188712417Y-69151049D01*
X188712416Y-69151048D01*
X188712414Y-69151046D01*
X188663180Y-69118151D01*
X188630356Y-69096219D01*
X188589496Y-69068917D01*
X188589495Y-69068916D01*
X188589493Y-69068915D01*
X188589491Y-69068914D01*
X188452918Y-69012344D01*
X188452908Y-69012341D01*
X188307921Y-68983501D01*
X188307919Y-68983501D01*
X185974499Y-68983501D01*
X185907460Y-68963816D01*
X185861705Y-68911012D01*
X185850499Y-68859501D01*
X185850499Y-68836130D01*
X185850498Y-68836124D01*
X185850497Y-68836117D01*
X185844091Y-68776518D01*
X185813355Y-68694111D01*
X185793797Y-68641672D01*
X185793793Y-68641665D01*
X185707547Y-68526456D01*
X185707544Y-68526453D01*
X185592335Y-68440207D01*
X185592328Y-68440203D01*
X185457482Y-68389909D01*
X185457483Y-68389909D01*
X185397883Y-68383502D01*
X185397881Y-68383501D01*
X185397873Y-68383501D01*
X185397864Y-68383501D01*
X183602129Y-68383501D01*
X183602123Y-68383502D01*
X183542516Y-68389909D01*
X183407671Y-68440203D01*
X183407664Y-68440207D01*
X183292455Y-68526453D01*
X183292452Y-68526456D01*
X183206206Y-68641665D01*
X183206202Y-68641672D01*
X183155908Y-68776518D01*
X183149501Y-68836117D01*
X183149501Y-68836124D01*
X183149500Y-68836136D01*
X183149500Y-70631871D01*
X183149501Y-70631877D01*
X183155908Y-70691484D01*
X183206202Y-70826329D01*
X183206206Y-70826336D01*
X183292452Y-70941545D01*
X183292455Y-70941548D01*
X183407664Y-71027794D01*
X183407671Y-71027798D01*
X183452466Y-71044505D01*
X183542517Y-71078092D01*
X183602127Y-71084501D01*
X183612685Y-71084500D01*
X183679723Y-71104180D01*
X183700372Y-71120819D01*
X184370591Y-71791038D01*
X184307007Y-71808076D01*
X184192993Y-71873902D01*
X184099901Y-71966994D01*
X184034075Y-72081008D01*
X184017037Y-72144592D01*
X183384728Y-71512283D01*
X183384727Y-71512283D01*
X183345380Y-71566440D01*
X183248904Y-71755783D01*
X183183242Y-71957870D01*
X183183242Y-71957873D01*
X183150000Y-72167754D01*
X183150000Y-72380247D01*
X183183242Y-72590128D01*
X183183242Y-72590131D01*
X183248904Y-72792218D01*
X183345375Y-72981551D01*
X183384728Y-73035717D01*
X184017037Y-72403409D01*
X184034075Y-72466994D01*
X184099901Y-72581008D01*
X184192993Y-72674100D01*
X184307007Y-72739926D01*
X184370590Y-72756963D01*
X183738282Y-73389270D01*
X183738282Y-73389271D01*
X183792449Y-73428625D01*
X183981782Y-73525096D01*
X184183870Y-73590758D01*
X184393754Y-73624001D01*
X184606246Y-73624001D01*
X184816127Y-73590758D01*
X184816130Y-73590758D01*
X185018217Y-73525096D01*
X185207554Y-73428623D01*
X185261716Y-73389271D01*
X185261717Y-73389271D01*
X184629408Y-72756963D01*
X184692993Y-72739926D01*
X184807007Y-72674100D01*
X184900099Y-72581008D01*
X184965925Y-72466994D01*
X184982962Y-72403410D01*
X185615270Y-73035718D01*
X185615270Y-73035717D01*
X185654622Y-72981555D01*
X185751095Y-72792218D01*
X185816757Y-72590131D01*
X185816757Y-72590128D01*
X185850000Y-72380247D01*
X185850000Y-72167754D01*
X185816757Y-71957873D01*
X185816757Y-71957870D01*
X185751095Y-71755783D01*
X185654624Y-71566450D01*
X185615270Y-71512283D01*
X185615269Y-71512283D01*
X184982962Y-72144591D01*
X184965925Y-72081008D01*
X184900099Y-71966994D01*
X184807007Y-71873902D01*
X184692993Y-71808076D01*
X184629409Y-71791038D01*
X185299627Y-71120819D01*
X185360950Y-71087334D01*
X185387307Y-71084500D01*
X185397872Y-71084500D01*
X185457483Y-71078092D01*
X185592331Y-71027797D01*
X185707546Y-70941547D01*
X185793796Y-70826332D01*
X185844091Y-70691484D01*
X185850500Y-70631874D01*
X185850500Y-70608501D01*
X185870185Y-70541462D01*
X185922989Y-70495707D01*
X185974500Y-70484501D01*
X187871771Y-70484501D01*
X187938810Y-70504186D01*
X187959452Y-70520820D01*
X189713181Y-72274548D01*
X189746666Y-72335871D01*
X189749500Y-72362229D01*
X189749500Y-77585500D01*
X189746949Y-77594185D01*
X189748238Y-77603147D01*
X189737259Y-77627187D01*
X189729815Y-77652539D01*
X189722974Y-77658466D01*
X189719213Y-77666703D01*
X189696978Y-77680992D01*
X189677011Y-77698294D01*
X189666496Y-77700581D01*
X189660435Y-77704477D01*
X189625500Y-77709500D01*
X189557328Y-77709500D01*
X189522733Y-77704576D01*
X189377573Y-77662402D01*
X189377567Y-77662401D01*
X189340701Y-77659500D01*
X189340694Y-77659500D01*
X187559306Y-77659500D01*
X187559298Y-77659500D01*
X187522432Y-77662401D01*
X187522426Y-77662402D01*
X187364606Y-77708254D01*
X187364603Y-77708255D01*
X187223137Y-77791917D01*
X187223129Y-77791923D01*
X187106923Y-77908129D01*
X187106917Y-77908137D01*
X187023255Y-78049603D01*
X187023254Y-78049606D01*
X186977402Y-78207426D01*
X186977401Y-78207432D01*
X186974500Y-78244298D01*
X186974500Y-78675701D01*
X186977401Y-78712567D01*
X186977402Y-78712573D01*
X187023254Y-78870393D01*
X187023255Y-78870396D01*
X187106917Y-79011862D01*
X187111702Y-79018031D01*
X187109256Y-79019927D01*
X187135857Y-79068642D01*
X187130873Y-79138334D01*
X187110069Y-79170703D01*
X187111702Y-79171969D01*
X187106917Y-79178137D01*
X187023255Y-79319603D01*
X187023254Y-79319606D01*
X186977402Y-79477426D01*
X186977401Y-79477432D01*
X186974500Y-79514298D01*
X186974500Y-79945701D01*
X186977401Y-79982567D01*
X186977402Y-79982573D01*
X187023254Y-80140393D01*
X187023255Y-80140396D01*
X187106917Y-80281862D01*
X187111702Y-80288031D01*
X187109256Y-80289927D01*
X187135857Y-80338642D01*
X187130873Y-80408334D01*
X187110069Y-80440703D01*
X187111702Y-80441969D01*
X187106917Y-80448137D01*
X187023255Y-80589603D01*
X187023254Y-80589606D01*
X186977402Y-80747426D01*
X186977401Y-80747432D01*
X186974500Y-80784298D01*
X186974500Y-81215701D01*
X186977401Y-81252567D01*
X186977402Y-81252573D01*
X187023254Y-81410393D01*
X187023255Y-81410396D01*
X187106917Y-81551862D01*
X187111702Y-81558031D01*
X187109256Y-81559927D01*
X187135857Y-81608642D01*
X187130873Y-81678334D01*
X187110069Y-81710703D01*
X187111702Y-81711969D01*
X187106917Y-81718137D01*
X187023255Y-81859603D01*
X187023254Y-81859606D01*
X186977402Y-82017426D01*
X186977401Y-82017432D01*
X186974500Y-82054298D01*
X186974500Y-82146500D01*
X186971949Y-82155185D01*
X186973238Y-82164147D01*
X186962259Y-82188187D01*
X186954815Y-82213539D01*
X186947974Y-82219466D01*
X186944213Y-82227703D01*
X186921978Y-82241992D01*
X186902011Y-82259294D01*
X186891496Y-82261581D01*
X186885435Y-82265477D01*
X186850500Y-82270500D01*
X186800097Y-82270500D01*
X186733058Y-82250815D01*
X186712416Y-82234181D01*
X186140368Y-81662133D01*
X186106883Y-81600810D01*
X186111867Y-81531118D01*
X186124941Y-81505571D01*
X186209394Y-81379179D01*
X186269737Y-81233497D01*
X186300500Y-81078842D01*
X186300500Y-80921158D01*
X186300500Y-80921155D01*
X186300499Y-80921153D01*
X186290069Y-80868717D01*
X186269737Y-80766503D01*
X186261835Y-80747426D01*
X186209397Y-80620827D01*
X186209390Y-80620814D01*
X186121789Y-80489711D01*
X186121786Y-80489707D01*
X186010291Y-80378212D01*
X185990517Y-80365000D01*
X185967754Y-80349790D01*
X185922951Y-80296180D01*
X185914242Y-80226855D01*
X185933542Y-80177800D01*
X185979394Y-80109179D01*
X186039737Y-79963497D01*
X186070500Y-79808842D01*
X186070500Y-79651158D01*
X186070500Y-79651155D01*
X186070499Y-79651153D01*
X186067167Y-79634400D01*
X186039737Y-79496503D01*
X186012977Y-79431897D01*
X185979397Y-79350827D01*
X185979390Y-79350814D01*
X185891789Y-79219711D01*
X185891786Y-79219707D01*
X185780292Y-79108213D01*
X185780288Y-79108210D01*
X185649185Y-79020609D01*
X185649172Y-79020602D01*
X185503501Y-78960264D01*
X185503489Y-78960261D01*
X185348845Y-78929500D01*
X185348842Y-78929500D01*
X185191158Y-78929500D01*
X185176569Y-78932402D01*
X185091972Y-78949229D01*
X185022380Y-78943001D01*
X184967203Y-78900137D01*
X184943959Y-78834247D01*
X184948705Y-78793016D01*
X184972099Y-78712494D01*
X184972100Y-78712488D01*
X184972295Y-78710001D01*
X184972295Y-78710000D01*
X182027705Y-78710000D01*
X182027704Y-78710001D01*
X182027899Y-78712486D01*
X182073718Y-78870198D01*
X182157314Y-79011552D01*
X182162100Y-79017722D01*
X182159640Y-79019629D01*
X182186210Y-79068288D01*
X182181226Y-79137980D01*
X182160162Y-79170781D01*
X182161699Y-79171974D01*
X182156915Y-79178140D01*
X182073255Y-79319603D01*
X182073254Y-79319606D01*
X182027402Y-79477426D01*
X182027401Y-79477432D01*
X182024500Y-79514298D01*
X182024500Y-79945701D01*
X182027401Y-79982567D01*
X182027402Y-79982573D01*
X182073254Y-80140393D01*
X182073255Y-80140396D01*
X182156917Y-80281862D01*
X182161702Y-80288031D01*
X182159256Y-80289927D01*
X182185857Y-80338642D01*
X182180873Y-80408334D01*
X182170065Y-80430364D01*
X182162509Y-80442544D01*
X182156919Y-80448135D01*
X182113496Y-80521558D01*
X182112796Y-80522688D01*
X182087688Y-80545156D01*
X182063084Y-80568129D01*
X182061745Y-80568372D01*
X182060730Y-80569281D01*
X182027465Y-80574607D01*
X181994342Y-80580632D01*
X181993083Y-80580112D01*
X181991739Y-80580328D01*
X181960881Y-80566828D01*
X181929753Y-80553986D01*
X181928062Y-80552469D01*
X181927727Y-80552323D01*
X181927472Y-80551939D01*
X181919741Y-80545005D01*
X180834416Y-79459680D01*
X179584733Y-78209998D01*
X182027704Y-78209998D01*
X182027705Y-78210000D01*
X183250000Y-78210000D01*
X183750000Y-78210000D01*
X184972295Y-78210000D01*
X184972295Y-78209998D01*
X184972100Y-78207513D01*
X184926281Y-78049801D01*
X184842685Y-77908447D01*
X184842678Y-77908438D01*
X184726561Y-77792321D01*
X184726552Y-77792314D01*
X184585196Y-77708717D01*
X184585193Y-77708716D01*
X184427495Y-77662900D01*
X184427489Y-77662899D01*
X184390649Y-77660000D01*
X183750000Y-77660000D01*
X183750000Y-78210000D01*
X183250000Y-78210000D01*
X183250000Y-77660000D01*
X182609350Y-77660000D01*
X182572510Y-77662899D01*
X182572504Y-77662900D01*
X182414806Y-77708716D01*
X182414803Y-77708717D01*
X182273447Y-77792314D01*
X182273438Y-77792321D01*
X182157321Y-77908438D01*
X182157314Y-77908447D01*
X182073718Y-78049801D01*
X182027899Y-78207513D01*
X182027704Y-78209998D01*
X179584733Y-78209998D01*
X178336915Y-76962180D01*
X178303431Y-76900858D01*
X178308415Y-76831166D01*
X178350287Y-76775233D01*
X178415751Y-76750816D01*
X178424597Y-76750500D01*
X179695396Y-76750500D01*
X179742844Y-76759937D01*
X179766503Y-76769737D01*
X179766508Y-76769738D01*
X179766511Y-76769739D01*
X179921153Y-76800499D01*
X179921156Y-76800500D01*
X179921158Y-76800500D01*
X180078844Y-76800500D01*
X180078845Y-76800499D01*
X180233497Y-76769737D01*
X180379179Y-76709394D01*
X180510289Y-76621789D01*
X180621789Y-76510289D01*
X180709394Y-76379179D01*
X180711222Y-76374767D01*
X180727984Y-76334298D01*
X180769737Y-76233497D01*
X180800500Y-76078842D01*
X180800500Y-75921158D01*
X180800500Y-75921155D01*
X180800499Y-75921153D01*
X180777011Y-75803072D01*
X180769737Y-75766503D01*
X180714558Y-75633288D01*
X180709397Y-75620827D01*
X180709390Y-75620814D01*
X180621789Y-75489711D01*
X180621786Y-75489707D01*
X180510292Y-75378213D01*
X180510288Y-75378210D01*
X180379185Y-75290609D01*
X180379172Y-75290602D01*
X180233501Y-75230264D01*
X180233489Y-75230261D01*
X180078845Y-75199500D01*
X180078842Y-75199500D01*
X179921158Y-75199500D01*
X179921155Y-75199500D01*
X179766511Y-75230260D01*
X179766506Y-75230262D01*
X179766504Y-75230262D01*
X179766503Y-75230263D01*
X179742844Y-75240062D01*
X179695396Y-75249500D01*
X177662229Y-75249500D01*
X177595190Y-75229815D01*
X177574548Y-75213181D01*
X177060838Y-74699471D01*
X177027353Y-74638148D01*
X177032337Y-74568456D01*
X177074209Y-74512523D01*
X177118587Y-74491457D01*
X177278693Y-74451641D01*
X177449296Y-74367030D01*
X177597722Y-74247722D01*
X177717030Y-74099296D01*
X177801641Y-73928693D01*
X177847600Y-73743889D01*
X177850500Y-73701123D01*
X177850499Y-72981555D01*
X177850499Y-72298877D01*
X177850498Y-72298876D01*
X177847600Y-72256111D01*
X177801641Y-72071307D01*
X177770424Y-72008363D01*
X177717032Y-71900707D01*
X177717030Y-71900704D01*
X177687514Y-71863985D01*
X177597722Y-71752278D01*
X177545437Y-71710250D01*
X177505519Y-71652906D01*
X177502939Y-71583084D01*
X177535442Y-71525924D01*
X185832951Y-63228416D01*
X185915084Y-63105495D01*
X185971658Y-62968913D01*
X186000500Y-62823918D01*
X186000500Y-62676083D01*
X186000500Y-62361230D01*
X186020185Y-62294191D01*
X186072989Y-62248436D01*
X186142147Y-62238492D01*
X186205703Y-62267517D01*
G37*
%TD.AperFunction*%
%TD*%
M02*
