M48
; DRILL file {KiCad 9.0.4} date 2026-02-15T11:37:17+0900
; FORMAT={-:-/ absolute / metric / decimal}
; #@! TF.CreationDate,2026-02-15T11:37:17+09:00
; #@! TF.GenerationSoftware,Kicad,Pcbnew,9.0.4
; #@! TF.FileFunction,Plated,1,2,PTH
FMAT,2
METRIC
; #@! TA.AperFunction,Plated,PTH,ComponentDrill
T1C0.200
; #@! TA.AperFunction,Plated,PTH,ViaDrill
T2C0.300
; #@! TA.AperFunction,Plated,PTH,ComponentDrill
T3C0.500
; #@! TA.AperFunction,Plated,PTH,ComponentDrill
T4C0.600
; #@! TA.AperFunction,Plated,PTH,ComponentDrill
T5C0.800
; #@! TA.AperFunction,Plated,PTH,ComponentDrill
T6C0.813
; #@! TA.AperFunction,Plated,PTH,ComponentDrill
T7C1.000
; #@! TA.AperFunction,Plated,PTH,ComponentDrill
T8C1.100
; #@! TA.AperFunction,Plated,PTH,ComponentDrill
T9C1.245
%
G90
G05
T1
X130.8Y-53.8
X130.8Y-55.0
X130.8Y-56.2
X132.2Y-53.8
X132.2Y-55.0
X132.2Y-56.2
T2
X117.6Y-115.8
X118.0Y-42.0
X120.447Y-79.299
X121.0Y-64.0
X122.885Y-63.094
X126.0Y-46.0
X129.0Y-51.0
X129.306Y-88.798
X129.78Y-87.932
X130.038Y-91.601
X130.108Y-94.112
X130.206Y-95.148
X133.756Y-76.2
X134.0Y-105.0
X135.0Y-51.0
X135.788Y-74.117
X136.347Y-88.392
X136.754Y-76.098
X137.719Y-77.368
X138.887Y-89.967
X139.0Y-60.0
X140.157Y-74.473
X140.462Y-76.708
X140.65Y-89.85
X141.0Y-57.0
X141.0Y-90.718
X142.0Y-42.0
X142.646Y-75.641
X143.0Y-92.0
X144.0Y-47.0
X144.0Y-105.0
X145.034Y-74.778
X146.007Y-73.98
X150.2Y-115.4
X152.0Y-106.0
X154.0Y-101.0
X154.0Y-102.0
X154.0Y-106.0
X154.829Y-102.549
X156.0Y-83.0
X156.0Y-103.5
X158.0Y-46.0
X158.0Y-85.0
X158.648Y-72.562
X158.699Y-67.259
X159.918Y-73.162
X161.0Y-83.4
X161.29Y-73.447
X163.0Y-62.0
X163.0Y-94.0
X163.0Y-97.0
X163.0Y-99.0
X163.0Y-102.0
X164.033Y-68.885
X165.5Y-92.5
X166.0Y-95.0
X166.5Y-100.5
X166.5Y-103.0
X166.992Y-99.008
X167.0Y-79.5
X168.0Y-105.0
X169.0Y-95.0
X169.0Y-97.0
X171.4Y-88.0
X172.6Y-92.6
X173.0Y-108.0
X173.2Y-86.2
X173.75Y-90.75
X173.891Y-91.891
X174.5Y-93.0
X174.8Y-53.2
X175.599Y-91.599
X176.524Y-91.524
X177.2Y-94.4
X178.8Y-109.2
X179.0Y-98.0
X180.0Y-108.5
X180.8Y-88.6
X181.2Y-89.8
X181.6Y-92.8
X182.4Y-90.0
X182.4Y-91.8
X183.0Y-91.0
X183.0Y-93.0
X184.0Y-107.0
X184.8Y-75.8
X188.0Y-67.0
X192.2Y-73.6
X201.0Y-64.0
X201.4Y-102.8
X203.0Y-103.0
X206.0Y-94.0
T3
X123.0Y-75.5
X123.0Y-76.75
T5
X135.11Y-86.65
X135.11Y-89.19
X135.11Y-91.73
X135.11Y-94.27
X135.11Y-96.81
X135.11Y-99.35
X137.65Y-84.11
X137.65Y-86.65
X137.65Y-89.19
X137.65Y-91.73
X137.65Y-94.27
X137.65Y-96.81
X137.65Y-99.35
X137.65Y-101.89
X140.19Y-84.11
X140.19Y-86.65
X140.19Y-99.35
X140.19Y-101.89
X142.73Y-84.11
X142.73Y-86.65
X142.73Y-99.35
X142.73Y-101.89
X145.27Y-84.11
X145.27Y-86.65
X145.27Y-99.35
X145.27Y-101.89
X147.81Y-84.11
X147.81Y-86.65
X147.81Y-99.35
X147.81Y-101.89
X150.35Y-84.11
X150.35Y-86.65
X150.35Y-89.19
X150.35Y-91.73
X150.35Y-94.27
X150.35Y-96.81
X150.35Y-99.35
X150.35Y-101.89
X152.89Y-86.65
X152.89Y-89.19
X152.89Y-91.73
X152.89Y-94.27
X152.89Y-96.81
X152.89Y-99.35
T6
X119.0Y-64.0
X119.0Y-66.0
X119.0Y-68.0
T7
X122.747Y-90.42
X122.747Y-92.96
X122.747Y-95.5
X122.747Y-98.04
X122.747Y-100.58
X125.287Y-90.42
X125.287Y-92.96
X125.287Y-95.5
X125.287Y-98.04
X125.287Y-100.58
X127.2Y-110.4
X127.2Y-112.94
X129.74Y-110.4
X129.74Y-112.94
X132.28Y-110.4
X132.28Y-112.94
X134.82Y-110.4
X134.82Y-112.94
X137.36Y-110.4
X137.36Y-112.94
X139.9Y-110.4
X139.9Y-112.94
X142.44Y-110.4
X142.44Y-112.94
X144.98Y-110.4
X144.98Y-112.94
X147.52Y-110.4
X147.52Y-112.94
X155.2Y-110.4
X155.2Y-112.94
X157.74Y-110.4
X157.74Y-112.94
X160.28Y-110.4
X160.28Y-112.94
X162.82Y-110.4
X162.82Y-112.94
X165.36Y-110.4
X165.36Y-112.94
X167.9Y-110.4
X167.9Y-112.94
X170.44Y-110.4
X170.44Y-112.94
X172.98Y-110.4
X172.98Y-112.94
X175.52Y-110.4
X175.52Y-112.94
X183.2Y-110.46
X183.2Y-113.0
X183.388Y-49.276
X183.388Y-64.516
X184.404Y-70.104
X185.74Y-110.46
X185.74Y-113.0
X185.928Y-49.276
X185.928Y-64.516
X186.944Y-70.104
X188.28Y-110.46
X188.28Y-113.0
X188.468Y-49.276
X188.468Y-64.516
X189.484Y-70.104
X190.82Y-110.46
X190.82Y-113.0
X191.008Y-49.276
X191.008Y-64.516
X192.024Y-70.104
X193.36Y-110.46
X193.36Y-113.0
X193.548Y-49.276
X193.548Y-64.516
X194.564Y-70.104
X195.9Y-110.46
X195.9Y-113.0
X196.088Y-49.276
X196.088Y-64.516
X197.104Y-70.104
X198.44Y-110.46
X198.44Y-113.0
X199.644Y-70.104
X200.98Y-110.46
X200.98Y-113.0
X203.52Y-110.46
X203.52Y-113.0
X211.074Y-93.726
X211.074Y-96.266
X211.074Y-98.806
X211.074Y-101.346
X211.074Y-103.886
X211.074Y-106.426
T8
X128.292Y-65.508
X128.292Y-70.008
X134.792Y-65.508
X134.792Y-70.008
X141.5Y-65.508
X141.5Y-70.008
X148.0Y-65.508
X148.0Y-70.008
X154.962Y-65.0
X154.962Y-69.5
X161.462Y-65.0
X161.462Y-69.5
X190.298Y-97.064
X190.298Y-101.564
X196.798Y-97.064
X196.798Y-101.564
T9
X119.0Y-61.9
X119.0Y-70.1
T4
G00X119.0Y-47.18
M15
G01X118.4Y-47.18
M16
G05
G00X119.0Y-55.82
M15
G01X118.4Y-55.82
M16
G05
G00X122.8Y-47.18
M15
G01X122.2Y-47.18
M16
G05
G00X122.8Y-55.82
M15
G01X122.2Y-55.82
M16
G05
M30
