%TF.GenerationSoftware,KiCad,Pcbnew,9.0.4*%
%TF.CreationDate,2026-01-27T19:08:46+09:00*%
%TF.ProjectId,SPLD_Test,53504c44-5f54-4657-9374-2e6b69636164,rev?*%
%TF.SameCoordinates,Original*%
%TF.FileFunction,Soldermask,Top*%
%TF.FilePolarity,Negative*%
%FSLAX46Y46*%
G04 Gerber Fmt 4.6, Leading zero omitted, Abs format (unit mm)*
G04 Created by KiCad (PCBNEW 9.0.4) date 2026-01-27 19:08:46*
%MOMM*%
%LPD*%
G01*
G04 APERTURE LIST*
G04 Aperture macros list*
%AMRoundRect*
0 Rectangle with rounded corners*
0 $1 Rounding radius*
0 $2 $3 $4 $5 $6 $7 $8 $9 X,Y pos of 4 corners*
0 Add a 4 corners polygon primitive as box body*
4,1,4,$2,$3,$4,$5,$6,$7,$8,$9,$2,$3,0*
0 Add four circle primitives for the rounded corners*
1,1,$1+$1,$2,$3*
1,1,$1+$1,$4,$5*
1,1,$1+$1,$6,$7*
1,1,$1+$1,$8,$9*
0 Add four rect primitives between the rounded corners*
20,1,$1+$1,$2,$3,$4,$5,0*
20,1,$1+$1,$4,$5,$6,$7,0*
20,1,$1+$1,$6,$7,$8,$9,0*
20,1,$1+$1,$8,$9,$2,$3,0*%
G04 Aperture macros list end*
%ADD10C,1.500000*%
%ADD11R,1.500000X1.500000*%
%ADD12C,1.700000*%
%ADD13R,1.700000X1.700000*%
%ADD14RoundRect,0.250000X-1.500000X-0.550000X1.500000X-0.550000X1.500000X0.550000X-1.500000X0.550000X0*%
%ADD15RoundRect,0.250000X0.550000X-1.500000X0.550000X1.500000X-0.550000X1.500000X-0.550000X-1.500000X0*%
%ADD16RoundRect,0.160000X-0.197500X-0.160000X0.197500X-0.160000X0.197500X0.160000X-0.197500X0.160000X0*%
%ADD17RoundRect,0.237500X-0.250000X-0.237500X0.250000X-0.237500X0.250000X0.237500X-0.250000X0.237500X0*%
%ADD18R,1.500000X2.200000*%
%ADD19RoundRect,0.237500X0.237500X-0.250000X0.237500X0.250000X-0.237500X0.250000X-0.237500X-0.250000X0*%
%ADD20RoundRect,0.237500X0.250000X0.237500X-0.250000X0.237500X-0.250000X-0.237500X0.250000X-0.237500X0*%
%ADD21RoundRect,0.160000X-0.160000X0.197500X-0.160000X-0.197500X0.160000X-0.197500X0.160000X0.197500X0*%
%ADD22C,2.000000*%
%ADD23C,1.422400*%
%ADD24R,1.422400X1.422400*%
%ADD25RoundRect,0.150000X-0.512500X-0.150000X0.512500X-0.150000X0.512500X0.150000X-0.512500X0.150000X0*%
%ADD26RoundRect,0.125000X-0.125000X-0.625000X0.125000X-0.625000X0.125000X0.625000X-0.125000X0.625000X0*%
%ADD27RoundRect,0.125000X-0.625000X-0.125000X0.625000X-0.125000X0.625000X0.125000X-0.625000X0.125000X0*%
%ADD28RoundRect,0.175000X-0.625000X0.175000X-0.625000X-0.175000X0.625000X-0.175000X0.625000X0.175000X0*%
%ADD29RoundRect,0.200000X-0.600000X0.200000X-0.600000X-0.200000X0.600000X-0.200000X0.600000X0.200000X0*%
%ADD30RoundRect,0.225000X-0.575000X0.225000X-0.575000X-0.225000X0.575000X-0.225000X0.575000X0.225000X0*%
%ADD31O,1.700000X1.000000*%
G04 APERTURE END LIST*
D10*
%TO.C,U3*%
X183388000Y-49276000D03*
X185928000Y-49276000D03*
X188468000Y-49276000D03*
X191008000Y-49276000D03*
X193548000Y-49276000D03*
X196088000Y-49276000D03*
X196088000Y-64516000D03*
X193548000Y-64516000D03*
X191008000Y-64516000D03*
X188468000Y-64516000D03*
X185928000Y-64516000D03*
D11*
X183388000Y-64516000D03*
%TD*%
D12*
%TO.C,J6*%
X175520000Y-112940000D03*
X175520000Y-110400000D03*
X172980000Y-112940000D03*
X172980000Y-110400000D03*
X170440000Y-112940000D03*
X170440000Y-110400000D03*
X167900000Y-112940000D03*
X167900000Y-110400000D03*
X165360000Y-112940000D03*
X165360000Y-110400000D03*
X162820000Y-112940000D03*
X162820000Y-110400000D03*
X160280000Y-112940000D03*
X160280000Y-110400000D03*
X157740000Y-112940000D03*
X157740000Y-110400000D03*
X155200000Y-112940000D03*
D13*
X155200000Y-110400000D03*
%TD*%
D14*
%TO.C,C2*%
X134700000Y-46700000D03*
X129300000Y-46700000D03*
%TD*%
D15*
%TO.C,C1*%
X154000000Y-48000000D03*
X154000000Y-53400000D03*
%TD*%
D16*
%TO.C,R9*%
X158195000Y-62000000D03*
X157000000Y-62000000D03*
%TD*%
%TO.C,R8*%
X131271000Y-62762000D03*
X130076000Y-62762000D03*
%TD*%
D17*
%TO.C,R5*%
X131896500Y-54500000D03*
X130071500Y-54500000D03*
%TD*%
D12*
%TO.C,J5*%
X147520000Y-112940000D03*
X147520000Y-110400000D03*
X144980000Y-112940000D03*
X144980000Y-110400000D03*
X142440000Y-112940000D03*
X142440000Y-110400000D03*
X139900000Y-112940000D03*
X139900000Y-110400000D03*
X137360000Y-112940000D03*
X137360000Y-110400000D03*
X134820000Y-112940000D03*
X134820000Y-110400000D03*
X132280000Y-112940000D03*
X132280000Y-110400000D03*
X129740000Y-112940000D03*
X129740000Y-110400000D03*
X127200000Y-112940000D03*
D13*
X127200000Y-110400000D03*
%TD*%
D12*
%TO.C,J3*%
X203520000Y-113000000D03*
X203520000Y-110460000D03*
X200980000Y-113000000D03*
X200980000Y-110460000D03*
X198440000Y-113000000D03*
X198440000Y-110460000D03*
X195900000Y-113000000D03*
X195900000Y-110460000D03*
X193360000Y-113000000D03*
X193360000Y-110460000D03*
X190820000Y-113000000D03*
X190820000Y-110460000D03*
X188280000Y-113000000D03*
X188280000Y-110460000D03*
X185740000Y-113000000D03*
X185740000Y-110460000D03*
X183200000Y-113000000D03*
D13*
X183200000Y-110460000D03*
%TD*%
D12*
%TO.C,J1*%
X199644000Y-70104000D03*
X197104000Y-70104000D03*
X194564000Y-70104000D03*
X192024000Y-70104000D03*
X189484000Y-70104000D03*
X186944000Y-70104000D03*
D13*
X184404000Y-70104000D03*
%TD*%
D18*
%TO.C,L1*%
X146278000Y-52986000D03*
X139878000Y-52986000D03*
%TD*%
D12*
%TO.C,J4*%
X211074000Y-106426000D03*
X211074000Y-103886000D03*
X211074000Y-101346000D03*
X211074000Y-98806000D03*
X211074000Y-96266000D03*
D13*
X211074000Y-93726000D03*
%TD*%
D17*
%TO.C,R6*%
X131896500Y-52976000D03*
X130071500Y-52976000D03*
%TD*%
D19*
%TO.C,R1*%
X199898000Y-104394000D03*
X199898000Y-106219000D03*
%TD*%
D20*
%TO.C,R3*%
X163068000Y-76962000D03*
X164893000Y-76962000D03*
%TD*%
D21*
%TO.C,R2*%
X144094000Y-45455500D03*
X144094000Y-44260500D03*
%TD*%
%TO.C,R4*%
X145364000Y-46815000D03*
X145364000Y-45620000D03*
%TD*%
D22*
%TO.C,SW2*%
X144450000Y-69548000D03*
X137950000Y-69548000D03*
X144450000Y-65048000D03*
X137950000Y-65048000D03*
%TD*%
%TO.C,SW1*%
X196798000Y-101564000D03*
X190298000Y-101564000D03*
X196798000Y-97064000D03*
X190298000Y-97064000D03*
%TD*%
D16*
%TO.C,R7*%
X144808000Y-62000000D03*
X143613000Y-62000000D03*
%TD*%
D22*
%TO.C,SW3*%
X131242000Y-69548000D03*
X124742000Y-69548000D03*
X131242000Y-65048000D03*
X124742000Y-65048000D03*
%TD*%
%TO.C,SW4*%
X157912000Y-69040000D03*
X151412000Y-69040000D03*
X157912000Y-64540000D03*
X151412000Y-64540000D03*
%TD*%
D23*
%TO.C,U4*%
X145920000Y-80920000D03*
X148460000Y-83460000D03*
X148460000Y-80920000D03*
X151000000Y-83460000D03*
X151000000Y-80920000D03*
X153540000Y-83460000D03*
X151000000Y-86000000D03*
X153540000Y-86000000D03*
X151000000Y-88540000D03*
X153540000Y-88540000D03*
X151000000Y-91080000D03*
X153540000Y-91080000D03*
X151000000Y-93620000D03*
X153540000Y-93620000D03*
X151000000Y-96160000D03*
X153540000Y-96160000D03*
X151000000Y-98700000D03*
X148460000Y-96160000D03*
X148460000Y-98700000D03*
X145920000Y-96160000D03*
X145920000Y-98700000D03*
X143380000Y-96160000D03*
X143380000Y-98700000D03*
X140840000Y-96160000D03*
X140840000Y-98700000D03*
X138300000Y-96160000D03*
X138300000Y-98700000D03*
X135760000Y-96160000D03*
X138300000Y-93620000D03*
X135760000Y-93620000D03*
X138300000Y-91080000D03*
X135760000Y-91080000D03*
X138300000Y-88540000D03*
X135760000Y-88540000D03*
X138300000Y-86000000D03*
X135760000Y-86000000D03*
X138300000Y-83460000D03*
X135760000Y-83460000D03*
X138300000Y-80920000D03*
X140840000Y-83460000D03*
X140840000Y-80920000D03*
X143380000Y-83460000D03*
X143380000Y-80920000D03*
D24*
X145920000Y-83460000D03*
%TD*%
D25*
%TO.C,U2*%
X141929500Y-45432000D03*
X141929500Y-46382000D03*
X141929500Y-47332000D03*
X139654500Y-47332000D03*
X139654500Y-46382000D03*
X139654500Y-45432000D03*
%TD*%
D26*
%TO.C,U1*%
X172400000Y-88025000D03*
X173200000Y-88025000D03*
X174000000Y-88025000D03*
X174800000Y-88025000D03*
X175600000Y-88025000D03*
X176400000Y-88025000D03*
X177200000Y-88025000D03*
X178000000Y-88025000D03*
D27*
X179375000Y-89400000D03*
X179375000Y-90200000D03*
X179375000Y-91000000D03*
X179375000Y-91800000D03*
X179375000Y-92600000D03*
X179375000Y-93400000D03*
X179375000Y-94200000D03*
X179375000Y-95000000D03*
D26*
X178000000Y-96375000D03*
X177200000Y-96375000D03*
X176400000Y-96375000D03*
X175600000Y-96375000D03*
X174800000Y-96375000D03*
X174000000Y-96375000D03*
X173200000Y-96375000D03*
X172400000Y-96375000D03*
D27*
X171025000Y-95000000D03*
X171025000Y-94200000D03*
X171025000Y-93400000D03*
X171025000Y-92600000D03*
X171025000Y-91800000D03*
X171025000Y-91000000D03*
X171025000Y-90200000D03*
X171025000Y-89400000D03*
%TD*%
D28*
%TO.C,J2*%
X122682000Y-53864000D03*
D29*
X122682000Y-55884000D03*
D30*
X122682000Y-57114000D03*
D28*
X122682000Y-54864000D03*
D29*
X122682000Y-52844000D03*
D30*
X122682000Y-51614000D03*
D31*
X122502000Y-50044000D03*
X118702000Y-50044000D03*
X122502000Y-58684000D03*
X118702000Y-58684000D03*
%TD*%
M02*
