%TF.GenerationSoftware,KiCad,Pcbnew,9.0.4*%
%TF.CreationDate,2026-01-27T19:08:46+09:00*%
%TF.ProjectId,SPLD_Test,53504c44-5f54-4657-9374-2e6b69636164,rev?*%
%TF.SameCoordinates,Original*%
%TF.FileFunction,Legend,Top*%
%TF.FilePolarity,Positive*%
%FSLAX46Y46*%
G04 Gerber Fmt 4.6, Leading zero omitted, Abs format (unit mm)*
G04 Created by KiCad (PCBNEW 9.0.4) date 2026-01-27 19:08:46*
%MOMM*%
%LPD*%
G01*
G04 APERTURE LIST*
%ADD10C,0.300000*%
%ADD11C,0.150000*%
%ADD12C,0.120000*%
G04 APERTURE END LIST*
D10*
X172011653Y-79643055D02*
X171940225Y-79714484D01*
X171940225Y-79714484D02*
X171725939Y-79785912D01*
X171725939Y-79785912D02*
X171583082Y-79785912D01*
X171583082Y-79785912D02*
X171368796Y-79714484D01*
X171368796Y-79714484D02*
X171225939Y-79571626D01*
X171225939Y-79571626D02*
X171154510Y-79428769D01*
X171154510Y-79428769D02*
X171083082Y-79143055D01*
X171083082Y-79143055D02*
X171083082Y-78928769D01*
X171083082Y-78928769D02*
X171154510Y-78643055D01*
X171154510Y-78643055D02*
X171225939Y-78500198D01*
X171225939Y-78500198D02*
X171368796Y-78357341D01*
X171368796Y-78357341D02*
X171583082Y-78285912D01*
X171583082Y-78285912D02*
X171725939Y-78285912D01*
X171725939Y-78285912D02*
X171940225Y-78357341D01*
X171940225Y-78357341D02*
X172011653Y-78428769D01*
X172654510Y-79785912D02*
X172654510Y-78285912D01*
X172654510Y-78285912D02*
X173225939Y-78285912D01*
X173225939Y-78285912D02*
X173368796Y-78357341D01*
X173368796Y-78357341D02*
X173440225Y-78428769D01*
X173440225Y-78428769D02*
X173511653Y-78571626D01*
X173511653Y-78571626D02*
X173511653Y-78785912D01*
X173511653Y-78785912D02*
X173440225Y-78928769D01*
X173440225Y-78928769D02*
X173368796Y-79000198D01*
X173368796Y-79000198D02*
X173225939Y-79071626D01*
X173225939Y-79071626D02*
X172654510Y-79071626D01*
X174868796Y-79785912D02*
X174154510Y-79785912D01*
X174154510Y-79785912D02*
X174154510Y-78285912D01*
X175368796Y-79785912D02*
X175368796Y-78285912D01*
X175368796Y-78285912D02*
X175725939Y-78285912D01*
X175725939Y-78285912D02*
X175940225Y-78357341D01*
X175940225Y-78357341D02*
X176083082Y-78500198D01*
X176083082Y-78500198D02*
X176154511Y-78643055D01*
X176154511Y-78643055D02*
X176225939Y-78928769D01*
X176225939Y-78928769D02*
X176225939Y-79143055D01*
X176225939Y-79143055D02*
X176154511Y-79428769D01*
X176154511Y-79428769D02*
X176083082Y-79571626D01*
X176083082Y-79571626D02*
X175940225Y-79714484D01*
X175940225Y-79714484D02*
X175725939Y-79785912D01*
X175725939Y-79785912D02*
X175368796Y-79785912D01*
X179225939Y-79785912D02*
X179154511Y-79785912D01*
X179154511Y-79785912D02*
X179011653Y-79714484D01*
X179011653Y-79714484D02*
X178797368Y-79500198D01*
X178797368Y-79500198D02*
X178440225Y-79071626D01*
X178440225Y-79071626D02*
X178297368Y-78857341D01*
X178297368Y-78857341D02*
X178225939Y-78643055D01*
X178225939Y-78643055D02*
X178225939Y-78500198D01*
X178225939Y-78500198D02*
X178297368Y-78357341D01*
X178297368Y-78357341D02*
X178440225Y-78285912D01*
X178440225Y-78285912D02*
X178511653Y-78285912D01*
X178511653Y-78285912D02*
X178654511Y-78357341D01*
X178654511Y-78357341D02*
X178725939Y-78500198D01*
X178725939Y-78500198D02*
X178725939Y-78571626D01*
X178725939Y-78571626D02*
X178654511Y-78714484D01*
X178654511Y-78714484D02*
X178583082Y-78785912D01*
X178583082Y-78785912D02*
X178154511Y-79071626D01*
X178154511Y-79071626D02*
X178083082Y-79143055D01*
X178083082Y-79143055D02*
X178011653Y-79285912D01*
X178011653Y-79285912D02*
X178011653Y-79500198D01*
X178011653Y-79500198D02*
X178083082Y-79643055D01*
X178083082Y-79643055D02*
X178154511Y-79714484D01*
X178154511Y-79714484D02*
X178297368Y-79785912D01*
X178297368Y-79785912D02*
X178511653Y-79785912D01*
X178511653Y-79785912D02*
X178654511Y-79714484D01*
X178654511Y-79714484D02*
X178725939Y-79643055D01*
X178725939Y-79643055D02*
X178940225Y-79357341D01*
X178940225Y-79357341D02*
X179011653Y-79143055D01*
X179011653Y-79143055D02*
X179011653Y-79000198D01*
X180940225Y-79714484D02*
X181154511Y-79785912D01*
X181154511Y-79785912D02*
X181511653Y-79785912D01*
X181511653Y-79785912D02*
X181654511Y-79714484D01*
X181654511Y-79714484D02*
X181725939Y-79643055D01*
X181725939Y-79643055D02*
X181797368Y-79500198D01*
X181797368Y-79500198D02*
X181797368Y-79357341D01*
X181797368Y-79357341D02*
X181725939Y-79214484D01*
X181725939Y-79214484D02*
X181654511Y-79143055D01*
X181654511Y-79143055D02*
X181511653Y-79071626D01*
X181511653Y-79071626D02*
X181225939Y-79000198D01*
X181225939Y-79000198D02*
X181083082Y-78928769D01*
X181083082Y-78928769D02*
X181011653Y-78857341D01*
X181011653Y-78857341D02*
X180940225Y-78714484D01*
X180940225Y-78714484D02*
X180940225Y-78571626D01*
X180940225Y-78571626D02*
X181011653Y-78428769D01*
X181011653Y-78428769D02*
X181083082Y-78357341D01*
X181083082Y-78357341D02*
X181225939Y-78285912D01*
X181225939Y-78285912D02*
X181583082Y-78285912D01*
X181583082Y-78285912D02*
X181797368Y-78357341D01*
X182225939Y-78285912D02*
X183083082Y-78285912D01*
X182654510Y-79785912D02*
X182654510Y-78285912D01*
X183583081Y-79785912D02*
X183583081Y-78285912D01*
X183583081Y-78285912D02*
X184083081Y-79357341D01*
X184083081Y-79357341D02*
X184583081Y-78285912D01*
X184583081Y-78285912D02*
X184583081Y-79785912D01*
X185154510Y-78285912D02*
X186083082Y-78285912D01*
X186083082Y-78285912D02*
X185583082Y-78857341D01*
X185583082Y-78857341D02*
X185797367Y-78857341D01*
X185797367Y-78857341D02*
X185940225Y-78928769D01*
X185940225Y-78928769D02*
X186011653Y-79000198D01*
X186011653Y-79000198D02*
X186083082Y-79143055D01*
X186083082Y-79143055D02*
X186083082Y-79500198D01*
X186083082Y-79500198D02*
X186011653Y-79643055D01*
X186011653Y-79643055D02*
X185940225Y-79714484D01*
X185940225Y-79714484D02*
X185797367Y-79785912D01*
X185797367Y-79785912D02*
X185368796Y-79785912D01*
X185368796Y-79785912D02*
X185225939Y-79714484D01*
X185225939Y-79714484D02*
X185154510Y-79643055D01*
X186654510Y-78428769D02*
X186725938Y-78357341D01*
X186725938Y-78357341D02*
X186868796Y-78285912D01*
X186868796Y-78285912D02*
X187225938Y-78285912D01*
X187225938Y-78285912D02*
X187368796Y-78357341D01*
X187368796Y-78357341D02*
X187440224Y-78428769D01*
X187440224Y-78428769D02*
X187511653Y-78571626D01*
X187511653Y-78571626D02*
X187511653Y-78714484D01*
X187511653Y-78714484D02*
X187440224Y-78928769D01*
X187440224Y-78928769D02*
X186583081Y-79785912D01*
X186583081Y-79785912D02*
X187511653Y-79785912D01*
X188654509Y-79000198D02*
X188154509Y-79000198D01*
X188154509Y-79785912D02*
X188154509Y-78285912D01*
X188154509Y-78285912D02*
X188868795Y-78285912D01*
X189725938Y-78285912D02*
X189868795Y-78285912D01*
X189868795Y-78285912D02*
X190011652Y-78357341D01*
X190011652Y-78357341D02*
X190083081Y-78428769D01*
X190083081Y-78428769D02*
X190154509Y-78571626D01*
X190154509Y-78571626D02*
X190225938Y-78857341D01*
X190225938Y-78857341D02*
X190225938Y-79214484D01*
X190225938Y-79214484D02*
X190154509Y-79500198D01*
X190154509Y-79500198D02*
X190083081Y-79643055D01*
X190083081Y-79643055D02*
X190011652Y-79714484D01*
X190011652Y-79714484D02*
X189868795Y-79785912D01*
X189868795Y-79785912D02*
X189725938Y-79785912D01*
X189725938Y-79785912D02*
X189583081Y-79714484D01*
X189583081Y-79714484D02*
X189511652Y-79643055D01*
X189511652Y-79643055D02*
X189440223Y-79500198D01*
X189440223Y-79500198D02*
X189368795Y-79214484D01*
X189368795Y-79214484D02*
X189368795Y-78857341D01*
X189368795Y-78857341D02*
X189440223Y-78571626D01*
X189440223Y-78571626D02*
X189511652Y-78428769D01*
X189511652Y-78428769D02*
X189583081Y-78357341D01*
X189583081Y-78357341D02*
X189725938Y-78285912D01*
X190725937Y-78285912D02*
X191654509Y-78285912D01*
X191654509Y-78285912D02*
X191154509Y-78857341D01*
X191154509Y-78857341D02*
X191368794Y-78857341D01*
X191368794Y-78857341D02*
X191511652Y-78928769D01*
X191511652Y-78928769D02*
X191583080Y-79000198D01*
X191583080Y-79000198D02*
X191654509Y-79143055D01*
X191654509Y-79143055D02*
X191654509Y-79500198D01*
X191654509Y-79500198D02*
X191583080Y-79643055D01*
X191583080Y-79643055D02*
X191511652Y-79714484D01*
X191511652Y-79714484D02*
X191368794Y-79785912D01*
X191368794Y-79785912D02*
X190940223Y-79785912D01*
X190940223Y-79785912D02*
X190797366Y-79714484D01*
X190797366Y-79714484D02*
X190725937Y-79643055D01*
X192583080Y-78285912D02*
X192725937Y-78285912D01*
X192725937Y-78285912D02*
X192868794Y-78357341D01*
X192868794Y-78357341D02*
X192940223Y-78428769D01*
X192940223Y-78428769D02*
X193011651Y-78571626D01*
X193011651Y-78571626D02*
X193083080Y-78857341D01*
X193083080Y-78857341D02*
X193083080Y-79214484D01*
X193083080Y-79214484D02*
X193011651Y-79500198D01*
X193011651Y-79500198D02*
X192940223Y-79643055D01*
X192940223Y-79643055D02*
X192868794Y-79714484D01*
X192868794Y-79714484D02*
X192725937Y-79785912D01*
X192725937Y-79785912D02*
X192583080Y-79785912D01*
X192583080Y-79785912D02*
X192440223Y-79714484D01*
X192440223Y-79714484D02*
X192368794Y-79643055D01*
X192368794Y-79643055D02*
X192297365Y-79500198D01*
X192297365Y-79500198D02*
X192225937Y-79214484D01*
X192225937Y-79214484D02*
X192225937Y-78857341D01*
X192225937Y-78857341D02*
X192297365Y-78571626D01*
X192297365Y-78571626D02*
X192368794Y-78428769D01*
X192368794Y-78428769D02*
X192440223Y-78357341D01*
X192440223Y-78357341D02*
X192583080Y-78285912D01*
X193725936Y-79785912D02*
X193725936Y-78285912D01*
X194583079Y-79785912D02*
X193940222Y-78928769D01*
X194583079Y-78285912D02*
X193725936Y-79143055D01*
X196154508Y-78285912D02*
X197011651Y-78285912D01*
X196583079Y-79785912D02*
X196583079Y-78285912D01*
X198083079Y-79714484D02*
X197940222Y-79785912D01*
X197940222Y-79785912D02*
X197654508Y-79785912D01*
X197654508Y-79785912D02*
X197511650Y-79714484D01*
X197511650Y-79714484D02*
X197440222Y-79571626D01*
X197440222Y-79571626D02*
X197440222Y-79000198D01*
X197440222Y-79000198D02*
X197511650Y-78857341D01*
X197511650Y-78857341D02*
X197654508Y-78785912D01*
X197654508Y-78785912D02*
X197940222Y-78785912D01*
X197940222Y-78785912D02*
X198083079Y-78857341D01*
X198083079Y-78857341D02*
X198154508Y-79000198D01*
X198154508Y-79000198D02*
X198154508Y-79143055D01*
X198154508Y-79143055D02*
X197440222Y-79285912D01*
X198725936Y-79714484D02*
X198868793Y-79785912D01*
X198868793Y-79785912D02*
X199154507Y-79785912D01*
X199154507Y-79785912D02*
X199297364Y-79714484D01*
X199297364Y-79714484D02*
X199368793Y-79571626D01*
X199368793Y-79571626D02*
X199368793Y-79500198D01*
X199368793Y-79500198D02*
X199297364Y-79357341D01*
X199297364Y-79357341D02*
X199154507Y-79285912D01*
X199154507Y-79285912D02*
X198940222Y-79285912D01*
X198940222Y-79285912D02*
X198797364Y-79214484D01*
X198797364Y-79214484D02*
X198725936Y-79071626D01*
X198725936Y-79071626D02*
X198725936Y-79000198D01*
X198725936Y-79000198D02*
X198797364Y-78857341D01*
X198797364Y-78857341D02*
X198940222Y-78785912D01*
X198940222Y-78785912D02*
X199154507Y-78785912D01*
X199154507Y-78785912D02*
X199297364Y-78857341D01*
X199797365Y-78785912D02*
X200368793Y-78785912D01*
X200011650Y-78285912D02*
X200011650Y-79571626D01*
X200011650Y-79571626D02*
X200083079Y-79714484D01*
X200083079Y-79714484D02*
X200225936Y-79785912D01*
X200225936Y-79785912D02*
X200368793Y-79785912D01*
X202511650Y-79000198D02*
X202725936Y-79071626D01*
X202725936Y-79071626D02*
X202797365Y-79143055D01*
X202797365Y-79143055D02*
X202868793Y-79285912D01*
X202868793Y-79285912D02*
X202868793Y-79500198D01*
X202868793Y-79500198D02*
X202797365Y-79643055D01*
X202797365Y-79643055D02*
X202725936Y-79714484D01*
X202725936Y-79714484D02*
X202583079Y-79785912D01*
X202583079Y-79785912D02*
X202011650Y-79785912D01*
X202011650Y-79785912D02*
X202011650Y-78285912D01*
X202011650Y-78285912D02*
X202511650Y-78285912D01*
X202511650Y-78285912D02*
X202654508Y-78357341D01*
X202654508Y-78357341D02*
X202725936Y-78428769D01*
X202725936Y-78428769D02*
X202797365Y-78571626D01*
X202797365Y-78571626D02*
X202797365Y-78714484D01*
X202797365Y-78714484D02*
X202725936Y-78857341D01*
X202725936Y-78857341D02*
X202654508Y-78928769D01*
X202654508Y-78928769D02*
X202511650Y-79000198D01*
X202511650Y-79000198D02*
X202011650Y-79000198D01*
X203725936Y-79785912D02*
X203583079Y-79714484D01*
X203583079Y-79714484D02*
X203511650Y-79643055D01*
X203511650Y-79643055D02*
X203440222Y-79500198D01*
X203440222Y-79500198D02*
X203440222Y-79071626D01*
X203440222Y-79071626D02*
X203511650Y-78928769D01*
X203511650Y-78928769D02*
X203583079Y-78857341D01*
X203583079Y-78857341D02*
X203725936Y-78785912D01*
X203725936Y-78785912D02*
X203940222Y-78785912D01*
X203940222Y-78785912D02*
X204083079Y-78857341D01*
X204083079Y-78857341D02*
X204154508Y-78928769D01*
X204154508Y-78928769D02*
X204225936Y-79071626D01*
X204225936Y-79071626D02*
X204225936Y-79500198D01*
X204225936Y-79500198D02*
X204154508Y-79643055D01*
X204154508Y-79643055D02*
X204083079Y-79714484D01*
X204083079Y-79714484D02*
X203940222Y-79785912D01*
X203940222Y-79785912D02*
X203725936Y-79785912D01*
X205511651Y-79785912D02*
X205511651Y-79000198D01*
X205511651Y-79000198D02*
X205440222Y-78857341D01*
X205440222Y-78857341D02*
X205297365Y-78785912D01*
X205297365Y-78785912D02*
X205011651Y-78785912D01*
X205011651Y-78785912D02*
X204868793Y-78857341D01*
X205511651Y-79714484D02*
X205368793Y-79785912D01*
X205368793Y-79785912D02*
X205011651Y-79785912D01*
X205011651Y-79785912D02*
X204868793Y-79714484D01*
X204868793Y-79714484D02*
X204797365Y-79571626D01*
X204797365Y-79571626D02*
X204797365Y-79428769D01*
X204797365Y-79428769D02*
X204868793Y-79285912D01*
X204868793Y-79285912D02*
X205011651Y-79214484D01*
X205011651Y-79214484D02*
X205368793Y-79214484D01*
X205368793Y-79214484D02*
X205511651Y-79143055D01*
X206225936Y-79785912D02*
X206225936Y-78785912D01*
X206225936Y-79071626D02*
X206297365Y-78928769D01*
X206297365Y-78928769D02*
X206368794Y-78857341D01*
X206368794Y-78857341D02*
X206511651Y-78785912D01*
X206511651Y-78785912D02*
X206654508Y-78785912D01*
X207797365Y-79785912D02*
X207797365Y-78285912D01*
X207797365Y-79714484D02*
X207654507Y-79785912D01*
X207654507Y-79785912D02*
X207368793Y-79785912D01*
X207368793Y-79785912D02*
X207225936Y-79714484D01*
X207225936Y-79714484D02*
X207154507Y-79643055D01*
X207154507Y-79643055D02*
X207083079Y-79500198D01*
X207083079Y-79500198D02*
X207083079Y-79071626D01*
X207083079Y-79071626D02*
X207154507Y-78928769D01*
X207154507Y-78928769D02*
X207225936Y-78857341D01*
X207225936Y-78857341D02*
X207368793Y-78785912D01*
X207368793Y-78785912D02*
X207654507Y-78785912D01*
X207654507Y-78785912D02*
X207797365Y-78857341D01*
X171154510Y-82200828D02*
X171154510Y-81200828D01*
X171154510Y-81343685D02*
X171225939Y-81272257D01*
X171225939Y-81272257D02*
X171368796Y-81200828D01*
X171368796Y-81200828D02*
X171583082Y-81200828D01*
X171583082Y-81200828D02*
X171725939Y-81272257D01*
X171725939Y-81272257D02*
X171797368Y-81415114D01*
X171797368Y-81415114D02*
X171797368Y-82200828D01*
X171797368Y-81415114D02*
X171868796Y-81272257D01*
X171868796Y-81272257D02*
X172011653Y-81200828D01*
X172011653Y-81200828D02*
X172225939Y-81200828D01*
X172225939Y-81200828D02*
X172368796Y-81272257D01*
X172368796Y-81272257D02*
X172440225Y-81415114D01*
X172440225Y-81415114D02*
X172440225Y-82200828D01*
X173797368Y-82200828D02*
X173797368Y-81415114D01*
X173797368Y-81415114D02*
X173725939Y-81272257D01*
X173725939Y-81272257D02*
X173583082Y-81200828D01*
X173583082Y-81200828D02*
X173297368Y-81200828D01*
X173297368Y-81200828D02*
X173154510Y-81272257D01*
X173797368Y-82129400D02*
X173654510Y-82200828D01*
X173654510Y-82200828D02*
X173297368Y-82200828D01*
X173297368Y-82200828D02*
X173154510Y-82129400D01*
X173154510Y-82129400D02*
X173083082Y-81986542D01*
X173083082Y-81986542D02*
X173083082Y-81843685D01*
X173083082Y-81843685D02*
X173154510Y-81700828D01*
X173154510Y-81700828D02*
X173297368Y-81629400D01*
X173297368Y-81629400D02*
X173654510Y-81629400D01*
X173654510Y-81629400D02*
X173797368Y-81557971D01*
X175154511Y-82200828D02*
X175154511Y-80700828D01*
X175154511Y-82129400D02*
X175011653Y-82200828D01*
X175011653Y-82200828D02*
X174725939Y-82200828D01*
X174725939Y-82200828D02*
X174583082Y-82129400D01*
X174583082Y-82129400D02*
X174511653Y-82057971D01*
X174511653Y-82057971D02*
X174440225Y-81915114D01*
X174440225Y-81915114D02*
X174440225Y-81486542D01*
X174440225Y-81486542D02*
X174511653Y-81343685D01*
X174511653Y-81343685D02*
X174583082Y-81272257D01*
X174583082Y-81272257D02*
X174725939Y-81200828D01*
X174725939Y-81200828D02*
X175011653Y-81200828D01*
X175011653Y-81200828D02*
X175154511Y-81272257D01*
X176440225Y-82129400D02*
X176297368Y-82200828D01*
X176297368Y-82200828D02*
X176011654Y-82200828D01*
X176011654Y-82200828D02*
X175868796Y-82129400D01*
X175868796Y-82129400D02*
X175797368Y-81986542D01*
X175797368Y-81986542D02*
X175797368Y-81415114D01*
X175797368Y-81415114D02*
X175868796Y-81272257D01*
X175868796Y-81272257D02*
X176011654Y-81200828D01*
X176011654Y-81200828D02*
X176297368Y-81200828D01*
X176297368Y-81200828D02*
X176440225Y-81272257D01*
X176440225Y-81272257D02*
X176511654Y-81415114D01*
X176511654Y-81415114D02*
X176511654Y-81557971D01*
X176511654Y-81557971D02*
X175797368Y-81700828D01*
X178297367Y-82200828D02*
X178297367Y-80700828D01*
X178297367Y-81272257D02*
X178440225Y-81200828D01*
X178440225Y-81200828D02*
X178725939Y-81200828D01*
X178725939Y-81200828D02*
X178868796Y-81272257D01*
X178868796Y-81272257D02*
X178940225Y-81343685D01*
X178940225Y-81343685D02*
X179011653Y-81486542D01*
X179011653Y-81486542D02*
X179011653Y-81915114D01*
X179011653Y-81915114D02*
X178940225Y-82057971D01*
X178940225Y-82057971D02*
X178868796Y-82129400D01*
X178868796Y-82129400D02*
X178725939Y-82200828D01*
X178725939Y-82200828D02*
X178440225Y-82200828D01*
X178440225Y-82200828D02*
X178297367Y-82129400D01*
X179511653Y-81200828D02*
X179868796Y-82200828D01*
X180225939Y-81200828D02*
X179868796Y-82200828D01*
X179868796Y-82200828D02*
X179725939Y-82557971D01*
X179725939Y-82557971D02*
X179654510Y-82629400D01*
X179654510Y-82629400D02*
X179511653Y-82700828D01*
X182725939Y-80772257D02*
X182583082Y-80700828D01*
X182583082Y-80700828D02*
X182368796Y-80700828D01*
X182368796Y-80700828D02*
X182154510Y-80772257D01*
X182154510Y-80772257D02*
X182011653Y-80915114D01*
X182011653Y-80915114D02*
X181940224Y-81057971D01*
X181940224Y-81057971D02*
X181868796Y-81343685D01*
X181868796Y-81343685D02*
X181868796Y-81557971D01*
X181868796Y-81557971D02*
X181940224Y-81843685D01*
X181940224Y-81843685D02*
X182011653Y-81986542D01*
X182011653Y-81986542D02*
X182154510Y-82129400D01*
X182154510Y-82129400D02*
X182368796Y-82200828D01*
X182368796Y-82200828D02*
X182511653Y-82200828D01*
X182511653Y-82200828D02*
X182725939Y-82129400D01*
X182725939Y-82129400D02*
X182797367Y-82057971D01*
X182797367Y-82057971D02*
X182797367Y-81557971D01*
X182797367Y-81557971D02*
X182511653Y-81557971D01*
X183440224Y-82200828D02*
X183440224Y-80700828D01*
X183440224Y-81415114D02*
X184297367Y-81415114D01*
X184297367Y-82200828D02*
X184297367Y-80700828D01*
X186154510Y-82200828D02*
X186154510Y-80700828D01*
X186154510Y-80700828D02*
X186725939Y-80700828D01*
X186725939Y-80700828D02*
X186868796Y-80772257D01*
X186868796Y-80772257D02*
X186940225Y-80843685D01*
X186940225Y-80843685D02*
X187011653Y-80986542D01*
X187011653Y-80986542D02*
X187011653Y-81200828D01*
X187011653Y-81200828D02*
X186940225Y-81343685D01*
X186940225Y-81343685D02*
X186868796Y-81415114D01*
X186868796Y-81415114D02*
X186725939Y-81486542D01*
X186725939Y-81486542D02*
X186154510Y-81486542D01*
X188297368Y-82200828D02*
X188297368Y-81415114D01*
X188297368Y-81415114D02*
X188225939Y-81272257D01*
X188225939Y-81272257D02*
X188083082Y-81200828D01*
X188083082Y-81200828D02*
X187797368Y-81200828D01*
X187797368Y-81200828D02*
X187654510Y-81272257D01*
X188297368Y-82129400D02*
X188154510Y-82200828D01*
X188154510Y-82200828D02*
X187797368Y-82200828D01*
X187797368Y-82200828D02*
X187654510Y-82129400D01*
X187654510Y-82129400D02*
X187583082Y-81986542D01*
X187583082Y-81986542D02*
X187583082Y-81843685D01*
X187583082Y-81843685D02*
X187654510Y-81700828D01*
X187654510Y-81700828D02*
X187797368Y-81629400D01*
X187797368Y-81629400D02*
X188154510Y-81629400D01*
X188154510Y-81629400D02*
X188297368Y-81557971D01*
X189011653Y-82200828D02*
X189011653Y-81200828D01*
X189011653Y-81486542D02*
X189083082Y-81343685D01*
X189083082Y-81343685D02*
X189154511Y-81272257D01*
X189154511Y-81272257D02*
X189297368Y-81200828D01*
X189297368Y-81200828D02*
X189440225Y-81200828D01*
X189940224Y-82200828D02*
X189940224Y-80700828D01*
X190083082Y-81629400D02*
X190511653Y-82200828D01*
X190511653Y-81200828D02*
X189940224Y-81772257D01*
X193225939Y-81486542D02*
X193154510Y-81415114D01*
X193154510Y-81415114D02*
X193011653Y-81343685D01*
X193011653Y-81343685D02*
X192868796Y-81343685D01*
X192868796Y-81343685D02*
X192725939Y-81415114D01*
X192725939Y-81415114D02*
X192654510Y-81486542D01*
X192654510Y-81486542D02*
X192583082Y-81629400D01*
X192583082Y-81629400D02*
X192583082Y-81772257D01*
X192583082Y-81772257D02*
X192654510Y-81915114D01*
X192654510Y-81915114D02*
X192725939Y-81986542D01*
X192725939Y-81986542D02*
X192868796Y-82057971D01*
X192868796Y-82057971D02*
X193011653Y-82057971D01*
X193011653Y-82057971D02*
X193154510Y-81986542D01*
X193154510Y-81986542D02*
X193225939Y-81915114D01*
X193225939Y-81343685D02*
X193225939Y-81915114D01*
X193225939Y-81915114D02*
X193297367Y-81986542D01*
X193297367Y-81986542D02*
X193368796Y-81986542D01*
X193368796Y-81986542D02*
X193511653Y-81915114D01*
X193511653Y-81915114D02*
X193583082Y-81772257D01*
X193583082Y-81772257D02*
X193583082Y-81415114D01*
X193583082Y-81415114D02*
X193440225Y-81200828D01*
X193440225Y-81200828D02*
X193225939Y-81057971D01*
X193225939Y-81057971D02*
X192940225Y-80986542D01*
X192940225Y-80986542D02*
X192654510Y-81057971D01*
X192654510Y-81057971D02*
X192440225Y-81200828D01*
X192440225Y-81200828D02*
X192297367Y-81415114D01*
X192297367Y-81415114D02*
X192225939Y-81700828D01*
X192225939Y-81700828D02*
X192297367Y-81986542D01*
X192297367Y-81986542D02*
X192440225Y-82200828D01*
X192440225Y-82200828D02*
X192654510Y-82343685D01*
X192654510Y-82343685D02*
X192940225Y-82415114D01*
X192940225Y-82415114D02*
X193225939Y-82343685D01*
X193225939Y-82343685D02*
X193440225Y-82200828D01*
X195297367Y-80843685D02*
X195368795Y-80772257D01*
X195368795Y-80772257D02*
X195511653Y-80700828D01*
X195511653Y-80700828D02*
X195868795Y-80700828D01*
X195868795Y-80700828D02*
X196011653Y-80772257D01*
X196011653Y-80772257D02*
X196083081Y-80843685D01*
X196083081Y-80843685D02*
X196154510Y-80986542D01*
X196154510Y-80986542D02*
X196154510Y-81129400D01*
X196154510Y-81129400D02*
X196083081Y-81343685D01*
X196083081Y-81343685D02*
X195225938Y-82200828D01*
X195225938Y-82200828D02*
X196154510Y-82200828D01*
X197083081Y-80700828D02*
X197225938Y-80700828D01*
X197225938Y-80700828D02*
X197368795Y-80772257D01*
X197368795Y-80772257D02*
X197440224Y-80843685D01*
X197440224Y-80843685D02*
X197511652Y-80986542D01*
X197511652Y-80986542D02*
X197583081Y-81272257D01*
X197583081Y-81272257D02*
X197583081Y-81629400D01*
X197583081Y-81629400D02*
X197511652Y-81915114D01*
X197511652Y-81915114D02*
X197440224Y-82057971D01*
X197440224Y-82057971D02*
X197368795Y-82129400D01*
X197368795Y-82129400D02*
X197225938Y-82200828D01*
X197225938Y-82200828D02*
X197083081Y-82200828D01*
X197083081Y-82200828D02*
X196940224Y-82129400D01*
X196940224Y-82129400D02*
X196868795Y-82057971D01*
X196868795Y-82057971D02*
X196797366Y-81915114D01*
X196797366Y-81915114D02*
X196725938Y-81629400D01*
X196725938Y-81629400D02*
X196725938Y-81272257D01*
X196725938Y-81272257D02*
X196797366Y-80986542D01*
X196797366Y-80986542D02*
X196868795Y-80843685D01*
X196868795Y-80843685D02*
X196940224Y-80772257D01*
X196940224Y-80772257D02*
X197083081Y-80700828D01*
X198154509Y-80843685D02*
X198225937Y-80772257D01*
X198225937Y-80772257D02*
X198368795Y-80700828D01*
X198368795Y-80700828D02*
X198725937Y-80700828D01*
X198725937Y-80700828D02*
X198868795Y-80772257D01*
X198868795Y-80772257D02*
X198940223Y-80843685D01*
X198940223Y-80843685D02*
X199011652Y-80986542D01*
X199011652Y-80986542D02*
X199011652Y-81129400D01*
X199011652Y-81129400D02*
X198940223Y-81343685D01*
X198940223Y-81343685D02*
X198083080Y-82200828D01*
X198083080Y-82200828D02*
X199011652Y-82200828D01*
X200297366Y-80700828D02*
X200011651Y-80700828D01*
X200011651Y-80700828D02*
X199868794Y-80772257D01*
X199868794Y-80772257D02*
X199797366Y-80843685D01*
X199797366Y-80843685D02*
X199654508Y-81057971D01*
X199654508Y-81057971D02*
X199583080Y-81343685D01*
X199583080Y-81343685D02*
X199583080Y-81915114D01*
X199583080Y-81915114D02*
X199654508Y-82057971D01*
X199654508Y-82057971D02*
X199725937Y-82129400D01*
X199725937Y-82129400D02*
X199868794Y-82200828D01*
X199868794Y-82200828D02*
X200154508Y-82200828D01*
X200154508Y-82200828D02*
X200297366Y-82129400D01*
X200297366Y-82129400D02*
X200368794Y-82057971D01*
X200368794Y-82057971D02*
X200440223Y-81915114D01*
X200440223Y-81915114D02*
X200440223Y-81557971D01*
X200440223Y-81557971D02*
X200368794Y-81415114D01*
X200368794Y-81415114D02*
X200297366Y-81343685D01*
X200297366Y-81343685D02*
X200154508Y-81272257D01*
X200154508Y-81272257D02*
X199868794Y-81272257D01*
X199868794Y-81272257D02*
X199725937Y-81343685D01*
X199725937Y-81343685D02*
X199654508Y-81415114D01*
X199654508Y-81415114D02*
X199583080Y-81557971D01*
X201083079Y-82057971D02*
X201154508Y-82129400D01*
X201154508Y-82129400D02*
X201083079Y-82200828D01*
X201083079Y-82200828D02*
X201011651Y-82129400D01*
X201011651Y-82129400D02*
X201083079Y-82057971D01*
X201083079Y-82057971D02*
X201083079Y-82200828D01*
X202083080Y-80700828D02*
X202225937Y-80700828D01*
X202225937Y-80700828D02*
X202368794Y-80772257D01*
X202368794Y-80772257D02*
X202440223Y-80843685D01*
X202440223Y-80843685D02*
X202511651Y-80986542D01*
X202511651Y-80986542D02*
X202583080Y-81272257D01*
X202583080Y-81272257D02*
X202583080Y-81629400D01*
X202583080Y-81629400D02*
X202511651Y-81915114D01*
X202511651Y-81915114D02*
X202440223Y-82057971D01*
X202440223Y-82057971D02*
X202368794Y-82129400D01*
X202368794Y-82129400D02*
X202225937Y-82200828D01*
X202225937Y-82200828D02*
X202083080Y-82200828D01*
X202083080Y-82200828D02*
X201940223Y-82129400D01*
X201940223Y-82129400D02*
X201868794Y-82057971D01*
X201868794Y-82057971D02*
X201797365Y-81915114D01*
X201797365Y-81915114D02*
X201725937Y-81629400D01*
X201725937Y-81629400D02*
X201725937Y-81272257D01*
X201725937Y-81272257D02*
X201797365Y-80986542D01*
X201797365Y-80986542D02*
X201868794Y-80843685D01*
X201868794Y-80843685D02*
X201940223Y-80772257D01*
X201940223Y-80772257D02*
X202083080Y-80700828D01*
X204011651Y-82200828D02*
X203154508Y-82200828D01*
X203583079Y-82200828D02*
X203583079Y-80700828D01*
X203583079Y-80700828D02*
X203440222Y-80915114D01*
X203440222Y-80915114D02*
X203297365Y-81057971D01*
X203297365Y-81057971D02*
X203154508Y-81129400D01*
X204654507Y-82057971D02*
X204725936Y-82129400D01*
X204725936Y-82129400D02*
X204654507Y-82200828D01*
X204654507Y-82200828D02*
X204583079Y-82129400D01*
X204583079Y-82129400D02*
X204654507Y-82057971D01*
X204654507Y-82057971D02*
X204654507Y-82200828D01*
X205297365Y-80843685D02*
X205368793Y-80772257D01*
X205368793Y-80772257D02*
X205511651Y-80700828D01*
X205511651Y-80700828D02*
X205868793Y-80700828D01*
X205868793Y-80700828D02*
X206011651Y-80772257D01*
X206011651Y-80772257D02*
X206083079Y-80843685D01*
X206083079Y-80843685D02*
X206154508Y-80986542D01*
X206154508Y-80986542D02*
X206154508Y-81129400D01*
X206154508Y-81129400D02*
X206083079Y-81343685D01*
X206083079Y-81343685D02*
X205225936Y-82200828D01*
X205225936Y-82200828D02*
X206154508Y-82200828D01*
X206654507Y-80700828D02*
X207654507Y-80700828D01*
X207654507Y-80700828D02*
X207011650Y-82200828D01*
X208225935Y-82057971D02*
X208297364Y-82129400D01*
X208297364Y-82129400D02*
X208225935Y-82200828D01*
X208225935Y-82200828D02*
X208154507Y-82129400D01*
X208154507Y-82129400D02*
X208225935Y-82057971D01*
X208225935Y-82057971D02*
X208225935Y-82200828D01*
D11*
X164838095Y-45654819D02*
X164838095Y-46464342D01*
X164838095Y-46464342D02*
X164885714Y-46559580D01*
X164885714Y-46559580D02*
X164933333Y-46607200D01*
X164933333Y-46607200D02*
X165028571Y-46654819D01*
X165028571Y-46654819D02*
X165219047Y-46654819D01*
X165219047Y-46654819D02*
X165314285Y-46607200D01*
X165314285Y-46607200D02*
X165361904Y-46559580D01*
X165361904Y-46559580D02*
X165409523Y-46464342D01*
X165409523Y-46464342D02*
X165409523Y-45654819D01*
X165790476Y-45654819D02*
X166409523Y-45654819D01*
X166409523Y-45654819D02*
X166076190Y-46035771D01*
X166076190Y-46035771D02*
X166219047Y-46035771D01*
X166219047Y-46035771D02*
X166314285Y-46083390D01*
X166314285Y-46083390D02*
X166361904Y-46131009D01*
X166361904Y-46131009D02*
X166409523Y-46226247D01*
X166409523Y-46226247D02*
X166409523Y-46464342D01*
X166409523Y-46464342D02*
X166361904Y-46559580D01*
X166361904Y-46559580D02*
X166314285Y-46607200D01*
X166314285Y-46607200D02*
X166219047Y-46654819D01*
X166219047Y-46654819D02*
X165933333Y-46654819D01*
X165933333Y-46654819D02*
X165838095Y-46607200D01*
X165838095Y-46607200D02*
X165790476Y-46559580D01*
X154866666Y-107054819D02*
X154866666Y-107769104D01*
X154866666Y-107769104D02*
X154819047Y-107911961D01*
X154819047Y-107911961D02*
X154723809Y-108007200D01*
X154723809Y-108007200D02*
X154580952Y-108054819D01*
X154580952Y-108054819D02*
X154485714Y-108054819D01*
X155771428Y-107054819D02*
X155580952Y-107054819D01*
X155580952Y-107054819D02*
X155485714Y-107102438D01*
X155485714Y-107102438D02*
X155438095Y-107150057D01*
X155438095Y-107150057D02*
X155342857Y-107292914D01*
X155342857Y-107292914D02*
X155295238Y-107483390D01*
X155295238Y-107483390D02*
X155295238Y-107864342D01*
X155295238Y-107864342D02*
X155342857Y-107959580D01*
X155342857Y-107959580D02*
X155390476Y-108007200D01*
X155390476Y-108007200D02*
X155485714Y-108054819D01*
X155485714Y-108054819D02*
X155676190Y-108054819D01*
X155676190Y-108054819D02*
X155771428Y-108007200D01*
X155771428Y-108007200D02*
X155819047Y-107959580D01*
X155819047Y-107959580D02*
X155866666Y-107864342D01*
X155866666Y-107864342D02*
X155866666Y-107626247D01*
X155866666Y-107626247D02*
X155819047Y-107531009D01*
X155819047Y-107531009D02*
X155771428Y-107483390D01*
X155771428Y-107483390D02*
X155676190Y-107435771D01*
X155676190Y-107435771D02*
X155485714Y-107435771D01*
X155485714Y-107435771D02*
X155390476Y-107483390D01*
X155390476Y-107483390D02*
X155342857Y-107531009D01*
X155342857Y-107531009D02*
X155295238Y-107626247D01*
X131833333Y-42709580D02*
X131785714Y-42757200D01*
X131785714Y-42757200D02*
X131642857Y-42804819D01*
X131642857Y-42804819D02*
X131547619Y-42804819D01*
X131547619Y-42804819D02*
X131404762Y-42757200D01*
X131404762Y-42757200D02*
X131309524Y-42661961D01*
X131309524Y-42661961D02*
X131261905Y-42566723D01*
X131261905Y-42566723D02*
X131214286Y-42376247D01*
X131214286Y-42376247D02*
X131214286Y-42233390D01*
X131214286Y-42233390D02*
X131261905Y-42042914D01*
X131261905Y-42042914D02*
X131309524Y-41947676D01*
X131309524Y-41947676D02*
X131404762Y-41852438D01*
X131404762Y-41852438D02*
X131547619Y-41804819D01*
X131547619Y-41804819D02*
X131642857Y-41804819D01*
X131642857Y-41804819D02*
X131785714Y-41852438D01*
X131785714Y-41852438D02*
X131833333Y-41900057D01*
X132214286Y-41900057D02*
X132261905Y-41852438D01*
X132261905Y-41852438D02*
X132357143Y-41804819D01*
X132357143Y-41804819D02*
X132595238Y-41804819D01*
X132595238Y-41804819D02*
X132690476Y-41852438D01*
X132690476Y-41852438D02*
X132738095Y-41900057D01*
X132738095Y-41900057D02*
X132785714Y-41995295D01*
X132785714Y-41995295D02*
X132785714Y-42090533D01*
X132785714Y-42090533D02*
X132738095Y-42233390D01*
X132738095Y-42233390D02*
X132166667Y-42804819D01*
X132166667Y-42804819D02*
X132785714Y-42804819D01*
X150633333Y-46359580D02*
X150585714Y-46407200D01*
X150585714Y-46407200D02*
X150442857Y-46454819D01*
X150442857Y-46454819D02*
X150347619Y-46454819D01*
X150347619Y-46454819D02*
X150204762Y-46407200D01*
X150204762Y-46407200D02*
X150109524Y-46311961D01*
X150109524Y-46311961D02*
X150061905Y-46216723D01*
X150061905Y-46216723D02*
X150014286Y-46026247D01*
X150014286Y-46026247D02*
X150014286Y-45883390D01*
X150014286Y-45883390D02*
X150061905Y-45692914D01*
X150061905Y-45692914D02*
X150109524Y-45597676D01*
X150109524Y-45597676D02*
X150204762Y-45502438D01*
X150204762Y-45502438D02*
X150347619Y-45454819D01*
X150347619Y-45454819D02*
X150442857Y-45454819D01*
X150442857Y-45454819D02*
X150585714Y-45502438D01*
X150585714Y-45502438D02*
X150633333Y-45550057D01*
X151585714Y-46454819D02*
X151014286Y-46454819D01*
X151300000Y-46454819D02*
X151300000Y-45454819D01*
X151300000Y-45454819D02*
X151204762Y-45597676D01*
X151204762Y-45597676D02*
X151109524Y-45692914D01*
X151109524Y-45692914D02*
X151014286Y-45740533D01*
X157430833Y-61054819D02*
X157097500Y-60578628D01*
X156859405Y-61054819D02*
X156859405Y-60054819D01*
X156859405Y-60054819D02*
X157240357Y-60054819D01*
X157240357Y-60054819D02*
X157335595Y-60102438D01*
X157335595Y-60102438D02*
X157383214Y-60150057D01*
X157383214Y-60150057D02*
X157430833Y-60245295D01*
X157430833Y-60245295D02*
X157430833Y-60388152D01*
X157430833Y-60388152D02*
X157383214Y-60483390D01*
X157383214Y-60483390D02*
X157335595Y-60531009D01*
X157335595Y-60531009D02*
X157240357Y-60578628D01*
X157240357Y-60578628D02*
X156859405Y-60578628D01*
X157907024Y-61054819D02*
X158097500Y-61054819D01*
X158097500Y-61054819D02*
X158192738Y-61007200D01*
X158192738Y-61007200D02*
X158240357Y-60959580D01*
X158240357Y-60959580D02*
X158335595Y-60816723D01*
X158335595Y-60816723D02*
X158383214Y-60626247D01*
X158383214Y-60626247D02*
X158383214Y-60245295D01*
X158383214Y-60245295D02*
X158335595Y-60150057D01*
X158335595Y-60150057D02*
X158287976Y-60102438D01*
X158287976Y-60102438D02*
X158192738Y-60054819D01*
X158192738Y-60054819D02*
X158002262Y-60054819D01*
X158002262Y-60054819D02*
X157907024Y-60102438D01*
X157907024Y-60102438D02*
X157859405Y-60150057D01*
X157859405Y-60150057D02*
X157811786Y-60245295D01*
X157811786Y-60245295D02*
X157811786Y-60483390D01*
X157811786Y-60483390D02*
X157859405Y-60578628D01*
X157859405Y-60578628D02*
X157907024Y-60626247D01*
X157907024Y-60626247D02*
X158002262Y-60673866D01*
X158002262Y-60673866D02*
X158192738Y-60673866D01*
X158192738Y-60673866D02*
X158287976Y-60626247D01*
X158287976Y-60626247D02*
X158335595Y-60578628D01*
X158335595Y-60578628D02*
X158383214Y-60483390D01*
X130433333Y-61454819D02*
X130100000Y-60978628D01*
X129861905Y-61454819D02*
X129861905Y-60454819D01*
X129861905Y-60454819D02*
X130242857Y-60454819D01*
X130242857Y-60454819D02*
X130338095Y-60502438D01*
X130338095Y-60502438D02*
X130385714Y-60550057D01*
X130385714Y-60550057D02*
X130433333Y-60645295D01*
X130433333Y-60645295D02*
X130433333Y-60788152D01*
X130433333Y-60788152D02*
X130385714Y-60883390D01*
X130385714Y-60883390D02*
X130338095Y-60931009D01*
X130338095Y-60931009D02*
X130242857Y-60978628D01*
X130242857Y-60978628D02*
X129861905Y-60978628D01*
X131004762Y-60883390D02*
X130909524Y-60835771D01*
X130909524Y-60835771D02*
X130861905Y-60788152D01*
X130861905Y-60788152D02*
X130814286Y-60692914D01*
X130814286Y-60692914D02*
X130814286Y-60645295D01*
X130814286Y-60645295D02*
X130861905Y-60550057D01*
X130861905Y-60550057D02*
X130909524Y-60502438D01*
X130909524Y-60502438D02*
X131004762Y-60454819D01*
X131004762Y-60454819D02*
X131195238Y-60454819D01*
X131195238Y-60454819D02*
X131290476Y-60502438D01*
X131290476Y-60502438D02*
X131338095Y-60550057D01*
X131338095Y-60550057D02*
X131385714Y-60645295D01*
X131385714Y-60645295D02*
X131385714Y-60692914D01*
X131385714Y-60692914D02*
X131338095Y-60788152D01*
X131338095Y-60788152D02*
X131290476Y-60835771D01*
X131290476Y-60835771D02*
X131195238Y-60883390D01*
X131195238Y-60883390D02*
X131004762Y-60883390D01*
X131004762Y-60883390D02*
X130909524Y-60931009D01*
X130909524Y-60931009D02*
X130861905Y-60978628D01*
X130861905Y-60978628D02*
X130814286Y-61073866D01*
X130814286Y-61073866D02*
X130814286Y-61264342D01*
X130814286Y-61264342D02*
X130861905Y-61359580D01*
X130861905Y-61359580D02*
X130909524Y-61407200D01*
X130909524Y-61407200D02*
X131004762Y-61454819D01*
X131004762Y-61454819D02*
X131195238Y-61454819D01*
X131195238Y-61454819D02*
X131290476Y-61407200D01*
X131290476Y-61407200D02*
X131338095Y-61359580D01*
X131338095Y-61359580D02*
X131385714Y-61264342D01*
X131385714Y-61264342D02*
X131385714Y-61073866D01*
X131385714Y-61073866D02*
X131338095Y-60978628D01*
X131338095Y-60978628D02*
X131290476Y-60931009D01*
X131290476Y-60931009D02*
X131195238Y-60883390D01*
X127633333Y-54954819D02*
X127300000Y-54478628D01*
X127061905Y-54954819D02*
X127061905Y-53954819D01*
X127061905Y-53954819D02*
X127442857Y-53954819D01*
X127442857Y-53954819D02*
X127538095Y-54002438D01*
X127538095Y-54002438D02*
X127585714Y-54050057D01*
X127585714Y-54050057D02*
X127633333Y-54145295D01*
X127633333Y-54145295D02*
X127633333Y-54288152D01*
X127633333Y-54288152D02*
X127585714Y-54383390D01*
X127585714Y-54383390D02*
X127538095Y-54431009D01*
X127538095Y-54431009D02*
X127442857Y-54478628D01*
X127442857Y-54478628D02*
X127061905Y-54478628D01*
X128538095Y-53954819D02*
X128061905Y-53954819D01*
X128061905Y-53954819D02*
X128014286Y-54431009D01*
X128014286Y-54431009D02*
X128061905Y-54383390D01*
X128061905Y-54383390D02*
X128157143Y-54335771D01*
X128157143Y-54335771D02*
X128395238Y-54335771D01*
X128395238Y-54335771D02*
X128490476Y-54383390D01*
X128490476Y-54383390D02*
X128538095Y-54431009D01*
X128538095Y-54431009D02*
X128585714Y-54526247D01*
X128585714Y-54526247D02*
X128585714Y-54764342D01*
X128585714Y-54764342D02*
X128538095Y-54859580D01*
X128538095Y-54859580D02*
X128490476Y-54907200D01*
X128490476Y-54907200D02*
X128395238Y-54954819D01*
X128395238Y-54954819D02*
X128157143Y-54954819D01*
X128157143Y-54954819D02*
X128061905Y-54907200D01*
X128061905Y-54907200D02*
X128014286Y-54859580D01*
X126866666Y-107054819D02*
X126866666Y-107769104D01*
X126866666Y-107769104D02*
X126819047Y-107911961D01*
X126819047Y-107911961D02*
X126723809Y-108007200D01*
X126723809Y-108007200D02*
X126580952Y-108054819D01*
X126580952Y-108054819D02*
X126485714Y-108054819D01*
X127819047Y-107054819D02*
X127342857Y-107054819D01*
X127342857Y-107054819D02*
X127295238Y-107531009D01*
X127295238Y-107531009D02*
X127342857Y-107483390D01*
X127342857Y-107483390D02*
X127438095Y-107435771D01*
X127438095Y-107435771D02*
X127676190Y-107435771D01*
X127676190Y-107435771D02*
X127771428Y-107483390D01*
X127771428Y-107483390D02*
X127819047Y-107531009D01*
X127819047Y-107531009D02*
X127866666Y-107626247D01*
X127866666Y-107626247D02*
X127866666Y-107864342D01*
X127866666Y-107864342D02*
X127819047Y-107959580D01*
X127819047Y-107959580D02*
X127771428Y-108007200D01*
X127771428Y-108007200D02*
X127676190Y-108054819D01*
X127676190Y-108054819D02*
X127438095Y-108054819D01*
X127438095Y-108054819D02*
X127342857Y-108007200D01*
X127342857Y-108007200D02*
X127295238Y-107959580D01*
X182866666Y-107254819D02*
X182866666Y-107969104D01*
X182866666Y-107969104D02*
X182819047Y-108111961D01*
X182819047Y-108111961D02*
X182723809Y-108207200D01*
X182723809Y-108207200D02*
X182580952Y-108254819D01*
X182580952Y-108254819D02*
X182485714Y-108254819D01*
X183247619Y-107254819D02*
X183866666Y-107254819D01*
X183866666Y-107254819D02*
X183533333Y-107635771D01*
X183533333Y-107635771D02*
X183676190Y-107635771D01*
X183676190Y-107635771D02*
X183771428Y-107683390D01*
X183771428Y-107683390D02*
X183819047Y-107731009D01*
X183819047Y-107731009D02*
X183866666Y-107826247D01*
X183866666Y-107826247D02*
X183866666Y-108064342D01*
X183866666Y-108064342D02*
X183819047Y-108159580D01*
X183819047Y-108159580D02*
X183771428Y-108207200D01*
X183771428Y-108207200D02*
X183676190Y-108254819D01*
X183676190Y-108254819D02*
X183390476Y-108254819D01*
X183390476Y-108254819D02*
X183295238Y-108207200D01*
X183295238Y-108207200D02*
X183247619Y-108159580D01*
X181300666Y-69558819D02*
X181300666Y-70273104D01*
X181300666Y-70273104D02*
X181253047Y-70415961D01*
X181253047Y-70415961D02*
X181157809Y-70511200D01*
X181157809Y-70511200D02*
X181014952Y-70558819D01*
X181014952Y-70558819D02*
X180919714Y-70558819D01*
X182300666Y-70558819D02*
X181729238Y-70558819D01*
X182014952Y-70558819D02*
X182014952Y-69558819D01*
X182014952Y-69558819D02*
X181919714Y-69701676D01*
X181919714Y-69701676D02*
X181824476Y-69796914D01*
X181824476Y-69796914D02*
X181729238Y-69844533D01*
X144233333Y-48654819D02*
X143757143Y-48654819D01*
X143757143Y-48654819D02*
X143757143Y-47654819D01*
X145090476Y-48654819D02*
X144519048Y-48654819D01*
X144804762Y-48654819D02*
X144804762Y-47654819D01*
X144804762Y-47654819D02*
X144709524Y-47797676D01*
X144709524Y-47797676D02*
X144614286Y-47892914D01*
X144614286Y-47892914D02*
X144519048Y-47940533D01*
X210740666Y-90410819D02*
X210740666Y-91125104D01*
X210740666Y-91125104D02*
X210693047Y-91267961D01*
X210693047Y-91267961D02*
X210597809Y-91363200D01*
X210597809Y-91363200D02*
X210454952Y-91410819D01*
X210454952Y-91410819D02*
X210359714Y-91410819D01*
X211645428Y-90744152D02*
X211645428Y-91410819D01*
X211407333Y-90363200D02*
X211169238Y-91077485D01*
X211169238Y-91077485D02*
X211788285Y-91077485D01*
X127633333Y-53430819D02*
X127300000Y-52954628D01*
X127061905Y-53430819D02*
X127061905Y-52430819D01*
X127061905Y-52430819D02*
X127442857Y-52430819D01*
X127442857Y-52430819D02*
X127538095Y-52478438D01*
X127538095Y-52478438D02*
X127585714Y-52526057D01*
X127585714Y-52526057D02*
X127633333Y-52621295D01*
X127633333Y-52621295D02*
X127633333Y-52764152D01*
X127633333Y-52764152D02*
X127585714Y-52859390D01*
X127585714Y-52859390D02*
X127538095Y-52907009D01*
X127538095Y-52907009D02*
X127442857Y-52954628D01*
X127442857Y-52954628D02*
X127061905Y-52954628D01*
X128490476Y-52430819D02*
X128300000Y-52430819D01*
X128300000Y-52430819D02*
X128204762Y-52478438D01*
X128204762Y-52478438D02*
X128157143Y-52526057D01*
X128157143Y-52526057D02*
X128061905Y-52668914D01*
X128061905Y-52668914D02*
X128014286Y-52859390D01*
X128014286Y-52859390D02*
X128014286Y-53240342D01*
X128014286Y-53240342D02*
X128061905Y-53335580D01*
X128061905Y-53335580D02*
X128109524Y-53383200D01*
X128109524Y-53383200D02*
X128204762Y-53430819D01*
X128204762Y-53430819D02*
X128395238Y-53430819D01*
X128395238Y-53430819D02*
X128490476Y-53383200D01*
X128490476Y-53383200D02*
X128538095Y-53335580D01*
X128538095Y-53335580D02*
X128585714Y-53240342D01*
X128585714Y-53240342D02*
X128585714Y-53002247D01*
X128585714Y-53002247D02*
X128538095Y-52907009D01*
X128538095Y-52907009D02*
X128490476Y-52859390D01*
X128490476Y-52859390D02*
X128395238Y-52811771D01*
X128395238Y-52811771D02*
X128204762Y-52811771D01*
X128204762Y-52811771D02*
X128109524Y-52859390D01*
X128109524Y-52859390D02*
X128061905Y-52907009D01*
X128061905Y-52907009D02*
X128014286Y-53002247D01*
X197633333Y-105854819D02*
X197300000Y-105378628D01*
X197061905Y-105854819D02*
X197061905Y-104854819D01*
X197061905Y-104854819D02*
X197442857Y-104854819D01*
X197442857Y-104854819D02*
X197538095Y-104902438D01*
X197538095Y-104902438D02*
X197585714Y-104950057D01*
X197585714Y-104950057D02*
X197633333Y-105045295D01*
X197633333Y-105045295D02*
X197633333Y-105188152D01*
X197633333Y-105188152D02*
X197585714Y-105283390D01*
X197585714Y-105283390D02*
X197538095Y-105331009D01*
X197538095Y-105331009D02*
X197442857Y-105378628D01*
X197442857Y-105378628D02*
X197061905Y-105378628D01*
X198585714Y-105854819D02*
X198014286Y-105854819D01*
X198300000Y-105854819D02*
X198300000Y-104854819D01*
X198300000Y-104854819D02*
X198204762Y-104997676D01*
X198204762Y-104997676D02*
X198109524Y-105092914D01*
X198109524Y-105092914D02*
X198014286Y-105140533D01*
X163833333Y-75454819D02*
X163500000Y-74978628D01*
X163261905Y-75454819D02*
X163261905Y-74454819D01*
X163261905Y-74454819D02*
X163642857Y-74454819D01*
X163642857Y-74454819D02*
X163738095Y-74502438D01*
X163738095Y-74502438D02*
X163785714Y-74550057D01*
X163785714Y-74550057D02*
X163833333Y-74645295D01*
X163833333Y-74645295D02*
X163833333Y-74788152D01*
X163833333Y-74788152D02*
X163785714Y-74883390D01*
X163785714Y-74883390D02*
X163738095Y-74931009D01*
X163738095Y-74931009D02*
X163642857Y-74978628D01*
X163642857Y-74978628D02*
X163261905Y-74978628D01*
X164166667Y-74454819D02*
X164785714Y-74454819D01*
X164785714Y-74454819D02*
X164452381Y-74835771D01*
X164452381Y-74835771D02*
X164595238Y-74835771D01*
X164595238Y-74835771D02*
X164690476Y-74883390D01*
X164690476Y-74883390D02*
X164738095Y-74931009D01*
X164738095Y-74931009D02*
X164785714Y-75026247D01*
X164785714Y-75026247D02*
X164785714Y-75264342D01*
X164785714Y-75264342D02*
X164738095Y-75359580D01*
X164738095Y-75359580D02*
X164690476Y-75407200D01*
X164690476Y-75407200D02*
X164595238Y-75454819D01*
X164595238Y-75454819D02*
X164309524Y-75454819D01*
X164309524Y-75454819D02*
X164214286Y-75407200D01*
X164214286Y-75407200D02*
X164166667Y-75359580D01*
X146833333Y-45054819D02*
X146500000Y-44578628D01*
X146261905Y-45054819D02*
X146261905Y-44054819D01*
X146261905Y-44054819D02*
X146642857Y-44054819D01*
X146642857Y-44054819D02*
X146738095Y-44102438D01*
X146738095Y-44102438D02*
X146785714Y-44150057D01*
X146785714Y-44150057D02*
X146833333Y-44245295D01*
X146833333Y-44245295D02*
X146833333Y-44388152D01*
X146833333Y-44388152D02*
X146785714Y-44483390D01*
X146785714Y-44483390D02*
X146738095Y-44531009D01*
X146738095Y-44531009D02*
X146642857Y-44578628D01*
X146642857Y-44578628D02*
X146261905Y-44578628D01*
X147214286Y-44150057D02*
X147261905Y-44102438D01*
X147261905Y-44102438D02*
X147357143Y-44054819D01*
X147357143Y-44054819D02*
X147595238Y-44054819D01*
X147595238Y-44054819D02*
X147690476Y-44102438D01*
X147690476Y-44102438D02*
X147738095Y-44150057D01*
X147738095Y-44150057D02*
X147785714Y-44245295D01*
X147785714Y-44245295D02*
X147785714Y-44340533D01*
X147785714Y-44340533D02*
X147738095Y-44483390D01*
X147738095Y-44483390D02*
X147166667Y-45054819D01*
X147166667Y-45054819D02*
X147785714Y-45054819D01*
X146833333Y-46672319D02*
X146500000Y-46196128D01*
X146261905Y-46672319D02*
X146261905Y-45672319D01*
X146261905Y-45672319D02*
X146642857Y-45672319D01*
X146642857Y-45672319D02*
X146738095Y-45719938D01*
X146738095Y-45719938D02*
X146785714Y-45767557D01*
X146785714Y-45767557D02*
X146833333Y-45862795D01*
X146833333Y-45862795D02*
X146833333Y-46005652D01*
X146833333Y-46005652D02*
X146785714Y-46100890D01*
X146785714Y-46100890D02*
X146738095Y-46148509D01*
X146738095Y-46148509D02*
X146642857Y-46196128D01*
X146642857Y-46196128D02*
X146261905Y-46196128D01*
X147690476Y-46005652D02*
X147690476Y-46672319D01*
X147452381Y-45624700D02*
X147214286Y-46338985D01*
X147214286Y-46338985D02*
X147833333Y-46338985D01*
X139866667Y-62807200D02*
X140009524Y-62854819D01*
X140009524Y-62854819D02*
X140247619Y-62854819D01*
X140247619Y-62854819D02*
X140342857Y-62807200D01*
X140342857Y-62807200D02*
X140390476Y-62759580D01*
X140390476Y-62759580D02*
X140438095Y-62664342D01*
X140438095Y-62664342D02*
X140438095Y-62569104D01*
X140438095Y-62569104D02*
X140390476Y-62473866D01*
X140390476Y-62473866D02*
X140342857Y-62426247D01*
X140342857Y-62426247D02*
X140247619Y-62378628D01*
X140247619Y-62378628D02*
X140057143Y-62331009D01*
X140057143Y-62331009D02*
X139961905Y-62283390D01*
X139961905Y-62283390D02*
X139914286Y-62235771D01*
X139914286Y-62235771D02*
X139866667Y-62140533D01*
X139866667Y-62140533D02*
X139866667Y-62045295D01*
X139866667Y-62045295D02*
X139914286Y-61950057D01*
X139914286Y-61950057D02*
X139961905Y-61902438D01*
X139961905Y-61902438D02*
X140057143Y-61854819D01*
X140057143Y-61854819D02*
X140295238Y-61854819D01*
X140295238Y-61854819D02*
X140438095Y-61902438D01*
X140771429Y-61854819D02*
X141009524Y-62854819D01*
X141009524Y-62854819D02*
X141200000Y-62140533D01*
X141200000Y-62140533D02*
X141390476Y-62854819D01*
X141390476Y-62854819D02*
X141628572Y-61854819D01*
X141961905Y-61950057D02*
X142009524Y-61902438D01*
X142009524Y-61902438D02*
X142104762Y-61854819D01*
X142104762Y-61854819D02*
X142342857Y-61854819D01*
X142342857Y-61854819D02*
X142438095Y-61902438D01*
X142438095Y-61902438D02*
X142485714Y-61950057D01*
X142485714Y-61950057D02*
X142533333Y-62045295D01*
X142533333Y-62045295D02*
X142533333Y-62140533D01*
X142533333Y-62140533D02*
X142485714Y-62283390D01*
X142485714Y-62283390D02*
X141914286Y-62854819D01*
X141914286Y-62854819D02*
X142533333Y-62854819D01*
X192466667Y-94607200D02*
X192609524Y-94654819D01*
X192609524Y-94654819D02*
X192847619Y-94654819D01*
X192847619Y-94654819D02*
X192942857Y-94607200D01*
X192942857Y-94607200D02*
X192990476Y-94559580D01*
X192990476Y-94559580D02*
X193038095Y-94464342D01*
X193038095Y-94464342D02*
X193038095Y-94369104D01*
X193038095Y-94369104D02*
X192990476Y-94273866D01*
X192990476Y-94273866D02*
X192942857Y-94226247D01*
X192942857Y-94226247D02*
X192847619Y-94178628D01*
X192847619Y-94178628D02*
X192657143Y-94131009D01*
X192657143Y-94131009D02*
X192561905Y-94083390D01*
X192561905Y-94083390D02*
X192514286Y-94035771D01*
X192514286Y-94035771D02*
X192466667Y-93940533D01*
X192466667Y-93940533D02*
X192466667Y-93845295D01*
X192466667Y-93845295D02*
X192514286Y-93750057D01*
X192514286Y-93750057D02*
X192561905Y-93702438D01*
X192561905Y-93702438D02*
X192657143Y-93654819D01*
X192657143Y-93654819D02*
X192895238Y-93654819D01*
X192895238Y-93654819D02*
X193038095Y-93702438D01*
X193371429Y-93654819D02*
X193609524Y-94654819D01*
X193609524Y-94654819D02*
X193800000Y-93940533D01*
X193800000Y-93940533D02*
X193990476Y-94654819D01*
X193990476Y-94654819D02*
X194228572Y-93654819D01*
X195133333Y-94654819D02*
X194561905Y-94654819D01*
X194847619Y-94654819D02*
X194847619Y-93654819D01*
X194847619Y-93654819D02*
X194752381Y-93797676D01*
X194752381Y-93797676D02*
X194657143Y-93892914D01*
X194657143Y-93892914D02*
X194561905Y-93940533D01*
X144043833Y-61284819D02*
X143710500Y-60808628D01*
X143472405Y-61284819D02*
X143472405Y-60284819D01*
X143472405Y-60284819D02*
X143853357Y-60284819D01*
X143853357Y-60284819D02*
X143948595Y-60332438D01*
X143948595Y-60332438D02*
X143996214Y-60380057D01*
X143996214Y-60380057D02*
X144043833Y-60475295D01*
X144043833Y-60475295D02*
X144043833Y-60618152D01*
X144043833Y-60618152D02*
X143996214Y-60713390D01*
X143996214Y-60713390D02*
X143948595Y-60761009D01*
X143948595Y-60761009D02*
X143853357Y-60808628D01*
X143853357Y-60808628D02*
X143472405Y-60808628D01*
X144377167Y-60284819D02*
X145043833Y-60284819D01*
X145043833Y-60284819D02*
X144615262Y-61284819D01*
X126658667Y-63007200D02*
X126801524Y-63054819D01*
X126801524Y-63054819D02*
X127039619Y-63054819D01*
X127039619Y-63054819D02*
X127134857Y-63007200D01*
X127134857Y-63007200D02*
X127182476Y-62959580D01*
X127182476Y-62959580D02*
X127230095Y-62864342D01*
X127230095Y-62864342D02*
X127230095Y-62769104D01*
X127230095Y-62769104D02*
X127182476Y-62673866D01*
X127182476Y-62673866D02*
X127134857Y-62626247D01*
X127134857Y-62626247D02*
X127039619Y-62578628D01*
X127039619Y-62578628D02*
X126849143Y-62531009D01*
X126849143Y-62531009D02*
X126753905Y-62483390D01*
X126753905Y-62483390D02*
X126706286Y-62435771D01*
X126706286Y-62435771D02*
X126658667Y-62340533D01*
X126658667Y-62340533D02*
X126658667Y-62245295D01*
X126658667Y-62245295D02*
X126706286Y-62150057D01*
X126706286Y-62150057D02*
X126753905Y-62102438D01*
X126753905Y-62102438D02*
X126849143Y-62054819D01*
X126849143Y-62054819D02*
X127087238Y-62054819D01*
X127087238Y-62054819D02*
X127230095Y-62102438D01*
X127563429Y-62054819D02*
X127801524Y-63054819D01*
X127801524Y-63054819D02*
X127992000Y-62340533D01*
X127992000Y-62340533D02*
X128182476Y-63054819D01*
X128182476Y-63054819D02*
X128420572Y-62054819D01*
X128706286Y-62054819D02*
X129325333Y-62054819D01*
X129325333Y-62054819D02*
X128992000Y-62435771D01*
X128992000Y-62435771D02*
X129134857Y-62435771D01*
X129134857Y-62435771D02*
X129230095Y-62483390D01*
X129230095Y-62483390D02*
X129277714Y-62531009D01*
X129277714Y-62531009D02*
X129325333Y-62626247D01*
X129325333Y-62626247D02*
X129325333Y-62864342D01*
X129325333Y-62864342D02*
X129277714Y-62959580D01*
X129277714Y-62959580D02*
X129230095Y-63007200D01*
X129230095Y-63007200D02*
X129134857Y-63054819D01*
X129134857Y-63054819D02*
X128849143Y-63054819D01*
X128849143Y-63054819D02*
X128753905Y-63007200D01*
X128753905Y-63007200D02*
X128706286Y-62959580D01*
X153266667Y-62407200D02*
X153409524Y-62454819D01*
X153409524Y-62454819D02*
X153647619Y-62454819D01*
X153647619Y-62454819D02*
X153742857Y-62407200D01*
X153742857Y-62407200D02*
X153790476Y-62359580D01*
X153790476Y-62359580D02*
X153838095Y-62264342D01*
X153838095Y-62264342D02*
X153838095Y-62169104D01*
X153838095Y-62169104D02*
X153790476Y-62073866D01*
X153790476Y-62073866D02*
X153742857Y-62026247D01*
X153742857Y-62026247D02*
X153647619Y-61978628D01*
X153647619Y-61978628D02*
X153457143Y-61931009D01*
X153457143Y-61931009D02*
X153361905Y-61883390D01*
X153361905Y-61883390D02*
X153314286Y-61835771D01*
X153314286Y-61835771D02*
X153266667Y-61740533D01*
X153266667Y-61740533D02*
X153266667Y-61645295D01*
X153266667Y-61645295D02*
X153314286Y-61550057D01*
X153314286Y-61550057D02*
X153361905Y-61502438D01*
X153361905Y-61502438D02*
X153457143Y-61454819D01*
X153457143Y-61454819D02*
X153695238Y-61454819D01*
X153695238Y-61454819D02*
X153838095Y-61502438D01*
X154171429Y-61454819D02*
X154409524Y-62454819D01*
X154409524Y-62454819D02*
X154600000Y-61740533D01*
X154600000Y-61740533D02*
X154790476Y-62454819D01*
X154790476Y-62454819D02*
X155028572Y-61454819D01*
X155838095Y-61788152D02*
X155838095Y-62454819D01*
X155600000Y-61407200D02*
X155361905Y-62121485D01*
X155361905Y-62121485D02*
X155980952Y-62121485D01*
X143888095Y-75854819D02*
X143888095Y-76664342D01*
X143888095Y-76664342D02*
X143935714Y-76759580D01*
X143935714Y-76759580D02*
X143983333Y-76807200D01*
X143983333Y-76807200D02*
X144078571Y-76854819D01*
X144078571Y-76854819D02*
X144269047Y-76854819D01*
X144269047Y-76854819D02*
X144364285Y-76807200D01*
X144364285Y-76807200D02*
X144411904Y-76759580D01*
X144411904Y-76759580D02*
X144459523Y-76664342D01*
X144459523Y-76664342D02*
X144459523Y-75854819D01*
X145364285Y-76188152D02*
X145364285Y-76854819D01*
X145126190Y-75807200D02*
X144888095Y-76521485D01*
X144888095Y-76521485D02*
X145507142Y-76521485D01*
X140030095Y-43254819D02*
X140030095Y-44064342D01*
X140030095Y-44064342D02*
X140077714Y-44159580D01*
X140077714Y-44159580D02*
X140125333Y-44207200D01*
X140125333Y-44207200D02*
X140220571Y-44254819D01*
X140220571Y-44254819D02*
X140411047Y-44254819D01*
X140411047Y-44254819D02*
X140506285Y-44207200D01*
X140506285Y-44207200D02*
X140553904Y-44159580D01*
X140553904Y-44159580D02*
X140601523Y-44064342D01*
X140601523Y-44064342D02*
X140601523Y-43254819D01*
X141030095Y-43350057D02*
X141077714Y-43302438D01*
X141077714Y-43302438D02*
X141172952Y-43254819D01*
X141172952Y-43254819D02*
X141411047Y-43254819D01*
X141411047Y-43254819D02*
X141506285Y-43302438D01*
X141506285Y-43302438D02*
X141553904Y-43350057D01*
X141553904Y-43350057D02*
X141601523Y-43445295D01*
X141601523Y-43445295D02*
X141601523Y-43540533D01*
X141601523Y-43540533D02*
X141553904Y-43683390D01*
X141553904Y-43683390D02*
X140982476Y-44254819D01*
X140982476Y-44254819D02*
X141601523Y-44254819D01*
X174438095Y-85254819D02*
X174438095Y-86064342D01*
X174438095Y-86064342D02*
X174485714Y-86159580D01*
X174485714Y-86159580D02*
X174533333Y-86207200D01*
X174533333Y-86207200D02*
X174628571Y-86254819D01*
X174628571Y-86254819D02*
X174819047Y-86254819D01*
X174819047Y-86254819D02*
X174914285Y-86207200D01*
X174914285Y-86207200D02*
X174961904Y-86159580D01*
X174961904Y-86159580D02*
X175009523Y-86064342D01*
X175009523Y-86064342D02*
X175009523Y-85254819D01*
X176009523Y-86254819D02*
X175438095Y-86254819D01*
X175723809Y-86254819D02*
X175723809Y-85254819D01*
X175723809Y-85254819D02*
X175628571Y-85397676D01*
X175628571Y-85397676D02*
X175533333Y-85492914D01*
X175533333Y-85492914D02*
X175438095Y-85540533D01*
X119666666Y-47454819D02*
X119666666Y-48169104D01*
X119666666Y-48169104D02*
X119619047Y-48311961D01*
X119619047Y-48311961D02*
X119523809Y-48407200D01*
X119523809Y-48407200D02*
X119380952Y-48454819D01*
X119380952Y-48454819D02*
X119285714Y-48454819D01*
X120095238Y-47550057D02*
X120142857Y-47502438D01*
X120142857Y-47502438D02*
X120238095Y-47454819D01*
X120238095Y-47454819D02*
X120476190Y-47454819D01*
X120476190Y-47454819D02*
X120571428Y-47502438D01*
X120571428Y-47502438D02*
X120619047Y-47550057D01*
X120619047Y-47550057D02*
X120666666Y-47645295D01*
X120666666Y-47645295D02*
X120666666Y-47740533D01*
X120666666Y-47740533D02*
X120619047Y-47883390D01*
X120619047Y-47883390D02*
X120047619Y-48454819D01*
X120047619Y-48454819D02*
X120666666Y-48454819D01*
D12*
%TO.C,U3*%
X215008000Y-47276000D02*
X164468000Y-47276000D01*
X215008000Y-66516000D02*
X215008000Y-47276000D01*
X164468000Y-66516000D02*
X164468000Y-47276000D01*
X164468000Y-66516000D02*
X215008000Y-66516000D01*
X182388000Y-66766000D02*
X184388000Y-66766000D01*
%TO.C,J6*%
X156470000Y-109070000D02*
X176850000Y-109070000D01*
X153870000Y-109070000D02*
X155200000Y-109070000D01*
X153870000Y-110400000D02*
X153870000Y-109070000D01*
X156470000Y-111670000D02*
X156470000Y-109070000D01*
X153870000Y-111670000D02*
X156470000Y-111670000D01*
X176850000Y-114270000D02*
X176850000Y-109070000D01*
X153870000Y-114270000D02*
X153870000Y-111670000D01*
X153870000Y-114270000D02*
X176850000Y-114270000D01*
%TO.C,C2*%
X135410000Y-50110000D02*
X135410000Y-47760000D01*
X135410000Y-43290000D02*
X135410000Y-45640000D01*
X129654437Y-50110000D02*
X135410000Y-50110000D01*
X129654437Y-43290000D02*
X135410000Y-43290000D01*
X128590000Y-49045563D02*
X129654437Y-50110000D01*
X128590000Y-49045563D02*
X128590000Y-47760000D01*
X128590000Y-44354437D02*
X129654437Y-43290000D01*
X128590000Y-44354437D02*
X128590000Y-45640000D01*
X127956250Y-44458750D02*
X127956250Y-45246250D01*
X127562500Y-44852500D02*
X128350000Y-44852500D01*
%TO.C,C1*%
X157410000Y-47290000D02*
X155060000Y-47290000D01*
X150590000Y-47290000D02*
X152940000Y-47290000D01*
X157410000Y-53045563D02*
X157410000Y-47290000D01*
X150590000Y-53045563D02*
X150590000Y-47290000D01*
X156345563Y-54110000D02*
X157410000Y-53045563D01*
X156345563Y-54110000D02*
X155060000Y-54110000D01*
X151654437Y-54110000D02*
X150590000Y-53045563D01*
X151654437Y-54110000D02*
X152940000Y-54110000D01*
X151758750Y-54743750D02*
X152546250Y-54743750D01*
X152152500Y-55137500D02*
X152152500Y-54350000D01*
%TO.C,R9*%
X157429879Y-62380000D02*
X157765121Y-62380000D01*
X157429879Y-61620000D02*
X157765121Y-61620000D01*
%TO.C,R8*%
X130505879Y-63142000D02*
X130841121Y-63142000D01*
X130505879Y-62382000D02*
X130841121Y-62382000D01*
%TO.C,R5*%
X130729276Y-55022500D02*
X131238724Y-55022500D01*
X130729276Y-53977500D02*
X131238724Y-53977500D01*
%TO.C,J5*%
X128470000Y-109070000D02*
X148850000Y-109070000D01*
X125870000Y-109070000D02*
X127200000Y-109070000D01*
X125870000Y-110400000D02*
X125870000Y-109070000D01*
X128470000Y-111670000D02*
X128470000Y-109070000D01*
X125870000Y-111670000D02*
X128470000Y-111670000D01*
X148850000Y-114270000D02*
X148850000Y-109070000D01*
X125870000Y-114270000D02*
X125870000Y-111670000D01*
X125870000Y-114270000D02*
X148850000Y-114270000D01*
%TO.C,J3*%
X184470000Y-109130000D02*
X204850000Y-109130000D01*
X181870000Y-109130000D02*
X183200000Y-109130000D01*
X181870000Y-110460000D02*
X181870000Y-109130000D01*
X184470000Y-111730000D02*
X184470000Y-109130000D01*
X181870000Y-111730000D02*
X184470000Y-111730000D01*
X204850000Y-114330000D02*
X204850000Y-109130000D01*
X181870000Y-114330000D02*
X181870000Y-111730000D01*
X181870000Y-114330000D02*
X204850000Y-114330000D01*
%TO.C,J1*%
X185674000Y-68774000D02*
X200974000Y-68774000D01*
X183074000Y-68774000D02*
X184404000Y-68774000D01*
X183074000Y-70104000D02*
X183074000Y-68774000D01*
X200974000Y-71434000D02*
X200974000Y-68774000D01*
X185674000Y-71434000D02*
X185674000Y-68774000D01*
X185674000Y-71434000D02*
X200974000Y-71434000D01*
%TO.C,L1*%
X146778000Y-56686000D02*
X139378000Y-56686000D01*
X146778000Y-54386000D02*
X146778000Y-56686000D01*
X146778000Y-49286000D02*
X146778000Y-51586000D01*
X139378000Y-56686000D02*
X139378000Y-54386000D01*
X139378000Y-51586000D02*
X139378000Y-49286000D01*
X139378000Y-49286000D02*
X146778000Y-49286000D01*
%TO.C,J4*%
X212404000Y-94996000D02*
X212404000Y-107756000D01*
X212404000Y-92396000D02*
X212404000Y-93726000D01*
X211074000Y-92396000D02*
X212404000Y-92396000D01*
X209744000Y-107756000D02*
X212404000Y-107756000D01*
X209744000Y-94996000D02*
X212404000Y-94996000D01*
X209744000Y-94996000D02*
X209744000Y-107756000D01*
%TO.C,R6*%
X130729276Y-53498500D02*
X131238724Y-53498500D01*
X130729276Y-52453500D02*
X131238724Y-52453500D01*
%TO.C,R1*%
X200420500Y-105561224D02*
X200420500Y-105051776D01*
X199375500Y-105561224D02*
X199375500Y-105051776D01*
%TO.C,R3*%
X164235224Y-76439500D02*
X163725776Y-76439500D01*
X164235224Y-77484500D02*
X163725776Y-77484500D01*
%TO.C,R2*%
X143714000Y-44690379D02*
X143714000Y-45025621D01*
X144474000Y-44690379D02*
X144474000Y-45025621D01*
%TO.C,R4*%
X144984000Y-46049879D02*
X144984000Y-46385121D01*
X145744000Y-46049879D02*
X145744000Y-46385121D01*
%TO.C,SW2*%
X144700000Y-68048000D02*
X144700000Y-66548000D01*
X143450000Y-64048000D02*
X138950000Y-64048000D01*
X138950000Y-70548000D02*
X143450000Y-70548000D01*
X137700000Y-66548000D02*
X137700000Y-68048000D01*
%TO.C,SW1*%
X197048000Y-100064000D02*
X197048000Y-98564000D01*
X195798000Y-96064000D02*
X191298000Y-96064000D01*
X191298000Y-102564000D02*
X195798000Y-102564000D01*
X190048000Y-98564000D02*
X190048000Y-100064000D01*
%TO.C,R7*%
X144042879Y-62380000D02*
X144378121Y-62380000D01*
X144042879Y-61620000D02*
X144378121Y-61620000D01*
%TO.C,SW3*%
X131492000Y-68048000D02*
X131492000Y-66548000D01*
X130242000Y-64048000D02*
X125742000Y-64048000D01*
X125742000Y-70548000D02*
X130242000Y-70548000D01*
X124492000Y-66548000D02*
X124492000Y-68048000D01*
%TO.C,SW4*%
X158162000Y-67540000D02*
X158162000Y-66040000D01*
X156912000Y-63540000D02*
X152412000Y-63540000D01*
X152412000Y-70040000D02*
X156912000Y-70040000D01*
X151162000Y-66040000D02*
X151162000Y-67540000D01*
%TO.C,U4*%
X156500000Y-101660000D02*
X156500000Y-77960000D01*
X156500000Y-77960000D02*
X145650000Y-77960000D01*
X143650000Y-77960000D02*
X133800000Y-77960000D01*
X133800000Y-77960000D02*
X132800000Y-78960000D01*
X132800000Y-101660000D02*
X156500000Y-101660000D01*
X132800000Y-78960000D02*
X132800000Y-101660000D01*
%TO.C,U2*%
X139492000Y-44872000D02*
X139252000Y-44542000D01*
X139732000Y-44542000D01*
X139492000Y-44872000D01*
G36*
X139492000Y-44872000D02*
G01*
X139252000Y-44542000D01*
X139732000Y-44542000D01*
X139492000Y-44872000D01*
G37*
X140792000Y-47942000D02*
X141592000Y-47942000D01*
X140792000Y-47942000D02*
X139992000Y-47942000D01*
X140792000Y-44822000D02*
X141592000Y-44822000D01*
X140792000Y-44822000D02*
X139992000Y-44822000D01*
%TO.C,U1*%
X170987500Y-88890000D02*
X170647500Y-88420000D01*
X171327500Y-88420000D01*
X170987500Y-88890000D01*
G36*
X170987500Y-88890000D02*
G01*
X170647500Y-88420000D01*
X171327500Y-88420000D01*
X170987500Y-88890000D01*
G37*
X178810000Y-95810000D02*
X178810000Y-95510000D01*
X178810000Y-88590000D02*
X178810000Y-88890000D01*
X178510000Y-95810000D02*
X178810000Y-95810000D01*
X178510000Y-88590000D02*
X178810000Y-88590000D01*
X171890000Y-95810000D02*
X171590000Y-95810000D01*
X171890000Y-88590000D02*
X171590000Y-88590000D01*
X171590000Y-95810000D02*
X171590000Y-95510000D01*
X171590000Y-88590000D02*
X171590000Y-88890000D01*
%TO.C,J2*%
X121402000Y-49784000D02*
X119402000Y-49784000D01*
X117502000Y-49784000D02*
X115992000Y-49784000D01*
X115992000Y-49784000D02*
X115992000Y-58944000D01*
X121402000Y-58944000D02*
X119402000Y-58944000D01*
X117502000Y-58944000D02*
X115992000Y-58944000D01*
%TD*%
M02*
