M48
; DRILL file {KiCad 9.0.4} date 2026-01-27T19:08:49+0900
; FORMAT={-:-/ absolute / metric / decimal}
; #@! TF.CreationDate,2026-01-27T19:08:49+09:00
; #@! TF.GenerationSoftware,Kicad,Pcbnew,9.0.4
; #@! TF.FileFunction,Plated,1,2,PTH
FMAT,2
METRIC
; #@! TA.AperFunction,Plated,PTH,ViaDrill
T1C0.300
; #@! TA.AperFunction,Plated,PTH,ComponentDrill
T2C0.500
; #@! TA.AperFunction,Plated,PTH,ComponentDrill
T3C0.800
; #@! TA.AperFunction,Plated,PTH,ComponentDrill
T4C1.000
; #@! TA.AperFunction,Plated,PTH,ComponentDrill
T5C1.100
%
G90
G05
T1
X117.2Y-41.6
X117.6Y-115.8
X117.8Y-85.8
X126.2Y-108.6
X128.0Y-66.0
X130.82Y-102.172
X131.392Y-100.0
X132.2Y-47.2
X132.607Y-90.671
X133.4Y-100.0
X133.55Y-90.75
X134.4Y-79.4
X135.4Y-71.2
X135.4Y-78.2
X135.975Y-104.424
X136.0Y-64.8
X136.6Y-103.216
X137.299Y-102.6
X139.8Y-103.997
X141.6Y-65.048
X141.8Y-86.0
X142.4Y-59.2
X143.6Y-85.6
X147.2Y-63.4
X147.2Y-104.6
X147.2Y-108.4
X148.0Y-49.2
X149.2Y-40.8
X149.4Y-47.4
X149.4Y-94.0
X150.2Y-115.4
X152.4Y-113.8
X154.4Y-65.2
X154.4Y-78.4
X155.6Y-56.6
X157.2Y-77.8
X161.0Y-83.4
X161.6Y-88.4
X164.4Y-93.2
X166.0Y-86.4
X166.2Y-77.0
X171.4Y-88.0
X171.8Y-53.6
X172.6Y-92.6
X173.2Y-86.2
X174.4Y-108.8
X174.8Y-53.2
X176.6Y-90.6
X177.2Y-94.4
X177.4Y-90.2
X178.8Y-109.2
X180.8Y-88.6
X181.2Y-89.8
X181.6Y-92.8
X181.8Y-49.2
X182.4Y-90.0
X182.4Y-91.8
X183.0Y-91.0
X183.6Y-92.4
X184.8Y-75.8
X184.8Y-108.0
X186.2Y-55.6
X188.0Y-67.0
X192.2Y-73.6
X198.8Y-101.6
X199.0Y-45.0
X201.4Y-102.8
X202.6Y-105.4
X203.4Y-43.6
T3
X135.76Y-83.46
X135.76Y-86.0
X135.76Y-88.54
X135.76Y-91.08
X135.76Y-93.62
X135.76Y-96.16
X138.3Y-80.92
X138.3Y-83.46
X138.3Y-86.0
X138.3Y-88.54
X138.3Y-91.08
X138.3Y-93.62
X138.3Y-96.16
X138.3Y-98.7
X140.84Y-80.92
X140.84Y-83.46
X140.84Y-96.16
X140.84Y-98.7
X143.38Y-80.92
X143.38Y-83.46
X143.38Y-96.16
X143.38Y-98.7
X145.92Y-80.92
X145.92Y-83.46
X145.92Y-96.16
X145.92Y-98.7
X148.46Y-80.92
X148.46Y-83.46
X148.46Y-96.16
X148.46Y-98.7
X151.0Y-80.92
X151.0Y-83.46
X151.0Y-86.0
X151.0Y-88.54
X151.0Y-91.08
X151.0Y-93.62
X151.0Y-96.16
X151.0Y-98.7
X153.54Y-83.46
X153.54Y-86.0
X153.54Y-88.54
X153.54Y-91.08
X153.54Y-93.62
X153.54Y-96.16
T4
X127.2Y-110.4
X127.2Y-112.94
X129.74Y-110.4
X129.74Y-112.94
X132.28Y-110.4
X132.28Y-112.94
X134.82Y-110.4
X134.82Y-112.94
X137.36Y-110.4
X137.36Y-112.94
X139.9Y-110.4
X139.9Y-112.94
X142.44Y-110.4
X142.44Y-112.94
X144.98Y-110.4
X144.98Y-112.94
X147.52Y-110.4
X147.52Y-112.94
X155.2Y-110.4
X155.2Y-112.94
X157.74Y-110.4
X157.74Y-112.94
X160.28Y-110.4
X160.28Y-112.94
X162.82Y-110.4
X162.82Y-112.94
X165.36Y-110.4
X165.36Y-112.94
X167.9Y-110.4
X167.9Y-112.94
X170.44Y-110.4
X170.44Y-112.94
X172.98Y-110.4
X172.98Y-112.94
X175.52Y-110.4
X175.52Y-112.94
X183.2Y-110.46
X183.2Y-113.0
X183.388Y-49.276
X183.388Y-64.516
X184.404Y-70.104
X185.74Y-110.46
X185.74Y-113.0
X185.928Y-49.276
X185.928Y-64.516
X186.944Y-70.104
X188.28Y-110.46
X188.28Y-113.0
X188.468Y-49.276
X188.468Y-64.516
X189.484Y-70.104
X190.82Y-110.46
X190.82Y-113.0
X191.008Y-49.276
X191.008Y-64.516
X192.024Y-70.104
X193.36Y-110.46
X193.36Y-113.0
X193.548Y-49.276
X193.548Y-64.516
X194.564Y-70.104
X195.9Y-110.46
X195.9Y-113.0
X196.088Y-49.276
X196.088Y-64.516
X197.104Y-70.104
X198.44Y-110.46
X198.44Y-113.0
X199.644Y-70.104
X200.98Y-110.46
X200.98Y-113.0
X203.52Y-110.46
X203.52Y-113.0
X211.074Y-93.726
X211.074Y-96.266
X211.074Y-98.806
X211.074Y-101.346
X211.074Y-103.886
X211.074Y-106.426
T5
X124.742Y-65.048
X124.742Y-69.548
X131.242Y-65.048
X131.242Y-69.548
X137.95Y-65.048
X137.95Y-69.548
X144.45Y-65.048
X144.45Y-69.548
X151.412Y-64.54
X151.412Y-69.04
X157.912Y-64.54
X157.912Y-69.04
X190.298Y-97.064
X190.298Y-101.564
X196.798Y-97.064
X196.798Y-101.564
T2
G00X119.052Y-50.044
M15
G01X118.352Y-50.044
M16
G05
G00X119.052Y-58.684
M15
G01X118.352Y-58.684
M16
G05
G00X122.852Y-50.044
M15
G01X122.152Y-50.044
M16
G05
G00X122.852Y-58.684
M15
G01X122.152Y-58.684
M16
G05
M30
