%TF.GenerationSoftware,KiCad,Pcbnew,9.0.4*%
%TF.CreationDate,2026-01-27T19:08:46+09:00*%
%TF.ProjectId,SPLD_Test,53504c44-5f54-4657-9374-2e6b69636164,rev?*%
%TF.SameCoordinates,Original*%
%TF.FileFunction,Soldermask,Bot*%
%TF.FilePolarity,Negative*%
%FSLAX46Y46*%
G04 Gerber Fmt 4.6, Leading zero omitted, Abs format (unit mm)*
G04 Created by KiCad (PCBNEW 9.0.4) date 2026-01-27 19:08:46*
%MOMM*%
%LPD*%
G01*
G04 APERTURE LIST*
G04 Aperture macros list*
%AMRoundRect*
0 Rectangle with rounded corners*
0 $1 Rounding radius*
0 $2 $3 $4 $5 $6 $7 $8 $9 X,Y pos of 4 corners*
0 Add a 4 corners polygon primitive as box body*
4,1,4,$2,$3,$4,$5,$6,$7,$8,$9,$2,$3,0*
0 Add four circle primitives for the rounded corners*
1,1,$1+$1,$2,$3*
1,1,$1+$1,$4,$5*
1,1,$1+$1,$6,$7*
1,1,$1+$1,$8,$9*
0 Add four rect primitives between the rounded corners*
20,1,$1+$1,$2,$3,$4,$5,0*
20,1,$1+$1,$4,$5,$6,$7,0*
20,1,$1+$1,$6,$7,$8,$9,0*
20,1,$1+$1,$8,$9,$2,$3,0*%
G04 Aperture macros list end*
%ADD10C,1.500000*%
%ADD11R,1.500000X1.500000*%
%ADD12RoundRect,0.160000X-0.197500X-0.160000X0.197500X-0.160000X0.197500X0.160000X-0.197500X0.160000X0*%
%ADD13C,1.700000*%
%ADD14R,1.700000X1.700000*%
%ADD15C,2.000000*%
%ADD16C,1.422400*%
%ADD17R,1.422400X1.422400*%
%ADD18O,1.700000X1.000000*%
G04 APERTURE END LIST*
D10*
%TO.C,U3*%
X183388000Y-49276000D03*
X185928000Y-49276000D03*
X188468000Y-49276000D03*
X191008000Y-49276000D03*
X193548000Y-49276000D03*
X196088000Y-49276000D03*
X196088000Y-64516000D03*
X193548000Y-64516000D03*
X191008000Y-64516000D03*
X188468000Y-64516000D03*
X185928000Y-64516000D03*
D11*
X183388000Y-64516000D03*
%TD*%
D12*
%TO.C,R17*%
X177602500Y-58800000D03*
X178797500Y-58800000D03*
%TD*%
%TO.C,R16*%
X177602500Y-56000000D03*
X178797500Y-56000000D03*
%TD*%
%TO.C,R15*%
X177602500Y-52400000D03*
X178797500Y-52400000D03*
%TD*%
%TO.C,R14*%
X177602500Y-61600000D03*
X178797500Y-61600000D03*
%TD*%
%TO.C,R13*%
X177602500Y-60200000D03*
X178797500Y-60200000D03*
%TD*%
%TO.C,R12*%
X177602500Y-57400000D03*
X178797500Y-57400000D03*
%TD*%
%TO.C,R11*%
X177602500Y-54600000D03*
X178797500Y-54600000D03*
%TD*%
%TO.C,R10*%
X177602500Y-51000000D03*
X178797500Y-51000000D03*
%TD*%
D13*
%TO.C,J6*%
X175520000Y-112940000D03*
X175520000Y-110400000D03*
X172980000Y-112940000D03*
X172980000Y-110400000D03*
X170440000Y-112940000D03*
X170440000Y-110400000D03*
X167900000Y-112940000D03*
X167900000Y-110400000D03*
X165360000Y-112940000D03*
X165360000Y-110400000D03*
X162820000Y-112940000D03*
X162820000Y-110400000D03*
X160280000Y-112940000D03*
X160280000Y-110400000D03*
X157740000Y-112940000D03*
X157740000Y-110400000D03*
X155200000Y-112940000D03*
D14*
X155200000Y-110400000D03*
%TD*%
D13*
%TO.C,J5*%
X147520000Y-112940000D03*
X147520000Y-110400000D03*
X144980000Y-112940000D03*
X144980000Y-110400000D03*
X142440000Y-112940000D03*
X142440000Y-110400000D03*
X139900000Y-112940000D03*
X139900000Y-110400000D03*
X137360000Y-112940000D03*
X137360000Y-110400000D03*
X134820000Y-112940000D03*
X134820000Y-110400000D03*
X132280000Y-112940000D03*
X132280000Y-110400000D03*
X129740000Y-112940000D03*
X129740000Y-110400000D03*
X127200000Y-112940000D03*
D14*
X127200000Y-110400000D03*
%TD*%
D13*
%TO.C,J3*%
X203520000Y-113000000D03*
X203520000Y-110460000D03*
X200980000Y-113000000D03*
X200980000Y-110460000D03*
X198440000Y-113000000D03*
X198440000Y-110460000D03*
X195900000Y-113000000D03*
X195900000Y-110460000D03*
X193360000Y-113000000D03*
X193360000Y-110460000D03*
X190820000Y-113000000D03*
X190820000Y-110460000D03*
X188280000Y-113000000D03*
X188280000Y-110460000D03*
X185740000Y-113000000D03*
X185740000Y-110460000D03*
X183200000Y-113000000D03*
D14*
X183200000Y-110460000D03*
%TD*%
D13*
%TO.C,J1*%
X199644000Y-70104000D03*
X197104000Y-70104000D03*
X194564000Y-70104000D03*
X192024000Y-70104000D03*
X189484000Y-70104000D03*
X186944000Y-70104000D03*
D14*
X184404000Y-70104000D03*
%TD*%
D13*
%TO.C,J4*%
X211074000Y-106426000D03*
X211074000Y-103886000D03*
X211074000Y-101346000D03*
X211074000Y-98806000D03*
X211074000Y-96266000D03*
D14*
X211074000Y-93726000D03*
%TD*%
D15*
%TO.C,SW2*%
X144450000Y-69548000D03*
X137950000Y-69548000D03*
X144450000Y-65048000D03*
X137950000Y-65048000D03*
%TD*%
%TO.C,SW1*%
X196798000Y-101564000D03*
X190298000Y-101564000D03*
X196798000Y-97064000D03*
X190298000Y-97064000D03*
%TD*%
%TO.C,SW3*%
X131242000Y-69548000D03*
X124742000Y-69548000D03*
X131242000Y-65048000D03*
X124742000Y-65048000D03*
%TD*%
%TO.C,SW4*%
X157912000Y-69040000D03*
X151412000Y-69040000D03*
X157912000Y-64540000D03*
X151412000Y-64540000D03*
%TD*%
D16*
%TO.C,U4*%
X145920000Y-80920000D03*
X148460000Y-83460000D03*
X148460000Y-80920000D03*
X151000000Y-83460000D03*
X151000000Y-80920000D03*
X153540000Y-83460000D03*
X151000000Y-86000000D03*
X153540000Y-86000000D03*
X151000000Y-88540000D03*
X153540000Y-88540000D03*
X151000000Y-91080000D03*
X153540000Y-91080000D03*
X151000000Y-93620000D03*
X153540000Y-93620000D03*
X151000000Y-96160000D03*
X153540000Y-96160000D03*
X151000000Y-98700000D03*
X148460000Y-96160000D03*
X148460000Y-98700000D03*
X145920000Y-96160000D03*
X145920000Y-98700000D03*
X143380000Y-96160000D03*
X143380000Y-98700000D03*
X140840000Y-96160000D03*
X140840000Y-98700000D03*
X138300000Y-96160000D03*
X138300000Y-98700000D03*
X135760000Y-96160000D03*
X138300000Y-93620000D03*
X135760000Y-93620000D03*
X138300000Y-91080000D03*
X135760000Y-91080000D03*
X138300000Y-88540000D03*
X135760000Y-88540000D03*
X138300000Y-86000000D03*
X135760000Y-86000000D03*
X138300000Y-83460000D03*
X135760000Y-83460000D03*
X138300000Y-80920000D03*
X140840000Y-83460000D03*
X140840000Y-80920000D03*
X143380000Y-83460000D03*
X143380000Y-80920000D03*
D17*
X145920000Y-83460000D03*
%TD*%
D18*
%TO.C,J2*%
X122502000Y-50044000D03*
X118702000Y-50044000D03*
X122502000Y-58684000D03*
X118702000Y-58684000D03*
%TD*%
M02*
