%TF.GenerationSoftware,KiCad,Pcbnew,9.0.4*%
%TF.CreationDate,2026-02-15T11:37:20+09:00*%
%TF.ProjectId,SPLD_Test,53504c44-5f54-4657-9374-2e6b69636164,rev?*%
%TF.SameCoordinates,Original*%
%TF.FileFunction,Soldermask,Top*%
%TF.FilePolarity,Negative*%
%FSLAX46Y46*%
G04 Gerber Fmt 4.6, Leading zero omitted, Abs format (unit mm)*
G04 Created by KiCad (PCBNEW 9.0.4) date 2026-02-15 11:37:20*
%MOMM*%
%LPD*%
G01*
G04 APERTURE LIST*
G04 Aperture macros list*
%AMRoundRect*
0 Rectangle with rounded corners*
0 $1 Rounding radius*
0 $2 $3 $4 $5 $6 $7 $8 $9 X,Y pos of 4 corners*
0 Add a 4 corners polygon primitive as box body*
4,1,4,$2,$3,$4,$5,$6,$7,$8,$9,$2,$3,0*
0 Add four circle primitives for the rounded corners*
1,1,$1+$1,$2,$3*
1,1,$1+$1,$4,$5*
1,1,$1+$1,$6,$7*
1,1,$1+$1,$8,$9*
0 Add four rect primitives between the rounded corners*
20,1,$1+$1,$2,$3,$4,$5,0*
20,1,$1+$1,$4,$5,$6,$7,0*
20,1,$1+$1,$6,$7,$8,$9,0*
20,1,$1+$1,$8,$9,$2,$3,0*%
G04 Aperture macros list end*
%ADD10RoundRect,0.200000X0.200000X0.275000X-0.200000X0.275000X-0.200000X-0.275000X0.200000X-0.275000X0*%
%ADD11RoundRect,0.200000X-0.200000X-0.275000X0.200000X-0.275000X0.200000X0.275000X-0.200000X0.275000X0*%
%ADD12RoundRect,0.218750X0.218750X0.256250X-0.218750X0.256250X-0.218750X-0.256250X0.218750X-0.256250X0*%
%ADD13RoundRect,0.175000X-0.425000X0.175000X-0.425000X-0.175000X0.425000X-0.175000X0.425000X0.175000X0*%
%ADD14RoundRect,0.190000X0.410000X-0.190000X0.410000X0.190000X-0.410000X0.190000X-0.410000X-0.190000X0*%
%ADD15RoundRect,0.200000X0.400000X-0.200000X0.400000X0.200000X-0.400000X0.200000X-0.400000X-0.200000X0*%
%ADD16RoundRect,0.175000X0.425000X-0.175000X0.425000X0.175000X-0.425000X0.175000X-0.425000X-0.175000X0*%
%ADD17RoundRect,0.190000X-0.410000X0.190000X-0.410000X-0.190000X0.410000X-0.190000X0.410000X0.190000X0*%
%ADD18RoundRect,0.200000X-0.400000X0.200000X-0.400000X-0.200000X0.400000X-0.200000X0.400000X0.200000X0*%
%ADD19O,1.700000X1.100000*%
%ADD20R,1.700000X1.700000*%
%ADD21C,1.700000*%
%ADD22RoundRect,0.237500X0.237500X-0.250000X0.237500X0.250000X-0.237500X0.250000X-0.237500X-0.250000X0*%
%ADD23RoundRect,0.125000X-0.625000X-0.125000X0.625000X-0.125000X0.625000X0.125000X-0.625000X0.125000X0*%
%ADD24RoundRect,0.125000X-0.125000X-0.625000X0.125000X-0.625000X0.125000X0.625000X-0.125000X0.625000X0*%
%ADD25RoundRect,0.218750X-0.218750X-0.256250X0.218750X-0.256250X0.218750X0.256250X-0.218750X0.256250X0*%
%ADD26RoundRect,0.150000X-0.825000X-0.150000X0.825000X-0.150000X0.825000X0.150000X-0.825000X0.150000X0*%
%ADD27R,2.410000X3.300000*%
%ADD28RoundRect,0.200000X-0.275000X0.200000X-0.275000X-0.200000X0.275000X-0.200000X0.275000X0.200000X0*%
%ADD29C,2.000000*%
%ADD30R,1.500000X1.500000*%
%ADD31C,1.500000*%
%ADD32RoundRect,0.150000X-0.512500X-0.150000X0.512500X-0.150000X0.512500X0.150000X-0.512500X0.150000X0*%
%ADD33C,1.320800*%
%ADD34C,1.752600*%
%ADD35RoundRect,0.250000X-0.325000X-0.650000X0.325000X-0.650000X0.325000X0.650000X-0.325000X0.650000X0*%
%ADD36RoundRect,0.250000X0.550000X-1.500000X0.550000X1.500000X-0.550000X1.500000X-0.550000X-1.500000X0*%
%ADD37RoundRect,0.250000X-1.500000X-0.550000X1.500000X-0.550000X1.500000X0.550000X-1.500000X0.550000X0*%
%ADD38R,1.422400X1.422400*%
%ADD39C,1.422400*%
%ADD40RoundRect,0.237500X0.250000X0.237500X-0.250000X0.237500X-0.250000X-0.237500X0.250000X-0.237500X0*%
%ADD41R,1.500000X2.200000*%
%ADD42RoundRect,0.160000X-0.160000X0.197500X-0.160000X-0.197500X0.160000X-0.197500X0.160000X0.197500X0*%
%ADD43RoundRect,0.160000X-0.197500X-0.160000X0.197500X-0.160000X0.197500X0.160000X-0.197500X0.160000X0*%
%ADD44RoundRect,0.200000X-0.450000X0.200000X-0.450000X-0.200000X0.450000X-0.200000X0.450000X0.200000X0*%
%ADD45O,1.300000X0.800000*%
%ADD46RoundRect,0.250000X-0.600000X-0.600000X0.600000X-0.600000X0.600000X0.600000X-0.600000X0.600000X0*%
G04 APERTURE END LIST*
D10*
%TO.C,R20*%
X162825000Y-103530000D03*
X161175000Y-103530000D03*
%TD*%
D11*
%TO.C,R4*%
X125175000Y-49500000D03*
X126825000Y-49500000D03*
%TD*%
D12*
%TO.C,D6*%
X159287500Y-101000000D03*
X157712500Y-101000000D03*
%TD*%
D13*
%TO.C,J1*%
X122580000Y-51000000D03*
D14*
X122580000Y-53020000D03*
D15*
X122580000Y-54250000D03*
D16*
X122580000Y-52000000D03*
D17*
X122580000Y-49980000D03*
D18*
X122580000Y-48750000D03*
D19*
X122500000Y-47180000D03*
X118700000Y-47180000D03*
X122500000Y-55820000D03*
X118700000Y-55820000D03*
%TD*%
D20*
%TO.C,J3*%
X183200000Y-110460000D03*
D21*
X183200000Y-113000000D03*
X185740000Y-110460000D03*
X185740000Y-113000000D03*
X188280000Y-110460000D03*
X188280000Y-113000000D03*
X190820000Y-110460000D03*
X190820000Y-113000000D03*
X193360000Y-110460000D03*
X193360000Y-113000000D03*
X195900000Y-110460000D03*
X195900000Y-113000000D03*
X198440000Y-110460000D03*
X198440000Y-113000000D03*
X200980000Y-110460000D03*
X200980000Y-113000000D03*
X203520000Y-110460000D03*
X203520000Y-113000000D03*
%TD*%
D22*
%TO.C,R6*%
X199898000Y-106219000D03*
X199898000Y-104394000D03*
%TD*%
D12*
%TO.C,D8*%
X159287500Y-106000000D03*
X157712500Y-106000000D03*
%TD*%
D23*
%TO.C,U2*%
X171025000Y-89400000D03*
X171025000Y-90200000D03*
X171025000Y-91000000D03*
X171025000Y-91800000D03*
X171025000Y-92600000D03*
X171025000Y-93400000D03*
X171025000Y-94200000D03*
X171025000Y-95000000D03*
D24*
X172400000Y-96375000D03*
X173200000Y-96375000D03*
X174000000Y-96375000D03*
X174800000Y-96375000D03*
X175600000Y-96375000D03*
X176400000Y-96375000D03*
X177200000Y-96375000D03*
X178000000Y-96375000D03*
D23*
X179375000Y-95000000D03*
X179375000Y-94200000D03*
X179375000Y-93400000D03*
X179375000Y-92600000D03*
X179375000Y-91800000D03*
X179375000Y-91000000D03*
X179375000Y-90200000D03*
X179375000Y-89400000D03*
D24*
X178000000Y-88025000D03*
X177200000Y-88025000D03*
X176400000Y-88025000D03*
X175600000Y-88025000D03*
X174800000Y-88025000D03*
X174000000Y-88025000D03*
X173200000Y-88025000D03*
X172400000Y-88025000D03*
%TD*%
D25*
%TO.C,D2*%
X118712500Y-82500000D03*
X120287500Y-82500000D03*
%TD*%
D10*
%TO.C,R15*%
X166325000Y-106000000D03*
X164675000Y-106000000D03*
%TD*%
D20*
%TO.C,J2*%
X184404000Y-70104000D03*
D21*
X186944000Y-70104000D03*
X189484000Y-70104000D03*
X192024000Y-70104000D03*
X194564000Y-70104000D03*
X197104000Y-70104000D03*
X199644000Y-70104000D03*
%TD*%
D20*
%TO.C,J5*%
X127200000Y-110400000D03*
D21*
X127200000Y-112940000D03*
X129740000Y-110400000D03*
X129740000Y-112940000D03*
X132280000Y-110400000D03*
X132280000Y-112940000D03*
X134820000Y-110400000D03*
X134820000Y-112940000D03*
X137360000Y-110400000D03*
X137360000Y-112940000D03*
X139900000Y-110400000D03*
X139900000Y-112940000D03*
X142440000Y-110400000D03*
X142440000Y-112940000D03*
X144980000Y-110400000D03*
X144980000Y-112940000D03*
X147520000Y-110400000D03*
X147520000Y-112940000D03*
%TD*%
D26*
%TO.C,U1*%
X129025000Y-53095000D03*
X129025000Y-54365000D03*
X129025000Y-55635000D03*
X129025000Y-56905000D03*
X133975000Y-56905000D03*
X133975000Y-55635000D03*
X133975000Y-54365000D03*
X133975000Y-53095000D03*
D27*
X131500000Y-55000000D03*
%TD*%
D28*
%TO.C,R1*%
X137000000Y-53175000D03*
X137000000Y-54825000D03*
%TD*%
D29*
%TO.C,SW2*%
X190298000Y-97064000D03*
X196798000Y-97064000D03*
X190298000Y-101564000D03*
X196798000Y-101564000D03*
%TD*%
D30*
%TO.C,U5*%
X183388000Y-64516000D03*
D31*
X185928000Y-64516000D03*
X188468000Y-64516000D03*
X191008000Y-64516000D03*
X193548000Y-64516000D03*
X196088000Y-64516000D03*
X196088000Y-49276000D03*
X193548000Y-49276000D03*
X191008000Y-49276000D03*
X188468000Y-49276000D03*
X185928000Y-49276000D03*
X183388000Y-49276000D03*
%TD*%
D28*
%TO.C,R5*%
X126000000Y-54175000D03*
X126000000Y-55825000D03*
%TD*%
D10*
%TO.C,R18*%
X162825000Y-98510000D03*
X161175000Y-98510000D03*
%TD*%
D28*
%TO.C,R2*%
X137000000Y-56175000D03*
X137000000Y-57825000D03*
%TD*%
D32*
%TO.C,U3*%
X139654500Y-45432000D03*
X139654500Y-46382000D03*
X139654500Y-47332000D03*
X141929500Y-47332000D03*
X141929500Y-46382000D03*
X141929500Y-45432000D03*
%TD*%
D10*
%TO.C,R19*%
X162825000Y-101020000D03*
X161175000Y-101020000D03*
%TD*%
D33*
%TO.C,SW1*%
X119000000Y-64000000D03*
X119000000Y-66000001D03*
X119000000Y-68000002D03*
D34*
X119000000Y-61900002D03*
X119000000Y-70100000D03*
%TD*%
D35*
%TO.C,C1*%
X123525000Y-60000000D03*
X126475000Y-60000000D03*
%TD*%
D29*
%TO.C,SW3*%
X141500000Y-65508000D03*
X148000000Y-65508000D03*
X141500000Y-70008000D03*
X148000000Y-70008000D03*
%TD*%
D20*
%TO.C,J7*%
X155200000Y-110400000D03*
D21*
X155200000Y-112940000D03*
X157740000Y-110400000D03*
X157740000Y-112940000D03*
X160280000Y-110400000D03*
X160280000Y-112940000D03*
X162820000Y-110400000D03*
X162820000Y-112940000D03*
X165360000Y-110400000D03*
X165360000Y-112940000D03*
X167900000Y-110400000D03*
X167900000Y-112940000D03*
X170440000Y-110400000D03*
X170440000Y-112940000D03*
X172980000Y-110400000D03*
X172980000Y-112940000D03*
X175520000Y-110400000D03*
X175520000Y-112940000D03*
%TD*%
D25*
%TO.C,D1*%
X118712500Y-81000000D03*
X120287500Y-81000000D03*
%TD*%
D36*
%TO.C,C2*%
X154000000Y-53400000D03*
X154000000Y-48000000D03*
%TD*%
D10*
%TO.C,R11*%
X166325000Y-96000000D03*
X164675000Y-96000000D03*
%TD*%
D37*
%TO.C,C3*%
X129300000Y-46700000D03*
X134700000Y-46700000D03*
%TD*%
D11*
%TO.C,R3*%
X125175000Y-52490000D03*
X126825000Y-52490000D03*
%TD*%
D12*
%TO.C,D3*%
X159287500Y-93500000D03*
X157712500Y-93500000D03*
%TD*%
D29*
%TO.C,SW4*%
X128292000Y-65508000D03*
X134792000Y-65508000D03*
X128292000Y-70008000D03*
X134792000Y-70008000D03*
%TD*%
%TO.C,SW5*%
X154962000Y-65000000D03*
X161462000Y-65000000D03*
X154962000Y-69500000D03*
X161462000Y-69500000D03*
%TD*%
D38*
%TO.C,U4*%
X145270000Y-86650000D03*
D39*
X142730000Y-84110000D03*
X142730000Y-86650000D03*
X140190000Y-84110000D03*
X140190000Y-86650000D03*
X137650000Y-84110000D03*
X135110000Y-86650000D03*
X137650000Y-86650000D03*
X135110000Y-89190000D03*
X137650000Y-89190000D03*
X135110000Y-91730000D03*
X137650000Y-91730000D03*
X135110000Y-94270000D03*
X137650000Y-94270000D03*
X135110000Y-96810000D03*
X137650000Y-96810000D03*
X135110000Y-99350000D03*
X137650000Y-101890000D03*
X137650000Y-99350000D03*
X140190000Y-101890000D03*
X140190000Y-99350000D03*
X142730000Y-101890000D03*
X142730000Y-99350000D03*
X145270000Y-101890000D03*
X145270000Y-99350000D03*
X147810000Y-101890000D03*
X147810000Y-99350000D03*
X150350000Y-101890000D03*
X152890000Y-99350000D03*
X150350000Y-99350000D03*
X152890000Y-96810000D03*
X150350000Y-96810000D03*
X152890000Y-94270000D03*
X150350000Y-94270000D03*
X152890000Y-91730000D03*
X150350000Y-91730000D03*
X152890000Y-89190000D03*
X150350000Y-89190000D03*
X152890000Y-86650000D03*
X150350000Y-84110000D03*
X150350000Y-86650000D03*
X147810000Y-84110000D03*
X147810000Y-86650000D03*
X145270000Y-84110000D03*
%TD*%
D40*
%TO.C,R8*%
X164912500Y-79500000D03*
X163087500Y-79500000D03*
%TD*%
D41*
%TO.C,L1*%
X139878000Y-52986000D03*
X146278000Y-52986000D03*
%TD*%
D42*
%TO.C,R9*%
X145364000Y-45620000D03*
X145364000Y-46815000D03*
%TD*%
D43*
%TO.C,R26*%
X147163000Y-62460000D03*
X148358000Y-62460000D03*
%TD*%
%TO.C,R27*%
X133626000Y-63222000D03*
X134821000Y-63222000D03*
%TD*%
D10*
%TO.C,R21*%
X162825000Y-106040000D03*
X161175000Y-106040000D03*
%TD*%
D20*
%TO.C,J4*%
X211074000Y-93726000D03*
D21*
X211074000Y-96266000D03*
X211074000Y-98806000D03*
X211074000Y-101346000D03*
X211074000Y-103886000D03*
X211074000Y-106426000D03*
%TD*%
D10*
%TO.C,R13*%
X166325000Y-101000000D03*
X164675000Y-101000000D03*
%TD*%
D44*
%TO.C,BT1*%
X123000000Y-75500000D03*
D45*
X123000000Y-76750000D03*
%TD*%
D10*
%TO.C,R10*%
X166325000Y-93460000D03*
X164675000Y-93460000D03*
%TD*%
%TO.C,R16*%
X162825000Y-93500000D03*
X161175000Y-93500000D03*
%TD*%
D46*
%TO.C,J6*%
X122747500Y-90420000D03*
D21*
X125287500Y-90420000D03*
X122747500Y-92960000D03*
X125287500Y-92960000D03*
X122747500Y-95500000D03*
X125287500Y-95500000D03*
X122747500Y-98040000D03*
X125287500Y-98040000D03*
X122747500Y-100580000D03*
X125287500Y-100580000D03*
%TD*%
D12*
%TO.C,D7*%
X159287500Y-103500000D03*
X157712500Y-103500000D03*
%TD*%
D10*
%TO.C,R14*%
X166325000Y-103500000D03*
X164675000Y-103500000D03*
%TD*%
D12*
%TO.C,D4*%
X159287500Y-96090000D03*
X157712500Y-96090000D03*
%TD*%
D43*
%TO.C,R28*%
X160550000Y-62460000D03*
X161745000Y-62460000D03*
%TD*%
D10*
%TO.C,R17*%
X162825000Y-96010000D03*
X161175000Y-96010000D03*
%TD*%
D42*
%TO.C,R7*%
X144094000Y-44260500D03*
X144094000Y-45455500D03*
%TD*%
D12*
%TO.C,D5*%
X159287500Y-98500000D03*
X157712500Y-98500000D03*
%TD*%
D10*
%TO.C,R12*%
X166325000Y-98500000D03*
X164675000Y-98500000D03*
%TD*%
M02*
