%TF.GenerationSoftware,KiCad,Pcbnew,9.0.4*%
%TF.CreationDate,2026-02-15T11:37:20+09:00*%
%TF.ProjectId,SPLD_Test,53504c44-5f54-4657-9374-2e6b69636164,rev?*%
%TF.SameCoordinates,Original*%
%TF.FileFunction,Soldermask,Bot*%
%TF.FilePolarity,Negative*%
%FSLAX46Y46*%
G04 Gerber Fmt 4.6, Leading zero omitted, Abs format (unit mm)*
G04 Created by KiCad (PCBNEW 9.0.4) date 2026-02-15 11:37:20*
%MOMM*%
%LPD*%
G01*
G04 APERTURE LIST*
G04 Aperture macros list*
%AMRoundRect*
0 Rectangle with rounded corners*
0 $1 Rounding radius*
0 $2 $3 $4 $5 $6 $7 $8 $9 X,Y pos of 4 corners*
0 Add a 4 corners polygon primitive as box body*
4,1,4,$2,$3,$4,$5,$6,$7,$8,$9,$2,$3,0*
0 Add four circle primitives for the rounded corners*
1,1,$1+$1,$2,$3*
1,1,$1+$1,$4,$5*
1,1,$1+$1,$6,$7*
1,1,$1+$1,$8,$9*
0 Add four rect primitives between the rounded corners*
20,1,$1+$1,$2,$3,$4,$5,0*
20,1,$1+$1,$4,$5,$6,$7,0*
20,1,$1+$1,$6,$7,$8,$9,0*
20,1,$1+$1,$8,$9,$2,$3,0*%
G04 Aperture macros list end*
%ADD10O,1.700000X1.100000*%
%ADD11R,1.700000X1.700000*%
%ADD12C,1.700000*%
%ADD13C,2.000000*%
%ADD14R,1.500000X1.500000*%
%ADD15C,1.500000*%
%ADD16C,1.320800*%
%ADD17C,1.752600*%
%ADD18R,1.422400X1.422400*%
%ADD19C,1.422400*%
%ADD20RoundRect,0.200000X-0.450000X0.200000X-0.450000X-0.200000X0.450000X-0.200000X0.450000X0.200000X0*%
%ADD21O,1.300000X0.800000*%
%ADD22RoundRect,0.250000X-0.600000X-0.600000X0.600000X-0.600000X0.600000X0.600000X-0.600000X0.600000X0*%
%ADD23RoundRect,0.160000X-0.197500X-0.160000X0.197500X-0.160000X0.197500X0.160000X-0.197500X0.160000X0*%
G04 APERTURE END LIST*
D10*
%TO.C,J1*%
X122500000Y-47180000D03*
X118700000Y-47180000D03*
X122500000Y-55820000D03*
X118700000Y-55820000D03*
%TD*%
D11*
%TO.C,J3*%
X183200000Y-110460000D03*
D12*
X183200000Y-113000000D03*
X185740000Y-110460000D03*
X185740000Y-113000000D03*
X188280000Y-110460000D03*
X188280000Y-113000000D03*
X190820000Y-110460000D03*
X190820000Y-113000000D03*
X193360000Y-110460000D03*
X193360000Y-113000000D03*
X195900000Y-110460000D03*
X195900000Y-113000000D03*
X198440000Y-110460000D03*
X198440000Y-113000000D03*
X200980000Y-110460000D03*
X200980000Y-113000000D03*
X203520000Y-110460000D03*
X203520000Y-113000000D03*
%TD*%
D11*
%TO.C,J2*%
X184404000Y-70104000D03*
D12*
X186944000Y-70104000D03*
X189484000Y-70104000D03*
X192024000Y-70104000D03*
X194564000Y-70104000D03*
X197104000Y-70104000D03*
X199644000Y-70104000D03*
%TD*%
D11*
%TO.C,J5*%
X127200000Y-110400000D03*
D12*
X127200000Y-112940000D03*
X129740000Y-110400000D03*
X129740000Y-112940000D03*
X132280000Y-110400000D03*
X132280000Y-112940000D03*
X134820000Y-110400000D03*
X134820000Y-112940000D03*
X137360000Y-110400000D03*
X137360000Y-112940000D03*
X139900000Y-110400000D03*
X139900000Y-112940000D03*
X142440000Y-110400000D03*
X142440000Y-112940000D03*
X144980000Y-110400000D03*
X144980000Y-112940000D03*
X147520000Y-110400000D03*
X147520000Y-112940000D03*
%TD*%
D13*
%TO.C,SW2*%
X190298000Y-97064000D03*
X196798000Y-97064000D03*
X190298000Y-101564000D03*
X196798000Y-101564000D03*
%TD*%
D14*
%TO.C,U5*%
X183388000Y-64516000D03*
D15*
X185928000Y-64516000D03*
X188468000Y-64516000D03*
X191008000Y-64516000D03*
X193548000Y-64516000D03*
X196088000Y-64516000D03*
X196088000Y-49276000D03*
X193548000Y-49276000D03*
X191008000Y-49276000D03*
X188468000Y-49276000D03*
X185928000Y-49276000D03*
X183388000Y-49276000D03*
%TD*%
D16*
%TO.C,SW1*%
X119000000Y-64000000D03*
X119000000Y-66000001D03*
X119000000Y-68000002D03*
D17*
X119000000Y-61900002D03*
X119000000Y-70100000D03*
%TD*%
D13*
%TO.C,SW3*%
X141500000Y-65508000D03*
X148000000Y-65508000D03*
X141500000Y-70008000D03*
X148000000Y-70008000D03*
%TD*%
D11*
%TO.C,J7*%
X155200000Y-110400000D03*
D12*
X155200000Y-112940000D03*
X157740000Y-110400000D03*
X157740000Y-112940000D03*
X160280000Y-110400000D03*
X160280000Y-112940000D03*
X162820000Y-110400000D03*
X162820000Y-112940000D03*
X165360000Y-110400000D03*
X165360000Y-112940000D03*
X167900000Y-110400000D03*
X167900000Y-112940000D03*
X170440000Y-110400000D03*
X170440000Y-112940000D03*
X172980000Y-110400000D03*
X172980000Y-112940000D03*
X175520000Y-110400000D03*
X175520000Y-112940000D03*
%TD*%
D13*
%TO.C,SW4*%
X128292000Y-65508000D03*
X134792000Y-65508000D03*
X128292000Y-70008000D03*
X134792000Y-70008000D03*
%TD*%
%TO.C,SW5*%
X154962000Y-65000000D03*
X161462000Y-65000000D03*
X154962000Y-69500000D03*
X161462000Y-69500000D03*
%TD*%
D18*
%TO.C,U4*%
X145270000Y-86650000D03*
D19*
X142730000Y-84110000D03*
X142730000Y-86650000D03*
X140190000Y-84110000D03*
X140190000Y-86650000D03*
X137650000Y-84110000D03*
X135110000Y-86650000D03*
X137650000Y-86650000D03*
X135110000Y-89190000D03*
X137650000Y-89190000D03*
X135110000Y-91730000D03*
X137650000Y-91730000D03*
X135110000Y-94270000D03*
X137650000Y-94270000D03*
X135110000Y-96810000D03*
X137650000Y-96810000D03*
X135110000Y-99350000D03*
X137650000Y-101890000D03*
X137650000Y-99350000D03*
X140190000Y-101890000D03*
X140190000Y-99350000D03*
X142730000Y-101890000D03*
X142730000Y-99350000D03*
X145270000Y-101890000D03*
X145270000Y-99350000D03*
X147810000Y-101890000D03*
X147810000Y-99350000D03*
X150350000Y-101890000D03*
X152890000Y-99350000D03*
X150350000Y-99350000D03*
X152890000Y-96810000D03*
X150350000Y-96810000D03*
X152890000Y-94270000D03*
X150350000Y-94270000D03*
X152890000Y-91730000D03*
X150350000Y-91730000D03*
X152890000Y-89190000D03*
X150350000Y-89190000D03*
X152890000Y-86650000D03*
X150350000Y-84110000D03*
X150350000Y-86650000D03*
X147810000Y-84110000D03*
X147810000Y-86650000D03*
X145270000Y-84110000D03*
%TD*%
D11*
%TO.C,J4*%
X211074000Y-93726000D03*
D12*
X211074000Y-96266000D03*
X211074000Y-98806000D03*
X211074000Y-101346000D03*
X211074000Y-103886000D03*
X211074000Y-106426000D03*
%TD*%
D20*
%TO.C,BT1*%
X123000000Y-75500000D03*
D21*
X123000000Y-76750000D03*
%TD*%
D22*
%TO.C,J6*%
X122747500Y-90420000D03*
D12*
X125287500Y-90420000D03*
X122747500Y-92960000D03*
X125287500Y-92960000D03*
X122747500Y-95500000D03*
X125287500Y-95500000D03*
X122747500Y-98040000D03*
X125287500Y-98040000D03*
X122747500Y-100580000D03*
X125287500Y-100580000D03*
%TD*%
D23*
%TO.C,R24*%
X177602500Y-57400000D03*
X178797500Y-57400000D03*
%TD*%
%TO.C,R22*%
X177602500Y-51000000D03*
X178797500Y-51000000D03*
%TD*%
%TO.C,R23*%
X177602500Y-54600000D03*
X178797500Y-54600000D03*
%TD*%
%TO.C,R32*%
X177602500Y-58800000D03*
X178797500Y-58800000D03*
%TD*%
%TO.C,R30*%
X177602500Y-52400000D03*
X178797500Y-52400000D03*
%TD*%
%TO.C,R31*%
X177602500Y-56000000D03*
X178797500Y-56000000D03*
%TD*%
%TO.C,R29*%
X177602500Y-61600000D03*
X178797500Y-61600000D03*
%TD*%
%TO.C,R25*%
X177602500Y-60200000D03*
X178797500Y-60200000D03*
%TD*%
M02*
