%TF.GenerationSoftware,KiCad,Pcbnew,9.0.4*%
%TF.CreationDate,2026-02-15T11:37:20+09:00*%
%TF.ProjectId,SPLD_Test,53504c44-5f54-4657-9374-2e6b69636164,rev?*%
%TF.SameCoordinates,Original*%
%TF.FileFunction,Legend,Top*%
%TF.FilePolarity,Positive*%
%FSLAX46Y46*%
G04 Gerber Fmt 4.6, Leading zero omitted, Abs format (unit mm)*
G04 Created by KiCad (PCBNEW 9.0.4) date 2026-02-15 11:37:20*
%MOMM*%
%LPD*%
G01*
G04 APERTURE LIST*
%ADD10C,0.300000*%
%ADD11C,0.150000*%
%ADD12C,0.120000*%
%ADD13C,0.152400*%
%ADD14C,0.508000*%
G04 APERTURE END LIST*
D10*
X172011653Y-79643055D02*
X171940225Y-79714484D01*
X171940225Y-79714484D02*
X171725939Y-79785912D01*
X171725939Y-79785912D02*
X171583082Y-79785912D01*
X171583082Y-79785912D02*
X171368796Y-79714484D01*
X171368796Y-79714484D02*
X171225939Y-79571626D01*
X171225939Y-79571626D02*
X171154510Y-79428769D01*
X171154510Y-79428769D02*
X171083082Y-79143055D01*
X171083082Y-79143055D02*
X171083082Y-78928769D01*
X171083082Y-78928769D02*
X171154510Y-78643055D01*
X171154510Y-78643055D02*
X171225939Y-78500198D01*
X171225939Y-78500198D02*
X171368796Y-78357341D01*
X171368796Y-78357341D02*
X171583082Y-78285912D01*
X171583082Y-78285912D02*
X171725939Y-78285912D01*
X171725939Y-78285912D02*
X171940225Y-78357341D01*
X171940225Y-78357341D02*
X172011653Y-78428769D01*
X172654510Y-79785912D02*
X172654510Y-78285912D01*
X172654510Y-78285912D02*
X173225939Y-78285912D01*
X173225939Y-78285912D02*
X173368796Y-78357341D01*
X173368796Y-78357341D02*
X173440225Y-78428769D01*
X173440225Y-78428769D02*
X173511653Y-78571626D01*
X173511653Y-78571626D02*
X173511653Y-78785912D01*
X173511653Y-78785912D02*
X173440225Y-78928769D01*
X173440225Y-78928769D02*
X173368796Y-79000198D01*
X173368796Y-79000198D02*
X173225939Y-79071626D01*
X173225939Y-79071626D02*
X172654510Y-79071626D01*
X174868796Y-79785912D02*
X174154510Y-79785912D01*
X174154510Y-79785912D02*
X174154510Y-78285912D01*
X175368796Y-79785912D02*
X175368796Y-78285912D01*
X175368796Y-78285912D02*
X175725939Y-78285912D01*
X175725939Y-78285912D02*
X175940225Y-78357341D01*
X175940225Y-78357341D02*
X176083082Y-78500198D01*
X176083082Y-78500198D02*
X176154511Y-78643055D01*
X176154511Y-78643055D02*
X176225939Y-78928769D01*
X176225939Y-78928769D02*
X176225939Y-79143055D01*
X176225939Y-79143055D02*
X176154511Y-79428769D01*
X176154511Y-79428769D02*
X176083082Y-79571626D01*
X176083082Y-79571626D02*
X175940225Y-79714484D01*
X175940225Y-79714484D02*
X175725939Y-79785912D01*
X175725939Y-79785912D02*
X175368796Y-79785912D01*
X179225939Y-79785912D02*
X179154511Y-79785912D01*
X179154511Y-79785912D02*
X179011653Y-79714484D01*
X179011653Y-79714484D02*
X178797368Y-79500198D01*
X178797368Y-79500198D02*
X178440225Y-79071626D01*
X178440225Y-79071626D02*
X178297368Y-78857341D01*
X178297368Y-78857341D02*
X178225939Y-78643055D01*
X178225939Y-78643055D02*
X178225939Y-78500198D01*
X178225939Y-78500198D02*
X178297368Y-78357341D01*
X178297368Y-78357341D02*
X178440225Y-78285912D01*
X178440225Y-78285912D02*
X178511653Y-78285912D01*
X178511653Y-78285912D02*
X178654511Y-78357341D01*
X178654511Y-78357341D02*
X178725939Y-78500198D01*
X178725939Y-78500198D02*
X178725939Y-78571626D01*
X178725939Y-78571626D02*
X178654511Y-78714484D01*
X178654511Y-78714484D02*
X178583082Y-78785912D01*
X178583082Y-78785912D02*
X178154511Y-79071626D01*
X178154511Y-79071626D02*
X178083082Y-79143055D01*
X178083082Y-79143055D02*
X178011653Y-79285912D01*
X178011653Y-79285912D02*
X178011653Y-79500198D01*
X178011653Y-79500198D02*
X178083082Y-79643055D01*
X178083082Y-79643055D02*
X178154511Y-79714484D01*
X178154511Y-79714484D02*
X178297368Y-79785912D01*
X178297368Y-79785912D02*
X178511653Y-79785912D01*
X178511653Y-79785912D02*
X178654511Y-79714484D01*
X178654511Y-79714484D02*
X178725939Y-79643055D01*
X178725939Y-79643055D02*
X178940225Y-79357341D01*
X178940225Y-79357341D02*
X179011653Y-79143055D01*
X179011653Y-79143055D02*
X179011653Y-79000198D01*
X180940225Y-79714484D02*
X181154511Y-79785912D01*
X181154511Y-79785912D02*
X181511653Y-79785912D01*
X181511653Y-79785912D02*
X181654511Y-79714484D01*
X181654511Y-79714484D02*
X181725939Y-79643055D01*
X181725939Y-79643055D02*
X181797368Y-79500198D01*
X181797368Y-79500198D02*
X181797368Y-79357341D01*
X181797368Y-79357341D02*
X181725939Y-79214484D01*
X181725939Y-79214484D02*
X181654511Y-79143055D01*
X181654511Y-79143055D02*
X181511653Y-79071626D01*
X181511653Y-79071626D02*
X181225939Y-79000198D01*
X181225939Y-79000198D02*
X181083082Y-78928769D01*
X181083082Y-78928769D02*
X181011653Y-78857341D01*
X181011653Y-78857341D02*
X180940225Y-78714484D01*
X180940225Y-78714484D02*
X180940225Y-78571626D01*
X180940225Y-78571626D02*
X181011653Y-78428769D01*
X181011653Y-78428769D02*
X181083082Y-78357341D01*
X181083082Y-78357341D02*
X181225939Y-78285912D01*
X181225939Y-78285912D02*
X181583082Y-78285912D01*
X181583082Y-78285912D02*
X181797368Y-78357341D01*
X182225939Y-78285912D02*
X183083082Y-78285912D01*
X182654510Y-79785912D02*
X182654510Y-78285912D01*
X183583081Y-79785912D02*
X183583081Y-78285912D01*
X183583081Y-78285912D02*
X184083081Y-79357341D01*
X184083081Y-79357341D02*
X184583081Y-78285912D01*
X184583081Y-78285912D02*
X184583081Y-79785912D01*
X185154510Y-78285912D02*
X186083082Y-78285912D01*
X186083082Y-78285912D02*
X185583082Y-78857341D01*
X185583082Y-78857341D02*
X185797367Y-78857341D01*
X185797367Y-78857341D02*
X185940225Y-78928769D01*
X185940225Y-78928769D02*
X186011653Y-79000198D01*
X186011653Y-79000198D02*
X186083082Y-79143055D01*
X186083082Y-79143055D02*
X186083082Y-79500198D01*
X186083082Y-79500198D02*
X186011653Y-79643055D01*
X186011653Y-79643055D02*
X185940225Y-79714484D01*
X185940225Y-79714484D02*
X185797367Y-79785912D01*
X185797367Y-79785912D02*
X185368796Y-79785912D01*
X185368796Y-79785912D02*
X185225939Y-79714484D01*
X185225939Y-79714484D02*
X185154510Y-79643055D01*
X186654510Y-78428769D02*
X186725938Y-78357341D01*
X186725938Y-78357341D02*
X186868796Y-78285912D01*
X186868796Y-78285912D02*
X187225938Y-78285912D01*
X187225938Y-78285912D02*
X187368796Y-78357341D01*
X187368796Y-78357341D02*
X187440224Y-78428769D01*
X187440224Y-78428769D02*
X187511653Y-78571626D01*
X187511653Y-78571626D02*
X187511653Y-78714484D01*
X187511653Y-78714484D02*
X187440224Y-78928769D01*
X187440224Y-78928769D02*
X186583081Y-79785912D01*
X186583081Y-79785912D02*
X187511653Y-79785912D01*
X188654509Y-79000198D02*
X188154509Y-79000198D01*
X188154509Y-79785912D02*
X188154509Y-78285912D01*
X188154509Y-78285912D02*
X188868795Y-78285912D01*
X189725938Y-78285912D02*
X189868795Y-78285912D01*
X189868795Y-78285912D02*
X190011652Y-78357341D01*
X190011652Y-78357341D02*
X190083081Y-78428769D01*
X190083081Y-78428769D02*
X190154509Y-78571626D01*
X190154509Y-78571626D02*
X190225938Y-78857341D01*
X190225938Y-78857341D02*
X190225938Y-79214484D01*
X190225938Y-79214484D02*
X190154509Y-79500198D01*
X190154509Y-79500198D02*
X190083081Y-79643055D01*
X190083081Y-79643055D02*
X190011652Y-79714484D01*
X190011652Y-79714484D02*
X189868795Y-79785912D01*
X189868795Y-79785912D02*
X189725938Y-79785912D01*
X189725938Y-79785912D02*
X189583081Y-79714484D01*
X189583081Y-79714484D02*
X189511652Y-79643055D01*
X189511652Y-79643055D02*
X189440223Y-79500198D01*
X189440223Y-79500198D02*
X189368795Y-79214484D01*
X189368795Y-79214484D02*
X189368795Y-78857341D01*
X189368795Y-78857341D02*
X189440223Y-78571626D01*
X189440223Y-78571626D02*
X189511652Y-78428769D01*
X189511652Y-78428769D02*
X189583081Y-78357341D01*
X189583081Y-78357341D02*
X189725938Y-78285912D01*
X190725937Y-78285912D02*
X191654509Y-78285912D01*
X191654509Y-78285912D02*
X191154509Y-78857341D01*
X191154509Y-78857341D02*
X191368794Y-78857341D01*
X191368794Y-78857341D02*
X191511652Y-78928769D01*
X191511652Y-78928769D02*
X191583080Y-79000198D01*
X191583080Y-79000198D02*
X191654509Y-79143055D01*
X191654509Y-79143055D02*
X191654509Y-79500198D01*
X191654509Y-79500198D02*
X191583080Y-79643055D01*
X191583080Y-79643055D02*
X191511652Y-79714484D01*
X191511652Y-79714484D02*
X191368794Y-79785912D01*
X191368794Y-79785912D02*
X190940223Y-79785912D01*
X190940223Y-79785912D02*
X190797366Y-79714484D01*
X190797366Y-79714484D02*
X190725937Y-79643055D01*
X192583080Y-78285912D02*
X192725937Y-78285912D01*
X192725937Y-78285912D02*
X192868794Y-78357341D01*
X192868794Y-78357341D02*
X192940223Y-78428769D01*
X192940223Y-78428769D02*
X193011651Y-78571626D01*
X193011651Y-78571626D02*
X193083080Y-78857341D01*
X193083080Y-78857341D02*
X193083080Y-79214484D01*
X193083080Y-79214484D02*
X193011651Y-79500198D01*
X193011651Y-79500198D02*
X192940223Y-79643055D01*
X192940223Y-79643055D02*
X192868794Y-79714484D01*
X192868794Y-79714484D02*
X192725937Y-79785912D01*
X192725937Y-79785912D02*
X192583080Y-79785912D01*
X192583080Y-79785912D02*
X192440223Y-79714484D01*
X192440223Y-79714484D02*
X192368794Y-79643055D01*
X192368794Y-79643055D02*
X192297365Y-79500198D01*
X192297365Y-79500198D02*
X192225937Y-79214484D01*
X192225937Y-79214484D02*
X192225937Y-78857341D01*
X192225937Y-78857341D02*
X192297365Y-78571626D01*
X192297365Y-78571626D02*
X192368794Y-78428769D01*
X192368794Y-78428769D02*
X192440223Y-78357341D01*
X192440223Y-78357341D02*
X192583080Y-78285912D01*
X193725936Y-79785912D02*
X193725936Y-78285912D01*
X194583079Y-79785912D02*
X193940222Y-78928769D01*
X194583079Y-78285912D02*
X193725936Y-79143055D01*
X196154508Y-78285912D02*
X197011651Y-78285912D01*
X196583079Y-79785912D02*
X196583079Y-78285912D01*
X198083079Y-79714484D02*
X197940222Y-79785912D01*
X197940222Y-79785912D02*
X197654508Y-79785912D01*
X197654508Y-79785912D02*
X197511650Y-79714484D01*
X197511650Y-79714484D02*
X197440222Y-79571626D01*
X197440222Y-79571626D02*
X197440222Y-79000198D01*
X197440222Y-79000198D02*
X197511650Y-78857341D01*
X197511650Y-78857341D02*
X197654508Y-78785912D01*
X197654508Y-78785912D02*
X197940222Y-78785912D01*
X197940222Y-78785912D02*
X198083079Y-78857341D01*
X198083079Y-78857341D02*
X198154508Y-79000198D01*
X198154508Y-79000198D02*
X198154508Y-79143055D01*
X198154508Y-79143055D02*
X197440222Y-79285912D01*
X198725936Y-79714484D02*
X198868793Y-79785912D01*
X198868793Y-79785912D02*
X199154507Y-79785912D01*
X199154507Y-79785912D02*
X199297364Y-79714484D01*
X199297364Y-79714484D02*
X199368793Y-79571626D01*
X199368793Y-79571626D02*
X199368793Y-79500198D01*
X199368793Y-79500198D02*
X199297364Y-79357341D01*
X199297364Y-79357341D02*
X199154507Y-79285912D01*
X199154507Y-79285912D02*
X198940222Y-79285912D01*
X198940222Y-79285912D02*
X198797364Y-79214484D01*
X198797364Y-79214484D02*
X198725936Y-79071626D01*
X198725936Y-79071626D02*
X198725936Y-79000198D01*
X198725936Y-79000198D02*
X198797364Y-78857341D01*
X198797364Y-78857341D02*
X198940222Y-78785912D01*
X198940222Y-78785912D02*
X199154507Y-78785912D01*
X199154507Y-78785912D02*
X199297364Y-78857341D01*
X199797365Y-78785912D02*
X200368793Y-78785912D01*
X200011650Y-78285912D02*
X200011650Y-79571626D01*
X200011650Y-79571626D02*
X200083079Y-79714484D01*
X200083079Y-79714484D02*
X200225936Y-79785912D01*
X200225936Y-79785912D02*
X200368793Y-79785912D01*
X202511650Y-79000198D02*
X202725936Y-79071626D01*
X202725936Y-79071626D02*
X202797365Y-79143055D01*
X202797365Y-79143055D02*
X202868793Y-79285912D01*
X202868793Y-79285912D02*
X202868793Y-79500198D01*
X202868793Y-79500198D02*
X202797365Y-79643055D01*
X202797365Y-79643055D02*
X202725936Y-79714484D01*
X202725936Y-79714484D02*
X202583079Y-79785912D01*
X202583079Y-79785912D02*
X202011650Y-79785912D01*
X202011650Y-79785912D02*
X202011650Y-78285912D01*
X202011650Y-78285912D02*
X202511650Y-78285912D01*
X202511650Y-78285912D02*
X202654508Y-78357341D01*
X202654508Y-78357341D02*
X202725936Y-78428769D01*
X202725936Y-78428769D02*
X202797365Y-78571626D01*
X202797365Y-78571626D02*
X202797365Y-78714484D01*
X202797365Y-78714484D02*
X202725936Y-78857341D01*
X202725936Y-78857341D02*
X202654508Y-78928769D01*
X202654508Y-78928769D02*
X202511650Y-79000198D01*
X202511650Y-79000198D02*
X202011650Y-79000198D01*
X203725936Y-79785912D02*
X203583079Y-79714484D01*
X203583079Y-79714484D02*
X203511650Y-79643055D01*
X203511650Y-79643055D02*
X203440222Y-79500198D01*
X203440222Y-79500198D02*
X203440222Y-79071626D01*
X203440222Y-79071626D02*
X203511650Y-78928769D01*
X203511650Y-78928769D02*
X203583079Y-78857341D01*
X203583079Y-78857341D02*
X203725936Y-78785912D01*
X203725936Y-78785912D02*
X203940222Y-78785912D01*
X203940222Y-78785912D02*
X204083079Y-78857341D01*
X204083079Y-78857341D02*
X204154508Y-78928769D01*
X204154508Y-78928769D02*
X204225936Y-79071626D01*
X204225936Y-79071626D02*
X204225936Y-79500198D01*
X204225936Y-79500198D02*
X204154508Y-79643055D01*
X204154508Y-79643055D02*
X204083079Y-79714484D01*
X204083079Y-79714484D02*
X203940222Y-79785912D01*
X203940222Y-79785912D02*
X203725936Y-79785912D01*
X205511651Y-79785912D02*
X205511651Y-79000198D01*
X205511651Y-79000198D02*
X205440222Y-78857341D01*
X205440222Y-78857341D02*
X205297365Y-78785912D01*
X205297365Y-78785912D02*
X205011651Y-78785912D01*
X205011651Y-78785912D02*
X204868793Y-78857341D01*
X205511651Y-79714484D02*
X205368793Y-79785912D01*
X205368793Y-79785912D02*
X205011651Y-79785912D01*
X205011651Y-79785912D02*
X204868793Y-79714484D01*
X204868793Y-79714484D02*
X204797365Y-79571626D01*
X204797365Y-79571626D02*
X204797365Y-79428769D01*
X204797365Y-79428769D02*
X204868793Y-79285912D01*
X204868793Y-79285912D02*
X205011651Y-79214484D01*
X205011651Y-79214484D02*
X205368793Y-79214484D01*
X205368793Y-79214484D02*
X205511651Y-79143055D01*
X206225936Y-79785912D02*
X206225936Y-78785912D01*
X206225936Y-79071626D02*
X206297365Y-78928769D01*
X206297365Y-78928769D02*
X206368794Y-78857341D01*
X206368794Y-78857341D02*
X206511651Y-78785912D01*
X206511651Y-78785912D02*
X206654508Y-78785912D01*
X207797365Y-79785912D02*
X207797365Y-78285912D01*
X207797365Y-79714484D02*
X207654507Y-79785912D01*
X207654507Y-79785912D02*
X207368793Y-79785912D01*
X207368793Y-79785912D02*
X207225936Y-79714484D01*
X207225936Y-79714484D02*
X207154507Y-79643055D01*
X207154507Y-79643055D02*
X207083079Y-79500198D01*
X207083079Y-79500198D02*
X207083079Y-79071626D01*
X207083079Y-79071626D02*
X207154507Y-78928769D01*
X207154507Y-78928769D02*
X207225936Y-78857341D01*
X207225936Y-78857341D02*
X207368793Y-78785912D01*
X207368793Y-78785912D02*
X207654507Y-78785912D01*
X207654507Y-78785912D02*
X207797365Y-78857341D01*
X171154510Y-82200828D02*
X171154510Y-81200828D01*
X171154510Y-81343685D02*
X171225939Y-81272257D01*
X171225939Y-81272257D02*
X171368796Y-81200828D01*
X171368796Y-81200828D02*
X171583082Y-81200828D01*
X171583082Y-81200828D02*
X171725939Y-81272257D01*
X171725939Y-81272257D02*
X171797368Y-81415114D01*
X171797368Y-81415114D02*
X171797368Y-82200828D01*
X171797368Y-81415114D02*
X171868796Y-81272257D01*
X171868796Y-81272257D02*
X172011653Y-81200828D01*
X172011653Y-81200828D02*
X172225939Y-81200828D01*
X172225939Y-81200828D02*
X172368796Y-81272257D01*
X172368796Y-81272257D02*
X172440225Y-81415114D01*
X172440225Y-81415114D02*
X172440225Y-82200828D01*
X173797368Y-82200828D02*
X173797368Y-81415114D01*
X173797368Y-81415114D02*
X173725939Y-81272257D01*
X173725939Y-81272257D02*
X173583082Y-81200828D01*
X173583082Y-81200828D02*
X173297368Y-81200828D01*
X173297368Y-81200828D02*
X173154510Y-81272257D01*
X173797368Y-82129400D02*
X173654510Y-82200828D01*
X173654510Y-82200828D02*
X173297368Y-82200828D01*
X173297368Y-82200828D02*
X173154510Y-82129400D01*
X173154510Y-82129400D02*
X173083082Y-81986542D01*
X173083082Y-81986542D02*
X173083082Y-81843685D01*
X173083082Y-81843685D02*
X173154510Y-81700828D01*
X173154510Y-81700828D02*
X173297368Y-81629400D01*
X173297368Y-81629400D02*
X173654510Y-81629400D01*
X173654510Y-81629400D02*
X173797368Y-81557971D01*
X175154511Y-82200828D02*
X175154511Y-80700828D01*
X175154511Y-82129400D02*
X175011653Y-82200828D01*
X175011653Y-82200828D02*
X174725939Y-82200828D01*
X174725939Y-82200828D02*
X174583082Y-82129400D01*
X174583082Y-82129400D02*
X174511653Y-82057971D01*
X174511653Y-82057971D02*
X174440225Y-81915114D01*
X174440225Y-81915114D02*
X174440225Y-81486542D01*
X174440225Y-81486542D02*
X174511653Y-81343685D01*
X174511653Y-81343685D02*
X174583082Y-81272257D01*
X174583082Y-81272257D02*
X174725939Y-81200828D01*
X174725939Y-81200828D02*
X175011653Y-81200828D01*
X175011653Y-81200828D02*
X175154511Y-81272257D01*
X176440225Y-82129400D02*
X176297368Y-82200828D01*
X176297368Y-82200828D02*
X176011654Y-82200828D01*
X176011654Y-82200828D02*
X175868796Y-82129400D01*
X175868796Y-82129400D02*
X175797368Y-81986542D01*
X175797368Y-81986542D02*
X175797368Y-81415114D01*
X175797368Y-81415114D02*
X175868796Y-81272257D01*
X175868796Y-81272257D02*
X176011654Y-81200828D01*
X176011654Y-81200828D02*
X176297368Y-81200828D01*
X176297368Y-81200828D02*
X176440225Y-81272257D01*
X176440225Y-81272257D02*
X176511654Y-81415114D01*
X176511654Y-81415114D02*
X176511654Y-81557971D01*
X176511654Y-81557971D02*
X175797368Y-81700828D01*
X178297367Y-82200828D02*
X178297367Y-80700828D01*
X178297367Y-81272257D02*
X178440225Y-81200828D01*
X178440225Y-81200828D02*
X178725939Y-81200828D01*
X178725939Y-81200828D02*
X178868796Y-81272257D01*
X178868796Y-81272257D02*
X178940225Y-81343685D01*
X178940225Y-81343685D02*
X179011653Y-81486542D01*
X179011653Y-81486542D02*
X179011653Y-81915114D01*
X179011653Y-81915114D02*
X178940225Y-82057971D01*
X178940225Y-82057971D02*
X178868796Y-82129400D01*
X178868796Y-82129400D02*
X178725939Y-82200828D01*
X178725939Y-82200828D02*
X178440225Y-82200828D01*
X178440225Y-82200828D02*
X178297367Y-82129400D01*
X179511653Y-81200828D02*
X179868796Y-82200828D01*
X180225939Y-81200828D02*
X179868796Y-82200828D01*
X179868796Y-82200828D02*
X179725939Y-82557971D01*
X179725939Y-82557971D02*
X179654510Y-82629400D01*
X179654510Y-82629400D02*
X179511653Y-82700828D01*
X182725939Y-80772257D02*
X182583082Y-80700828D01*
X182583082Y-80700828D02*
X182368796Y-80700828D01*
X182368796Y-80700828D02*
X182154510Y-80772257D01*
X182154510Y-80772257D02*
X182011653Y-80915114D01*
X182011653Y-80915114D02*
X181940224Y-81057971D01*
X181940224Y-81057971D02*
X181868796Y-81343685D01*
X181868796Y-81343685D02*
X181868796Y-81557971D01*
X181868796Y-81557971D02*
X181940224Y-81843685D01*
X181940224Y-81843685D02*
X182011653Y-81986542D01*
X182011653Y-81986542D02*
X182154510Y-82129400D01*
X182154510Y-82129400D02*
X182368796Y-82200828D01*
X182368796Y-82200828D02*
X182511653Y-82200828D01*
X182511653Y-82200828D02*
X182725939Y-82129400D01*
X182725939Y-82129400D02*
X182797367Y-82057971D01*
X182797367Y-82057971D02*
X182797367Y-81557971D01*
X182797367Y-81557971D02*
X182511653Y-81557971D01*
X183440224Y-82200828D02*
X183440224Y-80700828D01*
X183440224Y-81415114D02*
X184297367Y-81415114D01*
X184297367Y-82200828D02*
X184297367Y-80700828D01*
X186154510Y-82200828D02*
X186154510Y-80700828D01*
X186154510Y-80700828D02*
X186725939Y-80700828D01*
X186725939Y-80700828D02*
X186868796Y-80772257D01*
X186868796Y-80772257D02*
X186940225Y-80843685D01*
X186940225Y-80843685D02*
X187011653Y-80986542D01*
X187011653Y-80986542D02*
X187011653Y-81200828D01*
X187011653Y-81200828D02*
X186940225Y-81343685D01*
X186940225Y-81343685D02*
X186868796Y-81415114D01*
X186868796Y-81415114D02*
X186725939Y-81486542D01*
X186725939Y-81486542D02*
X186154510Y-81486542D01*
X188297368Y-82200828D02*
X188297368Y-81415114D01*
X188297368Y-81415114D02*
X188225939Y-81272257D01*
X188225939Y-81272257D02*
X188083082Y-81200828D01*
X188083082Y-81200828D02*
X187797368Y-81200828D01*
X187797368Y-81200828D02*
X187654510Y-81272257D01*
X188297368Y-82129400D02*
X188154510Y-82200828D01*
X188154510Y-82200828D02*
X187797368Y-82200828D01*
X187797368Y-82200828D02*
X187654510Y-82129400D01*
X187654510Y-82129400D02*
X187583082Y-81986542D01*
X187583082Y-81986542D02*
X187583082Y-81843685D01*
X187583082Y-81843685D02*
X187654510Y-81700828D01*
X187654510Y-81700828D02*
X187797368Y-81629400D01*
X187797368Y-81629400D02*
X188154510Y-81629400D01*
X188154510Y-81629400D02*
X188297368Y-81557971D01*
X189011653Y-82200828D02*
X189011653Y-81200828D01*
X189011653Y-81486542D02*
X189083082Y-81343685D01*
X189083082Y-81343685D02*
X189154511Y-81272257D01*
X189154511Y-81272257D02*
X189297368Y-81200828D01*
X189297368Y-81200828D02*
X189440225Y-81200828D01*
X189940224Y-82200828D02*
X189940224Y-80700828D01*
X190083082Y-81629400D02*
X190511653Y-82200828D01*
X190511653Y-81200828D02*
X189940224Y-81772257D01*
X193225939Y-81486542D02*
X193154510Y-81415114D01*
X193154510Y-81415114D02*
X193011653Y-81343685D01*
X193011653Y-81343685D02*
X192868796Y-81343685D01*
X192868796Y-81343685D02*
X192725939Y-81415114D01*
X192725939Y-81415114D02*
X192654510Y-81486542D01*
X192654510Y-81486542D02*
X192583082Y-81629400D01*
X192583082Y-81629400D02*
X192583082Y-81772257D01*
X192583082Y-81772257D02*
X192654510Y-81915114D01*
X192654510Y-81915114D02*
X192725939Y-81986542D01*
X192725939Y-81986542D02*
X192868796Y-82057971D01*
X192868796Y-82057971D02*
X193011653Y-82057971D01*
X193011653Y-82057971D02*
X193154510Y-81986542D01*
X193154510Y-81986542D02*
X193225939Y-81915114D01*
X193225939Y-81343685D02*
X193225939Y-81915114D01*
X193225939Y-81915114D02*
X193297367Y-81986542D01*
X193297367Y-81986542D02*
X193368796Y-81986542D01*
X193368796Y-81986542D02*
X193511653Y-81915114D01*
X193511653Y-81915114D02*
X193583082Y-81772257D01*
X193583082Y-81772257D02*
X193583082Y-81415114D01*
X193583082Y-81415114D02*
X193440225Y-81200828D01*
X193440225Y-81200828D02*
X193225939Y-81057971D01*
X193225939Y-81057971D02*
X192940225Y-80986542D01*
X192940225Y-80986542D02*
X192654510Y-81057971D01*
X192654510Y-81057971D02*
X192440225Y-81200828D01*
X192440225Y-81200828D02*
X192297367Y-81415114D01*
X192297367Y-81415114D02*
X192225939Y-81700828D01*
X192225939Y-81700828D02*
X192297367Y-81986542D01*
X192297367Y-81986542D02*
X192440225Y-82200828D01*
X192440225Y-82200828D02*
X192654510Y-82343685D01*
X192654510Y-82343685D02*
X192940225Y-82415114D01*
X192940225Y-82415114D02*
X193225939Y-82343685D01*
X193225939Y-82343685D02*
X193440225Y-82200828D01*
X195297367Y-80843685D02*
X195368795Y-80772257D01*
X195368795Y-80772257D02*
X195511653Y-80700828D01*
X195511653Y-80700828D02*
X195868795Y-80700828D01*
X195868795Y-80700828D02*
X196011653Y-80772257D01*
X196011653Y-80772257D02*
X196083081Y-80843685D01*
X196083081Y-80843685D02*
X196154510Y-80986542D01*
X196154510Y-80986542D02*
X196154510Y-81129400D01*
X196154510Y-81129400D02*
X196083081Y-81343685D01*
X196083081Y-81343685D02*
X195225938Y-82200828D01*
X195225938Y-82200828D02*
X196154510Y-82200828D01*
X197083081Y-80700828D02*
X197225938Y-80700828D01*
X197225938Y-80700828D02*
X197368795Y-80772257D01*
X197368795Y-80772257D02*
X197440224Y-80843685D01*
X197440224Y-80843685D02*
X197511652Y-80986542D01*
X197511652Y-80986542D02*
X197583081Y-81272257D01*
X197583081Y-81272257D02*
X197583081Y-81629400D01*
X197583081Y-81629400D02*
X197511652Y-81915114D01*
X197511652Y-81915114D02*
X197440224Y-82057971D01*
X197440224Y-82057971D02*
X197368795Y-82129400D01*
X197368795Y-82129400D02*
X197225938Y-82200828D01*
X197225938Y-82200828D02*
X197083081Y-82200828D01*
X197083081Y-82200828D02*
X196940224Y-82129400D01*
X196940224Y-82129400D02*
X196868795Y-82057971D01*
X196868795Y-82057971D02*
X196797366Y-81915114D01*
X196797366Y-81915114D02*
X196725938Y-81629400D01*
X196725938Y-81629400D02*
X196725938Y-81272257D01*
X196725938Y-81272257D02*
X196797366Y-80986542D01*
X196797366Y-80986542D02*
X196868795Y-80843685D01*
X196868795Y-80843685D02*
X196940224Y-80772257D01*
X196940224Y-80772257D02*
X197083081Y-80700828D01*
X198154509Y-80843685D02*
X198225937Y-80772257D01*
X198225937Y-80772257D02*
X198368795Y-80700828D01*
X198368795Y-80700828D02*
X198725937Y-80700828D01*
X198725937Y-80700828D02*
X198868795Y-80772257D01*
X198868795Y-80772257D02*
X198940223Y-80843685D01*
X198940223Y-80843685D02*
X199011652Y-80986542D01*
X199011652Y-80986542D02*
X199011652Y-81129400D01*
X199011652Y-81129400D02*
X198940223Y-81343685D01*
X198940223Y-81343685D02*
X198083080Y-82200828D01*
X198083080Y-82200828D02*
X199011652Y-82200828D01*
X200297366Y-80700828D02*
X200011651Y-80700828D01*
X200011651Y-80700828D02*
X199868794Y-80772257D01*
X199868794Y-80772257D02*
X199797366Y-80843685D01*
X199797366Y-80843685D02*
X199654508Y-81057971D01*
X199654508Y-81057971D02*
X199583080Y-81343685D01*
X199583080Y-81343685D02*
X199583080Y-81915114D01*
X199583080Y-81915114D02*
X199654508Y-82057971D01*
X199654508Y-82057971D02*
X199725937Y-82129400D01*
X199725937Y-82129400D02*
X199868794Y-82200828D01*
X199868794Y-82200828D02*
X200154508Y-82200828D01*
X200154508Y-82200828D02*
X200297366Y-82129400D01*
X200297366Y-82129400D02*
X200368794Y-82057971D01*
X200368794Y-82057971D02*
X200440223Y-81915114D01*
X200440223Y-81915114D02*
X200440223Y-81557971D01*
X200440223Y-81557971D02*
X200368794Y-81415114D01*
X200368794Y-81415114D02*
X200297366Y-81343685D01*
X200297366Y-81343685D02*
X200154508Y-81272257D01*
X200154508Y-81272257D02*
X199868794Y-81272257D01*
X199868794Y-81272257D02*
X199725937Y-81343685D01*
X199725937Y-81343685D02*
X199654508Y-81415114D01*
X199654508Y-81415114D02*
X199583080Y-81557971D01*
X201083079Y-82057971D02*
X201154508Y-82129400D01*
X201154508Y-82129400D02*
X201083079Y-82200828D01*
X201083079Y-82200828D02*
X201011651Y-82129400D01*
X201011651Y-82129400D02*
X201083079Y-82057971D01*
X201083079Y-82057971D02*
X201083079Y-82200828D01*
X202083080Y-80700828D02*
X202225937Y-80700828D01*
X202225937Y-80700828D02*
X202368794Y-80772257D01*
X202368794Y-80772257D02*
X202440223Y-80843685D01*
X202440223Y-80843685D02*
X202511651Y-80986542D01*
X202511651Y-80986542D02*
X202583080Y-81272257D01*
X202583080Y-81272257D02*
X202583080Y-81629400D01*
X202583080Y-81629400D02*
X202511651Y-81915114D01*
X202511651Y-81915114D02*
X202440223Y-82057971D01*
X202440223Y-82057971D02*
X202368794Y-82129400D01*
X202368794Y-82129400D02*
X202225937Y-82200828D01*
X202225937Y-82200828D02*
X202083080Y-82200828D01*
X202083080Y-82200828D02*
X201940223Y-82129400D01*
X201940223Y-82129400D02*
X201868794Y-82057971D01*
X201868794Y-82057971D02*
X201797365Y-81915114D01*
X201797365Y-81915114D02*
X201725937Y-81629400D01*
X201725937Y-81629400D02*
X201725937Y-81272257D01*
X201725937Y-81272257D02*
X201797365Y-80986542D01*
X201797365Y-80986542D02*
X201868794Y-80843685D01*
X201868794Y-80843685D02*
X201940223Y-80772257D01*
X201940223Y-80772257D02*
X202083080Y-80700828D01*
X203154508Y-80843685D02*
X203225936Y-80772257D01*
X203225936Y-80772257D02*
X203368794Y-80700828D01*
X203368794Y-80700828D02*
X203725936Y-80700828D01*
X203725936Y-80700828D02*
X203868794Y-80772257D01*
X203868794Y-80772257D02*
X203940222Y-80843685D01*
X203940222Y-80843685D02*
X204011651Y-80986542D01*
X204011651Y-80986542D02*
X204011651Y-81129400D01*
X204011651Y-81129400D02*
X203940222Y-81343685D01*
X203940222Y-81343685D02*
X203083079Y-82200828D01*
X203083079Y-82200828D02*
X204011651Y-82200828D01*
X204654507Y-82057971D02*
X204725936Y-82129400D01*
X204725936Y-82129400D02*
X204654507Y-82200828D01*
X204654507Y-82200828D02*
X204583079Y-82129400D01*
X204583079Y-82129400D02*
X204654507Y-82057971D01*
X204654507Y-82057971D02*
X204654507Y-82200828D01*
X206154508Y-82200828D02*
X205297365Y-82200828D01*
X205725936Y-82200828D02*
X205725936Y-80700828D01*
X205725936Y-80700828D02*
X205583079Y-80915114D01*
X205583079Y-80915114D02*
X205440222Y-81057971D01*
X205440222Y-81057971D02*
X205297365Y-81129400D01*
X207511650Y-80700828D02*
X206797364Y-80700828D01*
X206797364Y-80700828D02*
X206725936Y-81415114D01*
X206725936Y-81415114D02*
X206797364Y-81343685D01*
X206797364Y-81343685D02*
X206940222Y-81272257D01*
X206940222Y-81272257D02*
X207297364Y-81272257D01*
X207297364Y-81272257D02*
X207440222Y-81343685D01*
X207440222Y-81343685D02*
X207511650Y-81415114D01*
X207511650Y-81415114D02*
X207583079Y-81557971D01*
X207583079Y-81557971D02*
X207583079Y-81915114D01*
X207583079Y-81915114D02*
X207511650Y-82057971D01*
X207511650Y-82057971D02*
X207440222Y-82129400D01*
X207440222Y-82129400D02*
X207297364Y-82200828D01*
X207297364Y-82200828D02*
X206940222Y-82200828D01*
X206940222Y-82200828D02*
X206797364Y-82129400D01*
X206797364Y-82129400D02*
X206725936Y-82057971D01*
X208225935Y-82057971D02*
X208297364Y-82129400D01*
X208297364Y-82129400D02*
X208225935Y-82200828D01*
X208225935Y-82200828D02*
X208154507Y-82129400D01*
X208154507Y-82129400D02*
X208225935Y-82057971D01*
X208225935Y-82057971D02*
X208225935Y-82200828D01*
D11*
X161357142Y-105414819D02*
X161023809Y-104938628D01*
X160785714Y-105414819D02*
X160785714Y-104414819D01*
X160785714Y-104414819D02*
X161166666Y-104414819D01*
X161166666Y-104414819D02*
X161261904Y-104462438D01*
X161261904Y-104462438D02*
X161309523Y-104510057D01*
X161309523Y-104510057D02*
X161357142Y-104605295D01*
X161357142Y-104605295D02*
X161357142Y-104748152D01*
X161357142Y-104748152D02*
X161309523Y-104843390D01*
X161309523Y-104843390D02*
X161261904Y-104891009D01*
X161261904Y-104891009D02*
X161166666Y-104938628D01*
X161166666Y-104938628D02*
X160785714Y-104938628D01*
X161738095Y-104510057D02*
X161785714Y-104462438D01*
X161785714Y-104462438D02*
X161880952Y-104414819D01*
X161880952Y-104414819D02*
X162119047Y-104414819D01*
X162119047Y-104414819D02*
X162214285Y-104462438D01*
X162214285Y-104462438D02*
X162261904Y-104510057D01*
X162261904Y-104510057D02*
X162309523Y-104605295D01*
X162309523Y-104605295D02*
X162309523Y-104700533D01*
X162309523Y-104700533D02*
X162261904Y-104843390D01*
X162261904Y-104843390D02*
X161690476Y-105414819D01*
X161690476Y-105414819D02*
X162309523Y-105414819D01*
X162928571Y-104414819D02*
X163023809Y-104414819D01*
X163023809Y-104414819D02*
X163119047Y-104462438D01*
X163119047Y-104462438D02*
X163166666Y-104510057D01*
X163166666Y-104510057D02*
X163214285Y-104605295D01*
X163214285Y-104605295D02*
X163261904Y-104795771D01*
X163261904Y-104795771D02*
X163261904Y-105033866D01*
X163261904Y-105033866D02*
X163214285Y-105224342D01*
X163214285Y-105224342D02*
X163166666Y-105319580D01*
X163166666Y-105319580D02*
X163119047Y-105367200D01*
X163119047Y-105367200D02*
X163023809Y-105414819D01*
X163023809Y-105414819D02*
X162928571Y-105414819D01*
X162928571Y-105414819D02*
X162833333Y-105367200D01*
X162833333Y-105367200D02*
X162785714Y-105319580D01*
X162785714Y-105319580D02*
X162738095Y-105224342D01*
X162738095Y-105224342D02*
X162690476Y-105033866D01*
X162690476Y-105033866D02*
X162690476Y-104795771D01*
X162690476Y-104795771D02*
X162738095Y-104605295D01*
X162738095Y-104605295D02*
X162785714Y-104510057D01*
X162785714Y-104510057D02*
X162833333Y-104462438D01*
X162833333Y-104462438D02*
X162928571Y-104414819D01*
X125833333Y-48524819D02*
X125500000Y-48048628D01*
X125261905Y-48524819D02*
X125261905Y-47524819D01*
X125261905Y-47524819D02*
X125642857Y-47524819D01*
X125642857Y-47524819D02*
X125738095Y-47572438D01*
X125738095Y-47572438D02*
X125785714Y-47620057D01*
X125785714Y-47620057D02*
X125833333Y-47715295D01*
X125833333Y-47715295D02*
X125833333Y-47858152D01*
X125833333Y-47858152D02*
X125785714Y-47953390D01*
X125785714Y-47953390D02*
X125738095Y-48001009D01*
X125738095Y-48001009D02*
X125642857Y-48048628D01*
X125642857Y-48048628D02*
X125261905Y-48048628D01*
X126690476Y-47858152D02*
X126690476Y-48524819D01*
X126452381Y-47477200D02*
X126214286Y-48191485D01*
X126214286Y-48191485D02*
X126833333Y-48191485D01*
X157761905Y-102884819D02*
X157761905Y-101884819D01*
X157761905Y-101884819D02*
X158000000Y-101884819D01*
X158000000Y-101884819D02*
X158142857Y-101932438D01*
X158142857Y-101932438D02*
X158238095Y-102027676D01*
X158238095Y-102027676D02*
X158285714Y-102122914D01*
X158285714Y-102122914D02*
X158333333Y-102313390D01*
X158333333Y-102313390D02*
X158333333Y-102456247D01*
X158333333Y-102456247D02*
X158285714Y-102646723D01*
X158285714Y-102646723D02*
X158238095Y-102741961D01*
X158238095Y-102741961D02*
X158142857Y-102837200D01*
X158142857Y-102837200D02*
X158000000Y-102884819D01*
X158000000Y-102884819D02*
X157761905Y-102884819D01*
X159190476Y-101884819D02*
X159000000Y-101884819D01*
X159000000Y-101884819D02*
X158904762Y-101932438D01*
X158904762Y-101932438D02*
X158857143Y-101980057D01*
X158857143Y-101980057D02*
X158761905Y-102122914D01*
X158761905Y-102122914D02*
X158714286Y-102313390D01*
X158714286Y-102313390D02*
X158714286Y-102694342D01*
X158714286Y-102694342D02*
X158761905Y-102789580D01*
X158761905Y-102789580D02*
X158809524Y-102837200D01*
X158809524Y-102837200D02*
X158904762Y-102884819D01*
X158904762Y-102884819D02*
X159095238Y-102884819D01*
X159095238Y-102884819D02*
X159190476Y-102837200D01*
X159190476Y-102837200D02*
X159238095Y-102789580D01*
X159238095Y-102789580D02*
X159285714Y-102694342D01*
X159285714Y-102694342D02*
X159285714Y-102456247D01*
X159285714Y-102456247D02*
X159238095Y-102361009D01*
X159238095Y-102361009D02*
X159190476Y-102313390D01*
X159190476Y-102313390D02*
X159095238Y-102265771D01*
X159095238Y-102265771D02*
X158904762Y-102265771D01*
X158904762Y-102265771D02*
X158809524Y-102313390D01*
X158809524Y-102313390D02*
X158761905Y-102361009D01*
X158761905Y-102361009D02*
X158714286Y-102456247D01*
X125145180Y-51166666D02*
X124430895Y-51166666D01*
X124430895Y-51166666D02*
X124288038Y-51119047D01*
X124288038Y-51119047D02*
X124192800Y-51023809D01*
X124192800Y-51023809D02*
X124145180Y-50880952D01*
X124145180Y-50880952D02*
X124145180Y-50785714D01*
X124145180Y-52166666D02*
X124145180Y-51595238D01*
X124145180Y-51880952D02*
X125145180Y-51880952D01*
X125145180Y-51880952D02*
X125002323Y-51785714D01*
X125002323Y-51785714D02*
X124907085Y-51690476D01*
X124907085Y-51690476D02*
X124859466Y-51595238D01*
X182866666Y-107254819D02*
X182866666Y-107969104D01*
X182866666Y-107969104D02*
X182819047Y-108111961D01*
X182819047Y-108111961D02*
X182723809Y-108207200D01*
X182723809Y-108207200D02*
X182580952Y-108254819D01*
X182580952Y-108254819D02*
X182485714Y-108254819D01*
X183247619Y-107254819D02*
X183866666Y-107254819D01*
X183866666Y-107254819D02*
X183533333Y-107635771D01*
X183533333Y-107635771D02*
X183676190Y-107635771D01*
X183676190Y-107635771D02*
X183771428Y-107683390D01*
X183771428Y-107683390D02*
X183819047Y-107731009D01*
X183819047Y-107731009D02*
X183866666Y-107826247D01*
X183866666Y-107826247D02*
X183866666Y-108064342D01*
X183866666Y-108064342D02*
X183819047Y-108159580D01*
X183819047Y-108159580D02*
X183771428Y-108207200D01*
X183771428Y-108207200D02*
X183676190Y-108254819D01*
X183676190Y-108254819D02*
X183390476Y-108254819D01*
X183390476Y-108254819D02*
X183295238Y-108207200D01*
X183295238Y-108207200D02*
X183247619Y-108159580D01*
X197633333Y-105854819D02*
X197300000Y-105378628D01*
X197061905Y-105854819D02*
X197061905Y-104854819D01*
X197061905Y-104854819D02*
X197442857Y-104854819D01*
X197442857Y-104854819D02*
X197538095Y-104902438D01*
X197538095Y-104902438D02*
X197585714Y-104950057D01*
X197585714Y-104950057D02*
X197633333Y-105045295D01*
X197633333Y-105045295D02*
X197633333Y-105188152D01*
X197633333Y-105188152D02*
X197585714Y-105283390D01*
X197585714Y-105283390D02*
X197538095Y-105331009D01*
X197538095Y-105331009D02*
X197442857Y-105378628D01*
X197442857Y-105378628D02*
X197061905Y-105378628D01*
X198490476Y-104854819D02*
X198300000Y-104854819D01*
X198300000Y-104854819D02*
X198204762Y-104902438D01*
X198204762Y-104902438D02*
X198157143Y-104950057D01*
X198157143Y-104950057D02*
X198061905Y-105092914D01*
X198061905Y-105092914D02*
X198014286Y-105283390D01*
X198014286Y-105283390D02*
X198014286Y-105664342D01*
X198014286Y-105664342D02*
X198061905Y-105759580D01*
X198061905Y-105759580D02*
X198109524Y-105807200D01*
X198109524Y-105807200D02*
X198204762Y-105854819D01*
X198204762Y-105854819D02*
X198395238Y-105854819D01*
X198395238Y-105854819D02*
X198490476Y-105807200D01*
X198490476Y-105807200D02*
X198538095Y-105759580D01*
X198538095Y-105759580D02*
X198585714Y-105664342D01*
X198585714Y-105664342D02*
X198585714Y-105426247D01*
X198585714Y-105426247D02*
X198538095Y-105331009D01*
X198538095Y-105331009D02*
X198490476Y-105283390D01*
X198490476Y-105283390D02*
X198395238Y-105235771D01*
X198395238Y-105235771D02*
X198204762Y-105235771D01*
X198204762Y-105235771D02*
X198109524Y-105283390D01*
X198109524Y-105283390D02*
X198061905Y-105331009D01*
X198061905Y-105331009D02*
X198014286Y-105426247D01*
X157761905Y-107884819D02*
X157761905Y-106884819D01*
X157761905Y-106884819D02*
X158000000Y-106884819D01*
X158000000Y-106884819D02*
X158142857Y-106932438D01*
X158142857Y-106932438D02*
X158238095Y-107027676D01*
X158238095Y-107027676D02*
X158285714Y-107122914D01*
X158285714Y-107122914D02*
X158333333Y-107313390D01*
X158333333Y-107313390D02*
X158333333Y-107456247D01*
X158333333Y-107456247D02*
X158285714Y-107646723D01*
X158285714Y-107646723D02*
X158238095Y-107741961D01*
X158238095Y-107741961D02*
X158142857Y-107837200D01*
X158142857Y-107837200D02*
X158000000Y-107884819D01*
X158000000Y-107884819D02*
X157761905Y-107884819D01*
X158904762Y-107313390D02*
X158809524Y-107265771D01*
X158809524Y-107265771D02*
X158761905Y-107218152D01*
X158761905Y-107218152D02*
X158714286Y-107122914D01*
X158714286Y-107122914D02*
X158714286Y-107075295D01*
X158714286Y-107075295D02*
X158761905Y-106980057D01*
X158761905Y-106980057D02*
X158809524Y-106932438D01*
X158809524Y-106932438D02*
X158904762Y-106884819D01*
X158904762Y-106884819D02*
X159095238Y-106884819D01*
X159095238Y-106884819D02*
X159190476Y-106932438D01*
X159190476Y-106932438D02*
X159238095Y-106980057D01*
X159238095Y-106980057D02*
X159285714Y-107075295D01*
X159285714Y-107075295D02*
X159285714Y-107122914D01*
X159285714Y-107122914D02*
X159238095Y-107218152D01*
X159238095Y-107218152D02*
X159190476Y-107265771D01*
X159190476Y-107265771D02*
X159095238Y-107313390D01*
X159095238Y-107313390D02*
X158904762Y-107313390D01*
X158904762Y-107313390D02*
X158809524Y-107361009D01*
X158809524Y-107361009D02*
X158761905Y-107408628D01*
X158761905Y-107408628D02*
X158714286Y-107503866D01*
X158714286Y-107503866D02*
X158714286Y-107694342D01*
X158714286Y-107694342D02*
X158761905Y-107789580D01*
X158761905Y-107789580D02*
X158809524Y-107837200D01*
X158809524Y-107837200D02*
X158904762Y-107884819D01*
X158904762Y-107884819D02*
X159095238Y-107884819D01*
X159095238Y-107884819D02*
X159190476Y-107837200D01*
X159190476Y-107837200D02*
X159238095Y-107789580D01*
X159238095Y-107789580D02*
X159285714Y-107694342D01*
X159285714Y-107694342D02*
X159285714Y-107503866D01*
X159285714Y-107503866D02*
X159238095Y-107408628D01*
X159238095Y-107408628D02*
X159190476Y-107361009D01*
X159190476Y-107361009D02*
X159095238Y-107313390D01*
X174438095Y-85254819D02*
X174438095Y-86064342D01*
X174438095Y-86064342D02*
X174485714Y-86159580D01*
X174485714Y-86159580D02*
X174533333Y-86207200D01*
X174533333Y-86207200D02*
X174628571Y-86254819D01*
X174628571Y-86254819D02*
X174819047Y-86254819D01*
X174819047Y-86254819D02*
X174914285Y-86207200D01*
X174914285Y-86207200D02*
X174961904Y-86159580D01*
X174961904Y-86159580D02*
X175009523Y-86064342D01*
X175009523Y-86064342D02*
X175009523Y-85254819D01*
X175438095Y-85350057D02*
X175485714Y-85302438D01*
X175485714Y-85302438D02*
X175580952Y-85254819D01*
X175580952Y-85254819D02*
X175819047Y-85254819D01*
X175819047Y-85254819D02*
X175914285Y-85302438D01*
X175914285Y-85302438D02*
X175961904Y-85350057D01*
X175961904Y-85350057D02*
X176009523Y-85445295D01*
X176009523Y-85445295D02*
X176009523Y-85540533D01*
X176009523Y-85540533D02*
X175961904Y-85683390D01*
X175961904Y-85683390D02*
X175390476Y-86254819D01*
X175390476Y-86254819D02*
X176009523Y-86254819D01*
X118761905Y-81524819D02*
X118761905Y-80524819D01*
X118761905Y-80524819D02*
X119000000Y-80524819D01*
X119000000Y-80524819D02*
X119142857Y-80572438D01*
X119142857Y-80572438D02*
X119238095Y-80667676D01*
X119238095Y-80667676D02*
X119285714Y-80762914D01*
X119285714Y-80762914D02*
X119333333Y-80953390D01*
X119333333Y-80953390D02*
X119333333Y-81096247D01*
X119333333Y-81096247D02*
X119285714Y-81286723D01*
X119285714Y-81286723D02*
X119238095Y-81381961D01*
X119238095Y-81381961D02*
X119142857Y-81477200D01*
X119142857Y-81477200D02*
X119000000Y-81524819D01*
X119000000Y-81524819D02*
X118761905Y-81524819D01*
X119714286Y-80620057D02*
X119761905Y-80572438D01*
X119761905Y-80572438D02*
X119857143Y-80524819D01*
X119857143Y-80524819D02*
X120095238Y-80524819D01*
X120095238Y-80524819D02*
X120190476Y-80572438D01*
X120190476Y-80572438D02*
X120238095Y-80620057D01*
X120238095Y-80620057D02*
X120285714Y-80715295D01*
X120285714Y-80715295D02*
X120285714Y-80810533D01*
X120285714Y-80810533D02*
X120238095Y-80953390D01*
X120238095Y-80953390D02*
X119666667Y-81524819D01*
X119666667Y-81524819D02*
X120285714Y-81524819D01*
X164857142Y-107884819D02*
X164523809Y-107408628D01*
X164285714Y-107884819D02*
X164285714Y-106884819D01*
X164285714Y-106884819D02*
X164666666Y-106884819D01*
X164666666Y-106884819D02*
X164761904Y-106932438D01*
X164761904Y-106932438D02*
X164809523Y-106980057D01*
X164809523Y-106980057D02*
X164857142Y-107075295D01*
X164857142Y-107075295D02*
X164857142Y-107218152D01*
X164857142Y-107218152D02*
X164809523Y-107313390D01*
X164809523Y-107313390D02*
X164761904Y-107361009D01*
X164761904Y-107361009D02*
X164666666Y-107408628D01*
X164666666Y-107408628D02*
X164285714Y-107408628D01*
X165809523Y-107884819D02*
X165238095Y-107884819D01*
X165523809Y-107884819D02*
X165523809Y-106884819D01*
X165523809Y-106884819D02*
X165428571Y-107027676D01*
X165428571Y-107027676D02*
X165333333Y-107122914D01*
X165333333Y-107122914D02*
X165238095Y-107170533D01*
X166714285Y-106884819D02*
X166238095Y-106884819D01*
X166238095Y-106884819D02*
X166190476Y-107361009D01*
X166190476Y-107361009D02*
X166238095Y-107313390D01*
X166238095Y-107313390D02*
X166333333Y-107265771D01*
X166333333Y-107265771D02*
X166571428Y-107265771D01*
X166571428Y-107265771D02*
X166666666Y-107313390D01*
X166666666Y-107313390D02*
X166714285Y-107361009D01*
X166714285Y-107361009D02*
X166761904Y-107456247D01*
X166761904Y-107456247D02*
X166761904Y-107694342D01*
X166761904Y-107694342D02*
X166714285Y-107789580D01*
X166714285Y-107789580D02*
X166666666Y-107837200D01*
X166666666Y-107837200D02*
X166571428Y-107884819D01*
X166571428Y-107884819D02*
X166333333Y-107884819D01*
X166333333Y-107884819D02*
X166238095Y-107837200D01*
X166238095Y-107837200D02*
X166190476Y-107789580D01*
X181300666Y-69558819D02*
X181300666Y-70273104D01*
X181300666Y-70273104D02*
X181253047Y-70415961D01*
X181253047Y-70415961D02*
X181157809Y-70511200D01*
X181157809Y-70511200D02*
X181014952Y-70558819D01*
X181014952Y-70558819D02*
X180919714Y-70558819D01*
X181729238Y-69654057D02*
X181776857Y-69606438D01*
X181776857Y-69606438D02*
X181872095Y-69558819D01*
X181872095Y-69558819D02*
X182110190Y-69558819D01*
X182110190Y-69558819D02*
X182205428Y-69606438D01*
X182205428Y-69606438D02*
X182253047Y-69654057D01*
X182253047Y-69654057D02*
X182300666Y-69749295D01*
X182300666Y-69749295D02*
X182300666Y-69844533D01*
X182300666Y-69844533D02*
X182253047Y-69987390D01*
X182253047Y-69987390D02*
X181681619Y-70558819D01*
X181681619Y-70558819D02*
X182300666Y-70558819D01*
X126866666Y-107054819D02*
X126866666Y-107769104D01*
X126866666Y-107769104D02*
X126819047Y-107911961D01*
X126819047Y-107911961D02*
X126723809Y-108007200D01*
X126723809Y-108007200D02*
X126580952Y-108054819D01*
X126580952Y-108054819D02*
X126485714Y-108054819D01*
X127819047Y-107054819D02*
X127342857Y-107054819D01*
X127342857Y-107054819D02*
X127295238Y-107531009D01*
X127295238Y-107531009D02*
X127342857Y-107483390D01*
X127342857Y-107483390D02*
X127438095Y-107435771D01*
X127438095Y-107435771D02*
X127676190Y-107435771D01*
X127676190Y-107435771D02*
X127771428Y-107483390D01*
X127771428Y-107483390D02*
X127819047Y-107531009D01*
X127819047Y-107531009D02*
X127866666Y-107626247D01*
X127866666Y-107626247D02*
X127866666Y-107864342D01*
X127866666Y-107864342D02*
X127819047Y-107959580D01*
X127819047Y-107959580D02*
X127771428Y-108007200D01*
X127771428Y-108007200D02*
X127676190Y-108054819D01*
X127676190Y-108054819D02*
X127438095Y-108054819D01*
X127438095Y-108054819D02*
X127342857Y-108007200D01*
X127342857Y-108007200D02*
X127295238Y-107959580D01*
X130738095Y-51054819D02*
X130738095Y-51864342D01*
X130738095Y-51864342D02*
X130785714Y-51959580D01*
X130785714Y-51959580D02*
X130833333Y-52007200D01*
X130833333Y-52007200D02*
X130928571Y-52054819D01*
X130928571Y-52054819D02*
X131119047Y-52054819D01*
X131119047Y-52054819D02*
X131214285Y-52007200D01*
X131214285Y-52007200D02*
X131261904Y-51959580D01*
X131261904Y-51959580D02*
X131309523Y-51864342D01*
X131309523Y-51864342D02*
X131309523Y-51054819D01*
X132309523Y-52054819D02*
X131738095Y-52054819D01*
X132023809Y-52054819D02*
X132023809Y-51054819D01*
X132023809Y-51054819D02*
X131928571Y-51197676D01*
X131928571Y-51197676D02*
X131833333Y-51292914D01*
X131833333Y-51292914D02*
X131738095Y-51340533D01*
X138884819Y-54166666D02*
X138408628Y-54499999D01*
X138884819Y-54738094D02*
X137884819Y-54738094D01*
X137884819Y-54738094D02*
X137884819Y-54357142D01*
X137884819Y-54357142D02*
X137932438Y-54261904D01*
X137932438Y-54261904D02*
X137980057Y-54214285D01*
X137980057Y-54214285D02*
X138075295Y-54166666D01*
X138075295Y-54166666D02*
X138218152Y-54166666D01*
X138218152Y-54166666D02*
X138313390Y-54214285D01*
X138313390Y-54214285D02*
X138361009Y-54261904D01*
X138361009Y-54261904D02*
X138408628Y-54357142D01*
X138408628Y-54357142D02*
X138408628Y-54738094D01*
X138884819Y-53214285D02*
X138884819Y-53785713D01*
X138884819Y-53499999D02*
X137884819Y-53499999D01*
X137884819Y-53499999D02*
X138027676Y-53595237D01*
X138027676Y-53595237D02*
X138122914Y-53690475D01*
X138122914Y-53690475D02*
X138170533Y-53785713D01*
X192466667Y-94607200D02*
X192609524Y-94654819D01*
X192609524Y-94654819D02*
X192847619Y-94654819D01*
X192847619Y-94654819D02*
X192942857Y-94607200D01*
X192942857Y-94607200D02*
X192990476Y-94559580D01*
X192990476Y-94559580D02*
X193038095Y-94464342D01*
X193038095Y-94464342D02*
X193038095Y-94369104D01*
X193038095Y-94369104D02*
X192990476Y-94273866D01*
X192990476Y-94273866D02*
X192942857Y-94226247D01*
X192942857Y-94226247D02*
X192847619Y-94178628D01*
X192847619Y-94178628D02*
X192657143Y-94131009D01*
X192657143Y-94131009D02*
X192561905Y-94083390D01*
X192561905Y-94083390D02*
X192514286Y-94035771D01*
X192514286Y-94035771D02*
X192466667Y-93940533D01*
X192466667Y-93940533D02*
X192466667Y-93845295D01*
X192466667Y-93845295D02*
X192514286Y-93750057D01*
X192514286Y-93750057D02*
X192561905Y-93702438D01*
X192561905Y-93702438D02*
X192657143Y-93654819D01*
X192657143Y-93654819D02*
X192895238Y-93654819D01*
X192895238Y-93654819D02*
X193038095Y-93702438D01*
X193371429Y-93654819D02*
X193609524Y-94654819D01*
X193609524Y-94654819D02*
X193800000Y-93940533D01*
X193800000Y-93940533D02*
X193990476Y-94654819D01*
X193990476Y-94654819D02*
X194228572Y-93654819D01*
X194561905Y-93750057D02*
X194609524Y-93702438D01*
X194609524Y-93702438D02*
X194704762Y-93654819D01*
X194704762Y-93654819D02*
X194942857Y-93654819D01*
X194942857Y-93654819D02*
X195038095Y-93702438D01*
X195038095Y-93702438D02*
X195085714Y-93750057D01*
X195085714Y-93750057D02*
X195133333Y-93845295D01*
X195133333Y-93845295D02*
X195133333Y-93940533D01*
X195133333Y-93940533D02*
X195085714Y-94083390D01*
X195085714Y-94083390D02*
X194514286Y-94654819D01*
X194514286Y-94654819D02*
X195133333Y-94654819D01*
X164838095Y-45654819D02*
X164838095Y-46464342D01*
X164838095Y-46464342D02*
X164885714Y-46559580D01*
X164885714Y-46559580D02*
X164933333Y-46607200D01*
X164933333Y-46607200D02*
X165028571Y-46654819D01*
X165028571Y-46654819D02*
X165219047Y-46654819D01*
X165219047Y-46654819D02*
X165314285Y-46607200D01*
X165314285Y-46607200D02*
X165361904Y-46559580D01*
X165361904Y-46559580D02*
X165409523Y-46464342D01*
X165409523Y-46464342D02*
X165409523Y-45654819D01*
X166361904Y-45654819D02*
X165885714Y-45654819D01*
X165885714Y-45654819D02*
X165838095Y-46131009D01*
X165838095Y-46131009D02*
X165885714Y-46083390D01*
X165885714Y-46083390D02*
X165980952Y-46035771D01*
X165980952Y-46035771D02*
X166219047Y-46035771D01*
X166219047Y-46035771D02*
X166314285Y-46083390D01*
X166314285Y-46083390D02*
X166361904Y-46131009D01*
X166361904Y-46131009D02*
X166409523Y-46226247D01*
X166409523Y-46226247D02*
X166409523Y-46464342D01*
X166409523Y-46464342D02*
X166361904Y-46559580D01*
X166361904Y-46559580D02*
X166314285Y-46607200D01*
X166314285Y-46607200D02*
X166219047Y-46654819D01*
X166219047Y-46654819D02*
X165980952Y-46654819D01*
X165980952Y-46654819D02*
X165885714Y-46607200D01*
X165885714Y-46607200D02*
X165838095Y-46559580D01*
X127884819Y-55166666D02*
X127408628Y-55499999D01*
X127884819Y-55738094D02*
X126884819Y-55738094D01*
X126884819Y-55738094D02*
X126884819Y-55357142D01*
X126884819Y-55357142D02*
X126932438Y-55261904D01*
X126932438Y-55261904D02*
X126980057Y-55214285D01*
X126980057Y-55214285D02*
X127075295Y-55166666D01*
X127075295Y-55166666D02*
X127218152Y-55166666D01*
X127218152Y-55166666D02*
X127313390Y-55214285D01*
X127313390Y-55214285D02*
X127361009Y-55261904D01*
X127361009Y-55261904D02*
X127408628Y-55357142D01*
X127408628Y-55357142D02*
X127408628Y-55738094D01*
X126884819Y-54261904D02*
X126884819Y-54738094D01*
X126884819Y-54738094D02*
X127361009Y-54785713D01*
X127361009Y-54785713D02*
X127313390Y-54738094D01*
X127313390Y-54738094D02*
X127265771Y-54642856D01*
X127265771Y-54642856D02*
X127265771Y-54404761D01*
X127265771Y-54404761D02*
X127313390Y-54309523D01*
X127313390Y-54309523D02*
X127361009Y-54261904D01*
X127361009Y-54261904D02*
X127456247Y-54214285D01*
X127456247Y-54214285D02*
X127694342Y-54214285D01*
X127694342Y-54214285D02*
X127789580Y-54261904D01*
X127789580Y-54261904D02*
X127837200Y-54309523D01*
X127837200Y-54309523D02*
X127884819Y-54404761D01*
X127884819Y-54404761D02*
X127884819Y-54642856D01*
X127884819Y-54642856D02*
X127837200Y-54738094D01*
X127837200Y-54738094D02*
X127789580Y-54785713D01*
X161357142Y-100394819D02*
X161023809Y-99918628D01*
X160785714Y-100394819D02*
X160785714Y-99394819D01*
X160785714Y-99394819D02*
X161166666Y-99394819D01*
X161166666Y-99394819D02*
X161261904Y-99442438D01*
X161261904Y-99442438D02*
X161309523Y-99490057D01*
X161309523Y-99490057D02*
X161357142Y-99585295D01*
X161357142Y-99585295D02*
X161357142Y-99728152D01*
X161357142Y-99728152D02*
X161309523Y-99823390D01*
X161309523Y-99823390D02*
X161261904Y-99871009D01*
X161261904Y-99871009D02*
X161166666Y-99918628D01*
X161166666Y-99918628D02*
X160785714Y-99918628D01*
X162309523Y-100394819D02*
X161738095Y-100394819D01*
X162023809Y-100394819D02*
X162023809Y-99394819D01*
X162023809Y-99394819D02*
X161928571Y-99537676D01*
X161928571Y-99537676D02*
X161833333Y-99632914D01*
X161833333Y-99632914D02*
X161738095Y-99680533D01*
X162880952Y-99823390D02*
X162785714Y-99775771D01*
X162785714Y-99775771D02*
X162738095Y-99728152D01*
X162738095Y-99728152D02*
X162690476Y-99632914D01*
X162690476Y-99632914D02*
X162690476Y-99585295D01*
X162690476Y-99585295D02*
X162738095Y-99490057D01*
X162738095Y-99490057D02*
X162785714Y-99442438D01*
X162785714Y-99442438D02*
X162880952Y-99394819D01*
X162880952Y-99394819D02*
X163071428Y-99394819D01*
X163071428Y-99394819D02*
X163166666Y-99442438D01*
X163166666Y-99442438D02*
X163214285Y-99490057D01*
X163214285Y-99490057D02*
X163261904Y-99585295D01*
X163261904Y-99585295D02*
X163261904Y-99632914D01*
X163261904Y-99632914D02*
X163214285Y-99728152D01*
X163214285Y-99728152D02*
X163166666Y-99775771D01*
X163166666Y-99775771D02*
X163071428Y-99823390D01*
X163071428Y-99823390D02*
X162880952Y-99823390D01*
X162880952Y-99823390D02*
X162785714Y-99871009D01*
X162785714Y-99871009D02*
X162738095Y-99918628D01*
X162738095Y-99918628D02*
X162690476Y-100013866D01*
X162690476Y-100013866D02*
X162690476Y-100204342D01*
X162690476Y-100204342D02*
X162738095Y-100299580D01*
X162738095Y-100299580D02*
X162785714Y-100347200D01*
X162785714Y-100347200D02*
X162880952Y-100394819D01*
X162880952Y-100394819D02*
X163071428Y-100394819D01*
X163071428Y-100394819D02*
X163166666Y-100347200D01*
X163166666Y-100347200D02*
X163214285Y-100299580D01*
X163214285Y-100299580D02*
X163261904Y-100204342D01*
X163261904Y-100204342D02*
X163261904Y-100013866D01*
X163261904Y-100013866D02*
X163214285Y-99918628D01*
X163214285Y-99918628D02*
X163166666Y-99871009D01*
X163166666Y-99871009D02*
X163071428Y-99823390D01*
X138884819Y-57166666D02*
X138408628Y-57499999D01*
X138884819Y-57738094D02*
X137884819Y-57738094D01*
X137884819Y-57738094D02*
X137884819Y-57357142D01*
X137884819Y-57357142D02*
X137932438Y-57261904D01*
X137932438Y-57261904D02*
X137980057Y-57214285D01*
X137980057Y-57214285D02*
X138075295Y-57166666D01*
X138075295Y-57166666D02*
X138218152Y-57166666D01*
X138218152Y-57166666D02*
X138313390Y-57214285D01*
X138313390Y-57214285D02*
X138361009Y-57261904D01*
X138361009Y-57261904D02*
X138408628Y-57357142D01*
X138408628Y-57357142D02*
X138408628Y-57738094D01*
X137980057Y-56785713D02*
X137932438Y-56738094D01*
X137932438Y-56738094D02*
X137884819Y-56642856D01*
X137884819Y-56642856D02*
X137884819Y-56404761D01*
X137884819Y-56404761D02*
X137932438Y-56309523D01*
X137932438Y-56309523D02*
X137980057Y-56261904D01*
X137980057Y-56261904D02*
X138075295Y-56214285D01*
X138075295Y-56214285D02*
X138170533Y-56214285D01*
X138170533Y-56214285D02*
X138313390Y-56261904D01*
X138313390Y-56261904D02*
X138884819Y-56833332D01*
X138884819Y-56833332D02*
X138884819Y-56214285D01*
X140030095Y-43254819D02*
X140030095Y-44064342D01*
X140030095Y-44064342D02*
X140077714Y-44159580D01*
X140077714Y-44159580D02*
X140125333Y-44207200D01*
X140125333Y-44207200D02*
X140220571Y-44254819D01*
X140220571Y-44254819D02*
X140411047Y-44254819D01*
X140411047Y-44254819D02*
X140506285Y-44207200D01*
X140506285Y-44207200D02*
X140553904Y-44159580D01*
X140553904Y-44159580D02*
X140601523Y-44064342D01*
X140601523Y-44064342D02*
X140601523Y-43254819D01*
X140982476Y-43254819D02*
X141601523Y-43254819D01*
X141601523Y-43254819D02*
X141268190Y-43635771D01*
X141268190Y-43635771D02*
X141411047Y-43635771D01*
X141411047Y-43635771D02*
X141506285Y-43683390D01*
X141506285Y-43683390D02*
X141553904Y-43731009D01*
X141553904Y-43731009D02*
X141601523Y-43826247D01*
X141601523Y-43826247D02*
X141601523Y-44064342D01*
X141601523Y-44064342D02*
X141553904Y-44159580D01*
X141553904Y-44159580D02*
X141506285Y-44207200D01*
X141506285Y-44207200D02*
X141411047Y-44254819D01*
X141411047Y-44254819D02*
X141125333Y-44254819D01*
X141125333Y-44254819D02*
X141030095Y-44207200D01*
X141030095Y-44207200D02*
X140982476Y-44159580D01*
X161357142Y-102904819D02*
X161023809Y-102428628D01*
X160785714Y-102904819D02*
X160785714Y-101904819D01*
X160785714Y-101904819D02*
X161166666Y-101904819D01*
X161166666Y-101904819D02*
X161261904Y-101952438D01*
X161261904Y-101952438D02*
X161309523Y-102000057D01*
X161309523Y-102000057D02*
X161357142Y-102095295D01*
X161357142Y-102095295D02*
X161357142Y-102238152D01*
X161357142Y-102238152D02*
X161309523Y-102333390D01*
X161309523Y-102333390D02*
X161261904Y-102381009D01*
X161261904Y-102381009D02*
X161166666Y-102428628D01*
X161166666Y-102428628D02*
X160785714Y-102428628D01*
X162309523Y-102904819D02*
X161738095Y-102904819D01*
X162023809Y-102904819D02*
X162023809Y-101904819D01*
X162023809Y-101904819D02*
X161928571Y-102047676D01*
X161928571Y-102047676D02*
X161833333Y-102142914D01*
X161833333Y-102142914D02*
X161738095Y-102190533D01*
X162785714Y-102904819D02*
X162976190Y-102904819D01*
X162976190Y-102904819D02*
X163071428Y-102857200D01*
X163071428Y-102857200D02*
X163119047Y-102809580D01*
X163119047Y-102809580D02*
X163214285Y-102666723D01*
X163214285Y-102666723D02*
X163261904Y-102476247D01*
X163261904Y-102476247D02*
X163261904Y-102095295D01*
X163261904Y-102095295D02*
X163214285Y-102000057D01*
X163214285Y-102000057D02*
X163166666Y-101952438D01*
X163166666Y-101952438D02*
X163071428Y-101904819D01*
X163071428Y-101904819D02*
X162880952Y-101904819D01*
X162880952Y-101904819D02*
X162785714Y-101952438D01*
X162785714Y-101952438D02*
X162738095Y-102000057D01*
X162738095Y-102000057D02*
X162690476Y-102095295D01*
X162690476Y-102095295D02*
X162690476Y-102333390D01*
X162690476Y-102333390D02*
X162738095Y-102428628D01*
X162738095Y-102428628D02*
X162785714Y-102476247D01*
X162785714Y-102476247D02*
X162880952Y-102523866D01*
X162880952Y-102523866D02*
X163071428Y-102523866D01*
X163071428Y-102523866D02*
X163166666Y-102476247D01*
X163166666Y-102476247D02*
X163214285Y-102428628D01*
X163214285Y-102428628D02*
X163261904Y-102333390D01*
X118592800Y-64666668D02*
X118545180Y-64809525D01*
X118545180Y-64809525D02*
X118545180Y-65047620D01*
X118545180Y-65047620D02*
X118592800Y-65142858D01*
X118592800Y-65142858D02*
X118640419Y-65190477D01*
X118640419Y-65190477D02*
X118735657Y-65238096D01*
X118735657Y-65238096D02*
X118830895Y-65238096D01*
X118830895Y-65238096D02*
X118926133Y-65190477D01*
X118926133Y-65190477D02*
X118973752Y-65142858D01*
X118973752Y-65142858D02*
X119021371Y-65047620D01*
X119021371Y-65047620D02*
X119068990Y-64857144D01*
X119068990Y-64857144D02*
X119116609Y-64761906D01*
X119116609Y-64761906D02*
X119164228Y-64714287D01*
X119164228Y-64714287D02*
X119259466Y-64666668D01*
X119259466Y-64666668D02*
X119354704Y-64666668D01*
X119354704Y-64666668D02*
X119449942Y-64714287D01*
X119449942Y-64714287D02*
X119497561Y-64761906D01*
X119497561Y-64761906D02*
X119545180Y-64857144D01*
X119545180Y-64857144D02*
X119545180Y-65095239D01*
X119545180Y-65095239D02*
X119497561Y-65238096D01*
X119545180Y-65571430D02*
X118545180Y-65809525D01*
X118545180Y-65809525D02*
X119259466Y-66000001D01*
X119259466Y-66000001D02*
X118545180Y-66190477D01*
X118545180Y-66190477D02*
X119545180Y-66428573D01*
X118545180Y-67333334D02*
X118545180Y-66761906D01*
X118545180Y-67047620D02*
X119545180Y-67047620D01*
X119545180Y-67047620D02*
X119402323Y-66952382D01*
X119402323Y-66952382D02*
X119307085Y-66857144D01*
X119307085Y-66857144D02*
X119259466Y-66761906D01*
X124833333Y-58509580D02*
X124785714Y-58557200D01*
X124785714Y-58557200D02*
X124642857Y-58604819D01*
X124642857Y-58604819D02*
X124547619Y-58604819D01*
X124547619Y-58604819D02*
X124404762Y-58557200D01*
X124404762Y-58557200D02*
X124309524Y-58461961D01*
X124309524Y-58461961D02*
X124261905Y-58366723D01*
X124261905Y-58366723D02*
X124214286Y-58176247D01*
X124214286Y-58176247D02*
X124214286Y-58033390D01*
X124214286Y-58033390D02*
X124261905Y-57842914D01*
X124261905Y-57842914D02*
X124309524Y-57747676D01*
X124309524Y-57747676D02*
X124404762Y-57652438D01*
X124404762Y-57652438D02*
X124547619Y-57604819D01*
X124547619Y-57604819D02*
X124642857Y-57604819D01*
X124642857Y-57604819D02*
X124785714Y-57652438D01*
X124785714Y-57652438D02*
X124833333Y-57700057D01*
X125785714Y-58604819D02*
X125214286Y-58604819D01*
X125500000Y-58604819D02*
X125500000Y-57604819D01*
X125500000Y-57604819D02*
X125404762Y-57747676D01*
X125404762Y-57747676D02*
X125309524Y-57842914D01*
X125309524Y-57842914D02*
X125214286Y-57890533D01*
X143416667Y-63267200D02*
X143559524Y-63314819D01*
X143559524Y-63314819D02*
X143797619Y-63314819D01*
X143797619Y-63314819D02*
X143892857Y-63267200D01*
X143892857Y-63267200D02*
X143940476Y-63219580D01*
X143940476Y-63219580D02*
X143988095Y-63124342D01*
X143988095Y-63124342D02*
X143988095Y-63029104D01*
X143988095Y-63029104D02*
X143940476Y-62933866D01*
X143940476Y-62933866D02*
X143892857Y-62886247D01*
X143892857Y-62886247D02*
X143797619Y-62838628D01*
X143797619Y-62838628D02*
X143607143Y-62791009D01*
X143607143Y-62791009D02*
X143511905Y-62743390D01*
X143511905Y-62743390D02*
X143464286Y-62695771D01*
X143464286Y-62695771D02*
X143416667Y-62600533D01*
X143416667Y-62600533D02*
X143416667Y-62505295D01*
X143416667Y-62505295D02*
X143464286Y-62410057D01*
X143464286Y-62410057D02*
X143511905Y-62362438D01*
X143511905Y-62362438D02*
X143607143Y-62314819D01*
X143607143Y-62314819D02*
X143845238Y-62314819D01*
X143845238Y-62314819D02*
X143988095Y-62362438D01*
X144321429Y-62314819D02*
X144559524Y-63314819D01*
X144559524Y-63314819D02*
X144750000Y-62600533D01*
X144750000Y-62600533D02*
X144940476Y-63314819D01*
X144940476Y-63314819D02*
X145178572Y-62314819D01*
X145464286Y-62314819D02*
X146083333Y-62314819D01*
X146083333Y-62314819D02*
X145750000Y-62695771D01*
X145750000Y-62695771D02*
X145892857Y-62695771D01*
X145892857Y-62695771D02*
X145988095Y-62743390D01*
X145988095Y-62743390D02*
X146035714Y-62791009D01*
X146035714Y-62791009D02*
X146083333Y-62886247D01*
X146083333Y-62886247D02*
X146083333Y-63124342D01*
X146083333Y-63124342D02*
X146035714Y-63219580D01*
X146035714Y-63219580D02*
X145988095Y-63267200D01*
X145988095Y-63267200D02*
X145892857Y-63314819D01*
X145892857Y-63314819D02*
X145607143Y-63314819D01*
X145607143Y-63314819D02*
X145511905Y-63267200D01*
X145511905Y-63267200D02*
X145464286Y-63219580D01*
X154866666Y-107054819D02*
X154866666Y-107769104D01*
X154866666Y-107769104D02*
X154819047Y-107911961D01*
X154819047Y-107911961D02*
X154723809Y-108007200D01*
X154723809Y-108007200D02*
X154580952Y-108054819D01*
X154580952Y-108054819D02*
X154485714Y-108054819D01*
X155247619Y-107054819D02*
X155914285Y-107054819D01*
X155914285Y-107054819D02*
X155485714Y-108054819D01*
X118761905Y-80024819D02*
X118761905Y-79024819D01*
X118761905Y-79024819D02*
X119000000Y-79024819D01*
X119000000Y-79024819D02*
X119142857Y-79072438D01*
X119142857Y-79072438D02*
X119238095Y-79167676D01*
X119238095Y-79167676D02*
X119285714Y-79262914D01*
X119285714Y-79262914D02*
X119333333Y-79453390D01*
X119333333Y-79453390D02*
X119333333Y-79596247D01*
X119333333Y-79596247D02*
X119285714Y-79786723D01*
X119285714Y-79786723D02*
X119238095Y-79881961D01*
X119238095Y-79881961D02*
X119142857Y-79977200D01*
X119142857Y-79977200D02*
X119000000Y-80024819D01*
X119000000Y-80024819D02*
X118761905Y-80024819D01*
X120285714Y-80024819D02*
X119714286Y-80024819D01*
X120000000Y-80024819D02*
X120000000Y-79024819D01*
X120000000Y-79024819D02*
X119904762Y-79167676D01*
X119904762Y-79167676D02*
X119809524Y-79262914D01*
X119809524Y-79262914D02*
X119714286Y-79310533D01*
X150633333Y-46359580D02*
X150585714Y-46407200D01*
X150585714Y-46407200D02*
X150442857Y-46454819D01*
X150442857Y-46454819D02*
X150347619Y-46454819D01*
X150347619Y-46454819D02*
X150204762Y-46407200D01*
X150204762Y-46407200D02*
X150109524Y-46311961D01*
X150109524Y-46311961D02*
X150061905Y-46216723D01*
X150061905Y-46216723D02*
X150014286Y-46026247D01*
X150014286Y-46026247D02*
X150014286Y-45883390D01*
X150014286Y-45883390D02*
X150061905Y-45692914D01*
X150061905Y-45692914D02*
X150109524Y-45597676D01*
X150109524Y-45597676D02*
X150204762Y-45502438D01*
X150204762Y-45502438D02*
X150347619Y-45454819D01*
X150347619Y-45454819D02*
X150442857Y-45454819D01*
X150442857Y-45454819D02*
X150585714Y-45502438D01*
X150585714Y-45502438D02*
X150633333Y-45550057D01*
X151014286Y-45550057D02*
X151061905Y-45502438D01*
X151061905Y-45502438D02*
X151157143Y-45454819D01*
X151157143Y-45454819D02*
X151395238Y-45454819D01*
X151395238Y-45454819D02*
X151490476Y-45502438D01*
X151490476Y-45502438D02*
X151538095Y-45550057D01*
X151538095Y-45550057D02*
X151585714Y-45645295D01*
X151585714Y-45645295D02*
X151585714Y-45740533D01*
X151585714Y-45740533D02*
X151538095Y-45883390D01*
X151538095Y-45883390D02*
X150966667Y-46454819D01*
X150966667Y-46454819D02*
X151585714Y-46454819D01*
X164857142Y-97884819D02*
X164523809Y-97408628D01*
X164285714Y-97884819D02*
X164285714Y-96884819D01*
X164285714Y-96884819D02*
X164666666Y-96884819D01*
X164666666Y-96884819D02*
X164761904Y-96932438D01*
X164761904Y-96932438D02*
X164809523Y-96980057D01*
X164809523Y-96980057D02*
X164857142Y-97075295D01*
X164857142Y-97075295D02*
X164857142Y-97218152D01*
X164857142Y-97218152D02*
X164809523Y-97313390D01*
X164809523Y-97313390D02*
X164761904Y-97361009D01*
X164761904Y-97361009D02*
X164666666Y-97408628D01*
X164666666Y-97408628D02*
X164285714Y-97408628D01*
X165809523Y-97884819D02*
X165238095Y-97884819D01*
X165523809Y-97884819D02*
X165523809Y-96884819D01*
X165523809Y-96884819D02*
X165428571Y-97027676D01*
X165428571Y-97027676D02*
X165333333Y-97122914D01*
X165333333Y-97122914D02*
X165238095Y-97170533D01*
X166761904Y-97884819D02*
X166190476Y-97884819D01*
X166476190Y-97884819D02*
X166476190Y-96884819D01*
X166476190Y-96884819D02*
X166380952Y-97027676D01*
X166380952Y-97027676D02*
X166285714Y-97122914D01*
X166285714Y-97122914D02*
X166190476Y-97170533D01*
X131833333Y-42709580D02*
X131785714Y-42757200D01*
X131785714Y-42757200D02*
X131642857Y-42804819D01*
X131642857Y-42804819D02*
X131547619Y-42804819D01*
X131547619Y-42804819D02*
X131404762Y-42757200D01*
X131404762Y-42757200D02*
X131309524Y-42661961D01*
X131309524Y-42661961D02*
X131261905Y-42566723D01*
X131261905Y-42566723D02*
X131214286Y-42376247D01*
X131214286Y-42376247D02*
X131214286Y-42233390D01*
X131214286Y-42233390D02*
X131261905Y-42042914D01*
X131261905Y-42042914D02*
X131309524Y-41947676D01*
X131309524Y-41947676D02*
X131404762Y-41852438D01*
X131404762Y-41852438D02*
X131547619Y-41804819D01*
X131547619Y-41804819D02*
X131642857Y-41804819D01*
X131642857Y-41804819D02*
X131785714Y-41852438D01*
X131785714Y-41852438D02*
X131833333Y-41900057D01*
X132166667Y-41804819D02*
X132785714Y-41804819D01*
X132785714Y-41804819D02*
X132452381Y-42185771D01*
X132452381Y-42185771D02*
X132595238Y-42185771D01*
X132595238Y-42185771D02*
X132690476Y-42233390D01*
X132690476Y-42233390D02*
X132738095Y-42281009D01*
X132738095Y-42281009D02*
X132785714Y-42376247D01*
X132785714Y-42376247D02*
X132785714Y-42614342D01*
X132785714Y-42614342D02*
X132738095Y-42709580D01*
X132738095Y-42709580D02*
X132690476Y-42757200D01*
X132690476Y-42757200D02*
X132595238Y-42804819D01*
X132595238Y-42804819D02*
X132309524Y-42804819D01*
X132309524Y-42804819D02*
X132214286Y-42757200D01*
X132214286Y-42757200D02*
X132166667Y-42709580D01*
X125833333Y-51514819D02*
X125500000Y-51038628D01*
X125261905Y-51514819D02*
X125261905Y-50514819D01*
X125261905Y-50514819D02*
X125642857Y-50514819D01*
X125642857Y-50514819D02*
X125738095Y-50562438D01*
X125738095Y-50562438D02*
X125785714Y-50610057D01*
X125785714Y-50610057D02*
X125833333Y-50705295D01*
X125833333Y-50705295D02*
X125833333Y-50848152D01*
X125833333Y-50848152D02*
X125785714Y-50943390D01*
X125785714Y-50943390D02*
X125738095Y-50991009D01*
X125738095Y-50991009D02*
X125642857Y-51038628D01*
X125642857Y-51038628D02*
X125261905Y-51038628D01*
X126166667Y-50514819D02*
X126785714Y-50514819D01*
X126785714Y-50514819D02*
X126452381Y-50895771D01*
X126452381Y-50895771D02*
X126595238Y-50895771D01*
X126595238Y-50895771D02*
X126690476Y-50943390D01*
X126690476Y-50943390D02*
X126738095Y-50991009D01*
X126738095Y-50991009D02*
X126785714Y-51086247D01*
X126785714Y-51086247D02*
X126785714Y-51324342D01*
X126785714Y-51324342D02*
X126738095Y-51419580D01*
X126738095Y-51419580D02*
X126690476Y-51467200D01*
X126690476Y-51467200D02*
X126595238Y-51514819D01*
X126595238Y-51514819D02*
X126309524Y-51514819D01*
X126309524Y-51514819D02*
X126214286Y-51467200D01*
X126214286Y-51467200D02*
X126166667Y-51419580D01*
X157761905Y-95384819D02*
X157761905Y-94384819D01*
X157761905Y-94384819D02*
X158000000Y-94384819D01*
X158000000Y-94384819D02*
X158142857Y-94432438D01*
X158142857Y-94432438D02*
X158238095Y-94527676D01*
X158238095Y-94527676D02*
X158285714Y-94622914D01*
X158285714Y-94622914D02*
X158333333Y-94813390D01*
X158333333Y-94813390D02*
X158333333Y-94956247D01*
X158333333Y-94956247D02*
X158285714Y-95146723D01*
X158285714Y-95146723D02*
X158238095Y-95241961D01*
X158238095Y-95241961D02*
X158142857Y-95337200D01*
X158142857Y-95337200D02*
X158000000Y-95384819D01*
X158000000Y-95384819D02*
X157761905Y-95384819D01*
X158666667Y-94384819D02*
X159285714Y-94384819D01*
X159285714Y-94384819D02*
X158952381Y-94765771D01*
X158952381Y-94765771D02*
X159095238Y-94765771D01*
X159095238Y-94765771D02*
X159190476Y-94813390D01*
X159190476Y-94813390D02*
X159238095Y-94861009D01*
X159238095Y-94861009D02*
X159285714Y-94956247D01*
X159285714Y-94956247D02*
X159285714Y-95194342D01*
X159285714Y-95194342D02*
X159238095Y-95289580D01*
X159238095Y-95289580D02*
X159190476Y-95337200D01*
X159190476Y-95337200D02*
X159095238Y-95384819D01*
X159095238Y-95384819D02*
X158809524Y-95384819D01*
X158809524Y-95384819D02*
X158714286Y-95337200D01*
X158714286Y-95337200D02*
X158666667Y-95289580D01*
X130208667Y-63467200D02*
X130351524Y-63514819D01*
X130351524Y-63514819D02*
X130589619Y-63514819D01*
X130589619Y-63514819D02*
X130684857Y-63467200D01*
X130684857Y-63467200D02*
X130732476Y-63419580D01*
X130732476Y-63419580D02*
X130780095Y-63324342D01*
X130780095Y-63324342D02*
X130780095Y-63229104D01*
X130780095Y-63229104D02*
X130732476Y-63133866D01*
X130732476Y-63133866D02*
X130684857Y-63086247D01*
X130684857Y-63086247D02*
X130589619Y-63038628D01*
X130589619Y-63038628D02*
X130399143Y-62991009D01*
X130399143Y-62991009D02*
X130303905Y-62943390D01*
X130303905Y-62943390D02*
X130256286Y-62895771D01*
X130256286Y-62895771D02*
X130208667Y-62800533D01*
X130208667Y-62800533D02*
X130208667Y-62705295D01*
X130208667Y-62705295D02*
X130256286Y-62610057D01*
X130256286Y-62610057D02*
X130303905Y-62562438D01*
X130303905Y-62562438D02*
X130399143Y-62514819D01*
X130399143Y-62514819D02*
X130637238Y-62514819D01*
X130637238Y-62514819D02*
X130780095Y-62562438D01*
X131113429Y-62514819D02*
X131351524Y-63514819D01*
X131351524Y-63514819D02*
X131542000Y-62800533D01*
X131542000Y-62800533D02*
X131732476Y-63514819D01*
X131732476Y-63514819D02*
X131970572Y-62514819D01*
X132780095Y-62848152D02*
X132780095Y-63514819D01*
X132542000Y-62467200D02*
X132303905Y-63181485D01*
X132303905Y-63181485D02*
X132922952Y-63181485D01*
X156816667Y-62867200D02*
X156959524Y-62914819D01*
X156959524Y-62914819D02*
X157197619Y-62914819D01*
X157197619Y-62914819D02*
X157292857Y-62867200D01*
X157292857Y-62867200D02*
X157340476Y-62819580D01*
X157340476Y-62819580D02*
X157388095Y-62724342D01*
X157388095Y-62724342D02*
X157388095Y-62629104D01*
X157388095Y-62629104D02*
X157340476Y-62533866D01*
X157340476Y-62533866D02*
X157292857Y-62486247D01*
X157292857Y-62486247D02*
X157197619Y-62438628D01*
X157197619Y-62438628D02*
X157007143Y-62391009D01*
X157007143Y-62391009D02*
X156911905Y-62343390D01*
X156911905Y-62343390D02*
X156864286Y-62295771D01*
X156864286Y-62295771D02*
X156816667Y-62200533D01*
X156816667Y-62200533D02*
X156816667Y-62105295D01*
X156816667Y-62105295D02*
X156864286Y-62010057D01*
X156864286Y-62010057D02*
X156911905Y-61962438D01*
X156911905Y-61962438D02*
X157007143Y-61914819D01*
X157007143Y-61914819D02*
X157245238Y-61914819D01*
X157245238Y-61914819D02*
X157388095Y-61962438D01*
X157721429Y-61914819D02*
X157959524Y-62914819D01*
X157959524Y-62914819D02*
X158150000Y-62200533D01*
X158150000Y-62200533D02*
X158340476Y-62914819D01*
X158340476Y-62914819D02*
X158578572Y-61914819D01*
X159435714Y-61914819D02*
X158959524Y-61914819D01*
X158959524Y-61914819D02*
X158911905Y-62391009D01*
X158911905Y-62391009D02*
X158959524Y-62343390D01*
X158959524Y-62343390D02*
X159054762Y-62295771D01*
X159054762Y-62295771D02*
X159292857Y-62295771D01*
X159292857Y-62295771D02*
X159388095Y-62343390D01*
X159388095Y-62343390D02*
X159435714Y-62391009D01*
X159435714Y-62391009D02*
X159483333Y-62486247D01*
X159483333Y-62486247D02*
X159483333Y-62724342D01*
X159483333Y-62724342D02*
X159435714Y-62819580D01*
X159435714Y-62819580D02*
X159388095Y-62867200D01*
X159388095Y-62867200D02*
X159292857Y-62914819D01*
X159292857Y-62914819D02*
X159054762Y-62914819D01*
X159054762Y-62914819D02*
X158959524Y-62867200D01*
X158959524Y-62867200D02*
X158911905Y-62819580D01*
X143238095Y-79704819D02*
X143238095Y-80514342D01*
X143238095Y-80514342D02*
X143285714Y-80609580D01*
X143285714Y-80609580D02*
X143333333Y-80657200D01*
X143333333Y-80657200D02*
X143428571Y-80704819D01*
X143428571Y-80704819D02*
X143619047Y-80704819D01*
X143619047Y-80704819D02*
X143714285Y-80657200D01*
X143714285Y-80657200D02*
X143761904Y-80609580D01*
X143761904Y-80609580D02*
X143809523Y-80514342D01*
X143809523Y-80514342D02*
X143809523Y-79704819D01*
X144714285Y-80038152D02*
X144714285Y-80704819D01*
X144476190Y-79657200D02*
X144238095Y-80371485D01*
X144238095Y-80371485D02*
X144857142Y-80371485D01*
X163852833Y-77992819D02*
X163519500Y-77516628D01*
X163281405Y-77992819D02*
X163281405Y-76992819D01*
X163281405Y-76992819D02*
X163662357Y-76992819D01*
X163662357Y-76992819D02*
X163757595Y-77040438D01*
X163757595Y-77040438D02*
X163805214Y-77088057D01*
X163805214Y-77088057D02*
X163852833Y-77183295D01*
X163852833Y-77183295D02*
X163852833Y-77326152D01*
X163852833Y-77326152D02*
X163805214Y-77421390D01*
X163805214Y-77421390D02*
X163757595Y-77469009D01*
X163757595Y-77469009D02*
X163662357Y-77516628D01*
X163662357Y-77516628D02*
X163281405Y-77516628D01*
X164424262Y-77421390D02*
X164329024Y-77373771D01*
X164329024Y-77373771D02*
X164281405Y-77326152D01*
X164281405Y-77326152D02*
X164233786Y-77230914D01*
X164233786Y-77230914D02*
X164233786Y-77183295D01*
X164233786Y-77183295D02*
X164281405Y-77088057D01*
X164281405Y-77088057D02*
X164329024Y-77040438D01*
X164329024Y-77040438D02*
X164424262Y-76992819D01*
X164424262Y-76992819D02*
X164614738Y-76992819D01*
X164614738Y-76992819D02*
X164709976Y-77040438D01*
X164709976Y-77040438D02*
X164757595Y-77088057D01*
X164757595Y-77088057D02*
X164805214Y-77183295D01*
X164805214Y-77183295D02*
X164805214Y-77230914D01*
X164805214Y-77230914D02*
X164757595Y-77326152D01*
X164757595Y-77326152D02*
X164709976Y-77373771D01*
X164709976Y-77373771D02*
X164614738Y-77421390D01*
X164614738Y-77421390D02*
X164424262Y-77421390D01*
X164424262Y-77421390D02*
X164329024Y-77469009D01*
X164329024Y-77469009D02*
X164281405Y-77516628D01*
X164281405Y-77516628D02*
X164233786Y-77611866D01*
X164233786Y-77611866D02*
X164233786Y-77802342D01*
X164233786Y-77802342D02*
X164281405Y-77897580D01*
X164281405Y-77897580D02*
X164329024Y-77945200D01*
X164329024Y-77945200D02*
X164424262Y-77992819D01*
X164424262Y-77992819D02*
X164614738Y-77992819D01*
X164614738Y-77992819D02*
X164709976Y-77945200D01*
X164709976Y-77945200D02*
X164757595Y-77897580D01*
X164757595Y-77897580D02*
X164805214Y-77802342D01*
X164805214Y-77802342D02*
X164805214Y-77611866D01*
X164805214Y-77611866D02*
X164757595Y-77516628D01*
X164757595Y-77516628D02*
X164709976Y-77469009D01*
X164709976Y-77469009D02*
X164614738Y-77421390D01*
X144233333Y-48654819D02*
X143757143Y-48654819D01*
X143757143Y-48654819D02*
X143757143Y-47654819D01*
X145090476Y-48654819D02*
X144519048Y-48654819D01*
X144804762Y-48654819D02*
X144804762Y-47654819D01*
X144804762Y-47654819D02*
X144709524Y-47797676D01*
X144709524Y-47797676D02*
X144614286Y-47892914D01*
X144614286Y-47892914D02*
X144519048Y-47940533D01*
X146833333Y-46672319D02*
X146500000Y-46196128D01*
X146261905Y-46672319D02*
X146261905Y-45672319D01*
X146261905Y-45672319D02*
X146642857Y-45672319D01*
X146642857Y-45672319D02*
X146738095Y-45719938D01*
X146738095Y-45719938D02*
X146785714Y-45767557D01*
X146785714Y-45767557D02*
X146833333Y-45862795D01*
X146833333Y-45862795D02*
X146833333Y-46005652D01*
X146833333Y-46005652D02*
X146785714Y-46100890D01*
X146785714Y-46100890D02*
X146738095Y-46148509D01*
X146738095Y-46148509D02*
X146642857Y-46196128D01*
X146642857Y-46196128D02*
X146261905Y-46196128D01*
X147309524Y-46672319D02*
X147500000Y-46672319D01*
X147500000Y-46672319D02*
X147595238Y-46624700D01*
X147595238Y-46624700D02*
X147642857Y-46577080D01*
X147642857Y-46577080D02*
X147738095Y-46434223D01*
X147738095Y-46434223D02*
X147785714Y-46243747D01*
X147785714Y-46243747D02*
X147785714Y-45862795D01*
X147785714Y-45862795D02*
X147738095Y-45767557D01*
X147738095Y-45767557D02*
X147690476Y-45719938D01*
X147690476Y-45719938D02*
X147595238Y-45672319D01*
X147595238Y-45672319D02*
X147404762Y-45672319D01*
X147404762Y-45672319D02*
X147309524Y-45719938D01*
X147309524Y-45719938D02*
X147261905Y-45767557D01*
X147261905Y-45767557D02*
X147214286Y-45862795D01*
X147214286Y-45862795D02*
X147214286Y-46100890D01*
X147214286Y-46100890D02*
X147261905Y-46196128D01*
X147261905Y-46196128D02*
X147309524Y-46243747D01*
X147309524Y-46243747D02*
X147404762Y-46291366D01*
X147404762Y-46291366D02*
X147595238Y-46291366D01*
X147595238Y-46291366D02*
X147690476Y-46243747D01*
X147690476Y-46243747D02*
X147738095Y-46196128D01*
X147738095Y-46196128D02*
X147785714Y-46100890D01*
X147117642Y-61744819D02*
X146784309Y-61268628D01*
X146546214Y-61744819D02*
X146546214Y-60744819D01*
X146546214Y-60744819D02*
X146927166Y-60744819D01*
X146927166Y-60744819D02*
X147022404Y-60792438D01*
X147022404Y-60792438D02*
X147070023Y-60840057D01*
X147070023Y-60840057D02*
X147117642Y-60935295D01*
X147117642Y-60935295D02*
X147117642Y-61078152D01*
X147117642Y-61078152D02*
X147070023Y-61173390D01*
X147070023Y-61173390D02*
X147022404Y-61221009D01*
X147022404Y-61221009D02*
X146927166Y-61268628D01*
X146927166Y-61268628D02*
X146546214Y-61268628D01*
X147498595Y-60840057D02*
X147546214Y-60792438D01*
X147546214Y-60792438D02*
X147641452Y-60744819D01*
X147641452Y-60744819D02*
X147879547Y-60744819D01*
X147879547Y-60744819D02*
X147974785Y-60792438D01*
X147974785Y-60792438D02*
X148022404Y-60840057D01*
X148022404Y-60840057D02*
X148070023Y-60935295D01*
X148070023Y-60935295D02*
X148070023Y-61030533D01*
X148070023Y-61030533D02*
X148022404Y-61173390D01*
X148022404Y-61173390D02*
X147450976Y-61744819D01*
X147450976Y-61744819D02*
X148070023Y-61744819D01*
X148927166Y-60744819D02*
X148736690Y-60744819D01*
X148736690Y-60744819D02*
X148641452Y-60792438D01*
X148641452Y-60792438D02*
X148593833Y-60840057D01*
X148593833Y-60840057D02*
X148498595Y-60982914D01*
X148498595Y-60982914D02*
X148450976Y-61173390D01*
X148450976Y-61173390D02*
X148450976Y-61554342D01*
X148450976Y-61554342D02*
X148498595Y-61649580D01*
X148498595Y-61649580D02*
X148546214Y-61697200D01*
X148546214Y-61697200D02*
X148641452Y-61744819D01*
X148641452Y-61744819D02*
X148831928Y-61744819D01*
X148831928Y-61744819D02*
X148927166Y-61697200D01*
X148927166Y-61697200D02*
X148974785Y-61649580D01*
X148974785Y-61649580D02*
X149022404Y-61554342D01*
X149022404Y-61554342D02*
X149022404Y-61316247D01*
X149022404Y-61316247D02*
X148974785Y-61221009D01*
X148974785Y-61221009D02*
X148927166Y-61173390D01*
X148927166Y-61173390D02*
X148831928Y-61125771D01*
X148831928Y-61125771D02*
X148641452Y-61125771D01*
X148641452Y-61125771D02*
X148546214Y-61173390D01*
X148546214Y-61173390D02*
X148498595Y-61221009D01*
X148498595Y-61221009D02*
X148450976Y-61316247D01*
X133507142Y-61914819D02*
X133173809Y-61438628D01*
X132935714Y-61914819D02*
X132935714Y-60914819D01*
X132935714Y-60914819D02*
X133316666Y-60914819D01*
X133316666Y-60914819D02*
X133411904Y-60962438D01*
X133411904Y-60962438D02*
X133459523Y-61010057D01*
X133459523Y-61010057D02*
X133507142Y-61105295D01*
X133507142Y-61105295D02*
X133507142Y-61248152D01*
X133507142Y-61248152D02*
X133459523Y-61343390D01*
X133459523Y-61343390D02*
X133411904Y-61391009D01*
X133411904Y-61391009D02*
X133316666Y-61438628D01*
X133316666Y-61438628D02*
X132935714Y-61438628D01*
X133888095Y-61010057D02*
X133935714Y-60962438D01*
X133935714Y-60962438D02*
X134030952Y-60914819D01*
X134030952Y-60914819D02*
X134269047Y-60914819D01*
X134269047Y-60914819D02*
X134364285Y-60962438D01*
X134364285Y-60962438D02*
X134411904Y-61010057D01*
X134411904Y-61010057D02*
X134459523Y-61105295D01*
X134459523Y-61105295D02*
X134459523Y-61200533D01*
X134459523Y-61200533D02*
X134411904Y-61343390D01*
X134411904Y-61343390D02*
X133840476Y-61914819D01*
X133840476Y-61914819D02*
X134459523Y-61914819D01*
X134792857Y-60914819D02*
X135459523Y-60914819D01*
X135459523Y-60914819D02*
X135030952Y-61914819D01*
X161357142Y-107924819D02*
X161023809Y-107448628D01*
X160785714Y-107924819D02*
X160785714Y-106924819D01*
X160785714Y-106924819D02*
X161166666Y-106924819D01*
X161166666Y-106924819D02*
X161261904Y-106972438D01*
X161261904Y-106972438D02*
X161309523Y-107020057D01*
X161309523Y-107020057D02*
X161357142Y-107115295D01*
X161357142Y-107115295D02*
X161357142Y-107258152D01*
X161357142Y-107258152D02*
X161309523Y-107353390D01*
X161309523Y-107353390D02*
X161261904Y-107401009D01*
X161261904Y-107401009D02*
X161166666Y-107448628D01*
X161166666Y-107448628D02*
X160785714Y-107448628D01*
X161738095Y-107020057D02*
X161785714Y-106972438D01*
X161785714Y-106972438D02*
X161880952Y-106924819D01*
X161880952Y-106924819D02*
X162119047Y-106924819D01*
X162119047Y-106924819D02*
X162214285Y-106972438D01*
X162214285Y-106972438D02*
X162261904Y-107020057D01*
X162261904Y-107020057D02*
X162309523Y-107115295D01*
X162309523Y-107115295D02*
X162309523Y-107210533D01*
X162309523Y-107210533D02*
X162261904Y-107353390D01*
X162261904Y-107353390D02*
X161690476Y-107924819D01*
X161690476Y-107924819D02*
X162309523Y-107924819D01*
X163261904Y-107924819D02*
X162690476Y-107924819D01*
X162976190Y-107924819D02*
X162976190Y-106924819D01*
X162976190Y-106924819D02*
X162880952Y-107067676D01*
X162880952Y-107067676D02*
X162785714Y-107162914D01*
X162785714Y-107162914D02*
X162690476Y-107210533D01*
X210740666Y-90410819D02*
X210740666Y-91125104D01*
X210740666Y-91125104D02*
X210693047Y-91267961D01*
X210693047Y-91267961D02*
X210597809Y-91363200D01*
X210597809Y-91363200D02*
X210454952Y-91410819D01*
X210454952Y-91410819D02*
X210359714Y-91410819D01*
X211645428Y-90744152D02*
X211645428Y-91410819D01*
X211407333Y-90363200D02*
X211169238Y-91077485D01*
X211169238Y-91077485D02*
X211788285Y-91077485D01*
X164857142Y-102884819D02*
X164523809Y-102408628D01*
X164285714Y-102884819D02*
X164285714Y-101884819D01*
X164285714Y-101884819D02*
X164666666Y-101884819D01*
X164666666Y-101884819D02*
X164761904Y-101932438D01*
X164761904Y-101932438D02*
X164809523Y-101980057D01*
X164809523Y-101980057D02*
X164857142Y-102075295D01*
X164857142Y-102075295D02*
X164857142Y-102218152D01*
X164857142Y-102218152D02*
X164809523Y-102313390D01*
X164809523Y-102313390D02*
X164761904Y-102361009D01*
X164761904Y-102361009D02*
X164666666Y-102408628D01*
X164666666Y-102408628D02*
X164285714Y-102408628D01*
X165809523Y-102884819D02*
X165238095Y-102884819D01*
X165523809Y-102884819D02*
X165523809Y-101884819D01*
X165523809Y-101884819D02*
X165428571Y-102027676D01*
X165428571Y-102027676D02*
X165333333Y-102122914D01*
X165333333Y-102122914D02*
X165238095Y-102170533D01*
X166142857Y-101884819D02*
X166761904Y-101884819D01*
X166761904Y-101884819D02*
X166428571Y-102265771D01*
X166428571Y-102265771D02*
X166571428Y-102265771D01*
X166571428Y-102265771D02*
X166666666Y-102313390D01*
X166666666Y-102313390D02*
X166714285Y-102361009D01*
X166714285Y-102361009D02*
X166761904Y-102456247D01*
X166761904Y-102456247D02*
X166761904Y-102694342D01*
X166761904Y-102694342D02*
X166714285Y-102789580D01*
X166714285Y-102789580D02*
X166666666Y-102837200D01*
X166666666Y-102837200D02*
X166571428Y-102884819D01*
X166571428Y-102884819D02*
X166285714Y-102884819D01*
X166285714Y-102884819D02*
X166190476Y-102837200D01*
X166190476Y-102837200D02*
X166142857Y-102789580D01*
X124881009Y-76905714D02*
X124928628Y-76762857D01*
X124928628Y-76762857D02*
X124976247Y-76715238D01*
X124976247Y-76715238D02*
X125071485Y-76667619D01*
X125071485Y-76667619D02*
X125214342Y-76667619D01*
X125214342Y-76667619D02*
X125309580Y-76715238D01*
X125309580Y-76715238D02*
X125357200Y-76762857D01*
X125357200Y-76762857D02*
X125404819Y-76858095D01*
X125404819Y-76858095D02*
X125404819Y-77239047D01*
X125404819Y-77239047D02*
X124404819Y-77239047D01*
X124404819Y-77239047D02*
X124404819Y-76905714D01*
X124404819Y-76905714D02*
X124452438Y-76810476D01*
X124452438Y-76810476D02*
X124500057Y-76762857D01*
X124500057Y-76762857D02*
X124595295Y-76715238D01*
X124595295Y-76715238D02*
X124690533Y-76715238D01*
X124690533Y-76715238D02*
X124785771Y-76762857D01*
X124785771Y-76762857D02*
X124833390Y-76810476D01*
X124833390Y-76810476D02*
X124881009Y-76905714D01*
X124881009Y-76905714D02*
X124881009Y-77239047D01*
X124404819Y-76381904D02*
X124404819Y-75810476D01*
X125404819Y-76096190D02*
X124404819Y-76096190D01*
X125404819Y-74953333D02*
X125404819Y-75524761D01*
X125404819Y-75239047D02*
X124404819Y-75239047D01*
X124404819Y-75239047D02*
X124547676Y-75334285D01*
X124547676Y-75334285D02*
X124642914Y-75429523D01*
X124642914Y-75429523D02*
X124690533Y-75524761D01*
X164857142Y-95344819D02*
X164523809Y-94868628D01*
X164285714Y-95344819D02*
X164285714Y-94344819D01*
X164285714Y-94344819D02*
X164666666Y-94344819D01*
X164666666Y-94344819D02*
X164761904Y-94392438D01*
X164761904Y-94392438D02*
X164809523Y-94440057D01*
X164809523Y-94440057D02*
X164857142Y-94535295D01*
X164857142Y-94535295D02*
X164857142Y-94678152D01*
X164857142Y-94678152D02*
X164809523Y-94773390D01*
X164809523Y-94773390D02*
X164761904Y-94821009D01*
X164761904Y-94821009D02*
X164666666Y-94868628D01*
X164666666Y-94868628D02*
X164285714Y-94868628D01*
X165809523Y-95344819D02*
X165238095Y-95344819D01*
X165523809Y-95344819D02*
X165523809Y-94344819D01*
X165523809Y-94344819D02*
X165428571Y-94487676D01*
X165428571Y-94487676D02*
X165333333Y-94582914D01*
X165333333Y-94582914D02*
X165238095Y-94630533D01*
X166428571Y-94344819D02*
X166523809Y-94344819D01*
X166523809Y-94344819D02*
X166619047Y-94392438D01*
X166619047Y-94392438D02*
X166666666Y-94440057D01*
X166666666Y-94440057D02*
X166714285Y-94535295D01*
X166714285Y-94535295D02*
X166761904Y-94725771D01*
X166761904Y-94725771D02*
X166761904Y-94963866D01*
X166761904Y-94963866D02*
X166714285Y-95154342D01*
X166714285Y-95154342D02*
X166666666Y-95249580D01*
X166666666Y-95249580D02*
X166619047Y-95297200D01*
X166619047Y-95297200D02*
X166523809Y-95344819D01*
X166523809Y-95344819D02*
X166428571Y-95344819D01*
X166428571Y-95344819D02*
X166333333Y-95297200D01*
X166333333Y-95297200D02*
X166285714Y-95249580D01*
X166285714Y-95249580D02*
X166238095Y-95154342D01*
X166238095Y-95154342D02*
X166190476Y-94963866D01*
X166190476Y-94963866D02*
X166190476Y-94725771D01*
X166190476Y-94725771D02*
X166238095Y-94535295D01*
X166238095Y-94535295D02*
X166285714Y-94440057D01*
X166285714Y-94440057D02*
X166333333Y-94392438D01*
X166333333Y-94392438D02*
X166428571Y-94344819D01*
X161357142Y-95384819D02*
X161023809Y-94908628D01*
X160785714Y-95384819D02*
X160785714Y-94384819D01*
X160785714Y-94384819D02*
X161166666Y-94384819D01*
X161166666Y-94384819D02*
X161261904Y-94432438D01*
X161261904Y-94432438D02*
X161309523Y-94480057D01*
X161309523Y-94480057D02*
X161357142Y-94575295D01*
X161357142Y-94575295D02*
X161357142Y-94718152D01*
X161357142Y-94718152D02*
X161309523Y-94813390D01*
X161309523Y-94813390D02*
X161261904Y-94861009D01*
X161261904Y-94861009D02*
X161166666Y-94908628D01*
X161166666Y-94908628D02*
X160785714Y-94908628D01*
X162309523Y-95384819D02*
X161738095Y-95384819D01*
X162023809Y-95384819D02*
X162023809Y-94384819D01*
X162023809Y-94384819D02*
X161928571Y-94527676D01*
X161928571Y-94527676D02*
X161833333Y-94622914D01*
X161833333Y-94622914D02*
X161738095Y-94670533D01*
X163166666Y-94384819D02*
X162976190Y-94384819D01*
X162976190Y-94384819D02*
X162880952Y-94432438D01*
X162880952Y-94432438D02*
X162833333Y-94480057D01*
X162833333Y-94480057D02*
X162738095Y-94622914D01*
X162738095Y-94622914D02*
X162690476Y-94813390D01*
X162690476Y-94813390D02*
X162690476Y-95194342D01*
X162690476Y-95194342D02*
X162738095Y-95289580D01*
X162738095Y-95289580D02*
X162785714Y-95337200D01*
X162785714Y-95337200D02*
X162880952Y-95384819D01*
X162880952Y-95384819D02*
X163071428Y-95384819D01*
X163071428Y-95384819D02*
X163166666Y-95337200D01*
X163166666Y-95337200D02*
X163214285Y-95289580D01*
X163214285Y-95289580D02*
X163261904Y-95194342D01*
X163261904Y-95194342D02*
X163261904Y-94956247D01*
X163261904Y-94956247D02*
X163214285Y-94861009D01*
X163214285Y-94861009D02*
X163166666Y-94813390D01*
X163166666Y-94813390D02*
X163071428Y-94765771D01*
X163071428Y-94765771D02*
X162880952Y-94765771D01*
X162880952Y-94765771D02*
X162785714Y-94813390D01*
X162785714Y-94813390D02*
X162738095Y-94861009D01*
X162738095Y-94861009D02*
X162690476Y-94956247D01*
X123684166Y-83774819D02*
X123684166Y-84489104D01*
X123684166Y-84489104D02*
X123636547Y-84631961D01*
X123636547Y-84631961D02*
X123541309Y-84727200D01*
X123541309Y-84727200D02*
X123398452Y-84774819D01*
X123398452Y-84774819D02*
X123303214Y-84774819D01*
X124588928Y-83774819D02*
X124398452Y-83774819D01*
X124398452Y-83774819D02*
X124303214Y-83822438D01*
X124303214Y-83822438D02*
X124255595Y-83870057D01*
X124255595Y-83870057D02*
X124160357Y-84012914D01*
X124160357Y-84012914D02*
X124112738Y-84203390D01*
X124112738Y-84203390D02*
X124112738Y-84584342D01*
X124112738Y-84584342D02*
X124160357Y-84679580D01*
X124160357Y-84679580D02*
X124207976Y-84727200D01*
X124207976Y-84727200D02*
X124303214Y-84774819D01*
X124303214Y-84774819D02*
X124493690Y-84774819D01*
X124493690Y-84774819D02*
X124588928Y-84727200D01*
X124588928Y-84727200D02*
X124636547Y-84679580D01*
X124636547Y-84679580D02*
X124684166Y-84584342D01*
X124684166Y-84584342D02*
X124684166Y-84346247D01*
X124684166Y-84346247D02*
X124636547Y-84251009D01*
X124636547Y-84251009D02*
X124588928Y-84203390D01*
X124588928Y-84203390D02*
X124493690Y-84155771D01*
X124493690Y-84155771D02*
X124303214Y-84155771D01*
X124303214Y-84155771D02*
X124207976Y-84203390D01*
X124207976Y-84203390D02*
X124160357Y-84251009D01*
X124160357Y-84251009D02*
X124112738Y-84346247D01*
X157761905Y-105384819D02*
X157761905Y-104384819D01*
X157761905Y-104384819D02*
X158000000Y-104384819D01*
X158000000Y-104384819D02*
X158142857Y-104432438D01*
X158142857Y-104432438D02*
X158238095Y-104527676D01*
X158238095Y-104527676D02*
X158285714Y-104622914D01*
X158285714Y-104622914D02*
X158333333Y-104813390D01*
X158333333Y-104813390D02*
X158333333Y-104956247D01*
X158333333Y-104956247D02*
X158285714Y-105146723D01*
X158285714Y-105146723D02*
X158238095Y-105241961D01*
X158238095Y-105241961D02*
X158142857Y-105337200D01*
X158142857Y-105337200D02*
X158000000Y-105384819D01*
X158000000Y-105384819D02*
X157761905Y-105384819D01*
X158666667Y-104384819D02*
X159333333Y-104384819D01*
X159333333Y-104384819D02*
X158904762Y-105384819D01*
X164857142Y-105384819D02*
X164523809Y-104908628D01*
X164285714Y-105384819D02*
X164285714Y-104384819D01*
X164285714Y-104384819D02*
X164666666Y-104384819D01*
X164666666Y-104384819D02*
X164761904Y-104432438D01*
X164761904Y-104432438D02*
X164809523Y-104480057D01*
X164809523Y-104480057D02*
X164857142Y-104575295D01*
X164857142Y-104575295D02*
X164857142Y-104718152D01*
X164857142Y-104718152D02*
X164809523Y-104813390D01*
X164809523Y-104813390D02*
X164761904Y-104861009D01*
X164761904Y-104861009D02*
X164666666Y-104908628D01*
X164666666Y-104908628D02*
X164285714Y-104908628D01*
X165809523Y-105384819D02*
X165238095Y-105384819D01*
X165523809Y-105384819D02*
X165523809Y-104384819D01*
X165523809Y-104384819D02*
X165428571Y-104527676D01*
X165428571Y-104527676D02*
X165333333Y-104622914D01*
X165333333Y-104622914D02*
X165238095Y-104670533D01*
X166666666Y-104718152D02*
X166666666Y-105384819D01*
X166428571Y-104337200D02*
X166190476Y-105051485D01*
X166190476Y-105051485D02*
X166809523Y-105051485D01*
X157761905Y-97974819D02*
X157761905Y-96974819D01*
X157761905Y-96974819D02*
X158000000Y-96974819D01*
X158000000Y-96974819D02*
X158142857Y-97022438D01*
X158142857Y-97022438D02*
X158238095Y-97117676D01*
X158238095Y-97117676D02*
X158285714Y-97212914D01*
X158285714Y-97212914D02*
X158333333Y-97403390D01*
X158333333Y-97403390D02*
X158333333Y-97546247D01*
X158333333Y-97546247D02*
X158285714Y-97736723D01*
X158285714Y-97736723D02*
X158238095Y-97831961D01*
X158238095Y-97831961D02*
X158142857Y-97927200D01*
X158142857Y-97927200D02*
X158000000Y-97974819D01*
X158000000Y-97974819D02*
X157761905Y-97974819D01*
X159190476Y-97308152D02*
X159190476Y-97974819D01*
X158952381Y-96927200D02*
X158714286Y-97641485D01*
X158714286Y-97641485D02*
X159333333Y-97641485D01*
X160504642Y-61514819D02*
X160171309Y-61038628D01*
X159933214Y-61514819D02*
X159933214Y-60514819D01*
X159933214Y-60514819D02*
X160314166Y-60514819D01*
X160314166Y-60514819D02*
X160409404Y-60562438D01*
X160409404Y-60562438D02*
X160457023Y-60610057D01*
X160457023Y-60610057D02*
X160504642Y-60705295D01*
X160504642Y-60705295D02*
X160504642Y-60848152D01*
X160504642Y-60848152D02*
X160457023Y-60943390D01*
X160457023Y-60943390D02*
X160409404Y-60991009D01*
X160409404Y-60991009D02*
X160314166Y-61038628D01*
X160314166Y-61038628D02*
X159933214Y-61038628D01*
X160885595Y-60610057D02*
X160933214Y-60562438D01*
X160933214Y-60562438D02*
X161028452Y-60514819D01*
X161028452Y-60514819D02*
X161266547Y-60514819D01*
X161266547Y-60514819D02*
X161361785Y-60562438D01*
X161361785Y-60562438D02*
X161409404Y-60610057D01*
X161409404Y-60610057D02*
X161457023Y-60705295D01*
X161457023Y-60705295D02*
X161457023Y-60800533D01*
X161457023Y-60800533D02*
X161409404Y-60943390D01*
X161409404Y-60943390D02*
X160837976Y-61514819D01*
X160837976Y-61514819D02*
X161457023Y-61514819D01*
X162028452Y-60943390D02*
X161933214Y-60895771D01*
X161933214Y-60895771D02*
X161885595Y-60848152D01*
X161885595Y-60848152D02*
X161837976Y-60752914D01*
X161837976Y-60752914D02*
X161837976Y-60705295D01*
X161837976Y-60705295D02*
X161885595Y-60610057D01*
X161885595Y-60610057D02*
X161933214Y-60562438D01*
X161933214Y-60562438D02*
X162028452Y-60514819D01*
X162028452Y-60514819D02*
X162218928Y-60514819D01*
X162218928Y-60514819D02*
X162314166Y-60562438D01*
X162314166Y-60562438D02*
X162361785Y-60610057D01*
X162361785Y-60610057D02*
X162409404Y-60705295D01*
X162409404Y-60705295D02*
X162409404Y-60752914D01*
X162409404Y-60752914D02*
X162361785Y-60848152D01*
X162361785Y-60848152D02*
X162314166Y-60895771D01*
X162314166Y-60895771D02*
X162218928Y-60943390D01*
X162218928Y-60943390D02*
X162028452Y-60943390D01*
X162028452Y-60943390D02*
X161933214Y-60991009D01*
X161933214Y-60991009D02*
X161885595Y-61038628D01*
X161885595Y-61038628D02*
X161837976Y-61133866D01*
X161837976Y-61133866D02*
X161837976Y-61324342D01*
X161837976Y-61324342D02*
X161885595Y-61419580D01*
X161885595Y-61419580D02*
X161933214Y-61467200D01*
X161933214Y-61467200D02*
X162028452Y-61514819D01*
X162028452Y-61514819D02*
X162218928Y-61514819D01*
X162218928Y-61514819D02*
X162314166Y-61467200D01*
X162314166Y-61467200D02*
X162361785Y-61419580D01*
X162361785Y-61419580D02*
X162409404Y-61324342D01*
X162409404Y-61324342D02*
X162409404Y-61133866D01*
X162409404Y-61133866D02*
X162361785Y-61038628D01*
X162361785Y-61038628D02*
X162314166Y-60991009D01*
X162314166Y-60991009D02*
X162218928Y-60943390D01*
X161357142Y-97894819D02*
X161023809Y-97418628D01*
X160785714Y-97894819D02*
X160785714Y-96894819D01*
X160785714Y-96894819D02*
X161166666Y-96894819D01*
X161166666Y-96894819D02*
X161261904Y-96942438D01*
X161261904Y-96942438D02*
X161309523Y-96990057D01*
X161309523Y-96990057D02*
X161357142Y-97085295D01*
X161357142Y-97085295D02*
X161357142Y-97228152D01*
X161357142Y-97228152D02*
X161309523Y-97323390D01*
X161309523Y-97323390D02*
X161261904Y-97371009D01*
X161261904Y-97371009D02*
X161166666Y-97418628D01*
X161166666Y-97418628D02*
X160785714Y-97418628D01*
X162309523Y-97894819D02*
X161738095Y-97894819D01*
X162023809Y-97894819D02*
X162023809Y-96894819D01*
X162023809Y-96894819D02*
X161928571Y-97037676D01*
X161928571Y-97037676D02*
X161833333Y-97132914D01*
X161833333Y-97132914D02*
X161738095Y-97180533D01*
X162642857Y-96894819D02*
X163309523Y-96894819D01*
X163309523Y-96894819D02*
X162880952Y-97894819D01*
X146833333Y-45054819D02*
X146500000Y-44578628D01*
X146261905Y-45054819D02*
X146261905Y-44054819D01*
X146261905Y-44054819D02*
X146642857Y-44054819D01*
X146642857Y-44054819D02*
X146738095Y-44102438D01*
X146738095Y-44102438D02*
X146785714Y-44150057D01*
X146785714Y-44150057D02*
X146833333Y-44245295D01*
X146833333Y-44245295D02*
X146833333Y-44388152D01*
X146833333Y-44388152D02*
X146785714Y-44483390D01*
X146785714Y-44483390D02*
X146738095Y-44531009D01*
X146738095Y-44531009D02*
X146642857Y-44578628D01*
X146642857Y-44578628D02*
X146261905Y-44578628D01*
X147166667Y-44054819D02*
X147833333Y-44054819D01*
X147833333Y-44054819D02*
X147404762Y-45054819D01*
X157761905Y-100384819D02*
X157761905Y-99384819D01*
X157761905Y-99384819D02*
X158000000Y-99384819D01*
X158000000Y-99384819D02*
X158142857Y-99432438D01*
X158142857Y-99432438D02*
X158238095Y-99527676D01*
X158238095Y-99527676D02*
X158285714Y-99622914D01*
X158285714Y-99622914D02*
X158333333Y-99813390D01*
X158333333Y-99813390D02*
X158333333Y-99956247D01*
X158333333Y-99956247D02*
X158285714Y-100146723D01*
X158285714Y-100146723D02*
X158238095Y-100241961D01*
X158238095Y-100241961D02*
X158142857Y-100337200D01*
X158142857Y-100337200D02*
X158000000Y-100384819D01*
X158000000Y-100384819D02*
X157761905Y-100384819D01*
X159238095Y-99384819D02*
X158761905Y-99384819D01*
X158761905Y-99384819D02*
X158714286Y-99861009D01*
X158714286Y-99861009D02*
X158761905Y-99813390D01*
X158761905Y-99813390D02*
X158857143Y-99765771D01*
X158857143Y-99765771D02*
X159095238Y-99765771D01*
X159095238Y-99765771D02*
X159190476Y-99813390D01*
X159190476Y-99813390D02*
X159238095Y-99861009D01*
X159238095Y-99861009D02*
X159285714Y-99956247D01*
X159285714Y-99956247D02*
X159285714Y-100194342D01*
X159285714Y-100194342D02*
X159238095Y-100289580D01*
X159238095Y-100289580D02*
X159190476Y-100337200D01*
X159190476Y-100337200D02*
X159095238Y-100384819D01*
X159095238Y-100384819D02*
X158857143Y-100384819D01*
X158857143Y-100384819D02*
X158761905Y-100337200D01*
X158761905Y-100337200D02*
X158714286Y-100289580D01*
X164857142Y-100384819D02*
X164523809Y-99908628D01*
X164285714Y-100384819D02*
X164285714Y-99384819D01*
X164285714Y-99384819D02*
X164666666Y-99384819D01*
X164666666Y-99384819D02*
X164761904Y-99432438D01*
X164761904Y-99432438D02*
X164809523Y-99480057D01*
X164809523Y-99480057D02*
X164857142Y-99575295D01*
X164857142Y-99575295D02*
X164857142Y-99718152D01*
X164857142Y-99718152D02*
X164809523Y-99813390D01*
X164809523Y-99813390D02*
X164761904Y-99861009D01*
X164761904Y-99861009D02*
X164666666Y-99908628D01*
X164666666Y-99908628D02*
X164285714Y-99908628D01*
X165809523Y-100384819D02*
X165238095Y-100384819D01*
X165523809Y-100384819D02*
X165523809Y-99384819D01*
X165523809Y-99384819D02*
X165428571Y-99527676D01*
X165428571Y-99527676D02*
X165333333Y-99622914D01*
X165333333Y-99622914D02*
X165238095Y-99670533D01*
X166190476Y-99480057D02*
X166238095Y-99432438D01*
X166238095Y-99432438D02*
X166333333Y-99384819D01*
X166333333Y-99384819D02*
X166571428Y-99384819D01*
X166571428Y-99384819D02*
X166666666Y-99432438D01*
X166666666Y-99432438D02*
X166714285Y-99480057D01*
X166714285Y-99480057D02*
X166761904Y-99575295D01*
X166761904Y-99575295D02*
X166761904Y-99670533D01*
X166761904Y-99670533D02*
X166714285Y-99813390D01*
X166714285Y-99813390D02*
X166142857Y-100384819D01*
X166142857Y-100384819D02*
X166761904Y-100384819D01*
D12*
%TO.C,R20*%
X162237258Y-103007500D02*
X161762742Y-103007500D01*
X162237258Y-104052500D02*
X161762742Y-104052500D01*
%TO.C,R4*%
X125762742Y-48977500D02*
X126237258Y-48977500D01*
X125762742Y-50022500D02*
X126237258Y-50022500D01*
%TO.C,D6*%
X157700000Y-101735000D02*
X159985000Y-101735000D01*
X159985000Y-100265000D02*
X157700000Y-100265000D01*
X159985000Y-101735000D02*
X159985000Y-100265000D01*
%TO.C,J1*%
X119750000Y-46830000D02*
X121450000Y-46830000D01*
X119750000Y-56170000D02*
X121450000Y-56170000D01*
%TO.C,J3*%
X181870000Y-109130000D02*
X183200000Y-109130000D01*
X181870000Y-110460000D02*
X181870000Y-109130000D01*
X181870000Y-111730000D02*
X184470000Y-111730000D01*
X181870000Y-114330000D02*
X181870000Y-111730000D01*
X181870000Y-114330000D02*
X204850000Y-114330000D01*
X184470000Y-109130000D02*
X204850000Y-109130000D01*
X184470000Y-111730000D02*
X184470000Y-109130000D01*
X204850000Y-114330000D02*
X204850000Y-109130000D01*
%TO.C,R6*%
X199375500Y-105561224D02*
X199375500Y-105051776D01*
X200420500Y-105561224D02*
X200420500Y-105051776D01*
%TO.C,D8*%
X157700000Y-106735000D02*
X159985000Y-106735000D01*
X159985000Y-105265000D02*
X157700000Y-105265000D01*
X159985000Y-106735000D02*
X159985000Y-105265000D01*
%TO.C,U2*%
X171590000Y-88590000D02*
X171590000Y-88890000D01*
X171590000Y-95810000D02*
X171590000Y-95510000D01*
X171890000Y-88590000D02*
X171590000Y-88590000D01*
X171890000Y-95810000D02*
X171590000Y-95810000D01*
X178510000Y-88590000D02*
X178810000Y-88590000D01*
X178510000Y-95810000D02*
X178810000Y-95810000D01*
X178810000Y-88590000D02*
X178810000Y-88890000D01*
X178810000Y-95810000D02*
X178810000Y-95510000D01*
X170987500Y-88890000D02*
X170647500Y-88420000D01*
X171327500Y-88420000D01*
X170987500Y-88890000D01*
G36*
X170987500Y-88890000D02*
G01*
X170647500Y-88420000D01*
X171327500Y-88420000D01*
X170987500Y-88890000D01*
G37*
%TO.C,D2*%
X118015000Y-81765000D02*
X118015000Y-83235000D01*
X118015000Y-83235000D02*
X120300000Y-83235000D01*
X120300000Y-81765000D02*
X118015000Y-81765000D01*
%TO.C,R15*%
X165737258Y-105477500D02*
X165262742Y-105477500D01*
X165737258Y-106522500D02*
X165262742Y-106522500D01*
%TO.C,J2*%
X183074000Y-68774000D02*
X184404000Y-68774000D01*
X183074000Y-70104000D02*
X183074000Y-68774000D01*
X185674000Y-68774000D02*
X200974000Y-68774000D01*
X185674000Y-71434000D02*
X185674000Y-68774000D01*
X185674000Y-71434000D02*
X200974000Y-71434000D01*
X200974000Y-71434000D02*
X200974000Y-68774000D01*
%TO.C,J5*%
X125870000Y-109070000D02*
X127200000Y-109070000D01*
X125870000Y-110400000D02*
X125870000Y-109070000D01*
X125870000Y-111670000D02*
X128470000Y-111670000D01*
X125870000Y-114270000D02*
X125870000Y-111670000D01*
X125870000Y-114270000D02*
X148850000Y-114270000D01*
X128470000Y-109070000D02*
X148850000Y-109070000D01*
X128470000Y-111670000D02*
X128470000Y-109070000D01*
X148850000Y-114270000D02*
X148850000Y-109070000D01*
%TO.C,U1*%
X131500000Y-52440000D02*
X129550000Y-52440000D01*
X131500000Y-52440000D02*
X133450000Y-52440000D01*
X131500000Y-57560000D02*
X129550000Y-57560000D01*
X131500000Y-57560000D02*
X133450000Y-57560000D01*
X128800000Y-52535000D02*
X128560000Y-52205000D01*
X129040000Y-52205000D01*
X128800000Y-52535000D01*
G36*
X128800000Y-52535000D02*
G01*
X128560000Y-52205000D01*
X129040000Y-52205000D01*
X128800000Y-52535000D01*
G37*
%TO.C,R1*%
X136477500Y-53762742D02*
X136477500Y-54237258D01*
X137522500Y-53762742D02*
X137522500Y-54237258D01*
%TO.C,SW2*%
X190048000Y-98564000D02*
X190048000Y-100064000D01*
X191298000Y-102564000D02*
X195798000Y-102564000D01*
X195798000Y-96064000D02*
X191298000Y-96064000D01*
X197048000Y-100064000D02*
X197048000Y-98564000D01*
%TO.C,U5*%
X164468000Y-66516000D02*
X164468000Y-47276000D01*
X164468000Y-66516000D02*
X215008000Y-66516000D01*
X182388000Y-66766000D02*
X184388000Y-66766000D01*
X215008000Y-47276000D02*
X164468000Y-47276000D01*
X215008000Y-66516000D02*
X215008000Y-47276000D01*
%TO.C,R5*%
X125477500Y-54762742D02*
X125477500Y-55237258D01*
X126522500Y-54762742D02*
X126522500Y-55237258D01*
%TO.C,R18*%
X162237258Y-97987500D02*
X161762742Y-97987500D01*
X162237258Y-99032500D02*
X161762742Y-99032500D01*
%TO.C,R2*%
X136477500Y-56762742D02*
X136477500Y-57237258D01*
X137522500Y-56762742D02*
X137522500Y-57237258D01*
%TO.C,U3*%
X140792000Y-44822000D02*
X139992000Y-44822000D01*
X140792000Y-44822000D02*
X141592000Y-44822000D01*
X140792000Y-47942000D02*
X139992000Y-47942000D01*
X140792000Y-47942000D02*
X141592000Y-47942000D01*
X139492000Y-44872000D02*
X139252000Y-44542000D01*
X139732000Y-44542000D01*
X139492000Y-44872000D01*
G36*
X139492000Y-44872000D02*
G01*
X139252000Y-44542000D01*
X139732000Y-44542000D01*
X139492000Y-44872000D01*
G37*
%TO.C,R19*%
X162237258Y-100497500D02*
X161762742Y-100497500D01*
X162237258Y-101542500D02*
X161762742Y-101542500D01*
D13*
%TO.C,SW1*%
X112738900Y-63879101D02*
X116726700Y-63879101D01*
X112738900Y-68120901D02*
X112738900Y-63879101D01*
X116726700Y-61567701D02*
X117837522Y-61567701D01*
X116726700Y-63879101D02*
X116726700Y-61567701D01*
X116726700Y-68120901D02*
X112738900Y-68120901D01*
X116726700Y-70432301D02*
X116726700Y-68120901D01*
X117837522Y-70432301D02*
X116726700Y-70432301D01*
X120162478Y-61567701D02*
X121273300Y-61567701D01*
X121273300Y-61567701D02*
X121273300Y-70432301D01*
X121273300Y-70432301D02*
X120162478Y-70432301D01*
D14*
X119381000Y-59789701D02*
G75*
G02*
X118619000Y-59789701I-381000J0D01*
G01*
X118619000Y-59789701D02*
G75*
G02*
X119381000Y-59789701I381000J0D01*
G01*
D12*
%TO.C,C1*%
X124288748Y-59090000D02*
X125711252Y-59090000D01*
X124288748Y-60910000D02*
X125711252Y-60910000D01*
%TO.C,SW3*%
X141250000Y-67008000D02*
X141250000Y-68508000D01*
X142500000Y-71008000D02*
X147000000Y-71008000D01*
X147000000Y-64508000D02*
X142500000Y-64508000D01*
X148250000Y-68508000D02*
X148250000Y-67008000D01*
%TO.C,J7*%
X153870000Y-109070000D02*
X155200000Y-109070000D01*
X153870000Y-110400000D02*
X153870000Y-109070000D01*
X153870000Y-111670000D02*
X156470000Y-111670000D01*
X153870000Y-114270000D02*
X153870000Y-111670000D01*
X153870000Y-114270000D02*
X176850000Y-114270000D01*
X156470000Y-109070000D02*
X176850000Y-109070000D01*
X156470000Y-111670000D02*
X156470000Y-109070000D01*
X176850000Y-114270000D02*
X176850000Y-109070000D01*
%TO.C,D1*%
X118015000Y-80265000D02*
X118015000Y-81735000D01*
X118015000Y-81735000D02*
X120300000Y-81735000D01*
X120300000Y-80265000D02*
X118015000Y-80265000D01*
%TO.C,C2*%
X150590000Y-47290000D02*
X152940000Y-47290000D01*
X150590000Y-53045563D02*
X150590000Y-47290000D01*
X151654437Y-54110000D02*
X150590000Y-53045563D01*
X151654437Y-54110000D02*
X152940000Y-54110000D01*
X151758750Y-54743750D02*
X152546250Y-54743750D01*
X152152500Y-55137500D02*
X152152500Y-54350000D01*
X156345563Y-54110000D02*
X155060000Y-54110000D01*
X156345563Y-54110000D02*
X157410000Y-53045563D01*
X157410000Y-47290000D02*
X155060000Y-47290000D01*
X157410000Y-53045563D02*
X157410000Y-47290000D01*
%TO.C,R11*%
X165737258Y-95477500D02*
X165262742Y-95477500D01*
X165737258Y-96522500D02*
X165262742Y-96522500D01*
%TO.C,C3*%
X127562500Y-44852500D02*
X128350000Y-44852500D01*
X127956250Y-44458750D02*
X127956250Y-45246250D01*
X128590000Y-44354437D02*
X128590000Y-45640000D01*
X128590000Y-44354437D02*
X129654437Y-43290000D01*
X128590000Y-49045563D02*
X128590000Y-47760000D01*
X128590000Y-49045563D02*
X129654437Y-50110000D01*
X129654437Y-43290000D02*
X135410000Y-43290000D01*
X129654437Y-50110000D02*
X135410000Y-50110000D01*
X135410000Y-43290000D02*
X135410000Y-45640000D01*
X135410000Y-50110000D02*
X135410000Y-47760000D01*
%TO.C,R3*%
X125762742Y-51967500D02*
X126237258Y-51967500D01*
X125762742Y-53012500D02*
X126237258Y-53012500D01*
%TO.C,D3*%
X157700000Y-94235000D02*
X159985000Y-94235000D01*
X159985000Y-92765000D02*
X157700000Y-92765000D01*
X159985000Y-94235000D02*
X159985000Y-92765000D01*
%TO.C,SW4*%
X128042000Y-67008000D02*
X128042000Y-68508000D01*
X129292000Y-71008000D02*
X133792000Y-71008000D01*
X133792000Y-64508000D02*
X129292000Y-64508000D01*
X135042000Y-68508000D02*
X135042000Y-67008000D01*
%TO.C,SW5*%
X154712000Y-66500000D02*
X154712000Y-68000000D01*
X155962000Y-70500000D02*
X160462000Y-70500000D01*
X160462000Y-64000000D02*
X155962000Y-64000000D01*
X161712000Y-68000000D02*
X161712000Y-66500000D01*
%TO.C,U4*%
X132150000Y-82150000D02*
X132150000Y-104850000D01*
X132150000Y-104850000D02*
X155850000Y-104850000D01*
X133150000Y-81150000D02*
X132150000Y-82150000D01*
X143000000Y-81150000D02*
X133150000Y-81150000D01*
X155850000Y-81150000D02*
X145000000Y-81150000D01*
X155850000Y-104850000D02*
X155850000Y-81150000D01*
%TO.C,R8*%
X164254724Y-78977500D02*
X163745276Y-78977500D01*
X164254724Y-80022500D02*
X163745276Y-80022500D01*
%TO.C,L1*%
X139378000Y-49286000D02*
X146778000Y-49286000D01*
X139378000Y-51586000D02*
X139378000Y-49286000D01*
X139378000Y-56686000D02*
X139378000Y-54386000D01*
X146778000Y-49286000D02*
X146778000Y-51586000D01*
X146778000Y-54386000D02*
X146778000Y-56686000D01*
X146778000Y-56686000D02*
X139378000Y-56686000D01*
%TO.C,R9*%
X144984000Y-46049879D02*
X144984000Y-46385121D01*
X145744000Y-46049879D02*
X145744000Y-46385121D01*
%TO.C,R26*%
X147592879Y-62080000D02*
X147928121Y-62080000D01*
X147592879Y-62840000D02*
X147928121Y-62840000D01*
%TO.C,R27*%
X134055879Y-62842000D02*
X134391121Y-62842000D01*
X134055879Y-63602000D02*
X134391121Y-63602000D01*
%TO.C,R21*%
X162237258Y-105517500D02*
X161762742Y-105517500D01*
X162237258Y-106562500D02*
X161762742Y-106562500D01*
%TO.C,J4*%
X209744000Y-94996000D02*
X209744000Y-107756000D01*
X209744000Y-94996000D02*
X212404000Y-94996000D01*
X209744000Y-107756000D02*
X212404000Y-107756000D01*
X211074000Y-92396000D02*
X212404000Y-92396000D01*
X212404000Y-92396000D02*
X212404000Y-93726000D01*
X212404000Y-94996000D02*
X212404000Y-107756000D01*
%TO.C,R13*%
X165737258Y-100477500D02*
X165262742Y-100477500D01*
X165737258Y-101522500D02*
X165262742Y-101522500D01*
%TO.C,BT1*%
X118440000Y-73890000D02*
X118440000Y-76125000D01*
X118440000Y-78360000D02*
X118440000Y-76125000D01*
X123860000Y-74960000D02*
X124160000Y-74960000D01*
X123860000Y-76125000D02*
X123860000Y-74960000D01*
X123860000Y-76125000D02*
X123860000Y-77290000D01*
X123860000Y-77290000D02*
X124160000Y-77290000D01*
X124150000Y-75250000D02*
X124450000Y-75250000D01*
X124160000Y-73890000D02*
X118440000Y-73890000D01*
X124160000Y-74960000D02*
X124160000Y-73890000D01*
X124160000Y-77290000D02*
X124160000Y-78360000D01*
X124160000Y-78360000D02*
X118440000Y-78360000D01*
X124450000Y-75250000D02*
X124450000Y-74750000D01*
%TO.C,R10*%
X165737258Y-92937500D02*
X165262742Y-92937500D01*
X165737258Y-93982500D02*
X165262742Y-93982500D01*
%TO.C,R16*%
X162237258Y-92977500D02*
X161762742Y-92977500D01*
X162237258Y-94022500D02*
X161762742Y-94022500D01*
%TO.C,J6*%
X118067500Y-89920000D02*
X118067500Y-90920000D01*
X118067500Y-90920000D02*
X119067500Y-90420000D01*
X119067500Y-90420000D02*
X118067500Y-89920000D01*
X119457500Y-85210000D02*
X128577500Y-85210000D01*
X119457500Y-93450000D02*
X120767500Y-93450000D01*
X119457500Y-105790000D02*
X119457500Y-85210000D01*
X120767500Y-86510000D02*
X127267500Y-86510000D01*
X120767500Y-93450000D02*
X120767500Y-86510000D01*
X120767500Y-97550000D02*
X119457500Y-97550000D01*
X120767500Y-104490000D02*
X120767500Y-97550000D01*
X127267500Y-86510000D02*
X127267500Y-104490000D01*
X127267500Y-104490000D02*
X120767500Y-104490000D01*
X128577500Y-85210000D02*
X128577500Y-105790000D01*
X128577500Y-105790000D02*
X119457500Y-105790000D01*
%TO.C,D7*%
X157700000Y-104235000D02*
X159985000Y-104235000D01*
X159985000Y-102765000D02*
X157700000Y-102765000D01*
X159985000Y-104235000D02*
X159985000Y-102765000D01*
%TO.C,R14*%
X165737258Y-102977500D02*
X165262742Y-102977500D01*
X165737258Y-104022500D02*
X165262742Y-104022500D01*
%TO.C,D4*%
X157700000Y-96825000D02*
X159985000Y-96825000D01*
X159985000Y-95355000D02*
X157700000Y-95355000D01*
X159985000Y-96825000D02*
X159985000Y-95355000D01*
%TO.C,R28*%
X160979879Y-62080000D02*
X161315121Y-62080000D01*
X160979879Y-62840000D02*
X161315121Y-62840000D01*
%TO.C,R17*%
X162237258Y-95487500D02*
X161762742Y-95487500D01*
X162237258Y-96532500D02*
X161762742Y-96532500D01*
%TO.C,R7*%
X143714000Y-44690379D02*
X143714000Y-45025621D01*
X144474000Y-44690379D02*
X144474000Y-45025621D01*
%TO.C,D5*%
X157700000Y-99235000D02*
X159985000Y-99235000D01*
X159985000Y-97765000D02*
X157700000Y-97765000D01*
X159985000Y-99235000D02*
X159985000Y-97765000D01*
%TO.C,R12*%
X165737258Y-97977500D02*
X165262742Y-97977500D01*
X165737258Y-99022500D02*
X165262742Y-99022500D01*
%TD*%
M02*
