M48
; DRILL file {KiCad 9.0.4} date 2026-01-28T22:22:29+0900
; FORMAT={-:-/ absolute / metric / decimal}
; #@! TF.CreationDate,2026-01-28T22:22:29+09:00
; #@! TF.GenerationSoftware,Kicad,Pcbnew,9.0.4
; #@! TF.FileFunction,Plated,1,2,PTH
FMAT,2
METRIC
; #@! TA.AperFunction,Plated,PTH,ViaDrill
T1C0.300
; #@! TA.AperFunction,Plated,PTH,ComponentDrill
T2C1.000
; #@! TA.AperFunction,Plated,PTH,ComponentDrill
T3C1.020
%
G90
G05
T1
X80.0Y-47.5
X81.0Y-57.5
X81.0Y-96.5
X82.5Y-47.5
X101.0Y-53.0
X137.5Y-74.5
X141.0Y-82.0
X144.0Y-75.0
X168.5Y-61.5
X201.0Y-41.5
X201.5Y-46.0
T2
X172.72Y-81.92
X172.72Y-84.46
X172.72Y-87.0
X172.72Y-89.54
X172.72Y-92.08
X172.72Y-94.62
X172.72Y-97.16
X172.72Y-99.7
X184.5Y-69.734
X184.5Y-72.274
X190.5Y-81.92
X190.5Y-84.46
X190.5Y-87.0
X190.5Y-89.54
X190.5Y-92.08
X190.5Y-94.62
X190.5Y-97.16
X190.5Y-99.7
T3
X196.5Y-65.5
X196.5Y-68.5
X196.5Y-71.5
M30
