%TF.GenerationSoftware,KiCad,Pcbnew,9.0.4*%
%TF.CreationDate,2026-01-28T22:22:26+09:00*%
%TF.ProjectId,kalimba,6b616c69-6d62-4612-9e6b-696361645f70,rev?*%
%TF.SameCoordinates,Original*%
%TF.FileFunction,Legend,Top*%
%TF.FilePolarity,Positive*%
%FSLAX46Y46*%
G04 Gerber Fmt 4.6, Leading zero omitted, Abs format (unit mm)*
G04 Created by KiCad (PCBNEW 9.0.4) date 2026-01-28 22:22:26*
%MOMM*%
%LPD*%
G01*
G04 APERTURE LIST*
%ADD10C,0.300000*%
%ADD11C,0.100000*%
%ADD12C,0.150000*%
%ADD13C,0.152400*%
%ADD14C,0.120000*%
G04 APERTURE END LIST*
D10*
X136249999Y-45800828D02*
X136249999Y-44300828D01*
X137107142Y-45800828D02*
X136464285Y-44943685D01*
X137107142Y-44300828D02*
X136249999Y-45157971D01*
X138392857Y-45800828D02*
X138392857Y-45015114D01*
X138392857Y-45015114D02*
X138321428Y-44872257D01*
X138321428Y-44872257D02*
X138178571Y-44800828D01*
X138178571Y-44800828D02*
X137892857Y-44800828D01*
X137892857Y-44800828D02*
X137749999Y-44872257D01*
X138392857Y-45729400D02*
X138249999Y-45800828D01*
X138249999Y-45800828D02*
X137892857Y-45800828D01*
X137892857Y-45800828D02*
X137749999Y-45729400D01*
X137749999Y-45729400D02*
X137678571Y-45586542D01*
X137678571Y-45586542D02*
X137678571Y-45443685D01*
X137678571Y-45443685D02*
X137749999Y-45300828D01*
X137749999Y-45300828D02*
X137892857Y-45229400D01*
X137892857Y-45229400D02*
X138249999Y-45229400D01*
X138249999Y-45229400D02*
X138392857Y-45157971D01*
X139321428Y-45800828D02*
X139178571Y-45729400D01*
X139178571Y-45729400D02*
X139107142Y-45586542D01*
X139107142Y-45586542D02*
X139107142Y-44300828D01*
X139892856Y-45800828D02*
X139892856Y-44800828D01*
X139892856Y-44300828D02*
X139821428Y-44372257D01*
X139821428Y-44372257D02*
X139892856Y-44443685D01*
X139892856Y-44443685D02*
X139964285Y-44372257D01*
X139964285Y-44372257D02*
X139892856Y-44300828D01*
X139892856Y-44300828D02*
X139892856Y-44443685D01*
X140607142Y-45800828D02*
X140607142Y-44800828D01*
X140607142Y-44943685D02*
X140678571Y-44872257D01*
X140678571Y-44872257D02*
X140821428Y-44800828D01*
X140821428Y-44800828D02*
X141035714Y-44800828D01*
X141035714Y-44800828D02*
X141178571Y-44872257D01*
X141178571Y-44872257D02*
X141250000Y-45015114D01*
X141250000Y-45015114D02*
X141250000Y-45800828D01*
X141250000Y-45015114D02*
X141321428Y-44872257D01*
X141321428Y-44872257D02*
X141464285Y-44800828D01*
X141464285Y-44800828D02*
X141678571Y-44800828D01*
X141678571Y-44800828D02*
X141821428Y-44872257D01*
X141821428Y-44872257D02*
X141892857Y-45015114D01*
X141892857Y-45015114D02*
X141892857Y-45800828D01*
X142607142Y-45800828D02*
X142607142Y-44300828D01*
X142607142Y-44872257D02*
X142750000Y-44800828D01*
X142750000Y-44800828D02*
X143035714Y-44800828D01*
X143035714Y-44800828D02*
X143178571Y-44872257D01*
X143178571Y-44872257D02*
X143250000Y-44943685D01*
X143250000Y-44943685D02*
X143321428Y-45086542D01*
X143321428Y-45086542D02*
X143321428Y-45515114D01*
X143321428Y-45515114D02*
X143250000Y-45657971D01*
X143250000Y-45657971D02*
X143178571Y-45729400D01*
X143178571Y-45729400D02*
X143035714Y-45800828D01*
X143035714Y-45800828D02*
X142750000Y-45800828D01*
X142750000Y-45800828D02*
X142607142Y-45729400D01*
X144607143Y-45800828D02*
X144607143Y-45015114D01*
X144607143Y-45015114D02*
X144535714Y-44872257D01*
X144535714Y-44872257D02*
X144392857Y-44800828D01*
X144392857Y-44800828D02*
X144107143Y-44800828D01*
X144107143Y-44800828D02*
X143964285Y-44872257D01*
X144607143Y-45729400D02*
X144464285Y-45800828D01*
X144464285Y-45800828D02*
X144107143Y-45800828D01*
X144107143Y-45800828D02*
X143964285Y-45729400D01*
X143964285Y-45729400D02*
X143892857Y-45586542D01*
X143892857Y-45586542D02*
X143892857Y-45443685D01*
X143892857Y-45443685D02*
X143964285Y-45300828D01*
X143964285Y-45300828D02*
X144107143Y-45229400D01*
X144107143Y-45229400D02*
X144464285Y-45229400D01*
X144464285Y-45229400D02*
X144607143Y-45157971D01*
D11*
X177714285Y-88442531D02*
X178380952Y-88442531D01*
X178666666Y-89490150D02*
X177714285Y-89490150D01*
X177714285Y-89490150D02*
X177714285Y-87490150D01*
X177714285Y-87490150D02*
X178666666Y-87490150D01*
X179428571Y-89394912D02*
X179714285Y-89490150D01*
X179714285Y-89490150D02*
X180190476Y-89490150D01*
X180190476Y-89490150D02*
X180380952Y-89394912D01*
X180380952Y-89394912D02*
X180476190Y-89299673D01*
X180476190Y-89299673D02*
X180571428Y-89109197D01*
X180571428Y-89109197D02*
X180571428Y-88918721D01*
X180571428Y-88918721D02*
X180476190Y-88728245D01*
X180476190Y-88728245D02*
X180380952Y-88633007D01*
X180380952Y-88633007D02*
X180190476Y-88537769D01*
X180190476Y-88537769D02*
X179809523Y-88442531D01*
X179809523Y-88442531D02*
X179619047Y-88347292D01*
X179619047Y-88347292D02*
X179523809Y-88252054D01*
X179523809Y-88252054D02*
X179428571Y-88061578D01*
X179428571Y-88061578D02*
X179428571Y-87871102D01*
X179428571Y-87871102D02*
X179523809Y-87680626D01*
X179523809Y-87680626D02*
X179619047Y-87585388D01*
X179619047Y-87585388D02*
X179809523Y-87490150D01*
X179809523Y-87490150D02*
X180285714Y-87490150D01*
X180285714Y-87490150D02*
X180571428Y-87585388D01*
X181428571Y-89490150D02*
X181428571Y-87490150D01*
X181428571Y-87490150D02*
X182190476Y-87490150D01*
X182190476Y-87490150D02*
X182380952Y-87585388D01*
X182380952Y-87585388D02*
X182476190Y-87680626D01*
X182476190Y-87680626D02*
X182571428Y-87871102D01*
X182571428Y-87871102D02*
X182571428Y-88156816D01*
X182571428Y-88156816D02*
X182476190Y-88347292D01*
X182476190Y-88347292D02*
X182380952Y-88442531D01*
X182380952Y-88442531D02*
X182190476Y-88537769D01*
X182190476Y-88537769D02*
X181428571Y-88537769D01*
X183238095Y-87490150D02*
X184476190Y-87490150D01*
X184476190Y-87490150D02*
X183809523Y-88252054D01*
X183809523Y-88252054D02*
X184095238Y-88252054D01*
X184095238Y-88252054D02*
X184285714Y-88347292D01*
X184285714Y-88347292D02*
X184380952Y-88442531D01*
X184380952Y-88442531D02*
X184476190Y-88633007D01*
X184476190Y-88633007D02*
X184476190Y-89109197D01*
X184476190Y-89109197D02*
X184380952Y-89299673D01*
X184380952Y-89299673D02*
X184285714Y-89394912D01*
X184285714Y-89394912D02*
X184095238Y-89490150D01*
X184095238Y-89490150D02*
X183523809Y-89490150D01*
X183523809Y-89490150D02*
X183333333Y-89394912D01*
X183333333Y-89394912D02*
X183238095Y-89299673D01*
X185238095Y-87680626D02*
X185333333Y-87585388D01*
X185333333Y-87585388D02*
X185523809Y-87490150D01*
X185523809Y-87490150D02*
X186000000Y-87490150D01*
X186000000Y-87490150D02*
X186190476Y-87585388D01*
X186190476Y-87585388D02*
X186285714Y-87680626D01*
X186285714Y-87680626D02*
X186380952Y-87871102D01*
X186380952Y-87871102D02*
X186380952Y-88061578D01*
X186380952Y-88061578D02*
X186285714Y-88347292D01*
X186285714Y-88347292D02*
X185142857Y-89490150D01*
X185142857Y-89490150D02*
X186380952Y-89490150D01*
X178809524Y-91662419D02*
X179095238Y-91757657D01*
X179095238Y-91757657D02*
X179190476Y-91852895D01*
X179190476Y-91852895D02*
X179285714Y-92043371D01*
X179285714Y-92043371D02*
X179285714Y-92329085D01*
X179285714Y-92329085D02*
X179190476Y-92519561D01*
X179190476Y-92519561D02*
X179095238Y-92614800D01*
X179095238Y-92614800D02*
X178904762Y-92710038D01*
X178904762Y-92710038D02*
X178142857Y-92710038D01*
X178142857Y-92710038D02*
X178142857Y-90710038D01*
X178142857Y-90710038D02*
X178809524Y-90710038D01*
X178809524Y-90710038D02*
X179000000Y-90805276D01*
X179000000Y-90805276D02*
X179095238Y-90900514D01*
X179095238Y-90900514D02*
X179190476Y-91090990D01*
X179190476Y-91090990D02*
X179190476Y-91281466D01*
X179190476Y-91281466D02*
X179095238Y-91471942D01*
X179095238Y-91471942D02*
X179000000Y-91567180D01*
X179000000Y-91567180D02*
X178809524Y-91662419D01*
X178809524Y-91662419D02*
X178142857Y-91662419D01*
X180428571Y-92710038D02*
X180238095Y-92614800D01*
X180238095Y-92614800D02*
X180142857Y-92519561D01*
X180142857Y-92519561D02*
X180047619Y-92329085D01*
X180047619Y-92329085D02*
X180047619Y-91757657D01*
X180047619Y-91757657D02*
X180142857Y-91567180D01*
X180142857Y-91567180D02*
X180238095Y-91471942D01*
X180238095Y-91471942D02*
X180428571Y-91376704D01*
X180428571Y-91376704D02*
X180714286Y-91376704D01*
X180714286Y-91376704D02*
X180904762Y-91471942D01*
X180904762Y-91471942D02*
X181000000Y-91567180D01*
X181000000Y-91567180D02*
X181095238Y-91757657D01*
X181095238Y-91757657D02*
X181095238Y-92329085D01*
X181095238Y-92329085D02*
X181000000Y-92519561D01*
X181000000Y-92519561D02*
X180904762Y-92614800D01*
X180904762Y-92614800D02*
X180714286Y-92710038D01*
X180714286Y-92710038D02*
X180428571Y-92710038D01*
X182809524Y-92710038D02*
X182809524Y-91662419D01*
X182809524Y-91662419D02*
X182714286Y-91471942D01*
X182714286Y-91471942D02*
X182523810Y-91376704D01*
X182523810Y-91376704D02*
X182142857Y-91376704D01*
X182142857Y-91376704D02*
X181952381Y-91471942D01*
X182809524Y-92614800D02*
X182619048Y-92710038D01*
X182619048Y-92710038D02*
X182142857Y-92710038D01*
X182142857Y-92710038D02*
X181952381Y-92614800D01*
X181952381Y-92614800D02*
X181857143Y-92424323D01*
X181857143Y-92424323D02*
X181857143Y-92233847D01*
X181857143Y-92233847D02*
X181952381Y-92043371D01*
X181952381Y-92043371D02*
X182142857Y-91948133D01*
X182142857Y-91948133D02*
X182619048Y-91948133D01*
X182619048Y-91948133D02*
X182809524Y-91852895D01*
X183761905Y-92710038D02*
X183761905Y-91376704D01*
X183761905Y-91757657D02*
X183857143Y-91567180D01*
X183857143Y-91567180D02*
X183952381Y-91471942D01*
X183952381Y-91471942D02*
X184142857Y-91376704D01*
X184142857Y-91376704D02*
X184333334Y-91376704D01*
X185857143Y-92710038D02*
X185857143Y-90710038D01*
X185857143Y-92614800D02*
X185666667Y-92710038D01*
X185666667Y-92710038D02*
X185285714Y-92710038D01*
X185285714Y-92710038D02*
X185095238Y-92614800D01*
X185095238Y-92614800D02*
X185000000Y-92519561D01*
X185000000Y-92519561D02*
X184904762Y-92329085D01*
X184904762Y-92329085D02*
X184904762Y-91757657D01*
X184904762Y-91757657D02*
X185000000Y-91567180D01*
X185000000Y-91567180D02*
X185095238Y-91471942D01*
X185095238Y-91471942D02*
X185285714Y-91376704D01*
X185285714Y-91376704D02*
X185666667Y-91376704D01*
X185666667Y-91376704D02*
X185857143Y-91471942D01*
X80000000Y-41500000D02*
X202000000Y-41500000D01*
X202000000Y-77000000D01*
X80000000Y-77000000D01*
X80000000Y-41500000D01*
D12*
X199954819Y-44738094D02*
X200764342Y-44738094D01*
X200764342Y-44738094D02*
X200859580Y-44690475D01*
X200859580Y-44690475D02*
X200907200Y-44642856D01*
X200907200Y-44642856D02*
X200954819Y-44547618D01*
X200954819Y-44547618D02*
X200954819Y-44357142D01*
X200954819Y-44357142D02*
X200907200Y-44261904D01*
X200907200Y-44261904D02*
X200859580Y-44214285D01*
X200859580Y-44214285D02*
X200764342Y-44166666D01*
X200764342Y-44166666D02*
X199954819Y-44166666D01*
X200050057Y-43738094D02*
X200002438Y-43690475D01*
X200002438Y-43690475D02*
X199954819Y-43595237D01*
X199954819Y-43595237D02*
X199954819Y-43357142D01*
X199954819Y-43357142D02*
X200002438Y-43261904D01*
X200002438Y-43261904D02*
X200050057Y-43214285D01*
X200050057Y-43214285D02*
X200145295Y-43166666D01*
X200145295Y-43166666D02*
X200240533Y-43166666D01*
X200240533Y-43166666D02*
X200383390Y-43214285D01*
X200383390Y-43214285D02*
X200954819Y-43785713D01*
X200954819Y-43785713D02*
X200954819Y-43166666D01*
X200954819Y-42214285D02*
X200954819Y-42785713D01*
X200954819Y-42499999D02*
X199954819Y-42499999D01*
X199954819Y-42499999D02*
X200097676Y-42595237D01*
X200097676Y-42595237D02*
X200192914Y-42690475D01*
X200192914Y-42690475D02*
X200240533Y-42785713D01*
X198591220Y-45239899D02*
X198829315Y-45239899D01*
X198734077Y-45477994D02*
X198829315Y-45239899D01*
X198829315Y-45239899D02*
X198734077Y-45001804D01*
X199019791Y-45382756D02*
X198829315Y-45239899D01*
X198829315Y-45239899D02*
X199019791Y-45097042D01*
X198591220Y-45239899D02*
X198829315Y-45239899D01*
X198734077Y-45477994D02*
X198829315Y-45239899D01*
X198829315Y-45239899D02*
X198734077Y-45001804D01*
X199019791Y-45382756D02*
X198829315Y-45239899D01*
X198829315Y-45239899D02*
X199019791Y-45097042D01*
X183714285Y-67285010D02*
X183857142Y-67332629D01*
X183857142Y-67332629D02*
X183904761Y-67380248D01*
X183904761Y-67380248D02*
X183952380Y-67475486D01*
X183952380Y-67475486D02*
X183952380Y-67618343D01*
X183952380Y-67618343D02*
X183904761Y-67713581D01*
X183904761Y-67713581D02*
X183857142Y-67761201D01*
X183857142Y-67761201D02*
X183761904Y-67808820D01*
X183761904Y-67808820D02*
X183380952Y-67808820D01*
X183380952Y-67808820D02*
X183380952Y-66808820D01*
X183380952Y-66808820D02*
X183714285Y-66808820D01*
X183714285Y-66808820D02*
X183809523Y-66856439D01*
X183809523Y-66856439D02*
X183857142Y-66904058D01*
X183857142Y-66904058D02*
X183904761Y-66999296D01*
X183904761Y-66999296D02*
X183904761Y-67094534D01*
X183904761Y-67094534D02*
X183857142Y-67189772D01*
X183857142Y-67189772D02*
X183809523Y-67237391D01*
X183809523Y-67237391D02*
X183714285Y-67285010D01*
X183714285Y-67285010D02*
X183380952Y-67285010D01*
X184238095Y-66808820D02*
X184809523Y-66808820D01*
X184523809Y-67808820D02*
X184523809Y-66808820D01*
X185666666Y-67808820D02*
X185095238Y-67808820D01*
X185380952Y-67808820D02*
X185380952Y-66808820D01*
X185380952Y-66808820D02*
X185285714Y-66951677D01*
X185285714Y-66951677D02*
X185190476Y-67046915D01*
X185190476Y-67046915D02*
X185095238Y-67094534D01*
X98454819Y-54761904D02*
X99264342Y-54761904D01*
X99264342Y-54761904D02*
X99359580Y-54714285D01*
X99359580Y-54714285D02*
X99407200Y-54666666D01*
X99407200Y-54666666D02*
X99454819Y-54571428D01*
X99454819Y-54571428D02*
X99454819Y-54380952D01*
X99454819Y-54380952D02*
X99407200Y-54285714D01*
X99407200Y-54285714D02*
X99359580Y-54238095D01*
X99359580Y-54238095D02*
X99264342Y-54190476D01*
X99264342Y-54190476D02*
X98454819Y-54190476D01*
X98788152Y-53285714D02*
X99454819Y-53285714D01*
X98407200Y-53523809D02*
X99121485Y-53761904D01*
X99121485Y-53761904D02*
X99121485Y-53142857D01*
X97091220Y-55739899D02*
X97329315Y-55739899D01*
X97234077Y-55977994D02*
X97329315Y-55739899D01*
X97329315Y-55739899D02*
X97234077Y-55501804D01*
X97519791Y-55882756D02*
X97329315Y-55739899D01*
X97329315Y-55739899D02*
X97519791Y-55597042D01*
X97091220Y-55739899D02*
X97329315Y-55739899D01*
X97234077Y-55977994D02*
X97329315Y-55739899D01*
X97329315Y-55739899D02*
X97234077Y-55501804D01*
X97519791Y-55882756D02*
X97329315Y-55739899D01*
X97329315Y-55739899D02*
X97519791Y-55597042D01*
X116454819Y-63761904D02*
X117264342Y-63761904D01*
X117264342Y-63761904D02*
X117359580Y-63714285D01*
X117359580Y-63714285D02*
X117407200Y-63666666D01*
X117407200Y-63666666D02*
X117454819Y-63571428D01*
X117454819Y-63571428D02*
X117454819Y-63380952D01*
X117454819Y-63380952D02*
X117407200Y-63285714D01*
X117407200Y-63285714D02*
X117359580Y-63238095D01*
X117359580Y-63238095D02*
X117264342Y-63190476D01*
X117264342Y-63190476D02*
X116454819Y-63190476D01*
X116454819Y-62809523D02*
X116454819Y-62142857D01*
X116454819Y-62142857D02*
X117454819Y-62571428D01*
X115091220Y-64739899D02*
X115329315Y-64739899D01*
X115234077Y-64977994D02*
X115329315Y-64739899D01*
X115329315Y-64739899D02*
X115234077Y-64501804D01*
X115519791Y-64882756D02*
X115329315Y-64739899D01*
X115329315Y-64739899D02*
X115519791Y-64597042D01*
X115091220Y-64739899D02*
X115329315Y-64739899D01*
X115234077Y-64977994D02*
X115329315Y-64739899D01*
X115329315Y-64739899D02*
X115234077Y-64501804D01*
X115519791Y-64882756D02*
X115329315Y-64739899D01*
X115329315Y-64739899D02*
X115519791Y-64597042D01*
X182454819Y-53738094D02*
X183264342Y-53738094D01*
X183264342Y-53738094D02*
X183359580Y-53690475D01*
X183359580Y-53690475D02*
X183407200Y-53642856D01*
X183407200Y-53642856D02*
X183454819Y-53547618D01*
X183454819Y-53547618D02*
X183454819Y-53357142D01*
X183454819Y-53357142D02*
X183407200Y-53261904D01*
X183407200Y-53261904D02*
X183359580Y-53214285D01*
X183359580Y-53214285D02*
X183264342Y-53166666D01*
X183264342Y-53166666D02*
X182454819Y-53166666D01*
X183454819Y-52166666D02*
X183454819Y-52738094D01*
X183454819Y-52452380D02*
X182454819Y-52452380D01*
X182454819Y-52452380D02*
X182597676Y-52547618D01*
X182597676Y-52547618D02*
X182692914Y-52642856D01*
X182692914Y-52642856D02*
X182740533Y-52738094D01*
X182883390Y-51595237D02*
X182835771Y-51690475D01*
X182835771Y-51690475D02*
X182788152Y-51738094D01*
X182788152Y-51738094D02*
X182692914Y-51785713D01*
X182692914Y-51785713D02*
X182645295Y-51785713D01*
X182645295Y-51785713D02*
X182550057Y-51738094D01*
X182550057Y-51738094D02*
X182502438Y-51690475D01*
X182502438Y-51690475D02*
X182454819Y-51595237D01*
X182454819Y-51595237D02*
X182454819Y-51404761D01*
X182454819Y-51404761D02*
X182502438Y-51309523D01*
X182502438Y-51309523D02*
X182550057Y-51261904D01*
X182550057Y-51261904D02*
X182645295Y-51214285D01*
X182645295Y-51214285D02*
X182692914Y-51214285D01*
X182692914Y-51214285D02*
X182788152Y-51261904D01*
X182788152Y-51261904D02*
X182835771Y-51309523D01*
X182835771Y-51309523D02*
X182883390Y-51404761D01*
X182883390Y-51404761D02*
X182883390Y-51595237D01*
X182883390Y-51595237D02*
X182931009Y-51690475D01*
X182931009Y-51690475D02*
X182978628Y-51738094D01*
X182978628Y-51738094D02*
X183073866Y-51785713D01*
X183073866Y-51785713D02*
X183264342Y-51785713D01*
X183264342Y-51785713D02*
X183359580Y-51738094D01*
X183359580Y-51738094D02*
X183407200Y-51690475D01*
X183407200Y-51690475D02*
X183454819Y-51595237D01*
X183454819Y-51595237D02*
X183454819Y-51404761D01*
X183454819Y-51404761D02*
X183407200Y-51309523D01*
X183407200Y-51309523D02*
X183359580Y-51261904D01*
X183359580Y-51261904D02*
X183264342Y-51214285D01*
X183264342Y-51214285D02*
X183073866Y-51214285D01*
X183073866Y-51214285D02*
X182978628Y-51261904D01*
X182978628Y-51261904D02*
X182931009Y-51309523D01*
X182931009Y-51309523D02*
X182883390Y-51404761D01*
X181091220Y-54239899D02*
X181329315Y-54239899D01*
X181234077Y-54477994D02*
X181329315Y-54239899D01*
X181329315Y-54239899D02*
X181234077Y-54001804D01*
X181519791Y-54382756D02*
X181329315Y-54239899D01*
X181329315Y-54239899D02*
X181519791Y-54097042D01*
X181091220Y-54239899D02*
X181329315Y-54239899D01*
X181234077Y-54477994D02*
X181329315Y-54239899D01*
X181329315Y-54239899D02*
X181234077Y-54001804D01*
X181519791Y-54382756D02*
X181329315Y-54239899D01*
X181329315Y-54239899D02*
X181519791Y-54097042D01*
X188454819Y-50738094D02*
X189264342Y-50738094D01*
X189264342Y-50738094D02*
X189359580Y-50690475D01*
X189359580Y-50690475D02*
X189407200Y-50642856D01*
X189407200Y-50642856D02*
X189454819Y-50547618D01*
X189454819Y-50547618D02*
X189454819Y-50357142D01*
X189454819Y-50357142D02*
X189407200Y-50261904D01*
X189407200Y-50261904D02*
X189359580Y-50214285D01*
X189359580Y-50214285D02*
X189264342Y-50166666D01*
X189264342Y-50166666D02*
X188454819Y-50166666D01*
X189454819Y-49166666D02*
X189454819Y-49738094D01*
X189454819Y-49452380D02*
X188454819Y-49452380D01*
X188454819Y-49452380D02*
X188597676Y-49547618D01*
X188597676Y-49547618D02*
X188692914Y-49642856D01*
X188692914Y-49642856D02*
X188740533Y-49738094D01*
X189454819Y-48690475D02*
X189454819Y-48499999D01*
X189454819Y-48499999D02*
X189407200Y-48404761D01*
X189407200Y-48404761D02*
X189359580Y-48357142D01*
X189359580Y-48357142D02*
X189216723Y-48261904D01*
X189216723Y-48261904D02*
X189026247Y-48214285D01*
X189026247Y-48214285D02*
X188645295Y-48214285D01*
X188645295Y-48214285D02*
X188550057Y-48261904D01*
X188550057Y-48261904D02*
X188502438Y-48309523D01*
X188502438Y-48309523D02*
X188454819Y-48404761D01*
X188454819Y-48404761D02*
X188454819Y-48595237D01*
X188454819Y-48595237D02*
X188502438Y-48690475D01*
X188502438Y-48690475D02*
X188550057Y-48738094D01*
X188550057Y-48738094D02*
X188645295Y-48785713D01*
X188645295Y-48785713D02*
X188883390Y-48785713D01*
X188883390Y-48785713D02*
X188978628Y-48738094D01*
X188978628Y-48738094D02*
X189026247Y-48690475D01*
X189026247Y-48690475D02*
X189073866Y-48595237D01*
X189073866Y-48595237D02*
X189073866Y-48404761D01*
X189073866Y-48404761D02*
X189026247Y-48309523D01*
X189026247Y-48309523D02*
X188978628Y-48261904D01*
X188978628Y-48261904D02*
X188883390Y-48214285D01*
X187091220Y-51239899D02*
X187329315Y-51239899D01*
X187234077Y-51477994D02*
X187329315Y-51239899D01*
X187329315Y-51239899D02*
X187234077Y-51001804D01*
X187519791Y-51382756D02*
X187329315Y-51239899D01*
X187329315Y-51239899D02*
X187519791Y-51097042D01*
X187091220Y-51239899D02*
X187329315Y-51239899D01*
X187234077Y-51477994D02*
X187329315Y-51239899D01*
X187329315Y-51239899D02*
X187234077Y-51001804D01*
X187519791Y-51382756D02*
X187329315Y-51239899D01*
X187329315Y-51239899D02*
X187519791Y-51097042D01*
X152454819Y-68738094D02*
X153264342Y-68738094D01*
X153264342Y-68738094D02*
X153359580Y-68690475D01*
X153359580Y-68690475D02*
X153407200Y-68642856D01*
X153407200Y-68642856D02*
X153454819Y-68547618D01*
X153454819Y-68547618D02*
X153454819Y-68357142D01*
X153454819Y-68357142D02*
X153407200Y-68261904D01*
X153407200Y-68261904D02*
X153359580Y-68214285D01*
X153359580Y-68214285D02*
X153264342Y-68166666D01*
X153264342Y-68166666D02*
X152454819Y-68166666D01*
X153454819Y-67166666D02*
X153454819Y-67738094D01*
X153454819Y-67452380D02*
X152454819Y-67452380D01*
X152454819Y-67452380D02*
X152597676Y-67547618D01*
X152597676Y-67547618D02*
X152692914Y-67642856D01*
X152692914Y-67642856D02*
X152740533Y-67738094D01*
X152454819Y-66833332D02*
X152454819Y-66214285D01*
X152454819Y-66214285D02*
X152835771Y-66547618D01*
X152835771Y-66547618D02*
X152835771Y-66404761D01*
X152835771Y-66404761D02*
X152883390Y-66309523D01*
X152883390Y-66309523D02*
X152931009Y-66261904D01*
X152931009Y-66261904D02*
X153026247Y-66214285D01*
X153026247Y-66214285D02*
X153264342Y-66214285D01*
X153264342Y-66214285D02*
X153359580Y-66261904D01*
X153359580Y-66261904D02*
X153407200Y-66309523D01*
X153407200Y-66309523D02*
X153454819Y-66404761D01*
X153454819Y-66404761D02*
X153454819Y-66690475D01*
X153454819Y-66690475D02*
X153407200Y-66785713D01*
X153407200Y-66785713D02*
X153359580Y-66833332D01*
X151091220Y-69239899D02*
X151329315Y-69239899D01*
X151234077Y-69477994D02*
X151329315Y-69239899D01*
X151329315Y-69239899D02*
X151234077Y-69001804D01*
X151519791Y-69382756D02*
X151329315Y-69239899D01*
X151329315Y-69239899D02*
X151519791Y-69097042D01*
X151091220Y-69239899D02*
X151329315Y-69239899D01*
X151234077Y-69477994D02*
X151329315Y-69239899D01*
X151329315Y-69239899D02*
X151234077Y-69001804D01*
X151519791Y-69382756D02*
X151329315Y-69239899D01*
X151329315Y-69239899D02*
X151519791Y-69097042D01*
X164454819Y-62738094D02*
X165264342Y-62738094D01*
X165264342Y-62738094D02*
X165359580Y-62690475D01*
X165359580Y-62690475D02*
X165407200Y-62642856D01*
X165407200Y-62642856D02*
X165454819Y-62547618D01*
X165454819Y-62547618D02*
X165454819Y-62357142D01*
X165454819Y-62357142D02*
X165407200Y-62261904D01*
X165407200Y-62261904D02*
X165359580Y-62214285D01*
X165359580Y-62214285D02*
X165264342Y-62166666D01*
X165264342Y-62166666D02*
X164454819Y-62166666D01*
X165454819Y-61166666D02*
X165454819Y-61738094D01*
X165454819Y-61452380D02*
X164454819Y-61452380D01*
X164454819Y-61452380D02*
X164597676Y-61547618D01*
X164597676Y-61547618D02*
X164692914Y-61642856D01*
X164692914Y-61642856D02*
X164740533Y-61738094D01*
X164454819Y-60261904D02*
X164454819Y-60738094D01*
X164454819Y-60738094D02*
X164931009Y-60785713D01*
X164931009Y-60785713D02*
X164883390Y-60738094D01*
X164883390Y-60738094D02*
X164835771Y-60642856D01*
X164835771Y-60642856D02*
X164835771Y-60404761D01*
X164835771Y-60404761D02*
X164883390Y-60309523D01*
X164883390Y-60309523D02*
X164931009Y-60261904D01*
X164931009Y-60261904D02*
X165026247Y-60214285D01*
X165026247Y-60214285D02*
X165264342Y-60214285D01*
X165264342Y-60214285D02*
X165359580Y-60261904D01*
X165359580Y-60261904D02*
X165407200Y-60309523D01*
X165407200Y-60309523D02*
X165454819Y-60404761D01*
X165454819Y-60404761D02*
X165454819Y-60642856D01*
X165454819Y-60642856D02*
X165407200Y-60738094D01*
X165407200Y-60738094D02*
X165359580Y-60785713D01*
X163091220Y-63239899D02*
X163329315Y-63239899D01*
X163234077Y-63477994D02*
X163329315Y-63239899D01*
X163329315Y-63239899D02*
X163234077Y-63001804D01*
X163519791Y-63382756D02*
X163329315Y-63239899D01*
X163329315Y-63239899D02*
X163519791Y-63097042D01*
X163091220Y-63239899D02*
X163329315Y-63239899D01*
X163234077Y-63477994D02*
X163329315Y-63239899D01*
X163329315Y-63239899D02*
X163234077Y-63001804D01*
X163519791Y-63382756D02*
X163329315Y-63239899D01*
X163329315Y-63239899D02*
X163519791Y-63097042D01*
X80954819Y-45761904D02*
X81764342Y-45761904D01*
X81764342Y-45761904D02*
X81859580Y-45714285D01*
X81859580Y-45714285D02*
X81907200Y-45666666D01*
X81907200Y-45666666D02*
X81954819Y-45571428D01*
X81954819Y-45571428D02*
X81954819Y-45380952D01*
X81954819Y-45380952D02*
X81907200Y-45285714D01*
X81907200Y-45285714D02*
X81859580Y-45238095D01*
X81859580Y-45238095D02*
X81764342Y-45190476D01*
X81764342Y-45190476D02*
X80954819Y-45190476D01*
X81954819Y-44190476D02*
X81954819Y-44761904D01*
X81954819Y-44476190D02*
X80954819Y-44476190D01*
X80954819Y-44476190D02*
X81097676Y-44571428D01*
X81097676Y-44571428D02*
X81192914Y-44666666D01*
X81192914Y-44666666D02*
X81240533Y-44761904D01*
X79591220Y-46739899D02*
X79829315Y-46739899D01*
X79734077Y-46977994D02*
X79829315Y-46739899D01*
X79829315Y-46739899D02*
X79734077Y-46501804D01*
X80019791Y-46882756D02*
X79829315Y-46739899D01*
X79829315Y-46739899D02*
X80019791Y-46597042D01*
X79591220Y-46739899D02*
X79829315Y-46739899D01*
X79734077Y-46977994D02*
X79829315Y-46739899D01*
X79829315Y-46739899D02*
X79734077Y-46501804D01*
X80019791Y-46882756D02*
X79829315Y-46739899D01*
X79829315Y-46739899D02*
X80019791Y-46597042D01*
X158454819Y-65738094D02*
X159264342Y-65738094D01*
X159264342Y-65738094D02*
X159359580Y-65690475D01*
X159359580Y-65690475D02*
X159407200Y-65642856D01*
X159407200Y-65642856D02*
X159454819Y-65547618D01*
X159454819Y-65547618D02*
X159454819Y-65357142D01*
X159454819Y-65357142D02*
X159407200Y-65261904D01*
X159407200Y-65261904D02*
X159359580Y-65214285D01*
X159359580Y-65214285D02*
X159264342Y-65166666D01*
X159264342Y-65166666D02*
X158454819Y-65166666D01*
X159454819Y-64166666D02*
X159454819Y-64738094D01*
X159454819Y-64452380D02*
X158454819Y-64452380D01*
X158454819Y-64452380D02*
X158597676Y-64547618D01*
X158597676Y-64547618D02*
X158692914Y-64642856D01*
X158692914Y-64642856D02*
X158740533Y-64738094D01*
X158788152Y-63309523D02*
X159454819Y-63309523D01*
X158407200Y-63547618D02*
X159121485Y-63785713D01*
X159121485Y-63785713D02*
X159121485Y-63166666D01*
X157091220Y-66239899D02*
X157329315Y-66239899D01*
X157234077Y-66477994D02*
X157329315Y-66239899D01*
X157329315Y-66239899D02*
X157234077Y-66001804D01*
X157519791Y-66382756D02*
X157329315Y-66239899D01*
X157329315Y-66239899D02*
X157519791Y-66097042D01*
X157091220Y-66239899D02*
X157329315Y-66239899D01*
X157234077Y-66477994D02*
X157329315Y-66239899D01*
X157329315Y-66239899D02*
X157234077Y-66001804D01*
X157519791Y-66382756D02*
X157329315Y-66239899D01*
X157329315Y-66239899D02*
X157519791Y-66097042D01*
X193237200Y-69833332D02*
X193284819Y-69690475D01*
X193284819Y-69690475D02*
X193284819Y-69452380D01*
X193284819Y-69452380D02*
X193237200Y-69357142D01*
X193237200Y-69357142D02*
X193189580Y-69309523D01*
X193189580Y-69309523D02*
X193094342Y-69261904D01*
X193094342Y-69261904D02*
X192999104Y-69261904D01*
X192999104Y-69261904D02*
X192903866Y-69309523D01*
X192903866Y-69309523D02*
X192856247Y-69357142D01*
X192856247Y-69357142D02*
X192808628Y-69452380D01*
X192808628Y-69452380D02*
X192761009Y-69642856D01*
X192761009Y-69642856D02*
X192713390Y-69738094D01*
X192713390Y-69738094D02*
X192665771Y-69785713D01*
X192665771Y-69785713D02*
X192570533Y-69833332D01*
X192570533Y-69833332D02*
X192475295Y-69833332D01*
X192475295Y-69833332D02*
X192380057Y-69785713D01*
X192380057Y-69785713D02*
X192332438Y-69738094D01*
X192332438Y-69738094D02*
X192284819Y-69642856D01*
X192284819Y-69642856D02*
X192284819Y-69404761D01*
X192284819Y-69404761D02*
X192332438Y-69261904D01*
X192284819Y-68928570D02*
X193284819Y-68690475D01*
X193284819Y-68690475D02*
X192570533Y-68499999D01*
X192570533Y-68499999D02*
X193284819Y-68309523D01*
X193284819Y-68309523D02*
X192284819Y-68071428D01*
X193284819Y-67166666D02*
X193284819Y-67738094D01*
X193284819Y-67452380D02*
X192284819Y-67452380D01*
X192284819Y-67452380D02*
X192427676Y-67547618D01*
X192427676Y-67547618D02*
X192522914Y-67642856D01*
X192522914Y-67642856D02*
X192570533Y-67738094D01*
X122454819Y-66761904D02*
X123264342Y-66761904D01*
X123264342Y-66761904D02*
X123359580Y-66714285D01*
X123359580Y-66714285D02*
X123407200Y-66666666D01*
X123407200Y-66666666D02*
X123454819Y-66571428D01*
X123454819Y-66571428D02*
X123454819Y-66380952D01*
X123454819Y-66380952D02*
X123407200Y-66285714D01*
X123407200Y-66285714D02*
X123359580Y-66238095D01*
X123359580Y-66238095D02*
X123264342Y-66190476D01*
X123264342Y-66190476D02*
X122454819Y-66190476D01*
X122883390Y-65571428D02*
X122835771Y-65666666D01*
X122835771Y-65666666D02*
X122788152Y-65714285D01*
X122788152Y-65714285D02*
X122692914Y-65761904D01*
X122692914Y-65761904D02*
X122645295Y-65761904D01*
X122645295Y-65761904D02*
X122550057Y-65714285D01*
X122550057Y-65714285D02*
X122502438Y-65666666D01*
X122502438Y-65666666D02*
X122454819Y-65571428D01*
X122454819Y-65571428D02*
X122454819Y-65380952D01*
X122454819Y-65380952D02*
X122502438Y-65285714D01*
X122502438Y-65285714D02*
X122550057Y-65238095D01*
X122550057Y-65238095D02*
X122645295Y-65190476D01*
X122645295Y-65190476D02*
X122692914Y-65190476D01*
X122692914Y-65190476D02*
X122788152Y-65238095D01*
X122788152Y-65238095D02*
X122835771Y-65285714D01*
X122835771Y-65285714D02*
X122883390Y-65380952D01*
X122883390Y-65380952D02*
X122883390Y-65571428D01*
X122883390Y-65571428D02*
X122931009Y-65666666D01*
X122931009Y-65666666D02*
X122978628Y-65714285D01*
X122978628Y-65714285D02*
X123073866Y-65761904D01*
X123073866Y-65761904D02*
X123264342Y-65761904D01*
X123264342Y-65761904D02*
X123359580Y-65714285D01*
X123359580Y-65714285D02*
X123407200Y-65666666D01*
X123407200Y-65666666D02*
X123454819Y-65571428D01*
X123454819Y-65571428D02*
X123454819Y-65380952D01*
X123454819Y-65380952D02*
X123407200Y-65285714D01*
X123407200Y-65285714D02*
X123359580Y-65238095D01*
X123359580Y-65238095D02*
X123264342Y-65190476D01*
X123264342Y-65190476D02*
X123073866Y-65190476D01*
X123073866Y-65190476D02*
X122978628Y-65238095D01*
X122978628Y-65238095D02*
X122931009Y-65285714D01*
X122931009Y-65285714D02*
X122883390Y-65380952D01*
X121091220Y-67739899D02*
X121329315Y-67739899D01*
X121234077Y-67977994D02*
X121329315Y-67739899D01*
X121329315Y-67739899D02*
X121234077Y-67501804D01*
X121519791Y-67882756D02*
X121329315Y-67739899D01*
X121329315Y-67739899D02*
X121519791Y-67597042D01*
X121091220Y-67739899D02*
X121329315Y-67739899D01*
X121234077Y-67977994D02*
X121329315Y-67739899D01*
X121329315Y-67739899D02*
X121234077Y-67501804D01*
X121519791Y-67882756D02*
X121329315Y-67739899D01*
X121329315Y-67739899D02*
X121519791Y-67597042D01*
X140454819Y-76238094D02*
X141264342Y-76238094D01*
X141264342Y-76238094D02*
X141359580Y-76190475D01*
X141359580Y-76190475D02*
X141407200Y-76142856D01*
X141407200Y-76142856D02*
X141454819Y-76047618D01*
X141454819Y-76047618D02*
X141454819Y-75857142D01*
X141454819Y-75857142D02*
X141407200Y-75761904D01*
X141407200Y-75761904D02*
X141359580Y-75714285D01*
X141359580Y-75714285D02*
X141264342Y-75666666D01*
X141264342Y-75666666D02*
X140454819Y-75666666D01*
X141454819Y-74666666D02*
X141454819Y-75238094D01*
X141454819Y-74952380D02*
X140454819Y-74952380D01*
X140454819Y-74952380D02*
X140597676Y-75047618D01*
X140597676Y-75047618D02*
X140692914Y-75142856D01*
X140692914Y-75142856D02*
X140740533Y-75238094D01*
X141454819Y-73714285D02*
X141454819Y-74285713D01*
X141454819Y-73999999D02*
X140454819Y-73999999D01*
X140454819Y-73999999D02*
X140597676Y-74095237D01*
X140597676Y-74095237D02*
X140692914Y-74190475D01*
X140692914Y-74190475D02*
X140740533Y-74285713D01*
X139091220Y-76739899D02*
X139329315Y-76739899D01*
X139234077Y-76977994D02*
X139329315Y-76739899D01*
X139329315Y-76739899D02*
X139234077Y-76501804D01*
X139519791Y-76882756D02*
X139329315Y-76739899D01*
X139329315Y-76739899D02*
X139519791Y-76597042D01*
X139091220Y-76739899D02*
X139329315Y-76739899D01*
X139234077Y-76977994D02*
X139329315Y-76739899D01*
X139329315Y-76739899D02*
X139234077Y-76501804D01*
X139519791Y-76882756D02*
X139329315Y-76739899D01*
X139329315Y-76739899D02*
X139519791Y-76597042D01*
X172386666Y-78604819D02*
X172386666Y-79319104D01*
X172386666Y-79319104D02*
X172339047Y-79461961D01*
X172339047Y-79461961D02*
X172243809Y-79557200D01*
X172243809Y-79557200D02*
X172100952Y-79604819D01*
X172100952Y-79604819D02*
X172005714Y-79604819D01*
X172767619Y-78604819D02*
X173386666Y-78604819D01*
X173386666Y-78604819D02*
X173053333Y-78985771D01*
X173053333Y-78985771D02*
X173196190Y-78985771D01*
X173196190Y-78985771D02*
X173291428Y-79033390D01*
X173291428Y-79033390D02*
X173339047Y-79081009D01*
X173339047Y-79081009D02*
X173386666Y-79176247D01*
X173386666Y-79176247D02*
X173386666Y-79414342D01*
X173386666Y-79414342D02*
X173339047Y-79509580D01*
X173339047Y-79509580D02*
X173291428Y-79557200D01*
X173291428Y-79557200D02*
X173196190Y-79604819D01*
X173196190Y-79604819D02*
X172910476Y-79604819D01*
X172910476Y-79604819D02*
X172815238Y-79557200D01*
X172815238Y-79557200D02*
X172767619Y-79509580D01*
X86454819Y-48761904D02*
X87264342Y-48761904D01*
X87264342Y-48761904D02*
X87359580Y-48714285D01*
X87359580Y-48714285D02*
X87407200Y-48666666D01*
X87407200Y-48666666D02*
X87454819Y-48571428D01*
X87454819Y-48571428D02*
X87454819Y-48380952D01*
X87454819Y-48380952D02*
X87407200Y-48285714D01*
X87407200Y-48285714D02*
X87359580Y-48238095D01*
X87359580Y-48238095D02*
X87264342Y-48190476D01*
X87264342Y-48190476D02*
X86454819Y-48190476D01*
X86550057Y-47761904D02*
X86502438Y-47714285D01*
X86502438Y-47714285D02*
X86454819Y-47619047D01*
X86454819Y-47619047D02*
X86454819Y-47380952D01*
X86454819Y-47380952D02*
X86502438Y-47285714D01*
X86502438Y-47285714D02*
X86550057Y-47238095D01*
X86550057Y-47238095D02*
X86645295Y-47190476D01*
X86645295Y-47190476D02*
X86740533Y-47190476D01*
X86740533Y-47190476D02*
X86883390Y-47238095D01*
X86883390Y-47238095D02*
X87454819Y-47809523D01*
X87454819Y-47809523D02*
X87454819Y-47190476D01*
X85091220Y-49739899D02*
X85329315Y-49739899D01*
X85234077Y-49977994D02*
X85329315Y-49739899D01*
X85329315Y-49739899D02*
X85234077Y-49501804D01*
X85519791Y-49882756D02*
X85329315Y-49739899D01*
X85329315Y-49739899D02*
X85519791Y-49597042D01*
X85091220Y-49739899D02*
X85329315Y-49739899D01*
X85234077Y-49977994D02*
X85329315Y-49739899D01*
X85329315Y-49739899D02*
X85234077Y-49501804D01*
X85519791Y-49882756D02*
X85329315Y-49739899D01*
X85329315Y-49739899D02*
X85519791Y-49597042D01*
X194454819Y-47738094D02*
X195264342Y-47738094D01*
X195264342Y-47738094D02*
X195359580Y-47690475D01*
X195359580Y-47690475D02*
X195407200Y-47642856D01*
X195407200Y-47642856D02*
X195454819Y-47547618D01*
X195454819Y-47547618D02*
X195454819Y-47357142D01*
X195454819Y-47357142D02*
X195407200Y-47261904D01*
X195407200Y-47261904D02*
X195359580Y-47214285D01*
X195359580Y-47214285D02*
X195264342Y-47166666D01*
X195264342Y-47166666D02*
X194454819Y-47166666D01*
X194550057Y-46738094D02*
X194502438Y-46690475D01*
X194502438Y-46690475D02*
X194454819Y-46595237D01*
X194454819Y-46595237D02*
X194454819Y-46357142D01*
X194454819Y-46357142D02*
X194502438Y-46261904D01*
X194502438Y-46261904D02*
X194550057Y-46214285D01*
X194550057Y-46214285D02*
X194645295Y-46166666D01*
X194645295Y-46166666D02*
X194740533Y-46166666D01*
X194740533Y-46166666D02*
X194883390Y-46214285D01*
X194883390Y-46214285D02*
X195454819Y-46785713D01*
X195454819Y-46785713D02*
X195454819Y-46166666D01*
X194454819Y-45547618D02*
X194454819Y-45452380D01*
X194454819Y-45452380D02*
X194502438Y-45357142D01*
X194502438Y-45357142D02*
X194550057Y-45309523D01*
X194550057Y-45309523D02*
X194645295Y-45261904D01*
X194645295Y-45261904D02*
X194835771Y-45214285D01*
X194835771Y-45214285D02*
X195073866Y-45214285D01*
X195073866Y-45214285D02*
X195264342Y-45261904D01*
X195264342Y-45261904D02*
X195359580Y-45309523D01*
X195359580Y-45309523D02*
X195407200Y-45357142D01*
X195407200Y-45357142D02*
X195454819Y-45452380D01*
X195454819Y-45452380D02*
X195454819Y-45547618D01*
X195454819Y-45547618D02*
X195407200Y-45642856D01*
X195407200Y-45642856D02*
X195359580Y-45690475D01*
X195359580Y-45690475D02*
X195264342Y-45738094D01*
X195264342Y-45738094D02*
X195073866Y-45785713D01*
X195073866Y-45785713D02*
X194835771Y-45785713D01*
X194835771Y-45785713D02*
X194645295Y-45738094D01*
X194645295Y-45738094D02*
X194550057Y-45690475D01*
X194550057Y-45690475D02*
X194502438Y-45642856D01*
X194502438Y-45642856D02*
X194454819Y-45547618D01*
X193091220Y-48239899D02*
X193329315Y-48239899D01*
X193234077Y-48477994D02*
X193329315Y-48239899D01*
X193329315Y-48239899D02*
X193234077Y-48001804D01*
X193519791Y-48382756D02*
X193329315Y-48239899D01*
X193329315Y-48239899D02*
X193519791Y-48097042D01*
X193091220Y-48239899D02*
X193329315Y-48239899D01*
X193234077Y-48477994D02*
X193329315Y-48239899D01*
X193329315Y-48239899D02*
X193234077Y-48001804D01*
X193519791Y-48382756D02*
X193329315Y-48239899D01*
X193329315Y-48239899D02*
X193519791Y-48097042D01*
X128454819Y-69761904D02*
X129264342Y-69761904D01*
X129264342Y-69761904D02*
X129359580Y-69714285D01*
X129359580Y-69714285D02*
X129407200Y-69666666D01*
X129407200Y-69666666D02*
X129454819Y-69571428D01*
X129454819Y-69571428D02*
X129454819Y-69380952D01*
X129454819Y-69380952D02*
X129407200Y-69285714D01*
X129407200Y-69285714D02*
X129359580Y-69238095D01*
X129359580Y-69238095D02*
X129264342Y-69190476D01*
X129264342Y-69190476D02*
X128454819Y-69190476D01*
X129454819Y-68666666D02*
X129454819Y-68476190D01*
X129454819Y-68476190D02*
X129407200Y-68380952D01*
X129407200Y-68380952D02*
X129359580Y-68333333D01*
X129359580Y-68333333D02*
X129216723Y-68238095D01*
X129216723Y-68238095D02*
X129026247Y-68190476D01*
X129026247Y-68190476D02*
X128645295Y-68190476D01*
X128645295Y-68190476D02*
X128550057Y-68238095D01*
X128550057Y-68238095D02*
X128502438Y-68285714D01*
X128502438Y-68285714D02*
X128454819Y-68380952D01*
X128454819Y-68380952D02*
X128454819Y-68571428D01*
X128454819Y-68571428D02*
X128502438Y-68666666D01*
X128502438Y-68666666D02*
X128550057Y-68714285D01*
X128550057Y-68714285D02*
X128645295Y-68761904D01*
X128645295Y-68761904D02*
X128883390Y-68761904D01*
X128883390Y-68761904D02*
X128978628Y-68714285D01*
X128978628Y-68714285D02*
X129026247Y-68666666D01*
X129026247Y-68666666D02*
X129073866Y-68571428D01*
X129073866Y-68571428D02*
X129073866Y-68380952D01*
X129073866Y-68380952D02*
X129026247Y-68285714D01*
X129026247Y-68285714D02*
X128978628Y-68238095D01*
X128978628Y-68238095D02*
X128883390Y-68190476D01*
X127091220Y-70739899D02*
X127329315Y-70739899D01*
X127234077Y-70977994D02*
X127329315Y-70739899D01*
X127329315Y-70739899D02*
X127234077Y-70501804D01*
X127519791Y-70882756D02*
X127329315Y-70739899D01*
X127329315Y-70739899D02*
X127519791Y-70597042D01*
X127091220Y-70739899D02*
X127329315Y-70739899D01*
X127234077Y-70977994D02*
X127329315Y-70739899D01*
X127329315Y-70739899D02*
X127234077Y-70501804D01*
X127519791Y-70882756D02*
X127329315Y-70739899D01*
X127329315Y-70739899D02*
X127519791Y-70597042D01*
X146454819Y-71738094D02*
X147264342Y-71738094D01*
X147264342Y-71738094D02*
X147359580Y-71690475D01*
X147359580Y-71690475D02*
X147407200Y-71642856D01*
X147407200Y-71642856D02*
X147454819Y-71547618D01*
X147454819Y-71547618D02*
X147454819Y-71357142D01*
X147454819Y-71357142D02*
X147407200Y-71261904D01*
X147407200Y-71261904D02*
X147359580Y-71214285D01*
X147359580Y-71214285D02*
X147264342Y-71166666D01*
X147264342Y-71166666D02*
X146454819Y-71166666D01*
X147454819Y-70166666D02*
X147454819Y-70738094D01*
X147454819Y-70452380D02*
X146454819Y-70452380D01*
X146454819Y-70452380D02*
X146597676Y-70547618D01*
X146597676Y-70547618D02*
X146692914Y-70642856D01*
X146692914Y-70642856D02*
X146740533Y-70738094D01*
X146550057Y-69785713D02*
X146502438Y-69738094D01*
X146502438Y-69738094D02*
X146454819Y-69642856D01*
X146454819Y-69642856D02*
X146454819Y-69404761D01*
X146454819Y-69404761D02*
X146502438Y-69309523D01*
X146502438Y-69309523D02*
X146550057Y-69261904D01*
X146550057Y-69261904D02*
X146645295Y-69214285D01*
X146645295Y-69214285D02*
X146740533Y-69214285D01*
X146740533Y-69214285D02*
X146883390Y-69261904D01*
X146883390Y-69261904D02*
X147454819Y-69833332D01*
X147454819Y-69833332D02*
X147454819Y-69214285D01*
X145091220Y-72239899D02*
X145329315Y-72239899D01*
X145234077Y-72477994D02*
X145329315Y-72239899D01*
X145329315Y-72239899D02*
X145234077Y-72001804D01*
X145519791Y-72382756D02*
X145329315Y-72239899D01*
X145329315Y-72239899D02*
X145519791Y-72097042D01*
X145091220Y-72239899D02*
X145329315Y-72239899D01*
X145234077Y-72477994D02*
X145329315Y-72239899D01*
X145329315Y-72239899D02*
X145234077Y-72001804D01*
X145519791Y-72382756D02*
X145329315Y-72239899D01*
X145329315Y-72239899D02*
X145519791Y-72097042D01*
X176454819Y-56738094D02*
X177264342Y-56738094D01*
X177264342Y-56738094D02*
X177359580Y-56690475D01*
X177359580Y-56690475D02*
X177407200Y-56642856D01*
X177407200Y-56642856D02*
X177454819Y-56547618D01*
X177454819Y-56547618D02*
X177454819Y-56357142D01*
X177454819Y-56357142D02*
X177407200Y-56261904D01*
X177407200Y-56261904D02*
X177359580Y-56214285D01*
X177359580Y-56214285D02*
X177264342Y-56166666D01*
X177264342Y-56166666D02*
X176454819Y-56166666D01*
X177454819Y-55166666D02*
X177454819Y-55738094D01*
X177454819Y-55452380D02*
X176454819Y-55452380D01*
X176454819Y-55452380D02*
X176597676Y-55547618D01*
X176597676Y-55547618D02*
X176692914Y-55642856D01*
X176692914Y-55642856D02*
X176740533Y-55738094D01*
X176454819Y-54833332D02*
X176454819Y-54166666D01*
X176454819Y-54166666D02*
X177454819Y-54595237D01*
X175091220Y-57239899D02*
X175329315Y-57239899D01*
X175234077Y-57477994D02*
X175329315Y-57239899D01*
X175329315Y-57239899D02*
X175234077Y-57001804D01*
X175519791Y-57382756D02*
X175329315Y-57239899D01*
X175329315Y-57239899D02*
X175519791Y-57097042D01*
X175091220Y-57239899D02*
X175329315Y-57239899D01*
X175234077Y-57477994D02*
X175329315Y-57239899D01*
X175329315Y-57239899D02*
X175234077Y-57001804D01*
X175519791Y-57382756D02*
X175329315Y-57239899D01*
X175329315Y-57239899D02*
X175519791Y-57097042D01*
X190166666Y-78604819D02*
X190166666Y-79319104D01*
X190166666Y-79319104D02*
X190119047Y-79461961D01*
X190119047Y-79461961D02*
X190023809Y-79557200D01*
X190023809Y-79557200D02*
X189880952Y-79604819D01*
X189880952Y-79604819D02*
X189785714Y-79604819D01*
X190595238Y-78700057D02*
X190642857Y-78652438D01*
X190642857Y-78652438D02*
X190738095Y-78604819D01*
X190738095Y-78604819D02*
X190976190Y-78604819D01*
X190976190Y-78604819D02*
X191071428Y-78652438D01*
X191071428Y-78652438D02*
X191119047Y-78700057D01*
X191119047Y-78700057D02*
X191166666Y-78795295D01*
X191166666Y-78795295D02*
X191166666Y-78890533D01*
X191166666Y-78890533D02*
X191119047Y-79033390D01*
X191119047Y-79033390D02*
X190547619Y-79604819D01*
X190547619Y-79604819D02*
X191166666Y-79604819D01*
X110454819Y-60761904D02*
X111264342Y-60761904D01*
X111264342Y-60761904D02*
X111359580Y-60714285D01*
X111359580Y-60714285D02*
X111407200Y-60666666D01*
X111407200Y-60666666D02*
X111454819Y-60571428D01*
X111454819Y-60571428D02*
X111454819Y-60380952D01*
X111454819Y-60380952D02*
X111407200Y-60285714D01*
X111407200Y-60285714D02*
X111359580Y-60238095D01*
X111359580Y-60238095D02*
X111264342Y-60190476D01*
X111264342Y-60190476D02*
X110454819Y-60190476D01*
X110454819Y-59285714D02*
X110454819Y-59476190D01*
X110454819Y-59476190D02*
X110502438Y-59571428D01*
X110502438Y-59571428D02*
X110550057Y-59619047D01*
X110550057Y-59619047D02*
X110692914Y-59714285D01*
X110692914Y-59714285D02*
X110883390Y-59761904D01*
X110883390Y-59761904D02*
X111264342Y-59761904D01*
X111264342Y-59761904D02*
X111359580Y-59714285D01*
X111359580Y-59714285D02*
X111407200Y-59666666D01*
X111407200Y-59666666D02*
X111454819Y-59571428D01*
X111454819Y-59571428D02*
X111454819Y-59380952D01*
X111454819Y-59380952D02*
X111407200Y-59285714D01*
X111407200Y-59285714D02*
X111359580Y-59238095D01*
X111359580Y-59238095D02*
X111264342Y-59190476D01*
X111264342Y-59190476D02*
X111026247Y-59190476D01*
X111026247Y-59190476D02*
X110931009Y-59238095D01*
X110931009Y-59238095D02*
X110883390Y-59285714D01*
X110883390Y-59285714D02*
X110835771Y-59380952D01*
X110835771Y-59380952D02*
X110835771Y-59571428D01*
X110835771Y-59571428D02*
X110883390Y-59666666D01*
X110883390Y-59666666D02*
X110931009Y-59714285D01*
X110931009Y-59714285D02*
X111026247Y-59761904D01*
X109091220Y-61739899D02*
X109329315Y-61739899D01*
X109234077Y-61977994D02*
X109329315Y-61739899D01*
X109329315Y-61739899D02*
X109234077Y-61501804D01*
X109519791Y-61882756D02*
X109329315Y-61739899D01*
X109329315Y-61739899D02*
X109519791Y-61597042D01*
X109091220Y-61739899D02*
X109329315Y-61739899D01*
X109234077Y-61977994D02*
X109329315Y-61739899D01*
X109329315Y-61739899D02*
X109234077Y-61501804D01*
X109519791Y-61882756D02*
X109329315Y-61739899D01*
X109329315Y-61739899D02*
X109519791Y-61597042D01*
X92454819Y-51761904D02*
X93264342Y-51761904D01*
X93264342Y-51761904D02*
X93359580Y-51714285D01*
X93359580Y-51714285D02*
X93407200Y-51666666D01*
X93407200Y-51666666D02*
X93454819Y-51571428D01*
X93454819Y-51571428D02*
X93454819Y-51380952D01*
X93454819Y-51380952D02*
X93407200Y-51285714D01*
X93407200Y-51285714D02*
X93359580Y-51238095D01*
X93359580Y-51238095D02*
X93264342Y-51190476D01*
X93264342Y-51190476D02*
X92454819Y-51190476D01*
X92454819Y-50809523D02*
X92454819Y-50190476D01*
X92454819Y-50190476D02*
X92835771Y-50523809D01*
X92835771Y-50523809D02*
X92835771Y-50380952D01*
X92835771Y-50380952D02*
X92883390Y-50285714D01*
X92883390Y-50285714D02*
X92931009Y-50238095D01*
X92931009Y-50238095D02*
X93026247Y-50190476D01*
X93026247Y-50190476D02*
X93264342Y-50190476D01*
X93264342Y-50190476D02*
X93359580Y-50238095D01*
X93359580Y-50238095D02*
X93407200Y-50285714D01*
X93407200Y-50285714D02*
X93454819Y-50380952D01*
X93454819Y-50380952D02*
X93454819Y-50666666D01*
X93454819Y-50666666D02*
X93407200Y-50761904D01*
X93407200Y-50761904D02*
X93359580Y-50809523D01*
X91091220Y-52739899D02*
X91329315Y-52739899D01*
X91234077Y-52977994D02*
X91329315Y-52739899D01*
X91329315Y-52739899D02*
X91234077Y-52501804D01*
X91519791Y-52882756D02*
X91329315Y-52739899D01*
X91329315Y-52739899D02*
X91519791Y-52597042D01*
X91091220Y-52739899D02*
X91329315Y-52739899D01*
X91234077Y-52977994D02*
X91329315Y-52739899D01*
X91329315Y-52739899D02*
X91234077Y-52501804D01*
X91519791Y-52882756D02*
X91329315Y-52739899D01*
X91329315Y-52739899D02*
X91519791Y-52597042D01*
X134454819Y-73238094D02*
X135264342Y-73238094D01*
X135264342Y-73238094D02*
X135359580Y-73190475D01*
X135359580Y-73190475D02*
X135407200Y-73142856D01*
X135407200Y-73142856D02*
X135454819Y-73047618D01*
X135454819Y-73047618D02*
X135454819Y-72857142D01*
X135454819Y-72857142D02*
X135407200Y-72761904D01*
X135407200Y-72761904D02*
X135359580Y-72714285D01*
X135359580Y-72714285D02*
X135264342Y-72666666D01*
X135264342Y-72666666D02*
X134454819Y-72666666D01*
X135454819Y-71666666D02*
X135454819Y-72238094D01*
X135454819Y-71952380D02*
X134454819Y-71952380D01*
X134454819Y-71952380D02*
X134597676Y-72047618D01*
X134597676Y-72047618D02*
X134692914Y-72142856D01*
X134692914Y-72142856D02*
X134740533Y-72238094D01*
X134454819Y-71047618D02*
X134454819Y-70952380D01*
X134454819Y-70952380D02*
X134502438Y-70857142D01*
X134502438Y-70857142D02*
X134550057Y-70809523D01*
X134550057Y-70809523D02*
X134645295Y-70761904D01*
X134645295Y-70761904D02*
X134835771Y-70714285D01*
X134835771Y-70714285D02*
X135073866Y-70714285D01*
X135073866Y-70714285D02*
X135264342Y-70761904D01*
X135264342Y-70761904D02*
X135359580Y-70809523D01*
X135359580Y-70809523D02*
X135407200Y-70857142D01*
X135407200Y-70857142D02*
X135454819Y-70952380D01*
X135454819Y-70952380D02*
X135454819Y-71047618D01*
X135454819Y-71047618D02*
X135407200Y-71142856D01*
X135407200Y-71142856D02*
X135359580Y-71190475D01*
X135359580Y-71190475D02*
X135264342Y-71238094D01*
X135264342Y-71238094D02*
X135073866Y-71285713D01*
X135073866Y-71285713D02*
X134835771Y-71285713D01*
X134835771Y-71285713D02*
X134645295Y-71238094D01*
X134645295Y-71238094D02*
X134550057Y-71190475D01*
X134550057Y-71190475D02*
X134502438Y-71142856D01*
X134502438Y-71142856D02*
X134454819Y-71047618D01*
X133091220Y-73739899D02*
X133329315Y-73739899D01*
X133234077Y-73977994D02*
X133329315Y-73739899D01*
X133329315Y-73739899D02*
X133234077Y-73501804D01*
X133519791Y-73882756D02*
X133329315Y-73739899D01*
X133329315Y-73739899D02*
X133519791Y-73597042D01*
X133091220Y-73739899D02*
X133329315Y-73739899D01*
X133234077Y-73977994D02*
X133329315Y-73739899D01*
X133329315Y-73739899D02*
X133234077Y-73501804D01*
X133519791Y-73882756D02*
X133329315Y-73739899D01*
X133329315Y-73739899D02*
X133519791Y-73597042D01*
X104454819Y-57761904D02*
X105264342Y-57761904D01*
X105264342Y-57761904D02*
X105359580Y-57714285D01*
X105359580Y-57714285D02*
X105407200Y-57666666D01*
X105407200Y-57666666D02*
X105454819Y-57571428D01*
X105454819Y-57571428D02*
X105454819Y-57380952D01*
X105454819Y-57380952D02*
X105407200Y-57285714D01*
X105407200Y-57285714D02*
X105359580Y-57238095D01*
X105359580Y-57238095D02*
X105264342Y-57190476D01*
X105264342Y-57190476D02*
X104454819Y-57190476D01*
X104454819Y-56238095D02*
X104454819Y-56714285D01*
X104454819Y-56714285D02*
X104931009Y-56761904D01*
X104931009Y-56761904D02*
X104883390Y-56714285D01*
X104883390Y-56714285D02*
X104835771Y-56619047D01*
X104835771Y-56619047D02*
X104835771Y-56380952D01*
X104835771Y-56380952D02*
X104883390Y-56285714D01*
X104883390Y-56285714D02*
X104931009Y-56238095D01*
X104931009Y-56238095D02*
X105026247Y-56190476D01*
X105026247Y-56190476D02*
X105264342Y-56190476D01*
X105264342Y-56190476D02*
X105359580Y-56238095D01*
X105359580Y-56238095D02*
X105407200Y-56285714D01*
X105407200Y-56285714D02*
X105454819Y-56380952D01*
X105454819Y-56380952D02*
X105454819Y-56619047D01*
X105454819Y-56619047D02*
X105407200Y-56714285D01*
X105407200Y-56714285D02*
X105359580Y-56761904D01*
X103091220Y-58739899D02*
X103329315Y-58739899D01*
X103234077Y-58977994D02*
X103329315Y-58739899D01*
X103329315Y-58739899D02*
X103234077Y-58501804D01*
X103519791Y-58882756D02*
X103329315Y-58739899D01*
X103329315Y-58739899D02*
X103519791Y-58597042D01*
X103091220Y-58739899D02*
X103329315Y-58739899D01*
X103234077Y-58977994D02*
X103329315Y-58739899D01*
X103329315Y-58739899D02*
X103234077Y-58501804D01*
X103519791Y-58882756D02*
X103329315Y-58739899D01*
X103329315Y-58739899D02*
X103519791Y-58597042D01*
X170454819Y-59738094D02*
X171264342Y-59738094D01*
X171264342Y-59738094D02*
X171359580Y-59690475D01*
X171359580Y-59690475D02*
X171407200Y-59642856D01*
X171407200Y-59642856D02*
X171454819Y-59547618D01*
X171454819Y-59547618D02*
X171454819Y-59357142D01*
X171454819Y-59357142D02*
X171407200Y-59261904D01*
X171407200Y-59261904D02*
X171359580Y-59214285D01*
X171359580Y-59214285D02*
X171264342Y-59166666D01*
X171264342Y-59166666D02*
X170454819Y-59166666D01*
X171454819Y-58166666D02*
X171454819Y-58738094D01*
X171454819Y-58452380D02*
X170454819Y-58452380D01*
X170454819Y-58452380D02*
X170597676Y-58547618D01*
X170597676Y-58547618D02*
X170692914Y-58642856D01*
X170692914Y-58642856D02*
X170740533Y-58738094D01*
X170454819Y-57309523D02*
X170454819Y-57499999D01*
X170454819Y-57499999D02*
X170502438Y-57595237D01*
X170502438Y-57595237D02*
X170550057Y-57642856D01*
X170550057Y-57642856D02*
X170692914Y-57738094D01*
X170692914Y-57738094D02*
X170883390Y-57785713D01*
X170883390Y-57785713D02*
X171264342Y-57785713D01*
X171264342Y-57785713D02*
X171359580Y-57738094D01*
X171359580Y-57738094D02*
X171407200Y-57690475D01*
X171407200Y-57690475D02*
X171454819Y-57595237D01*
X171454819Y-57595237D02*
X171454819Y-57404761D01*
X171454819Y-57404761D02*
X171407200Y-57309523D01*
X171407200Y-57309523D02*
X171359580Y-57261904D01*
X171359580Y-57261904D02*
X171264342Y-57214285D01*
X171264342Y-57214285D02*
X171026247Y-57214285D01*
X171026247Y-57214285D02*
X170931009Y-57261904D01*
X170931009Y-57261904D02*
X170883390Y-57309523D01*
X170883390Y-57309523D02*
X170835771Y-57404761D01*
X170835771Y-57404761D02*
X170835771Y-57595237D01*
X170835771Y-57595237D02*
X170883390Y-57690475D01*
X170883390Y-57690475D02*
X170931009Y-57738094D01*
X170931009Y-57738094D02*
X171026247Y-57785713D01*
X169091220Y-60239899D02*
X169329315Y-60239899D01*
X169234077Y-60477994D02*
X169329315Y-60239899D01*
X169329315Y-60239899D02*
X169234077Y-60001804D01*
X169519791Y-60382756D02*
X169329315Y-60239899D01*
X169329315Y-60239899D02*
X169519791Y-60097042D01*
X169091220Y-60239899D02*
X169329315Y-60239899D01*
X169234077Y-60477994D02*
X169329315Y-60239899D01*
X169329315Y-60239899D02*
X169234077Y-60001804D01*
X169519791Y-60382756D02*
X169329315Y-60239899D01*
X169329315Y-60239899D02*
X169519791Y-60097042D01*
D13*
%TO.C,U21*%
X199369700Y-44281871D02*
X199369700Y-42718129D01*
X201630300Y-44281871D02*
X201630300Y-42718129D01*
D14*
%TO.C,BT1*%
X183120000Y-68354001D02*
X184500000Y-68354001D01*
X183120000Y-69734001D02*
X183120000Y-68354001D01*
X183120000Y-71004001D02*
X183120000Y-73654001D01*
X183120000Y-71004001D02*
X185880000Y-71004001D01*
X183120000Y-73654001D02*
X185880000Y-73654001D01*
X185880000Y-71004001D02*
X185880000Y-73654001D01*
D13*
%TO.C,U4*%
X97869700Y-54781871D02*
X97869700Y-53218129D01*
X100130300Y-54781871D02*
X100130300Y-53218129D01*
%TO.C,U7*%
X115869700Y-63781871D02*
X115869700Y-62218129D01*
X118130300Y-63781871D02*
X118130300Y-62218129D01*
%TO.C,U18*%
X181869700Y-53281871D02*
X181869700Y-51718129D01*
X184130300Y-53281871D02*
X184130300Y-51718129D01*
%TO.C,U19*%
X187869700Y-50281871D02*
X187869700Y-48718129D01*
X190130300Y-50281871D02*
X190130300Y-48718129D01*
%TO.C,U13*%
X151869700Y-68281871D02*
X151869700Y-66718129D01*
X154130300Y-68281871D02*
X154130300Y-66718129D01*
%TO.C,U15*%
X163869700Y-62281871D02*
X163869700Y-60718129D01*
X166130300Y-62281871D02*
X166130300Y-60718129D01*
%TO.C,U1*%
X80369700Y-45781871D02*
X80369700Y-44218129D01*
X82630300Y-45781871D02*
X82630300Y-44218129D01*
%TO.C,U14*%
X157869700Y-65281871D02*
X157869700Y-63718129D01*
X160130300Y-65281871D02*
X160130300Y-63718129D01*
D14*
%TO.C,SW1*%
X193920000Y-63485000D02*
X193920000Y-63505000D01*
X193920000Y-73495000D02*
X193920000Y-73515000D01*
X193920000Y-73515000D02*
X194420000Y-73515000D01*
X194420000Y-63485000D02*
X193920000Y-63485000D01*
X194420000Y-73515000D02*
X194420000Y-63485000D01*
X195435000Y-74935000D02*
X198510000Y-74935000D01*
X198510000Y-62065000D02*
X195435000Y-62065000D01*
X198510000Y-74935000D02*
X198510000Y-62065000D01*
D13*
%TO.C,U8*%
X121869700Y-66781871D02*
X121869700Y-65218129D01*
X124130300Y-66781871D02*
X124130300Y-65218129D01*
%TO.C,U11*%
X139869700Y-75781871D02*
X139869700Y-74218129D01*
X142130300Y-75781871D02*
X142130300Y-74218129D01*
D14*
%TO.C,J3*%
X171390000Y-83190000D02*
X171390000Y-101030000D01*
X171390000Y-83190000D02*
X174050000Y-83190000D01*
X171390000Y-101030000D02*
X174050000Y-101030000D01*
X172720000Y-80590000D02*
X174050000Y-80590000D01*
X174050000Y-80590000D02*
X174050000Y-81920000D01*
X174050000Y-83190000D02*
X174050000Y-101030000D01*
D13*
%TO.C,U2*%
X85869700Y-48781871D02*
X85869700Y-47218129D01*
X88130300Y-48781871D02*
X88130300Y-47218129D01*
%TO.C,U20*%
X193869700Y-47281871D02*
X193869700Y-45718129D01*
X196130300Y-47281871D02*
X196130300Y-45718129D01*
%TO.C,U9*%
X127869700Y-69781871D02*
X127869700Y-68218129D01*
X130130300Y-69781871D02*
X130130300Y-68218129D01*
%TO.C,U12*%
X145869700Y-71281871D02*
X145869700Y-69718129D01*
X148130300Y-71281871D02*
X148130300Y-69718129D01*
%TO.C,U17*%
X175869700Y-56281871D02*
X175869700Y-54718129D01*
X178130300Y-56281871D02*
X178130300Y-54718129D01*
D14*
%TO.C,J2*%
X189170000Y-83190000D02*
X189170000Y-101030000D01*
X189170000Y-83190000D02*
X191830000Y-83190000D01*
X189170000Y-101030000D02*
X191830000Y-101030000D01*
X190500000Y-80590000D02*
X191830000Y-80590000D01*
X191830000Y-80590000D02*
X191830000Y-81920000D01*
X191830000Y-83190000D02*
X191830000Y-101030000D01*
D13*
%TO.C,U6*%
X109869700Y-60781871D02*
X109869700Y-59218129D01*
X112130300Y-60781871D02*
X112130300Y-59218129D01*
%TO.C,U3*%
X91869700Y-51781871D02*
X91869700Y-50218129D01*
X94130300Y-51781871D02*
X94130300Y-50218129D01*
%TO.C,U10*%
X133869700Y-72781871D02*
X133869700Y-71218129D01*
X136130300Y-72781871D02*
X136130300Y-71218129D01*
%TO.C,U5*%
X103869700Y-57781871D02*
X103869700Y-56218129D01*
X106130300Y-57781871D02*
X106130300Y-56218129D01*
%TO.C,U16*%
X169869700Y-59281871D02*
X169869700Y-57718129D01*
X172130300Y-59281871D02*
X172130300Y-57718129D01*
%TD*%
M02*
