%TF.GenerationSoftware,KiCad,Pcbnew,9.0.4*%
%TF.CreationDate,2026-01-28T22:22:26+09:00*%
%TF.ProjectId,kalimba,6b616c69-6d62-4612-9e6b-696361645f70,rev?*%
%TF.SameCoordinates,Original*%
%TF.FileFunction,Paste,Top*%
%TF.FilePolarity,Positive*%
%FSLAX46Y46*%
G04 Gerber Fmt 4.6, Leading zero omitted, Abs format (unit mm)*
G04 Created by KiCad (PCBNEW 9.0.4) date 2026-01-28 22:22:26*
%MOMM*%
%LPD*%
G01*
G04 APERTURE LIST*
%ADD10R,0.609600X0.609600*%
G04 APERTURE END LIST*
D10*
%TO.C,U21*%
X200000001Y-44655700D03*
X200999999Y-44655700D03*
X200999999Y-42344300D03*
X200000001Y-42344300D03*
%TD*%
%TO.C,U4*%
X98500001Y-55155700D03*
X99499999Y-55155700D03*
X99499999Y-52844300D03*
X98500001Y-52844300D03*
%TD*%
%TO.C,U7*%
X116500001Y-64155700D03*
X117499999Y-64155700D03*
X117499999Y-61844300D03*
X116500001Y-61844300D03*
%TD*%
%TO.C,U18*%
X182500001Y-53655700D03*
X183499999Y-53655700D03*
X183499999Y-51344300D03*
X182500001Y-51344300D03*
%TD*%
%TO.C,U19*%
X188500001Y-50655700D03*
X189499999Y-50655700D03*
X189499999Y-48344300D03*
X188500001Y-48344300D03*
%TD*%
%TO.C,U13*%
X152500001Y-68655700D03*
X153499999Y-68655700D03*
X153499999Y-66344300D03*
X152500001Y-66344300D03*
%TD*%
%TO.C,U15*%
X164500001Y-62655700D03*
X165499999Y-62655700D03*
X165499999Y-60344300D03*
X164500001Y-60344300D03*
%TD*%
%TO.C,U1*%
X81000001Y-46155700D03*
X81999999Y-46155700D03*
X81999999Y-43844300D03*
X81000001Y-43844300D03*
%TD*%
%TO.C,U14*%
X158500001Y-65655700D03*
X159499999Y-65655700D03*
X159499999Y-63344300D03*
X158500001Y-63344300D03*
%TD*%
%TO.C,U8*%
X122500001Y-67155700D03*
X123499999Y-67155700D03*
X123499999Y-64844300D03*
X122500001Y-64844300D03*
%TD*%
%TO.C,U11*%
X140500001Y-76155700D03*
X141499999Y-76155700D03*
X141499999Y-73844300D03*
X140500001Y-73844300D03*
%TD*%
%TO.C,U2*%
X86500001Y-49155700D03*
X87499999Y-49155700D03*
X87499999Y-46844300D03*
X86500001Y-46844300D03*
%TD*%
%TO.C,U20*%
X194500001Y-47655700D03*
X195499999Y-47655700D03*
X195499999Y-45344300D03*
X194500001Y-45344300D03*
%TD*%
%TO.C,U9*%
X128500001Y-70155700D03*
X129499999Y-70155700D03*
X129499999Y-67844300D03*
X128500001Y-67844300D03*
%TD*%
%TO.C,U12*%
X146500001Y-71655700D03*
X147499999Y-71655700D03*
X147499999Y-69344300D03*
X146500001Y-69344300D03*
%TD*%
%TO.C,U17*%
X176500001Y-56655700D03*
X177499999Y-56655700D03*
X177499999Y-54344300D03*
X176500001Y-54344300D03*
%TD*%
%TO.C,U6*%
X110500001Y-61155700D03*
X111499999Y-61155700D03*
X111499999Y-58844300D03*
X110500001Y-58844300D03*
%TD*%
%TO.C,U3*%
X92500001Y-52155700D03*
X93499999Y-52155700D03*
X93499999Y-49844300D03*
X92500001Y-49844300D03*
%TD*%
%TO.C,U10*%
X134500001Y-73155700D03*
X135499999Y-73155700D03*
X135499999Y-70844300D03*
X134500001Y-70844300D03*
%TD*%
%TO.C,U5*%
X104500001Y-58155700D03*
X105499999Y-58155700D03*
X105499999Y-55844300D03*
X104500001Y-55844300D03*
%TD*%
%TO.C,U16*%
X170500001Y-59655700D03*
X171499999Y-59655700D03*
X171499999Y-57344300D03*
X170500001Y-57344300D03*
%TD*%
M02*
