%TF.GenerationSoftware,KiCad,Pcbnew,9.0.4*%
%TF.CreationDate,2026-01-28T22:22:26+09:00*%
%TF.ProjectId,kalimba,6b616c69-6d62-4612-9e6b-696361645f70,rev?*%
%TF.SameCoordinates,Original*%
%TF.FileFunction,Soldermask,Top*%
%TF.FilePolarity,Negative*%
%FSLAX46Y46*%
G04 Gerber Fmt 4.6, Leading zero omitted, Abs format (unit mm)*
G04 Created by KiCad (PCBNEW 9.0.4) date 2026-01-28 22:22:26*
%MOMM*%
%LPD*%
G01*
G04 APERTURE LIST*
G04 Aperture macros list*
%AMRoundRect*
0 Rectangle with rounded corners*
0 $1 Rounding radius*
0 $2 $3 $4 $5 $6 $7 $8 $9 X,Y pos of 4 corners*
0 Add a 4 corners polygon primitive as box body*
4,1,4,$2,$3,$4,$5,$6,$7,$8,$9,$2,$3,0*
0 Add four circle primitives for the rounded corners*
1,1,$1+$1,$2,$3*
1,1,$1+$1,$4,$5*
1,1,$1+$1,$6,$7*
1,1,$1+$1,$8,$9*
0 Add four rect primitives between the rounded corners*
20,1,$1+$1,$2,$3,$4,$5,0*
20,1,$1+$1,$4,$5,$6,$7,0*
20,1,$1+$1,$6,$7,$8,$9,0*
20,1,$1+$1,$8,$9,$2,$3,0*%
G04 Aperture macros list end*
%ADD10R,0.609600X0.609600*%
%ADD11R,1.700000X1.700000*%
%ADD12C,1.700000*%
%ADD13C,1.270000*%
%ADD14RoundRect,0.250001X0.759999X-0.499999X0.759999X0.499999X-0.759999X0.499999X-0.759999X-0.499999X0*%
%ADD15O,2.020000X1.500000*%
G04 APERTURE END LIST*
D10*
%TO.C,U21*%
X200000001Y-44655700D03*
X200999999Y-44655700D03*
X200999999Y-42344300D03*
X200000001Y-42344300D03*
%TD*%
D11*
%TO.C,BT1*%
X184500000Y-69734001D03*
D12*
X184500000Y-72274001D03*
%TD*%
D10*
%TO.C,U4*%
X98500001Y-55155700D03*
X99499999Y-55155700D03*
X99499999Y-52844300D03*
X98500001Y-52844300D03*
%TD*%
%TO.C,U7*%
X116500001Y-64155700D03*
X117499999Y-64155700D03*
X117499999Y-61844300D03*
X116500001Y-61844300D03*
%TD*%
%TO.C,U18*%
X182500001Y-53655700D03*
X183499999Y-53655700D03*
X183499999Y-51344300D03*
X182500001Y-51344300D03*
%TD*%
%TO.C,U19*%
X188500001Y-50655700D03*
X189499999Y-50655700D03*
X189499999Y-48344300D03*
X188500001Y-48344300D03*
%TD*%
%TO.C,U13*%
X152500001Y-68655700D03*
X153499999Y-68655700D03*
X153499999Y-66344300D03*
X152500001Y-66344300D03*
%TD*%
%TO.C,U15*%
X164500001Y-62655700D03*
X165499999Y-62655700D03*
X165499999Y-60344300D03*
X164500001Y-60344300D03*
%TD*%
%TO.C,U1*%
X81000001Y-46155700D03*
X81999999Y-46155700D03*
X81999999Y-43844300D03*
X81000001Y-43844300D03*
%TD*%
%TO.C,U14*%
X158500001Y-65655700D03*
X159499999Y-65655700D03*
X159499999Y-63344300D03*
X158500001Y-63344300D03*
%TD*%
D13*
%TO.C,SW1*%
X194540000Y-74500000D03*
X194540000Y-62500000D03*
D14*
X196500000Y-71500000D03*
D15*
X196500000Y-68500000D03*
X196500000Y-65500000D03*
%TD*%
D10*
%TO.C,U8*%
X122500001Y-67155700D03*
X123499999Y-67155700D03*
X123499999Y-64844300D03*
X122500001Y-64844300D03*
%TD*%
%TO.C,U11*%
X140500001Y-76155700D03*
X141499999Y-76155700D03*
X141499999Y-73844300D03*
X140500001Y-73844300D03*
%TD*%
D11*
%TO.C,J3*%
X172720000Y-81920000D03*
D12*
X172720000Y-84460000D03*
X172720000Y-87000000D03*
X172720000Y-89540000D03*
X172720000Y-92080000D03*
X172720000Y-94620000D03*
X172720000Y-97160000D03*
X172720000Y-99700000D03*
%TD*%
D10*
%TO.C,U2*%
X86500001Y-49155700D03*
X87499999Y-49155700D03*
X87499999Y-46844300D03*
X86500001Y-46844300D03*
%TD*%
%TO.C,U20*%
X194500001Y-47655700D03*
X195499999Y-47655700D03*
X195499999Y-45344300D03*
X194500001Y-45344300D03*
%TD*%
%TO.C,U9*%
X128500001Y-70155700D03*
X129499999Y-70155700D03*
X129499999Y-67844300D03*
X128500001Y-67844300D03*
%TD*%
%TO.C,U12*%
X146500001Y-71655700D03*
X147499999Y-71655700D03*
X147499999Y-69344300D03*
X146500001Y-69344300D03*
%TD*%
%TO.C,U17*%
X176500001Y-56655700D03*
X177499999Y-56655700D03*
X177499999Y-54344300D03*
X176500001Y-54344300D03*
%TD*%
D11*
%TO.C,J2*%
X190500000Y-81920000D03*
D12*
X190500000Y-84460000D03*
X190500000Y-87000000D03*
X190500000Y-89540000D03*
X190500000Y-92080000D03*
X190500000Y-94620000D03*
X190500000Y-97160000D03*
X190500000Y-99700000D03*
%TD*%
D10*
%TO.C,U6*%
X110500001Y-61155700D03*
X111499999Y-61155700D03*
X111499999Y-58844300D03*
X110500001Y-58844300D03*
%TD*%
%TO.C,U3*%
X92500001Y-52155700D03*
X93499999Y-52155700D03*
X93499999Y-49844300D03*
X92500001Y-49844300D03*
%TD*%
%TO.C,U10*%
X134500001Y-73155700D03*
X135499999Y-73155700D03*
X135499999Y-70844300D03*
X134500001Y-70844300D03*
%TD*%
%TO.C,U5*%
X104500001Y-58155700D03*
X105499999Y-58155700D03*
X105499999Y-55844300D03*
X104500001Y-55844300D03*
%TD*%
%TO.C,U16*%
X170500001Y-59655700D03*
X171499999Y-59655700D03*
X171499999Y-57344300D03*
X170500001Y-57344300D03*
%TD*%
M02*
